<?xml version="1.0" encoding="UTF-8"?>
<svg id="Layer_1" data-name="Layer 1" xmlns="http://www.w3.org/2000/svg" viewBox="0 0 114.672 96.6708">
  <defs>
    <style>
      .cls-1 {
        fill: #b98e62;
      }

      .cls-1, .cls-2, .cls-3, .cls-4, .cls-5, .cls-6 {
        stroke-width: 0px;
      }

      .cls-2 {
        fill: #855c4c;
      }

      .cls-7 {
        stroke-linecap: round;
      }

      .cls-7, .cls-8 {
        fill: none;
        stroke: #000;
        stroke-miterlimit: 10;
        stroke-width: 4px;
      }

      .cls-3 {
        fill: #89644b;
      }

      .cls-4 {
        fill: #debb8d;
      }

      .cls-5 {
        fill: #ba905e;
      }

      .cls-6 {
        fill: #987253;
      }
    </style>
  </defs>
  <g>
    <g>
      <polygon class="cls-6" points="21.4134 30.3461 59.7054 52.4549 59.7044 96.6708 21.4124 74.5634 21.4134 30.3461"/>
      <polygon class="cls-3" points="21.4134 30.3461 59.7054 52.4549 59.7054 52.8677 21.4134 30.8751 21.4134 30.3461"/>
      <polygon class="cls-1" points="97.9964 30.3469 59.7054 52.4549 59.7044 96.6708 97.9954 74.5628 97.9964 30.3469"/>
      <polygon class="cls-5" points="21.4134 30.3461 59.7054 52.4549 97.9964 30.3454 59.7044 8.239 21.4134 30.3461"/>
    </g>
    <polygon class="cls-2" points="59.7044 52.4548 97.9964 30.3454 59.7044 8.239 59.7044 52.4548"/>
    <polygon class="cls-4" points="21.4132 30.3463 0 32.8114 38.6722 11.3002 59.7044 8.239 21.4132 30.3463"/>
    <polygon class="cls-4" points="59.7054 8.2212 76.7202 4.746 114.672 27.1076 97.9978 30.3273 59.7054 8.2212"/>
    <polygon class="cls-4" points="8.6482 46.0157 21.4136 30.3464 59.7054 52.4549 47.1104 67.7835 8.6482 46.0157"/>
    <polygon class="cls-4" points="59.7054 52.4549 97.9964 30.3469 113.1529 46.3751 72.468 70.3156 59.7054 52.4549"/>
  </g>
  <path class="cls-7" d="M42.22,14.7878s11.0096-23.108,31.9437-7.1976c3.0361,2.3075,5.3107,5.537,6.1566,9.2554,1.1362,4.9943-.0219,11.2667-12.3764,12.2344-6.7141.5259-11.5011,6.6955-10.3289,13.3273.3101,1.7543-.0104,3.1503.7371,5.3632"/>
  <circle class="cls-8" cx="59.0362" cy="57.6566" r="5.2018"/>
</svg>