<?xml version="1.0" encoding="UTF-8"?>
<svg id="Layer_1" data-name="Layer 1" xmlns="http://www.w3.org/2000/svg" viewBox="0 0 120.0275 118.9725">
  <defs>
    <style>
      .cls-1, .cls-2 {
        stroke: #000;
        stroke-miterlimit: 10;
        stroke-width: 2.5492px;
      }

      .cls-1, .cls-2, .cls-3 {
        fill: none;
      }

      .cls-1, .cls-2, .cls-4 {
        opacity: .79;
      }

      .cls-1, .cls-3 {
        stroke-linecap: round;
      }

      .cls-5 {
        fill: #676767;
      }

      .cls-5, .cls-6, .cls-7, .cls-8, .cls-9, .cls-10 {
        stroke-width: 0px;
      }

      .cls-6 {
        fill: silver;
      }

      .cls-7 {
        fill: #7a7a7a;
      }

      .cls-8 {
        fill: #6c6c6c;
      }

      .cls-9 {
        fill: #979797;
      }

      .cls-3 {
        stroke: #707070;
        stroke-dasharray: 0 0 19.5901 19.5901;
        stroke-linejoin: round;
        stroke-width: 3px;
      }

      .cls-10 {
        fill: #969696;
      }
    </style>
  </defs>
  <rect class="cls-3" x="1.5" y="1.5" width="117.0275" height="115.9725" rx="20.3304" ry="20.3304"/>
  <g class="cls-4">
    <g>
      <polygon class="cls-7" points="37.1207 47.3846 61.5238 61.4742 61.5231 89.6525 37.1201 75.5637 37.1207 47.3846"/>
      <polygon class="cls-8" points="37.1207 47.3846 61.5238 61.4742 61.5238 61.7373 37.1207 47.7217 37.1207 47.3846"/>
      <polygon class="cls-10" points="85.9261 47.3851 61.5238 61.4742 61.5231 89.6525 85.9255 75.5634 85.9261 47.3851"/>
      <polygon class="cls-9" points="37.1207 47.3846 61.5238 61.4742 85.9262 47.3842 61.5231 33.296 37.1207 47.3846"/>
    </g>
    <polygon class="cls-5" points="61.5231 61.4742 85.9262 47.3842 61.5231 33.296 61.5231 61.4742"/>
    <polygon class="cls-6" points="37.1206 47.3847 23.4742 48.9557 48.1195 35.2469 61.5231 33.296 37.1206 47.3847"/>
    <polygon class="cls-6" points="61.5238 33.2846 72.3671 31.0699 96.5533 45.3207 85.9271 47.3726 61.5238 33.2846"/>
    <polygon class="cls-6" points="28.9856 57.3706 37.1208 47.3848 61.5238 61.4742 53.4971 71.243 28.9856 57.3706"/>
    <polygon class="cls-6" points="61.5238 61.4742 85.9261 47.3851 95.5852 57.5997 69.6572 72.8567 61.5238 61.4742"/>
  </g>
  <path class="cls-1" d="M50.3805,37.4694s7.0163-14.7264,20.3574-4.587c1.9349,1.4705,3.3844,3.5286,3.9235,5.8984.7241,3.1828-.014,7.1802-7.8873,7.7968-4.2788.3351-7.3295,4.2669-6.5825,8.4933.1976,1.118-.0066,2.0076.4697,3.4179"/>
  <circle class="cls-2" cx="61.0973" cy="64.7892" r="3.3151"/>
</svg>