<?xml version="1.0" encoding="UTF-8"?>
<svg id="Layer_1" data-name="Layer 1" xmlns="http://www.w3.org/2000/svg" viewBox="0 0 101.5505 101.5505">
  <defs>
    <style>
      .cls-1 {
        fill: #b98e62;
      }

      .cls-1, .cls-2, .cls-3, .cls-4, .cls-5, .cls-6 {
        stroke-width: 0px;
      }

      .cls-7 {
        stroke: #121216;
        stroke-dasharray: 0 0 16.3524 16.3524;
        stroke-linejoin: round;
        stroke-width: 3px;
      }

      .cls-7, .cls-8, .cls-9 {
        fill: none;
      }

      .cls-7, .cls-9 {
        stroke-linecap: round;
      }

      .cls-2 {
        fill: #855c4c;
      }

      .cls-3 {
        fill: #89644b;
      }

      .cls-8, .cls-9 {
        stroke: #000;
        stroke-miterlimit: 10;
        stroke-width: 2.0421px;
      }

      .cls-4 {
        fill: #debb8d;
      }

      .cls-5 {
        fill: #ba905e;
      }

      .cls-6 {
        fill: #987253;
      }
    </style>
  </defs>
  <g>
    <g>
      <polygon class="cls-6" points="32.4361 41.2189 51.9849 52.5058 51.9844 75.0789 32.4356 63.7927 32.4361 41.2189"/>
      <polygon class="cls-3" points="32.4361 41.2189 51.9849 52.5058 51.9849 52.7166 32.4361 41.4889 32.4361 41.2189"/>
      <polygon class="cls-1" points="71.5331 41.2193 51.9849 52.5058 51.9844 75.0789 71.5326 63.7924 71.5331 41.2193"/>
      <polygon class="cls-5" points="32.4361 41.2189 51.9849 52.5058 71.5331 41.2186 51.9843 29.9328 32.4361 41.2189"/>
    </g>
    <polygon class="cls-2" points="51.9843 52.5058 71.5331 41.2186 51.9843 29.9328 51.9843 52.5058"/>
    <polygon class="cls-4" points="32.436 41.219 21.5041 42.4775 41.247 31.4956 51.9843 29.9328 32.436 41.219"/>
    <polygon class="cls-4" points="51.9849 29.9237 60.6712 28.1496 80.0463 39.5656 71.5339 41.2093 51.9849 29.9237"/>
    <polygon class="cls-4" points="25.9192 49.2185 32.4362 41.2191 51.9849 52.5058 45.5549 60.3314 25.9192 49.2185"/>
    <polygon class="cls-4" points="51.9849 52.5058 71.5331 41.2193 79.2708 49.402 58.5004 61.6241 51.9849 52.5058"/>
  </g>
  <path class="cls-9" d="M43.0582,33.2761s5.6206-11.7971,16.3079-3.6745c1.55,1.178,2.7112,2.8267,3.1431,4.7251.58,2.5497-.0112,5.7519-6.3184,6.2459-3.4277.2685-5.8715,3.4182-5.2731,6.8038.1583.8956-.0053,1.6083.3763,2.738"/>
  <circle class="cls-8" cx="51.6432" cy="55.1614" r="2.6556"/>
  <rect class="cls-7" x="1.5" y="1.5" width="98.5505" height="98.5505" rx="20" ry="20"/>
</svg>