<?xml version="1.0" encoding="UTF-8"?>
<svg id="Layer_1" data-name="Layer 1" xmlns="http://www.w3.org/2000/svg" viewBox="0 0 120.0275 118.9725">
  <defs>
    <style>
      .cls-1 {
        fill: #676767;
      }

      .cls-1, .cls-2, .cls-3, .cls-4, .cls-5, .cls-6, .cls-7 {
        stroke-width: 0px;
      }

      .cls-2 {
        fill: silver;
      }

      .cls-8, .cls-9 {
        stroke: #000;
        stroke-miterlimit: 10;
        stroke-width: 4px;
      }

      .cls-8, .cls-9, .cls-10 {
        fill: none;
      }

      .cls-8, .cls-10 {
        stroke-linecap: round;
      }

      .cls-3 {
        fill: #7a7a7a;
      }

      .cls-4 {
        fill: #6c6c6c;
      }

      .cls-5 {
        fill: #979797;
      }

      .cls-10 {
        stroke: #707070;
        stroke-dasharray: 0 0 19.5901 19.5901;
        stroke-linejoin: round;
        stroke-width: 3px;
      }

      .cls-6 {
        fill: #fff;
      }

      .cls-7 {
        fill: #969696;
      }
    </style>
  </defs>
  <g>
    <rect class="cls-6" x="1.5" y="1.5" width="117.0275" height="115.9725" rx="20.3304" ry="20.3304"/>
    <rect class="cls-10" x="1.5" y="1.5" width="117.0275" height="115.9725" rx="20.3304" ry="20.3304"/>
  </g>
  <g>
    <g>
      <polygon class="cls-3" points="24.0912 40.4969 62.3832 62.6057 62.3822 106.8216 24.0902 84.7142 24.0912 40.4969"/>
      <polygon class="cls-4" points="24.0912 40.4969 62.3832 62.6057 62.3832 63.0185 24.0912 41.0259 24.0912 40.4969"/>
      <polygon class="cls-7" points="100.6741 40.4977 62.3832 62.6057 62.3822 106.8216 100.6731 84.7137 100.6741 40.4977"/>
      <polygon class="cls-5" points="24.0912 40.4969 62.3832 62.6057 100.6742 40.4963 62.3821 18.3899 24.0912 40.4969"/>
    </g>
    <polygon class="cls-1" points="62.3822 62.6056 100.6742 40.4963 62.3821 18.3899 62.3822 62.6056"/>
    <polygon class="cls-2" points="24.091 40.4971 2.6778 42.9622 41.3499 21.451 62.3821 18.3899 24.091 40.4971"/>
    <polygon class="cls-2" points="62.3832 18.372 79.3979 14.8968 117.3498 37.2584 100.6756 40.4781 62.3832 18.372"/>
    <polygon class="cls-2" points="11.326 56.1665 24.0914 40.4973 62.3832 62.6057 49.7881 77.9344 11.326 56.1665"/>
    <polygon class="cls-2" points="62.3832 62.6057 100.6741 40.4977 115.8307 56.526 75.1457 80.4664 62.3832 62.6057"/>
  </g>
  <path class="cls-8" d="M44.8977,24.9386s11.0096-23.108,31.9437-7.1976c3.0361,2.3075,5.3107,5.537,6.1566,9.2554,1.1362,4.9943-.0219,11.2667-12.3764,12.2344-6.7141.5259-11.5011,6.6955-10.3289,13.3273.3101,1.7543-.0104,3.1503.7371,5.3632"/>
  <circle class="cls-9" cx="61.714" cy="67.8074" r="5.2018"/>
</svg>