<?xml version="1.0" encoding="UTF-8"?>
<svg id="Layer_1" data-name="Layer 1" xmlns="http://www.w3.org/2000/svg" viewBox="0 0 372.6919 424.6654">
  <defs>
    <style>
      .cls-1 {
        fill: none;
        stroke: #272730;
        stroke-linecap: round;
        stroke-miterlimit: 10;
        stroke-width: 3.3403px;
      }

      .cls-2 {
        fill: #80ea63;
      }

      .cls-2, .cls-3, .cls-4 {
        stroke-width: 0px;
      }

      .cls-3 {
        fill: #272730;
      }

      .cls-4 {
        fill: #fff;
      }
    </style>
  </defs>
  <g>
    <g>
      <path class="cls-2" d="M104.5222,422.8183c-19.1118,0-35.9263-13.5361-39.981-32.1855L2.779,105.0742c-2.3096-10.623-.3208-21.5454,5.6006-30.7563,5.9209-9.2109,15.0312-15.5557,25.6528-17.8647L253.1125,8.8217c2.8428-.6182,5.749-.9316,8.6387-.9316,19.1113,0,35.9258,13.5356,39.9805,32.1851l61.7617,285.5596c2.3096,10.623.3213,21.5449-5.6006,30.7559-5.9209,9.2109-15.0312,15.5557-25.6523,17.8652l-219.0801,47.6318c-2.8423.6182-5.7485.9307-8.6382.9307Z"/>
      <path class="cls-3" d="M261.7515,9.7372c18.2488,0,34.3038,12.9239,38.1743,30.7264l61.7634,285.5648c2.2044,10.1392.3045,20.5673-5.3498,29.3633-5.6543,8.796-14.3521,14.8542-24.4913,17.0586l-219.0802,47.6316c-2.714.5901-5.4884.8893-8.2461.8893-18.2492,0-34.3044-12.924-38.1749-30.7265L4.5835,104.68c-2.2044-10.1392-.3045-20.5673,5.3498-29.3633,5.6543-8.796,14.3521-14.8543,24.4913-17.0586L253.5048,10.6265c2.7138-.5901,5.4883-.8893,8.2461-.8893h.0007M261.7508,6.043c-2.9814,0-6.0057.3159-9.0309.9736L33.6398,54.6482C10.682,59.6395-4.0178,82.507.9736,105.4648l61.7626,285.5609c4.3336,19.9325,22.1419,33.6397,41.7856,33.6397,2.9814,0,6.0058-.3159,9.031-.9736l219.0801-47.6316c22.9578-4.9914,37.6576-27.8589,32.6662-50.8166l-61.7626-285.5609c-4.3336-19.9325-22.142-33.64-41.7857-33.6397h0Z"/>
    </g>
    <g>
      <path class="cls-2" d="M110.9402,416.7754c-19.1113,0-35.9253-13.5361-39.9795-32.1855L9.198,99.0312c-4.7876-22.0225,9.2324-43.8335,31.2534-48.6211L259.5315,2.7788c2.8428-.6182,5.749-.9316,8.6387-.9316,19.1113,0,35.9258,13.5356,39.9805,32.1851l61.7617,285.5586c4.7881,22.0234-9.2314,43.834-31.2529,48.6221l-219.0801,47.6309c-2.8428.6182-5.7495.9316-8.6392.9316Z"/>
      <path class="cls-3" d="M268.1707,3.6942c18.2488,0,34.3038,12.9239,38.1743,30.7264l61.7634,285.5648c2.2044,10.1392.3045,20.5673-5.3498,29.3633-5.6543,8.796-14.3521,14.8542-24.4913,17.0586l-219.0802,47.6316c-2.714.5901-5.4884.8893-8.2461.8893-18.2492,0-34.3044-12.924-38.1749-30.7265L11.0027,98.637c-2.2044-10.1392-.3045-20.5673,5.3498-29.3633,5.6543-8.796,14.3521-14.8543,24.4913-17.0586L259.924,4.5835c2.7138-.5901,5.4883-.8893,8.2461-.8893h.0007M268.17,0c-2.9814,0-6.0057.3159-9.0309.9736L40.059,48.6052C17.1012,53.5965,2.4014,76.464,7.3928,99.4218l61.7626,285.5609c4.3336,19.9325,22.1419,33.6397,41.7856,33.6397,2.9814,0,6.0058-.3159,9.031-.9736l219.0801-47.6316c22.9578-4.9914,37.6576-27.8589,32.6662-50.8166l-61.7626-285.5609C305.6221,13.7072,287.8137-.0003,268.17,0h0Z"/>
    </g>
    <g>
      <path class="cls-4" d="M119.5339,397.0439c-17.144,0-32.2271-12.1426-35.8643-28.8711L27.2683,108.7553c-4.2949-19.7534,8.2817-39.3184,28.0356-43.6133L251.8274,22.4145c2.5508-.5547,5.1572-.8354,7.75-.8354,17.1436,0,32.2266,12.1421,35.8643,28.8711l56.4014,259.416c4.2949,19.7539-8.2822,39.3193-28.0352,43.6143l-196.5249,42.7275c-2.5498.5547-5.1572.8359-7.749.8359Z"/>
      <path class="cls-3" d="M259.5776,23.2359c16.3698,0,30.7718,11.5933,34.2447,27.5664l56.4014,259.4167c1.9774,9.0952.2732,18.4497-4.799,26.3401-5.0721,7.8904-12.8745,13.3248-21.9697,15.3023l-196.5237,42.7274c-2.4346.5293-4.9234.7977-7.3971.7977-16.3702,0-30.7725-11.5933-34.2453-27.5664L28.8874,108.4034c-1.9774-9.0952-.2731-18.4497,4.799-26.3401,5.0721-7.8904,12.8744-13.3248,21.9697-15.3023L252.1798,24.0336c2.4346-.5293,4.9234-.7977,7.3972-.7977h.0006M259.577,19.9221c-2.6744,0-5.3874.2833-8.1012.8734L54.9521,63.5229c-20.594,4.4774-33.7803,24.9905-29.3028,45.5845l56.4014,259.4167c3.8875,17.8803,19.8623,30.1762,37.4835,30.1762,2.6745,0,5.3873-.2833,8.1011-.8734l196.5237-42.7274c20.5941-4.4775,33.7803-24.9905,29.3028-45.5846l-56.4014-259.4167c-3.8875-17.8803-19.8622-30.1765-37.4834-30.1762h0Z"/>
    </g>
  </g>
  <g>
    <path class="cls-4" d="M171.5207,352.082c-3.3164,0-6.2339-2.3477-6.9375-5.582l-4.6699-21.4805c-.4004-1.8418-.0552-3.7363.9727-5.334,1.0273-1.5986,2.6074-2.6992,4.4482-3.0996l21.4805-4.6709c.4927-.1074.9961-.1611,1.4961-.1611,3.3164,0,6.2344,2.3477,6.9375,5.582l4.6699,21.4805c.4004,1.8418.0547,3.7354-.9727,5.334s-2.6074,2.6992-4.4482,3.0996l-21.4805,4.6709c-.4922.1074-.9961.1611-1.4961.1611Z"/>
    <path class="cls-3" d="M188.312,313.2537c2.6151.0002,4.916,1.8513,5.4704,4.4015l4.6702,21.4803c.3152,1.4496.0421,2.9427-.7688,4.2042-.8109,1.2615-2.0559,2.1299-3.5055,2.445l-21.4802,4.6702c-.3885.0844-.785.1273-1.1786.1273-2.6154,0-4.9162-1.8511-5.4707-4.4016l-4.6702-21.4803c-.3152-1.4496-.0421-2.9427.7688-4.2042s2.0558-2.1298,3.5055-2.445l21.4802-4.6702c.3884-.0844.785-.1273,1.1788-.1273M188.3119,310.2537c-.5995,0-1.2076.0635-1.8159.1958l-21.4802,4.6702c-4.6163,1.0036-7.5721,5.6018-6.5684,10.218l4.6702,21.4803c.8714,4.008,4.4523,6.7642,8.4022,6.7642.5995,0,1.2076-.0635,1.8159-.1958l21.4802-4.6702c4.6163-1.0037,7.5721-5.6018,6.5684-10.2181l-4.6702-21.4803c-.8714-4.008-4.4522-6.7642-8.4021-6.7642h0Z"/>
  </g>
  <g>
    <path class="cls-4" d="M225.0481,340.4443c-3.3154,0-6.2334-2.3486-6.9365-5.583l-4.6699-21.4805c-.4004-1.8418-.0547-3.7354.9727-5.334s2.6074-2.6992,4.4482-3.0996l21.4805-4.6699c.4932-.1074.9971-.1621,1.498-.1621,3.3154,0,6.2324,2.3486,6.9355,5.583l4.6709,21.4805c.8301,3.8193-1.6025,7.6035-5.4209,8.4336l-21.4805,4.6699c-.4932.1074-.9971.1621-1.498.1621Z"/>
    <path class="cls-3" d="M241.8407,301.6157c2.6151.0002,4.916,1.8513,5.4705,4.4016l4.6702,21.4802c.3152,1.4496.0421,2.9427-.7688,4.2042-.8109,1.2615-2.0559,2.1299-3.5055,2.445l-21.4802,4.6702c-.3885.0845-.7851.1273-1.1786.1273-2.6154,0-4.9161-1.8511-5.4706-4.4016l-4.6702-21.4802c-.6548-3.0116,1.2626-5.9944,4.2743-6.6492l21.4802-4.6702c.3884-.0844.785-.1273,1.1787-.1273M241.8406,298.6157c-.5995,0-1.2076.0635-1.8159.1958l-21.4802,4.6702c-4.6163,1.0037-7.5721,5.6018-6.5684,10.2181l4.6702,21.4802c.8714,4.008,4.4522,6.7642,8.4021,6.7642.5995,0,1.2076-.0635,1.8159-.1958l21.4802-4.6702c4.6163-1.0037,7.5721-5.6018,6.5684-10.2181l-4.6702-21.4802c-.8714-4.008-4.4522-6.7643-8.4021-6.7642h0Z"/>
  </g>
  <g>
    <path class="cls-4" d="M288.6741,329.8281c-5.8516,0-11.166-4.9053-12.6357-11.6631l-15.6348-67.3359c-1.6719-7.6924,2.2285-15.1104,8.7002-16.5166l33.499-7.2832c.7021-.1533,1.4229-.2305,2.1406-.2305,5.8525,0,11.167,4.9053,12.6357,11.6621l15.6348,67.3369c1.6719,7.6914-2.2285,15.1104-8.6992,16.5166l-33.5,7.2832c-.7021.1533-1.4229.2305-2.1406.2305Z"/>
    <path class="cls-3" d="M304.7443,228.1844c5.1207.0005,9.9709,4.5451,11.2897,10.6096l15.6215,67.2794c1.5142,6.9644-1.9112,13.6429-7.6357,14.8875l-33.4998,7.2834c-.6053.1316-1.2263.1984-1.8458.1984-5.1214,0-9.9716-4.5448-11.2904-10.6095l-15.6215-67.2794c-.7471-3.4362-.3124-6.9059,1.2239-9.7699,1.4582-2.7182,3.7352-4.5357,6.4117-5.1176l33.4998-7.2834c.6052-.1316,1.2264-.1983,1.8465-.1984M304.7435,225.413c-.8083,0-1.623.0852-2.4346.2616l-33.4998,7.2834c-7.1994,1.5653-11.5891,9.7483-9.7549,18.1844l15.63,67.3174c1.6274,7.4851,7.6287,12.7541,13.99,12.7541.8083,0,1.623-.0852,2.4346-.2616l33.4998-7.2834c7.1994-1.5653,11.5891-9.7483,9.7549-18.1844l-15.63-67.3174c-1.6274-7.4851-7.6288-12.7545-13.9901-12.7542h0Z"/>
  </g>
  <g>
    <path class="cls-4" d="M89.69,168.6161c-7.3579,0-13.8311-5.2104-15.3921-12.3892l-10.0293-46.1289c-.8882-4.0864-.1216-8.29,2.1582-11.8369,2.2803-3.5469,5.7861-5.9893,9.8726-6.8779l167.061-37.6909c1.0732-.2334,2.1904-.354,3.3018-.354,7.3584,0,13.8311,5.2104,15.3916,12.3892l10.0293,46.1289c1.8428,8.4766-3.5537,16.8716-12.0293,18.7148l-167.0615,37.6909c-1.0732.2334-2.1914.354-3.3022.354Z"/>
    <path class="cls-3" d="M246.6626,56.0525c6.0902,0,11.4479,4.3113,12.7393,10.2513l10.0293,46.129c.7344,3.3778.0991,6.8556-1.7889,9.7927-1.888,2.9371-4.7881,4.959-8.2073,5.7026l-166.9987,37.6773c-.9048.1967-1.8288.2965-2.7465.2965-6.0904,0-11.4481-4.3113-12.7396-10.2513l-10.0293-46.129c-.7344-3.3778-.0991-6.8556,1.789-9.7927,1.888-2.9371,4.788-4.959,8.2073-5.7026l166.9987-37.6773c.9048-.1967,1.829-.2965,2.7468-.2965M246.6624,50.6245c-1.2874,0-2.5934.1364-3.8997.4204l-167.04,37.6865c-9.9135,2.1554-16.2611,12.0299-14.1057,21.9434l10.0293,46.129c1.8713,8.6071,9.5612,14.5261,18.0437,14.5261,1.2874,0,2.5934-.1364,3.8997-.4204l167.0401-37.6865c9.9135-2.1554,16.261-12.0299,14.1057-21.9434l-10.0292-46.129c-1.8714-8.6071-9.5612-14.5263-18.0437-14.5261h0Z"/>
  </g>
  <g>
    <path class="cls-4" d="M116.487,364.0478c-3.3159,0-6.2329-2.3486-6.9365-5.583l-4.6699-21.4805c-.4004-1.8418-.0552-3.7354.9727-5.334,1.0273-1.5986,2.6074-2.6992,4.4482-3.0996l21.4805-4.6709c.4922-.1074.9961-.1611,1.4961-.1611,3.3164,0,6.2339,2.3477,6.9375,5.583l4.6699,21.4795c.8306,3.8203-1.6011,7.6035-5.4214,8.4346l-21.48,4.6699c-.4932.1074-.9966.1621-1.4971.1621Z"/>
    <path class="cls-3" d="M133.2794,325.2187c2.6151.0002,4.916,1.8513,5.4704,4.4015l4.6702,21.4803c.3152,1.4496.0422,2.9427-.7688,4.2042-.8109,1.2615-2.0559,2.1299-3.5055,2.445l-21.4802,4.6702c-.3885.0845-.785.1273-1.1786.1273-2.6154,0-4.9161-1.8511-5.4706-4.4016l-4.6702-21.4802c-.6548-3.0116,1.2627-5.9944,4.2743-6.6492l21.4802-4.6702c.3884-.0844.785-.1273,1.1788-.1273M133.2792,322.2187c-.5995,0-1.2076.0635-1.8159.1958l-21.4802,4.6702c-4.6163,1.0037-7.5721,5.6018-6.5684,10.2181l4.6702,21.4802c.8714,4.008,4.4522,6.7642,8.4021,6.7642.5995,0,1.2076-.0635,1.8159-.1958l21.4802-4.6702c4.6163-1.0037,7.5721-5.6018,6.5684-10.2181l-4.6702-21.4803c-.8714-4.008-4.4522-6.7642-8.4021-6.7642h0Z"/>
  </g>
  <g>
    <path class="cls-4" d="M159.78,294.4648c-3.3159,0-6.2329-2.3486-6.9365-5.583l-4.6699-21.4805c-.8306-3.8193,1.6016-7.6025,5.4214-8.4336l21.48-4.6699c.4932-.1074.9966-.1621,1.4976-.1621,3.3159,0,6.2329,2.3486,6.936,5.583l4.6704,21.4795c.4004,1.8418.0547,3.7354-.9727,5.335-1.0278,1.5986-2.6079,2.6992-4.4492,3.0996l-21.48,4.6699c-.4932.1074-.9966.1621-1.4971.1621Z"/>
    <path class="cls-3" d="M176.5723,255.6358c2.6152.0002,4.9161,1.8513,5.4706,4.4016l4.6702,21.4802c.6548,3.0116-1.2627,5.9944-4.2743,6.6492l-21.4802,4.6702c-.3885.0845-.785.1273-1.1786.1273-2.6154,0-4.9161-1.8511-5.4706-4.4015l-4.6702-21.4803c-.3152-1.4496-.0421-2.9427.7688-4.2042.8109-1.2615,2.0559-2.1299,3.5055-2.445l21.4802-4.6702c.3884-.0844.785-.1273,1.1786-.1273M176.5722,252.6358c-.5995,0-1.2076.0635-1.8159.1958l-21.4802,4.6702c-4.6163,1.0037-7.5721,5.6018-6.5684,10.2181l4.6702,21.4803c.8714,4.008,4.4522,6.7642,8.4021,6.7642.5995,0,1.2076-.0635,1.8159-.1958l21.4802-4.6702c4.6163-1.0037,7.5721-5.6018,6.5684-10.2181l-4.6702-21.4802c-.8714-4.008-4.4523-6.7642-8.4022-6.7642h0Z"/>
  </g>
  <g>
    <path class="cls-4" d="M213.3088,282.8261c-3.3154,0-6.2334-2.3477-6.9365-5.582l-4.6699-21.4805c-.8311-3.8203,1.6016-7.6035,5.4209-8.4346l21.4805-4.6699c.4932-.1074.9971-.1621,1.498-.1621,3.3154,0,6.2324,2.3486,6.9355,5.583l4.6699,21.4805c.4004,1.8418.0547,3.7354-.9727,5.334s-2.6074,2.6992-4.4482,3.0996l-21.4805,4.6709c-.4932.1074-.9961.1611-1.4971.1611Z"/>
    <path class="cls-3" d="M230.1012,243.9977c2.6151.0002,4.916,1.8513,5.4704,4.4015l4.6702,21.4803c.3152,1.4496.0421,2.9427-.7688,4.2042-.8109,1.2615-2.0558,2.1299-3.5055,2.445l-21.4802,4.6702c-.3885.0845-.7851.1273-1.1786.1273-2.6154,0-4.9161-1.8511-5.4706-4.4016l-4.6702-21.4802c-.6548-3.0116,1.2626-5.9944,4.2742-6.6492l21.4803-4.6702c.3884-.0844.785-.1273,1.1788-.1273M230.101,240.9977c-.5995,0-1.2076.0635-1.8159.1958l-21.4803,4.6702c-4.6163,1.0037-7.5721,5.6018-6.5684,10.2181l4.6702,21.4802c.8714,4.008,4.4522,6.7642,8.4021,6.7642.5995,0,1.2076-.0635,1.8159-.1958l21.4802-4.6702c4.6163-1.0037,7.5721-5.6018,6.5684-10.2181l-4.6702-21.4803c-.8714-4.008-4.4522-6.7642-8.4021-6.7642h0Z"/>
  </g>
  <g>
    <path class="cls-4" d="M104.7473,306.4297c-3.3159,0-6.2329-2.3486-6.9365-5.583l-4.6699-21.4805c-.8306-3.8193,1.6016-7.6025,5.4214-8.4336l21.4805-4.6699c.4932-.1074.9966-.1621,1.4971-.1621,3.3159,0,6.2329,2.3486,6.936,5.583l4.6704,21.4805c.8301,3.8193-1.6016,7.6025-5.4214,8.4336l-21.4805,4.6699c-.4932.1074-.9966.1621-1.4971.1621Z"/>
    <path class="cls-3" d="M121.5398,267.6008c2.6151.0002,4.916,1.8513,5.4704,4.4015l4.6702,21.4803c.3152,1.4496.0421,2.9427-.7688,4.2042-.8109,1.2615-2.0558,2.1299-3.5054,2.445l-21.4802,4.6702c-.3885.0844-.785.1273-1.1786.1273-2.6154,0-4.9162-1.8511-5.4707-4.4016l-4.6702-21.4803c-.3152-1.4496-.0421-2.9427.7688-4.2042.8109-1.2615,2.0558-2.1298,3.5055-2.445l21.4802-4.6702c.3884-.0844.785-.1273,1.1788-.1273M121.5396,264.6008c-.5995,0-1.2076.0635-1.8159.1958l-21.4802,4.6702c-4.6163,1.0036-7.5721,5.6018-6.5684,10.218l4.6702,21.4803c.8714,4.008,4.4523,6.7642,8.4022,6.7642.5995,0,1.2076-.0635,1.8159-.1958l21.4802-4.6702c4.6163-1.0037,7.5721-5.6018,6.5684-10.2181l-4.6702-21.4803c-.8714-4.008-4.4522-6.7642-8.4021-6.7642h0Z"/>
  </g>
  <g>
    <path class="cls-4" d="M147.2527,236.8466c-3.3159,0-6.2329-2.3486-6.936-5.583l-4.6704-21.4805c-.8301-3.8193,1.6016-7.603,5.4214-8.4336l21.4805-4.6699c.4932-.1074.9966-.1616,1.4971-.1616,3.3159,0,6.2329,2.3481,6.9365,5.583l4.6699,21.48c.8306,3.8193-1.6016,7.6025-5.4214,8.4336l-21.4805,4.6699c-.4932.1074-.9966.1621-1.4971.1621Z"/>
    <path class="cls-3" d="M164.0453,198.0179c2.6151.0002,4.916,1.8513,5.4704,4.4015l4.6702,21.4802c.6548,3.0116-1.2626,5.9944-4.2742,6.6492l-21.4802,4.6702c-.3885.0845-.785.1273-1.1786.1273-2.6154,0-4.9161-1.8511-5.4706-4.4015l-4.6702-21.4803c-.3152-1.4496-.0421-2.9427.7688-4.2042s2.0559-2.1298,3.5055-2.445l21.4802-4.6702c.3884-.0844.785-.1273,1.1788-.1273M164.0452,195.0179c-.5995,0-1.2076.0635-1.8159.1958l-21.4802,4.6702c-4.6163,1.0036-7.5721,5.6018-6.5684,10.2181l4.6702,21.4803c.8714,4.008,4.4522,6.7642,8.4021,6.7642.5995,0,1.2076-.0635,1.8159-.1958l21.4802-4.6702c4.6163-1.0037,7.5721-5.6018,6.5684-10.2181l-4.6702-21.4802c-.8714-4.008-4.4522-6.7642-8.4021-6.7642h0Z"/>
  </g>
  <g>
    <path class="cls-4" d="M200.7815,225.209c-3.3154,0-6.2334-2.3486-6.9365-5.583l-4.6699-21.481c-.8301-3.8193,1.6016-7.603,5.4209-8.4336l21.4805-4.6699c.4932-.1074.9971-.1616,1.498-.1616,3.3154,0,6.2324,2.3481,6.9355,5.583l4.6699,21.4795c.4004,1.8418.0547,3.7354-.9727,5.335-1.0273,1.5986-2.6074,2.6992-4.4482,3.0996l-21.4795,4.6699c-.4932.1074-.9971.1621-1.498.1621Z"/>
    <path class="cls-3" d="M217.574,186.3798c2.6151.0002,4.916,1.8513,5.4705,4.4016l4.6702,21.4802c.3152,1.4496.0421,2.9427-.7688,4.2042-.8109,1.2615-2.0559,2.1299-3.5055,2.445l-21.4803,4.6702c-.3884.0845-.785.1273-1.1785.1273-2.6154,0-4.9162-1.8511-5.4707-4.4016l-4.6702-21.4802c-.6548-3.0116,1.2627-5.9944,4.2743-6.6492l21.4802-4.6702c.3885-.0844.7851-.1273,1.1787-.1273M217.5738,183.3798c-.5995,0-1.2076.0635-1.8159.1958l-21.4802,4.6702c-4.6163,1.0037-7.5721,5.6018-6.5684,10.2181l4.6702,21.4802c.8714,4.008,4.4523,6.7642,8.4022,6.7642.5995,0,1.2076-.0635,1.8159-.1958l21.4803-4.6702c4.6163-1.0037,7.5721-5.6018,6.5684-10.2181l-4.6702-21.4802c-.8714-4.008-4.4522-6.7642-8.4022-6.7642h0Z"/>
  </g>
  <g>
    <path class="cls-4" d="M273.1757,211.3259c-8.1914,0-15.3984-5.8013-17.1367-13.7939l-1.1113-5.1118c-2.0508-9.4375,3.958-18.7852,13.3955-20.8374l5.1113-1.1113c1.2188-.2646,2.4639-.3989,3.7012-.3989,8.1914,0,15.3984,5.8013,17.1367,13.7944l1.1113,5.1113c2.0508,9.438-3.958,18.7852-13.3945,20.8369l-5.1113,1.1113c-1.2188.2646-2.4639.3994-3.7021.3994Z"/>
    <path class="cls-3" d="M277.1363,171.7428h0c7.4108.0006,13.9317,5.2484,15.5036,12.4786l1.1113,5.1114c1.8563,8.5379-3.5797,16.9943-12.1176,18.8506l-5.1114,1.1113c-1.1019.2396-2.2278.361-3.3466.361-7.4116,0-13.9319-5.248-15.5039-12.4786l-1.1113-5.1114c-1.8563-8.5379,3.5796-16.9943,12.1176-18.8506l5.1114-1.1113c1.1018-.2395,2.2279-.361,3.347-.361M277.1359,168.4025c-1.3391,0-2.6975.1419-4.0563.4373l-5.1114,1.1113c-10.3115,2.2419-16.9138,12.5128-14.672,22.8243l1.1113,5.1114c1.9465,8.9527,9.9451,15.1093,18.768,15.1093,1.3391,0,2.6975-.1418,4.0563-.4373l5.1114-1.1113c10.3115-2.2419,16.9138-12.5128,14.672-22.8243l-1.1113-5.1114c-1.9465-8.9527-9.945-15.1094-18.768-15.1093h0Z"/>
  </g>
  <g>
    <path class="cls-4" d="M92.22,248.8115c-3.3159,0-6.2329-2.3486-6.936-5.583l-4.6704-21.4795c-.8301-3.8203,1.6021-7.6045,5.4219-8.4346l21.48-4.6699c.4932-.1074.9966-.1621,1.4971-.1621,3.3159,0,6.2329,2.3486,6.9365,5.583l4.6699,21.4805c.8306,3.8193-1.6016,7.6025-5.4214,8.4336l-21.48,4.6699c-.4932.1074-.9966.1621-1.4976.1621Z"/>
    <path class="cls-3" d="M109.0127,209.9829c2.6151.0002,4.916,1.8513,5.4704,4.4016l4.6702,21.4802c.6548,3.0116-1.2627,5.9944-4.2743,6.6492l-21.4802,4.6702c-.3885.0845-.785.1273-1.1786.1273-2.6154,0-4.9161-1.8511-5.4706-4.4015l-4.6702-21.4803c-.3152-1.4496-.0422-2.9427.7688-4.2042.8109-1.2615,2.0559-2.1299,3.5055-2.445l21.4802-4.6701c.3884-.0845.785-.1273,1.1788-.1273M109.0125,206.9829c-.5995,0-1.2076.0635-1.8159.1958l-21.4802,4.6702c-4.6163,1.0037-7.5721,5.6018-6.5684,10.2181l4.6702,21.4803c.8714,4.008,4.4522,6.7642,8.4021,6.7642.5995,0,1.2076-.0635,1.8159-.1958l21.4802-4.6702c4.6163-1.0037,7.5721-5.6018,6.5684-10.2181l-4.6702-21.4802c-.8714-4.008-4.4522-6.7642-8.4021-6.7642h0Z"/>
  </g>
  <line class="cls-1" x1="223.0953" y1="131.0465" x2="262.8443" y2="110.9772"/>
  <line class="cls-1" x1="206.5338" y1="131.917" x2="260.3551" y2="104.7425"/>
</svg>