<?xml version="1.0" encoding="UTF-8"?>
<svg id="Layer_1" data-name="Layer 1" xmlns="http://www.w3.org/2000/svg" viewBox="0 0 394.7121 237.2429">
  <defs>
    <style>
      .cls-1 {
        fill: #eace2d;
      }

      .cls-1, .cls-2 {
        stroke-width: 0px;
      }

      .cls-2 {
        fill: #272730;
      }
    </style>
  </defs>
  <path class="cls-1" d="M24.2617,225.3405c-6.8149,0-12.3599-5.5439-12.3599-12.3594v-80.1553c0-6.8149,5.5449-12.3594,12.3599-12.3594h114.9575l-4.2314-8.5825c-4.7197-9.5732-7.1128-19.8354-7.1128-30.5005,0-38.3125,31.1689-69.4819,69.481-69.4819s69.4814,31.1694,69.4814,69.4819c0,10.665-2.3926,20.9272-7.1133,30.5005l-4.2314,8.5825h114.958c6.8154,0,12.3594,5.5444,12.3594,12.3594v80.1553c0,6.8154-5.5439,12.3594-12.3594,12.3594H24.2617ZM197.5317,52.3415c-11.4766,0-20.813,9.3369-20.813,20.8135s9.3364,20.8135,20.813,20.8135,20.8135-9.3369,20.8135-20.8135-9.3369-20.8135-20.8135-20.8135Z"/>
  <path class="cls-2" d="M197.3562,17.8529c16.8862,0,32.8172,6.6313,44.8582,18.6723,12.0411,12.041,18.6724,27.972,18.6724,44.8583,0,9.7445-2.1869,19.1208-6.4998,27.8685l-8.463,17.1651h124.5266c3.4738,0,6.4087,2.9349,6.4087,6.4087v80.1553c0,3.4739-2.9348,6.4088-6.4087,6.4088H24.2617c-3.4738,0-6.4087-2.9348-6.4087-6.4087v-80.1552c0-3.4738,2.9348-6.4087,6.4087-6.4087h105.3888s19.1381,0,19.1381,0l-8.4632-17.1652c-4.313-8.7477-6.4998-18.1241-6.4998-27.8686,0-16.8862,6.6313-32.8172,18.6723-44.8582,12.0411-12.041,27.9721-18.6723,44.8584-18.6723M197.5317,99.9192c14.7579,0,26.7643-12.0065,26.7643-26.7644s-12.0064-26.7643-26.7643-26.7643-26.7643,12.0064-26.7643,26.7643,12.0064,26.7644,26.7643,26.7644M197.3562,5.951h-.0002c-41.4877,0-75.4324,33.9446-75.4324,75.4325v.0002c0,11.8693,2.7884,23.1154,7.7269,33.1317H24.2617c-10.0709,0-18.3107,8.2399-18.3107,18.3107v80.1552c0,10.0709,8.2398,18.3107,18.3107,18.3107h346.1888c10.0709-.0002,18.3107-8.2399,18.3107-18.3108v-80.1553c0-10.0708-8.2399-18.3106-18.3107-18.3106h-105.3885c4.9384-10.0162,7.7268-21.2624,7.7268-33.1317h0c0-41.488-33.9447-75.4325-75.4325-75.4325h0ZM197.5317,88.0173c-8.2083,0-14.8624-6.6541-14.8624-14.8625s6.6541-14.8624,14.8624-14.8624,14.8624,6.6541,14.8624,14.8624-6.6541,14.8625-14.8624,14.8625h0Z"/>
</svg>