<?xml version="1.0" encoding="UTF-8"?>
<svg id="Layer_1" data-name="Layer 1" xmlns="http://www.w3.org/2000/svg" viewBox="0 0 372.6919 448.019">
  <defs>
    <style>
      .cls-1 {
        stroke: #4ad1a0;
        stroke-width: 4.3538px;
      }

      .cls-1, .cls-2 {
        fill: none;
        stroke-linecap: round;
        stroke-miterlimit: 10;
      }

      .cls-2 {
        stroke: #272730;
        stroke-width: 6.0295px;
      }

      .cls-3 {
        fill: #272730;
      }

      .cls-3, .cls-4, .cls-5 {
        stroke-width: 0px;
      }

      .cls-4 {
        fill: #edb162;
      }

      .cls-5 {
        fill: #fff;
      }
    </style>
  </defs>
  <g>
    <g>
      <path class="cls-4" d="M104.5211,446.1719c-19.1113,0-35.9253-13.5361-39.9805-32.1855L2.7789,128.4278c-2.3096-10.623-.3208-21.5454,5.6006-30.7563,5.9209-9.2109,15.0312-15.5557,25.6528-17.8647l219.0806-47.6313c2.8428-.6182,5.749-.9316,8.6377-.9316,19.1123,0,35.9268,13.5356,39.9814,32.1851l61.7617,285.5596c4.7881,22.0225-9.2314,43.833-31.2529,48.6211l-219.0806,47.6309c-2.8428.6182-5.7495.9316-8.6392.9316Z"/>
      <path class="cls-3" d="M261.7515,33.0908c18.2488,0,34.3038,12.9239,38.1743,30.7264l61.7634,285.5648c2.2044,10.1392.3045,20.5673-5.3498,29.3633-5.6543,8.796-14.3521,14.8542-24.4913,17.0586l-219.0802,47.6316c-2.714.5901-5.4884.8893-8.2461.8893-18.2492,0-34.3044-12.924-38.1749-30.7265L4.5835,128.0336c-2.2044-10.1392-.3045-20.5673,5.3498-29.3633,5.6543-8.796,14.3521-14.8542,24.4913-17.0586l219.0802-47.6316c2.7138-.5901,5.4883-.8892,8.2461-.8892h.0007M261.7508,29.3966c-2.9814,0-6.0057.3159-9.0309.9736L33.6398,78.0017C10.682,82.9931-4.0178,105.8606.9736,128.8184l61.7626,285.5609c4.3336,19.9325,22.1419,33.6397,41.7856,33.6397,2.9814,0,6.0058-.3159,9.031-.9736l219.0801-47.6316c22.9578-4.9914,37.6576-27.8589,32.6662-50.8166l-61.7626-285.5609c-4.3336-19.9325-22.142-33.64-41.7857-33.6397h0Z"/>
    </g>
    <g>
      <path class="cls-4" d="M110.94,440.129c-19.1113,0-35.9253-13.5361-39.9795-32.1855L9.1979,122.3848c-4.7876-22.0225,9.2324-43.8335,31.2534-48.6211l219.0806-47.6313c2.8428-.6182,5.749-.9316,8.6387-.9316,19.1113,0,35.9258,13.5356,39.9805,32.1851l61.7617,285.5586c4.7881,22.0234-9.2314,43.834-31.2529,48.6221l-219.0806,47.6309c-2.8428.6182-5.7495.9316-8.6392.9316Z"/>
      <path class="cls-3" d="M268.1707,27.0478c18.2488,0,34.3038,12.9239,38.1743,30.7264l61.7634,285.5648c2.2044,10.1392.3045,20.5673-5.3498,29.3633-5.6543,8.796-14.3521,14.8542-24.4913,17.0586l-219.0802,47.6316c-2.714.5901-5.4884.8893-8.2461.8893-18.2492,0-34.3044-12.924-38.1749-30.7265L11.0027,121.9905c-2.2044-10.1392-.3045-20.5673,5.3498-29.3633,5.6543-8.796,14.3521-14.8543,24.4913-17.0586l219.0802-47.6316c2.7138-.5901,5.4883-.8893,8.2461-.8893h.0007M268.17,23.3536c-2.9814,0-6.0057.3159-9.0309.9736L40.059,71.9587c-22.9578,4.9914-37.6576,27.8589-32.6662,50.8166l61.7626,285.5609c4.3336,19.9325,22.1419,33.6397,41.7856,33.6397,2.9814,0,6.0058-.3159,9.031-.9736l219.0801-47.6316c22.9578-4.9914,37.6576-27.8589,32.6662-50.8166l-61.7626-285.5609c-4.3336-19.9325-22.142-33.64-41.7857-33.6397h0Z"/>
    </g>
    <g>
      <path class="cls-5" d="M119.5339,420.3975c-17.144,0-32.2271-12.1426-35.8643-28.8711L27.2683,132.1089c-4.2949-19.7534,8.2817-39.3184,28.0356-43.6133l196.5234-42.7275c2.5508-.5547,5.1572-.8354,7.75-.8354,17.1436,0,32.2266,12.1421,35.8643,28.8711l56.4014,259.416c4.2949,19.7539-8.2822,39.3193-28.0352,43.6143l-196.5249,42.7275c-2.5498.5547-5.1572.8359-7.749.8359Z"/>
      <path class="cls-3" d="M259.5776,46.5895c16.3698,0,30.7718,11.5933,34.2447,27.5664l56.4014,259.4167c1.9774,9.0952.2732,18.4497-4.799,26.3401-5.0721,7.8904-12.8745,13.3248-21.9697,15.3023l-196.5237,42.7274c-2.4346.5293-4.9234.7977-7.3971.7977-16.3702,0-30.7725-11.5933-34.2453-27.5664L28.8874,131.7569c-1.9774-9.0952-.2731-18.4497,4.799-26.3401,5.0721-7.8904,12.8744-13.3248,21.9697-15.3023l196.5237-42.7274c2.4346-.5293,4.9234-.7977,7.3972-.7977h.0006M259.577,43.2756c-2.6744,0-5.3874.2833-8.1012.8734L54.9521,86.8765c-20.594,4.4774-33.7803,24.9905-29.3028,45.5845l56.4014,259.4167c3.8875,17.8803,19.8623,30.1762,37.4835,30.1762,2.6745,0,5.3873-.2833,8.1011-.8734l196.5237-42.7274c20.5941-4.4775,33.7803-24.9905,29.3028-45.5846l-56.4014-259.4167c-3.8875-17.8803-19.8622-30.1765-37.4834-30.1762h0Z"/>
    </g>
    <line class="cls-2" x1="121.3461" y1="138.6866" x2="277.0806" y2="104.8274"/>
    <line class="cls-2" x1="174.3515" y1="156.7535" x2="282.3632" y2="133.27"/>
    <line class="cls-2" x1="135.9259" y1="205.7462" x2="291.6604" y2="171.887"/>
    <line class="cls-2" x1="188.9313" y1="223.8132" x2="296.943" y2="200.3297"/>
    <line class="cls-2" x1="150.5057" y1="272.8059" x2="306.2402" y2="238.9467"/>
    <line class="cls-2" x1="203.5111" y1="290.8728" x2="311.5228" y2="267.3893"/>
    <line class="cls-2" x1="165.0855" y1="339.8655" x2="320.82" y2="306.0063"/>
    <line class="cls-2" x1="218.0909" y1="357.9325" x2="326.1026" y2="334.449"/>
    <g>
      <path class="cls-5" d="M91.0325,91.6319c-2.0933,0-3.9346-1.4819-4.3784-3.5229l-6.1641-28.3506c-.5244-2.4106,1.0107-4.7979,3.4209-5.3218l40.6602-8.8408-2.1567-2.71c-2.4058-3.0229-4.0415-6.4683-4.8613-10.2402-2.9463-13.5508,5.6812-26.9722,19.2319-29.9185,1.749-.3804,3.5371-.5732,5.3145-.5732,11.7612,0,22.1084,8.3296,24.6035,19.8052.8203,3.772.7632,7.5854-.1704,11.335l-.8364,3.3613,40.6597-8.8403c.3105-.0679.6279-.1021.9434-.1021,2.0938,0,3.9346,1.4814,4.3789,3.5229l6.1641,28.3506c.5234,2.4106-1.0107,4.7979-3.4219,5.3218l-122.4443,26.6216c-.311.0679-.6284.1021-.9434.1021h0Z"/>
      <path class="cls-3" d="M142.0994,4.308h0c10.7549.0018,20.218,7.6174,22.499,18.1089.7494,3.4465.6969,6.931-.1559,10.3568l-1.6733,6.7219,6.769-1.4717,37.2751-8.1042c.161-.035.3246-.0527.4861-.0527,1.0873,0,2.0435.7682,2.2736,1.8266l6.1638,28.3504c.1755.8073-.1265,1.4384-.3222,1.7428-.1957.3044-.6444.8412-1.4517,1.0167l-122.4449,26.6215c-.1608.035-.3242.0527-.4858.0527-1.0873,0-2.0434-.7682-2.2735-1.8266l-6.1638-28.3504c-.1755-.8073.1265-1.4384.3222-1.7428.1957-.3044.6445-.8412,1.4517-1.0167l37.2753-8.1043,6.769-1.4717-4.3134-5.4204c-2.1981-2.7623-3.6927-5.9105-4.442-9.3571-1.2985-5.9726-.1782-12.1172,3.1548-17.3019,3.3329-5.1848,8.4576-8.7553,14.4302-10.0538,1.5996-.3478,3.2337-.5241,4.8568-.524M142.0997,0c-1.9065-.0002-3.8378.2017-5.7723.6223h0c-14.674,3.1904-24.0697,17.8066-20.8793,32.4806h0c.9128,4.1981,2.7638,7.9614,5.2807,11.1243l-37.2753,8.1043c-3.562.7744-5.8427,4.3224-5.0683,7.8844l6.1638,28.3504c.6723,3.0924,3.4357,5.2193,6.4832,5.2193.4628,0,.9316-.049,1.4012-.1511l122.4447-26.6214c3.562-.7744,5.8427-4.3224,5.0683-7.8844l-6.1638-28.3504c-.6724-3.0924-3.4357-5.2194-6.4832-5.2194-.4628,0-.9316.049-1.4012.1511l-37.2753,8.1043c.9764-3.9225,1.0979-8.1146.1851-12.3126h0C166.0382,8.7622,154.6543.0011,142.0997,0h0Z"/>
    </g>
  </g>
  <g>
    <g>
      <path class="cls-5" d="M67.3234,187.2746c-4.0674,0-7.645-2.8799-8.5073-6.8472l-5.543-25.4951c-.4912-2.2583-.0674-4.582,1.1924-6.5425,1.2603-1.96,3.1978-3.3101,5.4565-3.8008l25.4951-5.543c.6045-.1313,1.2227-.1982,1.8364-.1982,4.0664,0,7.644,2.8794,8.5068,6.8472l5.543,25.4951c1.0186,4.6846-1.9644,9.3247-6.6494,10.3433l-25.4946,5.543c-.6045.1313-1.2222.1982-1.8359.1982Z"/>
      <path class="cls-3" d="M87.2536,140.3477h0c3.3657.0003,6.3271,2.383,7.0408,5.6658l5.543,25.495c.4059,1.8669.0548,3.789-.9887,5.4123-1.0435,1.6233-2.6463,2.7408-4.5132,3.1467l-25.495,5.543c-.5002.1087-1.0109.1639-1.518.1639-3.3661,0-6.3273-2.3828-7.041-5.6658l-5.543-25.495c-.8428-3.8766,1.6253-7.7162,5.5019-8.559l25.495-5.543c.5001-.1087,1.0109-.1639,1.5182-.1639M87.2534,137.3477c-.7115,0-1.4333.0754-2.1553.2324l-25.495,5.543c-5.4791,1.1912-8.9873,6.6488-7.7961,12.1279l5.543,25.495c1.0343,4.7571,5.2844,8.0284,9.9725,8.0284.7115,0,1.4333-.0754,2.1553-.2324l25.495-5.543c5.4791-1.1913,8.9873-6.6488,7.7961-12.1279l-5.543-25.495c-1.0343-4.7571-5.2844-8.0285-9.9725-8.0284h0Z"/>
    </g>
    <path class="cls-1" d="M68.8675,167.2285s6.1247,7.8655,12.7074,9.3773c6.5827,1.5119,13.4851-41.1918,13.4851-41.1918"/>
  </g>
  <g>
    <g>
      <path class="cls-5" d="M96.482,321.3937c-4.0664,0-7.644-2.8799-8.5063-6.8467l-5.5435-25.4951c-1.0181-4.6846,1.9648-9.3252,6.6494-10.3438l25.4951-5.543c.6045-.1318,1.2227-.1982,1.8364-.1982,4.0664,0,7.644,2.8799,8.5063,6.8467l5.5435,25.4951c1.0181,4.6846-1.9648,9.3252-6.6494,10.3438l-25.4951,5.543c-.6045.1318-1.2227.1982-1.8364.1982Z"/>
      <path class="cls-3" d="M116.4132,274.467c3.366,0,6.3271,2.3828,7.0408,5.6658l5.543,25.495c.4059,1.8669.0548,3.789-.9887,5.4123-1.0435,1.6233-2.6463,2.7408-4.5132,3.1467l-25.495,5.5431c-.5002.1087-1.0109.1639-1.518.1639-3.3661,0-6.3273-2.3828-7.041-5.6658l-5.543-25.495c-.4059-1.8669-.0548-3.789.9887-5.4123s2.6463-2.7408,4.5132-3.1467l25.495-5.543c.5002-.1087,1.0109-.1639,1.5182-.1639M116.413,271.467c-.7115,0-1.4333.0754-2.1553.2324l-25.495,5.543c-5.4791,1.1913-8.9873,6.6488-7.7961,12.1279l5.543,25.495c1.0343,4.7571,5.2844,8.0284,9.9725,8.0284.7115,0,1.4333-.0754,2.1553-.2324l25.495-5.5431c5.4791-1.1912,8.9873-6.6488,7.7961-12.1279l-5.543-25.495c-1.0343-4.757-5.2844-8.0285-9.9725-8.0284h0Z"/>
    </g>
    <path class="cls-1" d="M98.0271,301.3478s6.1247,7.8655,12.7074,9.3773c6.5827,1.5119,13.4851-41.1918,13.4851-41.1918"/>
  </g>
  <g>
    <path class="cls-5" d="M81.9025,254.3341c-4.0664,0-7.644-2.8799-8.5068-6.8467l-5.543-25.4951c-1.0186-4.6846,1.9639-9.3252,6.6489-10.3438l25.4951-5.543c.6045-.1318,1.2227-.1982,1.8369-.1982,4.0664,0,7.6436,2.8799,8.5063,6.8467l5.543,25.4951c.4912,2.2588.0674,4.582-1.1924,6.542-1.2603,1.9609-3.1982,3.3105-5.4565,3.8018l-25.4951,5.543c-.6045.1318-1.2227.1982-1.8364.1982Z"/>
    <path class="cls-3" d="M101.8334,207.4073h0c3.3657.0003,6.3271,2.383,7.0408,5.6658l5.543,25.495c.4059,1.8669.0548,3.789-.9887,5.4123s-2.6463,2.7408-4.5132,3.1467l-25.495,5.543c-.5002.1087-1.0109.1639-1.518.1639-3.3661,0-6.3273-2.3828-7.041-5.6658l-5.543-25.495c-.8428-3.8766,1.6253-7.7162,5.5019-8.559l25.495-5.543c.5001-.1087,1.0109-.1639,1.5182-.1639M101.8332,204.4073c-.7115,0-1.4333.0754-2.1553.2324l-25.495,5.543c-5.4791,1.1913-8.9873,6.6488-7.7961,12.1279l5.543,25.495c1.0343,4.757,5.2844,8.0284,9.9725,8.0284.7115,0,1.4333-.0754,2.1553-.2324l25.495-5.543c5.4791-1.1913,8.9873-6.6488,7.7961-12.1279l-5.543-25.495c-1.0343-4.7571-5.2844-8.0285-9.9725-8.0284h0Z"/>
  </g>
  <g>
    <g>
      <path class="cls-5" d="M111.0621,388.4533c-4.0664,0-7.644-2.8799-8.5068-6.8467l-5.543-25.4951c-1.0186-4.6846,1.9639-9.3252,6.6489-10.3438l25.4951-5.543c.6045-.1318,1.2227-.1982,1.8364-.1982,4.0664,0,7.644,2.8799,8.5068,6.8467l5.543,25.4951c1.0186,4.6846-1.9639,9.3252-6.6489,10.3438l-25.4951,5.543c-.6045.1318-1.2227.1982-1.8364.1982Z"/>
      <path class="cls-3" d="M130.993,341.5266c3.366,0,6.3271,2.3828,7.0408,5.6658l5.543,25.495c.4059,1.8669.0548,3.789-.9887,5.4123s-2.6463,2.7408-4.5132,3.1467l-25.495,5.543c-.5002.1087-1.0109.1639-1.518.1639-3.3661,0-6.3273-2.3828-7.041-5.6658l-5.543-25.495c-.4059-1.8669-.0548-3.789.9887-5.4123,1.0435-1.6233,2.6463-2.7408,4.5132-3.1467l25.495-5.5431c.5002-.1087,1.0109-.1639,1.5182-.1639M130.9928,338.5266c-.7115,0-1.4333.0754-2.1553.2324l-25.495,5.5431c-5.4791,1.1912-8.9873,6.6488-7.7961,12.1279l5.543,25.495c1.0343,4.757,5.2844,8.0284,9.9725,8.0284.7115,0,1.4333-.0754,2.1553-.2324l25.495-5.543c5.4791-1.1913,8.9873-6.6488,7.7961-12.1279l-5.543-25.495c-1.0343-4.7571-5.2844-8.0285-9.9725-8.0284h0Z"/>
    </g>
    <path class="cls-1" d="M112.6069,368.4075s6.1247,7.8655,12.7074,9.3773,13.4851-41.1918,13.4851-41.1918"/>
  </g>
</svg>