<?xml version="1.0" encoding="UTF-8"?>
<svg id="Layer_1" data-name="Layer 1" xmlns="http://www.w3.org/2000/svg" viewBox="0 0 333.8007 466.9988">
  <defs>
    <style>
      .cls-1 {
        stroke-width: 2.3052px;
      }

      .cls-1, .cls-2, .cls-3, .cls-4, .cls-5, .cls-6, .cls-7, .cls-8, .cls-9, .cls-10 {
        stroke: #272730;
      }

      .cls-1, .cls-3, .cls-4, .cls-5, .cls-6, .cls-7, .cls-8, .cls-9, .cls-10 {
        stroke-miterlimit: 10;
      }

      .cls-1, .cls-11 {
        fill: #272730;
      }

      .cls-2 {
        stroke-linejoin: round;
      }

      .cls-2, .cls-6, .cls-7, .cls-8, .cls-10 {
        fill: none;
        stroke-linecap: round;
      }

      .cls-2, .cls-8 {
        stroke-width: 5.8636px;
      }

      .cls-3 {
        stroke-width: 3.7893px;
      }

      .cls-3, .cls-4 {
        fill: #c94157;
      }

      .cls-4 {
        stroke-width: 3.8568px;
      }

      .cls-5 {
        fill: #63c189;
        fill-rule: evenodd;
        stroke-width: 3.4195px;
      }

      .cls-6 {
        stroke-width: 1.8442px;
      }

      .cls-7 {
        stroke-width: 3.2273px;
      }

      .cls-11, .cls-12 {
        stroke-width: 0px;
      }

      .cls-9 {
        stroke-width: 11.9145px;
      }

      .cls-9, .cls-12 {
        fill: #fff;
      }

      .cls-10 {
        stroke-width: 6.8716px;
      }
    </style>
  </defs>
  <path class="cls-9" d="M327.8434,459.6797V37.4138c0-17.3011-14.1555-31.4566-31.4566-31.4566H41.8701c-17.3011,0-31.4566,14.1555-31.4566,31.4566v422.0628c0,.9825,1.0093,1.6412,1.9087,1.2456l30.9755-13.6242c4.9341-2.1702,10.5517-2.1746,15.4891-.012l25.5155,11.1754c4.8134,2.1082,10.279,2.1592,15.1309.1412l28.345-11.7892c5.9396-2.4704,12.7203-1.814,18.0757,1.7499l10.1502,6.7547c5.955,3.9629,13.6152,4.301,19.8962.8782l14.9626-8.1537c6.4093-3.4927,14.2418-3.0642,20.2319,1.1067l8.2317,5.7318c6.0461,4.21,13.9635,4.6041,20.3978,1.0153l18.7604-10.4638c4.7097-2.6269,10.3046-3.16,15.4256-1.4699l52.1457,17.2094c.8804.2906,1.7873-.3651,1.7873-1.2923Z"/>
  <circle class="cls-8" cx="141.4957" cy="187.0491" r="9.2676"/>
  <circle class="cls-8" cx="201.7268" cy="187.0491" r="9.2676"/>
  <circle class="cls-7" cx="65.8569" cy="401.382" r="26.9387"/>
  <path class="cls-6" d="M43.7901,401.382c0-12.1872,9.8796-22.0668,22.0668-22.0668"/>
  <path class="cls-1" d="M64.1354,417.8045v-2.0109c-2.2297-.0383-4.523-.6164-6.1722-1.472-.5633-.2923-.8134-.9645-.5994-1.5619l.2501-.6982c.2558-.714,1.0758-1.0592,1.7559-.7235,1.5365.7585,3.4444,1.2892,5.4641,1.2892,3.3061,0,5.5411-1.9092,5.5411-4.5634,0-2.561-1.816-4.1442-5.2617-5.5411-4.7496-1.8626-7.6833-4.0047-7.6833-8.0557,0-3.8649,2.7474-6.7984,7.0314-7.4969v-2.246c0-.3385.2744-.6128.6128-.6128h1.6612c.3385,0,.6128.2744.6128.6128v2.0598c2.0534.0683,3.6288.4889,4.8558,1.0213.6845.297,1.0228,1.0702.7585,1.768l-.1795.474c-.2812.7425-1.1229,1.092-1.8511.7756-1.0754-.4672-2.5823-.9191-4.5615-.9191-3.5855,0-4.9358,2.142-4.9358,4.0047,0,2.4214,1.7228,3.6321,5.7741,5.3083,4.7962,1.9556,7.2173,4.377,7.2173,8.5212,0,3.6787-2.561,7.1244-7.3571,7.9161v2.1505c0,.4684-.3797.8481-.8481.8481h-1.2372c-.4684,0-.8481-.3797-.8481-.8481Z"/>
  <path class="cls-5" d="M163.0052,85.3372v23.0229c0,2.626,2.8427,4.2672,5.1169,2.9542l19.9385-11.5115c2.2742-1.313,2.2742-4.5955,0-5.9085l-19.9384-11.5115c-2.2742-1.313-5.1169.3282-5.1169,2.9542Z"/>
  <circle class="cls-4" cx="132.2281" cy="78.1357" r="15.3994"/>
  <rect class="cls-3" x="205.144" y="78.1357" width="29.8062" height="29.8062" rx="6.2049" ry="6.2049" transform="translate(-17.293 65.7141) rotate(-16.3518)"/>
  <g>
    <line class="cls-10" x1="40.8951" y1="277.3034" x2="227.7961" y2="277.3032"/>
    <line class="cls-10" x1="40.8952" y1="306.7519" x2="144.1186" y2="306.7518"/>
    <line class="cls-10" x1="98.1686" y1="336.2004" x2="227.7962" y2="336.2002"/>
    <line class="cls-10" x1="40.8951" y1="222.7976" x2="144.1186" y2="222.7975"/>
    <line class="cls-10" x1="98.1685" y1="252.246" x2="227.7961" y2="252.2459"/>
  </g>
  <line class="cls-2" x1="52.7234" y1="98.2465" x2="99.7186" y2="98.2465"/>
  <line class="cls-2" x1="128.0776" y1="166.5685" x2="99.7186" y2="98.2465"/>
  <line class="cls-2" x1="220.0471" y1="166.5685" x2="128.0776" y2="166.5685"/>
  <line class="cls-2" x1="249.8067" y1="106.9156" x2="220.0471" y2="166.5685"/>
  <line class="cls-2" x1="249.8067" y1="106.9156" x2="132.2281" y2="106.9156"/>
  <rect class="cls-12" x="132.2281" y="109.9029" width="98.0777" height="20.7863"/>
  <rect class="cls-11" x="285.9189" y="217.556" width="20.1468" height="10.4832" rx="3.4296" ry="3.4296"/>
  <rect class="cls-11" x="285.9189" y="247.0044" width="20.1468" height="10.4832" rx="3.4296" ry="3.4296"/>
  <rect class="cls-11" x="285.9189" y="276.4529" width="20.1468" height="10.4832" rx="3.4296" ry="3.4296"/>
  <rect class="cls-11" x="285.9189" y="305.9014" width="20.1468" height="10.4832" rx="3.4296" ry="3.4296"/>
  <rect class="cls-11" x="285.9189" y="335.3499" width="20.1468" height="10.4832" rx="3.4296" ry="3.4296"/>
</svg>