<?xml version="1.0" encoding="UTF-8"?>
<svg id="Layer_1" data-name="Layer 1" xmlns="http://www.w3.org/2000/svg" viewBox="0 0 327.8265 320.8907">
  <defs>
    <style>
      .cls-1 {
        fill: #b98e62;
      }

      .cls-1, .cls-2, .cls-3, .cls-4, .cls-5, .cls-6, .cls-7, .cls-8, .cls-9, .cls-10 {
        stroke-width: 0px;
      }

      .cls-2 {
        fill: #d5c3a9;
      }

      .cls-2, .cls-7, .cls-8 {
        opacity: .8;
      }

      .cls-3 {
        fill: #855c4c;
      }

      .cls-4 {
        fill: #89644b;
      }

      .cls-5 {
        fill: #debb8d;
      }

      .cls-6 {
        fill: #ba905e;
      }

      .cls-7 {
        fill: #b49b84;
      }

      .cls-8 {
        fill: #e6d3b3;
      }

      .cls-9 {
        fill: #231f20;
      }

      .cls-10 {
        fill: #987253;
      }
    </style>
  </defs>
  <g>
    <g>
      <polygon class="cls-10" points="0 69.4653 120.3174 138.9306 120.3174 305.6473 0 236.182 0 69.4653"/>
      <polygon class="cls-4" points="0 69.4653 120.3174 138.9306 120.3174 139.7089 0 70.4626 0 69.4653"/>
      <polygon class="cls-1" points="240.6349 69.4653 120.3174 138.9306 120.3174 305.6473 240.6349 236.182 240.6349 69.4653"/>
      <polygon class="cls-5" points="0 69.4653 120.3174 138.9306 240.6349 69.4653 120.3174 0 0 69.4653"/>
      <polygon class="cls-8" points="192.5084 41.678 72.2263 111.165 48.1267 97.2499 168.4436 27.7859 192.5084 41.678"/>
    </g>
    <polygon class="cls-7" points="72.2263 111.165 72.1916 166.7177 48.1267 152.8219 48.1267 97.2499 72.2263 111.165"/>
    <polygon class="cls-7" points="72.2263 222.3097 72.1916 277.8624 48.1267 263.9666 48.1267 208.3947 72.2263 222.3097"/>
    <g>
      <g>
        <path class="cls-9" d="M187.8615,71.4083c-2.6224-2.2237-1.2227-5.9132,3.4902-8.6342.0146-.0085.0299-.0172.0451-.0254.5584-.321,1.1407-.6146,1.7401-.8808.4769-.2124.9644-.4073,1.4595-.5842,1.6674-.5974,3.4128-.9915,5.1002-1.1701,2.4701-.2605,4.8154-.0592,6.6094.6457l-8.8411,5.1044,9.8189,5.6689c.5935.3426,1.5588.3428,2.152.0003s.5934-.9001,0-1.2428l-.3433-.1982c-.2103-.1214-.2103-.3183,0-.4397s.5513-.1214.7617,0l.3433.1982c1.0134.5851,1.0135,1.5371,0,2.1223s-2.6619.5848-3.6753-.0003l-9.8189-5.6689-8.8417,5.1047Z"/>
        <path class="cls-9" d="M176.2155,67.595l24.1753-13.9576,24.1752,13.9575-24.1753,13.9576-24.1752-13.9575ZM200.3908,54.7199l-22.3005,12.8752,22.3003,12.8751,22.3005-12.8752-22.3003-12.8751Z"/>
      </g>
      <g>
        <path class="cls-9" d="M149.9516,82.7585l24.1753-13.9576,24.1752,13.9575-24.1753,13.9576-24.1752-13.9575ZM174.1269,69.8833l-22.3005,12.8752,22.3003,12.8751,22.3005-12.8752-22.3003-12.8751Z"/>
        <g>
          <path class="cls-9" d="M161.0785,80.3966l6.0979,3.5206c1.9885,1.1481,5.2425,1.1481,7.2316-.0004l1.5122-.8731c1.9885-1.1481,1.9891-3.0271.0006-4.1752l-6.0979-3.5206-4.4235,2.5539,2.756.4688-1.8807,1.0858,8.0273,1.6788-10.3345-1.1085,1.9194-1.1082-2.1139-.0778-2.6945,1.5557Z"/>
          <polygon class="cls-9" points="181.0777 87.6781 182.4155 86.9057 174.7765 82.4954 173.4387 83.2678 181.0777 87.6781"/>
          <polygon class="cls-9" points="181.1262 86.9337 187.1753 85.1203 178.2178 90.292 181.1262 86.9337"/>
        </g>
      </g>
      <g>
        <path class="cls-9" d="M123.9333,97.7802l24.1753-13.9576,24.1752,13.9575-24.1753,13.9576-24.1752-13.9575ZM148.1086,84.905l-22.3005,12.8752,22.3003,12.8751,22.3005-12.8752-22.3003-12.8751Z"/>
        <path class="cls-9" d="M139.6266,92.7778l26.8139,4.3178-19.5176,11.2685-7.2962-15.5863ZM141.8681,94.0824l5.8649,12.5286,15.6887-9.0579-21.5536-3.4707Z"/>
        <path class="cls-9" d="M154.1248,101.2536c-.5121.2957-1.2234.2628-1.7214-.0246-.5121-.2957-.5548-.6982-.0427-.9938.4837-.2792,1.2092-.271,1.7214.0247.4979.2875.5406.7063.0427.9938ZM150.7247,99.8491l-7.0277-3.8275,1.3657-.7885,6.6294,4.0574-.9674.5585Z"/>
      </g>
      <g>
        <path class="cls-9" d="M97.849,112.8399l24.1753-13.9576,24.1752,13.9575-24.1753,13.9576-24.1752-13.9575ZM122.0243,99.9648l-22.3005,12.8752,22.3003,12.8751,22.3005-12.8752-22.3003-12.8751Z"/>
        <g>
          <polygon class="cls-9" points="123.302 122.6132 138.9522 113.5776 136.656 112.2519 121.0058 121.2875 123.302 122.6132"/>
          <g>
            <polygon class="cls-9" points="121.8373 119.0632 123.65 118.0166 111.9276 111.2486 110.1148 112.2952 121.8373 119.0632"/>
            <polygon class="cls-9" points="110.2499 114.2199 115.2611 111.3266 108.1171 110.3582 110.2499 114.2199"/>
          </g>
          <g>
            <polygon class="cls-9" points="130.5631 114.0253 132.3759 112.9787 120.6535 106.2107 118.8407 107.2573 130.5631 114.0253"/>
            <polygon class="cls-9" points="118.9758 109.182 123.987 106.2887 116.8429 105.3204 118.9758 109.182"/>
          </g>
        </g>
      </g>
    </g>
    <polygon class="cls-8" points="48.1267 41.678 168.4088 111.165 192.5084 97.2499 72.1916 27.7859 48.1267 41.678"/>
    <polygon class="cls-2" points="168.4088 111.165 168.4436 166.7177 192.5084 152.8219 192.5084 97.2499 168.4088 111.165"/>
    <polygon class="cls-2" points="168.4088 222.3097 168.4436 277.8624 192.5084 263.9666 192.5084 208.3947 168.4088 222.3097"/>
  </g>
  <g>
    <g>
      <polygon class="cls-10" points="190.5789 223.2813 246.9328 255.8186 246.9313 320.8907 190.5774 288.3554 190.5789 223.2813"/>
      <polygon class="cls-4" points="190.5789 223.2813 246.9328 255.8186 246.9328 256.4261 190.5789 224.0598 190.5789 223.2813"/>
      <polygon class="cls-1" points="303.2852 223.2825 246.9328 255.8186 246.9313 320.8907 303.2837 288.3546 303.2852 223.2825"/>
      <polygon class="cls-6" points="190.5789 223.2813 246.9328 255.8186 303.2852 223.2804 246.9313 190.7466 190.5789 223.2813"/>
    </g>
    <polygon class="cls-3" points="246.9313 255.8184 303.2852 223.2804 246.9313 190.7466 246.9313 255.8184"/>
    <polygon class="cls-5" points="190.5787 223.2816 159.065 226.9094 215.9784 195.2517 246.9313 190.7466 190.5787 223.2816"/>
    <polygon class="cls-5" points="246.9328 190.7203 271.9732 185.6059 327.8265 218.5152 303.2873 223.2536 246.9328 190.7203"/>
    <polygon class="cls-5" points="171.7925 246.3421 190.5792 223.2818 246.9328 255.8186 228.3968 278.3776 171.7925 246.3421"/>
    <polygon class="cls-5" points="246.9328 255.8186 303.2852 223.2825 325.5909 246.8711 265.7153 282.104 246.9328 255.8186"/>
  </g>
</svg>