<?xml version="1.0" encoding="UTF-8"?>
<svg id="Layer_1" data-name="Layer 1" xmlns="http://www.w3.org/2000/svg" xmlns:xlink="http://www.w3.org/1999/xlink" viewBox="0 0 7622.6168 4051.3178">
  <defs>
    <style>
      .cls-1 {
        fill: #e5a628;
      }

      .cls-1, .cls-2, .cls-3, .cls-4, .cls-5, .cls-6, .cls-7, .cls-8, .cls-9, .cls-10 {
        stroke-width: 0px;
      }

      .cls-11 {
        stroke-width: 4.249px;
      }

      .cls-11, .cls-12, .cls-13, .cls-14, .cls-15, .cls-16, .cls-17, .cls-18, .cls-19, .cls-20, .cls-21, .cls-22, .cls-23, .cls-24, .cls-25, .cls-26 {
        stroke-miterlimit: 10;
      }

      .cls-11, .cls-12, .cls-13, .cls-15, .cls-16, .cls-17, .cls-18, .cls-19, .cls-20, .cls-21, .cls-22, .cls-23, .cls-24, .cls-25 {
        stroke: #000;
      }

      .cls-11, .cls-12, .cls-17, .cls-19, .cls-23 {
        fill: #ce945f;
      }

      .cls-12 {
        stroke-width: 3.4841px;
      }

      .cls-2 {
        fill: #1aa096;
      }

      .cls-3, .cls-25 {
        fill: #000;
      }

      .cls-13, .cls-14, .cls-15, .cls-16, .cls-18, .cls-20, .cls-22, .cls-26 {
        fill: none;
      }

      .cls-13, .cls-14, .cls-21 {
        stroke-width: 6.1596px;
      }

      .cls-14, .cls-18, .cls-20, .cls-22, .cls-26 {
        stroke-linecap: round;
      }

      .cls-14, .cls-26 {
        stroke: #3cce77;
      }

      .cls-15 {
        stroke-width: 3.7306px;
      }

      .cls-16 {
        stroke-width: .9573px;
      }

      .cls-17 {
        stroke-width: 3.8636px;
      }

      .cls-18 {
        stroke-width: 19.1464px;
      }

      .cls-19 {
        stroke-width: 4.0893px;
      }

      .cls-20 {
        stroke-width: 9.2394px;
      }

      .cls-21 {
        filter: url(#drop-shadow-1);
      }

      .cls-21, .cls-8 {
        fill: #fff;
      }

      .cls-22 {
        stroke-width: 30.6343px;
      }

      .cls-4 {
        fill: #b595e8;
      }

      .cls-5 {
        fill: #c4495b;
      }

      .cls-23 {
        stroke-width: 4.3564px;
      }

      .cls-6 {
        fill: #a643ed;
      }

      .cls-7 {
        fill: #19a364;
      }

      .cls-24 {
        fill: #e9ce2c;
        fill-rule: evenodd;
        stroke-width: 5.4634px;
      }

      .cls-25 {
        stroke-width: 1.5399px;
      }

      .cls-9 {
        fill: #f0ff83;
      }

      .cls-26 {
        stroke-width: 15.4352px;
      }

      .cls-10 {
        fill: #bbe8ff;
      }
    </style>
    <filter id="drop-shadow-1" filterUnits="userSpaceOnUse">
      <feOffset dx="21" dy="31"/>
      <feGaussianBlur result="blur" stdDeviation="5"/>
      <feFlood flood-color="#545456" flood-opacity=".75"/>
      <feComposite in2="blur" operator="in"/>
      <feComposite in="SourceGraphic"/>
    </filter>
  </defs>
  <path class="cls-24" d="M81.3149,1633.347c335.9311-655.8801,1474.8297-263.5418,2325.0496-1137.0243,150.8696-154.9974,254.3422-310.4975,491.7208-384.839,401.8857-125.8616,1006.9092,37.4851,1220.1959,413.9935,273.6728,483.1064-296.6174,965.8631,24.2825,1562.6795,134.2098,249.6062,262.5753,218.3788,346.0256,443.1479,177.2613,477.4441-122.0244,1443.7969-734.5457,1469.3852-319.3737,13.342-755.9-791.0055-2003.3066-466.4715-1001.9889,260.6845-1334.3496-548.0655-1499.4447-804.6633-53.9583-83.8642-401.1559-644.8499-169.9774-1096.208Z"/>
  <rect class="cls-21" x="1175.1642" y="1038.6961" width="3079.8088" height="2463.8473" rx="111.7774" ry="111.7774"/>
  <line class="cls-13" x1="1175.1641" y1="1221.3091" x2="4254.9731" y2="1221.3091"/>
  <circle class="cls-13" cx="3831.0331" cy="1134.3115" r="39.6702"/>
  <circle class="cls-13" cx="3968.3531" cy="1134.3115" r="39.6702"/>
  <circle class="cls-13" cx="4108.7245" cy="1134.3115" r="39.6702"/>
  <line class="cls-22" x1="6372.6514" y1="2771.2614" x2="6372.6514" y2="4005.9096"/>
  <line class="cls-22" x1="7607.2996" y1="2771.2614" x2="7607.2996" y2="4005.9096"/>
  <line class="cls-22" x1="6372.6514" y1="3704.907" x2="7607.2996" y2="3704.907"/>
  <line class="cls-22" x1="6372.6514" y1="3348.2568" x2="7607.2996" y2="3348.2568"/>
  <line class="cls-22" x1="6372.6514" y1="2951.1357" x2="7607.2996" y2="2951.1357"/>
  <rect class="cls-12" x="6613.7222" y="3512.8061" width="179.5898" height="179.5898"/>
  <rect class="cls-23" x="6849.5919" y="3512.8061" width="280.7672" height="179.5898"/>
  <rect class="cls-17" x="7186.639" y="3512.8061" width="220.8354" height="179.5898"/>
  <rect class="cls-19" x="6545.9176" y="3153.6264" width="247.3944" height="179.5898"/>
  <rect class="cls-11" x="6873.7638" y="3100.3723" width="206.0066" height="232.8439"/>
  <rect class="cls-12" x="7186.639" y="3153.6264" width="179.5898" height="179.5898"/>
  <line class="cls-16" x1="6669.6148" y1="3154.8912" x2="6669.6148" y2="3334.481"/>
  <line class="cls-16" x1="6976.7671" y1="3100.3723" x2="6976.7671" y2="3335.3921"/>
  <line class="cls-16" x1="7276.4339" y1="3153.6264" x2="7276.4339" y2="3342.9804"/>
  <line class="cls-16" x1="6703.5171" y1="3512.8061" x2="6703.5171" y2="3720.1109"/>
  <line class="cls-16" x1="6989.9755" y1="3512.8061" x2="6989.9755" y2="3720.1109"/>
  <line class="cls-16" x1="7297.0567" y1="3512.8061" x2="7297.0567" y2="3720.1109"/>
  <g>
    <path class="cls-10" d="M1514.0041,3265.2852c-40.1396,0-77.9897-15.7441-106.5781-44.333-28.5884-28.5879-44.3325-66.4385-44.3325-106.5781v-1522.9512c0-40.1396,15.7441-77.9897,44.3325-106.5781,28.5884-28.5879,66.4385-44.332,106.5781-44.332h530.1792c40.1396,0,77.9893,15.7441,106.5776,44.332,28.5884,28.5884,44.3325,66.4385,44.3325,106.5781v1522.9512c0,40.1396-15.7441,77.9902-44.3325,106.5781-28.5884,28.5889-66.438,44.333-106.5776,44.333h-530.1792Z"/>
    <path class="cls-3" d="M2044.1829,1443.592c39.3169,0,76.3938,15.4241,104.4003,43.4308,28.0067,28.0066,43.4308,65.0833,43.4308,104.4002v1522.9514c0,39.3169-15.4241,76.3936-43.4308,104.4003-28.0065,28.0067-65.0834,43.4307-104.4003,43.4307h-530.1791c-39.3169,0-76.3938-15.424-104.4001-43.4307-28.0066-28.0067-43.4307-65.0834-43.4307-104.4003v-1522.9514c0-39.317,15.4241-76.3936,43.4307-104.4002,28.0063-28.0067,65.0833-43.4308,104.4001-43.4308h530.1791M2044.1829,1437.4325h-530.1791c-84.6948,0-153.9905,69.2958-153.9905,153.9905v1522.9514c0,84.6948,69.2957,153.9905,153.9905,153.9905h530.1791c84.6951,0,153.9905-69.2957,153.9905-153.9905v-1522.9514c0-84.6948-69.2954-153.9905-153.9905-153.9905h0Z"/>
  </g>
  <g>
    <path class="cls-10" d="M2449.9792,3265.2852c-40.1396,0-77.9897-15.7441-106.5781-44.333-28.5884-28.5879-44.3325-66.4385-44.3325-106.5781v-1522.9512c0-40.1396,15.7441-77.9897,44.3325-106.5781,28.5884-28.5879,66.4385-44.332,106.5781-44.332h530.1792c40.1396,0,77.9897,15.7441,106.5781,44.332,28.5879,28.5884,44.332,66.4385,44.332,106.5781v1522.9512c0,40.1396-15.7441,77.9902-44.332,106.5781-28.5884,28.5889-66.4385,44.333-106.5781,44.333h-530.1792Z"/>
    <path class="cls-3" d="M2980.1582,1443.592c39.3169,0,76.3936,15.4241,104.4002,43.4308,28.0067,28.0066,43.4307,65.0833,43.4307,104.4002v1522.9514c0,39.3169-15.4241,76.3936-43.4307,104.4003-28.0067,28.0067-65.0833,43.4307-104.4002,43.4307h-530.179c-39.3169,0-76.3938-15.424-104.4003-43.4307-28.0067-28.0067-43.4308-65.0834-43.4308-104.4003v-1522.9514c0-39.317,15.4241-76.3936,43.4308-104.4002,28.0065-28.0067,65.0834-43.4308,104.4003-43.4308h530.179M2980.1582,1437.4325h-530.179c-84.6951,0-153.9905,69.2958-153.9905,153.9905v1522.9514c0,84.6948,69.2954,153.9905,153.9905,153.9905h530.179c84.6948,0,153.9905-69.2957,153.9905-153.9905v-1522.9514c0-84.6948-69.2957-153.9905-153.9905-153.9905h0Z"/>
  </g>
  <g>
    <path class="cls-10" d="M3385.9543,3265.2852c-40.1396,0-77.9897-15.7441-106.5781-44.333-28.5879-28.5879-44.332-66.4385-44.332-106.5781v-1522.9512c0-40.1396,15.7441-77.9897,44.332-106.5781,28.5884-28.5879,66.4385-44.332,106.5781-44.332h530.1792c40.1396,0,77.9897,15.7441,106.5781,44.332,28.5884,28.5884,44.3325,66.4385,44.3325,106.5781v1522.9512c0,40.1396-15.7441,77.9902-44.3325,106.5781-28.5884,28.5889-66.4385,44.333-106.5781,44.333h-530.1792Z"/>
    <path class="cls-3" d="M3916.1334,1443.5921c39.3169,0,76.3936,15.424,104.4002,43.4307,28.0067,28.0067,43.4307,65.0834,43.4307,104.4002v1522.9515c0,39.3169-15.424,76.3936-43.4307,104.4002-28.0067,28.0067-65.0833,43.4307-104.4002,43.4307h-530.179c-39.3169,0-76.3936-15.4241-104.4003-43.4307s-43.4307-65.0833-43.4307-104.4002v-1522.9515c0-39.3168,15.4241-76.3935,43.4307-104.4002s65.0834-43.4307,104.4003-43.4307h530.179M3916.1334,1437.4326h-530.179c-84.6948,0-153.9905,69.2957-153.9905,153.9904v1522.9515c0,84.6948,69.2957,153.9905,153.9905,153.9905h530.179c84.6948,0,153.9905-69.2957,153.9905-153.9905v-1522.9515c0-84.6948-69.2957-153.9904-153.9905-153.9904h0Z"/>
  </g>
  <g>
    <path class="cls-8" d="M1541.8498,1860.9693c-43.7329,0-79.3125-35.5791-79.3125-79.312s35.5796-79.3125,79.3125-79.3125,79.3125,35.5791,79.3125,79.312-35.5796,79.3125-79.3125,79.3125Z"/>
    <path class="cls-3" d="M1541.8498,1705.4246c20.2715,0,39.3899,7.9547,53.8337,22.3986,14.4438,14.4438,22.3984,33.5624,22.3984,53.8339s-7.9546,39.3899-22.3984,53.8337c-14.4438,14.444-33.5625,22.3986-53.834,22.3986s-39.3899-7.9547-53.8337-22.3986-22.3984-33.5625-22.3984-53.8339,7.9546-39.3899,22.3984-53.8337c14.4441-14.444,33.5625-22.3986,53.834-22.3986M1541.8498,1699.265h-.0002c-45.3154,0-82.3918,37.0764-82.3918,82.3919h0c0,45.3157,37.0764,82.392,82.3918,82.392h.0002c45.3157,0,82.3918-37.0764,82.3918-82.3919h0c0-45.3157-37.0762-82.392-82.3918-82.392h0Z"/>
  </g>
  <path class="cls-26" d="M1509.5394,1789.7524s15.2936,31.8617,36.9596,42.0575c21.666,10.1958,77.7426-132.5448,77.7426-132.5448"/>
  <g>
    <path class="cls-8" d="M1541.8498,2153.296c-43.7329,0-79.3125-35.5796-79.3125-79.3125s35.5796-79.3125,79.3125-79.3125,79.3125,35.5796,79.3125,79.3125-35.5796,79.3125-79.3125,79.3125Z"/>
    <path class="cls-3" d="M1541.8498,1997.7511c20.2715,0,39.3899,7.9546,53.8337,22.3985s22.3984,33.5625,22.3984,53.8339-7.9546,39.3899-22.3984,53.8338-33.5625,22.3985-53.834,22.3985-39.3899-7.9546-53.8337-22.3986c-14.4438-14.4439-22.3984-33.5625-22.3984-53.8339s7.9546-39.3899,22.3984-53.8337c14.4441-14.4439,33.5625-22.3985,53.834-22.3985M1541.8498,1991.5915h-.0002c-45.3154,0-82.3918,37.0763-82.3918,82.3918v.0002c0,45.3156,37.0764,82.3919,82.3918,82.3919h.0002c45.3157,0,82.3918-37.0763,82.3918-82.3919v-.0002c0-45.3155-37.0762-82.3918-82.3918-82.3918h0Z"/>
  </g>
  <path class="cls-26" d="M1509.5394,2082.0788s15.2936,31.8617,36.9596,42.0575,77.7426-132.5448,77.7426-132.5448"/>
  <g>
    <path class="cls-8" d="M1541.8498,2445.6222c-43.7329,0-79.3125-35.5791-79.3125-79.312s35.5796-79.3125,79.3125-79.3125,79.3125,35.5791,79.3125,79.312-35.5796,79.3125-79.3125,79.3125Z"/>
    <path class="cls-3" d="M1541.8498,2290.0775c20.2715,0,39.3899,7.9546,53.8337,22.3985,14.4438,14.4439,22.3984,33.5625,22.3984,53.8339s-7.9546,39.3899-22.3984,53.8337c-14.4438,14.4439-33.5625,22.3985-53.834,22.3985s-39.3899-7.9547-53.8337-22.3985c-14.4438-14.4439-22.3984-33.5625-22.3984-53.8339s7.9546-39.3899,22.3984-53.8337c14.4441-14.4439,33.5625-22.3985,53.834-22.3985M1541.8498,2283.9179h-.0002c-45.3154,0-82.3918,37.0764-82.3918,82.3919v.0002c0,45.3155,37.0764,82.3919,82.3918,82.3919h.0002c45.3157,0,82.3918-37.0764,82.3918-82.3919v-.0002c0-45.3155-37.0762-82.3919-82.3918-82.3919h0Z"/>
  </g>
  <path class="cls-26" d="M1509.5394,2374.4053s15.2936,31.8617,36.9596,42.0575,77.7426-132.5448,77.7426-132.5448"/>
  <g>
    <path class="cls-8" d="M1541.8498,2737.9488c-43.7329,0-79.3125-35.5796-79.3125-79.3125s35.5796-79.3125,79.3125-79.3125,79.3125,35.5796,79.3125,79.3125-35.5796,79.3125-79.3125,79.3125Z"/>
    <path class="cls-3" d="M1541.8498,2582.404c20.2715,0,39.3899,7.9546,53.8337,22.3985,14.4438,14.4439,22.3984,33.5625,22.3984,53.8339s-7.9546,39.3899-22.3984,53.8338c-14.4438,14.4439-33.5625,22.3985-53.834,22.3985s-39.3899-7.9547-53.8337-22.3985c-14.4438-14.4439-22.3984-33.5625-22.3984-53.8339s7.9546-39.3899,22.3984-53.8338c14.4441-14.4439,33.5625-22.3985,53.834-22.3985M1541.8498,2576.2444h-.0002c-45.3154,0-82.3918,37.0764-82.3918,82.3919h0c0,45.3157,37.0764,82.392,82.3918,82.392h.0002c45.3157,0,82.3918-37.0764,82.3918-82.3919h0c0-45.3157-37.0762-82.392-82.3918-82.392h0Z"/>
  </g>
  <path class="cls-26" d="M1509.5394,2666.7317s15.2936,31.8617,36.9596,42.0575c21.666,10.1958,77.7426-132.5448,77.7426-132.5448"/>
  <g>
    <path class="cls-8" d="M1541.8498,2998.5572c-43.7329,0-79.3125-35.5791-79.3125-79.312s35.5796-79.3125,79.3125-79.3125,79.3125,35.5791,79.3125,79.312-35.5796,79.3125-79.3125,79.3125Z"/>
    <path class="cls-3" d="M1541.8498,2843.0126c20.2715,0,39.3899,7.9547,53.8337,22.3985,14.4438,14.4439,22.3984,33.5625,22.3984,53.834s-7.9546,39.3898-22.3984,53.8337c-14.4438,14.4439-33.5625,22.3985-53.834,22.3985s-39.3899-7.9547-53.8337-22.3985c-14.4438-14.4439-22.3984-33.5626-22.3984-53.834s7.9546-39.3898,22.3984-53.8337c14.4441-14.4439,33.5625-22.3985,53.834-22.3985M1541.8498,2836.853h-.0002c-45.3154,0-82.3918,37.0764-82.3918,82.3918v.0002c0,45.3155,37.0764,82.3918,82.3918,82.3918h.0002c45.3157,0,82.3918-37.0764,82.3918-82.3918v-.0002c0-45.3155-37.0762-82.3918-82.3918-82.3918h0Z"/>
  </g>
  <path class="cls-26" d="M1509.5394,2927.3404s15.2936,31.8617,36.9596,42.0575c21.666,10.1958,77.7426-132.5448,77.7426-132.5448"/>
  <line class="cls-20" x1="1784.5185" y1="1727.8232" x2="2046.5522" y2="1727.8232"/>
  <line class="cls-20" x1="1784.5185" y1="1765.7981" x2="1929.2369" y2="1765.7981"/>
  <line class="cls-20" x1="1864.8153" y1="1803.773" x2="2046.5522" y2="1803.773"/>
  <line class="cls-20" x1="2712.9327" y1="1707.1493" x2="2974.9665" y2="1707.1493"/>
  <line class="cls-20" x1="2712.9327" y1="1745.1242" x2="2857.6512" y2="1745.1242"/>
  <line class="cls-20" x1="2793.2295" y1="1783.0991" x2="2974.9665" y2="1783.0991"/>
  <line class="cls-20" x1="2408.4452" y1="2130.8407" x2="2670.479" y2="2130.8407"/>
  <line class="cls-20" x1="2408.4452" y1="2168.8156" x2="2553.1637" y2="2168.8156"/>
  <line class="cls-20" x1="2488.742" y1="2206.7905" x2="2670.479" y2="2206.7905"/>
  <line class="cls-20" x1="2581.9158" y1="2980.8407" x2="2843.9496" y2="2980.8407"/>
  <line class="cls-20" x1="2581.9158" y1="3018.8156" x2="2726.6343" y2="3018.8156"/>
  <line class="cls-20" x1="2662.2126" y1="3056.7905" x2="2843.9496" y2="3056.7905"/>
  <line class="cls-20" x1="1784.5185" y1="2020.1497" x2="2046.5522" y2="2020.1497"/>
  <line class="cls-20" x1="1784.5185" y1="2058.1246" x2="1929.2369" y2="2058.1246"/>
  <line class="cls-20" x1="1864.8153" y1="2096.0995" x2="2046.5522" y2="2096.0995"/>
  <line class="cls-20" x1="1784.5185" y1="2312.4761" x2="2046.5522" y2="2312.4761"/>
  <line class="cls-20" x1="1784.5185" y1="2350.451" x2="1929.2369" y2="2350.451"/>
  <line class="cls-20" x1="1864.8153" y1="2388.4259" x2="2046.5522" y2="2388.4259"/>
  <line class="cls-20" x1="1784.5185" y1="2604.8025" x2="2046.5522" y2="2604.8025"/>
  <line class="cls-20" x1="1784.5185" y1="2642.7774" x2="1929.2369" y2="2642.7774"/>
  <line class="cls-20" x1="1864.8153" y1="2680.7523" x2="2046.5522" y2="2680.7523"/>
  <line class="cls-20" x1="1784.5185" y1="2865.4112" x2="2046.5522" y2="2865.4112"/>
  <line class="cls-20" x1="1784.5185" y1="2903.3861" x2="1929.2369" y2="2903.3861"/>
  <line class="cls-20" x1="1864.8153" y1="2941.361" x2="2046.5522" y2="2941.361"/>
  <g>
    <path class="cls-5" d="M2434.6242,1826.1207c-4.8257,0-9.123-2.6289-11.2148-6.8604-11.2148-22.6904-14.627-48.9507-9.6074-73.9438,5.1729-25.7583,18.5146-48.3286,38.582-65.272,20.7324-17.5039,47.1094-27.144,74.272-27.144,24.6035,0,48.0596,7.5801,67.8315,21.9209,3.0723,2.2285,4.9155,5.7129,5.0571,9.5601.1465,3.9736-1.5073,7.7202-4.5371,10.2778l-23.416,19.7705c-2.3359,1.9717-5.2764,3.0576-8.2803,3.0576-2.1045,0-4.1587-.5483-5.9399-1.5864-9.29-5.4146-19.9194-8.2769-30.7383-8.2769-14.2744,0-28.1128,5.0469-38.9663,14.2104-19.5137,16.4751-26.5605,43.6909-17.5361,67.7231,1.7969,4.7842.2559,10.3184-3.8345,13.772l-23.4165,19.77c-2.3076,1.9482-5.2393,3.021-8.2544,3.021h-.001Z"/>
    <path class="cls-3" d="M2526.6557,1655.9803c23.9513.001,46.7817,7.3782,66.0233,21.334,2.3007,1.6687,3.6813,4.2858,3.788,7.1801.1113,3.0213-1.1448,5.8686-3.4463,7.8117l-23.416,19.77c-1.781,1.5036-4.0159,2.3317-6.2932,2.3317-1.5604,0-3.0782-.4038-4.389-1.1678-9.7605-5.6886-20.9247-8.6954-32.2897-8.6954-15.0017.001-29.5457,5.3055-40.9529,14.9365-20.5067,17.3136-27.9141,45.9103-18.4325,71.1593,1.3397,3.5674.1588,7.7211-2.9382,10.336l-23.4161,19.7701c-2.2463,1.8965-4.6492,2.2946-6.2693,2.2946-3.6454,0-6.8844-1.9715-8.453-5.1451-10.9152-22.0834-14.2356-47.6439-9.3495-71.973,5.0347-25.0689,18.0192-47.0356,37.5497-63.5251,20.1787-17.0367,45.85-26.4187,72.2848-26.4177M2526.6559,1649.8207c-26.9738-.001-54.0787,9.1444-76.2587,27.8708-42.4133,35.8092-53.3108,95.2629-29.7485,142.9338,2.7496,5.5629,8.304,8.5754,13.975,8.5754,3.5953,0,7.2369-1.2098,10.2429-3.7478l23.4161-19.77c4.9827-4.2068,7.0236-11.1031,4.7311-17.2079-8.3213-22.1589-2.4144-48.2003,16.6396-64.2874h.0001c10.7341-9.0628,23.8868-13.4825,36.9795-13.4834,10.1479-.0006,20.2582,2.6534,29.1876,7.8576,2.3259,1.3556,4.9091,2.0057,7.4907,2.0057,3.6718,0,7.3412-1.3148,10.2668-3.7849l23.416-19.77c7.7474-6.5411,7.5089-18.7313-.6989-24.6844-20.535-14.8941-45.0331-22.5065-69.6395-22.5075h0Z"/>
  </g>
  <g>
    <g>
      <path class="cls-7" d="M2615.1457,1832.9483c-3.7812,0-7.2129-1.5981-9.6626-4.4995l-20.665-24.4761c-2.9912-3.5435-3.7173-8.5732-1.8945-13.127,5.6421-14.0962,5.856-29.6665.6021-43.8433-1.8257-4.9272-.3203-10.5444,3.7461-13.978l23.4238-19.7754c2.3062-1.9478,5.2358-3.02,8.2495-3.02,4.8345,0,9.1411,2.6382,11.2383,6.8848,17.2402,34.9106,15.7583,75.8384-3.9634,109.481-2.332,3.9785-6.4717,6.3535-11.0732,6.3535h-.001Z"/>
      <path class="cls-3" d="M2618.9448,1713.3089c3.6544,0,6.9025,1.9805,8.4769,5.1686,8.2034,16.6114,12.1675,35.2474,11.4639,53.8932-.7001,18.5488-5.9985,36.7606-15.3226,52.6666-1.7734,3.0252-4.92,4.8312-8.4174,4.8312-2.8585,0-5.4542-1.2098-7.3091-3.4066l-20.665-24.4763c-2.2552-2.6712-2.7875-6.5012-1.389-9.9953,5.9268-14.8068,6.151-31.1637.6315-46.0578-1.3765-3.7142-.2332-7.9558,2.8448-10.5546l23.4233-19.7762c2.2448-1.8951,4.6447-2.293,6.2627-2.293M2618.9448,1707.1493c-3.5924,0-7.2312,1.2089-10.2363,3.7461l-23.4233,19.7762c-5.0411,4.2562-6.9396,11.215-4.647,17.4014,5.0013,13.496,4.718,28.4067-.5742,41.6285-2.2004,5.4977-1.4192,11.7331,2.401,16.2579l20.6652,24.4763c3.182,3.7689,7.6085,5.5927,12.0156,5.5927,5.3622,0,10.6959-2.6983,13.7311-7.8759,19.9855-34.0929,21.7626-76.5712,4.0677-112.4023-2.7539-5.5767-8.3186-8.6008-13.9998-8.6008h0Z"/>
    </g>
    <g>
      <path class="cls-9" d="M2526.9245,1883.4439c-24.604,0-48.0596-7.5801-67.832-21.9204-3.0723-2.2285-4.916-5.7129-5.0576-9.5601-.1465-3.9736,1.5073-7.7202,4.5371-10.2783l23.4155-19.77c2.3359-1.9717,5.2764-3.0576,8.2803-3.0576,2.1045,0,4.1587.5483,5.9399,1.5864,9.2905,5.4146,19.9194,8.2764,30.7383,8.2764,9.7612,0,19.4517-2.3696,28.0234-6.853,1.8481-.9663,3.918-1.4775,5.9863-1.4775,3.7432,0,7.2671,1.6318,9.6689,4.4761l19.2266,22.772c2.4019,2.8452,3.437,6.5884,2.8394,10.2705-.5928,3.6523-2.7354,6.8467-5.8784,8.7646-17.9819,10.9717-38.6909,16.771-59.8877,16.771Z"/>
      <path class="cls-3" d="M2490.2678,1821.937c1.5604,0,3.0782.4039,4.3892,1.1678,9.7605,5.6886,20.9259,8.6954,32.2891,8.6954,10.256,0,20.4399-2.491,29.4509-7.2038,1.4097-.7372,2.986-1.1269,4.5585-1.1267,2.8345.0001,5.501,1.2331,7.3158,3.3827l19.2266,22.7723c1.8214,2.1573,2.606,4.9967,2.1527,7.7902-.4551,2.8044-2.0327,5.1585-4.4423,6.6287-17.4989,10.6769-37.6532,16.3204-58.2841,16.3204-23.95,0-46.7804-7.377-66.0234-21.3337-2.3008-1.6686-3.6815-4.2857-3.7882-7.1801-.1113-3.0213,1.1448-5.8687,3.4463-7.8118l23.4159-19.7697c1.7809-1.5037,4.0157-2.3317,6.2931-2.3317M2490.2678,1815.7774c-3.6719,0-7.3412,1.3148-10.2668,3.7849l-23.4158,19.7697c-7.7474,6.5411-7.5089,18.7314.6991,24.6846,20.5359,14.8943,45.0325,22.5071,69.6399,22.5071,21.2383,0,42.5586-5.6696,61.4923-17.2219,8.2433-5.0297,10.0173-16.2722,3.7877-23.6506l-19.2264-22.7722c-3.0756-3.6428-7.5046-5.5684-12.0219-5.5687-2.5167-.0002-5.0599.5972-7.4136,1.8282-8.3361,4.3597-17.4811,6.5024-26.5963,6.5024-10.1475,0-20.2584-2.6536-29.1875-7.8575-2.326-1.3557-4.9091-2.0057-7.4907-2.0057h0Z"/>
    </g>
  </g>
  <g>
    <path class="cls-2" d="M2896.2604,2306.8058c-37.8687-.0005-73.3242-18.4897-94.8428-49.4585-14.9868-21.5679-22.0181-46.8267-20.3335-73.0449,1.6343-25.4395,11.7407-49.9165,28.457-68.9219,2.3594-2.6826,5.6475-4.1602,9.2588-4.1602,4.2065,0,8.147,2.0571,10.5405,5.502l17.4873,25.1665c3.0547,4.3965,3.1079,10.1411.1318,14.2954-14.9487,20.8691-15.2017,48.9819-.6289,69.9541,11.2832,16.2373,29.9199,25.9307,49.854,25.9292,5.3926-.0005,10.7515-.7139,15.9272-2.1201.9897-.269,2.0132-.4053,3.041-.4053,4.0566,0,7.9111,2.0615,10.3105,5.5142l17.4873,25.1665c2.2627,3.2568,2.8882,7.3037,1.7163,11.104-1.1348,3.6782-3.8188,6.5654-7.3638,7.9204-13.1187,5.0156-26.9277,7.5586-41.0415,7.5586h-.0015Z"/>
    <path class="cls-3" d="M2818.799,2114.3004c3.1989.0003,6.1942,1.5627,8.0125,4.1795l17.4874,25.1666c2.313,3.3288,2.3761,7.6465.157,10.7444-15.7056,21.9259-15.9684,51.4652-.6538,73.505,11.8572,17.0639,31.4395,27.2514,52.3826,27.2514,5.6642,0,11.2947-.7496,16.7349-2.228.7268-.1975,1.4784-.2976,2.2336-.2976,3.0031,0,5.9846,1.6063,7.7814,4.1922l17.4874,25.1666c1.7188,2.4736,2.1935,5.5492,1.3024,8.4381-.8537,2.7677-2.8659,4.9371-5.5207,5.952-12.7667,4.8806-26.2056,7.3553-39.9434,7.3553-36.8597,0-71.3695-17.9948-92.3135-48.1361-14.5856-20.9906-21.4286-45.5732-19.7892-71.0901,1.5911-24.7637,11.4271-48.5884,27.6962-67.0852,1.7665-2.0084,4.2332-3.1144,6.9453-3.1141h0M2818.7996,2108.1407c-4.2452-.0004-8.4867,1.6991-11.571,5.2056-35.1198,39.9287-40.0148,100.1743-8.3402,145.7583,22.9711,33.0584,59.8787,50.7809,97.3718,50.7809,14.2059,0,28.4945-2.5437,42.1429-7.7614,9.471-3.6207,12.863-15.3319,7.0771-23.6585l-17.4873-25.1666c-2.9662-4.2687-7.8096-6.837-12.8397-6.837-1.2803,0-2.572.1663-3.8488.5132-4.9659,1.3494-10.0551,2.0124-15.1198,2.0124-18.2312,0-36.1881-8.5804-47.3242-24.6066v-.0002c-14.2297-20.4783-13.1805-47.1606.603-66.403,3.7975-5.3013,3.6149-12.4909-.1062-17.8461l-17.4874-25.1666c-3.121-4.4916-8.098-6.8238-13.0702-6.8243h0Z"/>
  </g>
  <g>
    <g>
      <path class="cls-1" d="M2930.1774,2139.2984c-2.1182-.0005-4.2646-.5278-6.2075-1.5259-8.6025-4.4204-18.2725-6.7573-27.9634-6.7573-5.2881,0-10.5469.6885-15.6299,2.0459-1.042.2783-2.1157.4194-3.1914.4194-4.1201,0-7.998-2.0405-10.3735-5.459l-17.4927-25.1748c-2.2617-3.2549-2.8867-7.3003-1.7144-11.0981,1.1377-3.688,3.8315-6.5825,7.3896-7.9414,13.1035-5.0039,26.895-7.5415,40.9917-7.5415,24.1372,0,48.1572,7.7251,67.6357,21.7524,3.4312,2.4712,5.3789,6.3052,5.3433,10.5181-.0347,4.168-2.0186,7.9224-5.4419,10.3013l-26.3062,18.2788c-2.0542,1.4272-4.4883,2.1821-7.0391,2.1821h-.0005Z"/>
      <path class="cls-3" d="M2895.9853,2079.3457c23.4974.0005,46.8787,7.5195,65.8365,21.1719,2.6095,1.8792,4.0906,4.7925,4.0637,7.9928-.0266,3.1548-1.5283,5.997-4.12,7.7979l-26.3061,18.2791c-1.5356,1.067-3.3622,1.6311-5.2823,1.6311-1.6302,0-3.2898-.4099-4.7991-1.1855-9.0366-4.6431-19.1921-7.0973-29.3717-7.0973-5.5571.0002-11.083.7236-16.424,2.1501-.7828.209-1.5891.3151-2.3965.3151-3.1122,0-6.0448-1.5465-7.8448-4.1371l-17.4928-25.1745c-1.7178-2.472-2.1919-5.5457-1.3008-8.433.8569-2.7766,2.8783-4.9533,5.5458-5.972,12.752-4.8699,26.1736-7.339,39.8921-7.3387h0M2895.9854,2073.186c-14.1879-.0003-28.4569,2.5378-42.0897,7.744-9.4845,3.6221-12.8992,15.3367-7.1058,23.6741l17.4928,25.1745c2.9835,4.2937,7.8429,6.7818,12.9032,6.7818,1.3252,0,2.6631-.1704,3.9858-.5237,4.8759-1.3023,9.8666-1.9413,14.8348-1.9415,9.2007-.0004,18.3309,2.19,26.5564,6.4164,2.4037,1.235,5.0193,1.8664,7.6141,1.8664,3.0912,0,6.1534-.8954,8.7972-2.7324l26.3061-18.2791c8.9791-6.2392,9.0137-19.4577.141-25.8474-20.3581-14.6608-44.7715-22.3326-69.4359-22.3332h0Z"/>
    </g>
    <g>
      <path class="cls-6" d="M2973.4675,2271.8448c-4.207-.0005-8.1479-2.0571-10.5415-5.502l-17.4868-25.1665c-3.0547-4.396-3.1079-10.1406-.1318-14.2954,12.0894-16.8774,14.7437-39.2432,6.9268-58.3691-2.2881-5.5996-.457-11.8936,4.4531-15.3052l24.4746-17.0063c2.1465-1.4917,4.6533-2.2798,7.2505-2.2798,4.9072,0,9.2817,2.7168,11.415,7.0898,9.998,20.4907,13.6348,43.3433,10.5166,66.0874-3.1006,22.6187-12.6509,43.5693-27.6182,60.5869-2.3594,2.6826-5.6475,4.1602-9.2573,4.1602h-.001Z"/>
      <path class="cls-3" d="M2988.4122,2137.0003c3.7207,0,7.0342,2.054,8.6476,5.3604,9.7294,19.9403,13.2681,42.1815,10.2332,64.3191-3.0184,22.0173-12.3133,42.4091-26.88,58.9708-1.7662,2.0082-4.2331,3.1141-6.9459,3.1141-3.1983,0-6.1934-1.5624-8.0119-4.1795l-17.4871-25.1663c-2.313-3.3287-2.3761-7.6465-.1572-10.7443,12.7007-17.7306,15.488-41.2302,7.2741-61.3283-1.7384-4.2537-.357-9.0281,3.3594-11.6105l24.4747-17.0065c1.6279-1.1312,3.5273-1.7291,5.493-1.7291M2988.4122,2130.8407c-3.1,0-6.2418.9083-9.0079,2.8304l-24.4746,17.0065c-6.0964,4.2361-8.3549,12.1273-5.5464,18.9991,7.5208,18.4023,4.8447,39.4621-6.5798,55.411-3.7974,5.3014-3.6148,12.4909.1063,17.8461l17.4871,25.1663c3.1211,4.4916,8.098,6.8243,13.0702,6.8243,4.2453,0,8.4869-1.6991,11.5711-5.2057,31.2146-35.4897,38.5526-87.0298,17.5574-130.0589-2.7574-5.6513-8.3962-8.819-14.1833-8.819h0Z"/>
    </g>
  </g>
  <g>
    <path class="cls-8" d="M2524.9802,2537.4532h375.9048c34.7914,0,63.0376,28.2462,63.0376,63.0376v236.7783c0,34.7914-28.2462,63.0376-63.0376,63.0376h-375.9043c-34.7914,0-63.0376-28.2462-63.0376-63.0376v-236.7788c0-34.7911,28.246-63.0371,63.0371-63.0371Z"/>
    <path class="cls-3" d="M2900.8852,2540.5333c15.9421,0,30.9786,6.2568,42.3395,17.6178,11.361,11.3609,17.6178,26.3975,17.6178,42.3396v236.7785c0,15.9421-6.2568,30.9787-17.6178,42.3396-11.3609,11.361-26.3974,17.6178-42.3395,17.6178h-375.9049c-15.9421,0-30.9786-6.2567-42.3397-17.6178-11.361-11.361-17.6177-26.3975-17.6177-42.3396v-236.7785c0-15.9422,6.2567-30.9786,17.6177-42.3396,11.3611-11.361,26.3976-17.6178,42.3397-17.6178h375.9049M2900.8852,2534.3736h-375.9049c-36.3644,0-66.1171,29.7526-66.1171,66.117v236.7785c0,36.3644,29.7527,66.117,66.1171,66.117h375.9049c36.3643,0,66.1169-29.7526,66.1169-66.117v-236.7785c0-36.3644-29.7526-66.117-66.1169-66.117h0Z"/>
  </g>
  <line class="cls-20" x1="2523.4414" y1="2608.4364" x2="2523.4414" y2="2852.9186"/>
  <line class="cls-20" x1="2875.8968" y1="2849.2848" x2="2523.4414" y2="2852.9186"/>
  <polyline class="cls-14" points="2548.7024 2829.6192 2605.3257 2779.4381 2682.5403 2821.4817 2753.1565 2718.8799 2786.7236 2737.3945 2877.9311 2651.6119"/>
  <g>
    <rect class="cls-8" x="3538.112" y="2023.2291" width="265.4292" height="508.0649" rx="80.3945" ry="80.3945"/>
    <path class="cls-3" d="M3723.1467,2026.3093c20.5591,0,39.9491,8.0675,54.598,22.7164s22.7164,34.0388,22.7164,54.598v347.276c0,20.5592-8.0675,39.9492-22.7164,54.598s-34.0388,22.7164-54.598,22.7164h-104.6403c-20.5591,0-39.9492-8.0675-54.598-22.7164s-22.7164-34.0388-22.7164-54.598v-347.276c0-20.5591,8.0676-39.9491,22.7164-54.598s34.0388-22.7164,54.598-22.7164h104.6403M3723.1467,2020.1496h-104.6403c-45.9107,0-83.474,37.5634-83.474,83.474v347.276c0,45.9107,37.5633,83.474,83.474,83.474h104.6403c45.9107,0,83.474-37.5633,83.474-83.474v-347.276c0-45.9107-37.5633-83.474-83.474-83.474h0Z"/>
  </g>
  <rect class="cls-4" x="3274.152" y="1824.0192" width="271.5883" height="148.4643" rx="44.8524" ry="44.8524"/>
  <path class="cls-3" d="M3490.18,1839.3379c22.9068,0,41.5428,18.636,41.5428,41.5428v58.7595c0,22.9067-18.636,41.5427-41.5428,41.5427h-181.8834c-22.9067,0-41.5428-18.636-41.5428-41.5427v-58.7595c0-22.9067,18.636-41.5428,41.5428-41.5428h181.8834M3490.18,1836.0282h-181.8834c-24.6689,0-44.8525,20.1836-44.8525,44.8525v58.7595c0,24.6688,20.1836,44.8524,44.8525,44.8524h181.8834c24.6689,0,44.8525-20.1836,44.8525-44.8524v-58.7595c0-24.6689-20.1836-44.8525-44.8525-44.8525h0Z"/>
  <rect class="cls-4" x="3601.5162" y="1663.2632" width="201.4026" height="148.4643" rx="38.6245" ry="38.6245"/>
  <rect class="cls-4" x="3271.4544" y="2617.147" width="271.5883" height="148.4643" rx="44.8524" ry="44.8524"/>
  <path class="cls-3" d="M3508.4893,2602.5215c22.9068,0,41.5428,18.636,41.5428,41.5427v58.7595c0,22.9067-18.636,41.5427-41.5428,41.5427h-181.8835c-22.9067,0-41.5427-18.636-41.5427-41.5427v-58.7595c0-22.9067,18.636-41.5427,41.5427-41.5427h181.8835M3508.4893,2599.2118h-181.8835c-24.6688,0-44.8524,20.1836-44.8524,44.8524v58.7595c0,24.6688,20.1836,44.8524,44.8524,44.8524h181.8835c24.6689,0,44.8525-20.1836,44.8525-44.8524v-58.7595c0-24.6688-20.1836-44.8524-44.8525-44.8524h0Z"/>
  <path class="cls-3" d="M3752.7384,1673.7422c19.7261,0,35.7744,16.0483,35.7744,35.7744v71.2153c0,19.7261-16.0483,35.7744-35.7744,35.7744h-124.1536c-19.726,0-35.7744-16.0483-35.7744-35.7744v-71.2153c0-19.7261,16.0483-35.7744,35.7744-35.7744h124.1536M3752.7384,1670.8921h-124.1536c-21.2435,0-38.6245,17.381-38.6245,38.6245v71.2153c0,21.2435,17.381,38.6245,38.6245,38.6245h124.1536c21.2435,0,38.6245-17.381,38.6245-38.6245v-71.2153c0-21.2435-17.381-38.6245-38.6245-38.6245h0Z"/>
  <rect class="cls-4" x="3856.2084" y="1835.3956" width="201.4026" height="254.3408" rx="50.5545" ry="50.5545"/>
  <path class="cls-3" d="M3981.8812,1849.0436c25.8189,0,46.824,21.0052,46.824,46.824v153.2318c0,25.8189-21.0052,46.8241-46.824,46.8241h-100.2935c-25.8189,0-46.8241-21.0052-46.8241-46.8241v-153.2318c0-25.8188,21.0052-46.824,46.8241-46.824h100.2935M3981.8812,1845.3131h-100.2935c-27.805,0-50.5545,22.7495-50.5545,50.5545v153.2318c0,27.805,22.7495,50.5545,50.5545,50.5545h100.2935c27.805,0,50.5545-22.7495,50.5545-50.5545v-153.2318c0-27.805-22.7495-50.5545-50.5545-50.5545h0Z"/>
  <rect class="cls-4" x="3776.4866" y="2692.5313" width="201.4026" height="254.3408" rx="50.5545" ry="50.5545"/>
  <path class="cls-3" d="M3902.5408,2706.1793c25.8189,0,46.8241,21.0052,46.8241,46.824v153.2318c0,25.8189-21.0052,46.824-46.8241,46.824h-100.2935c-25.8189,0-46.8241-21.0052-46.8241-46.824v-153.2318c0-25.8189,21.0052-46.824,46.8241-46.824h100.2935M3902.5408,2702.4489h-100.2935c-27.805,0-50.5545,22.7495-50.5545,50.5545v153.2318c0,27.805,22.7495,50.5545,50.5545,50.5545h100.2935c27.805,0,50.5545-22.7495,50.5545-50.5545v-153.2318c0-27.805-22.7495-50.5545-50.5545-50.5545h0Z"/>
  <g>
    <path class="cls-15" d="M3520.7433,1976.7441c.324,5.5319,1.4229,11.9974,4.1172,18.7837,11.2598,28.3605,40.7522,38.0626,45.9875,39.6912"/>
    <polygon class="cls-3" points="3514.6848 1984.3733 3520.8048 1977.8472 3527.3273 1983.971 3527.1565 1978.6036 3520.6341 1972.4835 3514.514 1979.0059 3514.6848 1984.3733"/>
  </g>
  <g>
    <path class="cls-15" d="M3692.4864,1823.2054c8.1326,17.5638,17.1591,42.7609,20.2144,73.9946,5.6026,57.2755-12.0841,102.0429-22.0391,122.9497"/>
    <polygon class="cls-3" points="3689.8577 1832.6272 3692.9243 1824.2224 3701.3273 1827.2939 3699.063 1822.4245 3690.6616 1819.3564 3687.5934 1827.7578 3689.8577 1832.6272"/>
  </g>
  <g>
    <line class="cls-15" x1="3791.3629" y1="2058.1245" x2="3829.1303" y2="1982.3905"/>
    <polygon class="cls-3" points="3831.4739 1991.8626 3828.6382 1983.3772 3820.1544 1986.2178 3822.5509 1981.4121 3831.0331 1978.5747 3833.8705 1987.0569 3831.4739 1991.8626"/>
  </g>
  <g>
    <path class="cls-15" d="M3570.0353,2518.7251c-7.7569,3.5531-13.3642,7.9125-17.3717,11.8419-24.0014,23.5344-20.1191,60.5804-17.8431,73.6893"/>
    <polygon class="cls-3" points="3527.2279 2598.1424 3534.6311 2603.166 3539.6504 2595.7598 3540.662 2601.0338 3535.642 2608.4363 3528.2394 2603.4164 3527.2279 2598.1424"/>
  </g>
  <g>
    <path class="cls-15" d="M3743.4652,2531.8452c11.0472,13.6537,23.2303,31.454,33.6572,53.6497,20.9016,44.4933,24.9787,85.8593,25.1325,112.694"/>
    <polygon class="cls-3" points="3795.8096 2690.8161 3802.1951 2697.0827 3808.4579 2690.6935 3808.51 2696.0634 3802.2471 2702.4488 3795.8616 2696.186 3795.8096 2690.8161"/>
  </g>
  <circle class="cls-25" cx="3364.5268" cy="1910.2604" r="9.9176"/>
  <circle class="cls-25" cx="3398.8568" cy="1910.2604" r="9.9176"/>
  <circle class="cls-25" cx="3433.9497" cy="1910.2604" r="9.9176"/>
  <circle class="cls-25" cx="3655.9502" cy="1745.1242" r="9.9176"/>
  <circle class="cls-25" cx="3690.2802" cy="1745.1242" r="9.9176"/>
  <circle class="cls-25" cx="3725.3731" cy="1745.1242" r="9.9176"/>
  <circle class="cls-25" cx="3897.4044" cy="1972.4835" r="9.9176"/>
  <circle class="cls-25" cx="3931.7344" cy="1972.4835" r="9.9176"/>
  <circle class="cls-25" cx="3966.8273" cy="1972.4835" r="9.9176"/>
  <circle class="cls-25" cx="3382.8362" cy="2673.4439" r="9.9176"/>
  <circle class="cls-25" cx="3417.1661" cy="2673.4439" r="9.9176"/>
  <circle class="cls-25" cx="3452.259" cy="2673.4439" r="9.9176"/>
  <circle class="cls-25" cx="3817.6826" cy="2829.6192" r="9.9176"/>
  <circle class="cls-25" cx="3852.0126" cy="2829.6192" r="9.9176"/>
  <circle class="cls-25" cx="3887.1054" cy="2829.6192" r="9.9176"/>
  <path class="cls-3" d="M3640.0337,2130.8996l-3.3939,20.3503-2.284.7416c-2.223.7254-4.4669,1.5802-6.7235,2.5572-2.2417.9764-4.3906,2.0275-6.4312,3.168l-2.1162,1.172-16.8174-11.119-.2619-.1928c-.3396-.2677-.7602-.3893-1.1707-.3666l.0003.0152c-.4027.03-.8101.2049-1.1238.5303l-.0078-.0075-19.672,20.4193c-.2837.2943-.4442.6774-.4673,1.0736-.0315.3733.0672.7669.3167,1.1125l11.9834,16.7682-1.0946,2.1423c-1.0645,2.0961-2.0365,4.282-2.9303,6.5577-.9092,2.2911-1.6663,4.5643-2.3103,6.8126l-.6576,2.3094-19.7736,4.0351-.3185.0517c-.4252.0534-.8014.2733-1.0771.5902-.2685.294-.4207.7001-.4124,1.1559l-.0077-.0075.5331,28.3652c-.0003.4034.1586.7809.4076,1.0807.2564.292.61.4986,1.0222.5671l20.35,3.3788.7417,2.299c.7179,2.2159,1.5727,4.4596,2.5572,6.7235.9763,2.2266,2.0274,4.3756,3.1677,6.416l1.1721,2.1163-11.1264,16.8248-.1931.2622c-.2602.3318-.374.7601-.3439,1.1628l-.0149.0155c.0296.3873.212.7871.5452,1.1083l-.0149.0155,20.4267,19.6643c.2943.2837.67.4519,1.0662.4751.3735.0312.7744-.0749,1.1122-.317l16.7685-11.9832,2.1575,1.0938c2.0884,1.0576,4.2668,2.0373,6.5425,2.9311,2.2986.9015,4.5644,1.6663,6.8124,2.3101l2.3096.6578,4.0354,19.7733.0588.3111c.0536.4249.2659.8092.5828,1.0848.3014.2608.7075.413,1.1562.4121l-.0077.008,28.3652-.5331c.4108-.0075.7882-.1666,1.0882-.4153.2845-.2487.4909-.6026.5596-1.0145l3.3862-20.3578,2.2918-.7343c2.2231-.7254,4.4668-1.5801,6.7236-2.5572,2.2412-.9765,4.3827-2.0348,6.4309-3.1677l2.1012-1.1718,17.2096,11.3626c.3313.2298.736.3215,1.1233.2764.3644-.0373.734-.2189,1.0252-.5209l.0155.0149,19.6276-20.3576c.3064-.3023.497-.6863.5278-1.0899.0389-.381-.068-.7976-.3177-1.143l-11.9756-16.7758,1.0865-2.1499c1.0652-2.0808,2.0444-4.2747,2.9311-6.5425.9013-2.2985,1.6737-4.5721,2.31-6.8124l.6652-2.3172,19.7733-4.0353.3036-.0512c.4248-.0535.8166-.2736,1.0923-.5905.2608-.3014.413-.7075.4048-1.1486l.0152-.0003-.5331-28.3652c-.0148-.4027-.1664-.7879-.4228-1.0799-.2486-.2847-.5948-.4989-1.0144-.5598l-20.3426-3.3865-.7496-2.2914c-.7174-2.2158-1.5648-4.4672-2.5571-6.7236-.9687-2.2339-2.0275-4.3903-3.1679-6.4313l-1.1642-2.1085,11.119-16.8172.1924-.2775c.2602-.3318.3745-.7446.3441-1.1626l.0149-.0155c-.03-.3875-.2122-.7873-.5374-1.1009l.0075-.0077-20.4192-19.6721c-.2942-.2837-.6776-.444-1.0739-.4825-.3808-.0236-.7668.0825-1.1049.3243l-16.7832,11.9836-2.1499-1.0867c-2.0809-1.0648-4.2746-2.0443-6.5424-2.9307-2.2986-.9015-4.5722-1.6741-6.8128-2.3102l-2.3092-.6577-4.043-19.7808-.0437-.3113c-.0535-.425-.2736-.8166-.5905-1.0923-.3016-.2607-.7076-.413-1.1561-.3973l-.0003-.0152-28.3652.5331c-.3952.0073-.7806.1588-1.0726.4152-.292.2564-.4986.6101-.5596,1.0145h0ZM3629.6075,2145.2469l2.6055-15.6271c.3761-2.3121,1.5569-4.2961,3.1972-5.7182,1.6699-1.4378,3.8221-2.3065,6.1187-2.3484l28.35-.5328.0149-.0155c2.4641-.0449,4.7473.8567,6.4944,2.3766,1.7084,1.4827,2.8872,3.5607,3.2196,5.9281l3.0653,14.9684c1.7751.5609,3.5131,1.1758,5.2063,1.8371,1.678.6616,3.3727,1.3989,5.0686,2.1972l12.8934-9.2043c1.8998-1.366,4.1336-1.9317,6.3042-1.7811,2.194.1579,4.333,1.0695,5.9902,2.6673l20.4192,19.6721.0149-.0155c1.7732,1.7096,2.7502,3.9665,2.9065,6.2838l.0152-.0003c.1553,2.2564-.4872,4.5656-1.9355,6.4863l-8.4094,12.7206c.8595,1.6654,1.6583,3.3323,2.3808,4.985.7227,1.6679,1.4006,3.3823,2.0337,5.1432l15.6272,2.6056c2.312.3762,4.2883,1.5494,5.7182,3.1972,1.4378,1.6699,2.2985,3.8146,2.3404,6.1112l.548,28.3498.0077.0075c.0454,2.4794-.8563,4.7626-2.3763,6.5094-1.4829,1.6934-3.5607,2.8875-5.9281,3.2196l-14.9684,3.0501c-.5608,1.7904-1.1756,3.5284-1.8371,5.2215-.6615,1.6781-1.3988,3.3729-2.1972,5.0685l9.2119,12.8858c1.3975,1.96,1.9568,4.2624,1.7541,6.5026-.2172,2.2557-1.2121,4.4344-2.9323,6.0632l-19.411,20.133.0155.0149c-1.6127,1.6727-3.7023,2.6312-5.8737,2.869-2.2015.2381-4.4703-.2759-6.3725-1.5421l-13.2287-8.7351c-1.6578.8673-3.317,1.6582-4.9775,2.3731-1.6675.738-3.3896,1.4084-5.1431,2.0338l-2.6054,15.6424c-.3841,2.3044-1.5494,4.2883-3.205,5.7107-1.6621,1.4453-3.807,2.3058-6.1038,2.348l-28.3498.5326-.0149.0155c-2.4792.0455-4.7552-.864-6.5016-2.3686-1.7011-1.4903-2.8878-3.576-3.2273-5.9356l-3.0503-14.9686c-1.7825-.5532-3.5205-1.168-5.2061-1.8372-1.6856-.6538-3.3805-1.3912-5.0838-2.197l-12.8858,9.2119c-1.8923,1.3583-4.1336,1.9318-6.3048,1.7657-2.1938-.1576-4.3328-1.0693-5.9822-2.6596l-20.4192-19.6721-.0149.0155c-1.7812-1.7174-2.75-3.9666-2.9143-6.2762l-.0149.0006c-.1555-2.2568.4869-4.5808,1.9355-6.4863l8.4094-12.7361c-.8673-1.6578-1.6582-3.3169-2.373-4.9775-.7303-1.66-1.4007-3.3822-2.0338-5.1431l-15.6346-2.5979c-2.3044-.3841-4.2889-1.5649-5.7107-3.205-1.4453-1.6622-2.3138-3.8147-2.3557-6.1113l-.5328-28.35-.0075-.0072c-.0455-2.4792.8562-4.7626,2.3687-6.5016,1.4826-1.7085,3.568-2.895,5.9355-3.2273l14.9609-3.0577c.5609-1.775,1.1757-3.5131,1.837-5.2064.6692-1.6856,1.3915-3.3802,2.2049-5.0761l-9.2119-12.8858c-1.366-1.8998-1.9318-4.1336-1.7736-6.3119.1578-2.1941,1.0696-4.3331,2.6676-5.9751l19.6643-20.4267-.0078-.0075c1.7247-1.7888,3.9736-2.7732,6.2758-2.9294l.0077.0075c2.2643-.1478,4.5731.4794,6.4785,1.9281l12.7283,8.402c1.6654-.8597,3.3247-1.6507,4.9773-2.3733,1.6755-.7303,3.3899-1.4082,5.1435-2.0337h0ZM3620.4352,2187.4292c9.8848-10.2525,22.9945-15.5279,36.1885-15.7765,13.2016-.241,26.4878,4.5599,36.7404,14.4448,10.2523,9.8846,15.535,22.9867,15.7686,36.1811.2409,13.2018-4.5524,26.4953-14.4372,36.7477-9.8849,10.2526-22.9944,15.5277-36.1887,15.7613-13.1942.2482-26.4877-4.5451-36.74-14.4297-10.2526-9.8849-15.528-22.9946-15.769-36.1962-.2405-13.1867,4.5526-26.4799,14.4375-36.7325h0ZM3656.7764,2179.5995c-11.1716.1964-22.2649,4.6666-30.6267,13.3393-8.3617,8.6727-12.4165,19.9141-12.205,31.0854.2041,11.1636,4.6663,22.2497,13.339,30.6115,8.6727,8.3617,19.9144,12.4163,31.078,12.2127,11.1636-.2041,22.2494-4.6665,30.6112-13.3393,8.3618-8.6728,12.424-19.9218,12.2205-31.0855-.204-11.1637-4.6664-22.2496-13.3391-30.6113-8.6728-8.3618-19.9141-12.4165-31.0779-12.2129h0Z"/>
  <path class="cls-3" d="M3663.5533,2377.8796l4.1425,14.3781,12.1652-1.1805,1.3067,2.0072c.7361,1.1276,1.5086,2.2014,2.303,3.2061.8176,1.0276,1.6799,2.0083,2.587,2.9425l1.6904,1.7491-3.8664,11.5729,13.0948,7.2311,7.747-9.4148,2.3599.4973c1.3897.2938,2.687.5136,3.8841.6516l.0149-.0155c1.2957.1435,2.6057.2263,3.9145.248l2.4043.0321,5.4639,10.9308,14.3781-4.142-1.1802-12.15,2.0072-1.3072c1.1277-.7355,2.2014-1.5086,3.2064-2.3027,1.0274-.8173,2.008-1.6796,2.9497-2.5944l1.742-1.6829,11.5646,3.8589,7.2317-13.0948-9.4073-7.7398.5045-2.3674c.2734-1.2905.4854-2.5953.6215-3.8832.1513-1.3037.2409-2.6215.2552-3.9379l.0398-2.3969,10.931-5.4637-4.1425-14.3781-12.1573,1.1883-1.3075-2.0075c-.7358-1.1428-1.5006-2.2092-2.3102-3.2136-.8096-1.0199-1.6644-2.0083-2.5795-2.9503l-1.6901-1.734,3.8663-11.5728-13.0948-7.2311-7.7473,9.4145-2.3674-.5045c-1.2985-.2806-2.5953-.4849-3.8835-.6362-1.3037-.1363-2.6212-.2263-3.9299-.248l-2.4044-.0321-5.4564-10.9384-14.3856,4.1497,1.1883,12.1578-2.0152,1.2995c-1.1277.7355-2.1937,1.5006-3.1912,2.3024-1.0271.8176-2.0232,1.6799-2.9575,2.587l-1.7494,1.6906-11.5646-3.8589-7.2388,13.0874,9.4219,7.7545-.5042,2.3676c-.2731,1.2908-.4852,2.5956-.6292,3.8758l-.0149.0006c-.1375,1.2274-.2202,2.537-.2328,3.9296l-.0473,2.4046-10.931,5.4636ZM3660.2681,2395.0177l-4.475-15.5357-.0155-.0149c-.5121-1.7785-.3015-3.5928.4537-5.1358l.0075-.0078c.7038-1.4582,1.9137-2.6821,3.4756-3.3876l6.9956-3.4902c.0552-.739.1176-1.4855.2025-2.2554l-.0077-.0075c.085-.7545.1858-1.4944.3012-2.2345l-6.2245-5.12c-1.3441-1.1013-2.1852-2.6-2.4959-4.1993-.3035-1.6222-.0534-3.3386.7786-4.8524l7.82-14.1707c.8911-1.606,2.3311-2.743,3.9641-3.3053,1.5495-.5378,3.2687-.5388,4.8769.0553l7.4014,2.4744c.5691-.4973,1.1464-.9718,1.731-1.4392.6-.4824,1.2003-.9348,1.8011-1.3716l-.7779-8.0111c-.1767-1.7543.295-3.4213,1.206-4.7693.9187-1.3554,2.3069-2.3927,3.9721-2.8641l.0075.0072,15.5282-4.4827c1.7863-.5041,3.608-.3017,5.1507.4387,1.4659.7112,2.6899,1.9212,3.4031,3.4901l3.4824,6.9886c.7617.0466,1.5161.1167,2.2707.2017.7395.0856,1.4866.1783,2.2193.302l5.1354-6.225c1.1011-1.3439,2.5997-2.1855,4.1916-2.4884,1.6222-.3184,3.3536-.0689,4.8521.7634l14.1629,7.8281c1.6216.8909,2.7584,2.3306,3.3208,3.9635.5229,1.55.539,3.269-.0631,4.87l-2.4664,7.4086c.4893.5619.9638,1.1387,1.4312,1.7237.475.5923.9344,1.2,1.3793,1.808l8.0036-.7851c1.7465-.1687,3.4208.2949,4.769,1.2063,1.3557.9184,2.393,2.3221,2.8719,3.9791l-.0149.0005,4.4825,15.5279.0155.0149c.5046,1.7863.3092,3.6003-.4463,5.143l-.0149.0155c-.7112,1.451-1.9212,2.675-3.4754,3.3879l-6.9883,3.4822c-.0469.7619-.1167,1.5161-.2018,2.2711-.093.7468-.1938,1.4866-.3092,2.2267l6.2245,5.12c1.3828,1.1386,2.2325,2.6903,2.5216,4.3435.2728,1.6076-.0077,3.3246-.8629,4.8159h0l-7.7692,14.0555c-.8394,1.5215-2.1657,2.6184-3.6842,3.2164-1.5258.5911-3.2665.6609-4.8968.1201h0l-7.6537-2.5534c-.5616.4896-1.1309.9717-1.716,1.4387-.6074.4752-1.2.935-1.8158,1.3718l.7779,8.0116c.1839,1.7463-.2878,3.4133-1.1988,4.7613-.9187,1.3555-2.3143,2.4004-3.9716,2.8796l-.0006-.0154-15.5431,4.4833c-1.7857.5196-3.6154.3095-5.1582-.4459-1.4585-.719-2.675-1.9217-3.3882-3.4757l-3.4899-6.9958c-.7539-.0397-1.5084-.1092-2.2629-.1943l-.0003-.0152c-.7625-.0928-1.5021-.1933-2.2267-.2943l-5.12,6.225c-1.1088,1.3513-2.6072,2.1927-4.207,2.4885-1.6222.3184-3.3386.0683-4.8521-.7634l-14.1629-7.828c-1.6138-.8836-2.751-2.3234-3.3131-3.9561-.5306-1.5575-.539-3.2839.0628-4.8852l2.4743-7.4014c-.4973-.5691-.9792-1.1381-1.4387-1.7155-.4827-.5997-.9424-1.2077-1.3795-1.8083l-8.0266.7779-.0003-.0152c-1.7543.1767-3.4135-.2875-4.7461-1.1991-1.3557-.9185-2.3927-2.3069-2.8719-3.9642l.0074-.0077ZM3742.8201,2385.7664c-4.1532,7.5159-10.9671,12.6308-18.6333,14.832l-.0149.0155c-7.6507,2.2012-16.1457,1.4815-23.6693-2.6792-7.5154-4.1532-12.638-10.9746-14.8394-18.6405-2.2092-7.6584-1.4895-16.1534,2.6712-23.677,4.1612-7.5082,10.9751-12.623,18.6333-14.832l.0149-.0155c7.6507-2.2012,16.1459-1.4812,23.6693,2.6792,7.5156,4.1535,12.6382,10.9748,14.832,18.6333l.0155.0149c2.2012,7.6507,1.4818,16.1459-2.6792,23.6693h0ZM3722.0022,2393.0084c5.6981-1.6485,10.7711-5.4686,13.8863-11.0862,3.1-5.6024,3.6387-11.9416,1.998-17.6472h0c-1.6412-5.7061-5.4611-10.7788-11.0713-13.8868-5.6173-3.1-11.9485-3.6309-17.6624-1.9977l.0075-.0078c-5.7058,1.641-10.7785,5.4614-13.886,11.0865-3.1003,5.6021-3.6389,11.9414-1.9982,17.6469,1.6407,5.6906,5.4611,10.7788,11.0713,13.8868,5.6096,3.0925,11.9486,3.631,17.6544,1.99l.0006.0154Z"/>
  <g>
    <path class="cls-18" d="M6468.8076,2773.0199c30.2422-203.5568,41.5815-541.7832-156.825-804.3599-335.5344-444.0557-1175.6343-545.6292-1974.3685-76.9227"/>
    <polygon class="cls-3" points="4354.1269 1844.5232 4342.5431 1888.9555 4386.9822 1900.5134 4363.2114 1914.4622 4318.7888 1902.8947 4330.3561 1858.472 4354.1269 1844.5232"/>
  </g>
</svg>