<?xml version="1.0" encoding="UTF-8"?>
<svg id="Layer_1" xmlns="http://www.w3.org/2000/svg" xmlns:xlink="http://www.w3.org/1999/xlink" viewBox="0 0 363.2461 737.3332">
  <defs>
    <style>
      .cls-1 {
        fill: #e5a628;
      }

      .cls-2, .cls-3, .cls-4, .cls-5, .cls-6, .cls-7, .cls-8, .cls-9 {
        stroke-miterlimit: 10;
      }

      .cls-2, .cls-3, .cls-4, .cls-6, .cls-7, .cls-9 {
        fill: none;
      }

      .cls-2, .cls-4, .cls-5, .cls-7, .cls-8, .cls-9 {
        stroke: #000;
      }

      .cls-2, .cls-5, .cls-6 {
        stroke-width: .5897px;
      }

      .cls-10, .cls-5 {
        fill: #fff;
      }

      .cls-11 {
        fill: #c4495b;
      }

      .cls-12 {
        fill: #f0ff83;
      }

      .cls-3 {
        stroke-width: 1.4777px;
      }

      .cls-3, .cls-4, .cls-6 {
        stroke-linecap: round;
      }

      .cls-3, .cls-6 {
        stroke: #3cce77;
      }

      .cls-13 {
        fill: #caffbd;
      }

      .cls-4 {
        stroke-width: .8845px;
      }

      .cls-14 {
        opacity: .49;
      }

      .cls-15 {
        fill: #19a364;
      }

      .cls-5 {
        filter: url(#drop-shadow-1);
      }

      .cls-16 {
        fill: #1aa096;
      }

      .cls-17 {
        fill: #9eddb7;
      }

      .cls-7 {
        stroke-width: 1.4937px;
      }

      .cls-8 {
        stroke-width: .1474px;
      }

      .cls-18 {
        fill: #a643ed;
      }

      .cls-19 {
        fill: #b595e8;
      }

      .cls-20 {
        fill: #caddfc;
      }

      .cls-9 {
        stroke-width: .3571px;
      }
    </style>
    <filter id="drop-shadow-1" filterUnits="userSpaceOnUse">
      <feOffset dx="2.0104" dy="2.9677"/>
      <feGaussianBlur result="blur" stdDeviation=".4787"/>
      <feFlood flood-color="#545456" flood-opacity=".75"/>
      <feComposite in2="blur" operator="in"/>
      <feComposite in="SourceGraphic"/>
    </filter>
  </defs>
  <g class="cls-14">
    <rect class="cls-10" x="17.6894" y="19.5255" width="328.6919" height="717.3081" rx="19.5" ry="19.5"/>
    <path class="cls-20" d="M326.8818,20.0255c10.4766,0,19,8.5234,19,19v678.3078c0,10.4766-8.5234,19-19,19H37.1894c-10.4766,0-19-8.5234-19-19V39.0255c0-10.4766,8.5234-19,19-19h289.6924M326.8818,19.0255H37.1894c-11,0-20,9-20,20v678.3078c0,11,9,20,20,20h289.6924c11,0,20-9,20-20V39.0255c0-11-9-20-20-20h0Z"/>
  </g>
  <rect class="cls-5" x="36.9604" y="66.3324" width="294.8389" height="235.8712" rx="10.7008" ry="10.7008"/>
  <line class="cls-2" x1="36.9604" y1="83.8145" x2="331.7993" y2="83.8145"/>
  <circle class="cls-2" cx="291.2144" cy="75.4859" r="3.7977"/>
  <circle class="cls-2" cx="304.3604" cy="75.4859" r="3.7977"/>
  <circle class="cls-2" cx="317.7985" cy="75.4859" r="3.7977"/>
  <path class="cls-17" d="M230.2319,166.9011s13.0199-77.3283-44.8463-86.0278c0,0-31.8264-5.7996-63.6529,55.0964,0,0-20.9717-29.9112-43.5767-14.8039-2.2573,1.5086-4.5847,2.8245-6.9658,3.9425-6.51,3.0566-20.3436,12.7946-26.8536,41.7928,0,0-35.4431-10.6326-39.0597,48.3302-3.6166,58.9629,45.5697,66.6957,45.5697,66.6957,0,0,18.0832,3.8664,27.4865,0,0,0,6.51,63.7959,58.5896,54.1298,0,0,28.2098,4.833,69.4395-42.5306,0,0,28.2098,49.2968,65.0995,6.7662,0,0,40.5064,28.0315,60.7595-27.0649,0,0,29.008,4.5075,30.996-39.5842.2629-5.8306-1.2658-11.6714-4.6607-16.419-4.9321-6.8976-14.7983-13.4179-34.292-8.3349,0,0-10.8499-41.9883-42.6763-27.4892,0,0-12.2966-49.2968-51.3563-14.4991Z"/>
  <path class="cls-7" d="M225.892,125.1763s13.0199-77.3283-44.8463-86.0278c0,0-31.8264-5.7996-63.6529,55.0964,0,0-20.9717-29.9112-43.5767-14.8039-2.2573,1.5086-4.5847,2.8245-6.9658,3.9425-6.51,3.0566-20.3436,12.7946-26.8536,41.7928,0,0-35.4431-10.6326-39.0597,48.3302s45.5697,66.6957,45.5697,66.6957c0,0,18.0832,3.8664,27.4865,0,0,0,6.51,63.7959,58.5896,54.1298,0,0,28.2098,4.833,69.4395-42.5306,0,0,28.2098,49.2968,65.0995,6.7662,0,0,40.5064,28.0315,60.7595-27.0649,0,0,29.008,4.5075,30.996-39.5842.2629-5.8306-1.2658-11.6714-4.6607-16.419-4.9321-6.8976-14.7983-13.4179-34.292-8.3349,0,0-10.8499-41.9883-42.6763-27.4892,0,0-12.2966-49.2968-51.3563-14.4991Z"/>
  <g>
    <g>
      <rect class="cls-13" x="54.9516" y="104.7994" width="79.6494" height="174.6904" rx="14.4468" ry="14.4468"/>
      <path d="M120.1541,105.0943c7.8036,0,14.1523,6.3487,14.1523,14.1523v145.7965c0,7.8036-6.3487,14.1523-14.1523,14.1523h-50.7556c-7.8036,0-14.1523-6.3487-14.1523-14.1523V119.2465c0-7.8036,6.3487-14.1523,14.1523-14.1523h50.7556M120.1541,104.5046h-50.7556c-8.1081,0-14.7419,6.6339-14.7419,14.7419v145.7965c0,8.1081,6.6339,14.7419,14.7419,14.7419h50.7556c8.1081,0,14.7419-6.6339,14.7419-14.7419V119.2465c0-8.1081-6.6339-14.7419-14.7419-14.7419h0Z"/>
    </g>
    <g>
      <rect class="cls-13" x="144.5551" y="104.7994" width="79.6494" height="174.6904" rx="14.4468" ry="14.4468"/>
      <path d="M209.7577,105.0943c7.8036,0,14.1523,6.3487,14.1523,14.1523v145.7965c0,7.8036-6.3487,14.1523-14.1523,14.1523h-50.7556c-7.8036,0-14.1523-6.3487-14.1523-14.1523V119.2465c0-7.8036,6.3487-14.1523,14.1523-14.1523h50.7556M209.7577,104.5046h-50.7556c-8.1081,0-14.7419,6.6339-14.7419,14.7419v145.7965c0,8.1081,6.6339,14.7419,14.7419,14.7419h50.7556c8.1081,0,14.7419-6.6339,14.7419-14.7419V119.2465c0-8.1081-6.6339-14.7419-14.7419-14.7419h0Z"/>
    </g>
    <g>
      <path class="cls-13" d="M248.6059,104.7994h50.7549c7.9737,0,14.4473,6.4736,14.4473,14.4473v145.7969c0,7.9731-6.4732,14.4463-14.4463,14.4463h-50.7563c-7.9734,0-14.4468-6.4734-14.4468-14.4468V119.2467c0-7.9737,6.4736-14.4473,14.4473-14.4473Z"/>
      <path d="M299.3613,105.0943c7.8036,0,14.1523,6.3487,14.1523,14.1523v145.7965c0,7.8036-6.3487,14.1523-14.1523,14.1523h-50.7556c-7.8036,0-14.1523-6.3487-14.1523-14.1523V119.2465c0-7.8036,6.3487-14.1523,14.1523-14.1523h50.7556M299.3613,104.5046h-50.7556c-8.1081,0-14.7419,6.6339-14.7419,14.7419v145.7965c0,8.1081,6.6339,14.7419,14.7419,14.7419h50.7556c8.1081,0,14.7419-6.6339,14.7419-14.7419V119.2465c0-8.1081-6.6339-14.7419-14.7419-14.7419h0Z"/>
    </g>
    <g>
      <circle class="cls-10" cx="72.0644" cy="137.4581" r="7.5928"/>
      <path d="M72.0643,130.1602c4.0241,0,7.2979,3.2738,7.2979,7.2979s-3.2738,7.2979-7.298,7.2979-7.2979-3.2738-7.2979-7.298,3.2738-7.2979,7.298-7.2979M72.0643,129.5706h0c-4.3382,0-7.8876,3.5494-7.8876,7.8876h0c0,4.3382,3.5494,7.8876,7.8876,7.8876h0c4.3382,0,7.8876-3.5494,7.8876-7.8876h0c0-4.3382-3.5494-7.8876-7.8876-7.8876h0Z"/>
    </g>
    <path class="cls-3" d="M68.9711,138.2332s1.4641,3.0502,3.5382,4.0263,7.4425-12.6889,7.4425-12.6889"/>
    <g>
      <circle class="cls-10" cx="72.0644" cy="165.4435" r="7.5928"/>
      <path d="M72.0643,158.1455c4.0241,0,7.2979,3.2738,7.2979,7.298s-3.2738,7.2979-7.298,7.2979-7.2979-3.2738-7.2979-7.2979,3.2738-7.2979,7.298-7.2979M72.0643,157.5558h0c-4.3382,0-7.8876,3.5494-7.8876,7.8876h0c0,4.3382,3.5494,7.8876,7.8876,7.8876h0c4.3382,0,7.8876-3.5494,7.8876-7.8876h0c0-4.3382-3.5494-7.8876-7.8876-7.8876h0Z"/>
    </g>
    <path class="cls-3" d="M68.9711,166.2184s1.4641,3.0502,3.5382,4.0263c2.0741.9761,7.4425-12.6889,7.4425-12.6889"/>
    <g>
      <circle class="cls-10" cx="72.0644" cy="193.4288" r="7.5928"/>
      <path d="M72.0643,186.1308c4.0241,0,7.2979,3.2738,7.2979,7.2979s-3.2738,7.2979-7.298,7.2979-7.2979-3.2738-7.2979-7.2979,3.2738-7.2979,7.298-7.2979M72.0643,185.5411h0c-4.3382,0-7.8876,3.5494-7.8876,7.8876s3.5494,7.8876,7.8876,7.8876h0c4.3382,0,7.8876-3.5494,7.8876-7.8876s-3.5494-7.8876-7.8876-7.8876h0Z"/>
    </g>
    <path class="cls-3" d="M68.9711,194.2037s1.4641,3.0502,3.5382,4.0263,7.4425-12.6889,7.4425-12.6889"/>
    <g>
      <path class="cls-10" d="M72.0644,229.0065c-4.1865,0-7.5928-3.4058-7.5928-7.5923s3.4062-7.5928,7.5928-7.5928,7.5928,3.4058,7.5928,7.5923-3.4062,7.5928-7.5928,7.5928Z"/>
      <path d="M72.0643,214.116c4.0241,0,7.2979,3.2738,7.2979,7.2979s-3.2738,7.2979-7.298,7.2979-7.2979-3.2738-7.2979-7.2979,3.2738-7.2979,7.298-7.2979M72.0643,213.5263h0c-4.3382,0-7.8876,3.5494-7.8876,7.8876s3.5494,7.8876,7.8876,7.8876h0c4.3382,0,7.8876-3.5494,7.8876-7.8876s-3.5494-7.8876-7.8876-7.8876h0Z"/>
    </g>
    <path class="cls-3" d="M68.9711,222.1889s1.4641,3.0502,3.5382,4.0263,7.4425-12.6889,7.4425-12.6889"/>
    <g>
      <circle class="cls-10" cx="72.0644" cy="246.3629" r="7.5928"/>
      <path d="M72.0643,239.0648c4.0241,0,7.2979,3.2738,7.2979,7.2979s-3.2738,7.2979-7.298,7.2979-7.2979-3.2738-7.2979-7.2979,3.2738-7.2979,7.298-7.2979M72.0643,238.4751h0c-4.3382,0-7.8876,3.5494-7.8876,7.8876h0c0,4.3382,3.5494,7.8876,7.8876,7.8876h0c4.3382,0,7.8876-3.5494,7.8876-7.8876h0c0-4.3382-3.5494-7.8876-7.8876-7.8876h0Z"/>
    </g>
    <path class="cls-3" d="M68.9711,247.1377s1.4641,3.0502,3.5382,4.0263,7.4425-12.6889,7.4425-12.6889"/>
    <line class="cls-4" x1="95.2956" y1="132.3045" x2="120.3809" y2="132.3045"/>
    <line class="cls-4" x1="95.2956" y1="135.94" x2="109.1499" y2="135.94"/>
    <line class="cls-4" x1="102.9827" y1="139.5754" x2="120.3809" y2="139.5754"/>
    <line class="cls-4" x1="184.1754" y1="130.3254" x2="209.2606" y2="130.3254"/>
    <line class="cls-4" x1="184.1754" y1="133.9608" x2="198.0297" y2="133.9608"/>
    <line class="cls-4" x1="191.8624" y1="137.5962" x2="209.2606" y2="137.5962"/>
    <line class="cls-4" x1="155.0259" y1="170.8865" x2="180.1112" y2="170.8865"/>
    <line class="cls-4" x1="155.0259" y1="174.522" x2="168.8802" y2="174.522"/>
    <line class="cls-4" x1="162.713" y1="178.1574" x2="180.1112" y2="178.1574"/>
    <line class="cls-4" x1="171.6328" y1="252.2595" x2="196.718" y2="252.2595"/>
    <line class="cls-4" x1="171.6328" y1="255.8949" x2="185.4871" y2="255.8949"/>
    <line class="cls-4" x1="179.3198" y1="259.5304" x2="196.718" y2="259.5304"/>
    <line class="cls-4" x1="95.2956" y1="160.2898" x2="120.3809" y2="160.2898"/>
    <line class="cls-4" x1="95.2956" y1="163.9252" x2="109.1499" y2="163.9252"/>
    <line class="cls-4" x1="102.9827" y1="167.5607" x2="120.3809" y2="167.5607"/>
    <line class="cls-4" x1="95.2956" y1="188.275" x2="120.3809" y2="188.275"/>
    <line class="cls-4" x1="95.2956" y1="191.9105" x2="109.1499" y2="191.9105"/>
    <line class="cls-4" x1="102.9827" y1="195.5459" x2="120.3809" y2="195.5459"/>
    <line class="cls-4" x1="95.2956" y1="216.2603" x2="120.3809" y2="216.2603"/>
    <line class="cls-4" x1="95.2956" y1="219.8957" x2="109.1499" y2="219.8957"/>
    <line class="cls-4" x1="102.9827" y1="223.5312" x2="120.3809" y2="223.5312"/>
    <line class="cls-4" x1="95.2956" y1="241.2091" x2="120.3809" y2="241.2091"/>
    <line class="cls-4" x1="95.2956" y1="244.8445" x2="109.1499" y2="244.8445"/>
    <line class="cls-4" x1="102.9827" y1="248.48" x2="120.3809" y2="248.48"/>
    <g>
      <path class="cls-11" d="M157.5322,141.715c-.4619,0-.873-.252-1.0737-.6572-2.2559-4.5635-1.1152-10.0435,2.7739-13.3271,1.9849-1.6758,4.5098-2.5986,7.1104-2.5986,2.3555,0,4.6006.7256,6.4932,2.0986.2944.2129.4707.5464.4844.9146.0142.3809-.144.7397-.4346.9849l-2.2417,1.8926c-.2231.1885-.5049.2925-.7925.2925-.2012,0-.3979-.0522-.5684-.1519-.8896-.5181-1.9072-.792-2.9429-.792-1.3662,0-2.6909.4829-3.7305,1.3604-1.8682,1.5771-2.5425,4.1821-1.6782,6.4829.1719.458.0239.9883-.3677,1.3188l-2.2417,1.8926c-.2207.186-.5015.2891-.79.2891Z"/>
      <path d="M166.3426,125.4268c2.2929,0,4.4785.7063,6.3206,2.0424.2202.1597.3524.4103.3626.6874.0107.2892-.1096.5618-.3299.7478l-2.2417,1.8926c-.1705.144-.3845.2232-.6025.2232-.1494,0-.2947-.0387-.4202-.1118-.9344-.5446-2.0033-.8324-3.0912-.8324-1.4362,0-2.8285.5079-3.9205,1.4299-1.9632,1.6575-2.6723,4.3951-1.7646,6.8123.1283.3415.0152.7391-.2813.9895l-2.2417,1.8927c-.215.1816-.4451.2197-.6002.2197-.349,0-.6591-.1887-.8092-.4926-2.1955-4.4418-1.0853-9.776,2.6997-12.9716,1.9318-1.631,4.3894-2.5291,6.92-2.529h0M166.3426,124.8371c-2.5823-.0001-5.1771.8754-7.3005,2.6682-4.0603,3.4281-5.1036,9.1198-2.8479,13.6835.2632.5325.795.821,1.3379.821.3442,0,.6928-.1158.9806-.3588l2.2417-1.8926c.477-.4027.6724-1.0629.4529-1.6474-.7966-2.1213-.2311-4.6143,1.593-6.1544h0c1.0276-.8676,2.2868-1.2907,3.5401-1.2908.9715,0,1.9394.254,2.7942.7522.2227.1298.4699.192.7171.192.3515,0,.7028-.1259.9829-.3623l2.2417-1.8926c.7417-.6262.7188-1.7932-.0669-2.3631-1.9659-1.4259-4.3112-2.1546-6.6668-2.1547h0Z"/>
    </g>
    <g>
      <g>
        <path class="cls-15" d="M174.8134,142.3683c-.3618,0-.6899-.1528-.9248-.4307l-1.978-2.3428c-.2861-.3394-.356-.8208-.1812-1.2573.54-1.3486.5605-2.8389.0576-4.1968-.1748-.4717-.0308-1.0098.3584-1.3379l2.2427-1.8936c.2207-.1865.501-.2891.7896-.2891.4629,0,.875.2524,1.0762.6592,1.6504,3.3423,1.5083,7.2603-.3799,10.481-.2231.3809-.6196.6079-1.0601.6079h-.0005Z"/>
        <path d="M175.1777,130.915c.3498,0,.6608.1896.8115.4948,1.6064,3.2528,1.4683,7.0664-.3694,10.2013-.1698.2896-.471.4625-.8058.4625-.2737,0-.5222-.1158-.6997-.3261l-1.9783-2.3432c-.2159-.2557-.2669-.6224-.133-.9569.5674-1.4175.5888-2.9834.0605-4.4092-.1318-.3556-.0223-.7616.2723-1.0104l2.2424-1.8932c.2149-.1814.4446-.2195.5995-.2195M175.1777,130.3253c-.3439,0-.6923.1157-.9799.3586l-2.2424,1.8932c-.4826.4075-.6644,1.0736-.4449,1.6659.4788,1.292.4517,2.7195-.055,3.9852-.2107.5263-.1359,1.1232.2299,1.5564l1.9783,2.3432c.3046.3608.7284.5354,1.1503.5354.5134,0,1.024-.2583,1.3145-.754,1.9133-3.2638,2.0834-7.3304.3894-10.7606-.2637-.5339-.7964-.8234-1.3402-.8234h0Z"/>
      </g>
      <g>
        <path class="cls-12" d="M166.3681,147.2028c-2.355,0-4.6006-.7256-6.4932-2.0986-.2944-.2134-.4712-.5469-.4844-.9155-.0142-.3804.144-.7388.4341-.9839l2.2422-1.8926c.2231-.189.5044-.2925.792-.2925.2017,0,.3984.0522.5688.1519.8892.5181,1.9067.792,2.9424.792.9346,0,1.8623-.2266,2.6831-.6558.1768-.0928.375-.1416.5732-.1416.3584,0,.6958.1562.9258.4287l1.8403,2.1797c.23.2725.3291.6309.272.9834-.0566.3496-.2617.6558-.563.8394-1.7212,1.0503-3.7041,1.6055-5.7334,1.6055Z"/>
        <path d="M162.859,141.3143c.1494,0,.2947.0387.4202.1118.9344.5446,2.0033.8324,3.0911.8324.9818,0,1.9568-.2385,2.8194-.6896.1349-.0706.2858-.1079.4364-.1079.2713,0,.5266.118.7004.3238l1.8406,2.18c.1744.2065.2495.4784.2061.7458-.0436.2685-.1946.4938-.4253.6346-1.6752,1.0221-3.6047,1.5624-5.5797,1.5624-2.2928,0-4.4784-.7062-6.3206-2.0423-.2203-.1597-.3524-.4103-.3627-.6874-.0107-.2892.1096-.5618.3299-.7478l2.2416-1.8926c.1705-.1439.3845-.2232.6025-.2232M162.859,140.7246c-.3515,0-.7028.1259-.9829.3623l-2.2417,1.8926c-.7417.6262-.7189,1.7932.0669,2.3631,1.966,1.4259,4.3111,2.1547,6.6668,2.1547,2.0332,0,4.0742-.5428,5.8868-1.6487.7892-.4815.959-1.5578.3626-2.2641l-1.8406-2.1801c-.2944-.3487-.7184-.5331-1.1509-.5331-.2409,0-.4844.0572-.7097.175-.798.4174-1.6735.6225-2.5461.6225-.9714,0-1.9394-.254-2.7942-.7522-.2227-.1298-.4699-.192-.7171-.192h0Z"/>
      </g>
    </g>
    <g>
      <path class="cls-16" d="M201.726,187.7321c-3.625,0-7.0195-1.77-9.0801-4.7349-2.9043-4.1792-2.584-9.7681.7783-13.5908.2256-.2568.541-.3979.8857-.3979.4033,0,.7803.1968,1.0098.5269l1.6738,2.4092c.293.4209.2979.9707.0127,1.3682-1.4316,1.998-1.4551,4.6895-.0605,6.6973,1.0801,1.5542,2.8643,2.4824,4.7725,2.4819.5166,0,1.0303-.0684,1.5254-.2026.0947-.0259.1924-.0391.291-.0391.3887,0,.7578.1978.9873.5283l1.6738,2.4092c.2168.3115.2764.6992.1641,1.063-.1084.3521-.3652.6284-.7051.7578-1.2559.48-2.5781.7236-3.9287.7236Z"/>
      <path d="M194.3103,169.3031c.3062,0,.593.1496.7671.4001l1.6741,2.4093c.2214.3187.2275.732.015,1.0286-1.5036,2.099-1.5287,4.9269-.0626,7.0369,1.1351,1.6336,3.0098,2.6089,5.0147,2.6089.5423,0,1.0813-.0718,1.6021-.2133.0696-.0189.1415-.0285.2139-.0285.2875,0,.5729.1538.7449.4013l1.6741,2.4093c.1645.2368.21.5312.1247.8078-.0817.265-.2744.4727-.5285.5698-1.2222.4673-2.5087.7042-3.8239.7042-3.5287,0-6.8324-1.7227-8.8374-4.6082-2.8267-4.0679-2.5154-9.5075.757-13.2279.1691-.1923.4052-.2981.6649-.2981h0M194.3103,168.7134c-.4064,0-.8125.1627-1.1077.4984-3.3621,3.8225-3.8307,9.59-.7984,13.9539,2.1991,3.1648,5.7324,4.8614,9.3217,4.8614,1.36,0,2.7279-.2435,4.0345-.743.9067-.3466,1.2314-1.4678.6775-2.2649l-1.6741-2.4093c-.284-.4087-.7476-.6545-1.2292-.6545-.1226,0-.2462.0159-.3685.0491-.4754.1292-.9626.1927-1.4475.1927-1.7453,0-3.4644-.8214-4.5305-2.3557h0c-1.3622-1.9605-1.2618-4.5148.0577-6.357.3635-.5075.3461-1.1958-.0102-1.7085l-1.6741-2.4093c-.2988-.43-.7753-.6533-1.2513-.6533h0Z"/>
    </g>
    <g>
      <g>
        <path class="cls-1" d="M204.9731,171.6964c-.2031,0-.4092-.0508-.5947-.146-.8232-.4233-1.748-.647-2.6768-.647-.5059,0-1.0098.0654-1.4961.1958-.0996.0264-.2021.04-.3057.04-.3945,0-.7656-.1953-.9932-.5229l-1.6748-2.4102c-.2168-.311-.2764-.6982-.1641-1.0615.1084-.3535.3672-.6304.708-.7607,1.2539-.479,2.5752-.7222,3.9248-.7222,2.3105,0,4.6094.7397,6.4746,2.0825.3281.2363.5146.6035.5107,1.0068-.0029.3989-.1934.7588-.5205.9863l-2.5186,1.75c-.1973.1367-.4297.209-.6738.209h0Z"/>
        <path d="M201.6995,165.9568c2.2495,0,4.4878.7199,6.3027,2.0269.2498.1799.3916.4588.389.7652-.0025.302-.1463.5741-.3944.7465l-2.5183,1.7499c-.147.1022-.3219.1561-.5057.1561-.1561,0-.3149-.0392-.4594-.1135-.8651-.4445-1.8374-.6794-2.8118-.6794-.532,0-1.061.0693-1.5723.2058-.0749.02-.1521.0302-.2294.0302-.2979,0-.5787-.148-.751-.396l-1.6746-2.41c-.1645-.2367-.2098-.5309-.1245-.8073.082-.2658.2755-.4742.5309-.5717,1.2208-.4662,2.5057-.7026,3.819-.7025M201.6996,165.3671c-1.3582,0-2.7243.243-4.0294.7414-.908.3468-1.2349,1.4682-.6803,2.2664l1.6746,2.41c.2856.411.7508.6492,1.2353.6492.1269,0,.2549-.0163.3816-.0501.4668-.1247.9445-.1859,1.4202-.1859.8808,0,1.7549.2097,2.5423.6143.2301.1182.4805.1787.7289.1787.2959,0,.5891-.0857.8422-.2616l2.5184-1.7499c.8596-.5973.8629-1.8627.0135-2.4744-1.9489-1.4035-4.2861-2.138-6.6473-2.138h0Z"/>
      </g>
      <g>
        <path class="cls-18" d="M209.1166,184.3854c-.4023,0-.7793-.1968-1.0088-.5269l-1.6738-2.4092c-.293-.4209-.2979-.9707-.0127-1.3682,1.1572-1.6167,1.4111-3.7578.6631-5.5879-.2188-.5361-.0439-1.1387.4258-1.4653l2.3438-1.6284c.2061-.1426.4453-.2183.6943-.2183.4697,0,.8887.2603,1.0928.6787,1.957,4.0112,1.3145,8.7715-1.6377,12.127-.2256.2568-.541.3984-.8867.3984Z"/>
        <path d="M210.5478,171.4762c.3562,0,.6734.1966.8279.5132,1.9047,3.9037,1.2792,8.5366-1.5936,11.8029-.1691.1922-.4052.2981-.6649.2981-.3062,0-.5929-.1496-.767-.4001l-1.6741-2.4092c-.2214-.3187-.2275-.732-.015-1.0286,1.2159-1.6974,1.4827-3.9471.6964-5.8711-.1664-.4072-.0342-.8643.3216-1.1115l2.343-1.6281c.1559-.1083.3377-.1655.5259-.1655M210.5478,170.8865c-.2968,0-.5975.0869-.8624.271l-2.343,1.6281c-.5836.4055-.7998,1.161-.531,1.8188.72,1.7617.4638,3.7778-.6299,5.3046-.3635.5075-.3461,1.1958.0102,1.7085l1.6741,2.4092c.2988.43.7753.6533,1.2513.6533.4064,0,.8125-.1627,1.1077-.4984,2.9883-3.3975,3.6908-8.3316,1.6808-12.4509-.264-.541-.8038-.8443-1.3578-.8443h0Z"/>
      </g>
    </g>
    <g>
      <rect class="cls-10" x="160.1474" y="209.8126" width="48.0562" height="34.7368" rx="6.0347" ry="6.0347"/>
      <path d="M202.1686,210.1076c3.165,0,5.7399,2.5749,5.7399,5.7399v22.6675c0,3.165-2.5749,5.7399-5.7399,5.7399h-35.9865c-3.165,0-5.7399-2.5749-5.7399-5.7399v-22.6675c0-3.165,2.5749-5.7399,5.7399-5.7399h35.9865M202.1686,209.5179h-35.9865c-3.4813,0-6.3296,2.8483-6.3296,6.3296v22.6675c0,3.4813,2.8483,6.3296,6.3296,6.3296h35.9865c3.4813,0,6.3296-2.8483,6.3296-6.3296v-22.6675c0-3.4813-2.8483-6.3296-6.3296-6.3296h0Z"/>
    </g>
    <line class="cls-4" x1="166.0348" y1="216.6081" x2="166.0348" y2="240.0131"/>
    <line class="cls-4" x1="199.7764" y1="239.6653" x2="166.0348" y2="240.0131"/>
    <polyline class="cls-6" points="168.4531 237.7826 173.8739 232.9786 181.2658 237.0036 188.0261 227.1812 191.2396 228.9537 199.9712 220.7415"/>
    <g>
      <rect class="cls-10" x="263.1723" y="160.5846" width="25.4102" height="48.6382" rx="7.6963" ry="7.6963"/>
      <path d="M280.8861,160.8795c4.0812,0,7.4015,3.3203,7.4015,7.4015v33.2457c0,4.0812-3.3203,7.4015-7.4015,7.4015h-10.0175c-4.0812,0-7.4015-3.3203-7.4015-7.4015v-33.2457c0-4.0812,3.3203-7.4015,7.4015-7.4015h10.0175M280.8861,160.2898h-10.0175c-4.3951,0-7.9912,3.596-7.9912,7.9912v33.2457c0,4.3952,3.596,7.9912,7.9912,7.9912h10.0175c4.3952,0,7.9912-3.596,7.9912-7.9912v-33.2457c0-4.3952-3.596-7.9912-7.9912-7.9912h0Z"/>
    </g>
    <rect class="cls-19" x="237.9025" y="141.5136" width="25.9999" height="14.2129" rx="4.2939" ry="4.2939"/>
    <path d="M258.5835,142.9801c2.1929,0,3.977,1.7841,3.977,3.977v5.6252c0,2.1929-1.7841,3.977-3.977,3.977h-17.4122c-2.1929,0-3.977-1.7841-3.977-3.977v-5.6252c0-2.1929,1.7841-3.977,3.977-3.977h17.4122M258.5835,142.6633h-17.4122c-2.3616,0-4.2939,1.9322-4.2939,4.2939v5.6252c0,2.3616,1.9322,4.2939,4.2939,4.2939h17.4122c2.3616,0,4.2939-1.9322,4.2939-4.2939v-5.6252c0-2.3616-1.9323-4.2939-4.2939-4.2939h0Z"/>
    <rect class="cls-19" x="269.242" y="126.124" width="19.2808" height="14.2129" rx="3.6976" ry="3.6976"/>
    <rect class="cls-19" x="237.6443" y="217.442" width="25.9999" height="14.2129" rx="4.2939" ry="4.2939"/>
    <path d="M260.3363,216.0419c2.1929,0,3.977,1.7841,3.977,3.977v5.6252c0,2.1929-1.7841,3.977-3.977,3.977h-17.4122c-2.1929,0-3.977-1.7841-3.977-3.977v-5.6252c0-2.1929,1.7841-3.977,3.977-3.977h17.4122M260.3363,215.725h-17.4122c-2.3616,0-4.2939,1.9323-4.2939,4.2939v5.6252c0,2.3616,1.9322,4.2939,4.2939,4.2939h17.4122c2.3616,0,4.2939-1.9322,4.2939-4.2939v-5.6252c0-2.3616-1.9322-4.2939-4.2939-4.2939h0Z"/>
    <path d="M283.719,127.1272c1.8884,0,3.4248,1.5363,3.4248,3.4248v6.8177c0,1.8884-1.5363,3.4248-3.4248,3.4248h-11.8856c-1.8884,0-3.4248-1.5363-3.4248-3.4248v-6.8177c0-1.8884,1.5363-3.4248,3.4248-3.4248h11.8856M283.719,126.8543h-11.8856c-2.0337,0-3.6976,1.6639-3.6976,3.6976v6.8177c0,2.0337,1.6639,3.6976,3.6976,3.6976h11.8856c2.0337,0,3.6976-1.6639,3.6976-3.6976v-6.8177c0-2.0337-1.6639-3.6976-3.6976-3.6976h0Z"/>
    <rect class="cls-19" x="293.6245" y="142.6027" width="19.2808" height="24.3488" rx="4.8397" ry="4.8397"/>
    <path d="M305.6555,143.9093c2.4717,0,4.4826,2.0109,4.4826,4.4826v14.6693c0,2.4717-2.0109,4.4826-4.4826,4.4826h-9.6014c-2.4717,0-4.4826-2.0109-4.4826-4.4826v-14.6693c0-2.4717,2.0109-4.4826,4.4826-4.4826h9.6014M305.6555,143.5522h-9.6014c-2.6618,0-4.8397,2.1779-4.8397,4.8397v14.6693c0,2.6618,2.1779,4.8397,4.8397,4.8397h9.6014c2.6618,0,4.8397-2.1779,4.8397-4.8397v-14.6693c0-2.6618-2.1779-4.8397-4.8397-4.8397h0Z"/>
    <rect class="cls-19" x="285.9925" y="224.6588" width="19.2808" height="24.3488" rx="4.8397" ry="4.8397"/>
    <path d="M298.06,225.9654c2.4717,0,4.4826,2.0109,4.4826,4.4826v14.6693c0,2.4717-2.0109,4.4826-4.4826,4.4826h-9.6014c-2.4717,0-4.4826-2.0109-4.4826-4.4826v-14.6693c0-2.4717,2.0109-4.4826,4.4826-4.4826h9.6014M298.06,225.6082h-9.6014c-2.6619,0-4.8398,2.1779-4.8398,4.8397v14.6693c0,2.6618,2.1779,4.8397,4.8398,4.8397h9.6014c2.6618,0,4.8397-2.1779,4.8397-4.8397v-14.6693c0-2.6619-2.1779-4.8397-4.8397-4.8397h0Z"/>
    <g>
      <path class="cls-9" d="M261.5094,156.1334c.0309.5298.1361,1.1492.3942,1.7993,1.0779,2.715,3.9013,3.6438,4.4025,3.7997"/>
      <polygon points="260.9805 156.8889 261.5381 156.2388 262.1879 156.7968 262.1488 156.2842 261.4989 155.7266 260.9413 156.3763 260.9805 156.8889"/>
    </g>
    <g>
      <path class="cls-9" d="M277.9504,141.4346c.7787,1.6815,1.6431,4.0941,1.9357,7.0848.5363,5.4831-1.1569,9.7689-2.1099,11.7703"/>
      <polygon points="277.6761 142.3361 277.9843 141.537 278.7832 141.8456 278.575 141.3756 277.7762 141.0673 277.4679 141.8661 277.6761 142.3361"/>
    </g>
    <g>
      <line class="cls-9" x1="287.4166" y1="163.9252" x2="291.0322" y2="156.675"/>
      <polygon points="291.2565 157.5818 290.9851 156.7694 290.1729 157.0414 290.4023 156.5813 291.2143 156.3097 291.486 157.1217 291.2565 157.5818"/>
    </g>
    <g>
      <path class="cls-9" d="M266.2283,208.0198c-.7426.3401-1.2794.7575-1.6631,1.1336-2.2995,2.2548-1.9255,5.805-1.7077,7.0574"/>
      <polygon points="262.1571 215.6013 262.8526 216.1012 263.3521 215.4054 263.4353 215.9127 262.9357 216.6082 262.2403 216.1086 262.1571 215.6013"/>
    </g>
    <g>
      <path class="cls-9" d="M282.8312,209.2758c1.0576,1.3071,2.2239,3.0112,3.2221,5.136,2.0019,4.2614,2.3916,8.2232,2.406,10.7921"/>
      <polygon points="287.8182 224.5083 288.4424 225.0948 289.0285 224.4702 289.0447 224.984 288.4586 225.6082 287.8344 225.0222 287.8182 224.5083"/>
    </g>
    <circle class="cls-8" cx="246.5544" cy="149.7698" r=".9494"/>
    <circle class="cls-8" cx="249.8409" cy="149.7698" r=".9494"/>
    <circle class="cls-8" cx="253.2004" cy="149.7698" r=".9494"/>
    <circle class="cls-8" cx="274.4532" cy="133.9608" r=".9494"/>
    <circle class="cls-8" cx="277.7397" cy="133.9608" r=".9494"/>
    <circle class="cls-8" cx="281.0992" cy="133.9608" r=".9494"/>
    <circle class="cls-8" cx="297.5683" cy="155.7266" r=".9494"/>
    <circle class="cls-8" cx="300.8548" cy="155.7266" r=".9494"/>
    <circle class="cls-8" cx="304.2143" cy="155.7266" r=".9494"/>
    <circle class="cls-8" cx="248.3072" cy="222.8315" r=".9494"/>
    <circle class="cls-8" cx="251.5937" cy="222.8315" r=".9494"/>
    <circle class="cls-8" cx="254.9532" cy="222.8315" r=".9494"/>
    <circle class="cls-8" cx="289.9363" cy="237.7826" r=".9494"/>
    <circle class="cls-8" cx="293.2228" cy="237.7826" r=".9494"/>
    <circle class="cls-8" cx="296.5823" cy="237.7826" r=".9494"/>
    <path d="M272.9294,170.8922l-.3249,1.9482-.2187.071c-.2128.0694-.4276.1513-.6437.2448-.2146.0935-.4203.1941-.6157.3033l-.2026.1122-1.61-1.0645-.0251-.0185c-.0325-.0256-.0728-.0373-.1121-.0351v.0015c-.0385.0029-.0775.0196-.1076.0508l-.0007-.0007-1.8833,1.9548c-.0272.0282-.0425.0649-.0447.1028-.003.0357.0064.0734.0303.1065l1.1472,1.6053-.1048.2051c-.1019.2007-.195.4099-.2805.6278-.087.2193-.1595.437-.2212.6522l-.063.2211-1.893.3863-.0305.0049c-.0407.0051-.0767.0262-.1031.0565-.0257.0281-.0403.067-.0395.1107l-.0007-.0007.051,2.7155c0,.0386.0152.0748.039.1035.0245.028.0584.0477.0979.0543l1.9482.3235.071.2201c.0687.2121.1506.4269.2448.6437.0935.2132.1941.4189.3033.6142l.1122.2026-1.0652,1.6107-.0185.0251c-.0249.0318-.0358.0728-.0329.1113l-.0014.0015c.0028.0371.0203.0753.0522.1061l-.0014.0015,1.9555,1.8825c.0282.0272.0641.0433.1021.0455.0358.003.0741-.0072.1065-.0303l1.6053-1.1472.2065.1047c.1999.1013.4085.195.6263.2806.2201.0863.437.1595.6522.2211l.2211.063.3863,1.893.0056.0298c.0051.0407.0255.0775.0558.1039.0289.025.0677.0395.1107.0395l-.0007.0008,2.7155-.051c.0393-.0007.0755-.016.1042-.0398.0272-.0238.047-.0577.0536-.0971l.3242-1.9489.2194-.0703c.2128-.0694.4276-.1513.6437-.2448.2146-.0935.4196-.1948.6156-.3033l.2012-.1122,1.6475,1.0878c.0317.022.0705.0308.1075.0265.0349-.0036.0703-.021.0981-.0499l.0015.0014,1.879-1.9489c.0293-.0289.0476-.0657.0505-.1043.0037-.0365-.0065-.0764-.0304-.1094l-1.1465-1.606.104-.2058c.102-.1992.1957-.4092.2806-.6263.0863-.22.1602-.4377.2211-.6522l.0637-.2218,1.893-.3863.0291-.0049c.0407-.0051.0782-.0262.1046-.0565.025-.0289.0395-.0677.0388-.11h.0015s-.051-2.7155-.051-2.7155c-.0014-.0385-.0159-.0754-.0405-.1034-.0238-.0273-.0569-.0478-.0971-.0536l-1.9475-.3242-.0718-.2194c-.0687-.2121-.1498-.4277-.2448-.6437-.0927-.2139-.1941-.4203-.3033-.6157l-.1115-.2019,1.0645-1.61.0184-.0266c.0249-.0318.0359-.0713.0329-.1113l.0014-.0015c-.0029-.0371-.0203-.0754-.0514-.1054l.0007-.0007-1.9548-1.8833c-.0282-.0272-.0649-.0425-.1028-.0462-.0365-.0023-.0734.0079-.1058.031l-1.6067,1.1472-.2058-.104c-.1992-.1019-.4092-.1957-.6263-.2806-.2201-.0863-.4377-.1603-.6522-.2212l-.2211-.063-.3871-1.8937-.0042-.0298c-.0051-.0407-.0262-.0782-.0565-.1046-.0289-.025-.0677-.0395-.1107-.038v-.0015s-2.7155.051-2.7155.051c-.0378.0007-.0747.0152-.1027.0397-.028.0245-.0477.0584-.0536.0971h0ZM271.9313,172.2657l.2494-1.496c.036-.2213.149-.4113.3061-.5474.1599-.1376.3659-.2208.5858-.2248l2.714-.051.0014-.0015c.2359-.0043.4545.082.6217.2275.1636.1419.2764.3409.3082.5675l.2935,1.433c.1699.0537.3363.1126.4984.1759.1606.0633.3229.1339.4852.2103l1.2343-.8812c.1819-.1308.3957-.1849.6035-.1705.21.0151.4148.1024.5735.2553l1.9548,1.8833.0014-.0015c.1698.1637.2633.3797.2782.6016h.0015c.0149.216-.0466.4371-.1853.6209l-.8051,1.2178c.0823.1594.1588.319.2279.4772.0692.1597.1341.3238.1947.4924l1.496.2494c.2213.036.4105.1483.5474.3061.1376.1599.22.3652.2241.585l.0525,2.714.0007.0007c.0043.2374-.082.4559-.2275.6232-.142.1621-.3409.2764-.5675.3082l-1.433.292c-.0537.1714-.1125.3378-.1759.4999-.0633.1606-.1339.3229-.2103.4852l.8819,1.2336c.1338.1876.1873.4081.1679.6225-.0208.2159-.116.4245-.2807.5804l-1.8583,1.9274.0015.0014c-.1544.1601-.3544.2519-.5623.2747-.2108.0228-.428-.0264-.6101-.1476l-1.2664-.8362c-.1587.083-.3175.1587-.4765.2272-.1596.0707-.3245.1348-.4924.1947l-.2494,1.4975c-.0368.2206-.1483.4105-.3068.5467-.1591.1384-.3645.2207-.5843.2248l-2.714.051-.0014.0015c-.2373.0044-.4552-.0827-.6224-.2268-.1628-.1427-.2765-.3423-.309-.5682l-.292-1.433c-.1706-.053-.337-.1118-.4984-.1759-.1614-.0626-.3236-.1332-.4867-.2103l-1.2336.8819c-.1812.13-.3957.1849-.6036.169-.21-.0151-.4148-.1024-.5727-.2546l-1.9548-1.8833-.0014.0015c-.1705-.1644-.2633-.3797-.279-.6008h-.0014c-.0149-.216.0466-.4385.1853-.6209l.8051-1.2193c-.083-.1587-.1587-.3175-.2272-.4765-.0699-.1589-.1341-.3238-.1947-.4924l-1.4967-.2487c-.2206-.0368-.4106-.1498-.5467-.3068-.1384-.1591-.2215-.3652-.2255-.5851l-.051-2.714-.0007-.0007c-.0044-.2373.082-.4559.2268-.6224.1419-.1636.3416-.2771.5682-.309l1.4322-.2927c.0537-.1699.1126-.3363.1759-.4984.0641-.1614.1332-.3236.2111-.4859l-.8819-1.2336c-.1308-.1819-.1849-.3957-.1698-.6043.0151-.21.1024-.4148.2554-.572l1.8825-1.9555-.0007-.0007c.1651-.1712.3804-.2655.6008-.2804l.0007.0007c.2168-.0141.4378.0459.6202.1846l1.2185.8043c.1594-.0823.3183-.158.4765-.2272.1604-.0699.3245-.1348.4924-.1947h0ZM271.0532,176.3039c.9463-.9815,2.2013-1.4865,3.4644-1.5103,1.2638-.0231,2.5358.4365,3.5173,1.3828s1.4872,2.2006,1.5096,3.4637c.0231,1.2638-.4358,2.5365-1.3821,3.518s-2.2013,1.4865-3.4645,1.5089c-1.2631.0238-2.5357-.4351-3.5172-1.3814s-1.4865-2.2013-1.5096-3.4652c-.023-1.2624.4358-2.535,1.3821-3.5165h0ZM274.5323,175.5544c-1.0695.0188-2.1315.4467-2.932,1.277s-1.1887,1.9064-1.1684,2.9759c.0195,1.0687.4467,2.13,1.277,2.9305s1.9065,1.1886,2.9752,1.1692c1.0687-.0195,2.13-.4467,2.9305-1.277s1.1894-1.9072,1.1699-2.9759c-.0195-1.0687-.4467-2.13-1.277-2.9305s-1.9064-1.1887-2.9752-1.1692h0Z"/>
    <path d="M275.181,194.5363l.3966,1.3765,1.1646-.113.1251.1922c.0705.108.1444.2107.2205.3069.0783.0984.1608.1923.2477.2817l.1618.1674-.3701,1.1079,1.2536.6923.7416-.9013.2259.0476c.133.0281.2572.0492.3718.0624l.0014-.0015c.124.0137.2495.0217.3747.0237l.2302.0031.5231,1.0464,1.3765-.3965-.113-1.1632.1922-.1251c.108-.0704.2107-.1444.307-.2204.0984-.0782.1922-.1608.2824-.2484l.1668-.1611,1.1071.3694.6923-1.2536-.9006-.741.0483-.2266c.0262-.1235.0465-.2485.0595-.3718.0145-.1248.0231-.251.0244-.377l.0038-.2295,1.0465-.5231-.3966-1.3765-1.1638.1138-.1252-.1922c-.0704-.1094-.1437-.2115-.2212-.3076-.0775-.0976-.1593-.1923-.2469-.2824l-.1618-.166.3701-1.1079-1.2536-.6923-.7417.9013-.2266-.0483c-.1243-.0269-.2485-.0464-.3718-.0609-.1248-.0131-.2509-.0217-.3762-.0237l-.2302-.0031-.5224-1.0472-1.3772.3973.1138,1.1639-.1929.1244c-.108.0704-.21.1437-.3055.2204-.0983.0783-.1937.1608-.2831.2477l-.1675.1618-1.1071-.3694-.693,1.2529.902.7424-.0483.2267c-.0261.1236-.0464.2485-.0602.371h-.0014c-.0132.1176-.0211.2429-.0223.3762l-.0045.2302-1.0465.523ZM274.8665,196.177l-.4284-1.4873-.0015-.0014c-.049-.1703-.0289-.3439.0434-.4917l.0007-.0007c.0674-.1396.1832-.2568.3327-.3243l.6697-.3341c.0053-.0708.0113-.1422.0194-.2159l-.0007-.0007c.0081-.0722.0178-.1431.0288-.2139l-.5959-.4902c-.1287-.1054-.2092-.2489-.2389-.402-.0291-.1553-.0051-.3196.0745-.4645l.7486-1.3566c.0853-.1537.2232-.2626.3795-.3164.1483-.0515.3129-.0516.4669.0053l.7086.2369c.0545-.0476.1097-.093.1657-.1378.0574-.0462.1149-.0895.1724-.1313l-.0745-.7669c-.0169-.1679.0282-.3275.1155-.4566.088-.1298.2208-.2291.3803-.2742l.0007.0007,1.4866-.4291c.171-.0483.3454-.0289.4931.042.1403.0681.2575.1839.3258.3341l.3334.669c.0729.0045.1451.0112.2174.0193.0708.0082.1423.0171.2125.0289l.4916-.5959c.1054-.1287.2489-.2092.4013-.2382.1553-.0305.321-.0066.4645.0731l1.3559.7494c.1552.0853.2641.2231.3179.3794.0501.1484.0516.3129-.006.4662l-.2361.7092c.0468.0538.0923.109.137.165.0455.0567.0895.1149.132.1731l.7662-.0752c.1672-.0162.3275.0282.4565.1155.1298.0879.2291.2223.2749.3809h-.0014s.4291,1.4866.4291,1.4866l.0015.0014c.0483.171.0296.3447-.0427.4924l-.0014.0015c-.0681.1389-.1839.2561-.3327.3243l-.669.3334c-.0045.0729-.0112.1451-.0193.2174-.0089.0715-.0186.1423-.0296.2132l.5959.4902c.1324.109.2137.2576.2414.4158.0261.1539-.0007.3183-.0826.461h0l-.7438,1.3456c-.0804.1457-.2073.2507-.3527.3079-.1461.0566-.3127.0633-.4688.0115h0l-.7327-.2444c-.0538.0469-.1083.093-.1643.1377-.0582.0455-.1149.0895-.1738.1313l.0745.767c.0176.1672-.0276.3268-.1148.4558-.088.1298-.2216.2298-.3802.2757v-.0015s-1.488.4292-1.488.4292c-.171.0497-.3461.0296-.4938-.0427-.1396-.0688-.2561-.184-.3244-.3327l-.3341-.6697c-.0722-.0038-.1444-.0105-.2166-.0186v-.0015c-.073-.0089-.1438-.0185-.2132-.0282l-.4902.5959c-.1061.1294-.2496.2099-.4028.2382-.1553.0305-.3196.0065-.4645-.0731l-1.3559-.7494c-.1545-.0846-.2634-.2224-.3172-.3787-.0508-.1491-.0516-.3144.006-.4677l.2369-.7086c-.0476-.0545-.0937-.109-.1377-.1642-.0462-.0574-.0902-.1156-.1321-.1731l-.7684.0745v-.0015c-.168.0169-.3268-.0275-.4544-.1148-.1298-.0879-.2291-.2208-.2749-.3795l.0007-.0007ZM282.7695,195.2913c-.3976.7195-1.0499,1.2092-1.7838,1.4199l-.0014.0015c-.7324.2107-1.5457.1418-2.2659-.2565-.7195-.3976-1.2099-1.0506-1.4206-1.7845-.2115-.7332-.1426-1.5464.2557-2.2667.3984-.7188,1.0507-1.2084,1.7838-1.4199l.0014-.0015c.7324-.2107,1.5457-.1418,2.2659.2565.7195.3976,1.2099,1.0507,1.4199,1.7838l.0015.0014c.2107.7324.1419,1.5457-.2565,2.2659h0ZM280.7765,195.9846c.5455-.1578,1.0311-.5235,1.3294-1.0613.2968-.5363.3483-1.1432.1913-1.6894h0c-.1571-.5463-.5228-1.0319-1.0599-1.3294-.5378-.2968-1.1439-.3476-1.6909-.1912l.0007-.0007c-.5462.1571-1.0319.5228-1.3293,1.0613-.2968.5363-.3484,1.1432-.1913,1.6894.1571.5448.5228,1.0319,1.0599,1.3294.537.2961,1.1439.3476,1.6901.1905v.0015Z"/>
  </g>
</svg>