<?xml version="1.0" encoding="UTF-8"?>
<svg id="Layer_1" data-name="Layer 1" xmlns="http://www.w3.org/2000/svg" viewBox="0 0 1694.0651 2882.6422">
  <defs>
    <style>
      .cls-1 {
        stroke: #000;
        stroke-width: 4.7873px;
      }

      .cls-1, .cls-2, .cls-3, .cls-4, .cls-5, .cls-6, .cls-7, .cls-8, .cls-9, .cls-10, .cls-11, .cls-12, .cls-13, .cls-14, .cls-15, .cls-16, .cls-17 {
        stroke-miterlimit: 10;
      }

      .cls-1, .cls-2, .cls-4, .cls-5, .cls-7, .cls-18, .cls-9, .cls-10, .cls-11, .cls-12, .cls-13, .cls-14, .cls-15, .cls-16 {
        fill: none;
        stroke-linecap: round;
      }

      .cls-2 {
        stroke-width: 12.4817px;
      }

      .cls-2, .cls-3, .cls-7, .cls-8, .cls-9, .cls-10, .cls-12, .cls-14, .cls-15, .cls-16, .cls-17 {
        stroke: #272730;
      }

      .cls-19 {
        fill: #e5a628;
      }

      .cls-19, .cls-20, .cls-21, .cls-22, .cls-23, .cls-24, .cls-25, .cls-26, .cls-27, .cls-28, .cls-29, .cls-30, .cls-31 {
        stroke-width: 0px;
      }

      .cls-20 {
        fill: #98e2a9;
      }

      .cls-3 {
        stroke-width: 1.7131px;
      }

      .cls-3, .cls-28, .cls-17 {
        fill: #272730;
      }

      .cls-4 {
        stroke-width: 7.9975px;
      }

      .cls-4, .cls-5 {
        stroke: #3cce77;
      }

      .cls-21 {
        fill: #ccffd8;
      }

      .cls-5 {
        stroke-width: 3.1915px;
      }

      .cls-6 {
        stroke-width: 2px;
      }

      .cls-6, .cls-18, .cls-13 {
        stroke: #011e2b;
      }

      .cls-6, .cls-29 {
        fill: #011e2b;
      }

      .cls-22 {
        fill: #1aa096;
      }

      .cls-23 {
        fill: #000;
      }

      .cls-7 {
        stroke-width: 10.9465px;
      }

      .cls-8 {
        stroke-width: 19.9265px;
      }

      .cls-8, .cls-30 {
        fill: #fff;
      }

      .cls-18 {
        stroke-linejoin: round;
      }

      .cls-18, .cls-13 {
        stroke-width: 8px;
      }

      .cls-9 {
        stroke-width: 6.7663px;
      }

      .cls-24 {
        fill: #b0b0ea;
      }

      .cls-10 {
        stroke-width: 7.11px;
      }

      .cls-25 {
        fill: #c4495b;
      }

      .cls-11 {
        stroke: #e52020;
        stroke-width: 3.0428px;
      }

      .cls-26 {
        fill: #a643ed;
      }

      .cls-27 {
        fill: #19a364;
      }

      .cls-12 {
        stroke-width: 7.1324px;
      }

      .cls-31 {
        fill: #f0ff83;
      }

      .cls-14 {
        stroke-width: 10.512px;
      }

      .cls-15 {
        stroke-width: 9px;
      }

      .cls-16 {
        stroke-width: 9.8606px;
      }

      .cls-17 {
        stroke-width: 8.9155px;
      }
    </style>
  </defs>
  <rect class="cls-21" x="55.8999" width="1638.1651" height="2882.6422" rx="105.9358" ry="105.9358"/>
  <path class="cls-24" d="M1532.1101,2156.2467c59.5311-38.9991,83.5371-55.1232,50.6002-107.0358-80.996-127.6596-278.0669-508.4594-265.5819-939.904,16.0881-555.9554-1017.9764-447.8042-1229.2531,353.4678-211.2767,801.272,1144.5064,772.5084,1144.5064,772.5084,0,0,191.3341-8.0269,299.7283-79.0364Z"/>
  <path class="cls-30" d="M1567.1578,2160.3569c59.5311-38.9991,83.5371-55.1232,50.6002-107.0358-80.996-127.6596-278.0669-508.4594-265.5819-939.904,16.0881-555.9554-1017.9764-447.8042-1229.2531,353.4678-211.2767,801.272,1144.5064,772.5084,1144.5064,772.5084,0,0,191.3341-8.0269,299.7283-79.0364Z"/>
  <g>
    <g>
      <path class="cls-24" d="M1240.8064,1976.185c-5.4873,0-11.0073-.5898-16.4072-1.7549l-268.5273-57.9268c-42.146-9.0928-69.0376-50.7773-59.9453-92.9219l166.3955-771.3516c7.7124-35.752,39.8921-61.7007,76.5151-61.7007,5.4873,0,11.0078.5903,16.4072,1.7554l268.5273,57.9268c20.3301,4.3857,37.7803,16.4951,49.1362,34.0981s15.1953,38.4937,10.8091,58.8237l-166.396,771.3506c-7.7119,35.752-39.8911,61.7012-76.5146,61.7012Z"/>
      <path class="cls-29" d="M1138.8382,988.9333v3.1914h.0007c5.3732,0,10.7794.5786,16.0688,1.7196l268.5275,57.9266c19.9133,4.2958,37.0068,16.1588,48.1318,33.4037,11.1249,17.2449,14.886,37.7089,10.5902,57.6223l-166.3959,771.3508c-7.5551,35.0223-39.0782,60.4418-74.9552,60.4418-5.3745,0-10.7812-.5786-16.0707-1.7196l-268.5274-57.9266c-19.9133-4.2958-37.007-16.1588-48.1319-33.4037s-14.8859-37.7089-10.5901-57.6223l166.3958-771.3508c7.5548-35.021,39.078-60.4404,74.9553-60.4418l.001-3.1914M1138.837,988.9333c-36.7404.0012-70.0315,25.6744-78.0748,62.9602l-166.3958,771.3508c-9.2537,42.8966,18.2723,85.5649,61.1688,94.8186l268.5275,57.9268c5.6107,1.2103,11.2148,1.7913,16.7437,1.7913,36.7404,0,70.0315-25.6744,78.0748-62.9602l166.3959-771.3508c9.2537-42.8966-18.2723-85.5649-61.1689-94.8186l-268.5275-57.9268c-5.6107-1.2103-11.2148-1.7915-16.7437-1.7913h0Z"/>
    </g>
    <g>
      <path class="cls-30" d="M1132.031,1209.2041c-2.8833,0-5.7842-.3105-8.6221-.9229-10.6836-2.3042-19.8545-8.6689-25.8232-17.9204-5.9683-9.252-7.9858-20.231-5.6812-30.915,4.0532-18.7896,20.9658-32.4272,40.2144-32.4272,2.8833,0,5.7842.3101,8.6216.9224,10.6836,2.3047,19.8545,8.6689,25.8232,17.9209,5.9683,9.252,7.9858,20.231,5.6812,30.915-4.0532,18.7896-20.9653,32.4272-40.2139,32.4272Z"/>
      <path class="cls-23" d="M1132.118,1128.6141c2.7705,0,5.5582.2983,8.2858.8867,10.2671,2.2148,19.0813,8.3326,24.8187,17.2263,5.7375,8.8938,7.6775,19.446,5.4626,29.7133-3.896,18.0599-20.1522,31.168-38.6539,31.168-2.7706,0-5.5582-.2982-8.2856-.8866-10.2671-2.2148-19.0813-8.3326-24.8187-17.2263-5.7375-8.8938-7.6775-19.446-5.4626-29.7133,3.8959-18.0599,20.1522-31.1681,38.6538-31.1681M1132.118,1125.4226c-19.6577,0-37.47,13.7371-41.7736,33.6866-4.9512,22.9517,9.7765,45.7811,32.7281,50.7323h.0001c3.0021.6476,6.0004.9584,8.9585.9584,19.6577,0,37.4701-13.7371,41.7737-33.6865h0c4.9512-22.9517-9.7765-45.7811-32.7281-50.7323h-.0001c-3.0021-.6476-6.0005-.9585-8.9586-.9585h0Z"/>
    </g>
    <path class="cls-4" d="M1114.8255,1168.6813s4.2648,17.8084,14.1243,25.3396c9.8595,7.5312,53.8571-58.6378,53.8571-58.6378"/>
    <g>
      <path class="cls-30" d="M1100.092,1357.2631c-2.8833,0-5.7842-.3105-8.6221-.9229-22.1499-4.7778-36.2827-26.6855-31.5049-48.8359,4.0532-18.7896,20.9653-32.4272,40.2139-32.4272,2.8833,0,5.7842.3105,8.6221.9229,10.6836,2.3047,19.8545,8.6689,25.8232,17.9209,5.9683,9.2515,7.9858,20.2305,5.6812,30.9146-4.0527,18.79-20.9648,32.4277-40.2134,32.4277Z"/>
      <path class="cls-23" d="M1100.1788,1276.6728c2.7705,0,5.5582.2983,8.2858.8867,21.2898,4.5927,34.8739,25.6497,30.2814,46.9396-3.8959,18.0599-20.1522,31.1681-38.6539,31.1681-2.7705,0-5.5582-.2983-8.2856-.8867-10.2671-2.2148-19.0813-8.3326-24.8187-17.2263-5.7375-8.8938-7.6775-19.446-5.4626-29.7133,3.8959-18.0599,20.1521-31.1681,38.6538-31.1681M1100.1788,1273.4813c-19.6577,0-37.4701,13.7371-41.7736,33.6866h0c-4.9512,22.9517,9.7765,45.7811,32.7281,50.7323,3.0021.6476,6.0006.9585,8.9586.9585,19.6578,0,37.4701-13.7371,41.7737-33.6866h0c4.951-22.9517-9.7766-45.7811-32.7281-50.7323h-.0001c-3.0021-.6476-6.0005-.9585-8.9586-.9585h0Z"/>
    </g>
    <path class="cls-4" d="M1082.8863,1316.74s4.2648,17.8084,14.1243,25.3396c9.8595,7.5312,53.8571-58.6378,53.8571-58.6378"/>
    <g>
      <path class="cls-30" d="M1068.1516,1505.3217c-2.8833,0-5.7837-.3105-8.6211-.9219-10.6836-2.3047-19.8545-8.6699-25.8232-17.9219-5.9683-9.252-7.9858-20.2305-5.6812-30.9141,4.0532-18.7905,20.9653-32.4282,40.2134-32.4282,2.8833,0,5.7842.3105,8.6221.9229,10.6841,2.3047,19.855,8.6689,25.8237,17.9204,5.9683,9.252,7.9858,20.2314,5.6812,30.915-4.0532,18.79-20.9663,32.4277-40.2148,32.4277Z"/>
      <path class="cls-23" d="M1068.2396,1424.7315c2.7705,0,5.5582.2983,8.2858.8867,21.2898,4.5927,34.8739,25.6497,30.2812,46.9396-3.8959,18.0599-20.1521,31.1681-38.6538,31.1681-2.7705,0-5.5582-.2983-8.2858-.8867-21.2898-4.5927-34.8739-25.6497-30.2812-46.9396,3.8959-18.0599,20.1521-31.1681,38.6538-31.1681M1068.2396,1421.54c-19.6578,0-37.4701,13.7371-41.7736,33.6866h-.0001c-4.951,22.9517,9.7766,45.7811,32.7281,50.7323h.0001c3.0021.6476,6.0006.9585,8.9586.9585,19.6578,0,37.4701-13.7371,41.7736-33.6866h.0001c4.951-22.9517-9.7766-45.7811-32.7281-50.7323h-.0001c-3.0021-.6476-6.0005-.9585-8.9586-.9585h0Z"/>
    </g>
    <path class="cls-4" d="M1050.9471,1464.7987s4.2648,17.8084,14.1243,25.3396c9.8595,7.5312,53.8571-58.6378,53.8571-58.6378"/>
    <g>
      <path class="cls-30" d="M1036.2136,1653.3803c-2.8838,0-5.7842-.3096-8.6221-.9219-10.6836-2.3047-19.8545-8.6699-25.8232-17.9219s-7.9863-20.2305-5.6816-30.9141c4.0532-18.79,20.9653-32.4277,40.2139-32.4277,2.8833,0,5.7842.3096,8.6221.9219,10.6836,2.3047,19.8545,8.6699,25.8232,17.9219,5.9683,9.252,7.9858,20.2305,5.6812,30.9141-4.0532,18.79-20.9658,32.4277-40.2134,32.4277Z"/>
      <path class="cls-23" d="M1036.3016,1569.5988v3.1915s.0006,0,.0006,0c2.7694,0,5.5565.2982,8.2838.8866,10.2671,2.2148,19.0813,8.3326,24.8187,17.2263,5.7375,8.8938,7.6775,19.446,5.4626,29.7133-3.8959,18.0599-20.1521,31.1681-38.6538,31.1681-2.7705,0-5.5582-.2983-8.2858-.8867-10.2671-2.2148-19.0812-8.3325-24.8187-17.2263-5.7375-8.8937-7.6775-19.446-5.4626-29.7133,3.8958-18.0592,20.1522-31.1674,38.6541-31.168l.001-3.1915M1036.3005,1569.5988c-19.6578.0007-37.4702,13.7371-41.7737,33.6865h0c-4.9512,22.9517,9.7765,45.7812,32.7281,50.7323h.0001c3.0021.6476,6.0005.9585,8.9586.9585,19.6577,0,37.4701-13.7371,41.7736-33.6866,4.9512-22.9517-9.7765-45.7811-32.7281-50.7323-3.0021-.6476-6.0004-.9585-8.9585-.9584h0Z"/>
    </g>
    <path class="cls-4" d="M1019.0078,1612.8575s4.2648,17.8084,14.1243,25.3396c9.8595,7.5312,53.8571-58.6378,53.8571-58.6378"/>
    <g>
      <path class="cls-30" d="M1007.7395,1785.3745c-2.8833,0-5.7842-.3096-8.6221-.9219-10.6836-2.3047-19.8545-8.6699-25.8232-17.9219-5.9683-9.252-7.9858-20.2305-5.6812-30.9141,4.0532-18.79,20.9653-32.4277,40.2139-32.4277,2.8833,0,5.7842.3096,8.6221.9219,10.6836,2.3047,19.8545,8.6699,25.8232,17.9219,5.9683,9.252,7.9858,20.2305,5.6812,30.9141-4.0532,18.79-20.9653,32.4277-40.2139,32.4277Z"/>
      <path class="cls-23" d="M1007.8277,1701.593v3.1915s.0007,0,.0007,0c2.7695,0,5.5566.2983,8.2839.8867,10.2671,2.2148,19.0813,8.3325,24.8187,17.2262,5.7375,8.8938,7.6775,19.4462,5.4626,29.7134-3.896,18.0599-20.1523,31.168-38.654,31.168-2.7707,0-5.5583-.2983-8.2856-.8867-10.2671-2.2148-19.0812-8.3325-24.8187-17.2262-5.7374-8.8938-7.6775-19.4462-5.4626-29.7134,3.8958-18.0592,20.1522-31.1674,38.6541-31.168l.001-3.1915M1007.8266,1701.593c-19.6577.0007-37.4702,13.7371-41.7737,33.6865h0c-4.9511,22.9518,9.7766,45.7812,32.7281,50.7323h0c3.002.6477,6.0004.9585,8.9585.9585,19.6578,0,37.4702-13.7371,41.7737-33.6865h0c4.9512-22.9518-9.7765-45.7812-32.7281-50.7323h-.0001c-3.0021-.6477-6.0004-.9586-8.9585-.9585h0Z"/>
    </g>
    <path class="cls-4" d="M990.534,1744.8516s4.2648,17.8084,14.1243,25.3396c9.8595,7.5312,53.8571-58.6378,53.8571-58.6378"/>
    <line class="cls-1" x1="1260.8644" y1="1167.359" x2="1393.5803" y2="1195.9885"/>
    <line class="cls-1" x1="1256.7153" y1="1186.5927" x2="1330.0129" y2="1202.4045"/>
    <line class="cls-1" x1="1293.2352" y1="1214.5995" x2="1385.2822" y2="1234.4559"/>
    <line class="cls-1" x1="1228.9251" y1="1315.4177" x2="1361.6411" y2="1344.0472"/>
    <line class="cls-1" x1="1224.776" y1="1334.6514" x2="1298.0737" y2="1350.4632"/>
    <line class="cls-1" x1="1261.296" y1="1362.6582" x2="1353.3429" y2="1382.5146"/>
    <line class="cls-1" x1="1196.9859" y1="1463.4765" x2="1329.7019" y2="1492.106"/>
    <line class="cls-1" x1="1192.8368" y1="1482.7101" x2="1266.1344" y2="1498.5219"/>
    <line class="cls-1" x1="1229.3568" y1="1510.717" x2="1321.4037" y2="1530.5733"/>
    <line class="cls-1" x1="1165.0467" y1="1611.5352" x2="1297.7626" y2="1640.1647"/>
    <line class="cls-1" x1="1160.8976" y1="1630.7689" x2="1234.1952" y2="1646.5806"/>
    <line class="cls-1" x1="1197.4175" y1="1658.7757" x2="1289.4645" y2="1678.6321"/>
    <line class="cls-1" x1="1136.5729" y1="1743.5294" x2="1269.2888" y2="1772.1589"/>
    <line class="cls-1" x1="1132.4238" y1="1762.763" x2="1205.7214" y2="1778.5748"/>
    <line class="cls-1" x1="1168.9438" y1="1790.7699" x2="1260.9907" y2="1810.6262"/>
  </g>
  <g>
    <path class="cls-8" d="M981.3154,1822.01l-158.4624-805.1202c-6.4925-32.9875-28.1817-42.8351-52.6161-38.026l-359.4543,70.7472c-24.4344,4.8091-42.7287,22.5263-36.2362,55.5137l158.3862,804.733c.3687,1.8733,2.0414,2.8487,3.1631,1.8445l38.634-34.5871c6.154-5.5094,14.0861-7.0792,21.8708-4.3284l40.2294,14.2154c7.5891,2.6817,15.3273,1.2597,21.4224-3.9367l35.6076-30.3571c7.4615-6.3612,17.2841-6.9944,26.185-1.6879l16.87,10.0575c9.8974,5.9006,20.8428,4.416,28.429-3.856l18.0719-19.7055c7.7412-8.4409,18.9639-9.8012,28.9889-3.5136l13.7766,8.6405c10.1188,6.3464,21.4484,4.897,29.1888-3.7341l22.5687-25.1658c5.6657-6.3177,13.3673-8.8894,21.234-7.0905l80.1035,18.3177c1.3525.3093,2.3872-1.193,2.0392-2.9607Z"/>
    <g>
      <g>
        <line class="cls-7" x1="529.3732" y1="1601.4346" x2="780.796" y2="1551.9496"/>
        <line class="cls-7" x1="539.8994" y1="1654.9161" x2="678.7575" y2="1627.5861"/>
        <line class="cls-7" x1="627.4708" y1="1693.2337" x2="801.8484" y2="1658.9127"/>
        <line class="cls-7" x1="509.8905" y1="1502.4464" x2="648.7486" y2="1475.1164"/>
        <line class="cls-7" x1="597.4619" y1="1540.764" x2="771.8395" y2="1506.443"/>
      </g>
      <rect class="cls-28" x="839.2413" y="1425.204" width="27.6218" height="19.4038" rx="5.4661" ry="5.4661" transform="translate(-261.0421 191.7458) rotate(-11.1345)"/>
      <rect class="cls-28" x="849.7674" y="1478.6855" width="27.6218" height="19.4038" rx="5.4661" ry="5.4661" transform="translate(-271.1719 194.7853) rotate(-11.1345)"/>
      <rect class="cls-28" x="860.2936" y="1532.1669" width="27.6218" height="19.4038" rx="5.4661" ry="5.4661" transform="translate(-281.3018 197.8247) rotate(-11.1345)"/>
      <rect class="cls-28" x="870.8197" y="1585.6484" width="27.6218" height="19.4038" rx="5.4661" ry="5.4661" transform="translate(-291.4316 200.8642) rotate(-11.1345)"/>
      <rect class="cls-28" x="881.3458" y="1639.1299" width="27.6218" height="19.4038" rx="5.4661" ry="5.4661" transform="translate(-301.5615 203.9036) rotate(-11.1345)"/>
      <g>
        <g>
          <line class="cls-7" x1="476.7426" y1="1334.0273" x2="728.1653" y2="1284.5423"/>
          <line class="cls-7" x1="487.2688" y1="1387.5088" x2="626.1269" y2="1360.1788"/>
          <line class="cls-7" x1="574.8402" y1="1425.8264" x2="749.2177" y2="1391.5054"/>
          <line class="cls-7" x1="457.2599" y1="1235.0391" x2="596.118" y2="1207.7091"/>
          <line class="cls-7" x1="544.8313" y1="1273.3567" x2="719.2088" y2="1239.0357"/>
        </g>
        <rect class="cls-28" x="786.6107" y="1157.7967" width="27.6218" height="19.4038" rx="5.4661" ry="5.4661" transform="translate(-210.3928 176.5486) rotate(-11.1345)"/>
        <rect class="cls-28" x="797.1368" y="1211.2782" width="27.6218" height="19.4038" rx="5.4661" ry="5.4661" transform="translate(-220.5227 179.588) rotate(-11.1345)"/>
        <rect class="cls-28" x="807.6629" y="1264.7596" width="27.6218" height="19.4038" rx="5.4661" ry="5.4661" transform="translate(-230.6525 182.6275) rotate(-11.1345)"/>
        <rect class="cls-28" x="818.1891" y="1318.2411" width="27.6218" height="19.4038" rx="5.4661" ry="5.4661" transform="translate(-240.7824 185.6669) rotate(-11.1345)"/>
        <rect class="cls-28" x="828.7152" y="1371.7226" width="27.6218" height="19.4038" rx="5.4661" ry="5.4661" transform="translate(-250.9122 188.7064) rotate(-11.1345)"/>
      </g>
    </g>
  </g>
  <g>
    <g>
      <rect class="cls-20" x="806.1301" y="1085.1699" width="431.0884" height="945.479" rx="78.1919" ry="78.1919"/>
      <path class="cls-29" d="M1159.0266,1086.7657c20.3715,0,39.5822,7.9918,54.0935,22.5031,14.5111,14.5112,22.5028,33.7219,22.5028,54.0934v789.0942c0,20.3715-7.9917,39.5822-22.5028,54.0934-14.5114,14.5112-33.722,22.5029-54.0935,22.5029h-274.7043c-20.3715,0-39.5823-7.9917-54.0935-22.5029-14.5111-14.5112-22.5029-33.7219-22.5029-54.0934v-789.0942c0-20.3715,7.9918-39.5822,22.5029-54.0934,14.5112-14.5112,33.722-22.5031,54.0935-22.5031h274.7043M1159.0266,1083.5743h-274.7043c-43.8834,0-79.7879,35.9045-79.7879,79.7878v789.0942c0,43.8834,35.9045,79.7877,79.7879,79.7877h274.7043c43.8833,0,79.7878-35.9043,79.7878-79.7877v-789.0942c0-43.8833-35.9045-79.7878-79.7878-79.7878h0Z"/>
    </g>
    <line class="cls-1" x1="1020.5677" y1="1223.324" x2="1156.3365" y2="1223.324"/>
    <line class="cls-1" x1="1020.5677" y1="1243.0001" x2="1095.5514" y2="1243.0001"/>
    <line class="cls-1" x1="1062.1722" y1="1262.6762" x2="1156.3365" y2="1262.6762"/>
    <line class="cls-1" x1="862.8021" y1="1442.8533" x2="998.571" y2="1442.8533"/>
    <line class="cls-1" x1="862.8021" y1="1462.5294" x2="937.7858" y2="1462.5294"/>
    <line class="cls-1" x1="904.4067" y1="1482.2055" x2="998.571" y2="1482.2055"/>
    <line class="cls-1" x1="952.6833" y1="1883.2679" x2="1088.4521" y2="1883.2679"/>
    <line class="cls-1" x1="952.6833" y1="1902.944" x2="1027.6669" y2="1902.944"/>
    <line class="cls-1" x1="994.2878" y1="1922.6201" x2="1088.4521" y2="1922.6201"/>
    <g>
      <path class="cls-25" d="M876.366,1284.9675c-2.5005-.0005-4.7266-1.3623-5.8101-3.5547-12.2085-24.6997-6.0352-54.3618,15.0122-72.1328,10.7422-9.0693,24.4092-14.064,38.4829-14.064,12.748,0,24.9014,3.9272,35.1455,11.3579,1.5923,1.1543,2.5474,2.96,2.6206,4.9531.0762,2.0591-.7808,4-2.3506,5.3257l-12.1328,10.2437c-1.2104,1.0215-2.7334,1.5845-4.2896,1.5845-1.0908,0-2.1553-.2847-3.0781-.8223-4.814-2.8057-10.3208-4.2886-15.9268-4.2886-7.396,0-14.5659,2.6147-20.1895,7.3628-10.1108,8.5361-13.7627,22.6377-9.0864,35.0898.9307,2.4785.1323,5.3462-1.9868,7.1357l-12.1328,10.2437c-1.1958,1.0093-2.7148,1.5654-4.2773,1.5654h-.0005Z"/>
      <path class="cls-23" d="M924.0511,1196.8116c12.41.0005,24.2393,3.8229,34.209,11.0538,1.192.8646,1.9075,2.2206,1.9626,3.7203.0577,1.5654-.5931,3.0406-1.7855,4.0475l-12.1327,10.2435c-.9229.7791-2.0809,1.2081-3.2609,1.2081-.8085,0-1.5948-.2092-2.274-.605-5.0573-2.9475-10.8418-4.5055-16.7303-4.5055-7.7729.0005-15.3087,2.749-21.2192,7.7391-10.6252,8.9708-14.4633,23.7878-9.5504,36.8702.6941,1.8483.0823,4.0005-1.5226,5.3553l-12.1327,10.2435c-1.1638.9827-2.4088,1.189-3.2482,1.189-1.8888,0-3.5671-1.0215-4.3799-2.6659-5.6555-11.4421-7.3759-24.686-4.8442-37.2917,2.6086-12.989,9.3363-24.3707,19.4557-32.9146,10.4553-8.8273,23.7566-13.6885,37.4534-13.6879M924.0512,1193.62c-13.9761-.0006-28.0201,4.738-39.5123,14.4408-21.9757,18.5541-27.6221,49.359-15.4137,74.0591,1.4247,2.8823,4.3026,4.4432,7.241,4.4432,1.8629,0,3.7496-.627,5.3071-1.9419l12.1327-10.2435c2.5818-2.1798,3.6393-5.7529,2.4514-8.916-4.3116-11.4813-1.251-24.9742,8.6216-33.3096h.0001c5.5616-4.6958,12.3766-6.9858,19.1603-6.9862,5.2581-.0004,10.4965,1.3748,15.1232,4.0713,1.2052.7024,2.5435,1.0392,3.8811,1.0392,1.9025,0,3.8038-.6813,5.3197-1.9611l12.1327-10.2435c4.0142-3.3892,3.8906-9.7053-.3622-12.7899-10.6399-7.7172-23.3331-11.6614-36.0826-11.6619h0Z"/>
    </g>
    <g>
      <g>
        <path class="cls-27" d="M969.9007,1288.5051c-1.959,0-3.7368-.8281-5.0063-2.3315l-10.7075-12.6816c-1.5493-1.8359-1.9258-4.4424-.9814-6.8018,2.9233-7.3037,3.0342-15.3716.312-22.7168-.9458-2.5527-.166-5.4634,1.9409-7.2422l12.1362-10.2471c1.1953-1.0088,2.7134-1.5645,4.2744-1.5645,2.5054,0,4.7363,1.3672,5.8232,3.5674,8.9326,18.0884,8.165,39.2939-2.0532,56.7256-1.2085,2.0615-3.3535,3.2925-5.7378,3.2925h-.0005Z"/>
        <path class="cls-23" d="M971.8692,1226.5156c1.8934,0,3.5764,1.0261,4.3922,2.6781,8.6942,17.6052,7.9468,38.2454-1.9993,55.2123-.9188,1.5674-2.5493,2.5032-4.3613,2.5032-1.4811,0-2.826-.6268-3.7871-1.765l-10.7073-12.6821c-1.1686-1.384-1.4443-3.3684-.7196-5.179,3.0707-7.672,3.1868-16.1471.327-23.864-.7133-1.9244-.1208-4.1222,1.474-5.4688l12.1365-10.2467c1.1631-.9819,2.4065-1.188,3.2449-1.188M971.8692,1223.324c-1.8613,0-3.7466.6263-5.3037,1.9409l-12.1365,10.2467c-2.6121,2.2053-3.5957,5.8109-2.4078,9.0164,2.5914,6.9927,2.4446,14.7185-.2974,21.5691-1.1403,2.8486-.7355,6.0793,1.244,8.4238l10.7073,12.682c1.6487,1.9528,3.9423,2.8977,6.2257,2.8977,2.7783,0,5.542-1.3981,7.1146-4.0807,10.3551-17.6647,11.2759-39.6742,2.1075-58.2395-1.4269-2.8895-4.3102-4.4564-7.2538-4.4564h0Z"/>
      </g>
      <g>
        <path class="cls-31" d="M924.1902,1314.6681c-12.748,0-24.9014-3.9272-35.146-11.3579-1.5918-1.1543-2.5474-2.9595-2.6206-4.9526-.0762-2.0591.7808-4.0005,2.3506-5.3262l12.1328-10.2432c1.2104-1.022,2.7339-1.5845,4.29-1.5845,1.0908,0,2.1548.2842,3.0781.8223,4.8135,2.8052,10.3208,4.2881,15.9263,4.2881,5.0571,0,10.0781-1.2275,14.52-3.5508.9575-.501,2.0303-.7656,3.1016-.7656,1.9395,0,3.7656.8452,5.0098,2.3188l9.9619,11.7993c1.2446,1.4741,1.7808,3.4131,1.4712,5.3208-.3066,1.8926-1.417,3.5483-3.0454,4.542-9.3174,5.6846-20.0474,8.6895-31.0303,8.6895Z"/>
        <path class="cls-23" d="M905.1972,1282.7995c.8085,0,1.5948.2092,2.2742.6051,5.0573,2.9475,10.8424,4.5054,16.7301,4.5054,5.314,0,10.5907-1.2906,15.2596-3.7325.7303-.382,1.547-.5837,2.3618-.5837,1.4686.0001,2.8503.6389,3.7906,1.7527l9.9618,11.7992c.9437,1.1177,1.3503,2.589,1.1154,4.0364-.2357,1.453-1.0532,2.6727-2.3016,3.4344-9.0668,5.5321-19.5094,8.4562-30.199,8.4562-12.4093,0-24.2385-3.8224-34.2091-11.0537-1.192-.8646-1.9075-2.2206-1.9626-3.7202-.0577-1.5656.5931-3.0408,1.7855-4.0476l12.1326-10.2434c.9229-.7791,2.0808-1.2081,3.2607-1.2081M905.1972,1279.608c-1.9025,0-3.8037.6813-5.3196,1.9611l-12.1326,10.2434c-4.0142,3.3892-3.8906,9.7054.3622,12.7899,10.6404,7.7173,23.3329,11.6617,36.0829,11.6617,11.0043,0,22.0511-2.9376,31.8613-8.9233,4.2711-2.606,5.1903-8.4312,1.9625-12.2542l-9.9618-11.7991c-1.5936-1.8876-3.8884-2.8853-6.229-2.8854-1.304-.0001-2.6217.3094-3.8412.9473-4.3192,2.2589-9.0576,3.3691-13.7805,3.3691-5.2577,0-10.4966-1.375-15.123-4.0713-1.2052-.7024-2.5436-1.0393-3.8812-1.0393h0Z"/>
      </g>
    </g>
    <g>
      <path class="cls-22" d="M1115.556,1534.027c-19.6211,0-37.9917-9.5801-49.1411-25.626-15.7188-22.6216-13.9878-52.8696,4.209-73.5586,1.2227-1.3896,2.9263-2.1553,4.7969-2.1553,2.1797,0,4.2217,1.0659,5.4619,2.8511l9.061,13.0396c1.5825,2.2778,1.6099,5.2544.0679,7.4067-7.7451,10.813-7.876,25.3789-.3257,36.2456,5.8462,8.4131,15.5024,13.4355,25.8315,13.4355,2.7939,0,5.5698-.3701,8.252-1.0986.5137-.1396,1.0439-.2109,1.5771-.2109,2.1011,0,4.0977,1.0684,5.3408,2.8574l9.0605,13.0391c1.1729,1.6875,1.4971,3.7852.8896,5.7539-.5879,1.9062-1.9785,3.4023-3.8154,4.1045-6.7974,2.5986-13.9526,3.916-21.2656,3.916h-.0005Z"/>
      <path class="cls-23" d="M1075.4208,1434.2831c1.6573.0001,3.2094.8097,4.1515,2.1655l9.0608,13.0398c1.1984,1.7247,1.2311,3.9619.0814,5.567-8.1378,11.3605-8.2739,26.6659-.3389,38.0854,6.1436,8.8414,16.2899,14.1199,27.1414,14.1199,2.9347,0,5.8521-.3883,8.671-1.1543.3765-.1024.7659-.1543,1.1572-.1543,1.5558,0,3.1007.8324,4.0316,2.1721l9.0609,13.0398c.8905,1.2816,1.1365,2.8751.6748,4.3721-.4424,1.434-1.485,2.5581-2.8605,3.084-6.6149,2.5288-13.578,3.811-20.696,3.811-19.0983,0-36.979-9.3239-47.8309-24.941-7.5573-10.876-11.1029-23.613-10.2534-36.8342.8243-12.8309,5.9208-25.1754,14.3505-34.7593.9153-1.0406,2.1932-1.6136,3.5986-1.6135h0M1075.4211,1431.0916c-2.1996-.0001-4.3973.8804-5.9954,2.6973-18.1968,20.6885-20.7332,51.9038-4.3214,75.5225,11.9021,17.1287,31.0253,26.3114,50.4518,26.3114,7.3606,0,14.7639-1.318,21.8357-4.0215,4.9072-1.8761,6.6647-7.9441,3.6669-12.2583l-9.0608-13.0398c-1.5369-2.2117-4.0463-3.5424-6.6526-3.5424-.6633,0-1.3328.0861-1.9943.2659-2.573.6992-5.2098,1.0427-7.834,1.0427-9.4463,0-18.7505-4.4458-24.5205-12.7496h0c-7.3729-10.6106-6.8292-24.4357.3125-34.4058,1.9675-2.7468,1.873-6.472-.0551-9.2467l-9.0608-13.0398c-1.6171-2.3273-4.1958-3.5356-6.7721-3.5359h0Z"/>
    </g>
    <g>
      <g>
        <path class="cls-19" d="M1133.1297,1447.2355c-1.0977-.0005-2.2095-.2739-3.2158-.791-4.458-2.29-9.4683-3.5005-14.4893-3.5005-2.7397,0-5.4648.3564-8.0981,1.0601-.54.144-1.0967.2173-1.6538.2173-2.1353,0-4.1445-1.0576-5.375-2.8291l-9.0635-13.0435c-1.1719-1.6865-1.4956-3.7827-.8882-5.751.5898-1.9106,1.9854-3.4102,3.8286-4.1143,6.7891-2.5928,13.9351-3.9077,21.2388-3.9077,12.5063,0,24.9521,4.0029,35.0449,11.271,1.7778,1.2803,2.7871,3.2666,2.7686,5.4492-.0181,2.1597-1.0459,4.1055-2.8198,5.3379l-13.6299,9.4707c-1.0645.7397-2.3257,1.1309-3.6475,1.1309h0Z"/>
        <path class="cls-23" d="M1115.4136,1416.1719c12.1748.0002,24.2894,3.8961,34.1121,10.97,1.3522.9736,2.1196,2.4832,2.1056,4.1412-.0138,1.6346-.7917,3.1073-2.1346,4.0404l-13.6301,9.4711c-.7957.5529-1.7421.8451-2.7369.8451-.8447,0-1.7046-.2124-2.4866-.6143-4.6823-2.4058-9.9442-3.6774-15.2185-3.6774-2.8794.0001-5.7426.375-8.5098,1.1141-.4056.1083-.8234.1632-1.2417.1632-1.6125,0-3.1321-.8014-4.0648-2.1436l-9.0636-13.0439c-.89-1.2808-1.1357-2.8733-.674-4.3693.444-1.4386,1.4913-2.5665,2.8735-3.0944,6.6072-2.5232,13.5614-3.8025,20.6694-3.8024M1115.4136,1412.9804c-7.3512-.0001-14.7445,1.3149-21.8081,4.0125-4.9143,1.8767-6.6836,7.9465-3.6818,12.2664l9.0636,13.0438c1.5459,2.2247,4.0637,3.5139,6.6857,3.5139.6865,0,1.3798-.0883,2.0652-.2714,2.5264-.6748,5.1122-1.0059,7.6864-1.006,4.7672-.0002,9.4978,1.1348,13.7598,3.3246,1.2455.6399,2.6007.967,3.9452.967,1.6017,0,3.1884-.464,4.5581-1.4158l13.6301-9.4711c4.6523-3.2328,4.6703-10.0817.073-13.3923-10.5482-7.5963-23.1976-11.5714-35.9772-11.5717h0Z"/>
      </g>
      <g>
        <path class="cls-26" d="M1155.5599,1515.9128c-2.1802-.001-4.2217-1.0664-5.4619-2.8506l-9.0605-13.04c-1.583-2.2773-1.6104-5.2544-.0684-7.4072,6.2642-8.7446,7.6392-20.333,3.5889-30.2427-1.1855-2.9014-.2368-6.1626,2.3076-7.9302l12.6812-8.8115c1.1123-.7729,2.4111-1.1816,3.7568-1.1816,2.5425,0,4.8086,1.4077,5.9146,3.6733,10.5923,21.7085,7.1138,47.4722-8.8613,65.6353-1.2227,1.3896-2.9258,2.1553-4.7964,2.1553h-.0005Z"/>
        <path class="cls-23" d="M1163.3032,1446.0447c1.9279,0,3.6447,1.0642,4.4806,2.7775,5.0413,10.3318,6.8746,21.8557,5.3022,33.3259-1.564,11.408-6.38,21.9736-13.9275,30.5549-.9152,1.0404-2.1932,1.6135-3.5989,1.6135-1.6571,0-3.209-.8096-4.1512-2.1656l-9.0607-13.0394c-1.1985-1.7247-1.2312-3.9619-.0813-5.567,6.5804-9.1869,8.0247-21.3629,3.7689-31.7764-.9009-2.204-.1851-4.6777,1.7406-6.0159l12.6812-8.8116c.8435-.5861,1.8276-.8959,2.8461-.8959M1163.3032,1442.8533c-1.6062,0-3.234.4706-4.6672,1.4664l-12.6812,8.8116c-3.1588,2.1949-4.329,6.2836-2.8738,9.8441,3.8967,9.5349,2.5101,20.4467-3.4092,28.7104-1.9677,2.7467-1.873,6.4719.0551,9.2467l9.0607,13.0394c1.6171,2.3274,4.1958,3.536,6.7721,3.536,2.1996,0,4.3973-.8805,5.9954-2.6974,16.1733-18.3884,19.9755-45.0931,9.097-67.3881-1.4287-2.9281-4.3503-4.5693-7.3489-4.5693h0Z"/>
      </g>
    </g>
    <g>
      <rect class="cls-30" x="890.5213" y="1653.5339" width="260.0928" height="188.0068" rx="32.6616" ry="32.6616"/>
      <path class="cls-23" d="M1117.9524,1655.1293c17.1298,0,31.0659,13.936,31.0659,31.0659v122.6832c0,17.1299-13.9362,31.066-31.0659,31.066h-194.7695c-17.1298,0-31.0659-13.9362-31.0659-31.066v-122.6832c0-17.1299,13.9362-31.0659,31.0659-31.0659h194.7695M1117.9524,1651.9378h-194.7695c-18.8416,0-34.2574,15.4159-34.2574,34.2574v122.6832c0,18.8417,15.4159,34.2576,34.2574,34.2576h194.7695c18.8416,0,34.2574-15.4159,34.2574-34.2576v-122.6832c0-18.8416-15.4159-34.2574-34.2574-34.2574h0Z"/>
    </g>
    <line class="cls-1" x1="922.3856" y1="1690.3122" x2="922.3856" y2="1816.987"/>
    <line class="cls-1" x1="1105.005" y1="1815.1042" x2="922.3856" y2="1816.987"/>
    <polyline class="cls-5" points="935.4742 1804.9148 964.8127 1778.9142 1004.8203 1800.6985 1041.409 1747.5369 1058.8013 1757.1299 1106.0591 1712.683"/>
  </g>
  <g>
    <circle class="cls-13" cx="293.3201" cy="666.5983" r="5.9339"/>
    <circle class="cls-13" cx="327.9661" cy="649.6605" r="5.9339"/>
    <line class="cls-18" x1="211.3491" y1="637.358" x2="238.3816" y2="624.1423"/>
    <line class="cls-18" x1="273.9072" y1="655.4674" x2="238.3816" y2="624.1423"/>
    <line class="cls-18" x1="326.8096" y1="629.6044" x2="273.9072" y2="655.4674"/>
    <line class="cls-18" x1="327.1526" y1="586.9222" x2="326.8096" y2="629.6044"/>
    <line class="cls-18" x1="327.1526" y1="586.9222" x2="259.5194" y2="619.9868"/>
  </g>
  <circle class="cls-2" cx="284.6061" cy="628.1661" r="104.1859"/>
  <path class="cls-15" d="M806.8585,312.279c20.4119-53.7981,80.5711-80.8629,134.3691-60.4509,53.7981,20.4119,80.8629,80.5711,60.4509,134.3691-20.4119,53.7981-80.5711,80.8629-134.3691,60.4509"/>
  <path class="cls-15" d="M1018.0741,392.4179c-23.8476,62.8531-94.1323,94.4732-156.9854,70.6257-62.8531-23.8476-94.4732-94.1323-70.6257-156.9854,23.8476-62.8531,94.1323-94.4732,156.9854-70.6257"/>
  <g>
    <circle class="cls-2" cx="1399.4971" cy="836.5941" r="104.1859"/>
    <path class="cls-12" d="M1319.704,806.3192c16.7204-44.0685,65.9996-66.2386,110.0681-49.5182"/>
    <path class="cls-17" d="M1370.7408,893.6157l2.7589-7.2713c-8.0102-3.1976-15.5095-8.4343-20.299-13.7906-1.6361-1.8297-1.618-4.6034-.0244-6.4702l1.8622-2.1814c1.9045-2.231,5.3432-2.3541,7.3418-.207,4.5154,4.8508,10.6862,9.3873,17.9894,12.1582,11.9549,4.5359,22.656.6984,26.2974-8.899,3.5136-9.2604-.881-17.477-11.4241-27.2555-14.6189-13.2516-22.2886-25.0221-16.7307-39.6706,5.3025-13.9753,19.2616-20.8136,35.711-17.462l3.0814-8.1213c.4644-1.2239,1.833-1.8396,3.0568-1.3752l6.0071,2.2792c1.2239.4644,1.8396,1.833,1.3752,3.0568l-2.826,7.4481c7.3313,3.0643,12.4508,6.7465,16.1572,10.3549,2.0677,2.0131,2.23,5.2731.3169,7.4337l-1.2994,1.4676c-2.0356,2.299-5.5585,2.4079-7.7576.2648-3.2476-3.1649-8.0765-6.8664-15.2334-9.5819-12.9651-4.9192-20.7864.9738-23.3419,7.7091-3.3221,8.7557,1.2467,15.4973,13.5962,27.1167,14.6599,13.6517,20.0927,25.7292,14.4069,40.7147-5.047,13.3021-19.0348,22.2481-37.464,18.5308l-2.9504,7.776c-.6427,1.6938-2.5367,2.5459-4.2305,1.9033l-4.4739-1.6975c-1.6938-.6427-2.5459-2.5367-1.9033-4.2305Z"/>
  </g>
  <g>
    <path class="cls-6" d="M373.6975,2487.5268c-1.875,0-4.2339-.1904-7.0752-.5713l-7.0752-.9229c-.6743,8.5254-1.0107,16.6699-1.0107,24.4336,0,2.0508.0586,4.585.1758,7.6025.1167,3.0176.1758,5.5518.1758,7.6025,0,2.7539-.103,5.2588-.3076,7.5146l13.8428-.1758c1.2305,0,2.2632.4326,3.0981,1.2959.835.8652,1.2524,1.9268,1.2524,3.1865,0,1.2891-.4175,2.3662-1.2524,3.2295-.835.8652-1.8677,1.2969-3.0981,1.2969-1.6411,0-4.1021.0371-7.3828.1094-3.2812.0742-5.7422.1104-7.3828.1104-1.9336,0-4.8271.2705-8.6792.8135-3.8525.541-6.7607.8125-8.7231.8125-1.2305,0-2.2632-.4326-3.0981-1.2969-.835-.8633-1.2524-1.9258-1.2524-3.1855s.4175-2.3291,1.2524-3.208,1.8677-1.3184,3.0981-1.3184c1.9043,0,5.0537-.3076,9.4482-.9229.2925-2.373.4395-5.083.4395-8.1299,0-2.0215-.0952-4.4893-.2856-7.4053-.1909-2.9141-.2856-5.3682-.2856-7.3604,0-6.7676.4102-15.2197,1.2305-25.3564l-5.7129.1758-5.7129.1318c-1.2598,0-2.3145-.4248-3.1641-1.2744-.8501-.8496-1.2744-1.9336-1.2744-3.252,0-2.7246,1.377-4.2188,4.1309-4.4824,2.373-.2344,6.8115-.3516,13.3154-.3516,5.8296,0,13.1396.6299,21.9287,1.8896,2.6074.3809,3.9111,1.9482,3.9111,4.7021,0,1.377-.4985,2.4756-1.4941,3.2959-.8789.6738-1.8896,1.0107-3.0322,1.0107Z"/>
    <path class="cls-6" d="M420.6311,2545.4028c-2.52,0-3.9404-1.377-4.2627-4.1309l-1.2305-9.624c-.4106-3.4277-.6152-6.6357-.6152-9.624,0-.8203.0508-2.2119.1538-4.1748.1025-1.9629.1538-3.3545.1538-4.1748,0-6.3281-1.1719-9.4922-3.5156-9.4922-3.2812,0-6.416,1.9482-9.4043,5.8447-2.6958,3.5449-4.8052,8.0273-6.3281,13.4473-.0591,1.1426-.1909,2.5781-.3955,4.3066-.1758,1.4648-.2637,2.8857-.2637,4.2627,0,.8789.0879,2.1973.2637,3.9551s.2637,3.0762.2637,3.9551c0,1.3184-.4028,2.3877-1.2085,3.208-.8062.8203-1.8389,1.2305-3.0981,1.2305-1.2896,0-2.3291-.4102-3.1201-1.2305s-1.1865-1.8896-1.1865-3.208c0-.8789-.0952-2.1973-.2856-3.9551-.1909-1.7578-.2856-3.0762-.2856-3.9551,0-3.0176.2124-7.1992.6372-12.5459.4243-5.3467.6372-9.5293.6372-12.5469,0-.9375-.0513-2.3291-.1538-4.1748-.103-1.8457-.1538-3.2373-.1538-4.1748,0-1.2598.4175-2.292,1.2524-3.0977s1.8677-1.209,3.0981-1.209c2.6953,0,4.1748,1.9043,4.4385,5.7129l.1318,5.1416c4.9219-6.5625,9.9756-9.8438,15.1611-9.8438,4.687,0,7.9541,2.0654,9.7998,6.1963,1.2593,2.7539,1.9482,6.8262,2.0654,12.2168v4.4385l-.0439,4.0869c0,2.4316.3145,5.5742.9448,9.4258.6299,3.8535.9448,6.9805.9448,9.3828,0,1.2891-.4175,2.3359-1.2524,3.1426-.835.8047-1.8828,1.208-3.1421,1.208Z"/>
    <path class="cls-6" d="M454.2932,2539.9975c-.0879,2.6953-1.4214,4.043-3.999,4.043-2.1387,0-3.6914-1.2598-4.6582-3.7793l-6.7236-17.8418-7.8223-20.1709c-.293-.7617-.4395-1.4355-.4395-2.0215,0-1.2012.4541-2.2266,1.3623-3.0762.9077-.8496,1.9624-1.2744,3.1641-1.2744,1.7578,0,3.0171.8936,3.7793,2.6807l11.1621,30.7178c2.1973-4.6875,4.9658-11.4844,8.3057-20.3906.791-2.3438,2.0361-5.6543,3.7354-9.9316.9077-1.875,2.1973-2.8125,3.8672-2.8125,1.2012,0,2.2559.4248,3.1641,1.2744.9077.8496,1.3623,1.8604,1.3623,3.0322,0,1.1133-2.417,7.3828-7.251,18.8086l-9.0088,20.7422Z"/>
    <path class="cls-6" d="M498.3264,2544.3042c-6.6211,0-11.9824-1.6553-16.084-4.9658-4.4824-3.6621-6.7236-8.7891-6.7236-15.3809,0-7.6172,1.8457-14.0039,5.5371-19.1602,4.0137-5.625,9.375-8.4375,16.084-8.4375,4.8628,0,8.833.8203,11.9092,2.4609,3.7793,2.0215,5.6689,5.127,5.6689,9.3164,0,2.9297-1.6553,5.5957-4.9658,7.998-1.4653,1.0547-4.5703,2.6953-9.3164,4.9219l-16.7871,7.9541c1.6406,2.4316,3.6841,4.2627,6.1304,5.4932,2.4458,1.2305,5.2954,1.8457,8.5474,1.8457,2.0215,0,4.3945-.3809,7.1191-1.1426,3.4565-.9668,5.6836-2.2334,6.6797-3.8018.9956-1.5664,2.0654-2.3506,3.208-2.3506,1.0254,0,1.9404.3887,2.7466,1.165.8057.7764,1.2085,1.6768,1.2085,2.7021,0,3.252-2.6221,6.0498-7.8662,8.3936-4.4824,1.9922-8.8481,2.9883-13.0957,2.9883ZM497.1399,2504.27c-3.5747,0-6.5479,1.3838-8.9209,4.1533-2.373,2.7676-4.146,6.9355-5.3174,12.502l13.4912-6.416c5.3022-2.5781,9.0815-4.8193,11.3379-6.7236-2.52-2.3438-6.0498-3.5156-10.5908-3.5156Z"/>
    <path class="cls-6" d="M560.8166,2545.4028c-2.52,0-3.9404-1.377-4.2627-4.1309l-1.2305-9.624c-.4106-3.4277-.6152-6.6357-.6152-9.624,0-.8203.0508-2.2119.1538-4.1748.1025-1.9629.1538-3.3545.1538-4.1748,0-6.3281-1.1719-9.4922-3.5156-9.4922-3.2812,0-6.416,1.9482-9.4043,5.8447-2.6958,3.5449-4.8052,8.0273-6.3281,13.4473-.0591,1.1426-.1909,2.5781-.3955,4.3066-.1758,1.4648-.2637,2.8857-.2637,4.2627,0,.8789.0879,2.1973.2637,3.9551s.2637,3.0762.2637,3.9551c0,1.3184-.4028,2.3877-1.2085,3.208-.8062.8203-1.8389,1.2305-3.0981,1.2305-1.2896,0-2.3291-.4102-3.1201-1.2305s-1.1865-1.8896-1.1865-3.208c0-.8789-.0952-2.1973-.2856-3.9551-.1909-1.7578-.2856-3.0762-.2856-3.9551,0-3.0176.2124-7.1992.6372-12.5459.4243-5.3467.6372-9.5293.6372-12.5469,0-.9375-.0513-2.3291-.1538-4.1748-.103-1.8457-.1538-3.2373-.1538-4.1748,0-1.2598.4175-2.292,1.2524-3.0977s1.8677-1.209,3.0981-1.209c2.6953,0,4.1748,1.9043,4.4385,5.7129l.1318,5.1416c4.9219-6.5625,9.9756-9.8438,15.1611-9.8438,4.687,0,7.9541,2.0654,9.7998,6.1963,1.2593,2.7539,1.9482,6.8262,2.0654,12.2168v4.4385l-.0439,4.0869c0,2.4316.3145,5.5742.9448,9.4258.6299,3.8535.9448,6.9805.9448,9.3828,0,1.2891-.4175,2.3359-1.2524,3.1426-.835.8047-1.8828,1.208-3.1421,1.208Z"/>
    <path class="cls-6" d="M603.6194,2504.8413c-.6152,0-1.3403-.0293-2.1753-.0879s-1.5601-.0879-2.1753-.0879c-.6743,0-2.666.2197-5.9766.6592l.835,25.9717.0439,1.9336.0439,2.2412c.1167,6.416-1.4214,9.624-4.6143,9.624-1.1719,0-2.1904-.3809-3.0542-1.1426-.8643-.7617-1.2964-1.7139-1.2964-2.8564,0-1.1133.0439-2.7832.1318-5.0098s.1318-3.8965.1318-5.0098l-.8789-25.6641c-2.1387-.0879-5.3906-.3369-9.7559-.7471-2.6079-.3516-3.9111-1.8018-3.9111-4.3506,0-1.2891.3955-2.3584,1.1865-3.208s1.8018-1.2744,3.0322-1.2744l9.2285.7471c0-1.4941-.0659-3.4941-.1978-5.998-.1318-2.5059-.1978-4.3145-.1978-5.4277,0-1.2305.4243-2.248,1.2744-3.0547.8496-.8047,1.8896-1.208,3.1201-1.208,2.6367,0,4.1748,2.1533,4.6143,6.46.0879,1.084.1318,2.3877.1318,3.9111l-.0879,2.5488-.0439,2.7246c3.6323-.4688,5.7129-.7031,6.2402-.7031,3.0469,0,5.0386.1465,5.9766.4395,1.7866.5859,2.6807,1.9629,2.6807,4.1309,0,1.2891-.4028,2.3506-1.2085,3.1865-.8062.834-1.8389,1.252-3.0981,1.252Z"/>
    <path class="cls-6" d="M633.1067,2544.8755c-4.9219,0-9.1558-1.8164-12.7002-5.4492-3.9551-4.043-6.0356-9.4775-6.2402-16.3037-.1758-6.6211,1.4941-12.4512,5.0098-17.4902,4.1016-5.9473,9.8145-8.9209,17.1387-8.9209,5.8594,0,10.2979,2.6807,13.3154,8.042,2.4019,4.3359,3.5596,9.5508,3.4717,15.6445-.0879,6.5039-1.7871,12.0557-5.0977,16.6553-3.7505,5.2148-8.7163,7.8223-14.8975,7.8223ZM635.7434,2505.6323c-4.3066-.0293-7.6616,2.0215-10.0635,6.1523-1.9048,3.3105-2.8564,7.0898-2.8564,11.3379s1.1572,7.5586,3.4717,9.9316c1.9336,1.9629,4.2036,2.9443,6.8115,2.9443,3.0469,0,5.6689-1.1133,7.8662-3.3398,2.4897-2.4609,3.8081-5.7861,3.9551-9.9756.4102-11.3379-2.6519-17.0215-9.1846-17.0508Z"/>
    <path class="cls-6" d="M698.1457,2509.8071c-.2051,3.6621-1.6699,5.4932-4.3945,5.4932-2.52,0-3.7793-1.4502-3.7793-4.3506,0-.5566-.0439-1.582-.1318-3.0762l-.1318-3.6914c-4.6294.5566-8.335,1.8604-11.1182,3.9111-2.6079,1.9043-4.7754,4.7754-6.5039,8.6133l.0879,24.082c0,2.959-1.4502,4.4385-4.3506,4.4385-2.5781,0-3.8672-1.4795-3.8672-4.4385v-30.8496c0-.9668.0366-2.417.1099-4.3506.0728-1.9336.1099-3.3838.1099-4.3506,0-2.959,1.2891-4.4385,3.8672-4.4385,2.8711,0,4.3213,2.4316,4.3506,7.2949,5.625-5.4199,11.8652-8.1299,18.7207-8.1299,2.373,0,4.1455.8936,5.3174,2.6807,1.1714,1.7871,1.7578,4.4824,1.7578,8.0859,0,1.5234-.0151,2.5488-.0439,3.0762Z"/>
    <path class="cls-6" d="M745.5188,2503.0835l-15.2051,32.8711c-3.7505,7.998-6.6211,14.6924-8.6133,20.083l-2.9004,8.5254c-.7622,2.1094-2.0806,3.1641-3.9551,3.1641-1.2305,0-2.2925-.4033-3.186-1.208-.894-.8066-1.3403-1.8096-1.3403-3.0107,0-2.9297,3.1641-11.4111,9.4922-25.4443l-15.7324-30.2783-1.9775-3.208c-.791-1.3477-1.1865-2.4756-1.1865-3.3838,0-1.2012.4614-2.2559,1.3843-3.1641s1.9556-1.3623,3.0981-1.3623c1.3472,0,2.3877.5127,3.1201,1.5381,4.9805,6.9141,10.3271,16.7578,16.04,29.5312l6.5039-15.1611c2.3438-5.2441,4.5991-9.7559,6.7676-13.5352.9375-1.6406,2.168-2.4609,3.6914-2.4609,1.2012,0,2.2632.4248,3.186,1.2744s1.3843,1.8604,1.3843,3.0322c0,.6445-.1909,1.377-.5713,2.1973Z"/>
    <path class="cls-6" d="M846.2414,2545.9301c-1.582,0-2.8857-.8203-3.9111-2.4609-.8789-1.4062-1.6699-3.75-2.373-7.0312l-1.582-7.5586c-1.2017-4.6875-3.1055-15.0293-5.7129-31.0254l-8.7891,26.499-2.5928,8.3496c-1.0547,3.3105-2.1533,6.0205-3.2959,8.1299-1.2305,2.2266-2.8857,3.3398-4.9658,3.3398-1.729,0-3.0913-.9375-4.0869-2.8125-.6445-1.2305-1.2305-2.7979-1.7578-4.7021l-1.2744-4.8779c-2.9595-10.3418-5.5664-21.416-7.8223-33.2227l-1.582,7.8662-5.6689,23.2031c-.2349,2.7246-.9668,6.7529-2.1973,12.085-.8789,2.2852-2.3291,3.4277-4.3506,3.4277-1.4355,0-2.5781-.5127-3.4277-1.5381-.7324-.8789-1.0986-1.9629-1.0986-3.252,0-4.8926,1.0107-10.8984,3.0322-18.0176l4.834-17.71,2.5488-13.8428c1.2891-6.4746,2.6514-10.708,4.0869-12.7002,1.1714-1.6992,2.6216-2.5488,4.3506-2.5488,1.9043,0,3.3247,1.084,4.2627,3.252,1.1426,2.6074,2.373,7.9248,3.6914,15.9521,1.5527,9.6387,3.9697,20.0684,7.251,31.2891,4.3354-11.2793,8.0859-23.0273,11.25-35.2441l1.3184-6.416c.5273-2.5781,1.2153-4.6582,2.0654-6.2402,1.1426-2.168,2.7095-3.252,4.7021-3.252,2.5195,0,4.4385,2.4316,5.7568,7.2949.4683,1.6699,1.0396,5.127,1.7139,10.3711,1.7285,13.2422,3.8818,24.5508,6.46,33.9258l2.1533,7.5586c1.1133,4.043,1.6699,6.5332,1.6699,7.4707,0,1.2598-.4766,2.3145-1.4282,3.1641-.9521.8496-2.0288,1.2744-3.23,1.2744Z"/>
    <path class="cls-6" d="M894.7131,2545.1831c-.5566,0-1.5674-.6445-3.0322-1.9336-1.3184-1.2012-2.3003-2.2705-2.9443-3.208-2.8125,1.5234-5.2886,2.6729-7.4268,3.4502-2.1387.7754-3.9263,1.1641-5.3613,1.1641-6.8555,0-11.8506-1.9336-14.9854-5.8008-2.9595-3.6328-4.4385-9.1992-4.4385-16.6992,0-7.0898,2.439-13.1543,7.3169-18.1934s10.7007-7.5586,17.4683-7.5586c2.5488,0,5.4053.6592,8.5693,1.9775,3.9839,1.6406,5.9766,3.6182,5.9766,5.9326,0,.791-.293,1.4941-.8789,2.1094-.293,1.1133-.5205,2.9443-.6812,5.4932-.1611,2.5488-.2568,5.8154-.2856,9.7998-.0293,3.6328.2197,6.5039.7471,8.6133.2925,1.2891,1.2153,3.8672,2.7686,7.7344.2046.5273.542,1.3037,1.0107,2.3291l.2637.7471c0,1.1719-.4106,2.1387-1.2305,2.9004-.8203.7617-1.7729,1.1426-2.8564,1.1426ZM885.5725,2514.6411c0-1.2598.0806-2.6289.2417-4.1084.1606-1.4795.4023-3.0547.7251-4.7246-1.084-.5566-2.0146-.9668-2.7905-1.2305-.7764-.2637-1.3994-.3955-1.8677-.3955-4.5415,0-8.4595,1.8535-11.7554,5.5596s-4.9438,7.9756-4.9438,12.8096c0,4.8047.8496,8.4082,2.5488,10.8105,1.6987,2.4023,4.2476,3.6035,7.6465,3.6035,2.8125,0,5.2002-.5127,7.1631-1.5381,1.0547-.5566,2.5337-1.6699,4.4385-3.3398-.938-7.7637-1.4062-13.5791-1.4062-17.4463Z"/>
    <path class="cls-6" d="M946.9201,2503.479c-.3516,4.3066-.5273,8.6133-.5273,12.9199,0,9.7559.4541,17.124,1.3623,22.1045.0586.4102.0879.7471.0879,1.0107,0,1.1719-.4106,2.1387-1.2305,2.9004-.8203.7617-1.7729,1.1426-2.8564,1.1426-1.8169,0-3.1494-1.3184-3.999-3.9551-2.1094,1.5527-4.2998,2.7246-6.5698,3.5156-2.2705.791-4.6362,1.1865-7.0972,1.1865-6.0645,0-11.0894-2.0215-15.0732-6.0645-4.1021-4.1309-6.1523-9.4336-6.1523-15.9082,0-7.8223,2.0723-14.0918,6.2183-18.8086,4.1455-4.7168,9.5288-7.0752,16.1499-7.0752,3.3984,0,6.0205.5273,7.8662,1.582l4.1309,3.0322c.4102-12.334.8936-20.6396,1.4502-24.917.3804-2.6074,1.7139-3.9111,3.999-3.9111,2.6655,0,3.999,1.4209,3.999,4.2627,0,4.0723-.5864,13.0664-1.7578,26.9824ZM927.4084,2504.6215c-4.9219,0-8.6133,1.458-11.0742,4.3721-2.4609,2.916-3.6914,7.3027-3.6914,13.1621,0,3.7793,1.3403,7.0312,4.021,9.7559s5.8228,4.0869,9.4263,4.0869c2.4609,0,4.541-.4541,6.2402-1.3623.9956-.5273,2.6216-1.7432,4.8779-3.6475.4395-.3809.8638-.835,1.2744-1.3623l-.1318-7.6025.0439-5.0977.0879-5.1855c-1.1138-2.373-2.5928-4.1533-4.4385-5.3389-1.8457-1.1875-4.0581-1.7803-6.6357-1.7803Z"/>
    <path class="cls-6" d="M979.8352,2544.3042c-6.6211,0-11.9824-1.6553-16.084-4.9658-4.4824-3.6621-6.7236-8.7891-6.7236-15.3809,0-7.6172,1.8457-14.0039,5.5371-19.1602,4.0137-5.625,9.375-8.4375,16.084-8.4375,4.8628,0,8.833.8203,11.9092,2.4609,3.7793,2.0215,5.6689,5.127,5.6689,9.3164,0,2.9297-1.6553,5.5957-4.9658,7.998-1.4653,1.0547-4.5703,2.6953-9.3164,4.9219l-16.7871,7.9541c1.6406,2.4316,3.6841,4.2627,6.1304,5.4932,2.4458,1.2305,5.2954,1.8457,8.5474,1.8457,2.0215,0,4.3945-.3809,7.1191-1.1426,3.4565-.9668,5.6836-2.2334,6.6797-3.8018.9956-1.5664,2.0654-2.3506,3.208-2.3506,1.0254,0,1.9404.3887,2.7466,1.165.8057.7764,1.2085,1.6768,1.2085,2.7021,0,3.252-2.6221,6.0498-7.8662,8.3936-4.4824,1.9922-8.8481,2.9883-13.0957,2.9883ZM978.6487,2504.27c-3.5747,0-6.5479,1.3838-8.9209,4.1533-2.373,2.7676-4.146,6.9355-5.3174,12.502l13.4912-6.416c5.3022-2.5781,9.0815-4.8193,11.3379-6.7236-2.52-2.3438-6.0498-3.5156-10.5908-3.5156Z"/>
    <path class="cls-6" d="M1035.2942,2531.3403c-.0293-1.2305.3882-2.2334,1.2524-3.0107.8638-.7754,1.9263-1.1641,3.186-1.1641,1.4351,0,2.6953.8203,3.7793,2.4609,1.4941,2.2266,2.8271,3.7354,3.999,4.5264,2.4897,1.6406,6.1084,2.4609,10.8545,2.4609,4.541,0,8.7598-.9814,12.6562-2.9443,4.9805-2.5195,7.4707-6.0205,7.4707-10.5029,0-3.6914-2.0947-6.6064-6.2842-8.7451-3.5449-1.8457-7.9253-2.8418-13.1396-2.9883-4.6294-.1758-8.5693-1.1865-11.8213-3.0322-4.1602-2.373-6.2402-5.7715-6.2402-10.1953,0-5.2148,2.959-9.9756,8.877-14.2822,5.6538-4.0723,11.4985-6.1084,17.5342-6.1084,2.8413,0,6.0493.4834,9.624,1.4502,4.7461,1.2598,7.1191,2.8711,7.1191,4.834,0,2.5781-1.3184,3.8672-3.9551,3.8672-1.1719,0-3.2231-.3145-6.1523-.9453-2.9297-.6289-5.2007-.9297-6.8115-.9004-4.5703.0586-8.4526,1.1865-11.6455,3.3838-3.2812,2.2559-4.9219,4.9951-4.9219,8.2178,0,2.4316,2.168,4.1455,6.5039,5.1416,1.6108.3809,4.731.7324,9.3604,1.0547,6.7085.498,11.9531,2.6074,15.7324,6.3281,3.4565,3.3984,5.1855,7.5439,5.1855,12.4365,0,6.9727-3.2231,12.5391-9.668,16.6992-5.5962,3.6035-12.085,5.4053-19.4678,5.4053-5.3613,0-10.2686-1.0254-14.7217-3.0762-5.4492-2.5195-8.2178-5.9766-8.3057-10.3711Z"/>
    <path class="cls-6" d="M1108.2873,2522.3315c0,1.7578.0508,4.3877.1538,7.8887.1025,3.501.1538,6.1299.1538,7.8877,0,1.2891-.3955,2.3438-1.1865,3.1641s-1.8311,1.2305-3.1201,1.2305c-1.2598,0-2.2925-.4102-3.0981-1.2305-.8062-.8203-1.2085-1.875-1.2085-3.1641,0-1.7578-.0513-4.3867-.1538-7.8877-.103-3.501-.1538-6.1309-.1538-7.8887,0-2.7539.1465-6.1885.4395-10.3047.2925-4.1162.4395-7.5518.4395-10.3057,0-1.3184.4023-2.3877,1.2085-3.208.8057-.8203,1.8384-1.2305,3.0981-1.2305s2.292.4102,3.0981,1.2305c.8057.8203,1.2085,1.8896,1.2085,3.208,0,2.7539-.147,6.1895-.4395,10.3057-.293,4.1162-.4395,7.5508-.4395,10.3047ZM1106.3098,2486.6479c-1.4062,0-2.6221-.498-3.6475-1.4941-1.0259-.9961-1.5381-2.1973-1.5381-3.6035s.5122-2.6074,1.5381-3.6035c1.0254-.9961,2.2412-1.4941,3.6475-1.4941s2.6147.498,3.6255,1.4941,1.5161,2.1973,1.5161,3.6035-.5054,2.6074-1.5161,3.6035-2.2192,1.4941-3.6255,1.4941Z"/>
    <path class="cls-6" d="M1178.9514,2545.9301c-2.4023,0-3.8086-1.2744-4.2188-3.8232-.5273-3.2227-1.0547-7.7637-1.582-13.623l-1.4941-13.623c-.293-2.0215-.791-3.999-1.4941-5.9326-.9961-2.6367-2.0806-3.9551-3.252-3.9551-1.084,0-3.1055.9229-6.0645,2.7686-2.8125,1.6992-4.6582,3.0615-5.5371,4.0869-.0293,2.7539.0439,5.5078.2197,8.2617l1.3184,11.7334c.5562,4.6289.835,8.4521.835,11.4697,0,1.2891-.4028,2.3506-1.2085,3.1865-.8062.834-1.8389,1.252-3.0981,1.252s-2.2925-.418-3.0981-1.252c-.8062-.8359-1.2085-1.8975-1.2085-3.1865,0-3.5449-.3589-8.7812-1.0767-15.71-.7183-6.9287-1.0767-12.166-1.0767-15.7109,0-3.1055-.4395-5.5225-1.3184-7.251-2.0508.9375-4.1309,2.4609-6.2402,4.5703l-5.1855,5.8008c-.4688.7031-1.2158,1.626-2.2412,2.7686,0,1.7578-.1611,4.3506-.4834,7.7783-.3228,3.4277-.4834,5.9619-.4834,7.6025,0,.8789.1387,2.1094.4175,3.6914.2783,1.582.4175,2.7246.4175,3.4277,0,1.2012-.4468,2.2119-1.3403,3.0322-.894.8203-1.9409,1.2305-3.1421,1.2305-3.311,0-4.9658-3.7646-4.9658-11.2939,0-1.7578.1606-4.3799.4834-7.8662.3223-3.4863.4834-6.1084.4834-7.8662,0-1.5527-.1392-3.8818-.4175-6.9873-.2788-3.1055-.4175-5.4492-.4175-7.0312,0-6.6504,1.4941-9.9756,4.4824-9.9756,1.1426,0,2.1899.498,3.1421,1.4941.9517.9961,1.4282,2.0801,1.4282,3.252,0,.5566-.0732,1.4209-.2197,2.5928-.147,1.1719-.2197,2.0654-.2197,2.6807l.0879,4.6143c1.5229-3.1348,3.7642-5.9688,6.7236-8.5029,2.959-2.5342,5.478-3.8018,7.5586-3.8018,4.5991,0,7.7632,2.2852,9.4922,6.8555,1.6108-2.1387,3.5303-3.7422,5.7568-4.8115,2.2261-1.0693,4.7749-1.6045,7.6465-1.6045,4.8926,0,8.2324,2.6367,10.0195,7.9102.3516,1.0547.9517,5.1709,1.8018,12.3486.8198,5.0391,1.8745,13.4326,3.1641,25.1807.0879,1.1719-.3076,2.168-1.1865,2.9883s-1.9487,1.2305-3.208,1.2305Z"/>
    <path class="cls-6" d="M1211.7346,2543.8208c-2.9297,0-6.1523-.4688-9.668-1.4062l-.0879,21.0059c0,1.2891-.4028,2.3438-1.2085,3.1641-.8062.8203-1.8389,1.2305-3.0981,1.2305s-2.2925-.4102-3.0981-1.2305c-.8062-.8203-1.2085-1.875-1.2085-3.1641l.1318-17.5781v-17.5342c-.0879-6.416-.3076-12.2607-.6592-17.5342l-.6592-8.9209c0-2.0801.3804-3.8379,1.1426-5.2734.8789-1.7285,2.1533-2.5928,3.8232-2.5928,1.1426,0,2.1021.4033,2.8784,1.208.7759.8066,1.1646,1.7949,1.1646,2.9668,0,.2637-.0439.7471-.1318,1.4502-.147.9082-.249,1.7432-.3076,2.5049,2.5195-1.7285,4.9507-3.0244,7.2949-3.8887,2.3438-.8643,4.585-1.2969,6.7236-1.2969,6.0054,0,10.3999,2.666,13.1836,7.998,2.1973,4.2188,3.2959,9.7998,3.2959,16.7432,0,6.3281-1.6992,11.543-5.0977,15.6445-3.6035,4.3359-8.4087,6.5039-14.4141,6.5039ZM1214.7668,2505.7202c-2.6958,0-5.127.6006-7.2949,1.8018-1.5532.8496-3.5156,2.4023-5.8887,4.6582.3804,6.6504.5713,13.6377.5713,20.9619,3.1929,1.2305,6.3867,1.8457,9.5801,1.8457,3.6621,0,6.46-1.3623,8.3936-4.0869,1.6699-2.373,2.5049-5.4492,2.5049-9.2285,0-5.332-.6523-9.3232-1.9556-11.9756-1.3037-2.6504-3.2739-3.9766-5.9106-3.9766Z"/>
    <path class="cls-6" d="M1252.3401,2507.7417l-.6592,21.8408c0,2.3145-.1172,5.7129-.3516,10.1953-.293,2.9297-1.729,4.3945-4.3066,4.3945-2.8716,0-4.3066-1.4941-4.3066-4.4824,0-3.5449.1606-8.8691.4834-15.9736.3223-7.1045.4834-12.4297.4834-15.9746,0-4.6289.0728-9.9238.2197-15.8867.1465-5.9609.2197-11.2568.2197-15.8857,0-2.9297,1.4351-4.3945,4.3066-4.3945,2.9004,0,4.3506,1.4648,4.3506,4.3945,0,4.6289-.0732,9.9248-.2197,15.8857-.147,5.9629-.2197,11.2578-.2197,15.8867Z"/>
    <path class="cls-6" d="M1286.3537,2544.3042c-6.6211,0-11.9824-1.6553-16.084-4.9658-4.4824-3.6621-6.7236-8.7891-6.7236-15.3809,0-7.6172,1.8457-14.0039,5.5371-19.1602,4.0137-5.625,9.375-8.4375,16.084-8.4375,4.8628,0,8.833.8203,11.9092,2.4609,3.7793,2.0215,5.6689,5.127,5.6689,9.3164,0,2.9297-1.6553,5.5957-4.9658,7.998-1.4653,1.0547-4.5703,2.6953-9.3164,4.9219l-16.7871,7.9541c1.6406,2.4316,3.6841,4.2627,6.1304,5.4932,2.4458,1.2305,5.2954,1.8457,8.5474,1.8457,2.0215,0,4.3945-.3809,7.1191-1.1426,3.4565-.9668,5.6836-2.2334,6.6797-3.8018.9956-1.5664,2.0654-2.3506,3.208-2.3506,1.0254,0,1.9404.3887,2.7466,1.165.8057.7764,1.2085,1.6768,1.2085,2.7021,0,3.252-2.6221,6.0498-7.8662,8.3936-4.4824,1.9922-8.8481,2.9883-13.0957,2.9883ZM1285.1672,2504.27c-3.5747,0-6.5479,1.3838-8.9209,4.1533-2.373,2.7676-4.146,6.9355-5.3174,12.502l13.4912-6.416c5.3022-2.5781,9.0815-4.8193,11.3379-6.7236-2.52-2.3438-6.0498-3.5156-10.5908-3.5156Z"/>
    <path class="cls-6" d="M1320.7629,2546.3696c-1.5234,0-2.8125-.5273-3.8672-1.582s-1.582-2.3438-1.582-3.8672c0-1.4941.5273-2.7754,1.582-3.8447s2.3438-1.6045,3.8672-1.6045c1.4941,0,2.7754.5352,3.8452,1.6045,1.0693,1.0693,1.604,2.3506,1.604,3.8447,0,1.5234-.5347,2.8125-1.604,3.8672-1.0698,1.0547-2.3511,1.582-3.8452,1.582Z"/>
    <path class="cls-6" d="M542.1399,2653.9301c-1.582,0-2.8857-.8203-3.9111-2.4609-.8789-1.4062-1.6699-3.75-2.373-7.0312l-1.582-7.5586c-1.2017-4.6875-3.1055-15.0293-5.7129-31.0254l-8.7891,26.499-2.5928,8.3496c-1.0547,3.3105-2.1533,6.0205-3.2959,8.1299-1.2305,2.2266-2.8857,3.3398-4.9658,3.3398-1.729,0-3.0913-.9375-4.0869-2.8125-.6445-1.2305-1.2305-2.7979-1.7578-4.7021l-1.2744-4.8779c-2.9595-10.3418-5.5664-21.416-7.8223-33.2227l-1.582,7.8662-5.6689,23.2031c-.2349,2.7246-.9668,6.7529-2.1973,12.085-.8789,2.2852-2.3291,3.4277-4.3506,3.4277-1.4355,0-2.5781-.5127-3.4277-1.5381-.7324-.8789-1.0986-1.9629-1.0986-3.252,0-4.8926,1.0107-10.8984,3.0322-18.0176l4.834-17.71,2.5488-13.8428c1.2891-6.4746,2.6514-10.708,4.0869-12.7002,1.1714-1.6992,2.6216-2.5488,4.3506-2.5488,1.9043,0,3.3247,1.084,4.2627,3.252,1.1426,2.6074,2.373,7.9248,3.6914,15.9521,1.5527,9.6387,3.9697,20.0684,7.251,31.2891,4.3354-11.2793,8.0859-23.0273,11.25-35.2441l1.3184-6.416c.5273-2.5781,1.2153-4.6582,2.0654-6.2402,1.1426-2.168,2.7095-3.252,4.7021-3.252,2.5195,0,4.4385,2.4316,5.7568,7.2949.4683,1.6699,1.0396,5.127,1.7139,10.3711,1.7285,13.2422,3.8818,24.5508,6.46,33.9258l2.1533,7.5586c1.1133,4.043,1.6699,6.5332,1.6699,7.4707,0,1.2598-.4766,2.3145-1.4282,3.1641-.9521.8496-2.0288,1.2744-3.23,1.2744Z"/>
    <path class="cls-6" d="M590.6115,2653.1831c-.5566,0-1.5674-.6445-3.0322-1.9336-1.3184-1.2012-2.3003-2.2705-2.9443-3.208-2.8125,1.5234-5.2886,2.6729-7.4268,3.4502-2.1387.7754-3.9263,1.1641-5.3613,1.1641-6.8555,0-11.8506-1.9336-14.9854-5.8008-2.9595-3.6328-4.4385-9.1992-4.4385-16.6992,0-7.0898,2.439-13.1543,7.3169-18.1934s10.7007-7.5586,17.4683-7.5586c2.5488,0,5.4053.6592,8.5693,1.9775,3.9839,1.6406,5.9766,3.6182,5.9766,5.9326,0,.791-.293,1.4941-.8789,2.1094-.293,1.1133-.5205,2.9443-.6812,5.4932-.1611,2.5488-.2568,5.8154-.2856,9.7998-.0293,3.6328.2197,6.5039.7471,8.6133.2925,1.2891,1.2153,3.8672,2.7686,7.7344.2046.5273.542,1.3037,1.0107,2.3291l.2637.7471c0,1.1719-.4106,2.1387-1.2305,2.9004-.8203.7617-1.7729,1.1426-2.8564,1.1426ZM581.4709,2622.6411c0-1.2598.0806-2.6289.2417-4.1084.1606-1.4795.4023-3.0547.7251-4.7246-1.084-.5566-2.0146-.9668-2.7905-1.2305-.7764-.2637-1.3994-.3955-1.8677-.3955-4.5415,0-8.4595,1.8535-11.7554,5.5596s-4.9438,7.9756-4.9438,12.8096c0,4.8047.8496,8.4082,2.5488,10.8105,1.6987,2.4023,4.2476,3.6035,7.6465,3.6035,2.8125,0,5.2002-.5127,7.1631-1.5381,1.0547-.5566,2.5337-1.6699,4.4385-3.3398-.938-7.7637-1.4062-13.5791-1.4062-17.4463Z"/>
    <path class="cls-6" d="M636.051,2653.4028c-2.52,0-3.9404-1.377-4.2627-4.1309l-1.2305-9.624c-.4106-3.4277-.6152-6.6357-.6152-9.624,0-.8203.0508-2.2119.1538-4.1748.1025-1.9629.1538-3.3545.1538-4.1748,0-6.3281-1.1719-9.4922-3.5156-9.4922-3.2812,0-6.416,1.9482-9.4043,5.8447-2.6958,3.5449-4.8052,8.0273-6.3281,13.4473-.0591,1.1426-.1909,2.5781-.3955,4.3066-.1758,1.4648-.2637,2.8857-.2637,4.2627,0,.8789.0879,2.1973.2637,3.9551s.2637,3.0762.2637,3.9551c0,1.3184-.4028,2.3877-1.2085,3.208-.8062.8203-1.8389,1.2305-3.0981,1.2305-1.2896,0-2.3291-.4102-3.1201-1.2305s-1.1865-1.8896-1.1865-3.208c0-.8789-.0952-2.1973-.2856-3.9551-.1909-1.7578-.2856-3.0762-.2856-3.9551,0-3.0176.2124-7.1992.6372-12.5459.4243-5.3467.6372-9.5293.6372-12.5469,0-.9375-.0513-2.3291-.1538-4.1748-.103-1.8457-.1538-3.2373-.1538-4.1748,0-1.2598.4175-2.292,1.2524-3.0977s1.8677-1.209,3.0981-1.209c2.6953,0,4.1748,1.9043,4.4385,5.7129l.1318,5.1416c4.9219-6.5625,9.9756-9.8438,15.1611-9.8438,4.687,0,7.9541,2.0654,9.7998,6.1963,1.2593,2.7539,1.9482,6.8262,2.0654,12.2168v4.4385l-.0439,4.0869c0,2.4316.3145,5.5742.9448,9.4258.6299,3.8535.9448,6.9805.9448,9.3828,0,1.2891-.4175,2.3359-1.2524,3.1426-.835.8047-1.8828,1.208-3.1421,1.208Z"/>
    <path class="cls-6" d="M683.7756,2653.1831c-.5566,0-1.5674-.6445-3.0322-1.9336-1.3184-1.2012-2.3003-2.2705-2.9443-3.208-2.8125,1.5234-5.2886,2.6729-7.4268,3.4502-2.1387.7754-3.9263,1.1641-5.3613,1.1641-6.8555,0-11.8506-1.9336-14.9854-5.8008-2.9595-3.6328-4.4385-9.1992-4.4385-16.6992,0-7.0898,2.439-13.1543,7.3169-18.1934s10.7007-7.5586,17.4683-7.5586c2.5488,0,5.4053.6592,8.5693,1.9775,3.9839,1.6406,5.9766,3.6182,5.9766,5.9326,0,.791-.293,1.4941-.8789,2.1094-.293,1.1133-.5205,2.9443-.6812,5.4932-.1611,2.5488-.2568,5.8154-.2856,9.7998-.0293,3.6328.2197,6.5039.7471,8.6133.2925,1.2891,1.2153,3.8672,2.7686,7.7344.2046.5273.542,1.3037,1.0107,2.3291l.2637.7471c0,1.1719-.4106,2.1387-1.2305,2.9004-.8203.7617-1.7729,1.1426-2.8564,1.1426ZM674.635,2622.6411c0-1.2598.0806-2.6289.2417-4.1084.1606-1.4795.4023-3.0547.7251-4.7246-1.084-.5566-2.0146-.9668-2.7905-1.2305-.7764-.2637-1.3994-.3955-1.8677-.3955-4.5415,0-8.4595,1.8535-11.7554,5.5596s-4.9438,7.9756-4.9438,12.8096c0,4.8047.8496,8.4082,2.5488,10.8105,1.6987,2.4023,4.2476,3.6035,7.6465,3.6035,2.8125,0,5.2002-.5127,7.1631-1.5381,1.0547-.5566,2.5337-1.6699,4.4385-3.3398-.938-7.7637-1.4062-13.5791-1.4062-17.4463Z"/>
    <path class="cls-6" d="M731.676,2631.3422l-1.0107,14.7656c-.1758,5.8594-.7764,10.6494-1.8018,14.3701-1.3184,4.7461-3.4277,8.2471-6.3281,10.5029-3.5156,2.7246-8.5986,4.0869-15.249,4.0869-3.8965,0-7.1631-.2637-9.7998-.791-3.6914-.7324-5.5371-2.2559-5.5371-4.5703,0-2.6074,1.2744-3.9111,3.8232-3.9111,1.0547,0,2.8125.2559,5.2734.7686s5.1855.7402,8.1738.6816c5.625-.0879,9.5068-2.8125,11.6455-8.1738,1.4062-3.5742,2.1533-9.0674,2.2412-16.4795-1.582,2.9297-3.4648,5.127-5.647,6.5918-2.1826,1.4648-4.6802,2.1973-7.4927,2.1973-5.3027,0-9.6172-1.8086-12.9419-5.4268-3.3252-3.6182-4.9878-8.3135-4.9878-14.085,0-7.9102,2.27-14.2822,6.8115-19.1162,4.687-4.9805,11.0742-7.4707,19.1602-7.4707,2.7246,0,5.0098.3516,6.8555,1.0547s3.252,1.7578,4.2188,3.1641c3.1348.0879,4.7021,1.8311,4.7021,5.2295,0,2.0801-.3076,4.8633-.9229,8.3496-.6743,4.043-1.0698,6.7969-1.1865,8.2617ZM717.5696,2612.3139c-5.5664,0-9.873,1.9189-12.9199,5.7568-2.7246,3.457-4.0869,7.8516-4.0869,13.1836,0,4.248.8057,7.4414,2.417,9.5801,1.6108,2.1387,4.0278,3.208,7.251,3.208,2.959,0,5.8296-1.6699,8.6133-5.0098,2.5195-3.0762,3.9551-6.123,4.3066-9.1406.6152-3.1641,1.2744-8.1299,1.9775-14.8975-1.1719-.9082-2.3882-1.582-3.6475-2.0215-1.2598-.4395-2.564-.6592-3.9111-.6592Z"/>
    <path class="cls-6" d="M763.8,2652.3042c-6.6211,0-11.9824-1.6553-16.084-4.9658-4.4824-3.6621-6.7236-8.7891-6.7236-15.3809,0-7.6172,1.8457-14.0039,5.5371-19.1602,4.0137-5.625,9.375-8.4375,16.084-8.4375,4.8628,0,8.833.8203,11.9092,2.4609,3.7793,2.0215,5.6689,5.127,5.6689,9.3164,0,2.9297-1.6553,5.5957-4.9658,7.998-1.4653,1.0547-4.5703,2.6953-9.3164,4.9219l-16.7871,7.9541c1.6406,2.4316,3.6841,4.2627,6.1304,5.4932,2.4458,1.2305,5.2954,1.8457,8.5474,1.8457,2.0215,0,4.3945-.3809,7.1191-1.1426,3.4565-.9668,5.6836-2.2334,6.6797-3.8018.9956-1.5664,2.0654-2.3506,3.208-2.3506,1.0254,0,1.9404.3887,2.7466,1.165.8057.7764,1.2085,1.6768,1.2085,2.7021,0,3.252-2.6221,6.0498-7.8662,8.3936-4.4824,1.9922-8.8481,2.9883-13.0957,2.9883ZM762.6135,2612.27c-3.5747,0-6.5479,1.3838-8.9209,4.1533-2.373,2.7676-4.146,6.9355-5.3174,12.502l13.4912-6.416c5.3022-2.5781,9.0815-4.8193,11.3379-6.7236-2.52-2.3438-6.0498-3.5156-10.5908-3.5156Z"/>
    <path class="cls-6" d="M819.259,2639.3403c-.0293-1.2305.3882-2.2334,1.2524-3.0107.8638-.7754,1.9263-1.1641,3.186-1.1641,1.4351,0,2.6953.8203,3.7793,2.4609,1.4941,2.2266,2.8271,3.7354,3.999,4.5264,2.4897,1.6406,6.1084,2.4609,10.8545,2.4609,4.541,0,8.7598-.9814,12.6562-2.9443,4.9805-2.5195,7.4707-6.0205,7.4707-10.5029,0-3.6914-2.0947-6.6064-6.2842-8.7451-3.5449-1.8457-7.9253-2.8418-13.1396-2.9883-4.6294-.1758-8.5693-1.1865-11.8213-3.0322-4.1602-2.373-6.2402-5.7715-6.2402-10.1953,0-5.2148,2.959-9.9756,8.877-14.2822,5.6538-4.0723,11.4985-6.1084,17.5342-6.1084,2.8413,0,6.0493.4834,9.624,1.4502,4.7461,1.2598,7.1191,2.8711,7.1191,4.834,0,2.5781-1.3184,3.8672-3.9551,3.8672-1.1719,0-3.2231-.3145-6.1523-.9453-2.9297-.6289-5.2007-.9297-6.8115-.9004-4.5703.0586-8.4526,1.1865-11.6455,3.3838-3.2812,2.2559-4.9219,4.9951-4.9219,8.2178,0,2.4316,2.168,4.1455,6.5039,5.1416,1.6108.3809,4.731.7324,9.3604,1.0547,6.7085.498,11.9531,2.6074,15.7324,6.3281,3.4565,3.3984,5.1855,7.5439,5.1855,12.4365,0,6.9727-3.2231,12.5391-9.668,16.6992-5.5962,3.6035-12.085,5.4053-19.4678,5.4053-5.3613,0-10.2686-1.0254-14.7217-3.0762-5.4492-2.5195-8.2178-5.9766-8.3057-10.3711Z"/>
    <path class="cls-6" d="M937.6916,2653.9301c-2.4023,0-3.8086-1.2744-4.2188-3.8232-.5273-3.2227-1.0547-7.7637-1.582-13.623l-1.4941-13.623c-.293-2.0215-.791-3.999-1.4941-5.9326-.9961-2.6367-2.0806-3.9551-3.252-3.9551-1.084,0-3.1055.9229-6.0645,2.7686-2.8125,1.6992-4.6582,3.0615-5.5371,4.0869-.0293,2.7539.0439,5.5078.2197,8.2617l1.3184,11.7334c.5562,4.6289.835,8.4521.835,11.4697,0,1.2891-.4028,2.3506-1.2085,3.1865-.8062.834-1.8389,1.252-3.0981,1.252s-2.2925-.418-3.0981-1.252c-.8062-.8359-1.2085-1.8975-1.2085-3.1865,0-3.5449-.3589-8.7812-1.0767-15.71-.7183-6.9287-1.0767-12.166-1.0767-15.7109,0-3.1055-.4395-5.5225-1.3184-7.251-2.0508.9375-4.1309,2.4609-6.2402,4.5703l-5.1855,5.8008c-.4688.7031-1.2158,1.626-2.2412,2.7686,0,1.7578-.1611,4.3506-.4834,7.7783-.3228,3.4277-.4834,5.9619-.4834,7.6025,0,.8789.1387,2.1094.4175,3.6914.2783,1.582.4175,2.7246.4175,3.4277,0,1.2012-.4468,2.2119-1.3403,3.0322-.894.8203-1.9409,1.2305-3.1421,1.2305-3.311,0-4.9658-3.7646-4.9658-11.2939,0-1.7578.1606-4.3799.4834-7.8662.3223-3.4863.4834-6.1084.4834-7.8662,0-1.5527-.1392-3.8818-.4175-6.9873-.2788-3.1055-.4175-5.4492-.4175-7.0312,0-6.6504,1.4941-9.9756,4.4824-9.9756,1.1426,0,2.1899.498,3.1421,1.4941.9517.9961,1.4282,2.0801,1.4282,3.252,0,.5566-.0732,1.4209-.2197,2.5928-.147,1.1719-.2197,2.0654-.2197,2.6807l.0879,4.6143c1.5229-3.1348,3.7642-5.9688,6.7236-8.5029,2.959-2.5342,5.478-3.8018,7.5586-3.8018,4.5991,0,7.7632,2.2852,9.4922,6.8555,1.6108-2.1387,3.5303-3.7422,5.7568-4.8115,2.2261-1.0693,4.7749-1.6045,7.6465-1.6045,4.8926,0,8.2324,2.6367,10.0195,7.9102.3516,1.0547.9517,5.1709,1.8018,12.3486.8198,5.0391,1.8745,13.4326,3.1641,25.1807.0879,1.1719-.3076,2.168-1.1865,2.9883s-1.9487,1.2305-3.208,1.2305Z"/>
    <path class="cls-6" d="M986.1194,2653.1831c-.5566,0-1.5674-.6445-3.0322-1.9336-1.3184-1.2012-2.3003-2.2705-2.9443-3.208-2.8125,1.5234-5.2886,2.6729-7.4268,3.4502-2.1387.7754-3.9263,1.1641-5.3613,1.1641-6.8555,0-11.8506-1.9336-14.9854-5.8008-2.9595-3.6328-4.4385-9.1992-4.4385-16.6992,0-7.0898,2.439-13.1543,7.3169-18.1934s10.7007-7.5586,17.4683-7.5586c2.5488,0,5.4053.6592,8.5693,1.9775,3.9839,1.6406,5.9766,3.6182,5.9766,5.9326,0,.791-.293,1.4941-.8789,2.1094-.293,1.1133-.5205,2.9443-.6812,5.4932-.1611,2.5488-.2568,5.8154-.2856,9.7998-.0293,3.6328.2197,6.5039.7471,8.6133.2925,1.2891,1.2153,3.8672,2.7686,7.7344.2046.5273.542,1.3037,1.0107,2.3291l.2637.7471c0,1.1719-.4106,2.1387-1.2305,2.9004-.8203.7617-1.7729,1.1426-2.8564,1.1426ZM976.9787,2622.6411c0-1.2598.0806-2.6289.2417-4.1084.1606-1.4795.4023-3.0547.7251-4.7246-1.084-.5566-2.0146-.9668-2.7905-1.2305-.7764-.2637-1.3994-.3955-1.8677-.3955-4.5415,0-8.4595,1.8535-11.7554,5.5596s-4.9438,7.9756-4.9438,12.8096c0,4.8047.8496,8.4082,2.5488,10.8105,1.6987,2.4023,4.2476,3.6035,7.6465,3.6035,2.8125,0,5.2002-.5127,7.1631-1.5381,1.0547-.5566,2.5337-1.6699,4.4385-3.3398-.938-7.7637-1.4062-13.5791-1.4062-17.4463Z"/>
    <path class="cls-6" d="M1032.0422,2617.8071c-.2051,3.6621-1.6699,5.4932-4.3945,5.4932-2.52,0-3.7793-1.4502-3.7793-4.3506,0-.5566-.0439-1.582-.1318-3.0762l-.1318-3.6914c-4.6294.5566-8.335,1.8604-11.1182,3.9111-2.6079,1.9043-4.7754,4.7754-6.5039,8.6133l.0879,24.082c0,2.959-1.4502,4.4385-4.3506,4.4385-2.5781,0-3.8672-1.4795-3.8672-4.4385v-30.8496c0-.9668.0366-2.417.1099-4.3506.0728-1.9336.1099-3.3838.1099-4.3506,0-2.959,1.2891-4.4385,3.8672-4.4385,2.8711,0,4.3213,2.4316,4.3506,7.2949,5.625-5.4199,11.8652-8.1299,18.7207-8.1299,2.373,0,4.1455.8936,5.3174,2.6807,1.1714,1.7871,1.7578,4.4824,1.7578,8.0859,0,1.5234-.0151,2.5488-.0439,3.0762Z"/>
    <path class="cls-6" d="M1070.4944,2612.8413c-.6152,0-1.3403-.0293-2.1753-.0879s-1.5601-.0879-2.1753-.0879c-.6743,0-2.666.2197-5.9766.6592l.835,25.9717.0439,1.9336.0439,2.2412c.1167,6.416-1.4214,9.624-4.6143,9.624-1.1719,0-2.1904-.3809-3.0542-1.1426-.8643-.7617-1.2964-1.7139-1.2964-2.8564,0-1.1133.0439-2.7832.1318-5.0098s.1318-3.8965.1318-5.0098l-.8789-25.6641c-2.1387-.0879-5.3906-.3369-9.7559-.7471-2.6079-.3516-3.9111-1.8018-3.9111-4.3506,0-1.2891.3955-2.3584,1.1865-3.208s1.8018-1.2744,3.0322-1.2744l9.2285.7471c0-1.4941-.0659-3.4941-.1978-5.998-.1318-2.5059-.1978-4.3145-.1978-5.4277,0-1.2305.4243-2.248,1.2744-3.0547.8496-.8047,1.8896-1.208,3.1201-1.208,2.6367,0,4.1748,2.1533,4.6143,6.46.0879,1.084.1318,2.3877.1318,3.9111l-.0879,2.5488-.0439,2.7246c3.6323-.4688,5.7129-.7031,6.2402-.7031,3.0469,0,5.0386.1465,5.9766.4395,1.7866.5859,2.6807,1.9629,2.6807,4.1309,0,1.2891-.4028,2.3506-1.2085,3.1865-.8062.834-1.8389,1.252-3.0981,1.252Z"/>
    <path class="cls-6" d="M1104.0246,2652.3042c-6.6211,0-11.9824-1.6553-16.084-4.9658-4.4824-3.6621-6.7236-8.7891-6.7236-15.3809,0-7.6172,1.8457-14.0039,5.5371-19.1602,4.0137-5.625,9.375-8.4375,16.084-8.4375,4.8628,0,8.833.8203,11.9092,2.4609,3.7793,2.0215,5.6689,5.127,5.6689,9.3164,0,2.9297-1.6553,5.5957-4.9658,7.998-1.4653,1.0547-4.5703,2.6953-9.3164,4.9219l-16.7871,7.9541c1.6406,2.4316,3.6841,4.2627,6.1304,5.4932,2.4458,1.2305,5.2954,1.8457,8.5474,1.8457,2.0215,0,4.3945-.3809,7.1191-1.1426,3.4565-.9668,5.6836-2.2334,6.6797-3.8018.9956-1.5664,2.0654-2.3506,3.208-2.3506,1.0254,0,1.9404.3887,2.7466,1.165.8057.7764,1.2085,1.6768,1.2085,2.7021,0,3.252-2.6221,6.0498-7.8662,8.3936-4.4824,1.9922-8.8481,2.9883-13.0957,2.9883ZM1102.8381,2612.27c-3.5747,0-6.5479,1.3838-8.9209,4.1533-2.373,2.7676-4.146,6.9355-5.3174,12.502l13.4912-6.416c5.3022-2.5781,9.0815-4.8193,11.3379-6.7236-2.52-2.3438-6.0498-3.5156-10.5908-3.5156Z"/>
    <path class="cls-6" d="M1166.9983,2617.8071c-.2051,3.6621-1.6699,5.4932-4.3945,5.4932-2.52,0-3.7793-1.4502-3.7793-4.3506,0-.5566-.0439-1.582-.1318-3.0762l-.1318-3.6914c-4.6294.5566-8.335,1.8604-11.1182,3.9111-2.6079,1.9043-4.7754,4.7754-6.5039,8.6133l.0879,24.082c0,2.959-1.4502,4.4385-4.3506,4.4385-2.5781,0-3.8672-1.4795-3.8672-4.4385v-30.8496c0-.9668.0366-2.417.1099-4.3506.0728-1.9336.1099-3.3838.1099-4.3506,0-2.959,1.2891-4.4385,3.8672-4.4385,2.8711,0,4.3213,2.4316,4.3506,7.2949,5.625-5.4199,11.8652-8.1299,18.7207-8.1299,2.373,0,4.1455.8936,5.3174,2.6807,1.1714,1.7871,1.7578,4.4824,1.7578,8.0859,0,1.5234-.0151,2.5488-.0439,3.0762Z"/>
    <path class="cls-6" d="M1181.676,2654.3696c-1.5234,0-2.8125-.5273-3.8672-1.582s-1.582-2.3438-1.582-3.8672c0-1.4941.5273-2.7754,1.582-3.8447s2.3438-1.6045,3.8672-1.6045c1.4941,0,2.7754.5352,3.8452,1.6045,1.0693,1.0693,1.604,2.3506,1.604,3.8447,0,1.5234-.5347,2.8125-1.604,3.8672-1.0698,1.0547-2.3511,1.582-3.8452,1.582Z"/>
  </g>
  <line class="cls-2" x1="848.6554" y1="290.1007" x2="906.5637" y2="348.009"/>
  <line class="cls-2" x1="906.5637" y1="348.009" x2="987.899" y2="338.4538"/>
  <path class="cls-10" d="M359.55,2108.3381c19.3368,41.139,1.6626,90.1642-39.4764,109.501-41.139,19.3368-90.1642,1.6626-109.501-39.4764-19.3368-41.139-1.6626-90.1642,39.4764-109.501"/>
  <path class="cls-10" d="M380.0805,2158.1207c-8.1574,52.4776-57.3118,88.4063-109.7894,80.2489-52.4776-8.1574-88.4063-57.3118-80.2489-109.7894,8.1574-52.4776,57.3118-88.4063,109.7894-80.2489"/>
  <line class="cls-16" x1="305.0293" y1="2082.4067" x2="286.7822" y2="2144.477"/>
  <line class="cls-16" x1="286.7822" y1="2144.477" x2="324.1846" y2="2197.2666"/>
  <ellipse class="cls-11" cx="652.2262" cy="1779.0167" rx="80.8342" ry="28.1127" transform="translate(-320.7259 153.082) rotate(-10.7621)"/>
  <rect class="cls-28" x="642.4619" y="1774.4227" width="58.7189" height="9.188" rx="4.594" ry="4.594"/>
  <path class="cls-3" d="M629.5048,1791.2212v-1.4944c-1.657-.0285-3.3613-.4581-4.5869-1.0939-.4187-.2172-.6045-.7167-.4454-1.1607l.1859-.5188c.1901-.5306.7995-.7871,1.3049-.5376,1.1419.5637,2.5597.9581,4.0607.9581,2.457,0,4.1179-1.4189,4.1179-3.3913,0-1.9032-1.3496-3.0798-3.9103-4.1179-3.5297-1.3842-5.7099-2.9761-5.7099-5.9866,0-2.8722,2.0417-5.0523,5.2254-5.5714v-1.6691c0-.2515.2039-.4554.4554-.4554h1.2346c.2515,0,.4554.2039.4554.4554v1.5307c1.526.0508,2.6968.3633,3.6086.759.5087.2207.7601.7953.5637,1.3139l-.1334.3522c-.209.5518-.8345.8115-1.3757.5764-.7992-.3472-1.919-.6831-3.3899-.6831-2.6646,0-3.668,1.5919-3.668,2.9761,0,1.7995,1.2803,2.6992,4.2911,3.9449,3.5643,1.4533,5.3636,3.2528,5.3636,6.3326,0,2.7338-1.9032,5.2945-5.4675,5.8829v1.5981c0,.3481-.2822.6303-.6303.6303h-.9195c-.3481,0-.6303-.2822-.6303-.6303Z"/>
  <path class="cls-14" d="M675.5459,1096.085s10.4155,21.699,25.1708,28.6427c14.7553,6.9437,52.9456-90.2679,52.9456-90.2679"/>
  <g>
    <g>
      <path class="cls-9" d="M650.8327,1070.139c-11.1873,21.9596-6.9856,49.5215,12.0004,67.0803,20.3093,18.7826,50.7102,19.8073,72.1028,3.8258"/>
      <polygon class="cls-28" points="639.7383 1074.2656 650.2043 1071.3213 653.1424 1081.789 656.3365 1076.0982 653.3962 1065.6346 642.9324 1068.5748 639.7383 1074.2656"/>
    </g>
    <g>
      <path class="cls-9" d="M751.5291,1121.3707c11.187-21.9596,6.9854-49.5214-12.0005-67.0803-20.3093-18.7826-50.7102-19.8073-72.1028-3.8258"/>
      <polygon class="cls-28" points="762.6234 1117.2441 752.1575 1120.1883 749.2193 1109.7206 746.0252 1115.4114 748.9656 1125.8751 759.4293 1122.9349 762.6234 1117.2441"/>
    </g>
  </g>
</svg>