<?xml version="1.0" encoding="UTF-8"?>
<svg id="Layer_1" xmlns="http://www.w3.org/2000/svg" viewBox="0 0 1931.9721 1516.9402">
  <defs>
    <style>
      .cls-1, .cls-2, .cls-3, .cls-4, .cls-5, .cls-6, .cls-7, .cls-8, .cls-9, .cls-10, .cls-11, .cls-12, .cls-13, .cls-14, .cls-15, .cls-16 {
        stroke-miterlimit: 10;
      }

      .cls-1, .cls-2, .cls-3, .cls-4, .cls-5, .cls-7, .cls-8, .cls-11, .cls-12, .cls-17, .cls-13, .cls-14, .cls-15, .cls-16 {
        fill: none;
        stroke-linecap: round;
      }

      .cls-1, .cls-17 {
        stroke: #011e2b;
        stroke-width: 8px;
      }

      .cls-2 {
        stroke-width: 9.8606px;
      }

      .cls-2, .cls-4, .cls-6, .cls-7, .cls-9, .cls-10, .cls-11, .cls-12, .cls-14, .cls-15, .cls-16 {
        stroke: #272730;
      }

      .cls-18 {
        fill: #e5a628;
      }

      .cls-3 {
        stroke: #e52020;
        stroke-width: 3.0428px;
      }

      .cls-19 {
        fill: #98e2a9;
      }

      .cls-20 {
        fill: #b0b0ea;
      }

      .cls-4 {
        stroke-width: 7.1324px;
      }

      .cls-21, .cls-6 {
        fill: #fff;
      }

      .cls-22 {
        fill: #ccffd8;
      }

      .cls-23 {
        fill: #c4495b;
      }

      .cls-24 {
        fill: #f0ff83;
      }

      .cls-5 {
        stroke-width: 3.1915px;
      }

      .cls-5, .cls-13 {
        stroke: #3cce77;
      }

      .cls-6 {
        stroke-width: 19.9265px;
      }

      .cls-25 {
        fill: #19a364;
      }

      .cls-7 {
        stroke-width: 6.7663px;
      }

      .cls-26 {
        fill: #1aa096;
      }

      .cls-8 {
        stroke: #000;
        stroke-width: 4.7873px;
      }

      .cls-9 {
        stroke-width: 8.9155px;
      }

      .cls-9, .cls-10, .cls-27 {
        fill: #272730;
      }

      .cls-10 {
        stroke-width: 1.7131px;
      }

      .cls-28 {
        fill: #a643ed;
      }

      .cls-11 {
        stroke-width: 10.512px;
      }

      .cls-12 {
        stroke-width: 10.9465px;
      }

      .cls-17 {
        stroke-linejoin: round;
      }

      .cls-29 {
        fill: #011e2b;
      }

      .cls-13 {
        stroke-width: 7.9975px;
      }

      .cls-14 {
        stroke-width: 7.11px;
      }

      .cls-15 {
        stroke-width: 12.4817px;
      }

      .cls-16 {
        stroke-width: 9px;
      }
    </style>
  </defs>
  <path class="cls-20" d="M1603.8555,1430.1074c59.5311-38.9991,83.5371-55.1232,50.6002-107.0358-80.996-127.6596-278.0669-508.4594-265.5819-939.904C1404.962-172.7877,370.8975-64.6365,159.6208,736.6354c-211.2767,801.272,1144.5064,772.5084,1144.5064,772.5084,0,0,191.3341-8.0269,299.7283-79.0364Z"/>
  <path class="cls-22" d="M1638.9032,1434.2176c59.5311-38.9991,83.5371-55.1232,50.6002-107.0358-80.996-127.6596-278.0669-508.4594-265.5819-939.904C1440.0097-168.6775,405.9453-60.5264,194.6685,740.7456c-211.2767,801.272,1144.5064,772.5084,1144.5064,772.5084,0,0,191.3341-8.0269,299.7283-79.0364Z"/>
  <g>
    <g>
      <path class="cls-20" d="M1312.5516,1250.046c-5.4873,0-11.0068-.5908-16.4062-1.7549l-268.5273-57.9268c-42.1465-9.0928-69.0381-50.7773-59.9463-92.9229l166.3955-771.3511c7.7129-35.752,39.8926-61.7007,76.5156-61.7007,5.4873,0,11.0068.5903,16.4062,1.7554l268.5273,57.9268c20.3301,4.3857,37.7812,16.4956,49.1367,34.0986,11.3564,17.603,15.1953,38.4937,10.8096,58.8237l-166.3955,771.3506c-7.7129,35.752-39.8926,61.7012-76.5156,61.7012Z"/>
      <path class="cls-29" d="M1210.5835,262.7941v3.1914h.0007c5.3733,0,10.7795.5786,16.069,1.7196l268.5272,57.9266c19.9133,4.2958,37.0071,16.1587,48.1318,33.4037,11.1252,17.2449,14.8862,37.7087,10.5906,57.6222l-166.396,771.3508c-7.5551,35.0222-39.0782,60.4418-74.9552,60.4418-5.3745,0-10.7814-.5786-16.0708-1.7196l-268.5273-57.9266c-19.9133-4.2958-37.0068-16.1587-48.1318-33.4037-11.1249-17.2448-14.886-37.7087-10.5902-57.6222l166.3959-771.3508c7.5546-35.021,39.0778-60.4404,74.9552-60.4418l.001-3.1914M1210.5824,262.7941c-36.7404.0012-70.0316,25.6743-78.0748,62.9602l-166.3959,771.3508c-9.2537,42.8965,18.2723,85.5649,61.1689,94.8185l268.5273,57.9268c5.6107,1.2103,11.215,1.7913,16.7437,1.7913,36.7405,0,70.0316-25.6744,78.075-62.9602l166.3959-771.3508c9.2537-42.8965-18.2725-85.5648-61.1689-94.8185l-268.5275-57.9268c-5.6107-1.2103-11.215-1.7915-16.7437-1.7913h0Z"/>
    </g>
    <g>
      <path class="cls-21" d="M1203.7771,483.0651c-2.8838,0-5.7852-.3105-8.6221-.9229-10.6846-2.3047-19.8555-8.6689-25.8242-17.9209s-7.9863-20.231-5.6816-30.915c4.0537-18.7896,20.9658-32.4272,40.2139-32.4272,2.8838,0,5.7852.3105,8.6221.9229,10.6846,2.3047,19.8555,8.6689,25.8242,17.9209s7.9863,20.231,5.6816,30.9146c-4.0537,18.79-20.9658,32.4277-40.2139,32.4277Z"/>
      <path d="M1203.8647,399.2833v3.1915s.0006,0,.0006,0c2.7695,0,5.5566.2983,8.2839.8867,10.2671,2.2148,19.0812,8.3325,24.8186,17.2262,5.7375,8.8938,7.6775,19.4462,5.4626,29.7134-3.8959,18.0599-20.1522,31.168-38.6539,31.168-2.7706,0-5.5583-.2983-8.2856-.8867-10.2671-2.2148-19.0812-8.3325-24.8186-17.2262-5.7375-8.8938-7.6775-19.4462-5.4626-29.7134,3.8958-18.0592,20.1521-31.1674,38.6541-31.168l.001-3.1915M1203.8636,399.2833c-19.6578.0007-37.4702,13.7371-41.7737,33.6865h-.0001c-4.951,22.9518,9.7766,45.7812,32.7281,50.7323h.0001c3.0021.6477,6.0004.9585,8.9585.9585,19.6578,0,37.4702-13.7371,41.7737-33.6865h.0001c4.951-22.9518-9.7766-45.7812-32.7281-50.7323h-.0001c-3.0021-.6477-6.0004-.9586-8.9585-.9585h0Z"/>
    </g>
    <path class="cls-13" d="M1186.5709,442.542s4.2648,17.8084,14.1243,25.3396c9.8595,7.5312,53.8571-58.6378,53.8571-58.6378"/>
    <g>
      <path class="cls-21" d="M1171.8377,631.1237c-2.8838,0-5.7842-.3105-8.6221-.9229-10.6836-2.3047-19.8545-8.6689-25.8232-17.9209s-7.9873-20.231-5.6826-30.9146c4.0537-18.79,20.9658-32.4277,40.2139-32.4277,2.8838,0,5.7852.3105,8.6221.9229,10.6846,2.3047,19.8555,8.6689,25.8242,17.9209s7.9863,20.231,5.6816,30.915c-4.0537,18.7896-20.9658,32.4272-40.2139,32.4272Z"/>
      <path d="M1171.9256,547.3421v3.1915c2.7697,0,5.5569.2983,8.2843.8867,10.2671,2.2148,19.0813,8.3325,24.8187,17.2262,5.7375,8.8938,7.6775,19.4462,5.4626,29.7134-3.8959,18.0599-20.1522,31.168-38.6539,31.168-2.7706,0-5.5582-.2982-8.2856-.8866-21.2898-4.5927-34.8739-25.6498-30.2814-46.9397,3.8958-18.0593,20.1521-31.1674,38.6539-31.168l.0013-3.1915M1171.9242,547.3421c-19.6578.0007-37.4701,13.7371-41.7737,33.6865h0c-4.951,22.9518,9.7766,45.7812,32.7281,50.7324h.0001c3.0021.6476,6.0004.9584,8.9585.9584,19.6577,0,37.4702-13.7371,41.7737-33.6865h0c4.9512-22.9518-9.7765-45.7812-32.7281-50.7323-3.0021-.6476-6.0006-.9585-8.9586-.9585h0Z"/>
    </g>
    <path class="cls-13" d="M1154.6317,590.6007s4.2648,17.8084,14.1243,25.3396c9.8595,7.5312,53.8571-58.6378,53.8571-58.6378"/>
    <g>
      <path class="cls-21" d="M1139.8982,779.1818c-2.8838,0-5.7842-.3096-8.6221-.9219-22.1504-4.7783-36.2832-26.6865-31.5049-48.8359,4.0537-18.79,20.9658-32.4272,40.2139-32.4272,2.8838,0,5.7842.3101,8.6211.9224,10.6846,2.3047,19.8555,8.6689,25.8242,17.9209s7.9863,20.2314,5.6816,30.915c-4.0537,18.79-20.9658,32.4268-40.2139,32.4268Z"/>
      <path d="M1139.9864,695.4008v3.1915c2.7697,0,5.5569.2983,8.2843.8867,10.2671,2.2148,19.0813,8.3325,24.8187,17.2263,5.7375,8.8937,7.6775,19.446,5.4626,29.7133-3.896,18.0599-20.1522,31.168-38.6539,31.168-2.7706,0-5.5582-.2982-8.2856-.8866-21.2899-4.5928-34.874-25.6497-30.2814-46.9396,3.8958-18.0593,20.1521-31.1674,38.6539-31.1681l.0013-3.1915M1139.985,695.4008c-19.6578.0007-37.4701,13.7371-41.7737,33.6866-4.9512,22.9517,9.7766,45.7811,32.7281,50.7323h.0001c3.0021.6476,6.0004.9584,8.9585.9584,19.6577,0,37.4701-13.7371,41.7737-33.6865h0c4.9512-22.9517-9.7765-45.7812-32.7281-50.7323-3.0021-.6476-6.0006-.9585-8.9586-.9585h0Z"/>
    </g>
    <path class="cls-13" d="M1122.6924,738.6595s4.2648,17.8084,14.1243,25.3396c9.8595,7.5312,53.8571-58.6378,53.8571-58.6378"/>
    <g>
      <path class="cls-21" d="M1107.9598,927.2404c-2.8838,0-5.7852-.3096-8.6221-.9219-10.6846-2.3047-19.8555-8.6699-25.8242-17.9209-5.9688-9.252-7.9863-20.2305-5.6816-30.9141,4.0537-18.79,20.9658-32.4277,40.2139-32.4277,2.8838,0,5.7842.3096,8.6221.9219,22.1504,4.7783,36.2822,26.6865,31.5049,48.8359-4.0537,18.79-20.9658,32.4268-40.2129,32.4268Z"/>
      <path d="M1108.0457,846.651c2.7705,0,5.5582.2983,8.2858.8867,10.2671,2.2148,19.0813,8.3325,24.8187,17.2263,5.7375,8.8937,7.6775,19.446,5.4626,29.7133-3.896,18.0599-20.1522,31.168-38.6539,31.168-2.7706,0-5.5582-.2982-8.2856-.8866-10.2671-2.2148-19.0813-8.3326-24.8187-17.2263-5.7375-8.8938-7.6775-19.446-5.4626-29.7133,3.8959-18.0599,20.1522-31.1681,38.6538-31.1681M1108.0457,843.4595c-19.6577,0-37.47,13.7371-41.7736,33.6866-4.9512,22.9517,9.7765,45.7811,32.7281,50.7323h.0001c3.0021.6476,6.0004.9584,8.9585.9584,19.6577,0,37.4701-13.7371,41.7737-33.6865h0c4.9512-22.9517-9.7765-45.7812-32.7281-50.7323h-.0001c-3.0021-.6476-6.0005-.9585-8.9586-.9585h0Z"/>
    </g>
    <path class="cls-13" d="M1090.7532,886.7182s4.2648,17.8084,14.1243,25.3396c9.8595,7.5312,53.8571-58.6378,53.8571-58.6378"/>
    <g>
      <path class="cls-21" d="M1079.4852,1059.2345c-2.8838,0-5.7842-.3096-8.6221-.9219-22.1504-4.7783-36.2832-26.6855-31.5049-48.835,4.0537-18.79,20.9658-32.4277,40.2139-32.4277,2.8838,0,5.7842.3096,8.6221.9219,22.1504,4.7783,36.2832,26.6865,31.5049,48.8359-4.0537,18.79-20.9658,32.4268-40.2139,32.4268Z"/>
      <path d="M1079.5719,978.6452c2.7705,0,5.5582.2983,8.2858.8867,21.2898,4.5927,34.8739,25.6497,30.2814,46.9396-3.8959,18.0599-20.1522,31.1681-38.6539,31.1681-2.7705,0-5.5582-.2983-8.2856-.8867-10.2671-2.2148-19.0813-8.3326-24.8187-17.2263-5.7375-8.8938-7.6775-19.446-5.4626-29.7133,3.8959-18.0599,20.1521-31.1681,38.6538-31.1681M1079.5719,975.4536c-19.6577,0-37.4701,13.7371-41.7736,33.6866h0c-4.9512,22.9517,9.7765,45.7811,32.7281,50.7323,3.0021.6476,6.0006.9585,8.9586.9585,19.6578,0,37.4701-13.7371,41.7737-33.6866h0c4.951-22.9517-9.7766-45.7811-32.7281-50.7323h-.0001c-3.0021-.6476-6.0005-.9585-8.9586-.9585h0Z"/>
    </g>
    <path class="cls-13" d="M1062.2794,1018.7124s4.2648,17.8084,14.1243,25.3396c9.8595,7.5312,53.8571-58.6378,53.8571-58.6378"/>
    <line class="cls-8" x1="1332.6097" y1="441.2197" x2="1465.3257" y2="469.8492"/>
    <line class="cls-8" x1="1328.4606" y1="460.4534" x2="1401.7583" y2="476.2652"/>
    <line class="cls-8" x1="1364.9806" y1="488.4602" x2="1457.0275" y2="508.3166"/>
    <line class="cls-8" x1="1300.6705" y1="589.2785" x2="1433.3865" y2="617.908"/>
    <line class="cls-8" x1="1296.5214" y1="608.5121" x2="1369.819" y2="624.3239"/>
    <line class="cls-8" x1="1333.0414" y1="636.519" x2="1425.0883" y2="656.3753"/>
    <line class="cls-8" x1="1268.7313" y1="737.3372" x2="1401.4472" y2="765.9667"/>
    <line class="cls-8" x1="1264.5822" y1="756.5709" x2="1337.8798" y2="772.3826"/>
    <line class="cls-8" x1="1301.1022" y1="784.5777" x2="1393.1491" y2="804.434"/>
    <line class="cls-8" x1="1236.792" y1="885.3959" x2="1369.508" y2="914.0254"/>
    <line class="cls-8" x1="1232.6429" y1="904.6296" x2="1305.9406" y2="920.4414"/>
    <line class="cls-8" x1="1269.1629" y1="932.6364" x2="1361.2098" y2="952.4928"/>
    <line class="cls-8" x1="1208.3182" y1="1017.3901" x2="1341.0342" y2="1046.0196"/>
    <line class="cls-8" x1="1204.1692" y1="1036.6238" x2="1277.4668" y2="1052.4355"/>
    <line class="cls-8" x1="1240.6891" y1="1064.6306" x2="1332.736" y2="1084.487"/>
  </g>
  <g>
    <path class="cls-6" d="M1053.0608,1095.8707l-158.4624-805.1202c-6.4925-32.9875-28.1817-42.8351-52.6161-38.026l-359.4543,70.7472c-24.4344,4.8091-42.7287,22.5263-36.2362,55.5137l158.3862,804.733c.3687,1.8733,2.0414,2.8487,3.1631,1.8445l38.634-34.5871c6.154-5.5094,14.0861-7.0792,21.8708-4.3284l40.2294,14.2154c7.5891,2.6817,15.3273,1.2597,21.4224-3.9367l35.6076-30.3571c7.4615-6.3612,17.2841-6.9944,26.185-1.6879l16.87,10.0575c9.8974,5.9006,20.8428,4.416,28.429-3.856l18.0719-19.7055c7.7412-8.4409,18.9639-9.8012,28.9889-3.5136l13.7766,8.6405c10.1188,6.3464,21.4484,4.897,29.1888-3.7341l22.5687-25.1658c5.6657-6.3177,13.3673-8.8894,21.234-7.0905l80.1035,18.3177c1.3525.3093,2.3872-1.193,2.0392-2.9607Z"/>
    <g>
      <g>
        <line class="cls-12" x1="601.1186" y1="875.2953" x2="852.5413" y2="825.8103"/>
        <line class="cls-12" x1="611.6448" y1="928.7769" x2="750.5029" y2="901.4468"/>
        <line class="cls-12" x1="699.2162" y1="967.0944" x2="873.5937" y2="932.7735"/>
        <line class="cls-12" x1="581.6359" y1="776.3071" x2="720.494" y2="748.9771"/>
        <line class="cls-12" x1="669.2073" y1="814.6247" x2="843.5848" y2="780.3037"/>
      </g>
      <rect class="cls-27" x="910.9867" y="699.0648" width="27.6218" height="19.4038" rx="5.4661" ry="5.4661" transform="translate(-119.4644 191.9323) rotate(-11.1345)"/>
      <rect class="cls-27" x="921.5128" y="752.5462" width="27.6218" height="19.4038" rx="5.4661" ry="5.4661" transform="translate(-129.5942 194.9717) rotate(-11.1345)"/>
      <rect class="cls-27" x="932.039" y="806.0277" width="27.6218" height="19.4038" rx="5.4661" ry="5.4661" transform="translate(-139.724 198.0112) rotate(-11.1345)"/>
      <rect class="cls-27" x="942.5651" y="859.5091" width="27.6218" height="19.4038" rx="5.4661" ry="5.4661" transform="translate(-149.8539 201.0506) rotate(-11.1345)"/>
      <rect class="cls-27" x="953.0912" y="912.9906" width="27.6218" height="19.4038" rx="5.4661" ry="5.4661" transform="translate(-159.9837 204.0901) rotate(-11.1345)"/>
      <g>
        <g>
          <line class="cls-12" x1="548.488" y1="607.888" x2="799.9107" y2="558.403"/>
          <line class="cls-12" x1="559.0142" y1="661.3696" x2="697.8723" y2="634.0395"/>
          <line class="cls-12" x1="646.5855" y1="699.6871" x2="820.9631" y2="665.3662"/>
          <line class="cls-12" x1="529.0053" y1="508.8998" x2="667.8634" y2="481.5698"/>
          <line class="cls-12" x1="616.5766" y1="547.2174" x2="790.9542" y2="512.8964"/>
        </g>
        <rect class="cls-27" x="858.3561" y="431.6575" width="27.6218" height="19.4038" rx="5.4661" ry="5.4661" transform="translate(-68.8151 176.7351) rotate(-11.1345)"/>
        <rect class="cls-27" x="868.8822" y="485.1389" width="27.6218" height="19.4038" rx="5.4661" ry="5.4661" transform="translate(-78.945 179.7745) rotate(-11.1345)"/>
        <rect class="cls-27" x="879.4083" y="538.6204" width="27.6218" height="19.4038" rx="5.4661" ry="5.4661" transform="translate(-89.0748 182.814) rotate(-11.1345)"/>
        <rect class="cls-27" x="889.9344" y="592.1018" width="27.6218" height="19.4038" rx="5.4661" ry="5.4661" transform="translate(-99.2047 185.8534) rotate(-11.1345)"/>
        <rect class="cls-27" x="900.4606" y="645.5833" width="27.6218" height="19.4038" rx="5.4661" ry="5.4661" transform="translate(-109.3345 188.8929) rotate(-11.1345)"/>
      </g>
    </g>
  </g>
  <g>
    <g>
      <path class="cls-19" d="M956.0672,359.0309h274.7046c43.1553,0,78.1919,35.0366,78.1919,78.1919v789.0947c0,43.155-35.0364,78.1914-78.1914,78.1914h-274.7056c-43.155,0-78.1914-35.0364-78.1914-78.1914V437.2228c0-43.1553,35.0366-78.1919,78.1919-78.1919Z"/>
      <path class="cls-29" d="M1230.7719,360.6265c20.3715,0,39.5822,7.9918,54.0935,22.5031,14.5111,14.5112,22.5028,33.7219,22.5028,54.0934v789.0942c0,20.3713-7.9917,39.5822-22.5028,54.0931-14.5114,14.5115-33.722,22.5032-54.0935,22.5032h-274.7043c-20.3715,0-39.5822-7.9917-54.0934-22.5032-14.5112-14.511-22.5028-33.7218-22.5028-54.0931V437.2229c0-20.3715,7.9916-39.5823,22.5028-54.0934,14.5112-14.5112,33.7219-22.5031,54.0934-22.5031h274.7043M1230.7719,357.4351h-274.7043c-43.8833,0-79.7877,35.9045-79.7877,79.7878v789.0942c0,43.8832,35.9044,79.7877,79.7877,79.7877h274.7043c43.8833,0,79.7878-35.9045,79.7878-79.7877V437.2229c0-43.8833-35.9045-79.7878-79.7878-79.7878h0Z"/>
    </g>
    <line class="cls-8" x1="1092.313" y1="497.1847" x2="1228.0819" y2="497.1847"/>
    <line class="cls-8" x1="1092.313" y1="516.8608" x2="1167.2967" y2="516.8608"/>
    <line class="cls-8" x1="1133.9176" y1="536.537" x2="1228.0819" y2="536.537"/>
    <line class="cls-8" x1="934.5475" y1="716.714" x2="1070.3163" y2="716.714"/>
    <line class="cls-8" x1="934.5475" y1="736.3901" x2="1009.5312" y2="736.3901"/>
    <line class="cls-8" x1="976.1521" y1="756.0662" x2="1070.3163" y2="756.0662"/>
    <line class="cls-8" x1="1024.4286" y1="1157.1286" x2="1160.1975" y2="1157.1286"/>
    <line class="cls-8" x1="1024.4286" y1="1176.8047" x2="1099.4123" y2="1176.8047"/>
    <line class="cls-8" x1="1066.0332" y1="1196.4809" x2="1160.1975" y2="1196.4809"/>
    <g>
      <path class="cls-23" d="M948.1111,558.8283c-2.5-.0005-4.7266-1.3623-5.8096-3.5547-12.209-24.7002-6.0361-54.3618,15.0117-72.1328,10.7422-9.0693,24.4092-14.064,38.4834-14.064,12.748,0,24.9014,3.9272,35.1465,11.3579,1.5908,1.1543,2.5459,2.96,2.6191,4.9536.0762,2.0586-.7812,4-2.3506,5.3252l-12.1328,10.2432c-1.21,1.022-2.7334,1.5845-4.29,1.5845-1.0908,0-2.1543-.2842-3.0771-.8218-4.8135-2.8057-10.3213-4.2886-15.9268-4.2886-7.3965,0-14.5664,2.6147-20.1895,7.3628-10.1113,8.5361-13.7627,22.6377-9.0869,35.0898.9307,2.4785.1328,5.3462-1.9863,7.1357l-12.1328,10.2437c-1.1963,1.0093-2.7148,1.5654-4.2773,1.5654h-.001Z"/>
      <path d="M995.7964,470.6724c12.41.0005,24.2393,3.8229,34.209,11.0538,1.192.8646,1.9075,2.2206,1.9626,3.7202.0577,1.5654-.5931,3.0406-1.7855,4.0475l-12.1328,10.2435c-.9227.7791-2.0807,1.2081-3.2606,1.2081-.8086,0-1.595-.2092-2.2742-.6051-5.0574-2.9474-10.8419-4.5054-16.7303-4.5054-7.7729.0005-15.3087,2.749-21.2192,7.7391-10.6251,8.9708-14.4631,23.7877-9.5504,36.8702.6942,1.8484.0823,4.0005-1.5225,5.3553l-12.1328,10.2435c-1.1638.9827-2.4088,1.189-3.2482,1.189-1.8888,0-3.5671-1.0215-4.3799-2.6659-5.6555-11.4421-7.3759-24.6859-4.8442-37.2916,2.6086-12.9891,9.3363-24.3708,19.4557-32.9146,10.4553-8.8273,23.7566-13.6885,37.4534-13.6879M995.7966,467.4809c-13.9761-.0006-28.0201,4.738-39.5123,14.4408-21.9757,18.554-27.6221,49.359-15.4137,74.059,1.4247,2.8823,4.3026,4.4432,7.241,4.4432,1.8629,0,3.7496-.627,5.3071-1.9419l12.1327-10.2435c2.5818-2.1797,3.6393-5.7529,2.4514-8.916-4.3115-11.4813-1.251-24.9742,8.6216-33.3096h.0001c5.5616-4.6958,12.3766-6.9857,19.1603-6.9862,5.2581-.0002,10.4965,1.3748,15.1232,4.0713,1.2052.7024,2.5436,1.0392,3.8812,1.0392,1.9025,0,3.8037-.6812,5.3196-1.9611l12.1327-10.2435c4.0142-3.3892,3.8906-9.7053-.3622-12.7898-10.6399-7.7172-23.3331-11.6614-36.0826-11.6619h0Z"/>
    </g>
    <g>
      <g>
        <path class="cls-25" d="M1041.6463,562.3654c-1.959,0-3.7373-.8281-5.0059-2.3311l-10.708-12.6821c-1.5498-1.8364-1.9258-4.4424-.9814-6.8013,2.9229-7.3052,3.0342-15.3726.3115-22.7168-.9453-2.5527-.165-5.4639,1.9414-7.2427l12.1367-10.2466c1.1953-1.0088,2.7129-1.5645,4.2734-1.5645,2.5059,0,4.7363,1.3672,5.8232,3.5674,8.9336,18.0879,8.166,39.2939-2.0537,56.7256-1.208,2.0615-3.3525,3.292-5.7373,3.292h0Z"/>
        <path d="M1043.6147,500.3762c1.8934,0,3.5764,1.0261,4.3922,2.6781,8.6941,17.6052,7.9467,38.2454-1.9994,55.2123-.9189,1.5675-2.5493,2.5033-4.3613,2.5033-1.4812,0-2.826-.627-3.7871-1.7651l-10.7073-12.6821c-1.1686-1.384-1.4443-3.3684-.7196-5.1788,3.0707-7.6718,3.1869-16.1469.327-23.8643-.7131-1.9243-.1207-4.1219,1.474-5.4685l12.1366-10.2467c1.163-.9821,2.4065-1.1881,3.2449-1.1881M1043.6147,497.1847c-1.8613,0-3.7467.6263-5.3038,1.941l-12.1365,10.2467c-2.6119,2.2053-3.5957,5.8108-2.4077,9.0162,2.5913,6.9928,2.4446,14.7185-.2975,21.5692-1.1403,2.8485-.7354,6.0793,1.244,8.4237l10.7073,12.682c1.6487,1.9528,3.9423,2.8978,6.2257,2.8978,2.7783,0,5.542-1.3982,7.1146-4.0808,10.3551-17.6647,11.2759-39.6742,2.1077-58.2395-1.427-2.8895-4.3102-4.4564-7.2538-4.4564h0Z"/>
      </g>
      <g>
        <path class="cls-24" d="M995.9353,588.5289c-12.748,0-24.9014-3.9272-35.1465-11.3579-1.5918-1.1543-2.5469-2.9595-2.6201-4.9526-.0762-2.0591.7812-4.0005,2.3506-5.3262l12.1328-10.2432c1.2109-1.022,2.7344-1.5845,4.29-1.5845,1.0908,0,2.1553.2842,3.0781.8223,4.8135,2.8052,10.3203,4.2881,15.9258,4.2881,5.0576,0,10.0791-1.228,14.5205-3.5508.958-.501,2.0303-.7656,3.1016-.7656,1.9395,0,3.7656.8452,5.0098,2.3188l9.9619,11.7993c1.2451,1.4741,1.7812,3.4136,1.4717,5.3213-.3076,1.8926-1.417,3.5474-3.0459,4.541-9.3174,5.6851-20.0479,8.6899-31.0303,8.6899Z"/>
        <path d="M976.9425,556.6602c.8085,0,1.5948.2092,2.2742.6052,5.0574,2.9474,10.8425,4.5054,16.7302,4.5054,5.314,0,10.5906-1.2908,15.2594-3.7325.7305-.3821,1.5471-.5839,2.3619-.5839,1.4686.0001,2.8503.639,3.7906,1.7527l9.9619,11.7991c.9437,1.1178,1.3502,2.589,1.1154,4.0365-.2358,1.453-1.0533,2.6727-2.3018,3.4344-9.0668,5.5321-19.5094,8.4562-30.199,8.4562-12.4093,0-24.2385-3.8224-34.209-11.0538-1.1921-.8645-1.9075-2.2205-1.9628-3.72-.0577-1.5656.5931-3.0409,1.7855-4.0477l12.1326-10.2434c.9229-.7791,2.0808-1.2081,3.2607-1.2081M976.9425,553.4686c-1.9025,0-3.8037.6813-5.3196,1.9611l-12.1326,10.2434c-4.0142,3.3893-3.8906,9.7054.3623,12.7899,10.6403,7.7173,23.3329,11.6617,36.0828,11.6617,11.0043,0,22.0511-2.9376,31.8613-8.9233,4.2711-2.606,5.1903-8.4312,1.9626-12.2542l-9.9619-11.7991c-1.5936-1.8875-3.8885-2.8851-6.229-2.8854-1.304,0-2.6217.3094-3.8412.9473-4.3192,2.2589-9.0575,3.3691-13.7804,3.3691-5.2578,0-10.4967-1.3749-15.1232-4.0713-1.2052-.7024-2.5436-1.0393-3.8812-1.0393h0Z"/>
      </g>
    </g>
    <g>
      <path class="cls-26" d="M1187.3016,807.8878c-19.6211,0-37.9912-9.5801-49.1416-25.626-15.7188-22.6211-13.9873-52.8701,4.209-73.5586,1.2227-1.3896,2.9258-2.1553,4.7969-2.1553,2.1797,0,4.2217,1.0659,5.4619,2.8511l9.0615,13.0396c1.582,2.2783,1.6094,5.2539.0684,7.4062-7.7451,10.8135-7.876,25.3799-.3262,36.2461,5.8457,8.4131,15.502,13.4346,25.8301,13.4346,2.7939,0,5.5713-.3701,8.2539-1.0986.5127-.1396,1.042-.21,1.5752-.21,2.1016,0,4.0986,1.0684,5.3418,2.8574l9.0615,13.04c1.1719,1.6865,1.4961,3.7842.8887,5.7539-.5879,1.9053-1.9785,3.4014-3.8145,4.1035-6.7979,2.5986-13.9531,3.916-21.2666,3.916h0Z"/>
      <path d="M1147.1661,708.1439c1.6575.0001,3.2095.8097,4.1516,2.1655l9.0608,13.0398c1.1985,1.7246,1.2312,3.9618.0813,5.5669-8.1376,11.3605-8.2737,26.6659-.3387,38.0854,6.1436,8.8414,16.2898,14.12,27.1412,14.12,2.9348,0,5.8522-.3884,8.6709-1.1544.3766-.1023.766-.1542,1.1573-.1542,1.556,0,3.1008.8323,4.0319,2.1721l9.0608,13.0397c.8905,1.2816,1.1365,2.8752.6748,4.3721-.4424,1.4341-1.485,2.5581-2.8605,3.084-6.6149,2.5288-13.578,3.811-20.6959,3.811-19.0984,0-36.9791-9.3237-47.8311-24.941-7.5573-10.876-11.1029-23.613-10.2534-36.8342.8243-12.8309,5.9208-25.1754,14.3505-34.7593.9153-1.0405,2.1932-1.6136,3.5985-1.6134h0M1147.1664,704.9524c-2.1997-.0002-4.3973.8802-5.9954,2.6971-18.1968,20.6885-20.7332,51.9038-4.3214,75.5225,11.9021,17.1287,31.0254,26.3114,50.4519,26.3114,7.3605,0,14.7639-1.318,21.8356-4.0215,4.9072-1.876,6.6648-7.944,3.6669-12.2583l-9.0608-13.0397c-1.5369-2.2118-4.0464-3.5425-6.6527-3.5425-.6633,0-1.3326.0861-1.9941.2659-2.573.6992-5.21,1.0427-7.8341,1.0427-9.4462,0-18.7504-4.4458-24.5203-12.7496h-.0001c-7.3728-10.6106-6.8292-24.4355.3125-34.4058,1.9677-2.7468,1.873-6.472-.0551-9.2467l-9.0608-13.0397c-1.6171-2.3273-4.1958-3.5356-6.7721-3.5359h0Z"/>
    </g>
    <g>
      <g>
        <path class="cls-18" d="M1204.8758,721.0958c-1.0977,0-2.21-.2734-3.2168-.7905-4.458-2.29-9.4678-3.5005-14.4893-3.5005-2.7402,0-5.4648.3564-8.0986,1.0601-.5391.144-1.0957.2168-1.6523.2168-2.1357,0-4.1445-1.0571-5.375-2.8286l-9.0645-13.0439c-1.1719-1.6865-1.4951-3.7827-.8877-5.751.5898-1.9106,1.9854-3.4097,3.8291-4.1138,6.7891-2.5928,13.9346-3.9077,21.2383-3.9077,12.5068,0,24.9521,4.0029,35.0449,11.271,1.7773,1.2803,2.7871,3.2666,2.7686,5.4497-.0186,2.1597-1.0459,4.105-2.8193,5.3374l-13.6299,9.4712c-1.0645.7393-2.3262,1.1299-3.6475,1.1299h0Z"/>
        <path d="M1187.159,690.0326c12.1748.0002,24.2894,3.8961,34.1122,10.97,1.3521.9736,2.1195,2.4832,2.1056,4.1414-.0138,1.6346-.7919,3.1073-2.1348,4.0403l-13.6301,9.4711c-.7957.5529-1.7421.8451-2.7369.8451-.8447,0-1.7046-.2124-2.4866-.6143-4.6823-2.4058-9.9442-3.6774-15.2185-3.6774-2.8794.0001-5.7426.375-8.5098,1.1141-.4056.1083-.8234.1632-1.2417.1632-1.6125,0-3.1321-.8014-4.0648-2.1436l-9.0635-13.0437c-.89-1.2809-1.1357-2.8734-.6741-4.3694.4441-1.4387,1.4915-2.5667,2.8734-3.0945,6.6073-2.5232,13.5615-3.8025,20.6696-3.8024M1187.159,686.8411c-7.3512-.0001-14.7445,1.3149-21.8081,4.0125-4.9142,1.8768-6.6835,7.9465-3.6818,12.2665l9.0636,13.0437c1.5459,2.2247,4.0637,3.5139,6.6857,3.5139.6865,0,1.3798-.0883,2.0652-.2714,2.5264-.6748,5.1122-1.0059,7.6864-1.006,4.7672-.0002,9.4978,1.1348,13.7598,3.3246,1.2455.6399,2.6007.967,3.9452.967,1.6017,0,3.1884-.464,4.5581-1.4158l13.6301-9.4709c4.6525-3.2328,4.6703-10.0818.0731-13.3925-10.5482-7.5963-23.1978-11.5714-35.9773-11.5717h0Z"/>
      </g>
      <g>
        <path class="cls-28" d="M1227.3045,789.7736c-2.1787-.001-4.2207-1.0664-5.4609-2.8506l-9.0605-13.04c-1.583-2.2773-1.6104-5.2539-.0693-7.4072,6.2646-8.7441,7.6406-20.333,3.5898-30.2432-1.1855-2.9014-.2373-6.1621,2.3066-7.9297l12.6816-8.812c1.1123-.7729,2.4111-1.1812,3.7568-1.1812,2.542,0,4.8086,1.4077,5.9141,3.6738,10.5928,21.708,7.1152,47.4707-8.8604,65.6338-1.2227,1.3896-2.9268,2.1562-4.7979,2.1562h0Z"/>
        <path d="M1235.0485,719.9055c1.9279,0,3.6448,1.0642,4.4807,2.7775,5.0411,10.3318,6.8746,21.8556,5.3021,33.3258-1.5638,11.408-6.3799,21.9736-13.9275,30.5549-.9152,1.0405-2.1932,1.6135-3.5989,1.6135-1.6571,0-3.209-.8096-4.1511-2.1655l-9.0608-13.0396c-1.1984-1.7247-1.2312-3.9619-.0813-5.567,6.5806-9.1869,8.0247-21.3628,3.7689-31.7762-.9009-2.204-.1851-4.6777,1.7406-6.0159l12.681-8.8116c.8435-.5861,1.8278-.8959,2.8462-.8959M1235.0485,716.714c-1.6062,0-3.234.4706-4.6672,1.4664l-12.6812,8.8118c-3.1587,2.1948-4.329,6.2836-2.8738,9.8441,3.8967,9.5348,2.5101,20.4467-3.4092,28.7103-1.9677,2.7468-1.873,6.4719.0551,9.2467l9.0607,13.0396c1.6171,2.3273,4.1958,3.5359,6.7721,3.5359,2.1997,0,4.3973-.8804,5.9954-2.6973,16.1735-18.3885,19.9755-45.0933,9.0972-67.3881-1.4287-2.9282-4.3503-4.5695-7.349-4.5695h0Z"/>
      </g>
    </g>
    <g>
      <path class="cls-21" d="M994.9285,927.3947h194.7695c18.0262,0,32.6611,14.635,32.6611,32.6611v122.6836c0,18.0262-14.635,32.6611-32.6611,32.6611h-194.7705c-18.0262,0-32.6611-14.635-32.6611-32.6611v-122.6826c0-18.0267,14.6354-32.6621,32.6621-32.6621Z"/>
      <path d="M1189.6978,928.99c17.1298,0,31.0659,13.9362,31.0659,31.066v122.6831c0,17.1299-13.9362,31.066-31.0659,31.066h-194.7694c-17.1299,0-31.066-13.9362-31.066-31.066v-122.6831c0-17.1299,13.9362-31.066,31.066-31.066h194.7694M1189.6978,925.7985h-194.7694c-18.8417,0-34.2576,15.4159-34.2576,34.2576v122.6831c0,18.8417,15.4159,34.2576,34.2576,34.2576h194.7694c18.8416,0,34.2574-15.4159,34.2574-34.2576v-122.6831c0-18.8417-15.4159-34.2576-34.2574-34.2576h0Z"/>
    </g>
    <line class="cls-8" x1="994.131" y1="964.173" x2="994.131" y2="1090.8477"/>
    <line class="cls-8" x1="1176.7504" y1="1088.9649" x2="994.131" y2="1090.8477"/>
    <polyline class="cls-5" points="1007.2196 1078.7755 1036.5581 1052.7749 1076.5657 1074.5592 1113.1544 1021.3976 1130.5467 1030.9907 1177.8045 986.5437"/>
  </g>
  <g>
    <circle class="cls-1" cx="1830.2313" cy="1083.0815" r="5.9339"/>
    <circle class="cls-1" cx="1864.8772" cy="1066.1437" r="5.9339"/>
    <line class="cls-17" x1="1748.2603" y1="1053.8412" x2="1775.2927" y2="1040.6255"/>
    <line class="cls-17" x1="1810.8183" y1="1071.9506" x2="1775.2927" y2="1040.6255"/>
    <line class="cls-17" x1="1863.7208" y1="1046.0876" x2="1810.8183" y2="1071.9506"/>
    <line class="cls-17" x1="1864.0638" y1="1003.4054" x2="1863.7208" y2="1046.0876"/>
    <line class="cls-17" x1="1864.0638" y1="1003.4054" x2="1796.4306" y2="1036.4701"/>
  </g>
  <circle class="cls-15" cx="1821.5172" cy="1044.6493" r="104.1859"/>
  <path class="cls-16" d="M28.8447,171.7031c20.4119-53.7981,80.5711-80.8629,134.3691-60.4509,53.7981,20.4119,80.8629,80.5711,60.4509,134.3691-20.4119,53.7981-80.5711,80.8629-134.3691,60.4509"/>
  <path class="cls-16" d="M240.0602,251.842c-23.8476,62.8531-94.1323,94.4732-156.9854,70.6257C20.2218,298.6201-11.3984,228.3354,12.4492,165.4824c23.8476-62.8531,94.1323-94.4732,156.9854-70.6257"/>
  <g>
    <circle class="cls-15" cx="1471.2425" cy="110.4549" r="104.1859"/>
    <path class="cls-4" d="M1391.4494,80.1799c16.7204-44.0685,65.9996-66.2386,110.0681-49.5182"/>
    <path class="cls-9" d="M1442.4861,167.4764l2.7589-7.2713c-8.0102-3.1976-15.5095-8.4343-20.299-13.7906-1.6361-1.8297-1.618-4.6034-.0244-6.4702l1.8622-2.1814c1.9045-2.231,5.3432-2.3541,7.3418-.207,4.5154,4.8508,10.6862,9.3873,17.9894,12.1582,11.9549,4.5359,22.656.6984,26.2974-8.899,3.5136-9.2604-.881-17.477-11.4241-27.2555-14.6189-13.2516-22.2886-25.0221-16.7307-39.6706,5.3025-13.9753,19.2616-20.8136,35.711-17.462l3.0814-8.1213c.4644-1.2239,1.833-1.8396,3.0568-1.3752l6.0071,2.2792c1.2239.4644,1.8396,1.833,1.3752,3.0568l-2.826,7.4481c7.3313,3.0643,12.4508,6.7465,16.1572,10.3549,2.0677,2.0131,2.23,5.2731.3169,7.4337l-1.2994,1.4676c-2.0356,2.299-5.5585,2.4079-7.7576.2648-3.2476-3.1649-8.0765-6.8664-15.2334-9.5819-12.9651-4.9192-20.7864.9738-23.3419,7.7091-3.3221,8.7557,1.2467,15.4973,13.5962,27.1167,14.6599,13.6517,20.0927,25.7292,14.4069,40.7147-5.047,13.3021-19.0348,22.2481-37.464,18.5308l-2.9504,7.776c-.6427,1.6938-2.5367,2.5459-4.2305,1.9033l-4.4739-1.6975c-1.6938-.6427-2.5459-2.5367-1.9033-4.2305Z"/>
  </g>
  <line class="cls-15" x1="70.6416" y1="149.5248" x2="128.5498" y2="207.4331"/>
  <line class="cls-15" x1="128.5498" y1="207.4331" x2="209.8851" y2="197.8779"/>
  <path class="cls-14" d="M431.2954,1382.1989c19.3368,41.139,1.6626,90.1642-39.4764,109.501-41.139,19.3368-90.1642,1.6626-109.501-39.4764-19.3368-41.139-1.6626-90.1642,39.4764-109.501"/>
  <path class="cls-14" d="M451.8259,1431.9814c-8.1574,52.4776-57.3118,88.4063-109.7894,80.2489s-88.4063-57.3118-80.2489-109.7894c8.1574-52.4776,57.3118-88.4063,109.7894-80.2489"/>
  <line class="cls-2" x1="376.7747" y1="1356.2674" x2="358.5275" y2="1418.3377"/>
  <line class="cls-2" x1="358.5275" y1="1418.3377" x2="395.93" y2="1471.1273"/>
  <ellipse class="cls-3" cx="723.9716" cy="1052.8774" rx="80.8342" ry="28.1127" transform="translate(-183.8711 153.7071) rotate(-10.7621)"/>
  <rect class="cls-27" x="714.2073" y="1048.2834" width="58.7189" height="9.188" rx="4.594" ry="4.594"/>
  <path class="cls-10" d="M701.2501,1065.0819v-1.4944c-1.657-.0285-3.3613-.4581-4.5869-1.0939-.4187-.2172-.6045-.7167-.4454-1.1607l.1859-.5188c.1901-.5306.7995-.7871,1.3049-.5376,1.1419.5637,2.5597.9581,4.0607.9581,2.457,0,4.1179-1.4189,4.1179-3.3913,0-1.9032-1.3496-3.0798-3.9103-4.1179-3.5297-1.3842-5.7099-2.9761-5.7099-5.9866,0-2.8722,2.0417-5.0523,5.2254-5.5714v-1.6691c0-.2515.2039-.4554.4554-.4554h1.2346c.2515,0,.4554.2039.4554.4554v1.5307c1.526.0508,2.6968.3633,3.6086.759.5087.2207.7601.7953.5637,1.3139l-.1334.3522c-.209.5518-.8345.8115-1.3757.5764-.7992-.3472-1.919-.6831-3.3899-.6831-2.6646,0-3.668,1.5919-3.668,2.9761,0,1.7995,1.2803,2.6992,4.2911,3.9449,3.5643,1.4533,5.3636,3.2528,5.3636,6.3326,0,2.7338-1.9032,5.2945-5.4675,5.8829v1.5981c0,.3481-.2822.6303-.6303.6303h-.9195c-.3481,0-.6303-.2822-.6303-.6303Z"/>
  <path class="cls-11" d="M747.2913,369.9457s10.4155,21.699,25.1708,28.6427c14.7553,6.9437,52.9456-90.2679,52.9456-90.2679"/>
  <g>
    <g>
      <path class="cls-7" d="M722.578,343.9997c-11.1873,21.9596-6.9855,49.5215,12.0005,67.0803,20.3092,18.7827,50.7102,19.8074,72.1027,3.8259"/>
      <polygon class="cls-27" points="711.4837 348.1262 721.9496 345.182 724.8877 355.6497 728.0818 349.959 725.1415 339.4953 714.6778 342.4356 711.4837 348.1262"/>
    </g>
    <g>
      <path class="cls-7" d="M823.2745,395.2315c11.1871-21.9596,6.9855-49.5215-12.0006-67.0803-20.3091-18.7826-50.7101-19.8074-72.1025-3.8259"/>
      <polygon class="cls-27" points="834.3687 391.1049 823.9028 394.0491 820.9646 383.5814 817.7706 389.2721 820.711 399.7359 831.1746 396.7956 834.3687 391.1049"/>
    </g>
  </g>
</svg>