<?xml version="1.0" encoding="UTF-8"?>
<svg id="Layer_1" xmlns="http://www.w3.org/2000/svg" viewBox="0 0 1641.97 1547.7598">
  <defs>
    <style>
      .cls-1 {
        fill: #b0b0ea;
      }

      .cls-2 {
        fill: #fff;
      }

      .cls-3 {
        fill: #ccffd8;
      }

      .cls-4 {
        stroke-width: 20.6205px;
      }

      .cls-4, .cls-5 {
        fill: none;
        stroke: #fff;
        stroke-linecap: round;
      }

      .cls-4, .cls-5, .cls-6 {
        stroke-miterlimit: 10;
      }

      .cls-5 {
        stroke-width: 13.2729px;
      }

      .cls-6 {
        fill: #272730;
        stroke: #272730;
        stroke-width: 19.9265px;
      }
    </style>
  </defs>
  <path class="cls-1" d="M1536.6658,1460.5051c62.3755-40.8625,87.5286-57.7571,53.018-112.15-84.866-133.7593-291.3532-532.754-278.2716-984.8134C1328.269-218.9777,244.7961-105.659,23.4243,733.8985c-221.3717,839.5574,1199.1919,809.4195,1199.1919,809.4195,0,0,200.4763-8.4105,314.0496-82.8129Z"/>
  <path class="cls-3" d="M1573.3881,1464.8117c62.3755-40.8625,87.5286-57.7571,53.018-112.15-84.866-133.7593-291.3532-532.754-278.2716-984.8134C1364.9913-214.6711,281.5184-101.3524,60.1467,738.2051c-221.3717,839.5574,1199.1919,809.4195,1199.1919,809.4195,0,0,200.4763-8.4105,314.0496-82.8129Z"/>
  <g>
    <path class="cls-6" d="M1031.0775,1247.7108V427.1446c0-33.6203-19.3793-47.4711-44.2824-47.4711h-366.3503c-24.9031,0-46.2745,13.8508-46.2745,47.4711v820.1716c0,1.9092,1.4529,3.1893,2.7474,2.4206l44.586-26.4753c7.1021-4.2173,15.188-4.2257,22.295-.0234l36.7269,21.7166c6.9284,4.0968,14.7956,4.1959,21.7794.2744l40.7997-22.9094c8.5495-4.8006,18.3095-3.525,26.0181,3.4005l14.6102,13.126c8.5716,7.7009,19.5977,8.3579,28.6386,1.7066l21.5371-15.8447c9.2255-6.7871,20.4996-5.9545,29.1217,2.1507l11.8486,11.1383c8.7027,8.181,20.099,8.9468,29.3605,1.9729l27.0037-20.3337c6.7791-5.1046,14.8324-6.1407,22.2035-2.8565l75.0582,33.442c1.2673.5646,2.5726-.7095,2.5726-2.5112Z"/>
    <path class="cls-4" d="M759.5684,778.6573s10.9962,45.9165,36.4175,65.3346c25.4213,19.4181,138.8629-151.1893,138.8629-151.1893"/>
    <g>
      <g>
        <path class="cls-5" d="M722.9135,718.6821c-30.5357,37.4803-33.8801,92.0691-4.7371,133.5923,31.1739,44.4169,89.0443,58.9569,136.6754,37.1613"/>
        <polygon class="cls-2" points="699.9112 721.9488 721.2002 720.6737 722.4628 741.9634 730.9601 732.389 729.6916 711.106 708.4085 712.3744 699.9112 721.9488"/>
      </g>
      <g>
        <path class="cls-5" d="M894.8072,858.574c30.5358-37.4802,33.8801-92.069,4.7371-133.5923-31.1738-44.4167-89.0443-58.9569-136.6754-37.1611"/>
        <polygon class="cls-2" points="917.8094 855.3073 896.5205 856.5824 895.2578 835.2928 886.7606 844.8671 888.0291 866.1502 909.3121 864.8818 917.8094 855.3073"/>
      </g>
    </g>
  </g>
</svg>