<?xml version="1.0" encoding="UTF-8"?>
<svg id="Layer_1" data-name="Layer 1" xmlns="http://www.w3.org/2000/svg" viewBox="0 0 425.525 482.848">
  <defs>
    <style>
      .cls-1 {
        stroke-width: 5.4409px;
      }

      .cls-1, .cls-2, .cls-3 {
        stroke: #272730;
        stroke-miterlimit: 10;
      }

      .cls-1, .cls-4 {
        fill: #272730;
      }

      .cls-2 {
        stroke-width: 7.6172px;
      }

      .cls-2, .cls-3 {
        fill: none;
        stroke-linecap: round;
      }

      .cls-5 {
        fill: #63c189;
      }

      .cls-5, .cls-4 {
        stroke-width: 0px;
      }

      .cls-3 {
        stroke-width: 4.3527px;
      }
    </style>
  </defs>
  <g>
    <rect class="cls-5" x="2.7202" y="296.2868" width="72.189" height="181.9238" rx="19.043" ry="19.043"/>
    <path class="cls-4" d="M55.8661,299.0069c9.0003,0,16.3226,7.3223,16.3226,16.3226v143.8383c0,9.0003-7.3223,16.3226-16.3226,16.3226H21.7634c-9.0003,0-16.3226-7.3223-16.3226-16.3226v-143.8383c0-9.0003,7.3223-16.3226,16.3226-16.3226h34.1027M55.8661,293.566H21.7634c-11.9699,0-21.7634,9.7935-21.7634,21.7635v143.8383c0,11.9699,9.7935,21.7635,21.7634,21.7635h34.1027c11.9699,0,21.7634-9.7935,21.7634-21.7635v-143.8383c0-11.9699-9.7935-21.7635-21.7634-21.7635h0Z"/>
  </g>
  <g>
    <path class="cls-5" d="M140.4033,247.4089h28.7544c11.9858,0,21.7168,9.731,21.7168,21.7168v187.3672c0,11.9864-9.7314,21.7178-21.7178,21.7178h-28.7534c-11.9864,0-21.7178-9.7314-21.7178-21.7178v-187.3662c0-11.9864,9.7314-21.7178,21.7178-21.7178Z"/>
    <path class="cls-4" d="M169.1569,250.129c10.475,0,18.997,8.522,18.997,18.997v187.3674c0,10.475-8.522,18.9969-18.997,18.9969h-28.7539c-10.475,0-18.997-8.522-18.997-18.9969v-187.3674c0-10.475,8.522-18.997,18.997-18.997h28.7539M169.1569,244.6881h-28.7539c-13.4408,0-24.4378,10.997-24.4378,24.4379v187.3674c0,13.4408,10.997,24.4378,24.4378,24.4378h28.7539c13.4408,0,24.4378-10.997,24.4378-24.4378v-187.3674c0-13.4409-10.997-24.4379-24.4378-24.4379h0Z"/>
  </g>
  <g>
    <path class="cls-5" d="M260.1626,168.341h21.1641c14.0808,0,25.5127,11.4319,25.5127,25.5127v258.8452c0,14.0803-11.4314,25.5117-25.5117,25.5117h-21.165c-14.0803,0-25.5117-11.4314-25.5117-25.5117V193.8527c0-14.0803,11.4314-25.5117,25.5117-25.5117Z"/>
    <path class="cls-4" d="M281.3272,171.0618c12.5675,0,22.7919,10.2244,22.7919,22.7918v258.8448c0,12.5674-10.2244,22.7918-22.7919,22.7918h-21.1642c-12.5675,0-22.7919-10.2244-22.7919-22.7918V193.8536c0-12.5675,10.2244-22.7918,22.7919-22.7918h21.1642M281.3272,165.621h-21.1642c-15.528,0-28.2327,12.7047-28.2327,28.2327v258.8448c0,15.528,12.7047,28.2327,28.2327,28.2327h21.1642c15.528,0,28.2327-12.7047,28.2327-28.2327V193.8536c0-15.5279-12.7047-28.2327-28.2327-28.2327h0Z"/>
  </g>
  <g>
    <path class="cls-5" d="M380.1157,74.8981h13.1885c16.2815,0,29.5,13.2185,29.5,29.5v346.2305c0,16.281-13.2181,29.499-29.499,29.499h-13.1904c-16.281,0-29.499-13.2181-29.499-29.499V104.3981c0-16.2815,13.2185-29.5,29.5-29.5Z"/>
    <path class="cls-4" d="M393.3047,77.6188c14.7663,0,26.7795,12.0132,26.7795,26.7794v346.2294c0,14.7663-12.0132,26.7795-26.7795,26.7795h-13.1889c-14.7663,0-26.7795-12.0132-26.7795-26.7795V104.3982c0-14.7662,12.0132-26.7794,26.7795-26.7794h13.1889M393.3047,72.178h-13.1889c-17.7212,0-32.2203,14.4991-32.2203,32.2203v346.2294c0,17.7212,14.4991,32.2203,32.2203,32.2203h13.1889c17.7212,0,32.2203-14.4991,32.2203-32.2203V104.3982c0-17.7211-14.4991-32.2203-32.2203-32.2203h0Z"/>
  </g>
  <g>
    <path class="cls-2" d="M18.4518,252.0581c68.3933-13.6654,236.0553-57.4423,318.8776-201.2074,7.4609-12.9509,14.4912-27.1607,20.7426-42.7311"/>
    <polygon class="cls-4" points="364.4028 26.9586 357.1694 10.1838 340.3989 17.427 344.4456 7.236 361.2133 0 368.4494 16.7676 364.4028 26.9586"/>
  </g>
  <circle class="cls-2" cx="102.3962" cy="89.9963" r="63.5815"/>
  <path class="cls-3" d="M50.3137,89.9963c0-28.7644,23.3182-52.0826,52.0826-52.0826"/>
  <path class="cls-1" d="M98.3329,128.7571v-4.7461c-5.2627-.0904-10.6753-1.4548-14.5677-3.4741-1.3296-.6898-1.9197-2.2763-1.4146-3.6865l.5903-1.6478c.6037-1.6853,2.5391-2.4999,4.1443-1.7075,3.6265,1.7902,8.1296,3.0428,12.8965,3.0428,7.8032,0,13.0782-4.5062,13.0782-10.7707,0-6.0445-4.2863-9.7813-12.4189-13.0782-11.2101-4.3963-18.1344-9.4519-18.1344-19.0132,0-9.1219,6.4844-16.0457,16.5957-17.6945v-5.301c0-.7989.6476-1.4465,1.4465-1.4465h3.9209c.7989,0,1.4465.6476,1.4465,1.4465v4.8615c4.8465.1613,8.5647,1.154,11.4607,2.4105,1.6156.701,2.414,2.526,1.7902,4.1729l-.4237,1.1187c-.6638,1.7524-2.6503,2.5773-4.369,1.8305-2.5382-1.1028-6.0948-2.1694-10.7662-2.1694-8.4626,0-11.6495,5.0556-11.6495,9.4519,0,5.715,4.0663,8.5725,13.6282,12.5289,11.3201,4.6157,17.0346,10.3307,17.0346,20.112,0,8.6825-6.0445,16.8151-17.3645,18.6838v5.0756c0,1.1056-.8962,2.0018-2.0018,2.0018h-2.9202c-1.1056,0-2.0018-.8962-2.0018-2.0018Z"/>
</svg>