<?xml version="1.0" encoding="UTF-8"?>
<svg id="Layer_1" data-name="Layer 1" xmlns="http://www.w3.org/2000/svg" viewBox="0 0 333.7378 407.9009">
  <defs>
    <style>
      .cls-1 {
        stroke: #ecf4df;
        stroke-width: 10.5674px;
      }

      .cls-1, .cls-2, .cls-3, .cls-4, .cls-5, .cls-6, .cls-7 {
        stroke-linecap: round;
      }

      .cls-1, .cls-6, .cls-7 {
        fill: none;
      }

      .cls-1, .cls-7 {
        stroke-miterlimit: 10;
      }

      .cls-2 {
        fill: #987253;
      }

      .cls-2, .cls-3 {
        stroke-width: 7px;
      }

      .cls-2, .cls-3, .cls-4, .cls-5, .cls-6 {
        stroke: #272730;
        stroke-linejoin: round;
      }

      .cls-8, .cls-4 {
        fill: #c94157;
      }

      .cls-8, .cls-9, .cls-10, .cls-11, .cls-12 {
        stroke-width: 0px;
      }

      .cls-3 {
        fill: #b98e62;
      }

      .cls-4 {
        stroke-width: 8.5042px;
      }

      .cls-9 {
        fill: #89644b;
      }

      .cls-5 {
        fill: #debb8d;
        stroke-width: 6px;
      }

      .cls-6 {
        stroke-width: 8.4138px;
      }

      .cls-7 {
        stroke: #121216;
        stroke-width: 14.7387px;
      }

      .cls-10 {
        fill: #b49b84;
      }

      .cls-10, .cls-11 {
        opacity: .8;
      }

      .cls-11 {
        fill: #e6d3b3;
      }

      .cls-12 {
        fill: #fff;
      }
    </style>
  </defs>
  <g>
    <g>
      <polygon class="cls-2" points="3.5 171.8002 176.1646 271.4922 176.1646 404.4009 3.5 304.7151 3.5 171.8002"/>
      <polygon class="cls-9" points="3.5 171.8002 176.1646 271.4922 176.1646 273.3536 3.5 174.1855 3.5 171.8002"/>
      <polygon class="cls-3" points="330.2378 163.9294 176.1646 271.4922 176.1646 404.4009 330.2378 296.8381 330.2378 163.9294"/>
      <polygon class="cls-5" points="3.5 171.8002 176.1646 271.4922 330.2378 163.9294 157.5732 64.2482 3.5 171.8002"/>
      <polygon class="cls-11" points="272.6817 130.7226 118.6928 238.3176 61.0521 205.0448 215.1236 97.4868 272.6817 130.7226"/>
    </g>
    <polygon class="cls-10" points="118.6928 238.3176 118.611 304.7139 61.0531 271.4871 61.0521 205.0448 118.6928 238.3176"/>
  </g>
  <rect class="cls-4" x="38.7038" y="182.5657" width="277.4312" height="90.7879" rx="20" ry="20"/>
  <circle class="cls-8" cx="244.5196" cy="81.5838" r="77.3688"/>
  <path class="cls-6" d="M308.844,38.5919c23.7438,35.5254,14.1929,83.5725-21.3325,107.3163-35.5254,23.7438-83.5725,14.1929-107.3163-21.3325s-14.1929-83.5725,21.3325-107.3163c21.023-14.0509,46.431-16.4422,68.5927-8.6909"/>
  <line class="cls-7" x1="216.932" y1="46.1072" x2="272.1072" y2="117.0604"/>
  <line class="cls-7" x1="217.2425" y1="117.2997" x2="271.7967" y2="45.8679"/>
  <line class="cls-1" x1="216.932" y1="46.1072" x2="272.1072" y2="117.0604"/>
  <line class="cls-1" x1="217.2425" y1="117.2997" x2="271.7967" y2="45.8679"/>
  <g id="OUT_OF_STOCK" data-name="OUT OF STOCK">
    <path class="cls-12" d="M81.7141,217.4855c2.1753,0,4.0752.6221,5.7002,1.8662,1.1001.855,1.9932,1.9634,2.6787,3.3262.6685,1.3545,1.0029,2.708,1.0029,4.0625,0,1.9971-.6602,3.7832-1.9805,5.3574-1.1172,1.3369-2.5771,2.2979-4.3799,2.8818-1.1089.3555-2.2217.5332-3.3389.5332-1.4644,0-2.8647-.3047-4.2021-.9141-1.6167-.7363-2.8818-1.8496-3.7959-3.3389-.8887-1.4385-1.333-3.0254-1.333-4.7607,0-2.0146.5713-3.7915,1.7139-5.332,1.0156-1.3711,2.3823-2.3784,4.1006-3.0215,1.1509-.4399,2.4292-.6602,3.834-.6602ZM80.5081,221.1291c-.7109,0-1.2739.3174-1.6885.9521-.3218.4741-.4824,1.0361-.4824,1.6885,0,.9561.1948,2.0625.584,3.3203.3892,1.2559.8804,2.3711,1.4727,3.3447.2622.415.5859.7451.9712.9902s.7764.3682,1.1743.3682c.6431,0,1.1616-.2412,1.5552-.7236s.5903-1.1172.5903-1.9043c0-1.0244-.165-2.1289-.4951-3.3135s-.7573-2.1963-1.2822-3.0342c-.3218-.5161-.6938-.9224-1.1172-1.2188s-.8506-.4526-1.2822-.4697Z"/>
    <path class="cls-12" d="M110.8118,224.1887v3.0977c0,1.8701-.1396,3.1953-.4189,3.9736-.6011,1.6416-1.9214,2.8311-3.9609,3.5674-1.2358.457-2.6323.6855-4.1895.6855-2.7168,0-4.8921-.6475-6.5254-1.9424-.7954-.6348-1.3457-1.3711-1.6504-2.209s-.457-2.0479-.457-3.6309c0-.6182.021-1.6338.0635-3.0469.0254-.999.0381-1.6582.0381-1.9805,0-.7026-.0527-1.189-.1587-1.46s-.3364-.5249-.6919-.7617c-.5586-.3638-.8379-.77-.8379-1.2188,0-.3301.1416-.6221.4253-.876s.6582-.4272,1.1235-.5205c.9312-.186,2.0312-.2793,3.3008-.2793,1.3965,0,2.5562.106,3.4785.3174.9058.2031,1.3584.6646,1.3584,1.3838,0,.3555-.1313.6392-.3936.8506-.0591.0508-.313.1821-.7617.3936-.271.1187-.4551.3345-.5522.6475s-.146.8296-.146,1.5488c0,.7363-.0337,2.3271-.1016,4.7734-.0425,1.4561.3511,2.5645,1.1807,3.3262.6772.626,1.5488.9395,2.6152.9395.6772,0,1.2905-.125,1.8408-.375.5503-.249.9692-.5898,1.2568-1.0215.2285-.3301.3853-.6982.4697-1.1045s.127-.9609.127-1.6631v-2.793c-.0425-2.1411-.1035-3.396-.1841-3.7642s-.3535-.6582-.8188-.8696c-.4399-.1948-.7407-.3726-.9014-.5332s-.2412-.3599-.2412-.5967c0-.5078.3027-.8779.9077-1.1108s1.5762-.3491,2.9136-.3491c1.312,0,2.2617.1143,2.8501.3428s.8823.5923.8823,1.0918c0,.2456-.0508.4272-.1523.5459s-.3682.3003-.7998.5459c-.4487.2539-.7046.5269-.7681.8188s-.1035,1.3774-.1206,3.2563Z"/>
    <path class="cls-12" d="M118.9368,217.841h6.6904c.7192-.0254,1.3755-.1226,1.9678-.292.2539-.0679.478-.1016.6729-.1016.6855,0,1.3521.5078,1.9995,1.5234s.9712,2.061.9712,3.1357c0,.7363-.2241,1.2734-.6729,1.6123-.3384.2539-.7446.3809-1.2188.3809-.4487,0-.8379-.125-1.168-.375-.3301-.249-.6558-.6621-.9775-1.2373-.2793-.5249-.4995-.8677-.6602-1.0283s-.3555-.2412-.584-.2412c-.313,0-.5376.1313-.6729.3936s-.2031.6938-.2031,1.2949v7.1094c0,.7275.0762,1.2568.2285,1.5869s.4399.584.8633.7617c.457.1943.7681.3789.9331.5518.165.1738.2476.4131.2476.7178,0,.6094-.4126,1.0625-1.2378,1.3584s-2.0928.4443-3.8022.4443c-2.0991,0-3.6562-.1738-4.6719-.5205-.855-.2881-1.2822-.7529-1.2822-1.3965,0-.3467.1523-.6182.457-.8125.0762-.042.3765-.1436.9014-.3047.3218-.0928.5439-.2705.6665-.5332s.2222-.7656.2983-1.5107c.0679-.6602.1313-1.7285.1904-3.2061.0591-1.4766.0889-2.7568.0889-3.8398,0-.7617-.0591-1.3032-.1777-1.625s-.313-.4824-.584-.4824c-.3301,0-.6519.2368-.9648.7109-.5669.8633-1.0327,1.4346-1.3965,1.7139-.4316.3301-.8506.4951-1.2568.4951-.457,0-.8335-.1719-1.1299-.5137-.2964-.3438-.4443-.7812-.4443-1.3145,0-.5249.1187-1.1025.3555-1.7329s.5542-1.2124.9521-1.7456c.6431-.8633,1.2778-1.2949,1.9043-1.2949.1694,0,.3638.0254.584.0762.457.0933.8315.1567,1.1235.1904s.6284.0508,1.0093.0508Z"/>
    <path class="cls-12" d="M147.9837,217.4855c2.1753,0,4.0752.6221,5.7002,1.8662,1.1001.855,1.9932,1.9634,2.6787,3.3262.6685,1.3545,1.0029,2.708,1.0029,4.0625,0,1.9971-.6602,3.7832-1.9805,5.3574-1.1172,1.3369-2.5771,2.2979-4.3799,2.8818-1.1089.3555-2.2217.5332-3.3389.5332-1.4644,0-2.8647-.3047-4.2021-.9141-1.6167-.7363-2.8818-1.8496-3.7959-3.3389-.8887-1.4385-1.333-3.0254-1.333-4.7607,0-2.0146.5713-3.7915,1.7139-5.332,1.0156-1.3711,2.3823-2.3784,4.1006-3.0215,1.1509-.4399,2.4292-.6602,3.834-.6602ZM146.7776,221.1291c-.7109,0-1.2739.3174-1.6885.9521-.3218.4741-.4824,1.0361-.4824,1.6885,0,.9561.1948,2.0625.584,3.3203.3892,1.2559.8804,2.3711,1.4727,3.3447.2622.415.5859.7451.9712.9902s.7764.3682,1.1743.3682c.6431,0,1.1616-.2412,1.5552-.7236s.5903-1.1172.5903-1.9043c0-1.0244-.165-2.1289-.4951-3.3135s-.7573-2.1963-1.2822-3.0342c-.3218-.5161-.6938-.9224-1.1172-1.2188s-.8506-.4526-1.2822-.4697Z"/>
    <path class="cls-12" d="M167.7756,220.4562c-.584,0-.9438.1479-1.0791.4443-.1016.2202-.1968.6519-.2856,1.2949-.0889.6426-.1333,1.2275-.1333,1.752,0,.3135.1016.5293.3047.6475s.584.1777,1.1426.1777c.3726,0,.6479-.0674.8257-.2031s.3008-.3643.3672-.6855c.1953-.9229.5938-1.3838,1.1934-1.3838,1.0332,0,1.5488,1.2354,1.5488,3.707,0,1.5654-.2246,2.7168-.6719,3.4531-.2715.4482-.6445.6729-1.1172.6729-.5,0-.7871-.334-.8633-1.0029-.043-.4316-.0957-.7363-.1582-.9141-.0645-.1777-.1855-.3467-.3633-.5078-.2793-.2627-.6851-.3936-1.2183-.3936-.3809,0-.6392.0674-.7744.2031s-.1948.3936-.1777.7744c0,.0674-.0044.4609-.0127,1.1807,0,1.4639.1523,2.3574.457,2.6787.1016.127.2051.209.311.248.106.0371.3828.0908.8311.1582.2207.0342.4062.1484.5586.3428s.2285.4189.2285.6729c0,.6514-.3809,1.0703-1.1421,1.2568-1.1001.2627-2.645.3936-4.6338.3936-1.7437,0-2.9453-.1016-3.6055-.3047-.2964-.0928-.5376-.2627-.7236-.5078s-.2793-.5166-.2793-.8125c0-.3721.1353-.6729.4062-.9014.0679-.0508.3003-.1562.6982-.3174.4741-.1865.7573-.6182.8506-1.2949.1523-1.041.2285-3.415.2285-7.1221,0-1.5996-.0552-2.6362-.165-3.1104s-.3765-.8042-.7998-.9902-.7002-.3491-.8315-.4888-.1968-.3408-.1968-.603c0-.3726.1821-.6836.5459-.9331s.8125-.3745,1.3457-.3745c.3384,0,.8335.0254,1.4854.0762,1.3794.1099,3.0298.165,4.9512.165,3.0728,0,5.1411-.0845,6.2075-.2539.1445-.0171.2539-.0254.3301-.0254.2969,0,.5801.1694.8516.5078.7441.9478,1.1172,1.9976,1.1172,3.1484,0,.5249-.123.9438-.3691,1.2568-.2441.3135-.5664.4697-.9648.4697-.2949,0-.5195-.0586-.6719-.1777-.1523-.1187-.543-.5332-1.168-1.2441-.3809-.4399-.8398-.728-1.377-.8633-.5391-.1353-1.5391-.2241-3.0034-.2666Z"/>
    <path class="cls-12" d="M189.8279,217.4855c.8721,0,2.0146.2158,3.4277.6475.1689.0508.3047.0762.4062.0762.085,0,.3389-.0762.7617-.2285.1357-.0508.2793-.0762.4316-.0762.5674,0,1.166.4487,1.7969,1.3457.6299.897.9453,1.752.9453,2.5645,0,.4741-.1416.874-.4258,1.1992-.2832.3262-.6279.4893-1.0342.4893-.3389,0-.6133-.0674-.8252-.2031s-.6768-.5376-1.3965-1.2061c-1.0156-.9478-2.0146-1.4219-2.9961-1.4219-.4736,0-.8525.1143-1.1367.3428-.2832.2285-.4248.5288-.4248.9014,0,.7363.6475,1.291,1.9424,1.6631,1.752.5166,2.873.8926,3.3643,1.1299,2.1582,1.0498,3.2373,2.5938,3.2373,4.6338,0,1.8027-.7363,3.2754-2.209,4.418-1.5068,1.168-3.4746,1.752-5.9033,1.752-1.083,0-2.2256-.1289-3.4277-.3877-1.2021-.2578-2.0693-.5605-2.6025-.9072-.4062-.2705-.7725-.8613-1.0977-1.7705-.3262-.9102-.4893-1.7969-.4893-2.6602,0-.415.085-.7275.2539-.9395.2119-.2705.4785-.4062.7998-.4062s.6309.165.9268.4951c.1777.1865.5967.7832,1.2568,1.79.3135.4736.8105.8672,1.4922,1.1807.6807.3135,1.3857.4697,2.1133.4697.626,0,1.1338-.1162,1.5234-.3496.3896-.2324.584-.5303.584-.8945,0-.3389-.1523-.6309-.457-.876s-.7998-.4736-1.4854-.6855c-1.21-.3809-2.1328-.7295-2.7676-1.0479-.6348-.3164-1.2275-.7168-1.7773-1.1992-1.3369-1.1846-2.0059-2.5303-2.0059-4.0371,0-.7446.1738-1.4707.5205-2.1772s.8379-1.3184,1.4727-1.8345c1.4219-1.1934,3.1572-1.79,5.2051-1.79Z"/>
    <path class="cls-12" d="M204.5037,217.841h6.6904c.7197-.0254,1.375-.1226,1.9678-.292.2539-.0679.4785-.1016.6729-.1016.6855,0,1.3516.5078,2,1.5234.6465,1.0156.9707,2.061.9707,3.1357,0,.7363-.2246,1.2734-.6729,1.6123-.3389.2539-.7451.3809-1.2188.3809-.4482,0-.8379-.125-1.168-.375-.3301-.249-.6562-.6621-.9775-1.2373-.2793-.5249-.499-.8677-.6602-1.0283s-.3555-.2412-.584-.2412c-.3135,0-.5371.1313-.6729.3936s-.2031.6938-.2031,1.2949v7.1094c0,.7275.0762,1.2568.2285,1.5869s.4404.584.8633.7617c.457.1943.7686.3789.9326.5518.166.1738.248.4131.248.7178,0,.6094-.4121,1.0625-1.2383,1.3584-.8242.2959-2.0918.4443-3.8018.4443-2.0986,0-3.6562-.1738-4.6719-.5205-.8545-.2881-1.2822-.7529-1.2822-1.3965,0-.3467.1523-.6182.457-.8125.0762-.042.377-.1436.9014-.3047.3213-.0928.5439-.2705.667-.5332.1221-.2627.2217-.7656.2979-1.5107.0674-.6602.1309-1.7285.1904-3.2061.0596-1.4766.0889-2.7568.0889-3.8398,0-.7617-.0596-1.3032-.1777-1.625s-.3135-.4824-.584-.4824c-.3301,0-.6514.2368-.9648.7109-.5674.8633-1.0322,1.4346-1.3965,1.7139-.4316.3301-.8506.4951-1.2568.4951-.457,0-.834-.1719-1.1299-.5137-.2959-.3438-.4443-.7812-.4443-1.3145,0-.5249.1182-1.1025.3555-1.7329s.5547-1.2124.9521-1.7456c.6436-.8633,1.2783-1.2949,1.9043-1.2949.1689,0,.3643.0254.584.0762.457.0933.8311.1567,1.124.1904.291.0337.6279.0508,1.0088.0508Z"/>
    <path class="cls-12" d="M226.9236,217.4855c2.1748,0,4.0752.6221,5.7002,1.8662,1.1006.855,1.9932,1.9634,2.6787,3.3262.6689,1.3545,1.0029,2.708,1.0029,4.0625,0,1.9971-.6602,3.7832-1.9805,5.3574-1.1172,1.3369-2.5771,2.2979-4.3799,2.8818-1.1084.3555-2.2217.5332-3.3389.5332-1.4639,0-2.8652-.3047-4.2021-.9141-1.6162-.7363-2.8818-1.8496-3.7959-3.3389-.8887-1.4385-1.333-3.0254-1.333-4.7607,0-2.0146.5713-3.7915,1.7139-5.332,1.0156-1.3711,2.3828-2.3784,4.1006-3.0215,1.1514-.4399,2.4287-.6602,3.834-.6602ZM225.7175,221.1291c-.7109,0-1.2734.3174-1.6885.9521-.3213.4741-.4824,1.0361-.4824,1.6885,0,.9561.1943,2.0625.584,3.3203.3896,1.2559.8799,2.3711,1.4727,3.3447.2627.415.5859.7451.9707.9902.3857.2451.7773.3682,1.1748.3682.6436,0,1.1611-.2412,1.5557-.7236.3926-.4824.5898-1.1172.5898-1.9043,0-1.0244-.165-2.1289-.4951-3.3135s-.7578-2.1963-1.2822-3.0342c-.3213-.5161-.6943-.9224-1.1172-1.2188s-.8506-.4526-1.2822-.4697Z"/>
    <path class="cls-12" d="M247.0837,217.4855c1.2354,0,2.4287.271,3.5801.8125.542.2539.918.3809,1.1299.3809.1523,0,.3975-.0381.7363-.1143.1104-.0254.2324-.0381.3682-.0381.4404,0,.8252.2031,1.1553.6094.8125.9819,1.2188,2.2007,1.2188,3.6562,0,1.0244-.3516,1.7734-1.0537,2.2471-.3809.2539-.8086.3809-1.2822.3809-.4316,0-.7832-.0928-1.0537-.2793s-.5332-.5166-.7871-.9902c-.3643-.6689-.6602-1.1484-.8887-1.4409-.2285-.292-.5078-.5566-.8379-.7935-.8213-.5757-1.6797-.8633-2.5771-.8633-.8721,0-1.5635.3154-2.0752.9458-.5127.6304-.7686,1.4751-.7686,2.5327,0,1.4561.3682,2.7891,1.1045,3.999.999,1.6162,2.4287,2.4248,4.291,2.4248.6855,0,1.3652-.1143,2.0371-.3428.6738-.2285,1.1963-.5244,1.5684-.8887.3213-.3047.584-.457.7871-.457.2959,0,.5498.1377.7617.4131.2119.2744.3174.6064.3174.9961,0,.4912-.1484,1.041-.4443,1.6504s-.6514,1.0879-1.0664,1.4346c-.1777.1436-.5459.2705-1.1045.3809-.3213.0596-.749.2158-1.2822.4697-1.2529.6006-2.5557.9014-3.9102.9014-1.4131,0-2.8223-.3174-4.2275-.9521-1.6338-.7363-2.9238-1.8662-3.8721-3.3896-.9307-1.4814-1.3965-3.0303-1.3965-4.6465,0-1.8789.584-3.5928,1.752-5.1416,1.0156-1.3457,2.3398-2.374,3.9736-3.085,1.2441-.5415,2.5264-.8125,3.8467-.8125Z"/>
    <path class="cls-12" d="M271.116,221.3068l-1.3584,1.3076c-.499.4736-.749.9053-.749,1.2949,0,.2119.0566.4229.1719.6348.1133.2119.3271.499.6406.8633l4.748,5.4971c.4229.4912.7148.8018.876.9336.1611.1309.4023.2686.7236.4121.457.1943.7812.4102.9707.6475.1914.2373.2861.5459.2861.9268,0,.8975-.6387,1.3457-1.917,1.3457h-4.8115c-.3301,0-.5908-.0723-.7803-.2158-.1914-.1436-.4932-.499-.9082-1.0664-.6602-.9053-1.5322-1.9463-2.6152-3.123-.4736-.5078-.8066-.8398-.9961-.9971-.1914-.1562-.3662-.2344-.5273-.2344-.4912,0-.7363.4609-.7363,1.3838,0,.7529.1611,1.2734.4824,1.5615.0596.042.1943.1357.4062.2793.457.2959.6855.6641.6855,1.1045,0,.5586-.3721.958-1.1172,1.2002-.7451.2402-1.9971.3613-3.7578.3613-1.5654,0-2.708-.0928-3.4277-.2793-.3047-.085-.5527-.2393-.7422-.4629-.1914-.2246-.2861-.4766-.2861-.7559,0-.4482.2539-.834.7617-1.1553.2285-.1523.3916-.3193.4893-.501.0967-.1826.1875-.4893.2725-.9209.1689-.9561.2539-2.4287.2539-4.418,0-2.3701-.0889-4.0498-.2666-5.04-.0674-.4062-.1611-.6982-.2793-.876s-.3262-.3511-.6221-.5205c-.4736-.271-.7109-.6475-.7109-1.1299,0-.4062.1484-.7319.4443-.9775s.7705-.4316,1.4219-.5586c.8633-.1694,1.9463-.2539,3.25-.2539,1.3291,0,2.3145.127,2.958.3809.5752.2368.8633.6602.8633,1.2695,0,.2539-.0439.4507-.1338.5903-.0879.1396-.3193.3574-.6914.6538-.1357.1187-.2598.4019-.375.8506-.1133.4487-.1709.8887-.1709,1.3203,0,.7109.1611,1.0664.4824,1.0664.1943,0,.3828-.085.5654-.2539.1816-.1689.5479-.5928,1.0977-1.2695.6348-.7871.9521-1.3247.9521-1.6123,0-.1523-.0801-.3809-.2412-.6855-.1104-.2114-.165-.4062-.165-.584,0-.6265.3389-1.0684,1.0156-1.3267s1.832-.3872,3.4658-.3872c1.3037,0,2.2686.0845,2.8945.2539.7705.2114,1.1553.6602,1.1553,1.3457,0,.271-.0801.5225-.2412.7554s-.3594.3828-.5967.4507c-.1777.0591-.5879.0933-1.2314.1016-.4482.0083-.7852.0615-1.0098.1587-.2236.0972-.5137.3154-.8691.6538Z"/>
  </g>
</svg>