<?xml version="1.0" encoding="UTF-8"?>
<svg id="Layer_1" data-name="Layer 1" xmlns="http://www.w3.org/2000/svg" viewBox="0 0 1830.2575 1103.0225">
  <defs>
    <style>
      .cls-1 {
        stroke-width: 14.5037px;
      }

      .cls-1, .cls-2, .cls-3, .cls-4, .cls-5, .cls-6, .cls-7, .cls-8, .cls-9 {
        fill: none;
      }

      .cls-1, .cls-2, .cls-3, .cls-4, .cls-6, .cls-8, .cls-9 {
        stroke-linecap: round;
      }

      .cls-1, .cls-2, .cls-4, .cls-5, .cls-6, .cls-7, .cls-9 {
        stroke: #272730;
      }

      .cls-1, .cls-4, .cls-5, .cls-6, .cls-7, .cls-8 {
        stroke-miterlimit: 10;
      }

      .cls-2, .cls-3 {
        stroke-width: 7px;
      }

      .cls-2, .cls-3, .cls-9 {
        stroke-linejoin: round;
      }

      .cls-10 {
        fill: #000;
      }

      .cls-10, .cls-11, .cls-12, .cls-13, .cls-14, .cls-15, .cls-16, .cls-17, .cls-18 {
        stroke-width: 0px;
      }

      .cls-3 {
        stroke: #000;
      }

      .cls-4 {
        stroke-width: 6.0295px;
      }

      .cls-5, .cls-7 {
        stroke-width: 5.2393px;
      }

      .cls-11 {
        fill: #89644b;
      }

      .cls-12 {
        fill: #ecf4df;
      }

      .cls-6 {
        stroke-width: 6.9339px;
      }

      .cls-13 {
        fill: #b49b84;
      }

      .cls-13, .cls-15, .cls-18 {
        opacity: .8;
      }

      .cls-14 {
        fill: #272730;
      }

      .cls-15 {
        fill: #e6d3b3;
      }

      .cls-7 {
        fill-rule: evenodd;
      }

      .cls-16 {
        fill: #231f20;
      }

      .cls-17 {
        fill: #fff;
      }

      .cls-8 {
        stroke: #4ad1a0;
        stroke-width: 7.167px;
      }

      .cls-9 {
        stroke-width: 4px;
      }

      .cls-18 {
        fill: #ddc8ab;
      }
    </style>
  </defs>
  <g>
    <g>
      <path class="cls-12" d="M171.1372,1001.5477c-13.1343,0-25.3423-7.0127-31.8594-18.3008L6.5391,753.3367c-10.1079-17.5068-4.0879-39.9727,13.4189-50.0811l174.1709-100.5576c5.5317-3.1934,11.8325-4.8818,18.2202-4.8818,13.1343,0,25.3423,7.0127,31.8599,18.3008l132.7388,229.9102c4.8755,8.4443,6.1602,18.3203,3.6177,27.8076-2.542,9.4883-8.5923,17.3984-17.0366,22.2734l-174.1704,100.5576c-5.5322,3.1934-11.833,4.8818-18.2212,4.8818Z"/>
      <path class="cls-14" d="M212.3526,599.4733c12.5424,0,24.1993,6.6952,30.4217,17.4728l132.7388,229.9099c4.6539,8.0607,5.8799,17.4897,3.4522,26.5501s-8.2039,16.6132-16.2647,21.2671l-174.1706,100.5576c-5.2806,3.0488-11.2948,4.6602-17.3926,4.6602-12.5441,0-24.2022-6.6951-30.4246-17.4728L7.974,752.5083c-4.6539-8.0607-5.8799-17.4897-3.4521-26.5502,2.4277-9.0604,8.204-16.6132,16.2647-21.267l174.1705-100.5576c5.2797-3.0482,11.294-4.6596,17.3941-4.6602h.0014M212.3497,596.1595c-6.4882.0005-13.0562,1.644-19.0495,5.1042l-174.1705,100.5576c-18.2516,10.5375-24.5631,34.0923-14.0255,52.344l132.7388,229.9099c7.0773,12.2584,20.0237,19.1297,33.2945,19.1297,6.4883,0,13.0562-1.644,19.0495-5.1042l174.1706-100.5576c18.2516-10.5376,24.563-34.0924,14.0255-52.344l-132.7388-229.91c-7.0774-12.2584-20.0237-19.1306-33.2945-19.1296h0Z"/>
    </g>
    <line class="cls-4" x1="80.5166" y1="766.4042" x2="218.5374" y2="686.7177"/>
    <line class="cls-4" x1="93.8113" y1="789.4312" x2="170.0387" y2="745.4212"/>
    <line class="cls-4" x1="149.4006" y1="788.0394" x2="245.1267" y2="732.7718"/>
    <line class="cls-4" x1="132.9947" y1="857.2989" x2="271.0155" y2="777.6124"/>
    <line class="cls-4" x1="146.2894" y1="880.3259" x2="222.5168" y2="836.3159"/>
    <line class="cls-4" x1="201.8787" y1="878.9341" x2="297.6049" y2="823.6665"/>
    <g>
      <path class="cls-12" d="M59.2285,699.9002c-1.6069,0-3.0986-.8555-3.8936-2.2314l-14.5063-25.126c-.5938-1.0283-.7495-2.2334-.439-3.3926s1.0479-2.125,2.0762-2.7188l36.0356-20.8047-2.8799-1.9248c-3.2124-2.1465-5.8198-4.9307-7.75-8.2734-6.9331-12.0088-2.8037-27.4209,9.2056-34.3545,3.7935-2.1904,8.1147-3.3477,12.4956-3.3477,9.0122,0,17.3882,4.8105,21.8589,12.5537,1.9302,3.3428,3.0371,6.9922,3.29,10.8467l.2271,3.4561,36.0352-20.8037c.6733-.3887,1.4404-.5947,2.2178-.5947,1.6064,0,3.0981.8555,3.8926,2.2324l14.5068,25.125c.5938,1.0283.7495,2.2334.439,3.3926s-1.0479,2.125-2.0762,2.7188l-108.5181,62.6533c-.6729.3887-1.4395.5938-2.2168.5938h-.0005Z"/>
      <path class="cls-14" d="M89.5735,599.88c8.2451.0002,15.9059,4.3978,19.9929,11.4766,1.7635,3.0546,2.775,6.3896,3.0062,9.9121l.4536,6.9123,5.9991-3.4636,33.0354-19.073c.3513-.2028.7352-.3057,1.1409-.3057.8396,0,1.6166.4425,2.0279,1.1547l14.5063,25.1257c.6287,1.089.2399,2.5401-.849,3.1688l-108.5175,62.6527c-.3513.2028-.7352.3057-1.1409.3057-.8396,0-1.6166-.4424-2.0279-1.1547l-14.5063-25.1257c-.4131-.7155-.3176-1.4086-.224-1.7582.0937-.3495.3576-.9974,1.0731-1.4105l33.0355-19.0732,5.999-3.4635-5.7593-3.849c-2.9351-1.9615-5.3176-4.5049-7.0811-7.5594-3.056-5.2932-3.8605-11.4871-2.2653-17.4407,1.5953-5.9536,5.389-10.9154,10.6822-13.9715,3.4672-2.0017,7.4159-3.0598,11.4193-3.0597M89.5736,595.572c-4.624,0-9.3022,1.1709-13.5734,3.6369h0c-13.0049,7.5084-17.5021,24.2921-9.9937,37.297h0c2.1481,3.7206,5.0575,6.7412,8.4182,8.9872l-33.0355,19.0731c-3.1569,1.8226-4.2485,5.8967-2.4259,9.0535l14.5064,25.1257c1.224,2.1201,3.4636,3.3087,5.7587,3.3087,1.1224,0,2.2581-.2842,3.2949-.8828l108.5175-62.6527c3.1568-1.8226,4.2485-5.8967,2.4258-9.0536l-14.5063-25.1257c-1.224-2.12-3.4636-3.3087-5.7587-3.3087-1.1224,0-2.2581.2842-3.2949.8828l-33.0355,19.0731c-.2647-4.0335-1.426-8.0634-3.574-11.784h0c-5.0424-8.7338-14.2686-13.6304-23.7235-13.6306h0Z"/>
    </g>
  </g>
  <g>
    <path class="cls-6" d="M1575.429,236.0257c-244.365-39.1011,90.905-190.7103-238.3672-193.0844"/>
    <polygon class="cls-14" points="1351.0402 31.478 1339.107 43.0594 1350.6954 54.9858 1340.715 54.8394 1329.1336 42.9131 1341.0598 31.3316 1351.0402 31.478"/>
  </g>
  <g>
    <path class="cls-7" d="M242.4103,52.3471l-17.6378,30.5496c-2.0118,3.4845.5029,7.8401,4.5265,7.8401h35.2756c4.0235,0,6.5382-4.3556,4.5265-7.8401l-17.6378-30.5496c-2.0118-3.4845-7.0412-3.4845-9.0529,0Z"/>
    <circle class="cls-5" cx="272.872" cy="166.6971" r="20.9194"/>
    <rect class="cls-5" x="318.1159" y="84.2946" width="41.2112" height="41.2112" rx="8.5791" ry="8.5791"/>
  </g>
  <g>
    <path class="cls-6" d="M122.9232,576.2048s186.2752-133.2496,25.1404-231.5124C58.2044,289.8947-12.0274,151.3706,191.606,121.0026"/>
    <polygon class="cls-14" points="179.7582 134.8251 189.5975 121.4193 176.1859 111.5878 186.0514 110.0712 199.4561 119.9037 189.6237 133.3085 179.7582 134.8251"/>
  </g>
  <g>
    <path class="cls-17" d="M1243.6655,94.4539c-10.1885,0-19.6475-4.0249-26.6328-11.333-6.7686-7.0801-10.374-16.4116-10.1523-26.2759.2227-9.8643,4.2441-19.0239,11.3242-25.792,6.8545-6.5522,15.8867-10.1606,25.4346-10.1606,10.1885,0,19.6465,4.0249,26.6328,11.3335,6.7686,7.0796,10.374,16.4111,10.1514,26.2754-.2217,9.8643-4.2432,19.0239-11.3232,25.792-6.8535,6.5522-15.8867,10.1606-25.4346,10.1606Z"/>
    <path class="cls-10" d="M1243.6419,19.4625v2.8601h.0007c9.7921,0,18.8823,3.8679,25.5962,10.8912,6.5042,6.8038,9.9686,15.773,9.755,25.2553-.2136,9.4823-4.0782,18.2865-10.8821,24.7907-6.5866,6.2965-15.2686,9.7641-24.4467,9.7641-9.794,0-18.8854-3.8679-25.5993-10.8912-13.4869-14.1084-12.9814-36.559,1.1271-50.046,6.5859-6.2957,15.2679-9.7634,24.447-9.7641l.0022-2.8601M1243.6395,19.4625c-9.5146.0008-19.0447,3.5035-26.423,10.5568h0c-15.2097,14.5398-15.7578,38.8801-1.2181,54.0897h0c7.4864,7.8314,17.5679,11.7749,27.6667,11.7749,9.5145,0,19.0447-3.5035,26.423-10.5568h0c15.2097-14.5397,15.7578-38.8801,1.2181-54.0897h0c-7.4864-7.8314-17.5679-11.7757-27.6667-11.7749h0Z"/>
  </g>
  <path class="cls-8" d="M1235.4051,70.7573s15.3561,5.787,25.8994,2.2575c10.5433-3.5295-16.4342-69.4312-16.4342-69.4312"/>
  <line class="cls-1" x1="941.8764" y1="1015.6081" x2="1028.5863" y2="1076.8486"/>
  <line class="cls-1" x1="965.7071" y1="1095.7706" x2="1004.5308" y2="996.9692"/>
  <g>
    <path class="cls-3" d="M1067.8406,1029.1938s838.2345,73.7017,679.414-548.1114"/>
    <polygon class="cls-10" points="1761.9943 491.8198 1747.6372 483.1194 1738.9451 497.4816 1736.5414 487.696 1745.2352 473.3406 1759.5906 482.0342 1761.9943 491.8198"/>
  </g>
  <path class="cls-2" d="M434.703,139.4694s214.0183-95.5714,380.4771-19.5657c150.8534,68.8802-102.089,309.6996-150.8408,354.2472-9.3996,8.589-18.011,18.0143-25.5667,28.2629-35.4986,48.1501-94.3896,165.6688,126.959,215.9967,18.2713,4.1543,36.8082,7.0325,55.4505,8.9199,45.2509,4.5814,183.2694,33.8922,148.8972,221.2762"/>
  <g>
    <g>
      <polygon class="cls-9" points="1785.9651 178.8638 1708.9885 394.2339 1751.2789 444.0452 1828.2575 228.6775 1785.9651 178.8638"/>
      <polygon class="cls-11" points="1785.9651 178.8638 1708.9885 394.2339 1709.5807 394.9315 1786.7241 179.7578 1785.9651 178.8638"/>
      <polygon class="cls-9" points="1548.2677 423.5292 1708.9885 394.2339 1751.2789 444.0452 1590.5582 473.3406 1548.2677 423.5292"/>
      <polygon class="cls-9" points="1785.9651 178.8638 1708.9885 394.2339 1548.2677 423.5292 1625.2497 208.1602 1785.9651 178.8638"/>
      <polygon class="cls-15" points="1581.2592 331.2318 1741.9588 301.9757 1752.9742 271.1649 1592.2554 300.4613 1581.2592 331.2318"/>
      <polygon class="cls-15" points="1721.6763 190.5813 1644.7341 405.995 1612.5414 411.8526 1689.5294 196.4398 1721.6763 190.5813"/>
    </g>
    <polygon class="cls-18" points="1644.7324 405.9573 1665.8284 430.8672 1633.6845 436.729 1612.5427 411.8281 1644.7324 405.9573"/>
    <g>
      <g>
        <path class="cls-16" d="M1775.3039,281.5868c-3.0372-4.9002-3.5263-13.8597-.9747-20.9984.0079-.0222.0162-.0452.0247-.0667.3029-.8425.6366-1.6235.9957-2.3418.2854-.573.5868-1.1058.902-1.5972,1.0608-1.6585,2.2713-2.8457,3.5291-3.513,1.8417-.9746,3.7845-.8351,5.509.5794l-4.7865,13.3916,10.2221,12.04c.6178.7277,1.3817.5888,1.7029-.3096s.08-2.2222-.5378-2.95l-.3574-.421c-.219-.2579-.3042-.7252-.1903-1.0438s.3837-.3678.6026-.1099l.3574.421c1.0551,1.2427,1.467,3.5025.9184,5.0376-.5485,1.5346-1.8531,1.7721-2.9082.5294l-10.2221-12.04-4.7868,13.3925Z"/>
        <path class="cls-16" d="M1764.4392,274.2153l13.0884-36.6183,25.168,29.6439-13.0884,36.6183-25.168-29.6439ZM1777.996,240.1664l-12.0734,33.7784,23.2162,27.3449,12.0734-33.7784-23.2162-27.3449Z"/>
      </g>
      <g>
        <path class="cls-16" d="M1750.22,313.9971l13.0884-36.6183,25.168,29.6439-13.0884,36.6183-25.168-29.6439ZM1763.7768,279.9482l-12.0734,33.7784,23.2162,27.3449,12.0734-33.7784-23.2162-27.3449Z"/>
        <g>
          <path class="cls-16" d="M1758.0019,306.7857l6.3484,7.4773c2.0702,2.4383,4.6449,1.9689,5.7218-1.044l.8187-2.2905c1.0766-3.012.2639-7.4724-1.8062-9.9107l-6.3484-7.4773-2.3949,6.7002,2.3835.7153-1.0182,2.8487,7.0779,2.827-8.6567-1.1405,1.0391-2.9073-1.7062.1202-1.4588,4.0814Z"/>
          <polygon class="cls-16" points="1776.9768 321.1851 1777.7011 319.1587 1769.7484 309.7917 1769.0241 311.8181 1776.9768 321.1851"/>
          <polygon class="cls-16" points="1776.6931 319.4111 1780.6946 314.2341 1775.845 327.8021 1776.6931 319.4111"/>
        </g>
      </g>
      <g>
        <path class="cls-16" d="M1736.1338,353.4071l13.0884-36.6183,25.168,29.6439-13.0884,36.6183-25.168-29.6439ZM1749.6906,319.3582l-12.0734,33.7784,23.2162,27.3449,12.0734-33.7784-23.2162-27.3449Z"/>
        <path class="cls-16" d="M1746.3862,339.2692l23.0844,6.3814-10.5668,29.5633-12.5177-35.9448ZM1748.7242,342.0425l10.062,28.8932,8.4938-23.7637-18.5558-5.1295Z"/>
        <path class="cls-16" d="M1761.5253,357.297c-.2773.7757-.8543.8004-1.3727.1898-.5332-.628-.7411-1.5772-.4638-2.3529.2619-.7326.8395-.8178,1.3727-.1898.5184.6106.7334,1.5987.4638,2.3529ZM1758.2273,354.4536l-7.2168-8.0715.7394-2.0686,7.0011,8.6749-.5237,1.4653Z"/>
      </g>
      <g>
        <path class="cls-16" d="M1722.0119,392.9168l13.0884-36.6183,25.168,29.6439-13.0884,36.6183-25.168-29.6439ZM1735.5687,358.8679l-12.0734,33.7784,23.2162,27.3449,12.0734-33.7784-23.2162-27.3449Z"/>
        <g>
          <polygon class="cls-16" points="1746.3803 412.4442 1754.8532 388.7389 1752.4627 385.9233 1743.9898 409.6286 1746.3803 412.4442"/>
          <g>
            <polygon class="cls-16" points="1743.6851 404.2287 1744.6665 401.483 1732.4627 387.1087 1731.4812 389.8545 1743.6851 404.2287"/>
            <polygon class="cls-16" points="1732.421 394.4035 1735.134 386.8131 1729.0624 385.5449 1732.421 394.4035"/>
          </g>
          <g>
            <polygon class="cls-16" points="1748.4093 391.0117 1749.3907 388.2659 1737.1868 373.8917 1736.2054 376.6375 1748.4093 391.0117"/>
            <polygon class="cls-16" points="1737.1451 381.1865 1739.8582 373.596 1733.7865 372.3278 1737.1451 381.1865"/>
          </g>
        </g>
      </g>
    </g>
    <polygon class="cls-13" points="1741.9588 301.9757 1763.1163 326.8336 1774.1152 296.0664 1752.9742 271.1649 1741.9588 301.9757"/>
  </g>
</svg>