<?xml version="1.0" encoding="UTF-8"?>
<svg id="Layer_1" data-name="Layer 1" xmlns="http://www.w3.org/2000/svg" viewBox="0 0 483.02 442.7585">
  <defs>
    <style>
      .cls-1, .cls-2, .cls-3, .cls-4, .cls-5, .cls-6, .cls-7, .cls-8 {
        stroke: #272730;
        stroke-miterlimit: 10;
      }

      .cls-1, .cls-2, .cls-4, .cls-5, .cls-6, .cls-7 {
        fill: none;
        stroke-linecap: round;
      }

      .cls-1, .cls-3 {
        stroke-width: 3.9923px;
      }

      .cls-9 {
        fill: #edf469;
      }

      .cls-9, .cls-10, .cls-11, .cls-12 {
        stroke-width: 0px;
      }

      .cls-2 {
        stroke-width: 2.1932px;
      }

      .cls-10 {
        fill: #81eaae;
      }

      .cls-3 {
        fill: #fff;
      }

      .cls-4 {
        stroke-width: 2.5472px;
      }

      .cls-5 {
        stroke-width: 4.1436px;
      }

      .cls-11 {
        fill: #4c4c4c;
      }

      .cls-12, .cls-8 {
        fill: #272730;
      }

      .cls-6 {
        stroke-width: 5.6081px;
      }

      .cls-7 {
        stroke-width: 4.4576px;
      }

      .cls-8 {
        stroke-width: 3.184px;
      }
    </style>
  </defs>
  <g>
    <path class="cls-11" d="M338.6038,42.4881h18.1616c2.4354,0,4.4126,1.9772,4.4126,4.4126v66.0454c0,2.4346-1.9766,4.4111-4.4111,4.4111h-18.1626c-2.4354,0-4.4126-1.9772-4.4126-4.4126V46.9002c0-2.4351,1.977-4.4121,4.4121-4.4121Z"/>
    <path class="cls-12" d="M356.7667,44.5601c1.2905,0,2.3405,1.0499,2.3405,2.3405v66.0443c0,1.2905-1.0499,2.3405-2.3405,2.3405h-18.1631c-1.2906,0-2.3405-1.0499-2.3405-2.3405V46.9006c0-1.2905,1.0499-2.3405,2.3405-2.3405h18.1631M356.7667,40.4165h-18.1631c-3.581,0-6.484,2.903-6.484,6.484v66.0443c0,3.5811,2.903,6.4841,6.484,6.4841h18.1631c3.581,0,6.484-2.903,6.484-6.4841V46.9006c0-3.581-2.903-6.484-6.484-6.484h0Z"/>
  </g>
  <g>
    <path class="cls-9" d="M22.0344,361.5052v-209.0747c0-10.4497,8.5015-18.9517,18.9517-18.9517h400.896c10.4502,0,18.9512,8.502,18.9512,18.9517v209.0747H22.0344Z"/>
    <path class="cls-12" d="M441.8817,134.8328c9.7034,0,17.5976,7.8943,17.5976,17.5977v207.7207H23.3886v-207.7207c0-9.7034,7.8942-17.5977,17.5976-17.5977h400.8955M441.8817,132.1247H40.9862c-11.1681,0-20.3057,9.1376-20.3057,20.3058v210.4288h441.507v-210.4288c0-11.1682-9.1375-20.3058-20.3058-20.3058h0Z"/>
  </g>
  <g>
    <path class="cls-9" d="M22.0344,364.0472V124.7801c0-5.9873,4.8706-10.8579,10.8574-10.8579h210.8203c4.5811,0,8.3086-3.7266,8.3086-8.3076v-1.5391c0-8.2617,6.7207-14.9829,14.9824-14.9829h159.0303c8.2617,0,14.9824,6.7212,14.9824,14.9829v1.5391c0,4.5811,3.7275,8.3076,8.3086,8.3076h.6514c5.9873,0,10.8574,4.8706,10.8574,10.8579v239.2671H22.0344Z"/>
    <path class="cls-12" d="M426.0334,90.4466c7.515,0,13.6289,6.1139,13.6289,13.6289v1.539c0,5.3277,4.3343,9.662,9.662,9.662h.6516c5.2402,0,9.5034,4.2632,9.5034,9.5035v237.914H23.3886V124.78c0-5.2402,4.2633-9.5035,9.5034-9.5035h210.8206c5.3277,0,9.662-4.3343,9.662-9.662v-1.5391c0-7.5149,6.1139-13.6288,13.6289-13.6288h159.0299M426.0334,87.7385h-159.0299c-9.0227,0-16.337,7.3143-16.337,16.3369v1.5391c0,3.8406-3.1134,6.9539-6.9539,6.9539H32.892c-6.7164,0-12.2116,5.4953-12.2116,12.2116v240.6221h441.507V124.78c0-6.7164-5.4952-12.2116-12.2115-12.2116h-.6516c-3.8405,0-6.9539-3.1133-6.9539-6.9539v-1.539c0-9.0227-7.3144-16.337-16.3371-16.337h0Z"/>
  </g>
  <g>
    <rect class="cls-11" x="35.572" y="156.2196" width="161.2456" height="35.2539" rx="8.4814" ry="8.4814"/>
    <path class="cls-12" d="M188.336,158.2914c3.5343,0,6.4097,2.8754,6.4097,6.4097v18.291c0,3.5343-2.8754,6.4097-6.4097,6.4097H44.0536c-3.5343,0-6.4097-2.8754-6.4097-6.4097v-18.291c0-3.5343,2.8754-6.4097,6.4097-6.4097h144.2825M188.336,154.1478H44.0536c-5.8284,0-10.5533,4.7249-10.5533,10.5533v18.291c0,5.8284,4.7249,10.5533,10.5533,10.5533h144.2825c5.8284,0,10.5533-4.7249,10.5533-10.5533v-18.291c0-5.8284-4.7249-10.5533-10.5533-10.5533h0Z"/>
  </g>
  <g>
    <path class="cls-10" d="M275.3918,12.0897h144.5869c11.4549,0,20.7549,9.3,20.7549,20.7549v15.1431c0,11.4555-9.3004,20.7559-20.7559,20.7559h-144.5859c-11.4549,0-20.7549-9.3-20.7549-20.7549v-15.144c0-11.4549,9.3-20.7549,20.7549-20.7549Z"/>
    <path class="cls-12" d="M419.9779,14.8935c9.8982,0,17.951,8.0528,17.951,17.951v15.1441c0,9.8982-8.0528,17.951-17.951,17.951h-144.5856c-9.8982,0-17.951-8.0528-17.951-17.951v-15.1441c0-9.8982,8.0528-17.951,17.951-17.951h144.5856M419.9779,9.2853h-144.5856c-13.0114,0-23.5591,10.5478-23.5591,23.5592v15.1441c0,13.0114,10.5478,23.5592,23.5591,23.5592h144.5856c13.0114,0,23.5591-10.5478,23.5591-23.5592v-15.1441c0-13.0114-10.5478-23.5592-23.5591-23.5592h0Z"/>
  </g>
  <g>
    <g>
      <rect class="cls-12" x="60.2634" y="214.6278" width="21.2925" height="23.8843" rx="7.1006" ry="7.1006"/>
      <path class="cls-12" d="M74.4548,216.9224c2.6502,0,4.8063,2.1561,4.8063,4.8063v9.6831c0,2.6502-2.1561,4.8063-4.8063,4.8063h-7.0908c-2.6502,0-4.8063-2.1561-4.8063-4.8063v-9.6831c0-2.6502,2.1561-4.8063,4.8063-4.8063h7.0908M74.4548,212.3335h-7.0908c-5.1889,0-9.3953,4.2064-9.3953,9.3953v9.6831c0,5.1889,4.2064,9.3953,9.3953,9.3953h7.0908c5.1889,0,9.3953-4.2064,9.3953-9.3953v-9.6831c0-5.1889-4.2064-9.3953-9.3953-9.3953h0Z"/>
    </g>
    <g>
      <rect class="cls-12" x="105.0583" y="214.6278" width="21.2925" height="23.8843" rx="7.1006" ry="7.1006"/>
      <path class="cls-12" d="M119.2497,216.9224c2.6502,0,4.8063,2.1561,4.8063,4.8063v9.6831c0,2.6502-2.1561,4.8063-4.8063,4.8063h-7.0908c-2.6502,0-4.8063-2.1561-4.8063-4.8063v-9.6831c0-2.6502,2.1561-4.8063,4.8063-4.8063h7.0908M119.2497,212.3335h-7.0908c-5.1889,0-9.3953,4.2064-9.3953,9.3953v9.6831c0,5.1889,4.2064,9.3953,9.3953,9.3953h7.0908c5.1889,0,9.3953-4.2064,9.3953-9.3953v-9.6831c0-5.1889-4.2064-9.3953-9.3953-9.3953h0Z"/>
    </g>
    <g>
      <rect class="cls-12" x="147.1584" y="214.6278" width="21.2925" height="23.8843" rx="7.1011" ry="7.1011"/>
      <path class="cls-12" d="M161.3502,216.9224c2.6502,0,4.8063,2.1561,4.8063,4.8063v9.6831c0,2.6502-2.1561,4.8063-4.8063,4.8063h-7.0908c-2.6502,0-4.8064-2.1561-4.8064-4.8063v-9.6831c0-2.6502,2.1561-4.8063,4.8064-4.8063h7.0908M161.3502,212.3335h-7.0908c-5.1889,0-9.3953,4.2064-9.3953,9.3953v9.6831c0,5.1889,4.2064,9.3953,9.3953,9.3953h7.0908c5.1889,0,9.3953-4.2064,9.3953-9.3953v-9.6831c0-5.1889-4.2064-9.3953-9.3953-9.3953h0Z"/>
    </g>
    <g>
      <rect class="cls-12" x="61.6106" y="261.5121" width="21.2925" height="23.8838" rx="7.1006" ry="7.1006"/>
      <path class="cls-12" d="M75.802,263.8062c2.6502,0,4.8063,2.1561,4.8063,4.8063v9.6831c0,2.6502-2.1561,4.8063-4.8063,4.8063h-7.0908c-2.6502,0-4.8063-2.1561-4.8063-4.8063v-9.6831c0-2.6502,2.1561-4.8063,4.8063-4.8063h7.0908M75.802,259.2173h-7.0908c-5.1889,0-9.3953,4.2064-9.3953,9.3953v9.6831c0,5.1889,4.2064,9.3953,9.3953,9.3953h7.0908c5.1889,0,9.3953-4.2064,9.3953-9.3953v-9.6831c0-5.1889-4.2064-9.3953-9.3953-9.3953h0Z"/>
    </g>
    <g>
      <rect class="cls-12" x="106.4055" y="261.5121" width="21.2925" height="23.8838" rx="7.1006" ry="7.1006"/>
      <path class="cls-12" d="M120.5969,263.8062c2.6502,0,4.8063,2.1561,4.8063,4.8063v9.6831c0,2.6502-2.1561,4.8063-4.8063,4.8063h-7.0908c-2.6502,0-4.8063-2.1561-4.8063-4.8063v-9.6831c0-2.6502,2.1561-4.8063,4.8063-4.8063h7.0908M120.5969,259.2173h-7.0908c-5.1889,0-9.3953,4.2064-9.3953,9.3953v9.6831c0,5.1889,4.2064,9.3953,9.3953,9.3953h7.0908c5.1889,0,9.3953-4.2064,9.3953-9.3953v-9.6831c0-5.1889-4.2064-9.3953-9.3953-9.3953h0Z"/>
    </g>
    <g>
      <rect class="cls-12" x="148.5056" y="261.5121" width="21.2925" height="23.8838" rx="7.1011" ry="7.1011"/>
      <path class="cls-12" d="M162.6974,263.8062c2.6502,0,4.8063,2.1561,4.8063,4.8063v9.6831c0,2.6502-2.1561,4.8063-4.8063,4.8063h-7.0908c-2.6502,0-4.8064-2.1561-4.8064-4.8063v-9.6831c0-2.6502,2.1561-4.8063,4.8064-4.8063h7.0908M162.6974,259.2173h-7.0908c-5.1889,0-9.3953,4.2064-9.3953,9.3953v9.6831c0,5.1889,4.2064,9.3953,9.3953,9.3953h7.0908c5.1889,0,9.3953-4.2064,9.3953-9.3953v-9.6831c0-5.1889-4.2064-9.3953-9.3953-9.3953h0Z"/>
    </g>
    <g>
      <rect class="cls-12" x="61.6106" y="308.3959" width="21.2925" height="23.8838" rx="7.1006" ry="7.1006"/>
      <path class="cls-12" d="M75.802,310.69c2.6502,0,4.8063,2.1561,4.8063,4.8063v9.6831c0,2.6502-2.1561,4.8063-4.8063,4.8063h-7.0908c-2.6502,0-4.8063-2.1561-4.8063-4.8063v-9.6831c0-2.6502,2.1561-4.8063,4.8063-4.8063h7.0908M75.802,306.1011h-7.0908c-5.1889,0-9.3953,4.2064-9.3953,9.3953v9.6831c0,5.1889,4.2064,9.3953,9.3953,9.3953h7.0908c5.1889,0,9.3953-4.2064,9.3953-9.3953v-9.6831c0-5.1889-4.2064-9.3953-9.3953-9.3953h0Z"/>
    </g>
    <g>
      <rect class="cls-12" x="106.4055" y="308.3959" width="21.2925" height="23.8838" rx="7.1006" ry="7.1006"/>
      <path class="cls-12" d="M120.5969,310.69c2.6502,0,4.8063,2.1561,4.8063,4.8063v9.6831c0,2.6502-2.1561,4.8063-4.8063,4.8063h-7.0908c-2.6502,0-4.8063-2.1561-4.8063-4.8063v-9.6831c0-2.6502,2.1561-4.8063,4.8063-4.8063h7.0908M120.5969,306.1011h-7.0908c-5.1889,0-9.3953,4.2064-9.3953,9.3953v9.6831c0,5.1889,4.2064,9.3953,9.3953,9.3953h7.0908c5.1889,0,9.3953-4.2064,9.3953-9.3953v-9.6831c0-5.1889-4.2064-9.3953-9.3953-9.3953h0Z"/>
    </g>
    <g>
      <rect class="cls-12" x="148.5056" y="308.3959" width="21.2925" height="23.8838" rx="7.1011" ry="7.1011"/>
      <path class="cls-12" d="M162.6974,310.69c2.6502,0,4.8063,2.1561,4.8063,4.8063v9.6831c0,2.6502-2.1561,4.8063-4.8063,4.8063h-7.0908c-2.6502,0-4.8064-2.1561-4.8064-4.8063v-9.6831c0-2.6502,2.1561-4.8063,4.8064-4.8063h7.0908M162.6974,306.1011h-7.0908c-5.1889,0-9.3953,4.2064-9.3953,9.3953v9.6831c0,5.1889,4.2064,9.3953,9.3953,9.3953h7.0908c5.1889,0,9.3953-4.2064,9.3953-9.3953v-9.6831c0-5.1889-4.2064-9.3953-9.3953-9.3953h0Z"/>
    </g>
  </g>
  <g>
    <path class="cls-9" d="M13.9709,441.3773c-6.9419,0-12.5894-5.6484-12.5894-12.5898v-58.7314c0-3.874,3.1514-7.0254,7.0249-7.0254h466.207c3.874,0,7.0254,3.1514,7.0254,7.0254v58.7314c0,6.9414-5.6484,12.5898-12.5898,12.5898H13.9709Z"/>
    <path class="cls-12" d="M474.6137,364.4124c3.1121,0,5.6439,2.5318,5.6439,5.6439v58.7315c0,6.1803-5.028,11.2083-11.2084,11.2083H13.9708c-6.1803,0-11.2084-5.028-11.2084-11.2083v-58.7315c0-3.1121,2.5318-5.6439,5.6439-5.6439h466.2075M474.6137,361.65H8.4063c-4.6427,0-8.4063,3.7636-8.4063,8.4062v58.7315c0,7.6839,6.2869,13.9707,13.9708,13.9707h455.0784c7.6839,0,13.9708-6.2868,13.9708-13.9707v-58.7315c0-4.6427-3.7636-8.4062-8.4063-8.4062h0Z"/>
  </g>
  <path class="cls-3" d="M169.3772,173.3903V31.8969c0-5.7973-4.7432-10.5405-10.5405-10.5405h-85.2838c-5.7973,0-10.5405,4.7432-10.5405,10.5405v141.4254c0,.3292.3382.5499.6396.4174l10.3793-4.5652c1.6533-.7272,3.5357-.7287,5.1901-.004l8.5498,3.7447c1.6129.7064,3.4443.7235,5.0701.0473l9.4979-3.9504c1.9903-.8278,4.2623-.6078,6.0568.5864l3.4012,2.2634c1.9954,1.3279,4.5622,1.4412,6.6669.2943l5.0137-2.7322c2.1476-1.1703,4.7722-1.0268,6.7793.3708l2.7583,1.9206c2.0259,1.4107,4.6789,1.5427,6.8349.3402l6.2863-3.5062c1.5781-.8802,3.4529-1.0589,5.1688-.4925l17.473,5.7665c.295.0974.5989-.1223.5989-.433Z"/>
  <g>
    <g>
      <line class="cls-2" x1="76.0647" y1="121.0222" x2="135.7171" y2="121.0221"/>
      <line class="cls-2" x1="76.0647" y1="130.4211" x2="109.0101" y2="130.4211"/>
      <line class="cls-2" x1="94.3444" y1="139.8201" x2="135.7171" y2="139.82"/>
      <line class="cls-2" x1="76.0647" y1="103.6258" x2="109.0101" y2="103.6258"/>
      <line class="cls-2" x1="94.3444" y1="113.0248" x2="135.7171" y2="113.0247"/>
    </g>
    <rect class="cls-12" x="154.2679" y="101.9529" width="6.4302" height="3.3459" rx="1.0946" ry="1.0946"/>
    <rect class="cls-12" x="154.2679" y="111.3518" width="6.4302" height="3.3459" rx="1.0946" ry="1.0946"/>
    <rect class="cls-12" x="154.2679" y="120.7507" width="6.4302" height="3.3459" rx="1.0946" ry="1.0946"/>
    <rect class="cls-12" x="154.2679" y="130.1497" width="6.4302" height="3.3459" rx="1.0946" ry="1.0946"/>
    <rect class="cls-12" x="154.2679" y="139.5486" width="6.4302" height="3.3459" rx="1.0946" ry="1.0946"/>
    <g>
      <g>
        <line class="cls-2" x1="76.0647" y1="74.0275" x2="135.7171" y2="74.0274"/>
        <line class="cls-2" x1="76.0647" y1="83.4265" x2="109.0101" y2="83.4264"/>
        <line class="cls-2" x1="94.3444" y1="92.8254" x2="135.7171" y2="92.8254"/>
        <line class="cls-2" x1="76.0647" y1="56.6311" x2="109.0101" y2="56.6311"/>
        <line class="cls-2" x1="94.3444" y1="66.0301" x2="135.7171" y2="66.03"/>
      </g>
      <rect class="cls-12" x="154.2679" y="54.9582" width="6.4302" height="3.3459" rx="1.0946" ry="1.0946"/>
      <rect class="cls-12" x="154.2679" y="64.3571" width="6.4302" height="3.3459" rx="1.0946" ry="1.0946"/>
      <rect class="cls-12" x="154.2679" y="73.7561" width="6.4302" height="3.3459" rx="1.0946" ry="1.0946"/>
      <rect class="cls-12" x="154.2679" y="83.155" width="6.4302" height="3.3459" rx="1.0946" ry="1.0946"/>
      <rect class="cls-12" x="154.2679" y="92.5539" width="6.4302" height="3.3459" rx="1.0946" ry="1.0946"/>
    </g>
  </g>
  <g>
    <g>
      <path class="cls-10" d="M281.2209,120.0106h132.5933c7.5029,0,13.5942,6.0914,13.5942,13.5942v62.3296c0,7.5031-6.0916,13.5947-13.5947,13.5947h-132.5928c-7.5031,0-13.5947-6.0916-13.5947-13.5947v-62.3291c0-7.5031,6.0916-13.5947,13.5947-13.5947Z"/>
      <path class="cls-12" d="M413.8133,122.8146c5.9499,0,10.7904,4.8406,10.7904,10.7905v62.3299c0,5.9499-4.8406,10.7905-10.7904,10.7905h-132.592c-5.9499,0-10.7904-4.8406-10.7904-10.7905v-62.3299c0-5.9499,4.8406-10.7905,10.7904-10.7905h132.592M413.8133,117.2065h-132.592c-9.0567,0-16.3986,7.3419-16.3986,16.3986v62.3299c0,9.0567,7.3419,16.3986,16.3986,16.3986h132.592c9.0567,0,16.3986-7.3419,16.3986-16.3986v-62.3299c0-9.0567-7.3419-16.3986-16.3986-16.3986h0Z"/>
    </g>
    <line class="cls-1" x1="286.2916" y1="182.3672" x2="316.171" y2="182.3672"/>
    <line class="cls-1" x1="332.7454" y1="182.3672" x2="362.6248" y2="182.3672"/>
    <line class="cls-1" x1="380.1115" y1="182.3672" x2="409.991" y2="182.3672"/>
  </g>
  <path class="cls-12" d="M396.2066,319.3564c.9458,0,1.7153.7695,1.7153,1.7153v7.6442c0,.9458-.7695,1.7153-1.7153,1.7153h-104.6079c-.9458,0-1.7153-.7695-1.7153-1.7153v-7.6442c0-.9458.7695-1.7153,1.7153-1.7153h104.6079M396.2066,315.2129h-104.6079c-3.2357,0-5.8589,2.6231-5.8589,5.8589v7.6442c0,3.2357,2.6231,5.8588,5.8589,5.8588h104.6079c3.2357,0,5.8589-2.6231,5.8589-5.8588v-7.6442c0-3.2357-2.6231-5.8589-5.8589-5.8589h0Z"/>
  <rect class="cls-12" x="183.2712" y="392.5233" width="116.3256" height="19.3619" rx="5.8589" ry="5.8589"/>
  <line class="cls-5" x1="57.7821" y1="175.2278" x2="175.019" y2="175.2278"/>
  <line class="cls-6" x1="274.2776" y1="55.1342" x2="418.4288" y2="55.1342"/>
  <g>
    <circle class="cls-7" cx="347.6851" cy="263.7732" r="37.2077"/>
    <path class="cls-4" d="M317.2065,263.7732c0-16.8328,13.6457-30.4786,30.4786-30.4786"/>
    <path class="cls-8" d="M345.3072,286.4559v-2.7774c-3.0797-.0529-6.2472-.8514-8.525-2.0331-.7781-.4037-1.1234-1.3321-.8278-2.1573l.3454-.9643c.3533-.9862,1.4859-1.4629,2.4252-.9992,2.1222,1.0476,4.7574,1.7806,7.547,1.7806,4.5664,0,7.6534-2.637,7.6534-6.303,0-3.5372-2.5083-5.724-7.2675-7.6534-6.5601-2.5727-10.6122-5.5312-10.6122-11.1265,0-5.3381,3.7946-9.3899,9.7117-10.3548v-3.1021c0-.4675.379-.8465.8465-.8465h2.2945c.4675,0,.8465.379.8465.8465v2.845c2.8361.0944,5.0121.6753,6.7068,1.4106.9454.4102,1.4126,1.4782,1.0476,2.442l-.248.6546c-.3884,1.0255-1.5509,1.5082-2.5567,1.0712-1.4853-.6453-3.5666-1.2695-6.3004-1.2695-4.9523,0-6.8172,2.9585-6.8172,5.5312,0,3.3444,2.3796,5.0166,7.9752,7.3318,6.6245,2.7011,9.9686,6.0455,9.9686,11.7695,0,5.081-3.5372,9.8402-10.1617,10.9337v2.9702c0,.647-.5245,1.1715-1.1715,1.1715h-1.7089c-.647,0-1.1715-.5245-1.1715-1.1715Z"/>
  </g>
</svg>