<?xml version="1.0" encoding="UTF-8"?>
<svg id="Layer_1" data-name="Layer 1" xmlns="http://www.w3.org/2000/svg" viewBox="0 0 522 522">
  <defs>
    <style>
      .cls-1 {
        fill: #000;
      }

      .cls-1, .cls-2 {
        stroke-width: 0px;
      }

      .cls-3 {
        stroke-width: 22px;
      }

      .cls-3, .cls-4 {
        stroke-miterlimit: 10;
      }

      .cls-3, .cls-4, .cls-5 {
        fill: none;
      }

      .cls-3, .cls-5 {
        stroke: #272730;
      }

      .cls-4 {
        stroke: #4ad1a0;
        stroke-width: 10.3038px;
      }

      .cls-4, .cls-5 {
        stroke-linecap: round;
      }

      .cls-2 {
        fill: #fff;
      }

      .cls-5 {
        fill-rule: evenodd;
        stroke-linejoin: round;
        stroke-width: 64.8228px;
      }
    </style>
  </defs>
  <rect class="cls-3" x="11" y="11" width="500" height="500" rx="119.363" ry="119.363"/>
  <path class="cls-5" d="M417.4265,276.9415c0,86.392-70.0345,156.4265-156.4265,156.4265s-156.4265-70.0345-156.4265-156.4265,70.0345-156.4265,156.4265-156.4265"/>
  <g>
    <g>
      <path class="cls-2" d="M258.4697,172.4795c-30.0396,0-54.478-24.4385-54.478-54.478s24.4385-54.478,54.478-54.478,54.478,24.4385,54.478,54.478-24.4385,54.478-54.478,54.478Z"/>
      <path class="cls-1" d="M258.4696,63.0006v1.0455c29.751,0,53.9553,24.2043,53.9553,53.9554,0,29.7511-24.2043,53.9553-53.9554,53.9554-29.751,0-53.9553-24.2043-53.9553-53.9554,0-14.3512,5.629-27.8839,15.8502-38.1051,10.2212-10.2212,23.7539-15.8503,38.1051-15.8503v-1.0455M258.4695,63.0006h-.0001c-30.2505,0-55.0008,24.7505-55.0008,55.0009h0c0,30.2506,24.7505,55.0009,55.0009,55.0009h.0001c30.2505,0,55.0008-24.7505,55.0008-55.0009h0c0-30.2506-24.7505-55.0009-55.0009-55.0009h0Z"/>
    </g>
    <path class="cls-4" d="M236.9008,123.4057s10.2093,21.2694,24.6725,28.0755c14.4632,6.8062,51.8971-88.4806,51.8971-88.4806"/>
  </g>
</svg>