<?xml version="1.0" encoding="UTF-8"?>
<svg id="Layer_1" data-name="Layer 1" xmlns="http://www.w3.org/2000/svg" viewBox="0 0 498.0268 498.0268">
  <defs>
    <style>
      .cls-1 {
        stroke-width: 6.4853px;
      }

      .cls-1, .cls-2, .cls-3, .cls-4, .cls-5, .cls-6, .cls-7 {
        stroke-miterlimit: 10;
      }

      .cls-1, .cls-2, .cls-3, .cls-4, .cls-6 {
        fill: none;
        stroke-linecap: round;
      }

      .cls-1, .cls-3, .cls-5, .cls-6, .cls-7 {
        stroke: #272730;
      }

      .cls-2 {
        stroke: #63c189;
        stroke-width: 2.5582px;
      }

      .cls-3 {
        stroke-width: 3.4326px;
      }

      .cls-4 {
        stroke: #6d1fe8;
        stroke-width: 1.0086px;
      }

      .cls-8 {
        fill: #95f9af;
      }

      .cls-8, .cls-9, .cls-10, .cls-11 {
        stroke-width: 0px;
      }

      .cls-5 {
        stroke-width: .5679px;
      }

      .cls-5, .cls-11 {
        fill: #272730;
      }

      .cls-9 {
        fill: #7a7a7a;
      }

      .cls-10 {
        fill: #58f986;
      }

      .cls-6 {
        stroke-width: 26.3922px;
      }

      .cls-7 {
        fill: #fff;
        stroke-width: 6.2486px;
      }
    </style>
  </defs>
  <circle class="cls-8" cx="249.0134" cy="249.0134" r="249.0134"/>
  <circle class="cls-10" cx="249.0134" cy="249.0134" r="178.2233"/>
  <g>
    <g>
      <path class="cls-6" d="M36.672,308.998c26.1206,92.5129,111.1474,160.3132,212.0194,160.3132,107.9015,0,197.6722-77.579,216.6074-179.9992"/>
      <polygon class="cls-11" points="15.7131 350.1673 37.9563 314.0616 74.0491 336.3258 68.1727 311.5591 32.084 289.312 9.8367 325.4005 15.7131 350.1673"/>
    </g>
    <g>
      <path class="cls-6" d="M460.7107,189.0287c-26.1206-92.513-111.1473-160.3131-212.0194-160.3131-107.9014,0-197.6722,77.5788-216.6074,179.999"/>
      <polygon class="cls-11" points="481.6695 147.8594 459.4264 183.9651 423.3336 161.7008 429.21 186.4676 465.2987 208.7147 487.546 172.6261 481.6695 147.8594"/>
    </g>
  </g>
  <g>
    <g>
      <path class="cls-9" d="M135.7795,315.2981h225.8252c7.3263,0,13.2744,5.9481,13.2744,13.2744v28.6279c0,7.3269-5.9485,13.2754-13.2754,13.2754h-225.8242c-7.3269,0-13.2754-5.9485-13.2754-13.2754v-28.627c0-7.3269,5.9485-13.2754,13.2754-13.2754Z"/>
      <path class="cls-11" d="M361.6033,318.5401c5.5319,0,10.0322,4.5004,10.0322,10.0322v28.6282c0,5.5317-4.5004,10.0322-10.0322,10.0322h-225.824c-5.5317,0-10.0322-4.5004-10.0322-10.0322v-28.6282c0-5.5317,4.5004-10.0322,10.0322-10.0322h225.824M361.6033,312.0548h-225.824c-9.1224,0-16.5175,7.3951-16.5175,16.5175v28.6282c0,9.1224,7.3951,16.5175,16.5175,16.5175h225.824c9.1224,0,16.5176-7.3951,16.5176-16.5175v-28.6282c0-9.1224-7.3951-16.5175-16.5176-16.5175h0Z"/>
    </g>
    <path class="cls-7" d="M331.9299,342.1722V120.7136c0-9.0736-7.4239-16.4975-16.4975-16.4975h-133.4821c-9.0736,0-16.4975,7.4239-16.4975,16.4975v221.3521c0,.5153.5294.8607,1.001.6533l16.2452-7.1453c2.5877-1.1382,5.5338-1.1405,8.1233-.0063l13.3817,5.861c2.5244,1.1057,5.3909,1.1324,7.9355.0741l14.8656-6.1829c3.115-1.2956,6.6712-.9513,9.4799.9178l5.3233,3.5425c3.1231,2.0784,7.1405,2.2557,10.4346.4606l7.8472-4.2762c3.3614-1.8317,7.4692-1.607,10.6107.5804l4.3171,3.0061c3.1709,2.2079,7.3232,2.4146,10.6977.5325l9.839-5.4878c2.47-1.3777,5.4043-1.6573,8.09-.7709l27.3479,9.0255c.4617.1524.9373-.1915.9373-.6777Z"/>
    <g>
      <g>
        <line class="cls-3" x1="185.8816" y1="260.2082" x2="279.2466" y2="260.2081"/>
        <line class="cls-3" x1="185.8817" y1="274.919" x2="237.4462" y2="274.9189"/>
        <line class="cls-3" x1="214.4921" y1="289.6298" x2="279.2467" y2="289.6297"/>
        <line class="cls-3" x1="185.8816" y1="232.9802" x2="237.4461" y2="232.9802"/>
        <line class="cls-3" x1="214.4921" y1="247.691" x2="279.2466" y2="247.6909"/>
      </g>
      <rect class="cls-11" x="308.2814" y="230.3618" width="10.0642" height="5.2368" rx="1.7132" ry="1.7132"/>
      <rect class="cls-11" x="308.2814" y="245.0726" width="10.0642" height="5.2368" rx="1.7132" ry="1.7132"/>
      <rect class="cls-11" x="308.2814" y="259.7834" width="10.0642" height="5.2368" rx="1.7132" ry="1.7132"/>
      <rect class="cls-11" x="308.2814" y="274.4941" width="10.0642" height="5.2368" rx="1.7132" ry="1.7132"/>
      <rect class="cls-11" x="308.2814" y="289.2049" width="10.0642" height="5.2368" rx="1.7132" ry="1.7132"/>
      <g>
        <g>
          <line class="cls-3" x1="185.8816" y1="186.6544" x2="279.2466" y2="186.6543"/>
          <line class="cls-3" x1="185.8817" y1="201.3652" x2="237.4462" y2="201.3651"/>
          <line class="cls-3" x1="214.4921" y1="216.076" x2="279.2467" y2="216.0759"/>
          <line class="cls-3" x1="185.8816" y1="159.4264" x2="237.4461" y2="159.4264"/>
          <line class="cls-3" x1="214.4921" y1="174.1372" x2="279.2466" y2="174.1371"/>
        </g>
        <rect class="cls-11" x="308.2814" y="156.808" width="10.0642" height="5.2368" rx="1.7132" ry="1.7132"/>
        <rect class="cls-11" x="308.2814" y="171.5188" width="10.0642" height="5.2368" rx="1.7132" ry="1.7132"/>
        <rect class="cls-11" x="308.2814" y="186.2296" width="10.0642" height="5.2368" rx="1.7132" ry="1.7132"/>
        <rect class="cls-11" x="308.2814" y="200.9403" width="10.0642" height="5.2368" rx="1.7132" ry="1.7132"/>
        <rect class="cls-11" x="308.2814" y="215.6511" width="10.0642" height="5.2368" rx="1.7132" ry="1.7132"/>
      </g>
    </g>
    <line class="cls-1" x1="157.2666" y1="345.0482" x2="340.7602" y2="345.0482"/>
    <ellipse class="cls-4" cx="290.088" cy="314.5147" rx="26.795" ry="9.3188" transform="translate(-53.6274 59.7004) rotate(-10.7621)"/>
    <rect class="cls-11" x="286.8513" y="312.9919" width="19.4642" height="3.0456" rx="1.5228" ry="1.5228"/>
  </g>
  <path class="cls-2" d="M297.1785,316.0248s2.5347,5.2806,6.1255,6.9704,12.8847-21.9673,12.8847-21.9673"/>
  <path class="cls-5" d="M282.5562,318.5603v-.4954c-.5493-.0094-1.1142-.1518-1.5205-.3626-.1388-.072-.2004-.2376-.1476-.3848l.0616-.172c.063-.1759.265-.2609.4325-.1782.3785.1868.8485.3176,1.346.3176.8144,0,1.365-.4703,1.365-1.1242,0-.6309-.4474-1.0209-1.2962-1.365-1.17-.4588-1.8927-.9865-1.8927-1.9845,0-.9521.6768-1.6747,1.7321-1.8468v-.5533c0-.0834.0676-.151.151-.151h.4092c.0834,0,.151.0676.151.151v.5074c.5058.0168.8939.1204,1.1962.2516.1686.0732.252.2636.1868.4355l-.0442.1168c-.0693.1829-.2766.269-.456.1911-.2649-.1151-.6361-.2264-1.1237-.2264-.8833,0-1.2159.5277-1.2159.9865,0,.5965.4244.8947,1.4224,1.3077,1.1815.4818,1.7779,1.0782,1.7779,2.0991,0,.9062-.6309,1.755-1.8124,1.9501v.5297c0,.1154-.0935.2089-.2089.2089h-.3048c-.1154,0-.2089-.0935-.2089-.2089Z"/>
</svg>