<?xml version="1.0" encoding="UTF-8"?>
<svg id="Layer_1" data-name="Layer 1" xmlns="http://www.w3.org/2000/svg" viewBox="0 0 498.0268 498.0268">
  <defs>
    <style>
      .cls-1 {
        stroke-width: 4.4634px;
      }

      .cls-1, .cls-2, .cls-3, .cls-4, .cls-5, .cls-6, .cls-7 {
        stroke-miterlimit: 10;
      }

      .cls-1, .cls-2, .cls-3, .cls-4, .cls-6, .cls-7 {
        stroke: #272730;
      }

      .cls-1, .cls-3, .cls-5, .cls-6, .cls-7 {
        fill: none;
        stroke-linecap: round;
      }

      .cls-2 {
        stroke-width: .7384px;
      }

      .cls-2, .cls-8 {
        fill: #272730;
      }

      .cls-3 {
        stroke-width: 5.9595px;
      }

      .cls-9 {
        fill: #95f9af;
        opacity: .67;
      }

      .cls-9, .cls-10, .cls-11, .cls-8 {
        stroke-width: 0px;
      }

      .cls-4 {
        fill: #fff;
        stroke-width: 8.125px;
      }

      .cls-5 {
        stroke: #6d1fe8;
        stroke-width: 1.3115px;
      }

      .cls-10 {
        fill: #7a7a7a;
      }

      .cls-6 {
        stroke-width: 8.4328px;
      }

      .cls-11 {
        fill: #58f986;
      }

      .cls-7 {
        stroke-width: 3.836px;
      }
    </style>
  </defs>
  <circle class="cls-9" cx="249.0134" cy="249.0134" r="249.0134"/>
  <circle class="cls-11" cx="249.0134" cy="249.0134" r="178.2233"/>
  <g>
    <g>
      <g>
        <rect class="cls-10" x="84.9111" y="338.9831" width="328.1572" height="71.7461" rx="17.2612" ry="17.2612"/>
        <path class="cls-8" d="M395.8073,343.1993c7.1929,0,13.0447,5.8518,13.0447,13.0447v37.2247c0,7.1929-5.8518,13.0447-13.0447,13.0447H102.1721c-7.1929,0-13.0447-5.8518-13.0447-13.0447v-37.2247c0-7.1929,5.8518-13.0447,13.0447-13.0447h293.6353M395.8073,334.7665H102.1721c-11.8617,0-21.4775,9.6158-21.4775,21.4775v37.2247c0,11.8617,9.6158,21.4775,21.4775,21.4775h293.6353c11.8617,0,21.4775-9.6158,21.4775-21.4775v-37.2247c0-11.8617-9.6158-21.4775-21.4775-21.4775h0Z"/>
      </g>
      <path class="cls-4" d="M357.2235,373.9277V85.9686c0-11.7983-9.6531-21.4514-21.4514-21.4514h-173.5647c-11.7983,0-21.4514,9.6531-21.4514,21.4514v287.8206c0,.67.6883,1.1192,1.3016.8495l21.1234-9.2909c3.3648-1.48,7.1956-1.4829,10.5626-.0082l17.4,7.621c3.2824,1.4377,7.0097,1.4725,10.3184.0963l19.3296-8.0395c4.0504-1.6847,8.6744-1.237,12.3265,1.1933l6.9218,4.6063c4.061,2.7024,9.2847,2.933,13.568.5989l10.2036-5.5603c4.3707-2.3818,9.712-2.0896,13.7969.7547l5.6135,3.9087c4.1231,2.8709,9.5222,3.1397,13.91.6924l12.7935-7.1357c3.2117-1.7914,7.0271-2.1549,10.5193-1.0024l35.5601,11.7357c.6004.1981,1.2188-.249,1.2188-.8812Z"/>
      <g>
        <g>
          <line class="cls-1" x1="167.3193" y1="267.3513" x2="288.7203" y2="267.3511"/>
          <line class="cls-1" x1="167.3193" y1="286.4795" x2="234.3678" y2="286.4794"/>
          <line class="cls-1" x1="204.5211" y1="305.6076" x2="288.7203" y2="305.6075"/>
          <line class="cls-1" x1="167.3193" y1="231.9472" x2="234.3677" y2="231.9471"/>
          <line class="cls-1" x1="204.521" y1="251.0754" x2="288.7203" y2="251.0753"/>
        </g>
        <rect class="cls-8" x="326.4738" y="228.5425" width="13.0863" height="6.8093" rx="2.2277" ry="2.2277"/>
        <rect class="cls-8" x="326.4738" y="247.6707" width="13.0863" height="6.8093" rx="2.2277" ry="2.2277"/>
        <rect class="cls-8" x="326.4738" y="266.7988" width="13.0863" height="6.8093" rx="2.2277" ry="2.2277"/>
        <rect class="cls-8" x="326.4738" y="285.927" width="13.0863" height="6.8093" rx="2.2277" ry="2.2277"/>
        <rect class="cls-8" x="326.4738" y="305.0552" width="13.0863" height="6.8093" rx="2.2277" ry="2.2277"/>
        <g>
          <g>
            <line class="cls-1" x1="167.3193" y1="171.7104" x2="288.7203" y2="171.7103"/>
            <line class="cls-1" x1="167.3193" y1="190.8386" x2="234.3678" y2="190.8386"/>
            <line class="cls-1" x1="204.5211" y1="209.9668" x2="288.7203" y2="209.9667"/>
            <line class="cls-1" x1="167.3193" y1="136.3063" x2="234.3677" y2="136.3063"/>
            <line class="cls-1" x1="204.521" y1="155.4345" x2="288.7203" y2="155.4344"/>
          </g>
          <rect class="cls-8" x="326.4738" y="132.9017" width="13.0863" height="6.8093" rx="2.2277" ry="2.2277"/>
          <rect class="cls-8" x="326.4738" y="152.0298" width="13.0863" height="6.8093" rx="2.2277" ry="2.2277"/>
          <rect class="cls-8" x="326.4738" y="171.158" width="13.0863" height="6.8093" rx="2.2277" ry="2.2277"/>
          <rect class="cls-8" x="326.4738" y="190.2862" width="13.0863" height="6.8093" rx="2.2277" ry="2.2277"/>
          <rect class="cls-8" x="326.4738" y="209.4143" width="13.0863" height="6.8093" rx="2.2277" ry="2.2277"/>
        </g>
      </g>
      <line class="cls-6" x1="130.1116" y1="377.6674" x2="368.7053" y2="377.6674"/>
      <ellipse class="cls-5" cx="302.8171" cy="337.9652" rx="34.8411" ry="12.1171" transform="translate(-57.7824 62.4898) rotate(-10.7621)"/>
      <rect class="cls-8" x="298.6085" y="335.9851" width="25.309" height="3.9602" rx="1.9801" ry="1.9801"/>
    </g>
    <path class="cls-2" d="M293.0237,343.2256v-.6441c-.7142-.0123-1.4488-.1974-1.977-.4715-.1804-.0936-.2605-.3089-.192-.5003l.0801-.2236c.0819-.2287.3446-.3393.5624-.2317.4922.243,1.1033.4129,1.7502.4129,1.059,0,1.7749-.6116,1.7749-1.4617,0-.8203-.5817-1.3275-1.6854-1.7749-1.5214-.5966-2.4611-1.2828-2.4611-2.5804,0-1.238.88-2.1776,2.2523-2.4014v-.7194c0-.1084.0879-.1963.1963-.1963h.5321c.1084,0,.1963.0879.1963.1963v.6598c.6577.0219,1.1624.1566,1.5554.3271.2193.0951.3276.3428.2429.5663l-.0575.1518c-.0901.2378-.3597.3498-.5929.2484-.3445-.1497-.8271-.2944-1.4611-.2944-1.1485,0-1.581.6861-1.581,1.2828,0,.7756.5519,1.1634,1.8495,1.7003,1.5363.6264,2.3118,1.402,2.3118,2.7295,0,1.1783-.8203,2.282-2.3566,2.5356v.6888c0,.15-.1216.2717-.2717.2717h-.3963c-.15,0-.2717-.1216-.2717-.2717Z"/>
    <path class="cls-3" d="M274.1871,111.9604s5.9049,12.3018,14.2701,16.2384c8.3652,3.9366,30.0164-51.1755,30.0164-51.1755"/>
  </g>
  <g>
    <g>
      <path class="cls-7" d="M260.1764,97.2509c-6.3423,12.4495-3.9603,28.0752,6.8035,38.0298,11.5139,10.6484,28.7491,11.2293,40.8771,2.169"/>
      <polygon class="cls-8" points="253.8867 99.5904 259.8201 97.9212 261.4858 103.8556 263.2967 100.6294 261.6297 94.6972 255.6975 96.3641 253.8867 99.5904"/>
    </g>
    <g>
      <path class="cls-7" d="M317.2641,126.2956c6.3423-12.4495,3.9603-28.0751-6.8035-38.0298-11.5139-10.6484-28.7491-11.2294-40.8771-2.169"/>
      <polygon class="cls-8" points="323.5538 123.9562 317.6204 125.6253 315.9547 119.6909 314.1438 122.9172 315.8108 128.8493 321.743 127.1824 323.5538 123.9562"/>
    </g>
  </g>
</svg>