<?xml version="1.0" encoding="UTF-8"?>
<svg id="Layer_1" data-name="Layer 1" xmlns="http://www.w3.org/2000/svg" viewBox="0 0 480.4756 480.4756">
  <defs>
    <style>
      .cls-1 {
        fill: #fff;
        stroke-miterlimit: 10;
        stroke-width: 10px;
      }

      .cls-1, .cls-2 {
        stroke: #272730;
        stroke-linecap: round;
      }

      .cls-3 {
        fill: #c94157;
        stroke-width: 0px;
      }

      .cls-2 {
        fill: none;
        stroke-linejoin: round;
        stroke-width: 24.7759px;
      }
    </style>
  </defs>
  <circle class="cls-3" cx="240.2378" cy="240.2378" r="227.8259"/>
  <path class="cls-2" d="M429.6521,113.6406c69.9177,104.6107,41.7935,246.0938-62.8172,316.0115-104.6107,69.9177-246.0938,41.7935-316.0115-62.8172C-19.0942,262.2243,9.03,120.7411,113.6406,50.8234,175.5465,9.448,250.3649,2.4064,315.6236,25.2317"/>
  <path class="cls-1" d="M242.526,301.0085h-4.5764c-6.3804,0-12.0761-2.9555-12.7032-6.8544l-13.7837-85.7007-6.7416-41.916c-4.0971-25.4741,8.2154-51.1436,28.3101-51.1436h14.4132c20.0947,0,32.4072,25.6695,28.3101,51.1436l-7.0283,43.6985-13.497,83.9181c-.6271,3.899-6.3228,6.8544-12.7032,6.8544Z"/>
  <circle class="cls-1" cx="240.2378" cy="340.6414" r="24.4404"/>
</svg>