<?xml version="1.0" encoding="UTF-8"?>
<svg id="Layer_1" data-name="Layer 1" xmlns="http://www.w3.org/2000/svg" xmlns:xlink="http://www.w3.org/1999/xlink" viewBox="0 0 2000 1697.5182">
  <defs>
    <style>
      .cls-1 {
        fill: #eace2d;
      }

      .cls-1, .cls-2, .cls-3, .cls-4, .cls-5 {
        stroke-width: 0px;
      }

      .cls-6 {
        stroke: #272730;
        stroke-width: 9.0908px;
      }

      .cls-6, .cls-7, .cls-8, .cls-9 {
        fill: none;
        stroke-miterlimit: 10;
      }

      .cls-6, .cls-9 {
        stroke-linecap: round;
      }

      .cls-2 {
        fill: url(#linear-gradient);
      }

      .cls-3 {
        fill: #000;
      }

      .cls-7 {
        fill-rule: evenodd;
      }

      .cls-7, .cls-8 {
        stroke: #4ad1a0;
        stroke-width: 11.3382px;
      }

      .cls-4 {
        fill: #272730;
      }

      .cls-5 {
        fill: #31e8ab;
      }

      .cls-9 {
        stroke: #000;
        stroke-width: 4.4303px;
      }
    </style>
    <linearGradient id="linear-gradient" x1="-123.2433" y1="1366.5258" x2="2164.8165" y2="311.8289" gradientUnits="userSpaceOnUse">
      <stop offset="0" stop-color="#ffffd9"/>
      <stop offset=".9464" stop-color="#d9f3f0"/>
    </linearGradient>
  </defs>
  <rect class="cls-2" width="2000" height="1697.5182"/>
  <g>
    <path class="cls-5" d="M1869.2397,469.2492c-3.6494,0-7.2061-.7344-10.5713-2.1826l-135.7334-58.4219c-13.6436-5.8726-19.9658-21.75-14.0938-35.3931l77.1191-179.1724c4.2559-9.8872,13.999-16.2764,24.8223-16.2764,3.6494,0,7.2061.7344,10.5703,2.1826l135.7344,58.4224c13.6436,5.8726,19.9658,21.7495,14.0938,35.3931l-77.1191,179.1724c-4.2559,9.8872-13.999,16.2759-24.8223,16.2759Z"/>
    <path class="cls-3" d="M1810.7839,176.5857v2.4349h.0007c3.4818,0,6.8757.7009,10.0875,2.0834l135.7339,58.4222c13.0267,5.6069,19.0632,20.7666,13.4563,33.7935l-77.1189,179.1725c-4.0631,9.4399-13.3676,15.5396-23.7041,15.5396-3.483,0-6.8776-.7009-10.0894-2.0834l-135.7339-58.4222c-13.0267-5.607-19.0632-20.7666-13.4563-33.7934l77.1189-179.1725c4.0629-9.4394,13.3673-15.539,23.7042-15.5397l.001-2.4349M1810.7828,176.5858c-10.921.0007-21.3677,6.3875-25.9407,17.0119l-77.1189,179.1725c-6.1221,14.2238.5065,30.8704,14.7302,36.9926l135.7339,58.4222c3.5994,1.5492,7.3521,2.2817,11.052,2.2817,10.921,0,21.3677-6.3875,25.9407-17.0119l77.1189-179.1725c6.1221-14.2238-.5065-30.8705-14.7302-36.9926l-135.7339-58.4222c-3.5994-1.5492-7.3521-2.282-11.052-2.2817h0Z"/>
  </g>
  <line class="cls-9" x1="1810.7573" y1="243.3935" x2="1918.319" y2="289.6899"/>
  <line class="cls-9" x1="1803.0333" y1="261.3388" x2="1862.4385" y2="286.9078"/>
  <line class="cls-9" x1="1828.2702" y1="293.4711" x2="1902.8711" y2="325.5806"/>
  <line class="cls-9" x1="1780.2684" y1="314.2292" x2="1887.8301" y2="360.5256"/>
  <line class="cls-9" x1="1772.5444" y1="332.1745" x2="1831.9496" y2="357.7435"/>
  <line class="cls-9" x1="1797.7813" y1="364.3067" x2="1872.3822" y2="396.4162"/>
  <g>
    <path class="cls-1" d="M1927.7592,239.3542c-.4443,0-.877-.0894-1.2861-.2656l-84.5693-36.4004c-1.665-.7163-2.4365-2.6538-1.7197-4.3188l8.4277-19.5811c.5195-1.2056,1.71-1.9854,3.0332-1.9854.4434,0,.876.0894,1.2852.2656l28.083,12.0874-.1309-2.5415c-.1475-2.834.3477-5.5923,1.4697-8.1982,2.918-6.7827,9.6025-11.165,17.0293-11.165,2.502,0,4.9414.5034,7.249,1.4966,9.3594,4.0283,13.6953,14.9199,9.667,24.2798-1.1211,2.6055-2.7852,4.8604-4.9443,6.7026l-1.9355,1.6519,28.082,12.0869c1.665.7163,2.4365,2.6538,1.7197,4.3188l-8.4277,19.5811c-.5186,1.2061-1.709,1.9854-3.0322,1.9854h0Z"/>
    <path class="cls-3" d="M1899.381,168.8338c2.2861,0,4.5146.4603,6.6235,1.368,4.1251,1.7755,7.3196,5.0705,8.995,9.278,1.6754,4.2075,1.6202,8.7965-.1553,12.9216-1.0247,2.3805-2.5448,4.4411-4.5181,6.1245l-3.8722,3.3034,4.675,2.0123,25.745,11.0811c.8486.3653,1.2571,1.3908.8918,2.2394l-8.428,19.5809c-.2689.6247-.8888,1.0284-1.5792,1.0284-.2272,0-.4493-.046-.6602-.1367l-84.5695-36.4001c-.8486-.3652-1.257-1.3908-.8917-2.2394l8.428-19.5809c.2689-.6248.8888-1.0285,1.5791-1.0284.2273,0,.4495.046.6603.1368l25.7451,11.0811,4.6752,2.0123-.2626-5.083c-.1338-2.5907.3179-5.1111,1.3424-7.4914,2.6691-6.2009,8.7831-10.2077,15.5762-10.2077M1899.381,165.6684c-7.7823,0-15.225,4.5507-18.4836,12.1216h0c-1.248,2.8996-1.7493,5.94-1.5961,8.9061l-25.7451-11.0811c-.6224-.2679-1.2719-.3946-1.9116-.3947-1.889,0-3.6957,1.1046-4.4867,2.9424l-8.428,19.5809c-1.0588,2.4602.0876,5.3394,2.5477,6.3983l84.5695,36.4001c.6224.2679,1.2719.3947,1.9116.3947,1.889,0,3.6957-1.1046,4.4867-2.9424l8.428-19.5809c1.0588-2.4602-.0876-5.3394-2.5479-6.3983l-25.745-11.0811c2.2595-1.9276,4.1232-4.3817,5.3712-7.2812h0c4.3623-10.1349-.3608-21.9963-10.4957-26.3585h-.0001c-2.5641-1.1036-5.2393-1.6258-7.8749-1.6258h0Z"/>
  </g>
  <g>
    <path class="cls-6" d="M306.7981,477.1601s-72.8807-65.6228-138.2937-69.4724"/>
    <polygon class="cls-4" points="186.8061 392.5834 171.1839 407.7907 186.4003 423.4041 173.3153 423.2318 158.108 407.6186 173.7211 392.4111 186.8061 392.5834"/>
  </g>
  <path class="cls-7" d="M213.1023,349.2831l27.0264,71.3954c3.0826,8.1433,13.8247,9.8959,19.3357,3.1546l48.3171-59.1032c5.511-6.7413,1.6578-16.9205-6.9359-18.3225l-75.3434-12.2922c-8.5936-1.402-15.4824,7.0246-12.3998,15.1679Z"/>
  <circle class="cls-8" cx="101.2786" cy="415.642" r="45.2714"/>
  <rect class="cls-8" x="172.0842" y="132.8218" width="89.1846" height="89.1846" rx="18.5659" ry="18.5659" transform="translate(-57.8196 232.8788) rotate(-50.7339)"/>
  <g>
    <path class="cls-6" d="M348.1258,464.798s2.4951-53.8585-35.872-73.7871"/>
    <polygon class="cls-4" points="334.8903 383.9266 314.6921 392.1331 322.9105 412.3266 310.8531 407.2406 302.6431 387.0506 322.833 378.8405 334.8903 383.9266"/>
  </g>
  <g>
    <path class="cls-6" d="M354.1689,384.4967s60.7242-167.9511-82.4094-170.6348"/>
    <polygon class="cls-4" points="289.8029 198.4224 274.4448 213.8964 289.9278 229.2454 276.8417 229.2985 261.3678 213.9494 276.7168 198.4754 289.8029 198.4224"/>
  </g>
</svg>