<?xml version="1.0" encoding="UTF-8"?>
<svg id="Layer_1" data-name="Layer 1" xmlns="http://www.w3.org/2000/svg" xmlns:xlink="http://www.w3.org/1999/xlink" viewBox="0 0 2000 1697.5182">
  <defs>
    <style>
      .cls-1 {
        fill: #eace2d;
      }

      .cls-1, .cls-2, .cls-3, .cls-4, .cls-5, .cls-6, .cls-7, .cls-8, .cls-9, .cls-10, .cls-11 {
        stroke-width: 0px;
      }

      .cls-12 {
        stroke-width: 8.0185px;
      }

      .cls-12, .cls-13, .cls-14, .cls-15, .cls-16, .cls-17, .cls-18 {
        fill: none;
      }

      .cls-12, .cls-13, .cls-14, .cls-15, .cls-17, .cls-18 {
        stroke-miterlimit: 10;
      }

      .cls-12, .cls-13, .cls-15, .cls-16, .cls-17 {
        stroke-linecap: round;
      }

      .cls-12, .cls-14, .cls-15, .cls-18 {
        stroke: #4ad1a0;
      }

      .cls-2 {
        fill: url(#linear-gradient);
      }

      .cls-3 {
        fill: #000;
      }

      .cls-4 {
        fill: #89644b;
      }

      .cls-13 {
        stroke-width: 6.9339px;
      }

      .cls-13, .cls-16 {
        stroke: #272730;
      }

      .cls-5 {
        fill: #b49b84;
      }

      .cls-5, .cls-7, .cls-11 {
        opacity: .8;
      }

      .cls-14 {
        fill-rule: evenodd;
      }

      .cls-14, .cls-18 {
        stroke-width: 5.2393px;
      }

      .cls-6 {
        fill: #272730;
      }

      .cls-7 {
        fill: #e6d3b3;
      }

      .cls-8 {
        fill: #231f20;
      }

      .cls-9 {
        fill: #fff;
      }

      .cls-15 {
        stroke-width: 7.167px;
      }

      .cls-10 {
        fill: #31e8ab;
      }

      .cls-16 {
        stroke-linejoin: round;
        stroke-width: 4px;
      }

      .cls-11 {
        fill: #ddc8ab;
      }

      .cls-17 {
        stroke: #000;
        stroke-width: 4.4303px;
      }
    </style>
    <linearGradient id="linear-gradient" x1="-123.2433" y1="1366.5258" x2="2164.8165" y2="311.8289" gradientUnits="userSpaceOnUse">
      <stop offset="0" stop-color="#ffffd9"/>
      <stop offset=".9464" stop-color="#d9f3f0"/>
    </linearGradient>
  </defs>
  <rect class="cls-2" width="2000" height="1697.5182"/>
  <g>
    <g>
      <path class="cls-10" d="M1876.8896,986.7568c-3.6494,0-7.2061-.7344-10.5703-2.1826l-135.7344-58.4224c-13.6426-5.8721-19.9648-21.7495-14.0928-35.3931l77.1182-179.1724c4.2559-9.8872,13.999-16.2759,24.8232-16.2759,3.6494,0,7.2061.7344,10.5703,2.1826l135.7334,58.4219c13.6436,5.8726,19.9658,21.7495,14.0938,35.3931l-77.1191,179.1724c-4.2559,9.8872-13.999,16.2764-24.8223,16.2764Z"/>
      <path class="cls-3" d="M1818.4342,694.0931v2.4349h.0007c3.4818,0,6.8757.7009,10.0875,2.0834l135.7339,58.4222c6.2819,2.7038,11.1456,7.7192,13.6953,14.1224,2.5498,6.4032,2.4648,13.3891-.239,19.671l-77.1189,179.1725c-4.0631,9.44-13.3676,15.5397-23.7041,15.5397-3.4829,0-6.8774-.7009-10.0892-2.0834l-135.7339-58.4222c-13.0269-5.607-19.0632-20.7667-13.4563-33.7935l77.1189-179.1724c4.0629-9.4394,13.3673-15.539,23.7041-15.5397l.001-2.4349M1818.4331,694.0931c-10.921.0007-21.3676,6.3875-25.9406,17.0119l-77.1189,179.1724c-6.1222,14.2238.5065,30.8705,14.7302,36.9926l135.7339,58.4222c3.5994,1.5492,7.3521,2.2817,11.0519,2.2817,10.9211,0,21.3677-6.3875,25.9407-17.0119l77.1189-179.1725c6.1222-14.2238-.5065-30.8705-14.7302-36.9926l-135.7339-58.4222c-3.5994-1.5492-7.3522-2.282-11.052-2.2817h0Z"/>
    </g>
    <line class="cls-17" x1="1818.4076" y1="760.9008" x2="1925.9694" y2="807.1972"/>
    <line class="cls-17" x1="1810.6837" y1="778.8461" x2="1870.0889" y2="804.4152"/>
    <line class="cls-17" x1="1835.9206" y1="810.9784" x2="1910.5215" y2="843.0879"/>
    <line class="cls-17" x1="1787.9187" y1="831.7365" x2="1895.4805" y2="878.0329"/>
    <line class="cls-17" x1="1780.1948" y1="849.6818" x2="1839.6" y2="875.2508"/>
    <line class="cls-17" x1="1805.4317" y1="881.814" x2="1880.0326" y2="913.9236"/>
    <g>
      <path class="cls-1" d="M1935.4092,756.8613c-.4434,0-.877-.0894-1.2861-.2656l-84.5693-36.3999c-1.665-.7168-2.4365-2.6543-1.7197-4.3193l8.4287-19.5806c.5186-1.2061,1.709-1.9854,3.0322-1.9854.4434,0,.877.0894,1.2861.2656l28.083,12.0874-.1318-2.5415c-.1465-2.8354.3477-5.5942,1.4697-8.1987,2.9189-6.7822,9.6035-11.1646,17.0293-11.1646,2.5029,0,4.9414.5034,7.249,1.4966,9.3594,4.0288,13.6963,14.9199,9.668,24.2793-1.1211,2.604-2.7842,4.8594-4.9443,6.7026l-1.9355,1.6519,28.082,12.0869c1.665.7168,2.4365,2.6543,1.7197,4.3193l-8.4287,19.5801c-.5186,1.2065-1.709,1.9858-3.0322,1.9858h0Z"/>
      <path class="cls-3" d="M1907.0314,686.3411c2.2863,0,4.5146.4602,6.6235,1.3679,4.1251,1.7755,7.3196,5.0705,8.995,9.278s1.6202,8.7965-.1553,12.9217c-1.0245,2.3804-2.5446,4.4409-4.5179,6.1244l-3.8722,3.3033,4.675,2.0123,25.745,11.0811c.5576.24.8059.6902.9042.9372.0984.247.2275.7446-.0125,1.3022l-8.4279,19.5808c-.2689.6248-.8888,1.0285-1.5793,1.0285-.2272,0-.4492-.046-.66-.1367l-84.5695-36.4001c-.5576-.24-.8059-.6902-.9042-.9372-.0984-.247-.2275-.7446.0125-1.3022l8.4279-19.5808c.2689-.6248.8888-1.0286,1.5792-1.0285.2272,0,.4493.046.6602.1368l25.7451,11.0811,4.6752,2.0123-.2626-5.083c-.1338-2.5905.3179-5.1109,1.3425-7.4914,2.6689-6.2009,8.783-10.2076,15.576-10.2076M1907.0314,683.1757c-7.7823,0-15.225,4.5507-18.4835,12.1216h0c-1.248,2.8996-1.7494,5.94-1.5962,8.9061l-25.7451-11.0811c-.6223-.2679-1.2717-.3946-1.9115-.3947-1.8892,0-3.6958,1.1046-4.4868,2.9424l-8.4279,19.5809c-1.059,2.4602.0875,5.3394,2.5477,6.3983l84.5695,36.4001c.6223.2679,1.2717.3947,1.9115.3947,1.889,0,3.6958-1.1047,4.4868-2.9424l8.4279-19.5809c1.059-2.4602-.0875-5.3394-2.5477-6.3983l-25.745-11.0811c2.2595-1.9276,4.1232-4.3817,5.3711-7.2812h.0001c4.3622-10.135-.361-21.9963-10.4958-26.3586h0c-2.5641-1.1036-5.2393-1.6258-7.875-1.6258h0Z"/>
    </g>
  </g>
  <g>
    <path class="cls-13" d="M1318.0734,310.2752c-188.6312-170.2921,161.7692-198.0019-138.8158-247.4965"/>
    <polygon class="cls-6" points="1194.8218 53.5375 1181.2664 63.1697 1190.9065 76.7195 1181.0646 75.0573 1171.4312 61.5087 1184.9797 51.8752 1194.8218 53.5375"/>
  </g>
  <g>
    <path class="cls-14" d="M33.6809,798.3035l-8.1601,34.3188c-.9307,3.9144,2.725,7.3684,6.5803,6.2173l33.8011-10.0925c3.8553-1.1512,5.0188-6.0441,2.0942-8.8074l-25.6409-24.2263c-2.9246-2.7632-7.7438-1.3243-8.6745,2.5901Z"/>
    <circle class="cls-18" cx="110.212" cy="932.9321" r="20.9194"/>
    <rect class="cls-18" x="135.0228" y="834.2729" width="41.2112" height="41.2112" rx="8.5791" ry="8.5791" transform="translate(-238.0796 80.2615) rotate(-16.6249)"/>
    <rect class="cls-18" x="227.3306" y="387.4174" width="41.2112" height="41.2112" rx="8.5791" ry="8.5791" transform="translate(-106.3733 87.9919) rotate(-16.6249)"/>
  </g>
  <g>
    <path class="cls-13" d="M207.4679,384.4771S-116.5502,145.5219,182.4414,101.5317"/>
    <polygon class="cls-6" points="170.4792 115.2069 180.4234 101.8786 167.0893 91.9422 176.9664 90.503 190.2936 100.4404 180.3563 113.7676 170.4792 115.2069"/>
  </g>
  <g>
    <path class="cls-9" d="M1120.8743,104.6182c-10.1885,0-19.6465-4.0249-26.6328-11.3335-6.7681-7.0796-10.3735-16.4111-10.1514-26.2754s4.2437-19.0239,11.3237-25.792c6.854-6.5522,15.8867-10.1606,25.4346-10.1606,10.1885,0,19.647,4.0249,26.6333,11.333,14.0317,14.6787,13.5059,38.0361-1.1729,52.0679-6.854,6.5522-15.8867,10.1606-25.4346,10.1606Z"/>
    <path class="cls-3" d="M1120.8512,29.6265v2.8601h.0007c9.792,0,18.8823,3.8679,25.5962,10.8912,13.4869,14.1084,12.9813,36.559-1.1271,50.046-6.5866,6.2965-15.2686,9.7641-24.4467,9.7641-9.7941,0-18.8854-3.8679-25.5994-10.8912-13.4869-14.1084-12.9813-36.559,1.1271-50.046,6.5859-6.2957,15.2679-9.7634,24.447-9.7641l.0023-2.8601M1120.8487,29.6265c-9.5145.0008-19.0447,3.5035-26.423,10.5568h0c-15.2096,14.5397-15.7578,38.8801-1.2181,54.0897h0c7.4864,7.8314,17.5679,11.7749,27.6667,11.7749,9.5145,0,19.0447-3.5035,26.423-10.5568h0c15.2096-14.5397,15.7578-38.8801,1.2181-54.0897h0c-7.4864-7.8314-17.5679-11.7757-27.6667-11.7749h0Z"/>
  </g>
  <path class="cls-15" d="M1112.6144,80.9213s15.3561,5.787,25.8994,2.2575c10.5433-3.5295-16.4342-69.4312-16.4342-69.4312"/>
  <g>
    <g>
      <polygon class="cls-16" points="1950.7893 111.8115 1873.8126 327.1816 1916.1031 376.9929 1993.0817 161.6252 1950.7893 111.8115"/>
      <polygon class="cls-4" points="1950.7893 111.8115 1873.8126 327.1816 1874.4049 327.8792 1951.5483 112.7055 1950.7893 111.8115"/>
      <polygon class="cls-16" points="1713.0919 356.4769 1873.8126 327.1816 1916.1031 376.9929 1755.3824 406.2883 1713.0919 356.4769"/>
      <polygon class="cls-16" points="1950.7893 111.8115 1873.8126 327.1816 1713.0919 356.4769 1790.0739 141.1079 1950.7893 111.8115"/>
      <polygon class="cls-7" points="1746.0834 264.1795 1906.783 234.9234 1917.7984 204.1126 1757.0796 233.4089 1746.0834 264.1795"/>
      <polygon class="cls-7" points="1886.5005 123.529 1809.5582 338.9427 1777.3656 344.8003 1854.3536 129.3874 1886.5005 123.529"/>
    </g>
    <polygon class="cls-11" points="1809.5565 338.9049 1830.6526 363.8149 1798.5086 369.6766 1777.3669 344.7758 1809.5565 338.9049"/>
    <g>
      <g>
        <path class="cls-8" d="M1940.1281,214.5345c-3.0372-4.9002-3.5263-13.8597-.9747-20.9984.0079-.0222.0162-.0452.0247-.0667.3029-.8425.6366-1.6235.9957-2.3418.2854-.573.5868-1.1058.902-1.5972,1.0608-1.6585,2.2713-2.8457,3.5291-3.513,1.8417-.9746,3.7845-.8351,5.509.5794l-4.7865,13.3916,10.2221,12.04c.6178.7277,1.3817.5888,1.7029-.3096s.08-2.2222-.5378-2.95l-.3574-.421c-.219-.2579-.3042-.7252-.1903-1.0438s.3837-.3678.6026-.1099l.3574.421c1.0551,1.2427,1.467,3.5025.9184,5.0376-.5485,1.5346-1.8531,1.7721-2.9082.5294l-10.2221-12.04-4.7868,13.3925Z"/>
        <path class="cls-8" d="M1929.2634,207.1629l13.0884-36.6183,25.168,29.6439-13.0884,36.6183-25.168-29.6439ZM1942.8202,173.1141l-12.0734,33.7784,23.2162,27.3449,12.0734-33.7784-23.2162-27.3449Z"/>
      </g>
      <g>
        <path class="cls-8" d="M1915.0442,246.9448l13.0884-36.6183,25.168,29.6439-13.0884,36.6183-25.168-29.6439ZM1928.601,212.8959l-12.0734,33.7784,23.2162,27.3449,12.0734-33.7784-23.2162-27.3449Z"/>
        <g>
          <path class="cls-8" d="M1922.826,239.7334l6.3484,7.4773c2.0702,2.4383,4.6449,1.9689,5.7218-1.044l.8187-2.2905c1.0766-3.012.2639-7.4724-1.8062-9.9107l-6.3484-7.4773-2.3949,6.7002,2.3835.7153-1.0182,2.8487,7.0779,2.827-8.6567-1.1405,1.0391-2.9073-1.7062.1202-1.4588,4.0814Z"/>
          <polygon class="cls-8" points="1941.801 254.1327 1942.5253 252.1064 1934.5726 242.7394 1933.8483 244.7657 1941.801 254.1327"/>
          <polygon class="cls-8" points="1941.5172 252.3588 1945.5188 247.1818 1940.6692 260.7498 1941.5172 252.3588"/>
        </g>
      </g>
      <g>
        <path class="cls-8" d="M1900.958,286.3547l13.0884-36.6183,25.168,29.6439-13.0884,36.6183-25.168-29.6439ZM1914.5148,252.3058l-12.0734,33.7784,23.2162,27.3449,12.0734-33.7784-23.2162-27.3449Z"/>
        <path class="cls-8" d="M1911.2103,272.2169l23.0844,6.3814-10.5668,29.5633-12.5177-35.9448ZM1913.5484,274.9902l10.062,28.8932,8.4938-23.7637-18.5558-5.1295Z"/>
        <path class="cls-8" d="M1926.3495,290.2447c-.2773.7757-.8543.8004-1.3727.1898-.5332-.628-.7411-1.5772-.4638-2.3529.2619-.7326.8395-.8178,1.3727-.1898.5184.6106.7334,1.5987.4638,2.3529ZM1923.0515,287.4012l-7.2168-8.0715.7394-2.0686,7.0011,8.6749-.5237,1.4653Z"/>
      </g>
      <g>
        <path class="cls-8" d="M1886.8361,325.8645l13.0884-36.6183,25.168,29.6439-13.0884,36.6183-25.168-29.6439ZM1900.3929,291.8156l-12.0734,33.7784,23.2162,27.3449,12.0734-33.7784-23.2162-27.3449Z"/>
        <g>
          <polygon class="cls-8" points="1911.2044 345.3919 1919.6774 321.6866 1917.2869 318.871 1908.814 342.5763 1911.2044 345.3919"/>
          <g>
            <polygon class="cls-8" points="1908.5093 337.1764 1909.4907 334.4306 1897.2868 320.0564 1896.3054 322.8022 1908.5093 337.1764"/>
            <polygon class="cls-8" points="1897.2451 327.3512 1899.9582 319.7607 1893.8865 318.4926 1897.2451 327.3512"/>
          </g>
          <g>
            <polygon class="cls-8" points="1913.2334 323.9593 1914.2149 321.2136 1902.011 306.8393 1901.0296 309.5851 1913.2334 323.9593"/>
            <polygon class="cls-8" points="1901.9693 314.1341 1904.6824 306.5437 1898.6107 305.2755 1901.9693 314.1341"/>
          </g>
        </g>
      </g>
    </g>
    <polygon class="cls-5" points="1906.783 234.9234 1927.9404 259.7812 1938.9394 229.0141 1917.7984 204.1126 1906.783 234.9234"/>
  </g>
  <line class="cls-12" x1="201.805" y1="60.4496" x2="249.7434" y2="94.307"/>
  <line class="cls-12" x1="214.98" y1="104.7683" x2="236.4441" y2="50.1449"/>
</svg>