<?xml version="1.0" encoding="UTF-8"?>
<svg id="Layer_1" data-name="Layer 1" xmlns="http://www.w3.org/2000/svg" xmlns:xlink="http://www.w3.org/1999/xlink" viewBox="0 0 2000 1697.5182">
  <defs>
    <style>
      .cls-1 {
        fill: #eace2d;
      }

      .cls-1, .cls-2, .cls-3, .cls-4, .cls-5, .cls-6, .cls-7, .cls-8, .cls-9, .cls-10, .cls-11 {
        stroke-width: 0px;
      }

      .cls-2 {
        fill: url(#linear-gradient);
      }

      .cls-3 {
        fill: #000;
      }

      .cls-4 {
        fill: #89644b;
      }

      .cls-12 {
        stroke-width: 6.9339px;
      }

      .cls-12, .cls-13, .cls-14, .cls-15, .cls-16, .cls-17 {
        fill: none;
      }

      .cls-12, .cls-13, .cls-14, .cls-16, .cls-17 {
        stroke-miterlimit: 10;
      }

      .cls-12, .cls-14, .cls-15, .cls-16 {
        stroke-linecap: round;
      }

      .cls-12, .cls-15 {
        stroke: #272730;
      }

      .cls-5 {
        fill: #b49b84;
      }

      .cls-5, .cls-7, .cls-11 {
        opacity: .8;
      }

      .cls-13 {
        fill-rule: evenodd;
      }

      .cls-13, .cls-14, .cls-17 {
        stroke: #4ad1a0;
      }

      .cls-13, .cls-17 {
        stroke-width: 5.2393px;
      }

      .cls-6 {
        fill: #272730;
      }

      .cls-7 {
        fill: #e6d3b3;
      }

      .cls-8 {
        fill: #231f20;
      }

      .cls-9 {
        fill: #fff;
      }

      .cls-14 {
        stroke-width: 7.167px;
      }

      .cls-10 {
        fill: #31e8ab;
      }

      .cls-15 {
        stroke-linejoin: round;
        stroke-width: 4px;
      }

      .cls-11 {
        fill: #ddc8ab;
      }

      .cls-16 {
        stroke: #000;
        stroke-width: 4.4303px;
      }
    </style>
    <linearGradient id="linear-gradient" x1="-123.2433" y1="1366.5258" x2="2164.8165" y2="311.8289" gradientUnits="userSpaceOnUse">
      <stop offset="0" stop-color="#ffffd9"/>
      <stop offset=".9464" stop-color="#d9f3f0"/>
    </linearGradient>
  </defs>
  <rect class="cls-2" x="0" width="2000" height="1697.5182"/>
  <g>
    <path class="cls-10" d="M1869.2397,469.2492c-3.6494,0-7.2061-.7344-10.5713-2.1826l-135.7334-58.4219c-13.6436-5.8726-19.9658-21.75-14.0938-35.3931l77.1191-179.1724c4.2559-9.8872,13.999-16.2764,24.8223-16.2764,3.6494,0,7.2061.7344,10.5703,2.1826l135.7344,58.4224c13.6436,5.8726,19.9658,21.7495,14.0938,35.3931l-77.1191,179.1724c-4.2559,9.8872-13.999,16.2759-24.8223,16.2759Z"/>
    <path class="cls-3" d="M1810.7839,176.5857v2.4349h.0007c3.4818,0,6.8757.7009,10.0875,2.0834l135.7339,58.4222c13.0267,5.6069,19.0632,20.7666,13.4563,33.7935l-77.1189,179.1725c-4.0631,9.4399-13.3676,15.5396-23.7041,15.5396-3.483,0-6.8776-.7009-10.0894-2.0834l-135.7339-58.4222c-13.0267-5.607-19.0632-20.7666-13.4563-33.7934l77.1189-179.1725c4.0629-9.4394,13.3673-15.539,23.7042-15.5397l.001-2.4349M1810.7828,176.5858c-10.921.0007-21.3677,6.3875-25.9407,17.0119l-77.1189,179.1725c-6.1221,14.2238.5065,30.8704,14.7302,36.9926l135.7339,58.4222c3.5994,1.5492,7.3521,2.2817,11.052,2.2817,10.921,0,21.3677-6.3875,25.9407-17.0119l77.1189-179.1725c6.1221-14.2238-.5065-30.8705-14.7302-36.9926l-135.7339-58.4222c-3.5994-1.5492-7.3521-2.282-11.052-2.2817h0Z"/>
  </g>
  <line class="cls-16" x1="1810.7573" y1="243.3935" x2="1918.319" y2="289.6899"/>
  <line class="cls-16" x1="1803.0333" y1="261.3388" x2="1862.4385" y2="286.9078"/>
  <line class="cls-16" x1="1828.2702" y1="293.4711" x2="1902.8711" y2="325.5806"/>
  <line class="cls-16" x1="1780.2684" y1="314.2292" x2="1887.8302" y2="360.5256"/>
  <line class="cls-16" x1="1772.5444" y1="332.1745" x2="1831.9496" y2="357.7435"/>
  <line class="cls-16" x1="1797.7813" y1="364.3067" x2="1872.3822" y2="396.4162"/>
  <g>
    <path class="cls-1" d="M1927.7592,239.3542c-.4443,0-.877-.0894-1.2861-.2656l-84.5693-36.4004c-1.665-.7163-2.4365-2.6538-1.7197-4.3188l8.4277-19.5811c.5195-1.2056,1.71-1.9854,3.0332-1.9854.4434,0,.876.0894,1.2852.2656l28.083,12.0874-.1309-2.5415c-.1475-2.834.3477-5.5923,1.4697-8.1982,2.918-6.7827,9.6025-11.165,17.0293-11.165,2.502,0,4.9414.5034,7.249,1.4966,9.3594,4.0283,13.6953,14.9199,9.667,24.2798-1.1211,2.6055-2.7852,4.8604-4.9443,6.7026l-1.9355,1.6519,28.082,12.0869c1.665.7163,2.4365,2.6538,1.7197,4.3188l-8.4277,19.5811c-.5186,1.2061-1.709,1.9854-3.0322,1.9854h0Z"/>
    <path class="cls-3" d="M1899.381,168.8338c2.2861,0,4.5146.4603,6.6235,1.368,4.1251,1.7755,7.3196,5.0705,8.995,9.278,1.6754,4.2075,1.6202,8.7965-.1553,12.9216-1.0247,2.3805-2.5448,4.4411-4.5181,6.1245l-3.8722,3.3034,4.675,2.0123,25.745,11.0811c.8486.3653,1.2571,1.3908.8918,2.2394l-8.428,19.5809c-.2689.6247-.8888,1.0284-1.5792,1.0284-.2272,0-.4493-.046-.6602-.1367l-84.5695-36.4001c-.8486-.3652-1.257-1.3908-.8917-2.2394l8.428-19.5809c.2689-.6248.8888-1.0285,1.5791-1.0284.2273,0,.4495.046.6603.1368l25.7451,11.0811,4.6752,2.0123-.2626-5.083c-.1338-2.5907.3179-5.1111,1.3424-7.4914,2.6691-6.2009,8.7831-10.2077,15.5762-10.2077M1899.381,165.6684c-7.7823,0-15.225,4.5507-18.4836,12.1216h0c-1.248,2.8996-1.7493,5.94-1.5961,8.9061l-25.7451-11.0811c-.6224-.2679-1.2719-.3946-1.9116-.3947-1.889,0-3.6957,1.1046-4.4867,2.9424l-8.428,19.5809c-1.0588,2.4602.0876,5.3394,2.5477,6.3983l84.5695,36.4001c.6224.2679,1.2719.3947,1.9116.3947,1.889,0,3.6957-1.1046,4.4867-2.9424l8.428-19.5809c1.0588-2.4602-.0876-5.3394-2.5479-6.3983l-25.745-11.0811c2.2595-1.9276,4.1232-4.3817,5.3712-7.2812h0c4.3623-10.1349-.3608-21.9963-10.4957-26.3585h-.0001c-2.5641-1.1036-5.2393-1.6258-7.8749-1.6258h0Z"/>
  </g>
  <g>
    <path class="cls-12" d="M124.6331,410.1649s-15.5167-73.1761-54.1401-104.8969"/>
    <polygon class="cls-6" points="88.5587 304.1614 72.0996 306.5336 74.4813 322.9913 66.487 317.0147 64.1108 300.5612 80.5644 298.1848 88.5587 304.1614"/>
  </g>
  <g>
    <path class="cls-13" d="M33.7164,853.3454l-8.1601,34.3188c-.9307,3.9144,2.725,7.3684,6.5803,6.2173l33.8011-10.0925c3.8553-1.1512,5.0188-6.0441,2.0942-8.8074l-25.6409-24.2263c-2.9246-2.7632-7.7438-1.3243-8.6745,2.5901Z"/>
    <circle class="cls-17" cx="110.2474" cy="987.974" r="20.9194"/>
    <rect class="cls-17" x="135.0582" y="889.3148" width="41.2112" height="41.2112" rx="8.5791" ry="8.5791" transform="translate(-253.8259 82.5725) rotate(-16.6249)"/>
  </g>
  <g>
    <path class="cls-12" d="M155.6722,421.08s25.7016-32.1036,10.9751-61.6093"/>
    <polygon class="cls-6" points="183.789 365.2561 167.6479 361.2569 163.6582 377.4003 158.5023 368.8537 162.4956 352.7162 178.6332 356.7094 183.789 365.2561"/>
  </g>
  <g>
    <path class="cls-12" d="M195.4254,374.2566s112.8064-76.3596,25.7159-142.229"/>
    <polygon class="cls-6" points="239.1817 230.7293 222.752 233.2972 225.3295 249.7254 217.2647 243.8444 214.6927 227.4203 231.1168 224.8483 239.1817 230.7293"/>
  </g>
  <g>
    <path class="cls-9" d="M38.2642,292.5034c-.4175,0-.8345-.0073-1.2549-.0215-9.7891-.332-18.8896-4.4849-25.6265-11.6938-6.7363-7.2095-10.2637-16.5703-9.9316-26.3594.665-19.6187,17.1729-35.5796,36.7988-35.5796.4175,0,.8345.0073,1.2549.0215,20.2949.688,36.2461,17.7588,35.5581,38.0532-.665,19.6187-17.1729,35.5796-36.7988,35.5796Z"/>
    <path class="cls-3" d="M38.2502,220.2793c.4012,0,.8021.0068,1.2061.0205,19.5067.6612,34.8385,17.069,34.1773,36.5758-.3117,9.1968-4.1586,17.8057-10.8319,24.2408-6.6584,6.4208-15.3727,9.9569-24.5377,9.9569-.4012,0-.8021-.0068-1.2061-.0205-19.5067-.6612-34.8385-17.069-34.1773-36.5757.3117-9.1968,4.1586-17.8057,10.8319-24.2409,6.6584-6.4208,15.3728-9.9569,24.5377-9.9569M38.2502,217.4192C17.7949,217.4192.7202,233.7873.0221,254.3801H.0221c-.7129,21.0293,15.9096,38.8182,36.9388,39.5311h0c.4364.0148.8695.0221,1.303.0221,20.4553,0,37.53-16.3681,38.2281-36.9609h0c.7129-21.0293-15.9096-38.8183-36.9388-39.5311h0c-.4364-.0148-.8694-.0221-1.3029-.0221h0Z"/>
  </g>
  <path class="cls-14" d="M23.1357,258.9247s6.596,15.0264,16.4899,20.0987c9.894,5.0723,38.1624-60.286,38.1624-60.286"/>
  <g>
    <path class="cls-9" d="M155.0386,346.3975c-14.9771,0-28.7593-9.2969-34.2949-23.1343-3.6377-9.0938-3.501-19.0962.3853-28.1655,3.8862-9.0688,11.0347-16.0669,20.1284-19.7051,4.3467-1.7393,8.9146-2.6211,13.5762-2.6211,14.9771,0,28.7593,9.2969,34.2949,23.1343,3.6377,9.0938,3.501,19.0967-.3848,28.1655-3.8862,9.0693-11.0352,16.0674-20.1289,19.7056-4.3472,1.7393-8.915,2.6206-13.5762,2.6206Z"/>
    <path class="cls-3" d="M154.8371,274.2015c14.3959,0,27.643,8.9358,32.9636,22.2356,3.4962,8.7392,3.3642,18.3532-.3716,27.0713s-10.6061,15.4447-19.3453,18.9408c-4.1776,1.6712-8.5666,2.5186-13.0453,2.5186-14.3978,0-27.6461-8.9358-32.9668-22.2355-7.2496-18.1216,1.5954-38.7625,19.7169-46.0121,4.1766-1.6709,8.5658-2.5182,13.0472-2.5186h.0013M154.8339,271.3414c-4.707.0004-9.4884.8753-14.1077,2.7232h0c-19.536,7.8155-29.1255,30.194-21.31,49.7299h0c5.9675,14.9167,20.4222,24.0333,35.6222,24.0333,4.707,0,9.4884-.8753,14.1077-2.7232h0c19.5359-7.8155,29.1255-30.194,21.31-49.7299h0c-5.9675-14.9168-20.4222-24.0346-35.6223-24.0333h0Z"/>
  </g>
  <path class="cls-14" d="M142.4031,318.6472s12.0884,11.0982,23.1872,11.7571,10.6559-70.5495,10.6559-70.5495"/>
  <g>
    <path class="cls-9" d="M185.606,218.6196c-4.6816,0-9.2671-.8892-13.6299-2.6421-18.8418-7.5718-28.0107-29.061-20.439-47.9028,5.5479-13.8057,19.3213-23.0811,34.2734-23.0811,4.6812,0,9.2666.8887,13.6294,2.6421,9.0884,3.6519,16.2256,10.6611,20.0981,19.7363,3.8721,9.0752,3.9932,19.0781.3408,28.1665-5.5479,13.8057-19.3213,23.0811-34.2729,23.0811Z"/>
    <path class="cls-3" d="M185.814,143.5634v2.8601c4.4953,0,8.9003.8542,13.0927,2.5389,18.1103,7.2778,26.9231,27.9324,19.6454,46.0427-5.3323,13.2691-18.5726,22.1843-32.9467,22.1843-4.4976,0-8.9037-.8542-13.0961-2.5389-8.7337-3.5097-15.5936-10.247-19.3158-18.9708-3.7222-8.7238-3.8393-18.3381-.3295-27.0719,5.3318-13.2678,18.5721-22.183,32.9469-22.1843l.0031-2.8601M185.8106,143.5634c-15.176.0014-29.6184,9.092-35.6005,23.9779h0c-7.8458,19.5239,1.7089,41.9172,21.2327,49.763h0c4.6379,1.8638,9.4342,2.7452,14.1625,2.7452,15.176,0,29.6184-9.092,35.6005-23.9779h0c7.8458-19.5239-1.7089-41.9172-21.2327-49.763h0c-4.6379-1.8638-9.4342-2.7457-14.1625-2.7452h0Z"/>
  </g>
  <path class="cls-14" d="M170.3858,179.7002s1.0727,16.3753,8.642,24.5192,56.4432-43.6457,56.4432-43.6457"/>
  <g>
    <g>
      <polygon class="cls-15" points="1952.8975 647.4102 1875.9208 862.7803 1918.2112 912.5916 1995.1899 697.2238 1952.8975 647.4102"/>
      <polygon class="cls-4" points="1952.8975 647.4102 1875.9208 862.7803 1876.5131 863.4779 1953.6564 648.3041 1952.8975 647.4102"/>
      <polygon class="cls-15" points="1715.2001 892.0756 1875.9208 862.7803 1918.2112 912.5916 1757.4905 941.8869 1715.2001 892.0756"/>
      <polygon class="cls-15" points="1952.8975 647.4102 1875.9208 862.7803 1715.2001 892.0756 1792.1821 676.7066 1952.8975 647.4102"/>
      <polygon class="cls-7" points="1748.1915 799.7782 1908.8912 770.522 1919.9065 739.7113 1759.1877 769.0076 1748.1915 799.7782"/>
      <polygon class="cls-7" points="1888.6086 659.1277 1811.6664 874.5414 1779.4738 880.399 1856.4617 664.9861 1888.6086 659.1277"/>
    </g>
    <polygon class="cls-11" points="1811.6647 874.5036 1832.7608 899.4136 1800.6168 905.2753 1779.475 880.3745 1811.6647 874.5036"/>
    <g>
      <g>
        <path class="cls-8" d="M1942.2363,750.1332c-3.0372-4.9002-3.5263-13.8597-.9747-20.9984.0079-.0222.0162-.0452.0247-.0667.3029-.8425.6366-1.6235.9957-2.3418.2854-.573.5868-1.1058.902-1.5972,1.0608-1.6585,2.2713-2.8457,3.5291-3.513,1.8417-.9746,3.7845-.8351,5.509.5794l-4.7865,13.3916,10.2221,12.04c.6178.7277,1.3817.5888,1.7029-.3096s.08-2.2222-.5378-2.95l-.3574-.421c-.219-.2579-.3042-.7252-.1903-1.0438s.3837-.3678.6026-.1099l.3574.421c1.0551,1.2427,1.467,3.5025.9184,5.0376-.5485,1.5346-1.8531,1.7721-2.9082.5294l-10.2221-12.04-4.7868,13.3925Z"/>
        <path class="cls-8" d="M1931.3715,742.7616l13.0884-36.6183,25.168,29.6439-13.0884,36.6183-25.168-29.6439ZM1944.9284,708.7127l-12.0734,33.7784,23.2162,27.3449,12.0734-33.7784-23.2162-27.3449Z"/>
      </g>
      <g>
        <path class="cls-8" d="M1917.1524,782.5435l13.0884-36.6183,25.168,29.6439-13.0884,36.6183-25.168-29.6439ZM1930.7092,748.4946l-12.0734,33.7784,23.2162,27.3449,12.0734-33.7784-23.2162-27.3449Z"/>
        <g>
          <path class="cls-8" d="M1924.9342,775.332l6.3484,7.4773c2.0702,2.4383,4.6449,1.9689,5.7218-1.044l.8187-2.2905c1.0766-3.012.2639-7.4724-1.8062-9.9107l-6.3484-7.4773-2.3949,6.7002,2.3835.7153-1.0182,2.8487,7.0779,2.827-8.6567-1.1405,1.0391-2.9073-1.7062.1202-1.4588,4.0814Z"/>
          <polygon class="cls-8" points="1943.9092 789.7314 1944.6334 787.7051 1936.6807 778.3381 1935.9565 780.3644 1943.9092 789.7314"/>
          <polygon class="cls-8" points="1943.6254 787.9575 1947.627 782.7805 1942.7774 796.3484 1943.6254 787.9575"/>
        </g>
      </g>
      <g>
        <path class="cls-8" d="M1903.0661,821.9534l13.0884-36.6183,25.168,29.6439-13.0884,36.6183-25.168-29.6439ZM1916.623,787.9045l-12.0734,33.7784,23.2162,27.3449,12.0734-33.7784-23.2162-27.3449Z"/>
        <path class="cls-8" d="M1913.3185,807.8156l23.0844,6.3814-10.5668,29.5633-12.5177-35.9448ZM1915.6566,810.5889l10.062,28.8932,8.4938-23.7637-18.5558-5.1295Z"/>
        <path class="cls-8" d="M1928.4577,825.8433c-.2773.7757-.8543.8004-1.3727.1898-.5332-.628-.7411-1.5772-.4638-2.3529.2619-.7326.8395-.8178,1.3727-.1898.5184.6106.7334,1.5987.4638,2.3529ZM1925.1597,822.9999l-7.2168-8.0715.7394-2.0686,7.0011,8.6749-.5237,1.4653Z"/>
      </g>
      <g>
        <path class="cls-8" d="M1888.9442,861.4632l13.0884-36.6183,25.168,29.6439-13.0884,36.6183-25.168-29.6439ZM1902.5011,827.4143l-12.0734,33.7784,23.2162,27.3449,12.0734-33.7784-23.2162-27.3449Z"/>
        <g>
          <polygon class="cls-8" points="1913.3126 880.9905 1921.7855 857.2852 1919.3951 854.4697 1910.9221 878.175 1913.3126 880.9905"/>
          <g>
            <polygon class="cls-8" points="1910.6175 872.7751 1911.5989 870.0293 1899.395 855.6551 1898.4136 858.4009 1910.6175 872.7751"/>
            <polygon class="cls-8" points="1899.3533 862.9499 1902.0664 855.3594 1895.9947 854.0912 1899.3533 862.9499"/>
          </g>
          <g>
            <polygon class="cls-8" points="1915.3416 859.558 1916.323 856.8122 1904.1192 842.438 1903.1377 845.1838 1915.3416 859.558"/>
            <polygon class="cls-8" points="1904.0775 849.7328 1906.7905 842.1423 1900.7189 840.8742 1904.0775 849.7328"/>
          </g>
        </g>
      </g>
    </g>
    <polygon class="cls-5" points="1908.8912 770.522 1930.0486 795.3799 1941.0476 764.6128 1919.9065 739.7113 1908.8912 770.522"/>
  </g>
</svg>