<?xml version="1.0" encoding="UTF-8"?>
<svg id="Layer_1" data-name="Layer 1" xmlns="http://www.w3.org/2000/svg" xmlns:xlink="http://www.w3.org/1999/xlink" viewBox="0 0 2000 1697.5182">
  <defs>
    <style>
      .cls-1 {
        fill: #eace2d;
      }

      .cls-1, .cls-2, .cls-3, .cls-4, .cls-5, .cls-6, .cls-7, .cls-8, .cls-9, .cls-10, .cls-11 {
        stroke-width: 0px;
      }

      .cls-12 {
        stroke-width: 8.0185px;
      }

      .cls-12, .cls-13, .cls-14, .cls-15, .cls-16, .cls-17, .cls-18 {
        fill: none;
      }

      .cls-12, .cls-13, .cls-14, .cls-15, .cls-17, .cls-18 {
        stroke-miterlimit: 10;
      }

      .cls-12, .cls-13, .cls-15, .cls-16, .cls-17 {
        stroke-linecap: round;
      }

      .cls-12, .cls-14, .cls-15, .cls-18 {
        stroke: #4ad1a0;
      }

      .cls-2 {
        fill: url(#linear-gradient);
      }

      .cls-3 {
        fill: #000;
      }

      .cls-4 {
        fill: #89644b;
      }

      .cls-13 {
        stroke-width: 6.9339px;
      }

      .cls-13, .cls-16 {
        stroke: #272730;
      }

      .cls-5 {
        fill: #b49b84;
      }

      .cls-5, .cls-7, .cls-11 {
        opacity: .8;
      }

      .cls-14 {
        fill-rule: evenodd;
      }

      .cls-14, .cls-18 {
        stroke-width: 5.2393px;
      }

      .cls-6 {
        fill: #272730;
      }

      .cls-7 {
        fill: #e6d3b3;
      }

      .cls-8 {
        fill: #231f20;
      }

      .cls-9 {
        fill: #fff;
      }

      .cls-15 {
        stroke-width: 7.167px;
      }

      .cls-10 {
        fill: #31e8ab;
      }

      .cls-16 {
        stroke-linejoin: round;
        stroke-width: 4px;
      }

      .cls-11 {
        fill: #ddc8ab;
      }

      .cls-17 {
        stroke: #000;
        stroke-width: 4.4303px;
      }
    </style>
    <linearGradient id="linear-gradient" x1="-123.2433" y1="1366.5258" x2="2164.8165" y2="311.8289" gradientUnits="userSpaceOnUse">
      <stop offset="0" stop-color="#ffffd9"/>
      <stop offset=".9464" stop-color="#d9f3f0"/>
    </linearGradient>
  </defs>
  <rect class="cls-2" width="2000" height="1697.5182"/>
  <g>
    <g>
      <path class="cls-10" d="M1821.7278,1060.1851c-5.5811,0-10.9326-1.6963-15.4775-4.9062l-120.7041-85.249c-12.1328-8.5693-15.0312-25.4111-6.4629-37.5439l112.5312-159.332c5.0283-7.1191,13.2773-11.3691,22.0664-11.3691,5.5811,0,10.9326,1.6973,15.4775,4.9062l120.7041,85.249c12.1328,8.5693,15.0312,25.4111,6.4629,37.5439l-112.5312,159.332c-5.0283,7.1191-13.2773,11.3691-22.0664,11.3691Z"/>
      <path class="cls-3" d="M1813.6827,760.5674v2.4349c5.3273,0,10.4358,1.6194,14.7737,4.6831l120.7037,85.2494c11.5842,8.1816,14.3525,24.2625,6.1709,35.8467l-112.5316,159.3321c-4.8,6.7964-12.6772,10.854-21.0717,10.854-5.3281,0-10.4371-1.6193-14.775-4.683l-120.7037-85.2493c-5.5862-3.9454-9.3066-9.8589-10.4758-16.6512-1.1693-6.7922.3596-13.6093,4.3051-19.1956l112.5315-159.3322c4.7999-6.7961,12.6772-10.8537,21.0719-10.854l.0011-2.4349M1813.6814,760.5674c-8.8556.0003-17.5929,4.1425-23.0607,11.8842l-112.5315,159.3322c-8.9335,12.6487-5.8937,30.3069,6.755,39.2403l120.7037,85.2494c4.9069,3.4656,10.5668,5.1291,16.1796,5.1291,8.8556,0,17.5929-4.1424,23.0607-11.8842l112.5316-159.3322c8.9333-12.6487,5.8936-30.3068-6.7551-39.2403l-120.7037-85.2494c-4.9069-3.4656-10.5667-5.1293-16.1796-5.1291h0Z"/>
    </g>
    <line class="cls-17" x1="1805.6688" y1="826.5328" x2="1901.3199" y2="894.0883"/>
    <line class="cls-17" x1="1794.398" y1="842.491" x2="1847.2251" y2="879.8012"/>
    <line class="cls-17" x1="1812.4383" y1="879.1506" x2="1878.7784" y2="926.0047"/>
    <line class="cls-17" x1="1761.1795" y1="889.5246" x2="1856.8307" y2="957.0802"/>
    <line class="cls-17" x1="1749.9088" y1="905.4828" x2="1802.7359" y2="942.793"/>
    <line class="cls-17" x1="1767.949" y1="942.1425" x2="1834.2891" y2="988.9965"/>
    <g>
      <path class="cls-1" d="M1921.6546,846.8668c-.6807,0-1.332-.2061-1.8848-.5967l-75.2051-53.1152c-.7129-.5029-1.1875-1.2588-1.3369-2.1279s.0449-1.7402.5488-2.4531l12.2979-17.4131c.6123-.8672,1.6201-1.3857,2.6953-1.3857.6807,0,1.333.207,1.8857.5977l24.9736,17.6377.3975-2.5137c.4434-2.8027,1.4971-5.3994,3.1338-7.7168,3.4492-4.8828,9.1084-7.7988,15.1396-7.7988,3.8281,0,7.499,1.1641,10.6152,3.3652,4.0137,2.834,6.6865,7.083,7.5264,11.9629s-.2588,9.7773-3.0938,13.791c-1.6357,2.3164-3.7295,4.1787-6.2246,5.5342l-2.2363,1.2148,24.9736,17.6387c.7129.5029,1.1875,1.2588,1.3369,2.1279.1504.8691-.0449,1.7402-.5488,2.4531l-12.2979,17.4121c-.6123.8682-1.6211,1.3857-2.6963,1.3857h0Z"/>
      <path class="cls-3" d="M1858.7703,771.3579h0c.2452,0,.6129.0533.9725.3073l22.8943,16.1696,4.1576,2.9364.7949-5.0275c.4052-2.562,1.3687-4.9343,2.8639-7.0513,3.1526-4.4637,8.3286-7.1287,13.8459-7.1287,3.4993,0,6.8544,1.0633,9.7025,3.075,7.6099,5.3746,9.4285,15.9384,4.0537,23.5485-1.4949,2.1167-3.4086,3.8181-5.6877,5.0568l-4.472,2.4305,4.1575,2.9362,22.8942,16.1696c.7546.533.9419,1.6208.4089,2.3754l-12.298,17.4127c-.3168.4485-.8414.7162-1.4032.7162-.2451,0-.6128-.0533-.9724-.3073l-75.2047-53.115c-.7546-.533-.9419-1.6208-.4089-2.3754l12.298-17.4126c.3169-.4485.8413-.7163,1.4031-.7162M1858.7704,768.1925c-1.5319,0-3.0428.7164-3.9886,2.0555l-12.2981,17.4127c-1.545,2.1877-1.0193,5.2419,1.1685,6.787l75.2047,53.1149c.8486.5993,1.8278.8871,2.7985.8871,1.5319,0,3.0428-.7163,3.9886-2.0555l12.2981-17.4127c1.545-2.1877,1.0193-5.2419-1.1685-6.787l-22.8942-16.1696c2.6095-1.4182,4.9408-3.4334,6.7618-6.0119,6.3654-9.0127,4.1995-21.5947-4.8132-27.9601h0c-3.4958-2.4691-7.5298-3.6547-11.5286-3.6547-6.3105,0-12.5352,2.9511-16.4315,8.468h-.0001c-1.821,2.5785-2.9408,5.4493-3.4047,8.3829l-22.8943-16.1696c-.8486-.5993-1.8278-.8871-2.7985-.8871h0Z"/>
    </g>
  </g>
  <g>
    <path class="cls-13" d="M1649.4726,309.7741c-188.6312-170.2921,161.7692-198.0019-138.8158-247.4965"/>
    <polygon class="cls-6" points="1526.221 53.0363 1512.6656 62.6686 1522.3058 76.2183 1512.4638 74.5561 1502.8304 61.0075 1516.379 51.3741 1526.221 53.0363"/>
  </g>
  <g>
    <path class="cls-14" d="M108.8575,441.5685l-17.6378,30.5496c-2.0118,3.4845.5029,7.8401,4.5265,7.8401h35.2756c4.0235,0,6.5382-4.3556,4.5265-7.8401l-17.6378-30.5496c-2.0118-3.4845-7.0412-3.4845-9.0529,0Z"/>
    <circle class="cls-18" cx="139.3191" cy="555.9186" r="20.9194"/>
    <rect class="cls-18" x="184.563" y="473.5161" width="41.2112" height="41.2112" rx="8.5791" ry="8.5791"/>
  </g>
  <g>
    <path class="cls-13" d="M174.9908,447.6697s27.0826-62.7523-36.0898-122.4407C62.3996,252.9467-20.8546,131.4739,182.4422,101.5322"/>
    <polygon class="cls-6" points="170.5619 115.3171 180.4315 101.9336 167.0423 92.0717 176.9112 90.5775 190.2936 100.4404 180.4308 113.8228 170.5619 115.3171"/>
  </g>
  <g>
    <path class="cls-9" d="M1413.1679,99.0105c-10.1885,0-19.6465-4.0249-26.6328-11.3335-6.7681-7.0796-10.3735-16.4111-10.1514-26.2754s4.2437-19.0239,11.3237-25.792c6.854-6.5522,15.8867-10.1606,25.4346-10.1606,10.1885,0,19.647,4.0249,26.6333,11.333,14.0317,14.6787,13.5059,38.0361-1.1729,52.0679-6.854,6.5522-15.8867,10.1606-25.4346,10.1606Z"/>
    <path class="cls-3" d="M1413.1448,24.0189v2.8601h.0007c9.792,0,18.8823,3.8679,25.5962,10.8912,13.4869,14.1084,12.9813,36.559-1.1271,50.046-6.5866,6.2965-15.2686,9.7641-24.4467,9.7641-9.7941,0-18.8854-3.8679-25.5994-10.8912-13.4869-14.1084-12.9813-36.559,1.1271-50.046,6.5859-6.2957,15.2679-9.7634,24.447-9.7641l.0023-2.8601M1413.1423,24.0189c-9.5145.0008-19.0447,3.5035-26.423,10.5568h0c-15.2096,14.5397-15.7578,38.8801-1.2181,54.0897h0c7.4864,7.8314,17.5679,11.7749,27.6667,11.7749,9.5145,0,19.0447-3.5035,26.423-10.5568h0c15.2096-14.5397,15.7578-38.8801,1.2181-54.0897h0c-7.4864-7.8314-17.5679-11.7757-27.6667-11.7749h0Z"/>
  </g>
  <path class="cls-15" d="M1404.9079,75.3137s15.3561,5.787,25.8994,2.2575c10.5433-3.5295-16.4342-69.4312-16.4342-69.4312"/>
  <g>
    <g>
      <polygon class="cls-16" points="1950.7893 111.8115 1873.8126 327.1816 1916.1031 376.9929 1993.0817 161.6252 1950.7893 111.8115"/>
      <polygon class="cls-4" points="1950.7893 111.8115 1873.8126 327.1816 1874.4049 327.8792 1951.5483 112.7055 1950.7893 111.8115"/>
      <polygon class="cls-16" points="1713.0919 356.4769 1873.8126 327.1816 1916.1031 376.9929 1755.3824 406.2883 1713.0919 356.4769"/>
      <polygon class="cls-16" points="1950.7893 111.8115 1873.8126 327.1816 1713.0919 356.4769 1790.0739 141.1079 1950.7893 111.8115"/>
      <polygon class="cls-7" points="1746.0834 264.1795 1906.783 234.9234 1917.7984 204.1126 1757.0796 233.4089 1746.0834 264.1795"/>
      <polygon class="cls-7" points="1886.5005 123.529 1809.5582 338.9427 1777.3656 344.8003 1854.3536 129.3874 1886.5005 123.529"/>
    </g>
    <polygon class="cls-11" points="1809.5565 338.9049 1830.6526 363.8149 1798.5086 369.6766 1777.3669 344.7758 1809.5565 338.9049"/>
    <g>
      <g>
        <path class="cls-8" d="M1940.1281,214.5345c-3.0372-4.9002-3.5263-13.8597-.9747-20.9984.0079-.0222.0162-.0452.0247-.0667.3029-.8425.6366-1.6235.9957-2.3418.2854-.573.5868-1.1058.902-1.5972,1.0608-1.6585,2.2713-2.8457,3.5291-3.513,1.8417-.9746,3.7845-.8351,5.509.5794l-4.7865,13.3916,10.2221,12.04c.6178.7277,1.3817.5888,1.7029-.3096s.08-2.2222-.5378-2.95l-.3574-.421c-.219-.2579-.3042-.7252-.1903-1.0438s.3837-.3678.6026-.1099l.3574.421c1.0551,1.2427,1.467,3.5025.9184,5.0376-.5485,1.5346-1.8531,1.7721-2.9082.5294l-10.2221-12.04-4.7868,13.3925Z"/>
        <path class="cls-8" d="M1929.2634,207.1629l13.0884-36.6183,25.168,29.6439-13.0884,36.6183-25.168-29.6439ZM1942.8202,173.1141l-12.0734,33.7784,23.2162,27.3449,12.0734-33.7784-23.2162-27.3449Z"/>
      </g>
      <g>
        <path class="cls-8" d="M1915.0442,246.9448l13.0884-36.6183,25.168,29.6439-13.0884,36.6183-25.168-29.6439ZM1928.601,212.8959l-12.0734,33.7784,23.2162,27.3449,12.0734-33.7784-23.2162-27.3449Z"/>
        <g>
          <path class="cls-8" d="M1922.826,239.7334l6.3484,7.4773c2.0702,2.4383,4.6449,1.9689,5.7218-1.044l.8187-2.2905c1.0766-3.012.2639-7.4724-1.8062-9.9107l-6.3484-7.4773-2.3949,6.7002,2.3835.7153-1.0182,2.8487,7.0779,2.827-8.6567-1.1405,1.0391-2.9073-1.7062.1202-1.4588,4.0814Z"/>
          <polygon class="cls-8" points="1941.801 254.1327 1942.5253 252.1064 1934.5726 242.7394 1933.8483 244.7657 1941.801 254.1327"/>
          <polygon class="cls-8" points="1941.5172 252.3588 1945.5188 247.1818 1940.6692 260.7498 1941.5172 252.3588"/>
        </g>
      </g>
      <g>
        <path class="cls-8" d="M1900.958,286.3547l13.0884-36.6183,25.168,29.6439-13.0884,36.6183-25.168-29.6439ZM1914.5148,252.3058l-12.0734,33.7784,23.2162,27.3449,12.0734-33.7784-23.2162-27.3449Z"/>
        <path class="cls-8" d="M1911.2103,272.2169l23.0844,6.3814-10.5668,29.5633-12.5177-35.9448ZM1913.5484,274.9902l10.062,28.8932,8.4938-23.7637-18.5558-5.1295Z"/>
        <path class="cls-8" d="M1926.3495,290.2447c-.2773.7757-.8543.8004-1.3727.1898-.5332-.628-.7411-1.5772-.4638-2.3529.2619-.7326.8395-.8178,1.3727-.1898.5184.6106.7334,1.5987.4638,2.3529ZM1923.0515,287.4012l-7.2168-8.0715.7394-2.0686,7.0011,8.6749-.5237,1.4653Z"/>
      </g>
      <g>
        <path class="cls-8" d="M1886.8361,325.8645l13.0884-36.6183,25.168,29.6439-13.0884,36.6183-25.168-29.6439ZM1900.3929,291.8156l-12.0734,33.7784,23.2162,27.3449,12.0734-33.7784-23.2162-27.3449Z"/>
        <g>
          <polygon class="cls-8" points="1911.2044 345.3919 1919.6774 321.6866 1917.2869 318.871 1908.814 342.5763 1911.2044 345.3919"/>
          <g>
            <polygon class="cls-8" points="1908.5093 337.1764 1909.4907 334.4306 1897.2868 320.0564 1896.3054 322.8022 1908.5093 337.1764"/>
            <polygon class="cls-8" points="1897.2451 327.3512 1899.9582 319.7607 1893.8865 318.4926 1897.2451 327.3512"/>
          </g>
          <g>
            <polygon class="cls-8" points="1913.2334 323.9593 1914.2149 321.2136 1902.011 306.8393 1901.0296 309.5851 1913.2334 323.9593"/>
            <polygon class="cls-8" points="1901.9693 314.1341 1904.6824 306.5437 1898.6107 305.2755 1901.9693 314.1341"/>
          </g>
        </g>
      </g>
    </g>
    <polygon class="cls-5" points="1906.783 234.9234 1927.9404 259.7812 1938.9394 229.0141 1917.7984 204.1126 1906.783 234.9234"/>
  </g>
  <line class="cls-12" x1="201.805" y1="60.4496" x2="249.7434" y2="94.307"/>
  <line class="cls-12" x1="214.98" y1="104.7683" x2="236.4441" y2="50.1449"/>
</svg>