<?xml version="1.0" encoding="UTF-8"?>
<svg id="Layer_1" data-name="Layer 1" xmlns="http://www.w3.org/2000/svg" xmlns:xlink="http://www.w3.org/1999/xlink" viewBox="0 0 2000 1697.5182">
  <defs>
    <style>
      .cls-1 {
        fill: url(#linear-gradient);
      }

      .cls-1, .cls-2, .cls-3, .cls-4, .cls-5, .cls-6, .cls-7, .cls-8 {
        stroke-width: 0px;
      }

      .cls-9, .cls-10, .cls-11 {
        fill: none;
        stroke-linecap: round;
      }

      .cls-9, .cls-12, .cls-13 {
        stroke: #000;
      }

      .cls-9, .cls-13 {
        stroke-width: 7px;
      }

      .cls-9, .cls-11 {
        stroke-linejoin: round;
      }

      .cls-2 {
        fill: #89644b;
      }

      .cls-3, .cls-12, .cls-13 {
        fill: #ecf4df;
      }

      .cls-10 {
        stroke-width: 4.4303px;
      }

      .cls-10, .cls-12, .cls-13 {
        stroke-miterlimit: 10;
      }

      .cls-10, .cls-11 {
        stroke: #272730;
      }

      .cls-12 {
        stroke-width: 3.8869px;
      }

      .cls-4 {
        fill: #b49b84;
      }

      .cls-4, .cls-6, .cls-8 {
        opacity: .8;
      }

      .cls-5 {
        fill: #272730;
      }

      .cls-6 {
        fill: #e6d3b3;
      }

      .cls-7 {
        fill: #231f20;
      }

      .cls-11 {
        stroke-width: 4px;
      }

      .cls-8 {
        fill: #ddc8ab;
      }
    </style>
    <linearGradient id="linear-gradient" x1="-123.2433" y1="1366.5258" x2="2164.8165" y2="311.8289" gradientUnits="userSpaceOnUse">
      <stop offset="0" stop-color="#ffffd9"/>
      <stop offset=".9464" stop-color="#d9f3f0"/>
    </linearGradient>
  </defs>
  <rect class="cls-1" width="2000" height="1697.5182"/>
  <g>
    <g>
      <path class="cls-3" d="M193.248,393.9448c-10.4268,0-20.0215-6.0552-24.4438-15.4263l-83.248-176.4082c-6.3389-13.4331-.5674-29.519,12.8652-35.8579l133.6396-63.0654c3.6016-1.6997,7.4419-2.5615,11.4136-2.5615,10.4268,0,20.022,6.0557,24.4443,15.4268l83.248,176.4082c6.3389,13.4331.5674,29.5186-12.8652,35.8574l-133.6396,63.0654c-3.6021,1.6997-7.4424,2.5615-11.4141,2.5615Z"/>
      <path class="cls-5" d="M243.4774,101.8431c9.9565,0,19.1182,5.7814,23.3405,14.7287l83.248,176.4082c2.9187,6.1849,3.2443,13.1638.9167,19.6511-2.3275,6.4873-7.0155,11.6673-13.2005,14.586l-133.6398,63.0653c-3.438,1.6224-7.1033,2.445-10.8941,2.445-9.958,0-19.1206-5.7813-23.343-14.7287l-83.248-176.4082c-2.9187-6.185-3.2443-13.1639-.9168-19.6511,2.3275-6.4873,7.0155-11.6673,13.2005-14.586l133.6398-63.0653c3.4373-1.6221,7.1027-2.4447,10.8954-2.445h.0012M243.475,99.4082c-4.0114.0003-8.0818.8603-11.9333,2.6779l-133.6398,63.0653c-14.0044,6.6087-20.0553,23.4739-13.4466,37.4783l83.248,176.4082c4.7911,10.1528,14.9706,16.1245,25.545,16.1245,4.0114,0,8.0818-.8603,11.9333-2.6779l133.6398-63.0654c14.0043-6.6087,20.0553-23.4739,13.4466-37.4783l-83.248-176.4082c-4.7911-10.1528-14.9706-16.1254-25.5449-16.1245h0Z"/>
    </g>
    <line class="cls-10" x1="138.934" y1="216.1679" x2="244.8364" y2="166.192"/>
    <line class="cls-10" x1="147.2718" y1="233.8363" x2="205.7606" y2="206.2352"/>
    <line class="cls-10" x1="188.0621" y1="236.1903" x2="261.512" y2="201.5289"/>
    <line class="cls-10" x1="171.846" y1="285.9107" x2="277.7484" y2="235.9348"/>
    <line class="cls-10" x1="180.1839" y1="303.5792" x2="238.6726" y2="275.978"/>
    <line class="cls-10" x1="220.9741" y1="305.9332" x2="294.4241" y2="271.2718"/>
    <g>
      <path class="cls-3" d="M127.6528,166.189c-1.2754,0-2.4478-.7383-2.9873-1.8813l-9.0981-19.2788c-.7734-1.6392-.0688-3.6021,1.5703-4.376l27.6494-13.0474-1.9922-1.584c-2.2212-1.7666-3.9614-3.9629-5.1724-6.5283-2.0967-4.4443-2.3311-9.4585-.6587-14.1191,1.6719-4.6606,5.04-8.3818,9.4839-10.479,2.4697-1.1655,5.1035-1.7568,7.8271-1.7568,7.1543,0,13.7373,4.1538,16.771,10.582,1.2104,2.5654,1.7998,5.3052,1.7505,8.1431l-.0439,2.5449,27.6499-13.0483c.4385-.2065.9058-.3115,1.3887-.3115,1.2749,0,2.4478.7388,2.9873,1.8818l9.0977,19.2783c.7734,1.6392.0688,3.6021-1.5698,4.376l-83.2646,39.293c-.4385.2065-.9058.3115-1.3887.3115h0Z"/>
      <path class="cls-5" d="M154.2753,94.7209h0c6.5443.0005,12.5658,3.798,15.3391,9.6748,1.106,2.3437,1.6443,4.8471,1.5998,7.4406l-.0873,5.0891,4.6031-2.1722,25.3479-11.9618c.2256-.1065.4655-.1604.7131-.1604.6657,0,1.2763.3825,1.5557.9745l9.0977,19.2788c.3943.8355.0215,1.8745-.814,2.2688l-83.2647,39.293c-.2256.1065-.4655.1604-.7131.1604-.6657,0-1.2763-.3825-1.5557-.9745l-9.0978-19.2788c-.3943-.8355-.0215-1.8745.814-2.2688l25.3479-11.9618,4.603-2.1722-3.9838-3.168c-2.0303-1.6145-3.6205-3.6214-4.7265-5.9652-1.9166-4.0614-2.1299-8.6458-.6004-12.9085,1.5294-4.2628,4.6084-7.6659,8.6699-9.5825,2.2574-1.0653,4.6637-1.6054,7.152-1.6054M154.2753,91.5555c-2.8589,0-5.7579.6127-8.5029,1.9081h0c-9.9786,4.709-14.2901,16.726-9.5811,26.7046h0c1.3472,2.8548,3.2943,5.2432,5.619,7.0918l-25.3479,11.9618c-2.4222,1.1431-3.4688,4.0601-2.3258,6.4823l9.0978,19.2788c.8286,1.7559,2.5895,2.7889,4.4183,2.7889.694,0,1.3977-.1487,2.064-.4632l83.2647-39.293c2.4222-1.1431,3.4688-4.0601,2.3258-6.4823l-9.0978-19.2788c-.8286-1.7559-2.5895-2.7889-4.4183-2.7889-.694,0-1.3977.1487-2.064.4632l-25.3479,11.9618c.0509-2.9696-.5549-5.991-1.9021-8.8458h0c-3.4136-7.2336-10.6678-11.4892-18.2017-11.4893h0Z"/>
    </g>
  </g>
  <g>
    <g>
      <polygon class="cls-11" points="1950.7893 111.8115 1873.8126 327.1816 1916.1031 376.9929 1993.0817 161.6252 1950.7893 111.8115"/>
      <polygon class="cls-2" points="1950.7893 111.8115 1873.8126 327.1816 1874.4049 327.8792 1951.5483 112.7055 1950.7893 111.8115"/>
      <polygon class="cls-11" points="1713.0919 356.4769 1873.8126 327.1816 1916.1031 376.9929 1755.3824 406.2883 1713.0919 356.4769"/>
      <polygon class="cls-11" points="1950.7893 111.8115 1873.8126 327.1816 1713.0919 356.4769 1790.0739 141.1079 1950.7893 111.8115"/>
      <polygon class="cls-6" points="1746.0834 264.1795 1906.783 234.9234 1917.7984 204.1126 1757.0796 233.4089 1746.0834 264.1795"/>
      <polygon class="cls-6" points="1886.5005 123.529 1809.5582 338.9427 1777.3656 344.8003 1854.3536 129.3874 1886.5005 123.529"/>
    </g>
    <polygon class="cls-8" points="1809.5565 338.9049 1830.6526 363.8149 1798.5086 369.6766 1777.3669 344.7758 1809.5565 338.9049"/>
    <g>
      <g>
        <path class="cls-7" d="M1940.1281,214.5345c-3.0372-4.9002-3.5263-13.8597-.9747-20.9984.0079-.0222.0162-.0452.0247-.0667.3029-.8425.6366-1.6235.9957-2.3418.2854-.573.5868-1.1058.902-1.5972,1.0608-1.6585,2.2713-2.8457,3.5291-3.513,1.8417-.9746,3.7845-.8351,5.509.5794l-4.7865,13.3916,10.2221,12.04c.6178.7277,1.3817.5888,1.7029-.3096s.08-2.2222-.5378-2.95l-.3574-.421c-.219-.2579-.3042-.7252-.1903-1.0438s.3837-.3678.6026-.1099l.3574.421c1.0551,1.2427,1.467,3.5025.9184,5.0376-.5485,1.5346-1.8531,1.7721-2.9082.5294l-10.2221-12.04-4.7868,13.3925Z"/>
        <path class="cls-7" d="M1929.2634,207.1629l13.0884-36.6183,25.168,29.6439-13.0884,36.6183-25.168-29.6439ZM1942.8202,173.1141l-12.0734,33.7784,23.2162,27.3449,12.0734-33.7784-23.2162-27.3449Z"/>
      </g>
      <g>
        <path class="cls-7" d="M1915.0442,246.9448l13.0884-36.6183,25.168,29.6439-13.0884,36.6183-25.168-29.6439ZM1928.601,212.8959l-12.0734,33.7784,23.2162,27.3449,12.0734-33.7784-23.2162-27.3449Z"/>
        <g>
          <path class="cls-7" d="M1922.826,239.7334l6.3484,7.4773c2.0702,2.4383,4.6449,1.9689,5.7218-1.044l.8187-2.2905c1.0766-3.012.2639-7.4724-1.8062-9.9107l-6.3484-7.4773-2.3949,6.7002,2.3835.7153-1.0182,2.8487,7.0779,2.827-8.6567-1.1405,1.0391-2.9073-1.7062.1202-1.4588,4.0814Z"/>
          <polygon class="cls-7" points="1941.801 254.1327 1942.5253 252.1064 1934.5726 242.7394 1933.8483 244.7657 1941.801 254.1327"/>
          <polygon class="cls-7" points="1941.5172 252.3588 1945.5188 247.1818 1940.6692 260.7498 1941.5172 252.3588"/>
        </g>
      </g>
      <g>
        <path class="cls-7" d="M1900.958,286.3547l13.0884-36.6183,25.168,29.6439-13.0884,36.6183-25.168-29.6439ZM1914.5148,252.3058l-12.0734,33.7784,23.2162,27.3449,12.0734-33.7784-23.2162-27.3449Z"/>
        <path class="cls-7" d="M1911.2103,272.2169l23.0844,6.3814-10.5668,29.5633-12.5177-35.9448ZM1913.5484,274.9902l10.062,28.8932,8.4938-23.7637-18.5558-5.1295Z"/>
        <path class="cls-7" d="M1926.3495,290.2447c-.2773.7757-.8543.8004-1.3727.1898-.5332-.628-.7411-1.5772-.4638-2.3529.2619-.7326.8395-.8178,1.3727-.1898.5184.6106.7334,1.5987.4638,2.3529ZM1923.0515,287.4012l-7.2168-8.0715.7394-2.0686,7.0011,8.6749-.5237,1.4653Z"/>
      </g>
      <g>
        <path class="cls-7" d="M1886.8361,325.8645l13.0884-36.6183,25.168,29.6439-13.0884,36.6183-25.168-29.6439ZM1900.3929,291.8156l-12.0734,33.7784,23.2162,27.3449,12.0734-33.7784-23.2162-27.3449Z"/>
        <g>
          <polygon class="cls-7" points="1911.2044 345.3919 1919.6774 321.6866 1917.2869 318.871 1908.814 342.5763 1911.2044 345.3919"/>
          <g>
            <polygon class="cls-7" points="1908.5093 337.1764 1909.4907 334.4306 1897.2868 320.0564 1896.3054 322.8022 1908.5093 337.1764"/>
            <polygon class="cls-7" points="1897.2451 327.3512 1899.9582 319.7607 1893.8865 318.4926 1897.2451 327.3512"/>
          </g>
          <g>
            <polygon class="cls-7" points="1913.2334 323.9593 1914.2149 321.2136 1902.011 306.8393 1901.0296 309.5851 1913.2334 323.9593"/>
            <polygon class="cls-7" points="1901.9693 314.1341 1904.6824 306.5437 1898.6107 305.2755 1901.9693 314.1341"/>
          </g>
        </g>
      </g>
    </g>
    <polygon class="cls-4" points="1906.783 234.9234 1927.9404 259.7812 1938.9394 229.0141 1917.7984 204.1126 1906.783 234.9234"/>
  </g>
  <g>
    <path class="cls-13" d="M39.9059,216.7756h10.2924c4.6301,0,8.3891,3.759,8.3891,8.3891v32.9194h-27.0706v-32.9194c0-4.6301,3.759-8.3891,8.3891-8.3891Z" transform="translate(-168.4286 124.1664) rotate(-51.3075)"/>
    <path class="cls-9" d="M46.014,218.655l.6251-.7805c1.9457-2.4293,5.5252-2.8249,7.9545-.8792l27.8249,22.286"/>
    <path class="cls-12" d="M188.3633,341.6864h3.4205c1.0061,0,1.823.8169,1.823,1.823v18.4368c0,1.95-1.5832,3.5332-3.5332,3.5332h0c-1.95,0-3.5332-1.5832-3.5332-3.5332v-18.4368c0-1.0061.8169-1.823,1.823-1.823Z" transform="translate(-204.7249 280.8983) rotate(-51.3074)"/>
    <path class="cls-13" d="M17.8626,208.5458h6.1704c1.815,0,3.2886,1.4736,3.2886,3.2886v9.4937c0,3.5178-2.856,6.3737-6.3737,6.3737h0c-3.5178,0-6.3737-2.856-6.3737-6.3737v-9.4937c0-1.815,1.4736-3.2886,3.2886-3.2886Z" transform="translate(204.2913 338.132) rotate(128.6926)"/>
    <path class="cls-13" d="M83.8271,234.348h24.0033c.8464,0,1.5336.6872,1.5336,1.5336v78.9497c0,3.8735-3.1448,7.0183-7.0183,7.0183h-13.034c-3.8735,0-7.0183-3.1448-7.0183-7.0183v-78.9497c0-.8464.6872-1.5336,1.5336-1.5336Z" transform="translate(-181.1371 179.0432) rotate(-51.3075)"/>
    <path class="cls-13" d="M152.4789,293.2076h5.9733c5.8219,0,10.5486,4.7267,10.5486,10.5486v45.9844c0,4.8459-3.9342,8.7801-8.7801,8.7801h-9.5104c-4.8459,0-8.7801-3.9342-8.7801-8.7801v-45.9844c0-5.8219,4.7267-10.5486,10.5486-10.5486Z" transform="translate(-196.0631 243.4958) rotate(-51.3075)"/>
  </g>
</svg>