<?xml version="1.0" encoding="UTF-8"?>
<svg id="Layer_1" data-name="Layer 1" xmlns="http://www.w3.org/2000/svg" xmlns:xlink="http://www.w3.org/1999/xlink" viewBox="0 0 2000 1697.5182">
  <defs>
    <style>
      .cls-1 {
        fill: #eace2d;
      }

      .cls-1, .cls-2, .cls-3, .cls-4, .cls-5, .cls-6, .cls-7, .cls-8, .cls-9, .cls-10, .cls-11 {
        stroke-width: 0px;
      }

      .cls-12 {
        stroke-width: 8.0185px;
      }

      .cls-12, .cls-13, .cls-14, .cls-15, .cls-16, .cls-17, .cls-18, .cls-19 {
        fill: none;
      }

      .cls-12, .cls-13, .cls-14, .cls-16, .cls-17, .cls-18 {
        stroke-linecap: round;
      }

      .cls-12, .cls-14, .cls-15, .cls-16, .cls-18, .cls-19 {
        stroke-miterlimit: 10;
      }

      .cls-12, .cls-15, .cls-16, .cls-19 {
        stroke: #4ad1a0;
      }

      .cls-2 {
        fill: url(#linear-gradient);
      }

      .cls-3 {
        fill: #000;
      }

      .cls-13 {
        stroke-width: 7px;
      }

      .cls-13, .cls-17 {
        stroke-linejoin: round;
      }

      .cls-13, .cls-18 {
        stroke: #000;
      }

      .cls-4 {
        fill: #89644b;
      }

      .cls-14 {
        stroke-width: 6.9339px;
      }

      .cls-14, .cls-17 {
        stroke: #272730;
      }

      .cls-5 {
        fill: #b49b84;
      }

      .cls-5, .cls-7, .cls-11 {
        opacity: .8;
      }

      .cls-15 {
        fill-rule: evenodd;
      }

      .cls-15, .cls-19 {
        stroke-width: 5.2393px;
      }

      .cls-6 {
        fill: #272730;
      }

      .cls-7 {
        fill: #e6d3b3;
      }

      .cls-8 {
        fill: #231f20;
      }

      .cls-9 {
        fill: #fff;
      }

      .cls-16 {
        stroke-width: 7.167px;
      }

      .cls-10 {
        fill: #31e8ab;
      }

      .cls-17 {
        stroke-width: 4px;
      }

      .cls-11 {
        fill: #ddc8ab;
      }

      .cls-18 {
        stroke-width: 4.4303px;
      }
    </style>
    <linearGradient id="linear-gradient" x1="-123.2433" y1="1366.5258" x2="2164.8165" y2="311.8289" gradientUnits="userSpaceOnUse">
      <stop offset="0" stop-color="#ffffd9"/>
      <stop offset=".9464" stop-color="#d9f3f0"/>
    </linearGradient>
  </defs>
  <rect class="cls-2" width="2000" height="1697.5182"/>
  <g>
    <g>
      <path class="cls-10" d="M1511.6303,830.6389c-1.9854,0-3.9805-.2246-5.9297-.667l-144.1074-32.708c-6.9863-1.585-12.9531-5.8213-16.8008-11.9277-3.8467-6.1064-5.0928-13.3174-3.5068-20.3037l43.1748-190.2266c2.7588-12.1533,13.8203-20.9736,26.3018-20.9736,1.9854,0,3.9805.2246,5.9297.667l144.1084,32.707c14.4854,3.2881,23.5947,17.7471,20.3066,32.2314l-43.1748,190.2266c-2.7578,12.1533-13.8193,20.9746-26.3018,20.9746Z"/>
      <path class="cls-3" d="M1410.7626,552.6146v2.4349c1.8947,0,3.799.2142,5.6602.6366l144.1078,32.7075c6.6694,1.5137,12.3657,5.5588,16.0397,11.3901,3.674,5.8312,4.8636,12.7157,3.3499,19.3851l-43.1747,190.2263c-2.6337,11.6039-13.1959,20.0261-25.1145,20.0261-1.895,0-3.7996-.2142-5.6608-.6366l-144.1078-32.7074c-6.6694-1.5137-12.3657-5.5588-16.0397-11.3901s-4.8636-12.7157-3.3499-19.3851l43.1747-190.2263c2.6337-11.6039,13.1962-20.0261,25.1151-20.0261v-2.4349M1410.762,552.6145c-12.8473,0-24.5326,8.8965-27.489,21.9222l-43.1747,190.2263c-3.4275,15.1013,6.1238,30.2612,21.2251,33.6887l144.1078,32.7074c2.0757.4711,4.1523.697,6.1997.697,12.8473,0,24.5326-8.8965,27.489-21.9221l43.1747-190.2263c3.4275-15.1013-6.1238-30.2612-21.2251-33.6887l-144.1078-32.7075c-2.0757-.4711-4.1523-.697-6.1997-.697h0Z"/>
    </g>
    <line class="cls-18" x1="1417.8291" y1="618.7757" x2="1532.0267" y2="644.6946"/>
    <line class="cls-18" x1="1413.5048" y1="637.8282" x2="1476.575" y2="652.1429"/>
    <line class="cls-18" x1="1444.175" y1="664.8231" x2="1523.3782" y2="682.7995"/>
    <line class="cls-18" x1="1400.76" y1="693.9815" x2="1514.9576" y2="719.9004"/>
    <line class="cls-18" x1="1396.4357" y1="713.034" x2="1459.5059" y2="727.3487"/>
    <line class="cls-18" x1="1427.1059" y1="740.0289" x2="1506.3092" y2="758.0053"/>
    <g>
      <path class="cls-1" d="M1531.5444,593.5363c-.2412,0-.4844-.0273-.7217-.0811l-89.7871-20.3789c-1.7676-.4014-2.8789-2.166-2.4785-3.9336l4.7178-20.7881c.3379-1.4834,1.6885-2.5605,3.2119-2.5605.2412,0,.4844.0273.7217.0811l29.8164,6.7676-.5928-2.4746c-.6611-2.7617-.6777-5.5645-.0498-8.3291,1.8926-8.3369,9.4805-14.3887,18.0449-14.3887,1.3613,0,2.7295.1543,4.0654.457,9.9375,2.2559,16.1865,12.1748,13.9316,22.1113-.6289,2.7676-1.8535,5.2881-3.6406,7.4912l-1.6025,1.9775,29.8145,6.7666c.8516.1934,1.5791.7109,2.0488,1.457s.6221,1.626.4297,2.4766l-4.7178,20.7881c-.3379,1.4834-1.6885,2.5605-3.2119,2.5605h0Z"/>
      <path class="cls-3" d="M1494.4259,529.0335c1.2439,0,2.4944.1407,3.7169.4182,9.0854,2.0621,14.7994,11.1313,12.7373,20.2168-.5736,2.5275-1.6927,4.8306-3.3262,6.8454l-3.2056,3.9537,4.9637,1.1266,27.3333,6.2037c.901.2045,1.4894,1.1385,1.2849,2.0394l-4.7184,20.7889c-.1744.7689-.8757,1.3269-1.6676,1.3269-.1237,0-.2487-.0142-.3717-.0421l-89.7867-20.3785c-.901-.2045-1.4894-1.1384-1.2849-2.0394l4.7184-20.7889c.1744-.769.8757-1.327,1.6674-1.3269.1239,0,.249.0141.3719.042l27.3335,6.2037,4.9635,1.1265-1.1844-4.95c-.6036-2.5229-.619-5.0834-.0454-7.6105,1.7301-7.6229,8.6694-13.1556,16.5001-13.1556M1494.4259,525.8681c-9.1549,0-17.4803,6.3384-19.5869,15.6204-.6987,3.0784-.6375,6.1593.0537,9.0478l-27.3335-6.2037c-.3589-.0814-.7183-.1205-1.0723-.1205-2.2223-.0002-4.2432,1.5386-4.7545,3.7917l-4.7184,20.7889c-.5928,2.6119,1.0592,5.234,3.6711,5.8268l89.7869,20.3785c.3589.0814.7184.1205,1.0723.1205,2.2223,0,4.2432-1.5386,4.7545-3.7917l4.7184-20.7889c.5928-2.6119-1.0592-5.2341-3.6711-5.8269l-27.3334-6.2037c1.8705-2.3071,3.2556-5.0598,3.9543-8.1382,2.4421-10.7602-4.3635-21.5622-15.1237-24.0043h-.0001c-1.4783-.3356-2.9592-.4967-4.4174-.4967h0Z"/>
    </g>
  </g>
  <g>
    <path class="cls-14" d="M1734.4604,249.7365c-244.365-39.1011,90.905-190.7103-238.3672-193.0844"/>
    <polygon class="cls-6" points="1510.0717 45.1887 1498.1385 56.7701 1509.7269 68.6965 1499.7466 68.5501 1488.1652 56.6239 1500.0913 45.0424 1510.0717 45.1887"/>
  </g>
  <g>
    <path class="cls-15" d="M99.6097,565.4072l-17.6378,30.5496c-2.0118,3.4845.5029,7.8401,4.5265,7.8401h35.2756c4.0235,0,6.5382-4.3556,4.5265-7.8401l-17.6378-30.5496c-2.0118-3.4845-7.0412-3.4845-9.0529,0Z"/>
    <circle class="cls-19" cx="130.0714" cy="679.7572" r="20.9194"/>
    <rect class="cls-19" x="175.3153" y="597.3547" width="41.2112" height="41.2112" rx="8.5791" ry="8.5791"/>
  </g>
  <g>
    <path class="cls-14" d="M157.8165,556.7415s44.2569-171.8241-18.9155-231.5125C62.3996,252.9467-20.8546,131.4739,182.4422,101.5322"/>
    <polygon class="cls-6" points="170.5619 115.3171 180.4315 101.9336 167.0423 92.0717 176.9112 90.5775 190.2936 100.4404 180.4308 113.8228 170.5619 115.3171"/>
  </g>
  <g>
    <path class="cls-9" d="M1413.1679,99.0105c-10.1885,0-19.6465-4.0249-26.6328-11.3335-6.7681-7.0796-10.3735-16.4111-10.1514-26.2754s4.2437-19.0239,11.3237-25.792c6.854-6.5522,15.8867-10.1606,25.4346-10.1606,10.1885,0,19.647,4.0249,26.6333,11.333,14.0317,14.6787,13.5059,38.0361-1.1729,52.0679-6.854,6.5522-15.8867,10.1606-25.4346,10.1606Z"/>
    <path class="cls-3" d="M1413.1448,24.0189v2.8601h.0007c9.792,0,18.8823,3.8679,25.5962,10.8912,13.4869,14.1084,12.9813,36.559-1.1271,50.046-6.5866,6.2965-15.2686,9.7641-24.4467,9.7641-9.7941,0-18.8854-3.8679-25.5994-10.8912-13.4869-14.1084-12.9813-36.559,1.1271-50.046,6.5859-6.2957,15.2679-9.7634,24.447-9.7641l.0023-2.8601M1413.1423,24.0189c-9.5145.0008-19.0447,3.5035-26.423,10.5568h0c-15.2096,14.5397-15.7578,38.8801-1.2181,54.0897h0c7.4864,7.8314,17.5679,11.7749,27.6667,11.7749,9.5145,0,19.0447-3.5035,26.423-10.5568h0c15.2096-14.5397,15.7578-38.8801,1.2181-54.0897h0c-7.4864-7.8314-17.5679-11.7757-27.6667-11.7749h0Z"/>
  </g>
  <path class="cls-16" d="M1404.9079,75.3137s15.3561,5.787,25.8994,2.2575c10.5433-3.5295-16.4342-69.4312-16.4342-69.4312"/>
  <g>
    <g>
      <polygon class="cls-17" points="1950.7893 111.8115 1873.8126 327.1816 1916.1031 376.9929 1993.0817 161.6252 1950.7893 111.8115"/>
      <polygon class="cls-4" points="1950.7893 111.8115 1873.8126 327.1816 1874.4049 327.8792 1951.5483 112.7055 1950.7893 111.8115"/>
      <polygon class="cls-17" points="1713.0919 356.4769 1873.8126 327.1816 1916.1031 376.9929 1755.3824 406.2883 1713.0919 356.4769"/>
      <polygon class="cls-17" points="1950.7893 111.8115 1873.8126 327.1816 1713.0919 356.4769 1790.0739 141.1079 1950.7893 111.8115"/>
      <polygon class="cls-7" points="1746.0834 264.1795 1906.783 234.9234 1917.7984 204.1126 1757.0796 233.4089 1746.0834 264.1795"/>
      <polygon class="cls-7" points="1886.5005 123.529 1809.5582 338.9427 1777.3656 344.8003 1854.3536 129.3874 1886.5005 123.529"/>
    </g>
    <polygon class="cls-11" points="1809.5565 338.9049 1830.6526 363.8149 1798.5086 369.6766 1777.3669 344.7758 1809.5565 338.9049"/>
    <g>
      <g>
        <path class="cls-8" d="M1940.1281,214.5345c-3.0372-4.9002-3.5263-13.8597-.9747-20.9984.0079-.0222.0162-.0452.0247-.0667.3029-.8425.6366-1.6235.9957-2.3418.2854-.573.5868-1.1058.902-1.5972,1.0608-1.6585,2.2713-2.8457,3.5291-3.513,1.8417-.9746,3.7845-.8351,5.509.5794l-4.7865,13.3916,10.2221,12.04c.6178.7277,1.3817.5888,1.7029-.3096s.08-2.2222-.5378-2.95l-.3574-.421c-.219-.2579-.3042-.7252-.1903-1.0438s.3837-.3678.6026-.1099l.3574.421c1.0551,1.2427,1.467,3.5025.9184,5.0376-.5485,1.5346-1.8531,1.7721-2.9082.5294l-10.2221-12.04-4.7868,13.3925Z"/>
        <path class="cls-8" d="M1929.2634,207.1629l13.0884-36.6183,25.168,29.6439-13.0884,36.6183-25.168-29.6439ZM1942.8202,173.1141l-12.0734,33.7784,23.2162,27.3449,12.0734-33.7784-23.2162-27.3449Z"/>
      </g>
      <g>
        <path class="cls-8" d="M1915.0442,246.9448l13.0884-36.6183,25.168,29.6439-13.0884,36.6183-25.168-29.6439ZM1928.601,212.8959l-12.0734,33.7784,23.2162,27.3449,12.0734-33.7784-23.2162-27.3449Z"/>
        <g>
          <path class="cls-8" d="M1922.826,239.7334l6.3484,7.4773c2.0702,2.4383,4.6449,1.9689,5.7218-1.044l.8187-2.2905c1.0766-3.012.2639-7.4724-1.8062-9.9107l-6.3484-7.4773-2.3949,6.7002,2.3835.7153-1.0182,2.8487,7.0779,2.827-8.6567-1.1405,1.0391-2.9073-1.7062.1202-1.4588,4.0814Z"/>
          <polygon class="cls-8" points="1941.801 254.1327 1942.5253 252.1064 1934.5726 242.7394 1933.8483 244.7657 1941.801 254.1327"/>
          <polygon class="cls-8" points="1941.5172 252.3588 1945.5188 247.1818 1940.6692 260.7498 1941.5172 252.3588"/>
        </g>
      </g>
      <g>
        <path class="cls-8" d="M1900.958,286.3547l13.0884-36.6183,25.168,29.6439-13.0884,36.6183-25.168-29.6439ZM1914.5148,252.3058l-12.0734,33.7784,23.2162,27.3449,12.0734-33.7784-23.2162-27.3449Z"/>
        <path class="cls-8" d="M1911.2103,272.2169l23.0844,6.3814-10.5668,29.5633-12.5177-35.9448ZM1913.5484,274.9902l10.062,28.8932,8.4938-23.7637-18.5558-5.1295Z"/>
        <path class="cls-8" d="M1926.3495,290.2447c-.2773.7757-.8543.8004-1.3727.1898-.5332-.628-.7411-1.5772-.4638-2.3529.2619-.7326.8395-.8178,1.3727-.1898.5184.6106.7334,1.5987.4638,2.3529ZM1923.0515,287.4012l-7.2168-8.0715.7394-2.0686,7.0011,8.6749-.5237,1.4653Z"/>
      </g>
      <g>
        <path class="cls-8" d="M1886.8361,325.8645l13.0884-36.6183,25.168,29.6439-13.0884,36.6183-25.168-29.6439ZM1900.3929,291.8156l-12.0734,33.7784,23.2162,27.3449,12.0734-33.7784-23.2162-27.3449Z"/>
        <g>
          <polygon class="cls-8" points="1911.2044 345.3919 1919.6774 321.6866 1917.2869 318.871 1908.814 342.5763 1911.2044 345.3919"/>
          <g>
            <polygon class="cls-8" points="1908.5093 337.1764 1909.4907 334.4306 1897.2868 320.0564 1896.3054 322.8022 1908.5093 337.1764"/>
            <polygon class="cls-8" points="1897.2451 327.3512 1899.9582 319.7607 1893.8865 318.4926 1897.2451 327.3512"/>
          </g>
          <g>
            <polygon class="cls-8" points="1913.2334 323.9593 1914.2149 321.2136 1902.011 306.8393 1901.0296 309.5851 1913.2334 323.9593"/>
            <polygon class="cls-8" points="1901.9693 314.1341 1904.6824 306.5437 1898.6107 305.2755 1901.9693 314.1341"/>
          </g>
        </g>
      </g>
    </g>
    <polygon class="cls-5" points="1906.783 234.9234 1927.9404 259.7812 1938.9394 229.0141 1917.7984 204.1126 1906.783 234.9234"/>
  </g>
  <line class="cls-12" x1="219.0818" y1="60.3713" x2="267.0202" y2="94.2288"/>
  <line class="cls-12" x1="232.2569" y1="104.69" x2="253.7209" y2="50.0666"/>
  <g>
    <path class="cls-13" d="M1584.6055,692.2353s301.9805-19.5628,249.1302-263.1899"/>
    <polygon class="cls-3" points="1848.3119 440.0717 1834.1389 431.0744 1825.1499 445.2526 1822.9503 435.4191 1831.9409 421.2477 1846.1123 430.2382 1848.3119 440.0717"/>
  </g>
  <g>
    <path class="cls-13" d="M301.8165,100.4404s223.2661,23.0886,123.6233,236.7373c-77.0499,165.2062,437.0782,482.9797,921.8357,297.4528"/>
    <polygon class="cls-3" points="1338.3873 650.5803 1345.3118 635.2873 1330.0148 628.3718 1339.4435 624.8171 1354.7339 631.7352 1347.816 647.0257 1338.3873 650.5803"/>
  </g>
</svg>