<?xml version="1.0" encoding="UTF-8"?>
<svg id="Layer_1" data-name="Layer 1" xmlns="http://www.w3.org/2000/svg" xmlns:xlink="http://www.w3.org/1999/xlink" viewBox="0 0 2000 1697.5182">
  <defs>
    <style>
      .cls-1 {
        stroke-width: 5.2222px;
      }

      .cls-1, .cls-2, .cls-3, .cls-4, .cls-5, .cls-6, .cls-7, .cls-8, .cls-9 {
        fill: none;
      }

      .cls-1, .cls-2, .cls-3, .cls-4, .cls-5, .cls-7, .cls-9 {
        stroke-linecap: round;
      }

      .cls-1, .cls-3, .cls-4, .cls-5, .cls-6, .cls-7, .cls-8 {
        stroke: #272730;
      }

      .cls-1, .cls-5, .cls-6, .cls-7, .cls-8, .cls-9 {
        stroke-miterlimit: 10;
      }

      .cls-10 {
        fill: url(#linear-gradient);
      }

      .cls-10, .cls-11, .cls-12, .cls-13, .cls-14, .cls-15, .cls-16, .cls-17, .cls-18, .cls-19 {
        stroke-width: 0px;
      }

      .cls-11 {
        fill: #000;
      }

      .cls-2 {
        stroke: #000;
      }

      .cls-2, .cls-3 {
        stroke-width: 6.0628px;
      }

      .cls-2, .cls-3, .cls-4 {
        stroke-linejoin: round;
      }

      .cls-4 {
        stroke-width: 3.4645px;
      }

      .cls-12 {
        fill: #89644b;
      }

      .cls-13 {
        fill: #ecf4df;
      }

      .cls-5 {
        stroke-width: 12.5619px;
      }

      .cls-6 {
        fill-rule: evenodd;
      }

      .cls-6, .cls-8 {
        stroke-width: 4.5378px;
      }

      .cls-7 {
        stroke-width: 6.0056px;
      }

      .cls-14 {
        fill: #b49b84;
      }

      .cls-14, .cls-16, .cls-19 {
        opacity: .8;
      }

      .cls-15 {
        fill: #272730;
      }

      .cls-16 {
        fill: #e6d3b3;
      }

      .cls-17 {
        fill: #231f20;
      }

      .cls-18 {
        fill: #fff;
      }

      .cls-9 {
        stroke: #4ad1a0;
        stroke-width: 6.2075px;
      }

      .cls-19 {
        fill: #ddc8ab;
      }
    </style>
    <linearGradient id="linear-gradient" x1="-123.2433" y1="1366.5258" x2="2164.8165" y2="311.8289" gradientUnits="userSpaceOnUse">
      <stop offset="0" stop-color="#ffffd9"/>
      <stop offset=".9464" stop-color="#d9f3f0"/>
    </linearGradient>
  </defs>
  <rect class="cls-10" width="2000" height="1697.5182"/>
  <g>
    <g>
      <g>
        <path class="cls-13" d="M381.0066,875.6738c-11.376,0-21.9492-6.0742-27.5942-15.8516l-114.9668-199.1289c-4.2222-7.3135-5.3354-15.8662-3.1333-24.084,2.2017-8.2178,7.4419-15.0684,14.7559-19.291l150.8521-87.0947c4.791-2.7666,10.248-4.2285,15.7812-4.2285,11.376,0,21.9497,6.0742,27.5942,15.8516l114.9673,199.1289c8.7544,15.1621,3.5405,34.6201-11.6226,43.375l-150.8521,87.0938c-4.7915,2.7666-10.249,4.2295-15.7817,4.2295Z"/>
        <path class="cls-15" d="M416.7041,527.4302c10.8632,0,20.9594,5.7988,26.3487,15.1334l114.9673,199.1288c4.0308,6.9816,5.0927,15.1482,2.9899,22.9955-2.1027,7.8474-7.1055,14.389-14.0872,18.4197l-150.852,87.0946c-4.5736,2.6406-9.7827,4.0363-15.064,4.0363-10.8647,0-20.9619-5.7989-26.3513-15.1335l-114.9672-199.1287c-8.3587-14.4778-3.3806-33.0566,11.0972-41.4154l150.852-87.0945c4.5729-2.6402,9.782-4.0359,15.0654-4.0363h.0013M416.7015,524.5601c-5.6196.0004-11.3082,1.4238-16.4991,4.4208l-150.852,87.0945c-15.8081,9.1268-21.2745,29.528-12.1477,45.3361l114.9672,199.1288c6.1299,10.6171,17.343,16.5685,28.837,16.5685,5.6196,0,11.3082-1.4238,16.4991-4.4208l150.852-87.0945c15.808-9.1268,21.2745-29.528,12.1478-45.336l-114.9673-199.1288c-6.1298-10.6172-17.3429-16.5693-28.8369-16.5685h0Z"/>
      </g>
      <line class="cls-1" x1="302.5186" y1="672.0118" x2="422.0607" y2="602.994"/>
      <line class="cls-1" x1="314.0334" y1="691.9559" x2="380.0552" y2="653.8381"/>
      <line class="cls-1" x1="362.1802" y1="690.7504" x2="445.0902" y2="642.8822"/>
      <line class="cls-1" x1="347.9708" y1="750.7372" x2="467.5129" y2="681.7195"/>
      <line class="cls-1" x1="359.4856" y1="770.6813" x2="425.5074" y2="732.5635"/>
      <line class="cls-1" x1="407.6324" y1="769.4758" x2="490.5424" y2="721.6076"/>
      <g>
        <path class="cls-13" d="M284.0808,614.4111c-1.3916,0-2.6836-.7402-3.3721-1.9326l-12.5645-21.7617c-.5142-.8906-.6494-1.9346-.3804-2.9385s.9077-1.8398,1.7983-2.3535l31.2109-18.0205-2.4941-1.666c-2.7822-1.8594-5.04-4.2705-6.7119-7.166-2.896-5.0166-3.6592-10.8838-2.1489-16.5215,1.5107-5.6377,5.105-10.3379,10.1211-13.2344,3.2866-1.8965,7.0293-2.8994,10.8242-2.8994,7.8052,0,15.0591,4.166,18.9312,10.8721,1.6719,2.8955,2.6304,6.0576,2.8496,9.3965l.1968,2.9932,31.21-18.0195c.5835-.3369,1.248-.5146,1.9219-.5146,1.3911,0,2.6831.7402,3.3711,1.9326l12.5645,21.7617c.5146.8916.6494,1.9346.3804,2.9395-.269,1.0039-.9077,1.8398-1.7983,2.3535l-93.9888,54.2656c-.583.3359-1.2476.5137-1.9204.5137h-.0005Z"/>
        <path class="cls-15" d="M310.363,527.7824c7.1412.0002,13.7763,3.809,17.3161,9.9401,1.5274,2.6456,2.4034,5.534,2.6037,8.585l.3929,5.9868,5.1959-2.9999,28.6126-16.5195c.3043-.1757.6367-.2648.9881-.2648.7272,0,1.4002.3832,1.7563,1.0001l12.5642,21.7618c.5446.9432.2078,2.2-.7354,2.7445l-93.9888,54.2645c-.3043.1757-.6368.2648-.9882.2648-.7272,0-1.4002-.3832-1.7563-1.0001l-12.5642-21.7618c-.5445-.9431-.2077-2.2.7354-2.7445l28.6126-16.5195,5.1959-2.9998-4.9883-3.3337c-2.5421-1.6989-4.6056-3.9018-6.133-6.5474-2.6469-4.5845-3.3437-9.9492-1.962-15.1057,1.3817-5.1565,4.6674-9.454,9.252-12.101,3.003-1.7338,6.423-2.6501,9.8905-2.6501M310.363,524.0512c-4.0049,0-8.0568,1.0142-11.7561,3.15h0c-11.2637,6.5032-15.1588,21.0398-8.6556,32.3035h0c1.8605,3.2225,4.3803,5.8387,7.2911,7.784l-28.6126,16.5195c-2.7342,1.5786-3.6797,5.1072-2.1011,7.8414l12.5642,21.7618c1.0601,1.8362,2.9998,2.8657,4.9877,2.8657.9722,0,1.9557-.2462,2.8538-.7646l93.9888-54.2645c2.7342-1.5786,3.6797-5.1072,2.1011-7.8414l-12.5642-21.7618c-1.0601-1.8362-2.9998-2.8657-4.9877-2.8657-.9722,0-1.9557.2462-2.8538.7646l-28.6125,16.5195c-.2293-3.4935-1.235-6.9838-3.0956-10.2062h0c-4.3673-7.5645-12.3582-11.8055-20.5474-11.8057h0Z"/>
      </g>
    </g>
    <g>
      <path class="cls-7" d="M1597.287,212.6422c-211.6486-33.8661,78.7344-165.1774-206.4537-167.2336"/>
      <polygon class="cls-15" points="1402.9402 35.4801 1392.6046 45.5109 1402.6415 55.8405 1393.9975 55.7138 1383.9666 45.3842 1394.296 35.3533 1402.9402 35.4801"/>
    </g>
    <g>
      <path class="cls-6" d="M442.7375,53.5551l-15.2764,26.4595c-1.7424,3.018.4356,6.7904,3.9204,6.7904h30.5528c3.4848,0,5.6629-3.7724,3.9205-6.7904l-15.2764-26.4595c-1.7424-3.018-6.0985-3.018-7.8409,0Z"/>
      <circle class="cls-8" cx="469.1209" cy="152.5956" r="18.1186"/>
      <rect class="cls-8" x="508.3073" y="81.2254" width="35.6937" height="35.6937" rx="7.4305" ry="7.4305"/>
    </g>
    <g>
      <path class="cls-7" d="M339.2477,507.277s161.3361-115.4097,21.7745-200.5168c-77.8286-47.4612-138.6575-167.4392,37.7128-193.7415"/>
      <polygon class="cls-15" points="388.4734 124.9907 396.9954 113.3797 385.3794 104.8645 393.9241 103.5509 405.5342 112.067 397.0181 123.6771 388.4734 124.9907"/>
    </g>
    <g>
      <path class="cls-18" d="M1309.9402,90.0249c-8.8242,0-17.0156-3.4863-23.0664-9.8159-12.1533-12.7134-11.6982-32.9438,1.0146-45.0967,5.9375-5.6753,13.7607-8.8008,22.0303-8.8008,8.8242,0,17.0166,3.4863,23.0674,9.8159,5.8623,6.1318,8.9844,14.2144,8.792,22.7578-.1924,8.5439-3.6758,16.4771-9.8076,22.3389-5.9365,5.6753-13.7598,8.8008-22.0303,8.8008Z"/>
      <path class="cls-11" d="M1309.9208,25.0733v2.4772h.0006c8.4811,0,16.3542,3.35,22.1692,9.433,11.6813,12.2196,11.2434,31.6644-.9762,43.3457-5.7047,5.4535-13.2244,8.4568-21.1736,8.4568-8.4828,0-16.3571-3.3501-22.172-9.433-11.6813-12.2196-11.2434-31.6644.9762-43.3457,5.7041-5.4528,13.2238-8.4562,21.1738-8.4568l.002-2.4772M1309.9186,25.0732c-8.2406.0007-16.4949,3.0344-22.8854,9.1434h0c-13.1733,12.5931-13.6481,33.6747-1.0551,46.848h0c6.4841,6.7829,15.2159,10.1984,23.9626,10.1984,8.2406,0,16.4949-3.0344,22.8854-9.1434h0c13.1733-12.5931,13.6481-33.6747,1.0551-46.848h0c-6.4841-6.7829-15.2159-10.1992-23.9626-10.1985h0Z"/>
    </g>
    <path class="cls-9" d="M1302.7867,69.5005s13.3002,5.0122,22.4319,1.9552-14.2339-60.1355-14.2339-60.1355"/>
    <line class="cls-5" x1="1048.5567" y1="887.8514" x2="1123.6575" y2="940.8929"/>
    <line class="cls-5" x1="1069.1968" y1="957.2815" x2="1102.8227" y2="871.708"/>
    <g>
      <path class="cls-2" d="M1157.6564,899.6182s726.0088,63.8343,588.4517-474.7284"/>
      <polygon class="cls-11" points="1758.8744 434.1897 1746.4395 426.6541 1738.9112 439.0934 1736.8292 430.618 1744.359 418.1846 1756.7925 425.7143 1758.8744 434.1897"/>
    </g>
    <path class="cls-3" d="M609.2854,129.0132s185.3648-82.7759,329.5375-16.9462c130.6567,59.6583-88.4209,268.236-130.6457,306.8194-8.1412,7.4391-15.5996,15.6025-22.1438,24.479-30.746,41.7036-81.7524,143.4885,109.9613,187.0783,15.8251,3.5981,31.8802,6.091,48.0266,7.7257,39.1925,3.968,158.7327,29.3546,128.9623,191.651"/>
    <g>
      <g>
        <polygon class="cls-4" points="1779.6359 163.1334 1712.9651 349.6689 1749.5936 392.8114 1816.2661 206.2778 1779.6359 163.1334"/>
        <polygon class="cls-12" points="1779.6359 163.1334 1712.9651 349.6689 1713.4781 350.2732 1780.2933 163.9076 1779.6359 163.1334"/>
        <polygon class="cls-4" points="1573.7623 375.0421 1712.9651 349.6689 1749.5936 392.8114 1610.3907 418.1846 1573.7623 375.0421"/>
        <polygon class="cls-4" points="1779.6359 163.1334 1712.9651 349.6689 1573.7623 375.0421 1640.4376 188.5075 1779.6359 163.1334"/>
        <polygon class="cls-16" points="1602.3367 295.1018 1741.5213 269.7626 1751.0619 243.0769 1611.8607 268.4509 1602.3367 295.1018"/>
        <polygon class="cls-16" points="1723.9543 173.2821 1657.3133 359.8554 1629.4308 364.9288 1696.1113 178.3562 1723.9543 173.2821"/>
      </g>
      <polygon class="cls-19" points="1657.3119 359.8227 1675.5835 381.3977 1647.7431 386.4746 1629.4319 364.9076 1657.3119 359.8227"/>
      <g>
        <g>
          <path class="cls-17" d="M1770.4021,252.1035c-2.6306-4.2442-3.0542-12.0041-.8442-18.187.0069-.0192.014-.0392.0214-.0578.2623-.7297.5514-1.4061.8624-2.0283.2472-.4963.5082-.9578.7812-1.3834.9188-1.4365,1.9672-2.4647,3.0566-3.0427,1.5951-.8441,3.2778-.7233,4.7714.5018l-4.1457,11.5987,8.8536,10.4281c.5351.6303,1.1967.51,1.4749-.2682s.0693-1.9247-.4658-2.555l-.3096-.3646c-.1896-.2234-.2634-.6281-.1648-.9041s.3323-.3185.522-.0952l.3096.3646c.9138,1.0763,1.2706,3.0336.7954,4.3631-.4751,1.3291-1.605,1.5348-2.5188.4585l-8.8536-10.4281-4.146,11.5994Z"/>
          <path class="cls-17" d="M1760.9919,245.7188l11.3361-31.7157,21.7984,25.675-11.3361,31.7157-21.7984-25.675ZM1772.7337,216.2285l-10.457,29.2561,20.1079,23.6839,10.457-29.2561-20.1079-23.6839Z"/>
        </g>
        <g>
          <path class="cls-17" d="M1748.6765,280.1745l11.3361-31.7157,21.7984,25.675-11.3361,31.7157-21.7984-25.675ZM1760.4183,250.6842l-10.457,29.2561,20.1079,23.6839,10.457-29.2561-20.1079-23.6839Z"/>
          <g>
            <path class="cls-17" d="M1755.4164,273.9286l5.4984,6.4762c1.793,2.1119,4.023,1.7053,4.9557-.9042l.7091-1.9838c.9324-2.6087.2286-6.472-1.5644-8.5838l-5.4984-6.4762-2.0742,5.8032,2.0644.6196-.8819,2.4673,6.1303,2.4486-7.4977-.9878.9-2.518-1.4778.1041-1.2635,3.5349Z"/>
            <polygon class="cls-17" points="1771.851 286.4001 1772.4783 284.6451 1765.5903 276.5322 1764.963 278.2872 1771.851 286.4001"/>
            <polygon class="cls-17" points="1771.6052 284.8637 1775.071 280.3798 1770.8707 292.1312 1771.6052 284.8637"/>
          </g>
        </g>
        <g>
          <path class="cls-17" d="M1736.4762,314.3081l11.3361-31.7157,21.7984,25.675-11.3361,31.7157-21.7984-25.675ZM1748.2179,284.8178l-10.457,29.2561,20.1079,23.6839,10.457-29.2561-20.1079-23.6839Z"/>
          <path class="cls-17" d="M1745.3559,302.0631l19.9938,5.5271-9.1521,25.6053-10.8417-31.1323ZM1747.3809,304.4651l8.7148,25.0249,7.3566-20.5821-16.0715-4.4427Z"/>
          <path class="cls-17" d="M1758.4682,317.6773c-.2401.6719-.7399.6932-1.1889.1644-.4618-.5439-.6419-1.366-.4017-2.0379.2268-.6345.7271-.7083,1.1889-.1644.449.5288.6352,1.3846.4017,2.0378ZM1755.6117,315.2145l-6.2506-6.9909.6404-1.7917,6.0638,7.5135-.4536,1.2691Z"/>
        </g>
        <g>
          <path class="cls-17" d="M1724.2449,348.5282l11.3361-31.7157,21.7984,25.675-11.3361,31.7157-21.7984-25.675ZM1735.9867,319.0379l-10.457,29.2561,20.1079,23.6839,10.457-29.2561-20.1079-23.6839Z"/>
          <g>
            <polygon class="cls-17" points="1745.3508 365.4412 1752.6893 344.9096 1750.6189 342.471 1743.2804 363.0026 1745.3508 365.4412"/>
            <g>
              <polygon class="cls-17" points="1743.0165 358.3256 1743.8665 355.9475 1733.2965 343.4977 1732.4465 345.8759 1743.0165 358.3256"/>
              <polygon class="cls-17" points="1733.2604 349.8159 1735.6102 343.2416 1730.3515 342.1433 1733.2604 349.8159"/>
            </g>
            <g>
              <polygon class="cls-17" points="1747.1082 346.8781 1747.9582 344.4999 1737.3882 332.0502 1736.5382 334.4284 1747.1082 346.8781"/>
              <polygon class="cls-17" points="1737.3521 338.3683 1739.7019 331.7941 1734.4431 330.6957 1737.3521 338.3683"/>
            </g>
          </g>
        </g>
      </g>
      <polygon class="cls-14" points="1741.5213 269.7626 1759.8461 291.2924 1769.3725 264.6445 1751.0619 243.0769 1741.5213 269.7626"/>
    </g>
  </g>
</svg>