<?xml version="1.0" encoding="UTF-8"?>
<svg id="Layer_1" data-name="Layer 1" xmlns="http://www.w3.org/2000/svg" viewBox="0 0 516.4079 473.4623">
  <defs>
    <style>
      .cls-1, .cls-2, .cls-3, .cls-4 {
        fill: #000;
      }

      .cls-1, .cls-5, .cls-6 {
        stroke-width: 0px;
      }

      .cls-7 {
        stroke-width: 2.4153px;
      }

      .cls-7, .cls-2, .cls-8, .cls-3, .cls-4 {
        stroke: #000;
        stroke-miterlimit: 10;
      }

      .cls-7, .cls-8 {
        fill: none;
      }

      .cls-2 {
        fill-rule: evenodd;
        stroke-width: .5441px;
      }

      .cls-5 {
        fill: #b595e8;
      }

      .cls-8 {
        stroke-width: 2.4153px;
      }

      .cls-6 {
        fill: #fff;
      }

      .cls-3 {
        stroke-width: 2.891px;
      }

      .cls-4 {
        stroke-width: .8718px;
      }
    </style>
  </defs>
  <g>
    <rect class="cls-6" x="136.6356" y="128.5069" width="172.7778" height="192.2715" rx="39.8677" ry="39.8677"/>
    <path class="cls-1" d="M269.5456,130.034c21.1411,0,38.3406,17.1995,38.3406,38.3405v112.5361c0,21.1411-17.1995,38.3405-38.3406,38.3405h-93.0422c-21.1411,0-38.3406-17.1995-38.3406-38.3405v-112.5361c0-21.141,17.1995-38.3405,38.3406-38.3405h93.0422M269.5456,126.9794h-93.0422c-22.7673,0-41.3952,18.6278-41.3952,41.3951v112.5361c0,22.7673,18.6278,41.3951,41.3952,41.3951h93.0422c22.7673,0,41.3952-18.6278,41.3952-41.3951v-112.5361c0-22.7673-18.6278-41.3951-41.3952-41.3951h0Z"/>
  </g>
  <rect class="cls-5" x="6.9326" y="0" width="175.8325" height="96.1192" rx="29.0385" ry="29.0385"/>
  <path class="cls-1" d="M146.794,9.9177c14.8304,0,26.8957,12.0654,26.8957,26.8957v38.0422c0,14.8304-12.0654,26.8957-26.8957,26.8957H29.0385c-14.8304,0-26.8957-12.0654-26.8957-26.8957v-38.0422c0-14.8304,12.0654-26.8957,26.8957-26.8957h117.7555M146.794,7.7749H29.0385C13.0673,7.7749,0,20.8423,0,36.8134v38.0422c0,15.9712,13.0673,29.0385,29.0385,29.0385h117.7555c15.9712,0,29.0385-13.0673,29.0385-29.0385v-38.0422c0-15.9712-13.0673-29.0385-29.0385-29.0385h0Z"/>
  <rect class="cls-5" x="38.6214" y="372.404" width="130.3926" height="96.1192" rx="25.0064" ry="25.0064"/>
  <path class="cls-1" d="M136.5261,379.1884c12.7711,0,23.1611,10.39,23.1611,23.1611v46.1064c0,12.7711-10.39,23.1611-23.1611,23.1611H56.1463c-12.7711,0-23.1611-10.39-23.1611-23.1611v-46.1064c0-12.7711,10.39-23.1611,23.1611-23.1611h80.3798M136.5261,377.3431H56.1463c-13.7535,0-25.0064,11.2529-25.0064,25.0064v46.1064c0,13.7535,11.2529,25.0064,25.0064,25.0064h80.3798c13.7535,0,25.0064-11.2529,25.0064-25.0064v-46.1064c0-13.7535-11.2529-25.0064-25.0064-25.0064h0Z"/>
  <rect class="cls-5" x="386.0153" y="109.336" width="130.3926" height="164.666" rx="32.7301" ry="32.7301"/>
  <path class="cls-1" d="M467.3787,118.1721c16.7157,0,30.3149,13.5992,30.3149,30.315v99.2058c0,16.7157-13.5992,30.3149-30.3149,30.3149h-64.9323c-16.7157,0-30.315-13.5992-30.315-30.3149v-99.2058c0-16.7157,13.5992-30.315,30.315-30.315h64.9323M467.3787,115.7569h-64.9323c-18.0016,0-32.7302,14.7285-32.7302,32.7301v99.2058c0,18.0016,14.7286,32.7301,32.7302,32.7301h64.9323c18.0016,0,32.7301-14.7286,32.7301-32.7301v-99.2058c0-18.0016-14.7286-32.7301-32.7301-32.7301h0Z"/>
  <g>
    <path class="cls-7" d="M109.6018,109.4296c.2098,3.5815.9212,7.7674,2.6656,12.161,7.2898,18.3612,26.3839,24.6426,29.7734,25.697"/>
    <polygon class="cls-1" points="105.6793 114.3689 109.6416 110.1438 113.8644 114.1085 113.7538 110.6335 109.5311 106.6712 105.5688 110.8939 105.6793 114.3689"/>
  </g>
  <g>
    <path class="cls-7" d="M158.5533,373.5088c11.9592-1.3544,28.7998,12.3488,38.7486,14.2986,36.5628,7.1661,41.1829-52.247,46.1966-66.3755"/>
    <polygon class="cls-1" points="164.1159 376.5402 159.2568 373.3875 162.4124 368.5301 159.0117 369.2534 155.8584 374.1102 160.7152 377.2635 164.1159 376.5402"/>
  </g>
  <circle class="cls-3" cx="87.9162" cy="55.8346" r="18.6192"/>
  <path class="cls-1" d="M208.7748,163.0273l-1.4706,8.8179-.9897.3213c-.9633.3143-1.9355.6847-2.9133,1.108-.9713.4231-1.9025.8785-2.7867,1.3727l-.917.5078-7.287-4.8179-.1135-.0835c-.1471-.116-.3294-.1687-.5073-.1589v.0066c-.1744.013-.3509.0888-.4868.2298l-.0034-.0032-8.524,8.8477c-.1229.1275-.1925.2935-.2025.4652-.0136.1617.0291.3323.1372.4821l5.1925,7.2657-.4743.9283c-.4613.9083-.8824,1.8554-1.2697,2.8415-.394.9928-.722,1.9777-1.0011,2.9519l-.2849,1.0007-8.568,1.7484-.138.0224c-.1842.0231-.3473.1184-.4667.2557-.1163.1274-.1823.3033-.1787.5009l-.0033-.0032.231,12.2908c-.0001.1748.0687.3384.1766.4683.1111.1265.2643.216.4429.2457l8.8177,1.464.3214.9962c.3111.9601.6814,1.9324,1.108,2.9133.423.9648.8785,1.896,1.3726,2.7801l.5079.917-4.8211,7.2902-.0837.1136c-.1127.1438-.1621.3293-.149.5039l-.0065.0067c.0128.1678.0918.341.2362.4802l-.0065.0067,8.851,8.5206c.1275.1229.2903.1958.462.2058.1618.0135.3355-.0325.4819-.1373l7.2658-5.1924.9348.474c.9049.4583,1.8488.8828,2.8349,1.2701.996.3906,1.9778.722,2.9518,1.001l1.0008.285,1.7485,8.5679.0255.1348c.0232.1841.1152.3506.2525.4701.1306.113.3066.1789.501.1786l-.0033.0035,12.2907-.231c.178-.0032.3415-.0722.4715-.18.1233-.1077.2127-.2611.2425-.4396l1.4673-8.8211.993-.3182c.9633-.3143,1.9355-.6847,2.9133-1.108.9711-.4231,1.899-.8817,2.7865-1.3726l.9104-.5078,7.457,4.9234c.1435.0996.3189.1393.4867.1198.1579-.0162.318-.0948.4442-.2257l.0067.0065,8.5047-8.821c.1327-.131.2153-.2974.2287-.4723.0169-.1651-.0295-.3456-.1377-.4953l-5.1891-7.269.4708-.9315c.4616-.9016.8858-1.8522,1.2701-2.8349.3906-.9959.7252-1.9811,1.0009-2.9518l.2882-1.0041,8.5678-1.7485.1316-.0222c.1841-.0232.3539-.1185.4733-.2558.113-.1306.1789-.3066.1754-.4977h.0066s-.231-12.2909-.231-12.2909c-.0064-.1745-.0721-.3414-.1832-.4679-.1077-.1233-.2577-.2162-.4395-.2425l-8.8145-1.4674-.3248-.9929c-.3108-.9601-.678-1.9357-1.108-2.9134-.4197-.968-.8785-1.9024-1.3726-2.7867l-.5045-.9136,4.8179-7.2869.0834-.1202c.1128-.1438.1623-.3226.1491-.5038l.0065-.0067c-.013-.1679-.092-.3411-.2329-.477l.0032-.0033-8.8477-8.524c-.1275-.1229-.2936-.1924-.4653-.2091-.165-.0102-.3322.0358-.4787.1405l-7.2722,5.1925-.9316-.4709c-.9017-.4614-1.8522-.8858-2.8348-1.2699-.996-.3906-1.9811-.7254-2.952-1.001l-1.0006-.285-1.7519-8.5711-.0189-.1349c-.0232-.1842-.1185-.3538-.2558-.4733-.1307-.1129-.3066-.1789-.5009-.1722v-.0066s-12.2909.231-12.2909.231c-.1712.0032-.3382.0688-.4647.1799-.1265.1111-.216.2643-.2425.4396h0ZM204.2571,169.244l1.129-6.7713c.1629-1.0018.6746-1.8615,1.3854-2.4777.7236-.623,1.6561-.9994,2.6512-1.0176l12.2842-.2309.0065-.0067c1.0677-.0194,2.057.3712,2.814,1.0298.7403.6425,1.251,1.5429,1.3951,2.5687l1.3282,6.4859c.7691.2431,1.5222.5095,2.2559.796.7271.2867,1.4614.6061,2.1962.9521l5.5868-3.9883c.8232-.5919,1.7911-.837,2.7316-.7718.9506.0684,1.8775.4634,2.5956,1.1558l8.8477,8.524.0065-.0067c.7683.7408,1.1917,1.7187,1.2594,2.7228h.0066c.0673.9776-.2111,1.9782-.8387,2.8104l-3.6438,5.5119c.3724.7216.7186,1.4439,1.0316,2.16.3132.7227.6069,1.4656.8812,2.2286l6.7713,1.129c1.0018.163,1.8581.6714,2.4777,1.3854.623.7236.9959,1.6529,1.0141,2.648l.2375,12.284.0033.0032c.0197,1.0743-.371,2.0637-1.0296,2.8206-.6425.7337-1.5428,1.2511-2.5687,1.3951l-6.4859,1.3216c-.243.7758-.5094,1.5289-.796,2.2625-.2866.7271-.6061,1.4615-.9521,2.1962l3.9915,5.5835c.6056.8493.8479,1.8469.7601,2.8176-.0941.9774-.5252,1.9215-1.2706,2.6272l-8.4109,8.7237.0067.0065c-.6988.7248-1.6042,1.1401-2.5451,1.2432-.9539.1032-1.937-.1195-2.7612-.6682l-5.732-3.7849c-.7183.3758-1.4373.7185-2.1568,1.0283-.7225.3198-1.4687.6103-2.2285.8812l-1.1289,6.7779c-.1664.9985-.6714,1.8581-1.3887,2.4745-.7202.6263-1.6496.9991-2.6448,1.0174l-12.2841.2308-.0065.0067c-1.0742.0197-2.0604-.3744-2.8172-1.0263-.7371-.6458-1.2513-1.5495-1.3984-2.5719l-1.3217-6.4859c-.7724-.2397-1.5255-.5061-2.2558-.7961-.7304-.2833-1.4648-.6028-2.2028-.9519l-5.5835,3.9915c-.8199.5886-1.7911.837-2.7319.7651-.9506-.0683-1.8774-.4633-2.5921-1.1524l-8.8477-8.524-.0065.0067c-.7718-.7441-1.1916-1.7187-1.2628-2.7195l-.0065.0002c-.0674-.9779.211-1.9849.8386-2.8106l3.6438-5.5186c-.3758-.7183-.7185-1.4372-1.0282-2.1568-.3164-.7193-.6069-1.4655-.8813-2.2285l-6.7745-1.1257c-.9985-.1664-1.8584-.6781-2.4745-1.3887-.6263-.7202-1.0026-1.6529-1.0207-2.6481l-.2309-12.2842-.0032-.0031c-.0197-1.0742.371-2.0636,1.0264-2.8172.6424-.7403,1.546-1.2544,2.5719-1.3984l6.4826-1.3249c.243-.7691.5094-1.5222.796-2.2559.29-.7304.6029-1.4647.9554-2.1995l-3.9916-5.5835c-.5919-.8232-.837-1.7911-.7685-2.735.0684-.9507.4634-1.8775,1.1559-2.589l8.5206-8.851-.0034-.0032c.7473-.7751,1.7218-1.2016,2.7193-1.2693l.0033.0032c.9811-.064,1.9815.2077,2.8071.8355l5.5152,3.6406c.7216-.3725,1.4406-.7153,2.1567-1.0283.726-.3165,1.4689-.6102,2.2287-.8812h0ZM200.2827,187.5218c4.2831-4.4424,9.9636-6.7283,15.6806-6.836,5.7203-.1044,11.4772,1.9758,15.9197,6.259,4.4424,4.283,6.7314,9.9602,6.8326,15.6774.1044,5.7204-1.9726,11.4805-6.2557,15.9229-4.2832,4.4425-9.9635,6.7282-15.6807,6.8294-5.7171.1076-11.4772-1.9694-15.9195-6.2525-4.4425-4.2832-6.7283-9.9636-6.8328-15.6839-.1042-5.7138,1.9727-11.4738,6.2558-15.9163h0ZM216.0294,184.1291c-4.8407.0851-9.6475,2.022-13.2706,5.78-3.6232,3.7579-5.3801,8.6288-5.2885,13.4694.0884,4.8372,2.0219,9.6409,5.7799,13.264s8.629,5.38,13.4662,5.2918c4.8372-.0884,9.6408-2.022,13.2639-5.78,3.6232-3.7579,5.3834-8.6322,5.2952-13.4694-.0884-4.8373-2.022-9.6408-5.7799-13.264-3.7579-3.6232-8.6289-5.3801-13.4661-5.2919h0Z"/>
  <path class="cls-1" d="M218.9659,270.0445l1.795,6.2301,5.2712-.5115.5662.8697c.3189.4886.6537.9539.9979,1.3892.3543.4453.7279.8702,1.1209,1.275l.7324.7579-1.6753,5.0146,5.674,3.1333,3.3568-4.0795,1.0225.2155c.6022.1273,1.1643.2226,1.683.2824l.0065-.0067c.5614.0622,1.1291.0981,1.6961.1075l1.0418.0139,2.3675,4.7363,6.2301-1.7948-.5114-5.2647.8697-.5664c.4886-.3187.9539-.6537,1.3893-.9978.4452-.3541.8701-.7278,1.2781-1.1242l.7548-.7292,5.011,1.6721,3.1335-5.674-4.0762-3.3537.2186-1.0258c.1184-.5592.2103-1.1245.2693-1.6826.0655-.5649.1044-1.1359.1106-1.7063l.0173-1.0386,4.7364-2.3674-1.795-6.2301-5.2678.5149-.5665-.8699c-.3188-.4952-.6502-.9572-1.001-1.3925-.3508-.4419-.7212-.8702-1.1177-1.2784l-.7323-.7513,1.6753-5.0145-5.674-3.1333-3.3569,4.0793-1.0258-.2186c-.5626-.1216-1.1245-.2101-1.6827-.2757-.5649-.0591-1.1358-.098-1.7028-.1074l-1.0418-.0139-2.3643-4.7397-6.2333,1.7981.5149,5.268-.8732.5631c-.4886.3187-.9505.6502-1.3827.9976-.445.3543-.8767.7279-1.2815,1.1209l-.758.7326-5.011-1.6721-3.1366,5.6708,4.0826,3.36-.2185,1.0259c-.1183.5593-.2102,1.1247-.2727,1.6794l-.0065.0002c-.0596.5318-.0954,1.0993-.1009,1.7027l-.0205,1.0419-4.7364,2.3674ZM217.5424,277.4705l-1.939-6.7316-.0067-.0065c-.2219-.7706-.1306-1.5568.1966-2.2254l.0032-.0034c.305-.6318.8292-1.1622,1.506-1.4679l3.0312-1.5123c.0239-.3202.0509-.6437.0878-.9773l-.0033-.0032c.0368-.3269.0805-.6475.1305-.9682l-2.6971-2.2185c-.5824-.4772-.9469-1.1266-1.0815-1.8196-.1315-.7029-.0231-1.4466.3374-2.1026l3.3884-6.1402c.3861-.6959,1.0101-1.1885,1.7176-1.4322.6714-.233,1.4164-.2334,2.1132.024l3.207,1.0722c.2466-.2155.4967-.4211.75-.6236.26-.209.5201-.405.7804-.5943l-.3371-3.4712c-.0766-.7601.1278-1.4825.5226-2.0665.3981-.5873.9996-1.0368,1.7211-1.241l.0032.0031,6.7284-1.9424c.774-.2184,1.5634-.1307,2.2318.1901.6352.3082,1.1655.8325,1.4746,1.5123l1.5089,3.0282c.33.0202.6569.0506.9839.0874.3204.0371.6441.0773.9616.1309l2.2252-2.6973c.4771-.5823,1.1265-.947,1.8162-1.0782.7029-.138,1.4531-.0298,2.1025.3308l6.1368,3.3919c.7026.386,1.1952,1.0098,1.4389,1.7174.2266.6716.2336,1.4165-.0273,2.1102l-1.0687,3.2102c.212.2435.4176.4934.6202.7469.2058.2566.4049.52.5977.7834l3.468-.3402c.7568-.0731,1.4823.1278,2.0664.5227.5874.398,1.0369,1.0062,1.2444,1.7241l-.0065.0002,1.9423,6.7283.0067.0065c.2186.774.134,1.56-.1934,2.2285l-.0065.0067c-.3082.6287-.8325,1.1591-1.5059,1.468l-3.0281,1.5088c-.0203.3301-.0506.6569-.0874.9841-.0403.3236-.084.6442-.134.9649l2.6971,2.2185c.5992.4934.9673,1.1657,1.0926,1.882.1182.6966-.0033,1.4405-.3739,2.0868h0l-3.3664,6.0903c-.3637.6593-.9384,1.1346-1.5964,1.3937-.6611.2561-1.4154.2864-2.1218.052h0l-3.3164-1.1064c-.2433.2121-.49.4211-.7436.6234-.2632.2059-.52.4051-.7868.5944l.3371,3.4714c.0797.7567-.1247,1.479-.5194,2.0631-.3981.5873-1.0028,1.0401-1.7209,1.2477l-.0002-.0067-6.7349,1.9426c-.7738.2251-1.5666.1341-2.2351-.1932-.632-.3115-1.1591-.8327-1.4681-1.506l-1.5122-3.0313c-.3267-.0172-.6536-.0473-.9805-.0842v-.0066c-.3305-.0402-.651-.0837-.965-.1275l-2.2185,2.6973c-.4804.5855-1.1297.9501-1.8229,1.0783-.7029.138-1.4466.0296-2.1024-.3308l-6.1368-3.3919c-.6993-.3829-1.192-1.0067-1.4356-1.7142-.2299-.6749-.2336-1.4229.0272-2.1168l1.0721-3.2071c-.2155-.2466-.4243-.4932-.6234-.7433-.2091-.2599-.4084-.5233-.5978-.7835l-3.4779.3371v-.0066c-.7602.0766-1.4792-.1246-2.0566-.5196-.5874-.398-1.0368-.9996-1.2444-1.7177l.0032-.0033ZM253.3125,273.4619c-1.7996,3.2567-4.7521,5.473-8.0739,6.4267l-.0065.0067c-3.3151.9538-6.996.6419-10.256-1.1609-3.2564-1.7996-5.4761-4.7553-6.43-8.077-.9572-3.3184-.6454-6.9993,1.1574-10.2593,1.8031-3.2533,4.7555-5.4696,8.0739-6.4267l.0065-.0067c3.3151-.9538,6.9961-.6418,10.256,1.1609,3.2565,1.7997,5.4762,4.7554,6.4267,8.0739l.0067.0065c.9538,3.3151.642,6.9961-1.1609,10.256h0ZM244.292,276.5999c2.469-.7143,4.6671-2.3696,6.017-4.8037,1.3433-2.4275,1.5767-5.1743.8657-7.6466h0c-.7112-2.4725-2.3663-4.6705-4.7972-6.0172-2.434-1.3432-5.1773-1.5733-7.6532-.8656l.0032-.0034c-2.4724.7111-4.6704,2.3664-6.0169,4.8038-1.3434,2.4274-1.5768,5.1742-.8658,7.6465.7109,2.4658,2.3663,4.6705,4.7972,6.0172,2.4307,1.34,5.1774,1.5733,7.6497.8623l.0002.0067Z"/>
  <g>
    <path class="cls-8" d="M309.3143,226.9292s15.7797,33.7158,60.4701,34.0375"/>
    <polygon class="cls-1" points="364.9717 265.0353 369.0708 260.9426 364.9757 256.8458 368.4526 256.8475 372.5453 260.9443 368.4486 265.037 364.9717 265.0353"/>
  </g>
  <rect class="cls-4" x="412.5783" y="175.7557" width="44.6684" height="44.6684" rx="9.2988" ry="9.2988"/>
  <path class="cls-2" d="M93.899,405.8353l-16.8913,29.2565c-1.9266,3.337.4817,7.5082,4.3349,7.5082h33.7825c3.8532,0,6.2615-4.1712,4.3349-7.5082l-16.8913-29.2565c-1.9266-3.337-6.7431-3.337-8.6698,0Z"/>
</svg>