<?xml version="1.0" encoding="UTF-8"?>
<svg id="Layer_1" data-name="Layer 1" xmlns="http://www.w3.org/2000/svg" viewBox="0 0 451.7657 516.4842">
  <defs>
    <style>
      .cls-1 {
        fill: #b98e62;
      }

      .cls-1, .cls-2, .cls-3, .cls-4, .cls-5, .cls-6, .cls-7 {
        stroke-width: 0px;
      }

      .cls-2 {
        fill: #855c4c;
      }

      .cls-3 {
        fill: #89644b;
      }

      .cls-8 {
        fill-rule: evenodd;
      }

      .cls-8, .cls-9, .cls-10 {
        fill: none;
        stroke-miterlimit: 10;
      }

      .cls-8, .cls-10 {
        stroke: #4ad1a0;
        stroke-width: 11.3382px;
      }

      .cls-9 {
        stroke: #fff;
        stroke-linecap: round;
        stroke-width: 9.0908px;
      }

      .cls-4 {
        fill: #debb8d;
      }

      .cls-5 {
        fill: #ba905e;
      }

      .cls-6 {
        fill: #fff;
      }

      .cls-7 {
        fill: #987253;
      }
    </style>
  </defs>
  <g>
    <g>
      <polygon class="cls-7" points="84.3609 255.189 235.2174 342.2896 235.2136 516.4842 84.357 429.3891 84.3609 255.189"/>
      <polygon class="cls-3" points="84.3609 255.189 235.2174 342.2896 235.2174 343.9159 84.3609 257.273 84.3609 255.189"/>
      <polygon class="cls-1" points="386.0698 255.1923 235.2174 342.2896 235.2136 516.4842 386.0659 429.3869 386.0698 255.1923"/>
      <polygon class="cls-5" points="84.3609 255.189 235.2174 342.2896 386.07 255.1865 235.2134 168.0953 84.3609 255.189"/>
    </g>
    <polygon class="cls-2" points="235.2134 342.2892 386.07 255.1865 235.2134 168.0953 235.2134 342.2892"/>
    <polygon class="cls-4" points="84.3604 255.1898 0 264.9014 152.3542 180.1553 235.2134 168.0953 84.3604 255.1898"/>
    <polygon class="cls-4" points="235.2174 168.025 302.2494 154.3341 451.7657 242.4305 386.0757 255.115 235.2174 168.025"/>
    <polygon class="cls-4" points="235.2174 342.2896 386.0698 255.1923 445.7812 318.3376 285.4973 412.6542 235.2174 342.2896"/>
    <polygon class="cls-4" points="34.0709 316.9216 84.3617 255.1904 235.2174 342.2896 185.5976 402.6789 34.0709 316.9216"/>
  </g>
  <g>
    <path class="cls-9" d="M200.0566,309.751s4.6783-97.9595-33.7427-151.0397"/>
    <polygon class="cls-6" points="189.5914 163.3209 167.93 160.851 165.4727 182.5138 157.3243 172.2742 159.7872 150.6185 181.443 153.0813 189.5914 163.3209"/>
  </g>
  <path class="cls-8" d="M239.7586,156.274l-38.1698,66.112c-4.3536,7.5407,1.0884,16.9666,9.7957,16.9666h76.3396c8.7073,0,14.1493-9.4259,9.7957-16.9666l-38.1698-66.112c-4.3536-7.5407-15.2377-7.5407-19.5913,0Z"/>
  <circle class="cls-10" cx="117.6067" cy="111.6985" r="45.2714"/>
  <rect class="cls-10" x="330.492" y="5.6691" width="89.1846" height="89.1846" rx="18.5659" ry="18.5659"/>
  <g>
    <path class="cls-9" d="M235.7846,333.9233s43.2773-32.1566,34.4229-74.4742"/>
    <polygon class="cls-6" points="290.0195 272.4908 270.882 262.0471 260.4495 281.1908 256.7559 268.6368 267.1909 249.5018 286.3259 259.9367 290.0195 272.4908"/>
  </g>
  <g>
    <path class="cls-9" d="M301.78,287.7774s168.464-59.2865,79.9492-171.8012"/>
    <polygon class="cls-6" points="405.1027 120.1735 383.402 118.077 381.3181 139.7789 372.9946 129.681 375.0843 107.9861 396.7792 110.0757 405.1027 120.1735"/>
  </g>
</svg>