<?xml version="1.0" encoding="UTF-8"?>
<svg id="Layer_2" data-name="Layer 2" xmlns="http://www.w3.org/2000/svg" viewBox="0 0 2095.9968 1220.7803">
  <defs>
    <style>
      .cls-1 {
        fill: #b6dadd;
      }

      .cls-1, .cls-2, .cls-3, .cls-4, .cls-5 {
        stroke-width: 0px;
      }

      .cls-6, .cls-7, .cls-8, .cls-9, .cls-10 {
        stroke: #121216;
      }

      .cls-6, .cls-11, .cls-12, .cls-8, .cls-13 {
        stroke-miterlimit: 10;
      }

      .cls-6, .cls-11, .cls-8, .cls-13, .cls-10 {
        fill: none;
      }

      .cls-6, .cls-12 {
        stroke-width: 4.7044px;
      }

      .cls-2 {
        fill: #ddefbb;
      }

      .cls-7 {
        stroke-width: 1.5681px;
      }

      .cls-7, .cls-3, .cls-9 {
        fill: #121216;
      }

      .cls-7, .cls-9, .cls-10 {
        stroke-linejoin: round;
      }

      .cls-4 {
        fill: #ecf4df;
      }

      .cls-11 {
        stroke-width: 6.8619px;
      }

      .cls-11, .cls-13 {
        stroke: #5a6060;
      }

      .cls-5 {
        fill: #e6e6e6;
      }

      .cls-12 {
        fill: #b9b0d1;
        stroke: #353535;
      }

      .cls-8 {
        stroke-width: 3.1362px;
      }

      .cls-9, .cls-10 {
        stroke-width: 2.075px;
      }

      .cls-13 {
        stroke-width: 12.0377px;
      }
    </style>
  </defs>
  <path class="cls-2" d="M932.8753,361.7633s-54.1377-19.3431-141.7682,5.3259c-87.6305,24.669-154.6138,102.6251-154.6138,102.6251v502.0007s49.2935,174.8138,234.4011,131.3092,759.5854,105.6055,759.5854,105.6055c0,0,452.7432-126.0153,166.0588-347.9884-286.6844-221.9731-339.4022-408.1147-339.4022-408.1147,0,0-201.4012-97.4074-286.3778-93.7421s-237.8834,2.9789-237.8834,2.9789Z"/>
  <rect class="cls-12" x="891.2464" y="403.3682" width="317.3872" height="274.5373" rx="7.8415" ry="7.8415"/>
  <line class="cls-10" x1="1208.8926" y1="419.6391" x2="892.3697" y2="419.6391"/>
  <line class="cls-10" x1="1208.8926" y1="435.8238" x2="892.3697" y2="435.8238"/>
  <line class="cls-10" x1="1208.8926" y1="452.0086" x2="892.3697" y2="452.0086"/>
  <line class="cls-10" x1="1208.8926" y1="468.1933" x2="892.3697" y2="468.1933"/>
  <line class="cls-10" x1="1208.8926" y1="484.3781" x2="892.3697" y2="484.3781"/>
  <line class="cls-10" x1="1208.8926" y1="500.5628" x2="892.3697" y2="500.5628"/>
  <line class="cls-10" x1="1208.8926" y1="516.7476" x2="892.3697" y2="516.7476"/>
  <line class="cls-10" x1="1208.8926" y1="532.9323" x2="892.3697" y2="532.9323"/>
  <line class="cls-10" x1="1208.8926" y1="549.1171" x2="892.3697" y2="549.1171"/>
  <line class="cls-10" x1="1208.8926" y1="565.3018" x2="892.3697" y2="565.3018"/>
  <line class="cls-10" x1="1208.8926" y1="581.4866" x2="892.3697" y2="581.4866"/>
  <line class="cls-10" x1="1208.8926" y1="597.6714" x2="892.3697" y2="597.6714"/>
  <line class="cls-10" x1="1208.8926" y1="613.8561" x2="892.3697" y2="613.8561"/>
  <line class="cls-10" x1="1208.8926" y1="630.0409" x2="892.3697" y2="630.0409"/>
  <line class="cls-10" x1="1208.8926" y1="646.2256" x2="892.3697" y2="646.2256"/>
  <line class="cls-10" x1="1208.8926" y1="662.4104" x2="892.3697" y2="662.4104"/>
  <line class="cls-8" x1="933.0287" y1="680.3318" x2="1165.7332" y2="680.3318"/>
  <polygon class="cls-5" points="24.9521 293.8228 363.3225 288.1038 942.6072 554.8285 941.8303 690.7453 373.761 1179.5005 7.6696 1170.1993 24.9521 293.8228"/>
  <path class="cls-3" d="M60.1713,313.5975c3.4527,2.1283,308.4938,162.3358,308.4938,162.3358l-3.9615,38.2493L24.9521,321.951l35.2192-8.3536Z"/>
  <path class="cls-3" d="M31.8588,961.3895l331.4637,183.3409s-3.1075,35.3438-4.6612,34.763S31.8588,986.7672,31.8588,986.7672v-25.3777Z"/>
  <path class="cls-7" d="M13.9876,278.5342l360.3974-6.7454c7.563-.1416,13.7564,5.977,13.7068,13.5412l-6.0368,920.6126c-.0485,7.3966-6.0583,13.3671-13.455,13.3671h0c-7.4735,0-13.515-6.0903-13.4549-13.5636l7.0311-873.8665c.0607-7.5402-6.0859-13.6582-13.6257-13.5625l-299.2945,3.8006c-7.3518.0934-13.2675,6.0707-13.2844,13.4232l-2.01,870.3446c-.0171,7.419-6.0363,13.4242-13.4553,13.4242h-6.2668c-7.4312,0-13.4553-6.0242-13.4553-13.4553V291.9872c0-7.333,5.8718-13.3157,13.2035-13.453Z"/>
  <path class="cls-7" d="M676.8386,410.331h6.697c3.3361,0,6.0242,2.735,5.9665,6.0706l-9.1159,526.6938c-.0563,3.2549-2.711,5.8641-5.9665,5.8641h-5.6842c-3.3316,0-6.0179-2.728-5.9667-6.0592l8.103-526.6938c.0501-3.2595,2.7068-5.8756,5.9667-5.8756Z"/>
  <path class="cls-9" d="M375.491,585.8683l1.0199,17.1489c.508,8.5426-.9461,15.5369-3.2276,15.5242l-360.2494-2.0007c-2.2263-.0124-4.4083-6.7045-4.9041-15.0406l-.8656-14.5553c-.5074-8.5311.9422-15.5204,3.2197-15.5242l360.0952-.5929c2.2285-.0037,4.4155,6.6931,4.9119,15.0406Z"/>
  <path class="cls-9" d="M375.491,885.7394l1.0199,17.1489c.508,8.5426-.9461,15.5369-3.2276,15.5242l-360.2494-2.0007c-2.2263-.0124-4.4083-6.7045-4.9041-15.0406l-.8656-14.5553c-.5074-8.5311.9422-15.5204,3.2197-15.5242l360.0952-.5929c2.2285-.0037,4.4155,6.6931,4.9119,15.0406Z"/>
  <path class="cls-9" d="M375.491,1168.5755l1.0199,10.878c.508,8.5426-2.2172,25.2965-4.4987,25.2838l-360.2494-2.0007c-2.2263-.0124-3.1373-16.4641-3.633-24.8002l-.8656-14.5553c-.5074-8.5311.9422-15.5204,3.2197-15.5242l360.0952,5.6781c2.2285-.0037,4.4155,6.6931,4.9119,15.0406Z"/>
  <path class="cls-7" d="M787.3132,843.3055h3.5301c2.1607,0,3.9189-1.7392,3.9423-3.8998l4.0578-374.3341c.0238-2.194-1.7482-3.9852-3.9423-3.9852h-5.559c-2.169,0-3.9307,1.7521-3.9425,3.9211l-2.0289,374.3341c-.0118,2.1857,1.7567,3.9639,3.9425,3.9639Z"/>
  <path class="cls-7" d="M849.5235,780.6382h2.2866c1.6629,0,3.011-1.3481,3.011-3.011v-276.758c0-1.6629-1.3481-3.011-3.011-3.011h-4.3141c-1.6715,0-3.0232,1.3615-3.0109,3.0331l2.0275,276.758c.0121,1.6543,1.3566,2.9889,3.0109,2.9889Z"/>
  <rect class="cls-7" x="884.86" y="518.0568" width="7.2508" height="227.4913" rx="2.5032" ry="2.5032"/>
  <rect class="cls-7" x="916.4526" y="531.0046" width="3.1075" height="191.6275" rx=".7769" ry=".7769"/>
  <rect class="cls-7" x="940.7945" y="542.9165" width="3.6254" height="152.7841" rx=".8902" ry=".8902"/>
  <polygon class="cls-9" points="379.8606 350.9487 680.9753 461.0864 680.9753 416.546 380.4136 273.0919 379.8606 350.9487"/>
  <polygon class="cls-9" points="687.0176 420.6893 791.1071 471.4447 791.1071 504.0731 687.0176 461.0864 687.0176 420.6893"/>
  <polygon class="cls-9" points="796.297 473.5163 849.653 500.9657 849.653 525.3075 796.297 504.0731 796.297 473.5163"/>
  <polygon class="cls-9" points="852.5768 501.8288 888.4854 520.6463 888.4854 542.9165 851.0231 525.3075 852.5768 501.8288"/>
  <polygon class="cls-9" points="890.557 521.5095 916.4526 533.7668 918.0064 554.8285 890.557 542.9165 890.557 521.5095"/>
  <polyline class="cls-9" points="918.6969 534.2847 941.8303 545.8514 941.8303 567.0858 918.6969 554.8285 919.5601 534.2847"/>
  <path class="cls-4" d="M416.392,317.9152l-.7623,18.7177c-.0766,1.8822,1.0282,3.6126,2.7679,4.335l69.3762,28.8107c2.8089,1.1665,5.9414-.7345,6.2035-3.7647l1.2721-16.9692c.1623-1.8769-.8628-3.656-2.5681-4.4569l-69.886-30.5593c-2.9101-1.3667-6.2725.6742-6.4033,3.8865Z"/>
  <path class="cls-4" d="M523.7486,365.2031l-.6073,14.9119c-.0611,1.4995.8191,2.878,2.2051,3.4536l55.2701,22.9527c2.2378.9293,4.7334-.5852,4.9421-2.9992l1.0134-13.5189c.1293-1.4953-.6874-2.9127-2.0459-3.5507l-55.6763-24.3457c-2.3184-1.0888-4.9971.5371-5.1013,3.0963Z"/>
  <path class="cls-4" d="M614.927,406.0142l-.4671,11.4707c-.047,1.1534.6301,2.2139,1.6962,2.6566l42.5155,17.6559c1.7214.7149,3.641-.4501,3.8016-2.3071l.7796-10.3991c.0995-1.1502-.5287-2.2405-1.5738-2.7313l-42.8279-18.7275c-1.7834-.8375-3.8439.4131-3.9241,2.3818Z"/>
  <path class="cls-4" d="M706.2226,447.2895l-.3174,7.7932c-.0319.7837.4281,1.5041,1.1524,1.8049l28.8852,11.9955c1.1695.4857,2.4737-.3058,2.5829-1.5675l.5296-7.0652c.0676-.7815-.3592-1.5222-1.0692-1.8556l-29.0975-12.7235c-1.2116-.569-2.6116.2807-2.6661,1.6182Z"/>
  <path class="cls-4" d="M751.7447,467.6571l-.2634,6.469c-.0265.6505.3554,1.2485.9566,1.4982l23.9769,9.9572c.9708.4031,2.0534-.2539,2.144-1.3011l.4396-5.8647c.0561-.6487-.2982-1.2636-.8875-1.5403l-24.1531-10.5615c-1.0058-.4723-2.1678.233-2.213,1.3432Z"/>
  <path class="cls-4" d="M802.4098,492.4037l-.1736,4.2634c-.0175.4287.2342.8229.6305.9874l15.8022,6.5624c.6398.2657,1.3533-.1673,1.413-.8575l.2897-3.8652c.037-.4275-.1965-.8328-.5849-1.0152l-15.9183-6.9606c-.6629-.3113-1.4287.1536-1.4585.8853Z"/>
  <path class="cls-4" d="M827.3557,502.5678l-.1305,3.2035c-.0131.3221.176.6183.4737.7419l11.8737,4.9309c.4807.1996,1.0169-.1257,1.0617-.6443l.2177-2.9043c.0278-.3212-.1477-.6257-.4395-.7628l-11.961-5.2302c-.4981-.2339-1.0735.1154-1.0959.6652Z"/>
  <path class="cls-4" d="M859.2742,516.2992l-.1704,2.1099c-.0171.2122.0998.4125.293.5019l7.7033,3.5655c.3119.1444.6741-.0562.7174-.3971l.2201-1.9102c.0268-.2112-.0809-.4167-.2699-.5148l-7.753-3.7652c-.3224-.1674-.7112.0479-.7405.41Z"/>
  <path class="cls-4" d="M871.0503,521.931l-.1544,1.9114c-.0155.1922.0904.3737.2654.4547l6.9786,3.2301c.2826.1308.6107-.0509.6499-.3598l.1994-1.7305c.0243-.1913-.0733-.3775-.2445-.4664l-7.0236-3.411c-.2921-.1517-.6443.0434-.6708.3714Z"/>
  <path class="cls-4" d="M895.7672,533.7447l-.1203,1.4892c-.0121.1497.0704.2912.2068.3543l5.4369,2.5165c.2201.1019.4758-.0396.5063-.2803l.1553-1.3482c.0189-.1491-.0571-.2941-.1905-.3633l-5.4719-2.6574c-.2276-.1182-.502.0338-.5226.2894Z"/>
  <path class="cls-4" d="M906.1611,538.2068l-.0961,1.19c-.0097.1197.0563.2327.1652.2831l4.3447,2.011c.1759.0814.3802-.0317.4046-.224l.1241-1.0774c.0151-.1191-.0457-.235-.1522-.2903l-4.3727-2.1236c-.1818-.0944-.4011.027-.4176.2312Z"/>
  <path class="cls-4" d="M922.9905,546.6027l-.0891,1.1034c-.009.111.0522.2157.1532.2625l4.0286,1.8647c.1631.0755.3526-.0294.3752-.2077l.1151-.999c.014-.1104-.0423-.2179-.1411-.2692l-4.0546-1.9691c-.1686-.0876-.372.025-.3873.2144Z"/>
  <path class="cls-4" d="M931.2695,550.874l-.0697.8637c-.007.0868.0409.1689.1199.2055l3.1532,1.4595c.1277.0591.2759-.023.2936-.1626l.0901-.7819c.011-.0864-.0331-.1706-.1105-.2107l-3.1735-1.5412c-.132-.0685-.2911.0196-.3031.1678Z"/>
  <polygon class="cls-7" points="380.4136 569.1574 676.1356 578.6525 676.1356 607.8282 380.4136 617.4959 380.4136 569.1574"/>
  <polygon class="cls-7" points="680.9753 579.1704 789.3915 581.5873 789.3915 602.9943 680.9753 606.4471 680.9753 579.1704"/>
  <polygon class="cls-7" points="849.653 584.6948 849.653 599.8869 796.297 601.268 796.297 581.9326 849.653 584.6948"/>
  <polygon class="cls-7" points="852.361 584.9969 886.9316 586.6801 886.9316 599.8869 852.361 599.2395 852.361 584.9969"/>
  <polygon class="cls-7" points="890.557 586.6801 918.0064 587.457 918.0064 598.5058 890.0875 598.6532 890.557 586.6801"/>
  <polyline class="cls-7" points="918.6969 587.8022 941.8303 587.8022 941.8303 597.8152 919.3559 598.6532 918.6969 589.6581"/>
  <polygon class="cls-7" points="380.4136 870.6988 941.8303 634.328 941.8303 643.3915 380.4136 928.9337 380.4136 870.6988"/>
  <polygon class="cls-7" points="375.491 1157.1603 942.6072 686.5508 942.6072 693.4563 375.491 1211.0231 375.491 1157.1603"/>
  <path class="cls-4" d="M403.2018,587.4596v10.0594c0,3.1193,2.5287,5.6479,5.6479,5.6479h63.8014c3.1193,0,5.6479-2.5287,5.6479-5.6479v-8.9961c0-3.0826-2.4717-5.5958-5.5538-5.6471l-63.8014-1.0634c-3.1556-.0526-5.742,2.4911-5.742,5.6471Z"/>
  <path class="cls-4" d="M514.2313,588.8001v7.6429c0,2.3699,1.9212,4.2911,4.2911,4.2911h48.4746c2.3699,0,4.2911-1.9212,4.2911-4.2911v-6.835c0-2.3421-1.8779-4.2515-4.2196-4.2905l-48.4746-.8079c-2.3976-.04-4.3626,1.8926-4.3626,4.2905Z"/>
  <path class="cls-4" d="M592.4525,591.3814v6.2211c0,1.929,1.5638,3.4928,3.4928,3.4928h39.4567c1.929,0,3.4928-1.5638,3.4928-3.4928v-5.5634c0-1.9064-1.5286-3.4606-3.4346-3.4924l-39.4567-.6576c-1.9515-.0325-3.5511,1.5405-3.5511,3.4924Z"/>
  <path class="cls-4" d="M697.4282,591.3575l.1194,4.6321c.037,1.4363,1.2314,2.5707,2.6677,2.5336l29.3786-.7574c1.4363-.037,2.5707-1.2314,2.5336-2.6677l-.1068-4.1424c-.0366-1.4194-1.2046-2.5473-2.6244-2.5344l-29.3912.2678c-1.4537.0132-2.6145,1.2152-2.577,2.6685Z"/>
  <path class="cls-4" d="M745.4588,591.6876l.1388,3.7229c.043,1.1544,1.0138,2.0554,2.1682,2.0123l23.6125-.8804c1.1544-.043,2.0554-1.0138,2.0123-2.1682l-.1241-3.3294c-.0425-1.1408-.992-2.0369-2.1334-2.0133l-23.6272.4869c-1.1686.0241-2.0907,1.0012-2.0472,2.1692Z"/>
  <path class="cls-4" d="M802.5988,591.4817l.0865,2.3209c.0268.7197.632,1.2813,1.3517,1.2545l14.7204-.5489c.7197-.0268,1.2813-.632,1.2545-1.3517l-.0774-2.0756c-.0265-.7112-.6184-1.2698-1.33-1.2551l-14.7296.3035c-.7285.015-1.3034.6241-1.2762,1.3523Z"/>
  <path class="cls-4" d="M827.4166,590.8699l.0658,1.7656c.0204.5475.4808.9747,1.0283.9543l11.1981-.4175c.5475-.0204.9747-.4808.9543-1.0283l-.0589-1.5789c-.0202-.541-.4704-.966-1.0117-.9548l-11.205.2309c-.5542.0114-.9915.4748-.9709,1.0287Z"/>
  <path class="cls-4" d="M857.6511,591.2639l.0059,1.1826c.0018.3667.3006.6625.6673.6607l7.5007-.0376c.3667-.0018.6625-.3006.6607-.6673l-.0053-1.0576c-.0018-.3624-.2939-.6564-.6563-.6606l-7.5013-.0874c-.371-.0043-.6736.2962-.6717.6673Z"/>
  <path class="cls-4" d="M872.3641,591.4115l.0044.8858c.0014.2747.2252.4962.4998.4949l5.6183-.0282c.2747-.0014.4962-.2252.4949-.4998l-.004-.7922c-.0014-.2714-.2201-.4917-.4916-.4948l-5.6188-.0654c-.2779-.0032-.5045.2219-.5031.4998Z"/>
  <path class="cls-4" d="M895.2813,591.6509l.0038.7511c.0012.2329.1909.4208.4238.4196l4.7638-.0239c.2329-.0012.4208-.1909.4196-.4238l-.0034-.6717c-.0012-.2302-.1866-.4169-.4168-.4196l-4.7642-.0555c-.2356-.0027-.4278.1881-.4266.4238Z"/>
  <path class="cls-4" d="M905.8665,591.8061l.0028.5663c.0009.1756.1439.3172.3195.3164l3.5917-.018c.1756-.0009.3172-.1439.3164-.3195l-.0025-.5064c-.0009-.1735-.1407-.3143-.3142-.3163l-3.592-.0418c-.1777-.0021-.3225.1419-.3217.3195Z"/>
  <path class="cls-4" d="M924.6537,592.0567l.0026.5237c.0008.1624.1331.2934.2955.2926l3.3216-.0167c.1624-.0008.2934-.1331.2926-.2955l-.0024-.4683c-.0008-.1605-.1301-.2907-.2906-.2925l-3.3218-.0387c-.1643-.0019-.2983.1312-.2975.2955Z"/>
  <path class="cls-4" d="M932.8753,592.1865l.0013.2634c.0004.0817.1042.1474.2318.1467l2.6097-.0131c.1276-.0006.2307-.0674.2303-.149l-.0012-.2355c-.0004-.0807-.1018-.146-.2279-.1467l-2.6099-.0147c-.1291-.0007-.2345.0664-.2341.149Z"/>
  <rect class="cls-4" x="66.7301" y="290.771" width="98.7486" height="18.5882" rx="6.1866" ry="6.1866" transform="translate(-4.5715 1.8091) rotate(-.8755)"/>
  <rect class="cls-4" x="221.6923" y="288.4029" width="98.7486" height="18.5882" rx="6.1866" ry="6.1866" transform="translate(-4.5172 4.1767) rotate(-.8755)"/>
  <rect class="cls-4" x="67.5827" y="585.764" width="98.7486" height="18.5882" rx="6.1866" ry="6.1866"/>
  <rect class="cls-4" x="67.5827" y="886.4457" width="98.7486" height="18.5882" rx="6.1866" ry="6.1866"/>
  <rect class="cls-4" x="222.5449" y="886.4457" width="98.7486" height="18.5882" rx="6.1866" ry="6.1866"/>
  <rect class="cls-4" x="65.0123" y="1168.187" width="98.7486" height="18.5882" rx="6.1866" ry="6.1866"/>
  <rect class="cls-4" x="215.8313" y="1170.1993" width="98.7486" height="18.5882" rx="6.1866" ry="6.1866"/>
  <path class="cls-4" d="M403.2018,883.4957v12.4475c0,4.1926,4.3967,6.9321,8.1603,5.0844l63.9182-31.3803c1.8609-.9136,3.074-2.7708,3.1627-4.8419l.4905-11.446c.1824-4.2561-4.2222-7.1827-8.0751-5.3654l-64.4088,30.3787c-1.9828.9352-3.2479,2.9306-3.2479,5.1229Z"/>
  <path class="cls-4" d="M501.0871,838.6716v11.5449c0,3.8886,4.0779,6.4294,7.5685,4.7157l59.2831-29.1047c1.7259-.8473,2.8511-2.5698,2.9334-4.4908l.455-10.616c.1692-3.9474-3.916-6.6618-7.4896-4.9763l-59.7381,28.1758c-1.839.8674-3.0123,2.7181-3.0123,4.7514Z"/>
  <path class="cls-4" d="M592.2397,796.5116v9.8192c0,3.3073,3.4684,5.4684,6.4372,4.0108l50.4219-24.7543c1.4679-.7207,2.4249-2.1857,2.4949-3.8195l.387-9.0292c.1439-3.3574-3.3307-5.666-6.3701-4.2325l-50.8088,23.9643c-1.5641.7377-2.5621,2.3118-2.5621,4.0412Z"/>
  <path class="cls-4" d="M702.7791,746.4256v4.4091c0,1.4851,1.5574,2.4555,2.8905,1.801l22.6409-11.1154c.6592-.3236,1.0889-.9815,1.1203-1.7151l.1738-4.0544c.0646-1.5076-1.4956-2.5442-2.8604-1.9005l-22.8147,10.7607c-.7023.3313-1.1505,1.0381-1.1505,1.8146Z"/>
  <path class="cls-4" d="M749.0185,725.5776v4.0894c0,1.3774,1.4445,2.2774,2.6809,1.6704l20.9991-10.3094c.6114-.3001,1.0099-.9103,1.0391-1.5907l.1612-3.7604c.0599-1.3983-1.3871-2.3597-2.6529-1.7627l-21.1603,9.9803c-.6514.3072-1.067.9628-1.067,1.683Z"/>
  <path class="cls-4" d="M799.8027,703.7767v2.7106c0,.913.9574,1.5095,1.777,1.1072l13.9189-6.8334c.4052-.1989.6694-.6034.6887-1.0544l.1068-2.4925c.0397-.9268-.9194-1.5641-1.7585-1.1684l-14.0258,6.6153c-.4318.2036-.7073.6382-.7073,1.1156Z"/>
  <path class="cls-4" d="M828.2292,690.96v2.514c0,.8468.888,1.4001,1.6481,1.0269l12.9096-6.3379c.3758-.1845.6209-.5596.6388-.9779l.0991-2.3118c.0368-.8596-.8528-1.4507-1.6309-1.0837l-13.0087,6.1356c-.4005.1889-.656.5919-.656,1.0347Z"/>
  <path class="cls-4" d="M858.8087,677.0774v1.4946c0,.5034.5279.8324.9798.6105l7.675-3.768c.2234-.1097.3691-.3327.3798-.5814l.0589-1.3744c.0219-.511-.507-.8625-.9696-.6442l-7.7339,3.6477c-.2381.1123-.39.3519-.39.6151Z"/>
  <path class="cls-4" d="M874.4832,670.0103v1.3862c0,.4669.4897.772.9088.5662l7.1184-3.4947c.2072-.1017.3423-.3086.3522-.5392l.0546-1.2747c.0203-.474-.4702-.7999-.8993-.5975l-7.173,3.3832c-.2208.1042-.3617.3264-.3617.5705Z"/>
  <path class="cls-4" d="M895.7555,660.4328v1.0572c0,.3561.3734.5887.693.4318l5.4285-2.6651c.158-.0776.2611-.2353.2686-.4112l.0417-.9721c.0155-.3615-.3586-.61-.6858-.4557l-5.4702,2.58c-.1684.0794-.2758.2489-.2758.4351Z"/>
  <path class="cls-4" d="M906.8421,655.4341v.9805c0,.3303.3463.546.6428.4005l5.0349-2.4718c.1466-.072.2421-.2183.2491-.3814l.0386-.9016c.0144-.3353-.3326-.5658-.6361-.4226l-5.0735,2.3929c-.1562.0737-.2558.2308-.2558.4035Z"/>
  <path class="cls-4" d="M923.9817,646.9949v.8601c0,.2897.3038.479.5639.3513l4.4166-2.1683c.1286-.0631.2124-.1915.2185-.3346l.0339-.7909c.0126-.2941-.2917-.4963-.558-.3707l-4.4505,2.0991c-.137.0646-.2244.2025-.2244.354Z"/>
  <path class="cls-4" d="M933.0017,642.9281v.7977c0,.2687.2818.4443.523.3258l4.0963-2.0111c.1193-.0585.197-.1776.2027-.3103l.0314-.7335c.0117-.2728-.2706-.4603-.5175-.3439l-4.1278,1.9469c-.1271.0599-.2081.1878-.2081.3283Z"/>
  <path class="cls-4" d="M405.2734,1152.256v9.4798c0,3.6436,4.3337,5.5463,7.0161,3.0804l54.2988-49.9172c.8619-.7924,1.3524-1.9096,1.3524-3.0804v-9.8226c0-3.6504-4.3477-5.5504-7.0266-3.0707l-54.2988,50.2601c-.8556.7919-1.342,1.9049-1.342,3.0707Z"/>
  <path class="cls-4" d="M506.0936,1063.7526v8.1218c0,3.1217,3.7129,4.7518,6.011,2.6391l46.5205-42.7666c.7384-.6789,1.1587-1.6361,1.1587-2.6391v-8.4155c0-3.1275-3.7249-4.7553-6.02-2.6308l-46.5205,43.0603c-.733.6785-1.1497,1.632-1.1497,2.6308Z"/>
  <path class="cls-4" d="M595.6924,987.3305v7.26c0,2.7904,3.319,4.2476,5.3732,2.3591l41.5842-38.2286c.6601-.6068,1.0358-1.4625,1.0358-2.3591v-7.5226c0-2.7956-3.3296-4.2507-5.3813-2.3517l-41.5842,38.4912c-.6552.6065-1.0277,1.4588-1.0277,2.3517Z"/>
  <path class="cls-4" d="M696.2746,900.7956v4.4276c0,1.7018,2.0241,2.5905,3.2769,1.4387l25.3607-23.3143c.4026-.3701.6317-.8919.6317-1.4387v-4.5877c0-1.7049-2.0306-2.5924-3.2818-1.4342l-25.3607,23.4744c-.3996.3699-.6268.8897-.6268,1.4342Z"/>
  <path class="cls-4" d="M745.1195,859.134v3.9578c0,1.5212,1.8093,2.3156,2.9292,1.2861l22.6697-20.8404c.3599-.3308.5646-.7973.5646-1.2861v-4.1009c0-1.524-1.8151-2.3173-2.9336-1.282l-22.6697,20.9835c-.3572.3306-.5603.7953-.5603,1.282Z"/>
  <path class="cls-4" d="M801.9284,809.8266v2.3974c0,.9215,1.096,1.4026,1.7743.779l13.7319-12.6238c.218-.2004.342-.4829.342-.779v-2.4841c0-.9232-1.0995-1.4037-1.777-.7766l-13.7319,12.7105c-.2164.2003-.3394.4817-.3394.7766Z"/>
  <path class="cls-4" d="M828.3761,787.2684v2.143c0,.8237.9797,1.2538,1.5861.6964l12.2748-11.2843c.1948-.1791.3057-.4317.3057-.6964v-2.2205c0-.8252-.9828-1.2547-1.5884-.6942l-12.2748,11.3618c-.1934.179-.3034.4306-.3034.6942Z"/>
  <path class="cls-4" d="M858.7472,762.5307v1.434c0,.5512.6556.839,1.0614.466l8.214-7.5512c.1304-.1199.2046-.2889.2046-.466v-1.4859c0-.5522-.6577-.8396-1.0629-.4645l-8.214,7.603c-.1294.1198-.203.2882-.203.4645Z"/>
  <path class="cls-4" d="M874.5674,749.0371v1.2819c0,.4927.586.75.9487.4165l7.3424-6.7499c.1166-.1071.1829-.2582.1829-.4165v-1.3282c0-.4936-.5879-.7505-.9502-.4152l-7.3424,6.7963c-.1157.1071-.1815.2576-.1815.4152Z"/>
  <path class="cls-4" d="M896.8908,729.2521v.9617c0,.3696.4396.5626.7118.3125l5.5084-5.0639c.0874-.0804.1372-.1937.1372-.3125v-.9965c0-.3703-.4411-.5631-.7128-.3115l-5.5084,5.0986c-.0868.0803-.1361.1932-.1361.3115Z"/>
  <path class="cls-4" d="M907.4999,720.2032v.8596c0,.3304.393.5029.6362.2793l4.9239-4.5265c.0782-.0719.1226-.1732.1226-.2793v-.8907c0-.331-.3943-.5033-.6372-.2785l-4.9239,4.5576c-.0776.0718-.1217.1727-.1217.2785Z"/>
  <path class="cls-4" d="M924.1488,706.0133v.7969c0,.3063.3643.4662.5898.2589l4.5645-4.1962c.0725-.0666.1137-.1605.1137-.2589v-.8257c0-.3069-.3655-.4666-.5907-.2581l-4.5645,4.225c-.0719.0666-.1128.1601-.1128.2581Z"/>
  <path class="cls-4" d="M932.9402,698.5149v.7123c0,.2738.3257.4168.5272.2315l4.0802-3.7509c.0648-.0595.1016-.1435.1016-.2315v-.7381c0-.2743-.3267-.4171-.528-.2307l-4.0802,3.7767c-.0643.0595-.1008.1431-.1008.2307Z"/>
  <rect class="cls-4" x="369.5642" y="288.5303" width="10.3582" height="108.2436" rx="2.8485" ry="2.8485" transform="translate(2.5685 -2.7881) rotate(.4277)"/>
  <rect class="cls-4" x="368.5818" y="432.9917" width="10.3582" height="108.2436" rx="2.8485" ry="2.8485" transform="translate(3.6469 -2.7767) rotate(.4277)"/>
  <rect class="cls-4" x="368.5818" y="586.0667" width="10.3582" height="108.2436" rx="2.8485" ry="2.8485" transform="translate(4.7897 -2.7724) rotate(.4277)"/>
  <rect class="cls-4" x="367.439" y="739.1416" width="10.3582" height="108.2436" rx="2.8485" ry="2.8485" transform="translate(5.9324 -2.7596) rotate(.4277)"/>
  <rect class="cls-4" x="367.439" y="908.8408" width="10.3582" height="108.2436" rx="2.8485" ry="2.8485" transform="translate(7.1993 -2.7549) rotate(.4277)"/>
  <rect class="cls-4" x="367.439" y="1061.9397" width="10.3582" height="108.2436" rx="2.8485" ry="2.8485" transform="translate(8.3422 -2.7506) rotate(.4277)"/>
  <rect class="cls-4" x="14.3472" y="300.8473" width="10.3582" height="108.2436" rx="2.8485" ry="2.8485" transform="translate(2.6505 -.1359) rotate(.4277)"/>
  <rect class="cls-4" x="13.3648" y="445.3088" width="10.3582" height="108.2436" rx="2.8485" ry="2.8485" transform="translate(3.729 -.1245) rotate(.4277)"/>
  <rect class="cls-4" x="13.3648" y="598.3837" width="10.3582" height="108.2436" rx="2.8485" ry="2.8485" transform="translate(4.8717 -.1203) rotate(.4277)"/>
  <rect class="cls-4" x="12.2221" y="751.4587" width="10.3582" height="108.2436" rx="2.8485" ry="2.8485" transform="translate(6.0144 -.1075) rotate(.4277)"/>
  <rect class="cls-4" x="12.2221" y="921.1578" width="10.3582" height="108.2436" rx="2.8485" ry="2.8485" transform="translate(7.2813 -.1027) rotate(.4277)"/>
  <rect class="cls-4" x="12.2221" y="1074.2568" width="10.3582" height="108.2436" rx="2.8485" ry="2.8485" transform="translate(8.4243 -.0985) rotate(.4277)"/>
  <rect class="cls-4" x="227.0335" y="586.0637" width="98.7486" height="18.5882" rx="6.1866" ry="6.1866"/>
  <polygon class="cls-3" points="31.8588 704.2993 368.2965 711.3912 364.7036 743.2497 27.7155 733.6558 31.8588 704.2993"/>
  <polygon class="cls-3" points="352.2737 495.5377 27.7155 693.1085 27.7155 719.8539 368.2965 525.3075 352.2737 495.5377"/>
  <polygon class="cls-3" points="362.2867 733.6558 27.7155 955.1746 27.7155 997.8013 363.3225 768.0048 362.2867 733.6558"/>
  <polygon class="cls-5" points="2071.0447 294.5092 1732.6743 288.7903 1153.3896 555.515 1154.1665 691.4318 1722.2359 1180.187 2088.3273 1170.8858 2071.0447 294.5092"/>
  <path class="cls-3" d="M2035.8255,314.2839c-3.4527,2.1283-308.4938,162.3358-308.4938,162.3358l3.9615,38.2493,339.7515-192.2315-35.2192-8.3536Z"/>
  <path class="cls-3" d="M2064.1381,962.076l-331.4637,183.3409s3.1075,35.3438,4.6612,34.763,326.8025-192.7262,326.8025-192.7262v-25.3777Z"/>
  <path class="cls-7" d="M2082.0092,279.2207l-360.3974-6.7454c-7.563-.1416-13.7564,5.977-13.7068,13.5412l6.0368,920.6126c.0485,7.3966,6.0583,13.3671,13.455,13.3671h0c7.4735,0,13.515-6.0903,13.4549-13.5636l-7.0311-873.8665c-.0607-7.5402,6.0859-13.6582,13.6257-13.5625l299.2945,3.8006c7.3518.0934,13.2675,6.0707,13.2844,13.4232l2.01,870.3446c.0171,7.419,6.0363,13.4242,13.4553,13.4242h6.2668c7.4312,0,13.4553-6.0242,13.4553-13.4553V292.6737c0-7.333-5.8718-13.3157-13.2035-13.453Z"/>
  <path class="cls-7" d="M1419.1583,411.0175h-6.697c-3.3361,0-6.0242,2.735-5.9665,6.0706l9.1159,526.6938c.0563,3.2549,2.711,5.8641,5.9665,5.8641h5.6842c3.3316,0,6.0179-2.728,5.9667-6.0592l-8.103-526.6938c-.0501-3.2595-2.7068-5.8756-5.9667-5.8756Z"/>
  <path class="cls-9" d="M1720.5059,586.5548l-1.0199,17.1489c-.508,8.5426.9461,15.5369,3.2276,15.5242l360.2494-2.0007c2.2263-.0124,4.4083-6.7045,4.9041-15.0406l.8656-14.5553c.5074-8.5311-.9422-15.5204-3.2197-15.5242l-360.0952-.5929c-2.2285-.0037-4.4155,6.6931-4.9119,15.0406Z"/>
  <path class="cls-9" d="M1720.5059,886.4259l-1.0199,17.1489c-.508,8.5426.9461,15.5369,3.2276,15.5242l360.2494-2.0007c2.2263-.0124,4.4083-6.7045,4.9041-15.0406l.8656-14.5553c.5074-8.5311-.9422-15.5204-3.2197-15.5242l-360.0952-.5929c-2.2285-.0037-4.4155,6.6931-4.9119,15.0406Z"/>
  <path class="cls-9" d="M1720.5059,1169.262l-1.0199,10.878c-.508,8.5426,2.2172,25.2965,4.4987,25.2838l360.2494-2.0007c2.2263-.0124,3.1373-16.4641,3.633-24.8002l.8656-14.5553c.5074-8.5311-.9422-15.5204-3.2197-15.5242l-360.0952,5.6781c-2.2285-.0037-4.4155,6.6931-4.9119,15.0406Z"/>
  <path class="cls-7" d="M1308.6837,843.992h-3.5301c-2.1607,0-3.9189-1.7392-3.9423-3.8998l-4.0578-374.3341c-.0238-2.194,1.7482-3.9852,3.9423-3.9852h5.559c2.169,0,3.9307,1.7521,3.9425,3.9211l2.0289,374.3341c.0118,2.1857-1.7567,3.9639-3.9425,3.9639Z"/>
  <path class="cls-7" d="M1246.4733,781.3247h-2.2866c-1.6629,0-3.011-1.3481-3.011-3.011v-276.758c0-1.6629,1.3481-3.011,3.011-3.011h4.3141c1.6715,0,3.0232,1.3615,3.0109,3.0331l-2.0275,276.758c-.0121,1.6543-1.3566,2.9889-3.0109,2.9889Z"/>
  <rect class="cls-7" x="1203.8861" y="518.7432" width="7.2508" height="227.4913" rx="2.5032" ry="2.5032"/>
  <rect class="cls-7" x="1176.4367" y="531.691" width="3.1075" height="191.6275" rx=".7769" ry=".7769"/>
  <rect class="cls-7" x="1151.577" y="543.603" width="3.6254" height="152.7841" rx=".8902" ry=".8902"/>
  <polygon class="cls-9" points="1716.1362 351.6352 1415.0216 461.7729 1415.0216 417.2325 1715.5832 273.7784 1716.1362 351.6352"/>
  <polygon class="cls-9" points="1408.9793 421.3758 1304.8897 472.1311 1304.8897 504.7596 1408.9793 461.7729 1408.9793 421.3758"/>
  <polygon class="cls-9" points="1299.6998 474.2028 1246.3438 501.6521 1246.3438 525.994 1299.6998 504.7596 1299.6998 474.2028"/>
  <polygon class="cls-9" points="1243.42 502.5153 1207.5115 521.3328 1207.5115 543.603 1244.9738 525.994 1243.42 502.5153"/>
  <polygon class="cls-9" points="1205.4398 522.196 1179.5442 534.4532 1177.9905 555.515 1205.4398 543.603 1205.4398 522.196"/>
  <polyline class="cls-9" points="1177.2999 534.9711 1154.1665 546.5379 1154.1665 567.7722 1177.2999 555.515 1176.4367 534.9711"/>
  <path class="cls-4" d="M1679.6048,318.6017l.7623,18.7177c.0766,1.8822-1.0282,3.6126-2.7679,4.335l-69.3762,28.8107c-2.8089,1.1665-5.9414-.7345-6.2035-3.7647l-1.2721-16.9692c-.1623-1.8769.8628-3.656,2.5681-4.4569l69.886-30.5593c2.9101-1.3667,6.2725.6742,6.4033,3.8865Z"/>
  <path class="cls-4" d="M1572.2483,365.8896l.6073,14.9119c.0611,1.4995-.8191,2.878-2.2051,3.4536l-55.2701,22.9527c-2.2378.9293-4.7334-.5852-4.9421-2.9992l-1.0134-13.5189c-.1293-1.4953.6874-2.9127,2.0459-3.5507l55.6763-24.3457c2.3184-1.0888,4.9971.5371,5.1013,3.0963Z"/>
  <path class="cls-4" d="M1481.0699,406.7007l.4671,11.4707c.047,1.1534-.6301,2.2139-1.6962,2.6566l-42.5155,17.6559c-1.7214.7149-3.641-.4501-3.8016-2.3071l-.7796-10.3991c-.0995-1.1502.5287-2.2405,1.5738-2.7313l42.8279-18.7275c1.7834-.8375,3.8439.4131,3.9241,2.3818Z"/>
  <path class="cls-4" d="M1389.7742,447.9759l.3174,7.7932c.0319.7837-.4281,1.5041-1.1524,1.8049l-28.8852,11.9955c-1.1695.4857-2.4737-.3058-2.5829-1.5675l-.5296-7.0652c-.0676-.7815.3592-1.5222,1.0692-1.8556l29.0975-12.7235c1.2116-.569,2.6116.2807,2.6661,1.6182Z"/>
  <path class="cls-4" d="M1344.2521,468.3436l.2634,6.469c.0265.6505-.3554,1.2485-.9566,1.4982l-23.9769,9.9572c-.9708.4031-2.0534-.2539-2.144-1.3011l-.4396-5.8647c-.0561-.6487.2982-1.2636.8875-1.5403l24.1531-10.5615c1.0058-.4723,2.1678.233,2.213,1.3432Z"/>
  <path class="cls-4" d="M1293.587,493.0902l.1736,4.2634c.0175.4287-.2342.8229-.6305.9874l-15.8022,6.5624c-.6398.2657-1.3533-.1673-1.413-.8575l-.2897-3.8652c-.037-.4275.1965-.8328.5849-1.0152l15.9183-6.9606c.6629-.3113,1.4287.1536,1.4585.8853Z"/>
  <path class="cls-4" d="M1268.6411,503.2543l.1305,3.2035c.0131.3221-.176.6183-.4737.7419l-11.8737,4.9309c-.4807.1996-1.0169-.1257-1.0617-.6443l-.2177-2.9043c-.0278-.3212.1477-.6257.4395-.7628l11.961-5.2302c.4981-.2339,1.0735.1154,1.0959.6652Z"/>
  <path class="cls-4" d="M1236.7227,516.9857l.1704,2.1099c.0171.2122-.0998.4125-.293.5019l-7.7033,3.5655c-.3119.1444-.6741-.0562-.7174-.3971l-.2201-1.9102c-.0268-.2112.0809-.4167.2699-.5148l7.753-3.7652c.3224-.1674.7112.0479.7405.41Z"/>
  <path class="cls-4" d="M1224.9465,522.6175l.1544,1.9114c.0155.1922-.0904.3737-.2654.4547l-6.9786,3.2301c-.2826.1308-.6107-.0509-.6499-.3598l-.1994-1.7305c-.0243-.1913.0733-.3775.2445-.4664l7.0236-3.411c.2921-.1517.6443.0434.6708.3714Z"/>
  <path class="cls-4" d="M1200.2296,534.4312l.1203,1.4892c.0121.1497-.0704.2912-.2068.3543l-5.4369,2.5165c-.2201.1019-.4758-.0396-.5063-.2803l-.1553-1.3482c-.0189-.1491.0571-.2941.1905-.3633l5.4719-2.6574c.2276-.1182.502.0338.5226.2894Z"/>
  <path class="cls-4" d="M1189.8357,538.8933l.0961,1.19c.0097.1197-.0563.2327-.1652.2831l-4.3447,2.011c-.1759.0814-.3802-.0317-.4046-.224l-.1241-1.0774c-.0151-.1191.0457-.235.1522-.2903l4.3727-2.1236c.1818-.0944.4011.027.4176.2312Z"/>
  <path class="cls-4" d="M1173.0063,547.2892l.0891,1.1034c.009.111-.0522.2157-.1532.2625l-4.0286,1.8647c-.1631.0755-.3526-.0294-.3752-.2077l-.1151-.999c-.014-.1104.0423-.2179.1411-.2692l4.0546-1.9691c.1686-.0876.372.025.3873.2144Z"/>
  <path class="cls-4" d="M1164.7273,551.5605l.0697.8637c.007.0868-.0409.1689-.1199.2055l-3.1532,1.4595c-.1277.0591-.2759-.023-.2936-.1626l-.0901-.7819c-.011-.0864.0331-.1706.1105-.2107l3.1735-1.5412c.132-.0685.2911.0196.3031.1678Z"/>
  <polygon class="cls-7" points="1715.5832 569.8439 1419.8612 579.339 1419.8612 608.5147 1715.5832 618.1824 1715.5832 569.8439"/>
  <polygon class="cls-7" points="1415.0216 579.8569 1306.6053 582.2738 1306.6053 603.6808 1415.0216 607.1336 1415.0216 579.8569"/>
  <polygon class="cls-7" points="1246.3438 585.3813 1246.3438 600.5733 1299.6998 601.9544 1299.6998 582.6191 1246.3438 585.3813"/>
  <polygon class="cls-7" points="1243.6358 585.6834 1209.0652 587.3666 1209.0652 600.5733 1243.6358 599.926 1243.6358 585.6834"/>
  <polygon class="cls-7" points="1205.4398 587.3666 1177.9905 588.1435 1177.9905 599.1922 1205.9093 599.3397 1205.4398 587.3666"/>
  <polyline class="cls-7" points="1177.2999 588.4887 1154.1665 588.4887 1154.1665 598.5017 1176.6409 599.3397 1177.2999 590.3446"/>
  <polygon class="cls-7" points="1715.5832 871.3853 1154.1665 635.0145 1154.1665 644.078 1715.5832 929.6202 1715.5832 871.3853"/>
  <polygon class="cls-7" points="1720.5059 1157.8468 1153.3896 687.2373 1153.3896 694.1428 1720.5059 1211.7096 1720.5059 1157.8468"/>
  <path class="cls-4" d="M1692.7951,588.1461v10.0594c0,3.1193-2.5287,5.6479-5.6479,5.6479h-63.8014c-3.1193,0-5.6479-2.5287-5.6479-5.6479v-8.9961c0-3.0826,2.4717-5.5958,5.5538-5.6471l63.8014-1.0634c3.1556-.0526,5.742,2.4911,5.742,5.6471Z"/>
  <path class="cls-4" d="M1581.7655,589.4866v7.6429c0,2.3699-1.9212,4.2911-4.2911,4.2911h-48.4746c-2.3699,0-4.2911-1.9212-4.2911-4.2911v-6.835c0-2.3421,1.8779-4.2515,4.2196-4.2905l48.4746-.8079c2.3976-.04,4.3626,1.8926,4.3626,4.2905Z"/>
  <path class="cls-4" d="M1503.5444,592.0679v6.2211c0,1.929-1.5638,3.4928-3.4928,3.4928h-39.4567c-1.929,0-3.4928-1.5638-3.4928-3.4928v-5.5634c0-1.9064,1.5286-3.4606,3.4346-3.4924l39.4567-.6576c1.9515-.0325,3.5511,1.5405,3.5511,3.4924Z"/>
  <path class="cls-4" d="M1398.5686,592.0439l-.1194,4.6321c-.037,1.4363-1.2314,2.5707-2.6677,2.5336l-29.3786-.7574c-1.4363-.037-2.5707-1.2314-2.5336-2.6677l.1068-4.1424c.0366-1.4194,1.2046-2.5473,2.6244-2.5344l29.3912.2678c1.4537.0132,2.6145,1.2152,2.577,2.6685Z"/>
  <path class="cls-4" d="M1350.538,592.3741l-.1388,3.7229c-.043,1.1544-1.0138,2.0554-2.1682,2.0123l-23.6125-.8804c-1.1544-.043-2.0554-1.0138-2.0123-2.1682l.1241-3.3294c.0425-1.1408.992-2.0369,2.1334-2.0133l23.6272.4869c1.1686.0241,2.0907,1.0012,2.0472,2.1692Z"/>
  <path class="cls-4" d="M1293.398,592.1682l-.0865,2.3209c-.0268.7197-.632,1.2813-1.3517,1.2545l-14.7204-.5489c-.7197-.0268-1.2813-.632-1.2545-1.3517l.0774-2.0756c.0265-.7112.6184-1.2698,1.33-1.2551l14.7296.3035c.7285.015,1.3034.6241,1.2762,1.3523Z"/>
  <path class="cls-4" d="M1268.5803,591.5564l-.0658,1.7656c-.0204.5475-.4808.9747-1.0283.9543l-11.1981-.4175c-.5475-.0204-.9747-.4808-.9543-1.0283l.0589-1.5789c.0202-.541.4704-.966,1.0117-.9548l11.205.2309c.5542.0114.9915.4748.9709,1.0287Z"/>
  <path class="cls-4" d="M1238.3457,591.9504l-.0059,1.1826c-.0018.3667-.3006.6625-.6673.6607l-7.5007-.0376c-.3667-.0018-.6625-.3006-.6607-.6673l.0053-1.0576c.0018-.3624.2939-.6564.6563-.6606l7.5013-.0874c.371-.0043.6736.2962.6717.6673Z"/>
  <path class="cls-4" d="M1223.6327,592.098l-.0044.8858c-.0014.2747-.2252.4962-.4998.4949l-5.6183-.0282c-.2747-.0014-.4962-.2252-.4949-.4998l.004-.7922c.0014-.2714.2201-.4917.4916-.4948l5.6188-.0654c.2779-.0032.5045.2219.5031.4998Z"/>
  <path class="cls-4" d="M1200.7155,592.3374l-.0038.7511c-.0012.2329-.1909.4208-.4238.4196l-4.7638-.0239c-.2329-.0012-.4208-.1909-.4196-.4238l.0034-.6717c.0012-.2302.1866-.4169.4168-.4196l4.7642-.0555c.2356-.0027.4278.1881.4266.4238Z"/>
  <path class="cls-4" d="M1190.1304,592.4925l-.0028.5663c-.0009.1756-.1439.3172-.3195.3164l-3.5917-.018c-.1756-.0009-.3172-.1439-.3164-.3195l.0025-.5064c.0009-.1735.1407-.3143.3142-.3163l3.592-.0418c.1777-.0021.3225.1419.3217.3195Z"/>
  <path class="cls-4" d="M1171.3432,592.7432l-.0026.5237c-.0008.1624-.1331.2934-.2955.2926l-3.3216-.0167c-.1624-.0008-.2934-.1331-.2926-.2955l.0024-.4683c.0008-.1605.1301-.2907.2906-.2925l3.3218-.0387c.1643-.0019.2983.1312.2975.2955Z"/>
  <path class="cls-4" d="M1163.1215,592.873l-.0013.2634c-.0004.0817-.1042.1474-.2318.1467l-2.6097-.0131c-.1276-.0006-.2307-.0674-.2303-.149l.0012-.2355c.0004-.0807.1018-.146.2279-.1467l2.6099-.0147c.1291-.0007.2345.0664.2341.149Z"/>
  <rect class="cls-4" x="1930.5182" y="291.4575" width="98.7486" height="18.5882" rx="6.1866" ry="6.1866" transform="translate(3954.9583 631.7212) rotate(-179.1245)"/>
  <rect class="cls-4" x="1775.556" y="289.0894" width="98.7486" height="18.5882" rx="6.1866" ry="6.1866" transform="translate(3645.0881 624.6173) rotate(-179.1245)"/>
  <rect class="cls-4" x="1929.6656" y="586.4505" width="98.7486" height="18.5882" rx="6.1866" ry="6.1866" transform="translate(3958.0797 1191.4892) rotate(-180)"/>
  <rect class="cls-4" x="1929.6656" y="887.1322" width="98.7486" height="18.5882" rx="6.1866" ry="6.1866" transform="translate(3958.0797 1792.8525) rotate(-180)"/>
  <rect class="cls-4" x="1774.7034" y="887.1322" width="98.7486" height="18.5882" rx="6.1866" ry="6.1866" transform="translate(3648.1553 1792.8525) rotate(-180)"/>
  <rect class="cls-4" x="1932.2359" y="1168.8735" width="98.7486" height="18.5882" rx="6.1866" ry="6.1866" transform="translate(3963.2205 2356.3352) rotate(-180)"/>
  <rect class="cls-4" x="1781.417" y="1170.8858" width="98.7486" height="18.5882" rx="6.1866" ry="6.1866" transform="translate(3661.5826 2360.3597) rotate(-180)"/>
  <path class="cls-4" d="M1692.7951,884.1822v12.4475c0,4.1926-4.3967,6.9321-8.1603,5.0844l-63.9182-31.3803c-1.8609-.9136-3.074-2.7708-3.1627-4.8419l-.4905-11.446c-.1824-4.2561,4.2222-7.1827,8.0751-5.3654l64.4088,30.3787c1.9828.9352,3.2479,2.9306,3.2479,5.1229Z"/>
  <path class="cls-4" d="M1594.9097,839.3581v11.5449c0,3.8886-4.0779,6.4294-7.5685,4.7157l-59.2831-29.1047c-1.7259-.8473-2.8511-2.5698-2.9334-4.4908l-.455-10.616c-.1692-3.9474,3.916-6.6618,7.4896-4.9763l59.7381,28.1758c1.839.8674,3.0123,2.7181,3.0123,4.7514Z"/>
  <path class="cls-4" d="M1503.7572,797.1981v9.8192c0,3.3073-3.4684,5.4684-6.4372,4.0108l-50.4219-24.7543c-1.4679-.7207-2.4249-2.1857-2.4949-3.8195l-.387-9.0292c-.1439-3.3574,3.3307-5.666,6.3701-4.2325l50.8088,23.9643c1.5641.7377,2.5621,2.3118,2.5621,4.0412Z"/>
  <path class="cls-4" d="M1393.2177,747.1121v4.4091c0,1.4851-1.5574,2.4555-2.8905,1.801l-22.6409-11.1154c-.6592-.3236-1.0889-.9815-1.1203-1.7151l-.1738-4.0544c-.0646-1.5076,1.4956-2.5442,2.8604-1.9005l22.8147,10.7607c.7023.3313,1.1505,1.0381,1.1505,1.8146Z"/>
  <path class="cls-4" d="M1346.9783,726.2641v4.0894c0,1.3774-1.4445,2.2774-2.6809,1.6704l-20.9991-10.3094c-.6114-.3001-1.0099-.9103-1.0391-1.5907l-.1612-3.7604c-.0599-1.3983,1.3871-2.3597,2.6529-1.7627l21.1603,9.9803c.6514.3072,1.067.9628,1.067,1.683Z"/>
  <path class="cls-4" d="M1296.1941,704.4632v2.7106c0,.913-.9574,1.5095-1.777,1.1072l-13.9189-6.8334c-.4052-.1989-.6694-.6034-.6887-1.0544l-.1068-2.4925c-.0397-.9268.9194-1.5641,1.7585-1.1684l14.0258,6.6153c.4318.2036.7073.6382.7073,1.1156Z"/>
  <path class="cls-4" d="M1267.7676,691.6465v2.514c0,.8468-.888,1.4001-1.6481,1.0269l-12.9096-6.3379c-.3758-.1845-.6209-.5596-.6388-.9779l-.0991-2.3118c-.0368-.8596.8528-1.4507,1.6309-1.0837l13.0087,6.1356c.4005.1889.656.5919.656,1.0347Z"/>
  <path class="cls-4" d="M1237.1882,677.7639v1.4946c0,.5034-.5279.8324-.9798.6105l-7.675-3.768c-.2234-.1097-.3691-.3327-.3798-.5814l-.0589-1.3744c-.0219-.511.507-.8625.9696-.6442l7.7339,3.6477c.2381.1123.39.3519.39.6151Z"/>
  <path class="cls-4" d="M1221.5137,670.6967v1.3862c0,.4669-.4897.772-.9088.5662l-7.1184-3.4947c-.2072-.1017-.3423-.3086-.3522-.5392l-.0546-1.2747c-.0203-.474.4702-.7999.8993-.5975l7.173,3.3832c.2208.1042.3617.3264.3617.5705Z"/>
  <path class="cls-4" d="M1200.2414,661.1192v1.0572c0,.3561-.3734.5887-.693.4318l-5.4285-2.6651c-.158-.0776-.2611-.2353-.2686-.4112l-.0417-.9721c-.0155-.3615.3586-.61.6858-.4557l5.4702,2.58c.1684.0794.2758.2489.2758.4351Z"/>
  <path class="cls-4" d="M1189.1548,656.1206v.9805c0,.3303-.3463.546-.6428.4005l-5.0349-2.4718c-.1466-.072-.2421-.2183-.2491-.3814l-.0386-.9016c-.0144-.3353.3326-.5658.6361-.4226l5.0735,2.3929c.1562.0737.2558.2308.2558.4035Z"/>
  <path class="cls-4" d="M1172.0151,647.6814v.8601c0,.2897-.3038.479-.5639.3513l-4.4166-2.1683c-.1286-.0631-.2124-.1915-.2185-.3346l-.0339-.7909c-.0126-.2941.2917-.4963.558-.3707l4.4505,2.0991c.137.0646.2244.2025.2244.354Z"/>
  <path class="cls-4" d="M1162.9952,643.6146v.7977c0,.2687-.2818.4443-.523.3258l-4.0963-2.0111c-.1193-.0585-.197-.1776-.2027-.3103l-.0314-.7335c-.0117-.2728.2706-.4603.5175-.3439l4.1278,1.9469c.1271.0599.2081.1878.2081.3283Z"/>
  <path class="cls-4" d="M1690.7234,1152.9425v9.4798c0,3.6436-4.3337,5.5463-7.0161,3.0804l-54.2988-49.9172c-.8619-.7924-1.3524-1.9096-1.3524-3.0804v-9.8226c0-3.6504,4.3477-5.5504,7.0266-3.0707l54.2988,50.2601c.8556.7919,1.342,1.9049,1.342,3.0707Z"/>
  <path class="cls-4" d="M1589.9032,1064.4391v8.1218c0,3.1217-3.7129,4.7518-6.011,2.6391l-46.5205-42.7666c-.7384-.6789-1.1587-1.6361-1.1587-2.6391v-8.4155c0-3.1275,3.7249-4.7553,6.02-2.6308l46.5205,43.0603c.733.6785,1.1497,1.632,1.1497,2.6308Z"/>
  <path class="cls-4" d="M1500.3044,988.017v7.26c0,2.7904-3.319,4.2476-5.3732,2.3591l-41.5842-38.2286c-.6601-.6068-1.0358-1.4625-1.0358-2.3591v-7.5226c0-2.7956,3.3296-4.2507,5.3813-2.3517l41.5842,38.4912c.6552.6065,1.0277,1.4588,1.0277,2.3517Z"/>
  <path class="cls-4" d="M1399.7223,901.4821v4.4276c0,1.7018-2.0241,2.5905-3.2769,1.4387l-25.3607-23.3143c-.4026-.3701-.6317-.8919-.6317-1.4387v-4.5877c0-1.7049,2.0306-2.5924,3.2818-1.4342l25.3607,23.4744c.3996.3699.6268.8897.6268,1.4342Z"/>
  <path class="cls-4" d="M1350.8773,859.8204v3.9578c0,1.5212-1.8093,2.3156-2.9292,1.2861l-22.6697-20.8404c-.3599-.3308-.5646-.7973-.5646-1.2861v-4.1009c0-1.524,1.8151-2.3173,2.9336-1.282l22.6697,20.9835c.3572.3306.5603.7953.5603,1.282Z"/>
  <path class="cls-4" d="M1294.0685,810.5131v2.3974c0,.9215-1.096,1.4026-1.7743.779l-13.7319-12.6238c-.218-.2004-.342-.4829-.342-.779v-2.4841c0-.9232,1.0995-1.4037,1.777-.7766l13.7319,12.7105c.2164.2003.3394.4817.3394.7766Z"/>
  <path class="cls-4" d="M1267.6207,787.9549v2.143c0,.8237-.9797,1.2538-1.5861.6964l-12.2748-11.2843c-.1948-.1791-.3057-.4317-.3057-.6964v-2.2205c0-.8252.9828-1.2547,1.5884-.6942l12.2748,11.3618c.1934.179.3034.4306.3034.6942Z"/>
  <path class="cls-4" d="M1237.2497,763.2172v1.434c0,.5512-.6556.839-1.0614.466l-8.214-7.5512c-.1304-.1199-.2046-.2889-.2046-.466v-1.4859c0-.5522.6577-.8396,1.0629-.4645l8.214,7.603c.1294.1198.203.2882.203.4645Z"/>
  <path class="cls-4" d="M1221.4294,749.7235v1.2819c0,.4927-.586.75-.9487.4165l-7.3424-6.7499c-.1166-.1071-.1829-.2582-.1829-.4165v-1.3282c0-.4936.5879-.7505.9502-.4152l7.3424,6.7963c.1157.1071.1815.2576.1815.4152Z"/>
  <path class="cls-4" d="M1199.1061,729.9386v.9617c0,.3696-.4396.5626-.7118.3125l-5.5084-5.0639c-.0874-.0804-.1372-.1937-.1372-.3125v-.9965c0-.3703.4411-.5631.7128-.3115l5.5084,5.0986c.0868.0803.1361.1932.1361.3115Z"/>
  <path class="cls-4" d="M1188.4969,720.8897v.8596c0,.3304-.393.5029-.6362.2793l-4.9239-4.5265c-.0782-.0719-.1226-.1732-.1226-.2793v-.8907c0-.331.3943-.5033.6372-.2785l4.9239,4.5576c.0776.0718.1217.1727.1217.2785Z"/>
  <path class="cls-4" d="M1171.848,706.6998v.7969c0,.3063-.3643.4662-.5898.2589l-4.5645-4.1962c-.0725-.0666-.1137-.1605-.1137-.2589v-.8257c0-.3069.3655-.4666.5907-.2581l4.5645,4.225c.0719.0666.1128.1601.1128.2581Z"/>
  <path class="cls-4" d="M1163.0567,699.2014v.7123c0,.2738-.3257.4168-.5272.2315l-4.0802-3.7509c-.0648-.0595-.1016-.1435-.1016-.2315v-.7381c0-.2743.3267-.4171.528-.2307l4.0802,3.7767c.0643.0595.1008.1431.1008.2307Z"/>
  <rect class="cls-4" x="1716.0744" y="289.2167" width="10.3582" height="108.2436" rx="2.8485" ry="2.8485" transform="translate(3445.0222 673.8177) rotate(179.5723)"/>
  <rect class="cls-4" x="1717.0568" y="433.6782" width="10.3582" height="108.2436" rx="2.8485" ry="2.8485" transform="translate(3448.0654 962.7293) rotate(179.5723)"/>
  <rect class="cls-4" x="1717.0568" y="586.7532" width="10.3582" height="108.2436" rx="2.8485" ry="2.8485" transform="translate(3449.2081 1268.8749) rotate(179.5723)"/>
  <rect class="cls-4" x="1718.1996" y="739.8281" width="10.3582" height="108.2436" rx="2.8485" ry="2.8485" transform="translate(3452.6365 1575.012) rotate(179.5723)"/>
  <rect class="cls-4" x="1718.1996" y="909.5272" width="10.3582" height="108.2436" rx="2.8485" ry="2.8485" transform="translate(3453.9033 1914.4056) rotate(179.5723)"/>
  <rect class="cls-4" x="1718.1996" y="1062.6262" width="10.3582" height="108.2436" rx="2.8485" ry="2.8485" transform="translate(3455.0463 2220.5992) rotate(179.5723)"/>
  <rect class="cls-4" x="2071.2914" y="301.5338" width="10.3582" height="108.2436" rx="2.8485" ry="2.8485" transform="translate(4155.5382 695.7997) rotate(179.5723)"/>
  <rect class="cls-4" x="2072.2737" y="445.9953" width="10.3582" height="108.2436" rx="2.8485" ry="2.8485" transform="translate(4158.5814 984.7113) rotate(179.5723)"/>
  <rect class="cls-4" x="2072.2737" y="599.0702" width="10.3582" height="108.2436" rx="2.8485" ry="2.8485" transform="translate(4159.7242 1290.8569) rotate(179.5723)"/>
  <rect class="cls-4" x="2073.4165" y="752.1451" width="10.3582" height="108.2436" rx="2.8485" ry="2.8485" transform="translate(4163.1525 1596.9939) rotate(179.5723)"/>
  <rect class="cls-4" x="2073.4165" y="921.8443" width="10.3582" height="108.2436" rx="2.8485" ry="2.8485" transform="translate(4164.4194 1936.3875) rotate(179.5723)"/>
  <rect class="cls-4" x="2073.4165" y="1074.9432" width="10.3582" height="108.2436" rx="2.8485" ry="2.8485" transform="translate(4165.5623 2242.5811) rotate(179.5723)"/>
  <rect class="cls-4" x="1770.2148" y="586.7502" width="98.7486" height="18.5882" rx="6.1866" ry="6.1866" transform="translate(3639.1781 1192.0886) rotate(-180)"/>
  <polygon class="cls-3" points="2064.1381 704.9858 1727.7003 712.0776 1731.2932 743.9362 2068.2813 734.3423 2064.1381 704.9858"/>
  <polygon class="cls-3" points="1743.7231 496.2242 2068.2813 693.795 2068.2813 720.5404 1727.7003 525.994 1743.7231 496.2242"/>
  <polygon class="cls-3" points="1733.7101 734.3423 2068.2813 955.861 2068.2813 998.4878 1732.6743 768.6913 1733.7101 734.3423"/>
  <line class="cls-6" x1="1051.8919" y1="341.6224" x2="1051.8919" y2="232.9318"/>
  <rect class="cls-3" x="918.0064" y="341.6224" width="264.8078" height="20.8274" rx="10.4137" ry="10.4137"/>
  <rect class="cls-5" x="935.0874" y="350.7258" width="230.6459" height="11.7239" rx="5.862" ry="5.862"/>
  <path class="cls-1" d="M711.187,501.3865s11.5466-40.5938,41.0547-24.4923c0,0,5.9872-50.6124,38.4888-20.6767,0,0,13.6849-85.1031,54.312-38.0612,0,0,35.4953-17.1061,23.9486,21.8103,0,0,46.1866-21.609,44.9036,12.7165,0,0,65.8587-11.9902,40.1994,19.0792,0,0,35.4953,24.7576,2.1383,29.6241h-245.0455Z"/>
  <path class="cls-1" d="M1153.6943,634.8288s5.822-41.8006,37.2733-29.9344c0,0-1.0695-50.9541,35.2597-25.8006,0,0,1.7846-86.1779,48.5267-45.2062,0,0,32.7886-21.8504,26.7346,18.2889,0,0,42.7545-27.7885,46.2307,6.3846,0,0,63.5678-20.9826,42.4516,13.3367,0,0,38.5779,19.6111,6.2144,29.0438l-242.6911,33.8871Z"/>
  <path class="cls-11" d="M652.7819,516.518h-.1675s16.2787-57.2296,57.8795-34.5295c0,0,8.4408-71.354,54.262-29.1502,0,0,19.2932-119.9793,76.5697-53.6591,0,0,50.0416-24.1164,33.763,30.7485,0,0,65.1145-30.4646,63.3057,17.9278,0,0,92.8483-16.9039,56.6736,26.8981,0,0,50.0416,34.9035,3.0146,41.7644h-302.3264"/>
  <path class="cls-11" d="M1084.0518,655.4535l-.1659.0232s8.208-58.9309,52.5484-42.2018c0,0-1.5078-71.8357,49.7095-36.374,0,0,2.5159-121.4945,68.4135-63.7323,0,0,46.2258-30.8049,37.6908,25.784,0,0,60.2759-39.1765,65.1767,9.0011,0,0,89.6186-29.5815,59.8488,18.8023,0,0,54.3876,27.6479,8.7612,40.9463l-299.4216,41.8085"/>
  <path class="cls-1" d="M594.9921,840.7793s20.256-71.2129,72.0215-42.9663c0,0,10.5031-88.7883,67.5201-36.2726,0,0,24.0072-149.2945,95.2784-66.7699,0,0,62.2686-30.009,42.0125,38.2614,0,0,81.0242-37.9082,78.7735,22.3082,0,0,115.5345-21.0342,70.521,33.4702,0,0,62.2686,43.4317,3.7511,51.969h-429.8783Z"/>
  <path class="cls-13" d="M468.99,859.7182h-.2939s28.5574-100.3967,101.5368-60.5743c0,0,14.8075-125.1748,95.1907-51.1376,0,0,33.8456-210.4771,134.3246-94.133,0,0,87.7869-42.307,59.2297,53.9414,0,0,114.2289-53.4434,111.0558,31.4504,0,0,162.8818-29.6542,99.4213,47.1867,0,0,87.7869,61.2305,5.2885,73.2665h-530.3649"/>
</svg>