<?xml version="1.0" encoding="UTF-8"?>
<svg id="Layer_1" data-name="Layer 1" xmlns="http://www.w3.org/2000/svg" viewBox="0 0 343.0661 336.7463">
  <defs>
    <style>
      .cls-1 {
        fill: #b98e62;
      }

      .cls-1, .cls-2, .cls-3, .cls-4, .cls-5, .cls-6, .cls-7, .cls-8, .cls-9, .cls-10, .cls-11 {
        stroke-width: 0px;
      }

      .cls-2 {
        fill: #d5c3a9;
      }

      .cls-2, .cls-8, .cls-9 {
        opacity: .8;
      }

      .cls-3 {
        fill: #855c4c;
      }

      .cls-4 {
        fill: #89644b;
      }

      .cls-5 {
        fill: #ebf3de;
      }

      .cls-6 {
        fill: #debb8d;
      }

      .cls-7 {
        fill: #ba905e;
      }

      .cls-8 {
        fill: #b49b84;
      }

      .cls-9 {
        fill: #e6d3b3;
      }

      .cls-10 {
        fill: #231f20;
      }

      .cls-11 {
        fill: #987253;
      }
    </style>
  </defs>
  <path class="cls-5" d="M343.0661,19.301v298.1443c0,10.6597-8.8035,19.301-19.6632,19.301H19.6632c-10.8597,0-19.6632-8.6414-19.6632-19.301V19.301C0,8.6414,8.8035,0,19.6632,0h303.7396c10.8597,0,19.6632,8.6414,19.6632,19.301Z"/>
  <g>
    <g>
      <polygon class="cls-11" points="11.2712 75.1752 131.5887 144.6405 131.5887 311.3572 11.2712 241.8919 11.2712 75.1752"/>
      <polygon class="cls-4" points="11.2712 75.1752 131.5887 144.6405 131.5887 145.4187 11.2712 76.1724 11.2712 75.1752"/>
      <polygon class="cls-1" points="251.9061 75.1752 131.5887 144.6405 131.5887 311.3572 251.9061 241.8919 251.9061 75.1752"/>
      <polygon class="cls-6" points="11.2712 75.1752 131.5887 144.6405 251.9061 75.1752 131.5887 5.7099 11.2712 75.1752"/>
      <polygon class="cls-9" points="203.7796 47.3878 83.4975 116.8749 59.398 102.9598 179.7148 33.4957 203.7796 47.3878"/>
    </g>
    <polygon class="cls-8" points="83.4975 116.8749 83.4628 172.4276 59.398 158.5317 59.398 102.9598 83.4975 116.8749"/>
    <polygon class="cls-8" points="83.4975 228.0196 83.4628 283.5723 59.398 269.6765 59.398 214.1045 83.4975 228.0196"/>
    <g>
      <g>
        <path class="cls-10" d="M199.1327,77.1181c-2.6224-2.2237-1.2227-5.9132,3.4902-8.6342.0146-.0085.0299-.0172.0451-.0254.5584-.321,1.1407-.6146,1.7401-.8808.4769-.2124.9644-.4073,1.4595-.5842,1.6674-.5974,3.4128-.9915,5.1002-1.1701,2.4701-.2605,4.8154-.0592,6.6094.6457l-8.8411,5.1044,9.8189,5.6689c.5935.3426,1.5588.3428,2.152.0003s.5934-.9001,0-1.2428l-.3433-.1982c-.2103-.1214-.2103-.3183,0-.4397s.5513-.1214.7617,0l.3433.1982c1.0134.5851,1.0135,1.5371,0,2.1223s-2.6619.5848-3.6753-.0003l-9.8189-5.6689-8.8417,5.1047Z"/>
        <path class="cls-10" d="M187.4868,73.3049l24.1753-13.9576,24.1752,13.9575-24.1753,13.9576-24.1752-13.9575ZM211.6621,60.4297l-22.3005,12.8752,22.3003,12.8751,22.3005-12.8752-22.3003-12.8751Z"/>
      </g>
      <g>
        <path class="cls-10" d="M161.2229,88.4684l24.1753-13.9576,24.1752,13.9575-24.1753,13.9576-24.1752-13.9575ZM185.3982,75.5932l-22.3005,12.8752,22.3003,12.8751,22.3005-12.8752-22.3003-12.8751Z"/>
        <g>
          <path class="cls-10" d="M172.3497,86.1064l6.0979,3.5206c1.9885,1.1481,5.2425,1.1481,7.2316-.0004l1.5122-.8731c1.9885-1.1481,1.9891-3.0271.0006-4.1752l-6.0979-3.5206-4.4235,2.5539,2.756.4688-1.8807,1.0858,8.0273,1.6788-10.3345-1.1085,1.9194-1.1082-2.1139-.0778-2.6945,1.5557Z"/>
          <polygon class="cls-10" points="192.3489 93.388 193.6867 92.6156 186.0477 88.2052 184.7099 88.9776 192.3489 93.388"/>
          <polygon class="cls-10" points="192.3974 92.6436 198.4465 90.8302 189.489 96.0018 192.3974 92.6436"/>
        </g>
      </g>
      <g>
        <path class="cls-10" d="M135.2045,103.4901l24.1753-13.9576,24.1752,13.9575-24.1753,13.9576-24.1752-13.9575ZM159.3798,90.6149l-22.3005,12.8752,22.3003,12.8751,22.3005-12.8752-22.3003-12.8751Z"/>
        <path class="cls-10" d="M150.8979,98.4877l26.8139,4.3178-19.5176,11.2685-7.2962-15.5863ZM153.1393,99.7922l5.8649,12.5286,15.6887-9.0579-21.5536-3.4707Z"/>
        <path class="cls-10" d="M165.396,106.9635c-.5121.2957-1.2234.2628-1.7214-.0246-.5121-.2957-.5548-.6982-.0427-.9938.4837-.2792,1.2092-.271,1.7214.0247.4979.2875.5406.7063.0427.9938ZM161.9959,105.559l-7.0277-3.8275,1.3657-.7885,6.6294,4.0574-.9674.5585Z"/>
      </g>
      <g>
        <path class="cls-10" d="M109.1203,118.5498l24.1753-13.9576,24.1752,13.9575-24.1753,13.9576-24.1752-13.9575ZM133.2956,105.6746l-22.3005,12.8752,22.3003,12.8751,22.3005-12.8752-22.3003-12.8751Z"/>
        <g>
          <polygon class="cls-10" points="134.5732 128.3231 150.2234 119.2874 147.9272 117.9618 132.2771 126.9974 134.5732 128.3231"/>
          <g>
            <polygon class="cls-10" points="133.1085 124.773 134.9213 123.7264 123.1988 116.9585 121.3861 118.0051 133.1085 124.773"/>
            <polygon class="cls-10" points="121.5212 119.9297 126.5324 117.0365 119.3883 116.0681 121.5212 119.9297"/>
          </g>
          <g>
            <polygon class="cls-10" points="141.8344 119.7351 143.6472 118.6885 131.9247 111.9206 130.1119 112.9672 141.8344 119.7351"/>
            <polygon class="cls-10" points="130.247 114.8918 135.2583 111.9986 128.1142 111.0302 130.247 114.8918"/>
          </g>
        </g>
      </g>
    </g>
    <polygon class="cls-9" points="59.398 47.3878 179.6801 116.8749 203.7796 102.9598 83.4628 33.4957 59.398 47.3878"/>
    <polygon class="cls-2" points="179.6801 116.8749 179.7148 172.4276 203.7796 158.5317 203.7796 102.9598 179.6801 116.8749"/>
    <polygon class="cls-2" points="179.6801 228.0196 179.7148 283.5723 203.7796 269.6765 203.7796 214.1045 179.6801 228.0196"/>
  </g>
  <g>
    <g>
      <polygon class="cls-11" points="201.8501 228.9911 258.204 261.5284 258.2026 326.6005 201.8487 294.0653 201.8501 228.9911"/>
      <polygon class="cls-4" points="201.8501 228.9911 258.204 261.5284 258.204 262.1359 201.8501 229.7696 201.8501 228.9911"/>
      <polygon class="cls-1" points="314.5564 228.9924 258.204 261.5284 258.2026 326.6005 314.555 294.0645 314.5564 228.9924"/>
      <polygon class="cls-7" points="201.8501 228.9911 258.204 261.5284 314.5565 228.9902 258.2025 196.4564 201.8501 228.9911"/>
    </g>
    <polygon class="cls-3" points="258.2025 261.5283 314.5565 228.9902 258.2025 196.4564 258.2025 261.5283"/>
    <polygon class="cls-6" points="201.8499 228.9914 170.3363 232.6193 227.2497 200.9616 258.2025 196.4564 201.8499 228.9914"/>
    <polygon class="cls-6" points="258.204 196.4302 283.2445 191.3158 339.0977 224.2251 314.5586 228.9635 258.204 196.4302"/>
    <polygon class="cls-6" points="183.0638 252.052 201.8504 228.9917 258.204 261.5284 239.6681 284.0874 183.0638 252.052"/>
    <polygon class="cls-6" points="258.204 261.5284 314.5564 228.9924 336.8622 252.5809 276.9866 287.8138 258.204 261.5284"/>
  </g>
</svg>