<?xml version="1.0" encoding="UTF-8"?>
<svg id="Layer_1" data-name="Layer 1" xmlns="http://www.w3.org/2000/svg" viewBox="0 0 2012.25 1515.3332">
  <defs>
    <style>
      .cls-1, .cls-2, .cls-3, .cls-4, .cls-5, .cls-6, .cls-7, .cls-8, .cls-9, .cls-10, .cls-11, .cls-12, .cls-13, .cls-14, .cls-15 {
        stroke-miterlimit: 10;
      }

      .cls-1, .cls-2, .cls-3, .cls-5, .cls-6, .cls-7, .cls-8, .cls-9, .cls-10, .cls-12, .cls-13, .cls-14, .cls-15 {
        stroke: #000;
      }

      .cls-1, .cls-3 {
        stroke-width: 1.8197px;
      }

      .cls-1, .cls-5, .cls-6, .cls-8, .cls-12 {
        fill: #ce945f;
      }

      .cls-16 {
        fill: #e5a628;
      }

      .cls-16, .cls-17, .cls-18, .cls-19, .cls-20, .cls-21, .cls-22, .cls-23, .cls-24, .cls-25 {
        stroke-width: 0px;
      }

      .cls-2, .cls-4 {
        stroke-width: 2px;
      }

      .cls-2, .cls-4, .cls-7, .cls-9, .cls-11, .cls-13, .cls-14, .cls-15 {
        fill: none;
      }

      .cls-17 {
        fill: #1aa096;
      }

      .cls-18, .cls-10 {
        fill: #000;
      }

      .cls-3 {
        fill: #e9ce2c;
        fill-rule: evenodd;
      }

      .cls-4, .cls-11 {
        stroke: #3cce77;
      }

      .cls-4, .cls-11, .cls-13, .cls-14, .cls-15 {
        stroke-linecap: round;
      }

      .cls-5 {
        stroke-width: 2.2192px;
      }

      .cls-6 {
        stroke-width: 2.2753px;
      }

      .cls-7, .cls-10 {
        stroke-width: .5px;
      }

      .cls-8 {
        stroke-width: 2.0179px;
      }

      .cls-19 {
        fill: #b595e8;
      }

      .cls-9 {
        stroke-width: 1.2113px;
      }

      .cls-20 {
        fill: #c4495b;
      }

      .cls-21 {
        fill: #a643ed;
      }

      .cls-22 {
        fill: #19a364;
      }

      .cls-11 {
        stroke-width: 5.0118px;
      }

      .cls-23 {
        fill: #fff;
      }

      .cls-12 {
        stroke-width: 2.1358px;
      }

      .cls-13 {
        stroke-width: 3px;
      }

      .cls-24 {
        fill: #f0ff83;
      }

      .cls-14 {
        stroke-width: 10px;
      }

      .cls-15 {
        stroke-width: 16px;
      }

      .cls-25 {
        fill: #bbe8ff;
      }
    </style>
  </defs>
  <path class="cls-3" d="M26.562,532.3607c109.6589-222.9033,481.4327-89.5657,758.9724-386.422,49.2488-52.6765,83.0256-105.5237,160.5138-130.789,131.1887-42.7745,328.6882,12.7394,398.3119,140.6973,89.3358,164.1855-96.8257,328.2523,7.9266,531.0826,43.8105,84.8296,85.7132,74.2169,112.9541,150.6055,57.8639,162.2612-57.6327,416.4493-239.7798,499.3761-99.9039,45.4836-261.4053-156.2366-653.9449-158.5321-338.8624-1.9817-435.5754-186.2621-489.4679-273.4679-17.6138-28.5016-130.9504-219.1547-55.4862-372.5505Z"/>
  <g>
    <path class="cls-23" d="M287.4427,302.168h927.4131c19.479,0,35.2935,15.8145,35.2935,35.2935v727.4126c0,19.4793-15.8147,35.2939-35.2939,35.2939H287.4427c-19.479,0-35.2935-15.8145-35.2935-35.2935V337.4614c0-19.479,15.8145-35.2935,35.2935-35.2935Z"/>
    <path class="cls-18" d="M1214.8556,303.168c18.9095,0,34.2936,15.384,34.2936,34.2936v727.4128c0,18.9096-15.384,34.2936-34.2936,34.2936H287.4427c-18.9094,0-34.2935-15.384-34.2935-34.2936V337.4617c0-18.9096,15.384-34.2936,34.2935-34.2936h927.4128M1214.8556,301.168H287.4427c-19.9614,0-36.2935,16.3322-36.2935,36.2936v727.4128c0,19.9615,16.332,36.2936,36.2935,36.2936h927.4128c19.9614,0,36.2936-16.3321,36.2936-36.2936V337.4617c0-19.9615-16.3322-36.2936-36.2936-36.2936h0Z"/>
  </g>
  <line class="cls-2" x1="251.1491" y1="360.4616" x2="1251.1491" y2="360.4616"/>
  <circle class="cls-2" cx="1113.4977" cy="332.2139" r="12.8807"/>
  <circle class="cls-2" cx="1158.0849" cy="332.2139" r="12.8807"/>
  <circle class="cls-2" cx="1203.6629" cy="332.2139" r="12.8807"/>
  <line class="cls-15" x1="1359.4042" y1="862.4873" x2="1359.4042" y2="1507.3332"/>
  <line class="cls-15" x1="2004.25" y1="862.4873" x2="2004.25" y2="1507.3332"/>
  <line class="cls-15" x1="1359.4042" y1="1350.1222" x2="2004.25" y2="1350.1222"/>
  <line class="cls-15" x1="1359.4042" y1="1163.8469" x2="2004.25" y2="1163.8469"/>
  <line class="cls-15" x1="1359.4042" y1="956.4341" x2="2004.25" y2="956.4341"/>
  <rect class="cls-1" x="1485.3133" y="1249.7895" width="93.7982" height="93.7982"/>
  <rect class="cls-6" x="1608.506" y="1249.7895" width="146.6422" height="93.7982"/>
  <rect class="cls-8" x="1784.5427" y="1249.7895" width="115.3404" height="93.7982"/>
  <rect class="cls-12" x="1449.8996" y="1062.1932" width="129.2119" height="93.7982"/>
  <rect class="cls-5" x="1621.1308" y="1034.379" width="107.5954" height="121.6123"/>
  <rect class="cls-1" x="1784.5427" y="1062.1932" width="93.7982" height="93.7982"/>
  <line class="cls-7" x1="1514.5055" y1="1062.8538" x2="1514.5055" y2="1156.6519"/>
  <line class="cls-7" x1="1674.9285" y1="1034.379" x2="1674.9285" y2="1157.1278"/>
  <line class="cls-7" x1="1831.4418" y1="1062.1932" x2="1831.4418" y2="1161.0911"/>
  <line class="cls-7" x1="1532.2124" y1="1249.7895" x2="1532.2124" y2="1358.063"/>
  <line class="cls-7" x1="1681.8271" y1="1249.7895" x2="1681.8271" y2="1358.063"/>
  <line class="cls-7" x1="1842.2129" y1="1249.7895" x2="1842.2129" y2="1358.063"/>
  <g>
    <rect class="cls-25" x="312.1688" y="431.6358" width="270.147" height="592.4956" rx="49" ry="49"/>
    <path class="cls-18" d="M533.3155,432.6359c26.4673,0,48,21.5327,48,48v494.4954c0,26.4673-21.5327,48-48,48h-172.1467c-26.4673,0-48-21.5327-48-48v-494.4954c0-26.4673,21.5327-48,48-48h172.1467M533.3155,430.6359h-172.1467c-27.5,0-50,22.5-50,50v494.4954c0,27.5,22.5,50,50,50h172.1467c27.5,0,50-22.5,50-50v-494.4954c0-27.5-22.5-50-50-50h0Z"/>
  </g>
  <g>
    <rect class="cls-25" x="616.0755" y="431.6358" width="270.147" height="592.4956" rx="49" ry="49"/>
    <path class="cls-18" d="M837.2225,432.6359c26.4673,0,48,21.5327,48,48v494.4954c0,26.4673-21.5327,48-48,48h-172.1467c-26.4673,0-48-21.5327-48-48v-494.4954c0-26.4673,21.5327-48,48-48h172.1467M837.2225,430.6359h-172.1467c-27.5,0-50,22.5-50,50v494.4954c0,27.5,22.5,50,50,50h172.1467c27.5,0,50-22.5,50-50v-494.4954c0-27.5-22.5-50-50-50h0Z"/>
  </g>
  <g>
    <rect class="cls-25" x="919.9828" y="431.6358" width="270.1465" height="592.4956" rx="49" ry="49"/>
    <path class="cls-18" d="M1141.1295,432.6359c26.4673,0,48,21.5327,48,48v494.4954c0,26.4673-21.5327,48-48,48h-172.1469c-26.4672,0-47.9999-21.5327-47.9999-48v-494.4954c0-26.4673,21.5327-48,47.9999-48h172.1469M1141.1295,430.6359h-172.1469c-27.5,0-49.9999,22.5-49.9999,50v494.4954c0,27.5,22.4999,50,49.9999,50h172.1469c27.5,0,50-22.5,50-50v-494.4954c0-27.5-22.5-50-50-50h0Z"/>
  </g>
  <g>
    <path class="cls-23" d="M370.2103,568.1563c-14.1997,0-25.7524-11.5522-25.7524-25.752s11.5527-25.7524,25.7524-25.7524,25.7524,11.5522,25.7524,25.752-11.5527,25.7524-25.7524,25.7524Z"/>
    <path class="cls-18" d="M370.2103,517.6517c13.6484,0,24.7522,11.1039,24.7522,24.7523s-11.1038,24.7523-24.7522,24.7523-24.7524-11.1039-24.7524-24.7523,11.104-24.7523,24.7524-24.7523M370.2103,515.6517c-14.7139,0-26.7524,12.0385-26.7524,26.7523h0c0,14.7138,12.0386,26.7523,26.7524,26.7523s26.7522-12.0385,26.7522-26.7523h0c0-14.7138-12.0386-26.7523-26.7522-26.7523h0Z"/>
  </g>
  <path class="cls-11" d="M359.7193,545.0326s4.9658,10.3454,12.0006,13.6559,25.2427-43.0367,25.2427-43.0367"/>
  <g>
    <path class="cls-23" d="M370.2103,663.0733c-14.1997,0-25.7524-11.5522-25.7524-25.752s11.5527-25.7524,25.7524-25.7524,25.7524,11.5527,25.7524,25.7524-11.5527,25.752-25.7524,25.752Z"/>
    <path class="cls-18" d="M370.2103,612.5688c13.6484,0,24.7522,11.1038,24.7522,24.7523s-11.1038,24.7523-24.7522,24.7523-24.7524-11.1038-24.7524-24.7523,11.104-24.7523,24.7524-24.7523M370.2103,610.5688c-14.7139,0-26.7524,12.0385-26.7524,26.7523h0c0,14.7138,12.0386,26.7523,26.7524,26.7523s26.7522-12.0385,26.7522-26.7523h0c0-14.7138-12.0386-26.7523-26.7522-26.7523h0Z"/>
  </g>
  <path class="cls-11" d="M359.7193,639.9497s4.9658,10.3454,12.0006,13.6559,25.2427-43.0367,25.2427-43.0367"/>
  <g>
    <path class="cls-23" d="M370.2103,757.9902c-14.1997,0-25.7524-11.5522-25.7524-25.752s11.5527-25.7524,25.7524-25.7524,25.7524,11.5527,25.7524,25.7524-11.5527,25.752-25.7524,25.752Z"/>
    <path class="cls-18" d="M370.2103,707.4859c13.6484,0,24.7522,11.1039,24.7522,24.7523s-11.1038,24.7523-24.7522,24.7523-24.7524-11.1039-24.7524-24.7523,11.104-24.7523,24.7524-24.7523M370.2103,705.4859c-14.7139,0-26.7524,12.0385-26.7524,26.7523h0c0,14.7138,12.0386,26.7523,26.7524,26.7523s26.7522-12.0385,26.7522-26.7523h0c0-14.7138-12.0386-26.7523-26.7522-26.7523h0Z"/>
  </g>
  <path class="cls-11" d="M359.7193,734.8667s4.9658,10.3454,12.0006,13.6559,25.2427-43.0367,25.2427-43.0367"/>
  <g>
    <path class="cls-23" d="M370.2103,852.9077c-14.1997,0-25.7524-11.5527-25.7524-25.7524s11.5527-25.7524,25.7524-25.7524,25.7524,11.5527,25.7524,25.7524-11.5527,25.7524-25.7524,25.7524Z"/>
    <path class="cls-18" d="M370.2103,802.403c13.6484,0,24.7522,11.1038,24.7522,24.7523s-11.1038,24.7523-24.7522,24.7523-24.7524-11.1038-24.7524-24.7523,11.104-24.7523,24.7524-24.7523M370.2103,800.403c-14.7139,0-26.7524,12.0385-26.7524,26.7523h0c0,14.7138,12.0386,26.7523,26.7524,26.7523s26.7522-12.0385,26.7522-26.7523h0c0-14.7138-12.0386-26.7523-26.7522-26.7523h0Z"/>
  </g>
  <path class="cls-11" d="M359.7193,829.7838s4.9658,10.3454,12.0006,13.6559,25.2427-43.0367,25.2427-43.0367"/>
  <g>
    <path class="cls-23" d="M370.2103,937.5259c-14.1997,0-25.7524-11.5522-25.7524-25.752s11.5527-25.7524,25.7524-25.7524,25.7524,11.5522,25.7524,25.752-11.5527,25.7524-25.7524,25.7524Z"/>
    <path class="cls-18" d="M370.2103,887.0214c13.6484,0,24.7522,11.1038,24.7522,24.7523s-11.1038,24.7523-24.7522,24.7523-24.7524-11.1039-24.7524-24.7523,11.104-24.7523,24.7524-24.7523M370.2103,885.0214c-14.7139,0-26.7524,12.0385-26.7524,26.7523h0c0,14.7138,12.0386,26.7523,26.7524,26.7523s26.7522-12.0385,26.7522-26.7523h0c0-14.7138-12.0386-26.7523-26.7522-26.7523h0Z"/>
  </g>
  <path class="cls-11" d="M359.7193,914.4022s4.9658,10.3454,12.0006,13.6559,25.2427-43.0367,25.2427-43.0367"/>
  <line class="cls-13" x1="449.0037" y1="524.9245" x2="534.0849" y2="524.9245"/>
  <line class="cls-13" x1="449.0037" y1="537.2547" x2="495.9931" y2="537.2547"/>
  <line class="cls-13" x1="475.0757" y1="549.585" x2="534.0849" y2="549.585"/>
  <line class="cls-13" x1="750.4556" y1="518.2117" x2="835.5368" y2="518.2117"/>
  <line class="cls-13" x1="750.4556" y1="530.542" x2="797.445" y2="530.542"/>
  <line class="cls-13" x1="776.5276" y1="542.8723" x2="835.5368" y2="542.8723"/>
  <line class="cls-13" x1="651.5899" y1="655.7824" x2="736.6711" y2="655.7824"/>
  <line class="cls-13" x1="651.5899" y1="668.1127" x2="698.5793" y2="668.1127"/>
  <line class="cls-13" x1="677.6619" y1="680.443" x2="736.6711" y2="680.443"/>
  <line class="cls-13" x1="707.915" y1="931.7735" x2="792.9962" y2="931.7735"/>
  <line class="cls-13" x1="707.915" y1="944.1038" x2="754.9044" y2="944.1038"/>
  <line class="cls-13" x1="733.987" y1="956.4341" x2="792.9962" y2="956.4341"/>
  <line class="cls-13" x1="449.0037" y1="619.8415" x2="534.0849" y2="619.8415"/>
  <line class="cls-13" x1="449.0037" y1="632.1718" x2="495.9931" y2="632.1718"/>
  <line class="cls-13" x1="475.0757" y1="644.5021" x2="534.0849" y2="644.5021"/>
  <line class="cls-13" x1="449.0037" y1="714.7586" x2="534.0849" y2="714.7586"/>
  <line class="cls-13" x1="449.0037" y1="727.0889" x2="495.9931" y2="727.0889"/>
  <line class="cls-13" x1="475.0757" y1="739.4192" x2="534.0849" y2="739.4192"/>
  <line class="cls-13" x1="449.0037" y1="809.6757" x2="534.0849" y2="809.6757"/>
  <line class="cls-13" x1="449.0037" y1="822.0059" x2="495.9931" y2="822.0059"/>
  <line class="cls-13" x1="475.0757" y1="834.3362" x2="534.0849" y2="834.3362"/>
  <line class="cls-13" x1="449.0037" y1="894.2941" x2="534.0849" y2="894.2941"/>
  <line class="cls-13" x1="449.0037" y1="906.6244" x2="495.9931" y2="906.6244"/>
  <line class="cls-13" x1="475.0757" y1="918.9547" x2="534.0849" y2="918.9547"/>
  <g>
    <path class="cls-20" d="M660.0902,556.8413c-1.5669-.0005-2.9624-.854-3.6416-2.228-7.6504-15.478-3.7817-34.0664,9.4077-45.2021,6.7319-5.6836,15.2964-8.8135,24.1162-8.8135,7.9888,0,15.6045,2.4609,22.0244,7.1172.9976.7236,1.5962,1.855,1.6421,3.104.0474,1.2905-.4893,2.5068-1.4731,3.3374l-7.603,6.4194c-.7583.6401-1.7134.9927-2.6885.9927-.6836,0-1.3506-.1777-1.9287-.5146-3.0166-1.7583-6.4678-2.6875-9.981-2.6875-4.6348,0-9.1279,1.6387-12.6519,4.6138-6.3359,5.3491-8.624,14.186-5.6938,21.9893.583,1.5537.0825,3.3506-1.2451,4.4717l-7.603,6.4194c-.7495.6323-1.7012.981-2.6802.981h-.0005Z"/>
    <path class="cls-18" d="M689.9723,501.5974c7.7769.0003,15.1899,2.3956,21.4375,6.9271.7471.5418,1.1953,1.3915,1.23,2.3313.0361.981-.3718,1.9055-1.1191,2.5365l-7.603,6.4192c-.5781.4883-1.304.7571-2.0435.7571-.5066,0-.9995-.1311-1.425-.3792-3.1692-1.8471-6.7939-2.8234-10.4841-2.8234-4.8711.0003-9.5935,1.7227-13.2974,4.8498-6.6584,5.6216-9.0635,14.9069-5.9849,23.1051.4351,1.1583.0515,2.507-.9541,3.356l-7.603,6.4192c-.7292.6158-1.5095.7451-2.0356.7451-1.1836,0-2.2354-.6401-2.7446-1.6706-7.4465-15.0653-3.6812-33.157,9.1565-43.9956,6.552-5.5317,14.8872-8.578,23.4705-8.5777M689.9725,499.5974c-8.7583-.0004-17.5591,2.9691-24.761,9.0495-13.7715,11.6271-17.3098,30.9314-9.6592,46.41.8928,1.8062,2.6963,2.7844,4.5376,2.7844,1.1675,0,2.3499-.3928,3.3259-1.2169l7.603-6.4193c1.6179-1.3659,2.2805-3.6051,1.5361-5.5873-2.7019-7.1949-.7839-15.6504,5.4028-20.8738h0c3.4854-2.9427,7.7561-4.3777,12.0071-4.378,3.2949-.0002,6.5779.8615,9.4771,2.5513.7551.4402,1.594.6512,2.4321.6512,1.1924,0,2.3838-.4269,3.3337-1.2289l7.603-6.4192c2.5156-2.1239,2.4382-6.082-.2268-8.0149-6.6677-4.8361-14.6221-7.3078-22.6116-7.3081h0Z"/>
  </g>
  <g>
    <g>
      <path class="cls-22" d="M718.7045,559.0581c-1.2275,0-2.3418-.519-3.1372-1.4609l-6.71-7.9473c-.9712-1.1509-1.207-2.7837-.6152-4.2622,1.832-4.5767,1.9014-9.6323.1958-14.2358-.5928-1.5996-.104-3.4238,1.2163-4.5386l7.6055-6.4209c.749-.6323,1.7002-.9805,2.6787-.9805,1.5698,0,2.9678.8564,3.6489,2.2354,5.5977,11.335,5.1167,24.624-1.2871,35.5479-.7573,1.292-2.1011,2.063-3.5952,2.063h-.0005Z"/>
      <path class="cls-18" d="M719.9381,520.2117c1.1865,0,2.2412.643,2.7524,1.6783,5.4482,11.0326,4.98,23.967-1.2529,34.5995-.5759.9823-1.5977,1.5687-2.7332,1.5687-.9282,0-1.771-.3928-2.3733-1.1061l-6.7097-7.9474c-.7322-.8673-.905-2.1108-.4509-3.2454,1.9243-4.8078,1.9971-10.1188.2051-14.9547-.447-1.206-.0759-2.5833.9236-3.4271l7.6055-6.4212c.7288-.6154,1.5081-.7445,2.0334-.7445M719.9381,518.2117c-1.1665,0-2.3479.3925-3.3237,1.2163l-7.6055,6.4212c-1.6367,1.382-2.2532,3.6414-1.5088,5.6502,1.624,4.3821,1.532,9.2235-.1863,13.5166-.7146,1.7851-.4609,3.8097.7795,5.2788l6.7097,7.9474c1.0332,1.2237,2.4705,1.8159,3.9014,1.8159,1.7412,0,3.4729-.8761,4.4585-2.5573,6.4893-11.0698,7.0662-24.8623,1.3208-36.4965-.894-1.8107-2.7009-2.7927-4.5457-2.7927h0Z"/>
    </g>
    <g>
      <path class="cls-24" d="M690.0594,575.4536c-7.9888,0-15.6045-2.4609-22.0249-7.1172-.9976-.7236-1.5962-1.855-1.6421-3.104-.0474-1.2905.4893-2.5068,1.4731-3.3374l7.603-6.4189c.7588-.6406,1.7139-.9932,2.689-.9932.6836,0,1.3501.1777,1.9287.5151,3.0161,1.7578,6.4673,2.6875,9.9805,2.6875,3.1689,0,6.3154-.7695,9.0986-2.2251.6001-.314,1.2725-.48,1.9443-.48,1.2153,0,2.3594.5298,3.1392,1.4531l6.2427,7.394c.7798.9238,1.1162,2.1392.9219,3.335-.1924,1.1855-.8882,2.2227-1.9087,2.8457-5.8384,3.5625-12.5625,5.4453-19.4453,5.4453Z"/>
      <path class="cls-18" d="M678.1573,555.4828c.5066,0,.9995.1311,1.425.3792,3.1692,1.847,6.7947,2.8234,10.4841,2.8234,3.3301,0,6.6367-.8088,9.5625-2.339.4578-.2394.9697-.3659,1.4802-.3659.9204,0,1.7861.4004,2.3755,1.0984l6.2427,7.394c.5913.7005.8462,1.6225.699,2.5295-.1479.9105-.6602,1.6749-1.4424,2.1522-5.6816,3.4668-12.2258,5.2992-18.9246,5.2992-7.7764,0-15.1895-2.3953-21.4375-6.9269-.7471-.5418-1.1953-1.3915-1.23-2.3313-.0361-.981.3718-1.9055,1.1191-2.5365l7.6028-6.4191c.5781-.4882,1.304-.7571,2.0435-.7571M678.1573,553.4828c-1.1924,0-2.3838.4269-3.3337,1.2289l-7.6028,6.4192c-2.5156,2.1239-2.4382,6.082.2268,8.015,6.668,4.8361,14.6221,7.308,22.6118,7.308,6.896,0,13.8186-1.8409,19.9663-5.5919,2.6765-1.6331,3.2524-5.2835,1.2297-7.6792l-6.2427-7.394c-.9985-1.1828-2.4368-1.808-3.9033-1.8081-.8171,0-1.6431.1939-2.4072.5936-2.7068,1.4156-5.676,2.1113-8.6357,2.1113-3.2947,0-6.5776-.8616-9.4771-2.5513-.7551-.4402-1.594-.6512-2.4321-.6512h0Z"/>
    </g>
  </g>
  <g>
    <path class="cls-17" d="M809.9813,712.9175c-12.2954,0-23.8076-6.0034-30.7949-16.0591-9.8506-14.1758-8.7656-33.1309,2.6377-46.0957.7661-.8711,1.8335-1.3511,3.0063-1.3511,1.3657,0,2.645.668,3.4224,1.7866l5.6777,8.1719c.9922,1.4272,1.0093,3.2925.043,4.6411-4.854,6.7764-4.9355,15.9043-.2041,22.7139,3.6631,5.2715,9.7144,8.4189,16.186,8.4189h.0015c1.751,0,3.4907-.2314,5.1714-.6885.3213-.0874.6538-.1313.9873-.1313,1.3174,0,2.5688.6694,3.3477,1.7905l5.6782,8.1714c.7349,1.0571.938,2.3716.5571,3.6055-.3682,1.1943-1.2397,2.1318-2.3906,2.5718-4.2598,1.6284-8.7432,2.4541-13.3262,2.4541h-.0005Z"/>
    <path class="cls-18" d="M784.8299,650.4118h0c1.0386.0002,2.0112.5074,2.6016,1.3571l5.6782,8.1715c.751,1.0807.7712,2.4827.0508,3.4887-5.0994,7.1193-5.1848,16.7106-.2122,23.8667,3.8499,5.5406,10.2083,8.8484,17.0083,8.8484,1.8391,0,3.6675-.2434,5.4338-.7234.2361-.0641.48-.0966.7253-.0966.9749,0,1.9429.5215,2.5264,1.3612l5.6782,8.1715c.5581.8032.7122,1.8018.4229,2.7399-.2771.8986-.9307,1.603-1.7925,1.9325-4.1453,1.5847-8.5088,2.3882-12.9695,2.3882-11.9683,0-23.1736-5.8428-29.9739-15.6296-9.5872-13.7973-8.5315-32.2464,2.5674-44.8649.5737-.6521,1.3745-1.0112,2.2551-1.0111M784.8302,648.4118c-1.3784-.0001-2.7556.5517-3.7571,1.6902-11.4033,12.9647-12.9927,32.5261-2.708,47.3271,7.4585,10.7339,19.4424,16.4883,31.6162,16.4883,4.6125,0,9.252-.8259,13.6836-2.5201,3.0752-1.1756,4.1765-4.9782,2.2979-7.6818l-5.6782-8.1715c-.9629-1.386-2.5356-2.2199-4.1687-2.2199-.4158,0-.8352.054-1.2498.1666-1.6125.4382-3.2649.6534-4.9094.6534-5.9197,0-11.75-2.786-15.366-7.9897h0c-4.6204-6.6493-4.2795-15.3129.1958-21.5608,1.2329-1.7213,1.1738-4.0558-.0344-5.7946l-5.6782-8.1715c-1.0132-1.4584-2.6292-2.2157-4.2437-2.2158h0Z"/>
  </g>
  <g>
    <g>
      <path class="cls-16" d="M820.994,658.5283c-.6875,0-1.3848-.1714-2.0156-.4956-2.793-1.4351-5.9326-2.1934-9.0791-2.1934-1.7173,0-3.4248.2231-5.0757.6641-.3379.0903-.6865.1362-1.0356.1362-1.3379,0-2.5972-.6626-3.3687-1.7729l-5.6797-8.1738c-.7344-1.0566-.9375-2.3701-.5566-3.6035.3696-1.1973,1.2441-2.1372,2.3994-2.5786,4.2544-1.625,8.7324-2.4487,13.3096-2.4487,7.8374,0,15.6362,2.5083,21.9609,7.063,1.1143.8022,1.7466,2.0469,1.7354,3.415-.0117,1.3535-.6558,2.5723-1.7671,3.3447l-8.5415,5.9351c-.667.4639-1.457.7085-2.2856.7085h0Z"/>
      <path class="cls-18" d="M809.892,639.0622c7.6296.0002,15.2214,2.4416,21.377,6.8744.8472.6102,1.3281,1.5561,1.3193,2.5952-.0085,1.0243-.4963,1.9472-1.3379,2.5319l-8.5415,5.9352c-.4985.3464-1.0916.5295-1.7148.5295-.5295,0-1.0684-.1331-1.5583-.3849-2.9343-1.5076-6.2319-2.3044-9.5369-2.3044-1.8044,0-3.5986.235-5.3328.6981-.2542.0679-.5161.1023-.7781.1023-1.0105,0-1.9629-.5022-2.5474-1.3433l-5.6799-8.174c-.5576-.8026-.7117-1.8006-.4224-2.738.2783-.9016.9348-1.6084,1.801-1.9392,4.1404-1.5812,8.4983-2.3829,12.9526-2.3828M809.892,637.0622c-4.6067-.0001-9.2397.824-13.6663,2.5145-3.0796,1.1761-4.1885,4.9798-2.3074,7.6869l5.6799,8.174c.9688,1.3941,2.5464,2.202,4.1897,2.202.4302,0,.8647-.0553,1.2942-.17,1.5833-.4228,3.2036-.6303,4.8167-.6304,2.9875-.0001,5.9519.7111,8.6228,2.0834.7805.401,1.6296.606,2.4724.606,1.0037,0,1.9978-.2907,2.8562-.8872l8.5415-5.9351c2.9155-2.0259,2.9268-6.3178.0459-8.3925-6.6101-4.7603-14.5371-7.2513-22.5457-7.2515h0Z"/>
    </g>
    <g>
      <path class="cls-21" d="M835.0502,701.5659c-1.3662,0-2.6455-.668-3.4229-1.7866l-5.6777-8.1714c-.9922-1.4272-1.0093-3.2925-.043-4.6421,3.9258-5.48,4.7876-12.7417,2.249-18.9521-.7432-1.8179-.1484-3.8613,1.4463-4.9692l7.9468-5.522c.6968-.4844,1.5107-.7402,2.3535-.7402,1.5938,0,3.0137.8823,3.7065,2.3022,6.6382,13.6035,4.4585,29.748-5.5527,41.1304-.7661.8711-1.8335,1.3511-3.0059,1.3511h0Z"/>
      <path class="cls-18" d="M839.9025,657.7824c1.2083,0,2.2842.6669,2.8081,1.7405,6.46,13.2401,4.3384,28.9535-5.4053,40.0317-.5735.652-1.3745,1.0111-2.2554,1.0111-1.0386,0-2.011-.5073-2.6016-1.3571l-5.678-8.1714c-.751-1.0807-.7712-2.4827-.0508-3.4886,4.1238-5.757,5.0288-13.3872,2.3618-19.913-.5645-1.3812-.116-2.9315,1.0908-3.7699l7.9465-5.5219c.5288-.3673,1.1455-.5614,1.7837-.5614M839.9025,655.7824c-1.0063,0-2.0266.2949-2.9248.919l-7.9468,5.5219c-1.9795,1.3754-2.7126,3.9377-1.8008,6.1689,2.4419,5.9751,1.573,12.8132-2.1365,17.9917-1.2329,1.7213-1.1738,4.0558.0344,5.7946l5.678,8.1714c1.0134,1.4584,2.6294,2.2158,4.2439,2.2158,1.3784,0,2.7556-.5517,3.7571-1.6903,10.1353-11.5234,12.5178-28.2582,5.7009-42.2296-.8953-1.835-2.7263-2.8635-4.6055-2.8635h0Z"/>
    </g>
  </g>
  <g>
    <rect class="cls-23" x="668.9603" y="787.8076" width="162.9902" height="117.8169" rx="20.4678" ry="20.4678"/>
    <path class="cls-18" d="M811.483,788.8077c10.7346,0,19.4678,8.7332,19.4678,19.4679v76.8809c0,10.7346-8.7332,19.4679-19.4678,19.4679h-122.0547c-10.7346,0-19.468-8.7332-19.468-19.4679v-76.8809c0-10.7346,8.7334-19.4679,19.468-19.4679h122.0547M811.483,786.8077h-122.0547c-11.8074,0-21.468,9.6606-21.468,21.4679v76.8809c0,11.8074,9.6606,21.4679,21.468,21.4679h122.0547c11.8071,0,21.4678-9.6605,21.4678-21.4679v-76.8809c0-11.8073-9.6606-21.4679-21.4678-21.4679h0Z"/>
  </g>
  <line class="cls-13" x1="688.9286" y1="810.8556" x2="688.9286" y2="890.2378"/>
  <line class="cls-13" x1="803.3693" y1="889.0579" x2="688.9286" y2="890.2378"/>
  <polyline class="cls-4" points="697.1308 882.6726 715.5161 866.379 740.5873 880.0304 763.5161 846.7161 774.4152 852.7277 804.0298 824.8745"/>
  <g>
    <rect class="cls-23" x="1018.3876" y="620.8413" width="86.1836" height="164.9663" rx="26.1035" ry="26.1035"/>
    <path class="cls-18" d="M1078.4675,621.8415c13.8422,0,25.1036,11.2614,25.1036,25.1036v112.7589c0,13.8422-11.2615,25.1036-25.1036,25.1036h-33.9762c-13.8422,0-25.1036-11.2615-25.1036-25.1036v-112.7589c0-13.8422,11.2615-25.1036,25.1036-25.1036h33.9762M1078.4675,619.8415h-33.9762c-14.9071,0-27.1036,12.1966-27.1036,27.1036v112.7589c0,14.907,12.1965,27.1036,27.1036,27.1036h33.9762c14.907,0,27.1036-12.1966,27.1036-27.1036v-112.7589c0-14.907-12.1967-27.1036-27.1036-27.1036h0Z"/>
  </g>
  <rect class="cls-19" x="932.681" y="556.1589" width="88.1835" height="48.2057" rx="14.5634" ry="14.5634"/>
  <path class="cls-18" d="M1002.8242,561.1328c7.4377,0,13.4889,6.051,13.4889,13.4887v19.0789c0,7.4377-6.0511,13.4887-13.4889,13.4887h-59.0566c-7.4376,0-13.4886-6.051-13.4886-13.4887v-19.0789c0-7.4377,6.051-13.4887,13.4886-13.4887h59.0566M1002.8242,560.0581h-59.0566c-8.0099,0-14.5634,6.5535-14.5634,14.5634v19.0789c0,8.0099,6.5535,14.5634,14.5634,14.5634h59.0566c8.0099,0,14.5635-6.5535,14.5635-14.5634v-19.0789c0-8.0099-6.5536-14.5634-14.5635-14.5634h0Z"/>
  <rect class="cls-19" x="1038.9746" y="503.9621" width="65.3945" height="48.2057" rx="12.5412" ry="12.5412"/>
  <rect class="cls-19" x="931.8051" y="813.6839" width="88.1835" height="48.2057" rx="14.5634" ry="14.5634"/>
  <path class="cls-18" d="M1008.7693,808.935c7.4377,0,13.4888,6.051,13.4888,13.4887v19.0789c0,7.4377-6.051,13.4887-13.4888,13.4887h-59.0568c-7.4377,0-13.4888-6.051-13.4888-13.4887v-19.0789c0-7.4377,6.051-13.4887,13.4888-13.4887h59.0568M1008.7693,807.8604h-59.0568c-8.0099,0-14.5635,6.5535-14.5635,14.5634v19.0789c0,8.0099,6.5536,14.5634,14.5635,14.5634h59.0568c8.0098,0,14.5634-6.5535,14.5634-14.5634v-19.0789c0-8.0099-6.5536-14.5634-14.5634-14.5634h0Z"/>
  <path class="cls-18" d="M1088.0758,507.3646c6.405,0,11.6158,5.2108,11.6158,11.6158v23.1233c0,6.405-5.2108,11.6158-11.6158,11.6158h-40.3121c-6.4049,0-11.6157-5.2108-11.6157-11.6158v-23.1233c0-6.405,5.2108-11.6158,11.6157-11.6158h40.3121M1088.0758,506.4392h-40.3121c-6.8976,0-12.5411,5.6436-12.5411,12.5412v23.1233c0,6.8977,5.6436,12.5412,12.5411,12.5412h40.3121c6.8977,0,12.5413-5.6435,12.5413-12.5412v-23.1233c0-6.8976-5.6436-12.5412-12.5413-12.5412h0Z"/>
  <rect class="cls-19" x="1121.672" y="559.8527" width="65.3945" height="82.5833" rx="16.4148" ry="16.4148"/>
  <path class="cls-18" d="M1162.4774,564.2842c8.3833,0,15.2035,6.8203,15.2035,15.2036v49.7537c0,8.3833-6.8202,15.2036-15.2035,15.2036h-32.5648c-8.3833,0-15.2035-6.8203-15.2035-15.2036v-49.7537c0-8.3833,6.8202-15.2036,15.2035-15.2036h32.5648M1162.4774,563.0729h-32.5648c-9.0282,0-16.4148,7.3867-16.4148,16.4148v49.7537c0,9.0282,7.3866,16.4148,16.4148,16.4148h32.5648c9.0282,0,16.4148-7.3867,16.4148-16.4148v-49.7537c0-9.0281-7.3866-16.4148-16.4148-16.4148h0Z"/>
  <rect class="cls-19" x="1095.7867" y="838.1608" width="65.3945" height="82.5833" rx="16.4148" ry="16.4148"/>
  <path class="cls-18" d="M1136.7159,842.5922c8.3833,0,15.2035,6.8203,15.2035,15.2036v49.7537c0,8.3833-6.8202,15.2036-15.2035,15.2036h-32.5648c-8.3833,0-15.2035-6.8203-15.2035-15.2036v-49.7537c0-8.3833,6.8202-15.2036,15.2035-15.2036h32.5648M1136.7159,841.381h-32.5648c-9.0282,0-16.4148,7.3867-16.4148,16.4148v49.7537c0,9.0282,7.3866,16.4148,16.4148,16.4148h32.5648c9.0282,0,16.4148-7.3867,16.4148-16.4148v-49.7537c0-9.0282-7.3866-16.4148-16.4148-16.4148h0Z"/>
  <g>
    <path class="cls-9" d="M1012.7478,605.7443c.105,1.797.4617,3.8977,1.3372,6.1026,3.656,9.2085,13.2321,12.3587,14.9319,12.8876"/>
    <polygon class="cls-18" points="1010.7809 608.2251 1012.7681 606.1061 1014.8859 608.0945 1014.8304 606.3517 1012.7126 604.3645 1010.7255 606.4823 1010.7809 608.2251"/>
  </g>
  <g>
    <path class="cls-9" d="M1068.5122,555.8946c2.6406,5.7029,5.5715,13.8842,6.5636,24.0257,1.8191,18.5971-3.9237,33.1329-7.156,39.9212"/>
    <polygon class="cls-18" points="1067.5802 558.9484 1068.6255 556.238 1071.3353 557.2848 1070.629 555.6906 1067.9198 554.6448 1066.874 557.3542 1067.5802 558.9484"/>
  </g>
  <g>
    <line class="cls-9" x1="1100.6171" y1="632.1718" x2="1112.8799" y2="607.5813"/>
    <polygon class="cls-18" points="1113.6409 610.6569 1112.7201 607.9017 1109.9654 608.824 1110.7436 607.2636 1113.4978 606.3423 1114.4191 609.0965 1113.6409 610.6569"/>
  </g>
  <g>
    <path class="cls-9" d="M1028.7529,781.7267c-2.5186,1.1537-4.3392,2.5691-5.6405,3.845-7.7941,7.6424-6.5323,19.673-5.7933,23.928"/>
    <polygon class="cls-18" points="1014.9449 807.4405 1017.3037 809.136 1018.9979 806.7762 1019.2799 808.4969 1017.5856 810.8555 1015.2269 809.1612 1014.9449 807.4405"/>
  </g>
  <g>
    <path class="cls-9" d="M1085.0648,785.9868c3.587,4.4333,7.5428,10.213,10.9283,17.4198,6.7874,14.4483,8.1107,27.8811,8.1604,36.5941"/>
    <polygon class="cls-18" points="1101.979 837.6503 1104.0962 839.6394 1106.084 837.521 1106.1389 839.2638 1104.1511 841.381 1102.0339 839.3931 1101.979 837.6503"/>
  </g>
  <circle class="cls-10" cx="962.0253" cy="584.161" r="3.2202"/>
  <circle class="cls-10" cx="973.172" cy="584.161" r="3.2202"/>
  <circle class="cls-10" cx="984.5665" cy="584.161" r="3.2202"/>
  <circle class="cls-10" cx="1056.6491" cy="530.542" r="3.2202"/>
  <circle class="cls-10" cx="1067.7959" cy="530.542" r="3.2202"/>
  <circle class="cls-10" cx="1079.1904" cy="530.542" r="3.2202"/>
  <circle class="cls-10" cx="1135.0482" cy="604.3645" r="3.2202"/>
  <circle class="cls-10" cx="1146.195" cy="604.3645" r="3.2202"/>
  <circle class="cls-10" cx="1157.5895" cy="604.3645" r="3.2202"/>
  <circle class="cls-10" cx="967.9702" cy="831.9632" r="3.2202"/>
  <circle class="cls-10" cx="979.117" cy="831.9632" r="3.2202"/>
  <circle class="cls-10" cx="990.5115" cy="831.9632" r="3.2202"/>
  <circle class="cls-10" cx="1109.1629" cy="882.6726" r="3.2202"/>
  <circle class="cls-10" cx="1120.3097" cy="882.6726" r="3.2202"/>
  <circle class="cls-10" cx="1131.7042" cy="882.6726" r="3.2202"/>
  <g>
    <path class="cls-14" d="M1722.8556,845.4616c37.0214-139.1778-6.7174-287.4566-112.9542-382.4587-108.9597-97.4372-265.8875-122.9362-401.7083-66.0052"/>
    <polygon class="cls-18" points="1219.7626 373.5692 1210.9214 395.8624 1233.2197 404.6905 1220.0071 410.4038 1197.7179 401.5717 1206.5498 379.2825 1219.7626 373.5692"/>
  </g>
  <path class="cls-18" d="M1051.4811,655.8015l-1.102,6.6077-.7416.2408c-.7218.2355-1.4504.5131-2.1831.8303-.7279.317-1.4256.6583-2.0882,1.0286l-.6871.3805-5.4605-3.6103-.085-.0626c-.1103-.0869-.2468-.1264-.3801-.119v.0049c-.1307.0098-.263.0665-.3648.1722l-.0025-.0024-6.3874,6.63c-.0921.0955-.1442.22-.1517.3486-.0102.1212.0218.249.1028.3612l3.891,5.4445-.3554.6956c-.3456.6806-.6612,1.3904-.9515,2.1293-.2952.7439-.541,1.482-.7501,2.212l-.2135.7498-6.4204,1.3102-.1034.0168c-.138.0173-.2602.0887-.3497.1916-.0872.0954-.1366.2273-.1339.3753l-.0025-.0024.1731,9.2101c0,.131.0515.2536.1323.3509.0832.0948.1981.1619.3319.1841l6.6076,1.0971.2408.7465c.2331.7195.5106,1.448.8303,2.1831.317.723.6583,1.4207,1.0285,2.0832l.3806.6872-3.6127,5.4629-.0627.0851c-.0845.1077-.1214.2468-.1116.3776l-.0048.005c.0096.1258.0688.2556.177.3599l-.0048.005,6.6325,6.3849c.0955.0921.2176.1467.3462.1542.1213.0101.2514-.0243.3611-.1029l5.4446-3.8909.7005.3552c.6781.3434,1.3854.6615,2.1243.9517.7464.2927,1.482.541,2.212.7501l.7499.2136,1.3103,6.4203.0191.101c.0174.138.0863.2627.1892.3522.0979.0847.2297.1341.3754.1338l-.0025.0026,9.2101-.1731c.1334-.0024.2559-.0541.3533-.1349.0924-.0807.1594-.1956.1817-.3294l1.0995-6.6101.7441-.2384c.7218-.2355,1.4504-.5131,2.1831-.8303.7277-.3171,1.4231-.6607,2.0881-1.0285l.6822-.3805,5.5879,3.6894c.1076.0746.239.1044.3647.0897.1183-.0121.2383-.0711.3329-.1691l.005.0048,6.373-6.61c.0995-.0981.1614-.2228.1714-.3539.0126-.1237-.0221-.259-.1031-.3711l-3.8884-5.447.3528-.698c.3459-.6756.6638-1.388.9517-2.1243.2927-.7463.5435-1.4845.7501-2.212l.216-.7524,6.4203-1.3103.0986-.0166c.1379-.0174.2652-.0888.3547-.1917.0847-.0979.1341-.2297.1314-.373h.0049s-.1731-9.2101-.1731-9.2101c-.0048-.1307-.054-.2558-.1373-.3506-.0807-.0924-.1931-.162-.3294-.1817l-6.6051-1.0996-.2434-.744c-.2329-.7195-.5081-1.4505-.8303-2.1831-.3145-.7253-.6583-1.4255-1.0286-2.0882l-.378-.6846,3.6103-5.4605.0625-.0901c.0845-.1077.1216-.2418.1117-.3775l.0048-.005c-.0097-.1258-.0689-.2556-.1745-.3574l.0024-.0025-6.63-6.3874c-.0955-.0921-.22-.1442-.3487-.1567-.1237-.0076-.249.0268-.3587.1053l-5.4494,3.891-.6981-.3529c-.6757-.3457-1.3879-.6638-2.1243-.9516-.7464-.2927-1.4846-.5436-2.2121-.7501l-.7498-.2136-1.3128-6.4227-.0142-.1011c-.0174-.138-.0888-.2651-.1917-.3547-.0979-.0846-.2297-.1341-.3754-.129v-.0049s-9.2101.1731-9.2101.1731c-.1283.0024-.2534.0516-.3483.1348-.0948.0833-.1619.1981-.1817.3294h0ZM1048.0958,660.46l.846-5.074c.1221-.7507.5055-1.3949,1.0381-1.8567.5422-.4669,1.241-.7489,1.9867-.7625l9.2051-.173.0048-.005c.8001-.0146,1.5414.2782,2.1087.7717.5547.4814.9375,1.1561,1.0454,1.9248l.9953,4.8602c.5764.1821,1.1407.3818,1.6905.5965.5448.2148,1.0951.4542,1.6457.7134l4.1864-2.9886c.6168-.4435,1.3421-.6272,2.0469-.5783.7124.0513,1.4069.3473,1.945.8661l6.63,6.3874.0048-.005c.5758.5551.893,1.2879.9437,2.0403h.0049c.0504.7326-.1582,1.4823-.6284,2.106l-2.7305,4.1303c.2791.5407.5385,1.082.773,1.6186.2347.5416.4548,1.0982.6603,1.67l5.0741.846c.7507.1221,1.3924.5031,1.8567,1.0381.4669.5422.7463,1.2386.7599,1.9843l.1779,9.205.0025.0024c.0147.805-.278,1.5464-.7716,2.1136-.4815.5498-1.1561.9375-1.9248,1.0454l-4.8602.9904c-.1821.5813-.3817,1.1457-.5965,1.6954-.2148.5449-.4542,1.0952-.7134,1.6457l2.9911,4.184c.4538.6364.6354,1.384.5695,2.1114-.0705.7324-.3936,1.4398-.9521,1.9687l-6.3027,6.5371.005.0048c-.5236.5431-1.2021.8543-1.9072.9316-.7148.0773-1.4515-.0896-2.0691-.5007l-4.2953-2.8362c-.5383.2816-1.077.5384-1.6162.7705-.5414.2396-1.1006.4573-1.6699.6604l-.846,5.079c-.1247.7482-.5031,1.3924-1.0406,1.8542-.5397.4693-1.2361.7487-1.9819.7624l-9.2051.1729-.0048.005c-.805.0148-1.544-.2805-2.111-.7691-.5523-.4839-.9377-1.1611-1.0479-1.9273l-.9904-4.8602c-.5788-.1796-1.1431-.3792-1.6904-.5965-.5473-.2123-1.0976-.4517-1.6507-.7133l-4.184,2.9911c-.6144.441-1.3422.6272-2.0471.5733-.7123-.0512-1.4068-.3472-1.9424-.8636l-6.63-6.3874-.0048.005c-.5784-.5576-.8929-1.2879-.9463-2.0379l-.0048.0002c-.0505-.7328.1581-1.4874.6284-2.1061l2.7305-4.1353c-.2816-.5383-.5384-1.077-.7705-1.6162-.2371-.539-.4548-1.0982-.6604-1.6699l-5.0765-.8435c-.7482-.1247-1.3926-.5081-1.8542-1.0406-.4693-.5397-.7513-1.2386-.7649-1.9843l-.173-9.2051-.0024-.0023c-.0148-.805.278-1.5464.7691-2.111.4814-.5548,1.1585-.94,1.9272-1.0479l4.8577-.9928c.1821-.5763.3818-1.1407.5965-1.6905.2173-.5473.4518-1.0976.7159-1.6482l-2.9911-4.184c-.4435-.6168-.6272-1.3422-.5759-2.0495.0512-.7124.3473-1.4069.8662-1.9401l6.3849-6.6325-.0025-.0024c.56-.5808,1.2902-.9005,2.0377-.9512l.0025.0024c.7352-.048,1.4849.1557,2.1035.6261l4.1328,2.7281c.5407-.2792,1.0795-.536,1.6161-.7706.544-.2371,1.1007-.4572,1.6701-.6603h0ZM1045.1175,674.1565c3.2095-3.3289,7.4662-5.0418,11.7502-5.1226,4.2865-.0783,8.6005,1.4806,11.9294,4.6902,3.3289,3.2095,5.0441,7.4637,5.12,11.7478.0782,4.2865-1.4782,8.6029-4.6877,11.9318s-7.4662,5.0418-11.7503,5.1176c-4.2841.0806-8.6004-1.4758-11.9293-4.6853s-5.0419-7.4662-5.1201-11.7528c-.0781-4.2817,1.4782-8.5979,4.6878-11.9269h0ZM1056.9174,671.6142c-3.6274.0638-7.2293,1.5152-9.9443,4.3312s-4.0316,6.466-3.9629,10.0933c.0663,3.6248,1.5151,7.2244,4.3311,9.9394s6.4661,4.0315,10.0909,3.9654c3.6248-.0663,7.2243-1.5152,9.9393-4.3312s4.034-6.4685,3.9679-10.0933c-.0662-3.6248-1.5152-7.2243-4.3312-9.9393s-6.466-4.0316-10.0908-3.9655h0Z"/>
  <path class="cls-18" d="M1059.1178,735.9948l1.3451,4.6685,3.95-.3833.4243.6517c.239.3661.4898.7148.7478,1.041.2655.3337.5455.6521.84.9554l.5489.5679-1.2554,3.7577,4.2518,2.3479,2.5154-3.0569.7662.1615c.4512.0954.8725.1668,1.2611.2116l.0048-.005c.4207.0466.8461.0735,1.271.0805l.7807.0104,1.7741,3.5492,4.6685-1.3449-.3832-3.9451.6517-.4244c.3661-.2388.7148-.4898,1.0411-.7477.3336-.2654.652-.5454.9578-.8424l.5656-.5464,3.755,1.253,2.3481-4.2518-3.0545-2.5131.1638-.7687c.0888-.419.1576-.8427.2018-1.2609.0491-.4233.0782-.8512.0829-1.2786l.0129-.7783,3.5493-1.774-1.3451-4.6685-3.9474.3858-.4245-.6518c-.2389-.3711-.4872-.7173-.7501-1.0434-.2629-.3312-.5404-.6521-.8375-.9579l-.5488-.563,1.2554-3.7576-4.2518-2.3479-2.5155,3.0568-.7687-.1638c-.4216-.0911-.8427-.1575-1.261-.2066-.4233-.0443-.8511-.0735-1.276-.0805l-.7807-.0104-1.7717-3.5517-4.6709,1.3474.3858,3.9476-.6543.4219c-.3661.2388-.7123.4872-1.0362.7476-.3335.2655-.6569.5455-.9603.84l-.568.5489-3.755-1.253-2.3504,4.2494,3.0593,2.5178-.1637.7688c-.0887.4191-.1575.8428-.2043,1.2585l-.0049.0002c-.0446.3985-.0715.8237-.0756,1.2759l-.0154.7808-3.5492,1.774ZM1058.0511,741.5595l-1.453-5.0444-.005-.0048c-.1663-.5775-.0979-1.1666.1473-1.6676l.0024-.0025c.2285-.4735.6214-.8709,1.1285-1.0999l2.2714-1.1332c.0179-.24.0382-.4823.0658-.7323l-.0025-.0024c.0276-.245.0603-.4852.0978-.7255l-2.0211-1.6624c-.4364-.3576-.7095-.8442-.8104-1.3635-.0985-.5267-.0173-1.084.2528-1.5756l2.5391-4.6011c.2893-.5215.7569-.8906,1.2871-1.0732.5031-.1746,1.0613-.1749,1.5835.018l2.4032.8034c.1848-.1615.3722-.3155.562-.4673.1948-.1566.3897-.3035.5848-.4453l-.2526-2.6012c-.0574-.5696.0958-1.1109.3916-1.5486.2983-.4401.749-.7769,1.2897-.93l.0024.0023,5.0419-1.4555c.58-.1637,1.1715-.098,1.6724.1425.476.2309.8734.6238,1.105,1.1332l1.1307,2.2692c.2473.0151.4923.0379.7373.0655.2401.0278.4827.0579.7206.0981l1.6675-2.0212c.3575-.4363.8441-.7096,1.361-.808.5267-.1034,1.0889-.0224,1.5755.2479l4.5986,2.5417c.5265.2893.8957.7567,1.0782,1.2869.1698.5033.175,1.0614-.0205,1.5813l-.8008,2.4055c.1589.1824.3129.3697.4647.5597.1542.1923.3034.3896.4479.5871l2.5987-.2549c.5671-.0548,1.1107.0957,1.5485.3917.4402.2982.777.754.9325,1.292l-.0048.0002,1.4554,5.0418.005.0048c.1638.58.1004,1.169-.1449,1.6699l-.0048.005c-.2309.4711-.6238.8686-1.1284,1.1l-2.2691,1.1307c-.0152.2474-.0379.4923-.0655.7374-.0302.2425-.0629.4827-.1004.723l2.0211,1.6624c.449.3697.7249.8735.8187,1.4103.0886.522-.0025,1.0795-.2802,1.5637h0l-2.5226,4.5637c-.2726.494-.7032.8502-1.1963,1.0443-.4954.1919-1.0606.2146-1.59.039h0l-2.4851-.8291c-.1823.159-.3672.3155-.5572.4671-.1972.1543-.3896.3036-.5896.4454l.2526,2.6013c.0597.567-.0935,1.1083-.3892,1.546-.2983.4401-.7515.7794-1.2896.935l-.0002-.005-5.0468,1.4557c-.5798.1687-1.1739.1005-1.6748-.1448-.4736-.2335-.8686-.624-1.1001-1.1285l-1.1332-2.2715c-.2448-.0129-.4898-.0355-.7348-.0631v-.0049c-.2477-.0301-.4878-.0627-.7231-.0956l-1.6624,2.0212c-.36.4388-.8465.712-1.366.808-.5267.1034-1.084.0222-1.5755-.2479l-4.5986-2.5417c-.524-.2869-.8932-.7544-1.0757-1.2845-.1723-.5057-.175-1.0663.0204-1.5862l.8034-2.4032c-.1615-.1848-.3179-.3695-.4671-.557-.1567-.1947-.306-.3921-.4479-.5872l-2.6062.2526v-.0049c-.5697.0574-1.1084-.0934-1.5411-.3893-.4402-.2982-.7769-.749-.9325-1.2871l.0024-.0025ZM1084.8554,738.5556c-1.3485,2.4404-3.561,4.1012-6.0501,4.8159l-.0048.005c-2.4841.7147-5.2424.481-7.6853-.8699-2.4402-1.3485-4.1035-3.5634-4.8183-6.0525-.7173-2.4867-.4836-5.2449.8673-7.6878,1.3511-2.4379,3.5636-4.0986,6.0501-4.8159l.0048-.005c2.4841-.7147,5.2425-.4809,7.6853.8699,2.4403,1.3486,4.1036,3.5635,4.8159,6.0501l.005.0048c.7147,2.4841.4811,5.2425-.8699,7.6853h0ZM1078.0959,740.9071c1.8501-.5352,3.4973-1.7756,4.5088-3.5996,1.0066-1.8191,1.1815-3.8774.6487-5.73h0c-.5329-1.8527-1.7732-3.4998-3.5948-4.509-1.8239-1.0066-3.8796-1.1789-5.7349-.6486l.0024-.0025c-1.8527.5328-3.4997,1.7733-4.5087,3.5997-1.0067,1.819-1.1815,3.8773-.6488,5.7299.5327,1.8477,1.7732,3.4998,3.5948,4.509,1.8214,1.0041,3.8796,1.179,5.7323.6461l.0002.005Z"/>
</svg>