<?xml version="1.0" encoding="UTF-8"?>
<svg id="Layer_1" data-name="Layer 1" xmlns="http://www.w3.org/2000/svg" viewBox="0 0 285.9354 288.6523">
  <defs>
    <style>
      .cls-1 {
        stroke: #121216;
        stroke-width: 19.2981px;
      }

      .cls-1, .cls-2, .cls-3, .cls-4, .cls-5 {
        stroke-linecap: round;
      }

      .cls-1, .cls-3, .cls-4, .cls-5 {
        fill: none;
      }

      .cls-1, .cls-5 {
        stroke-miterlimit: 10;
      }

      .cls-2, .cls-3 {
        stroke-width: 8.5042px;
      }

      .cls-2, .cls-3, .cls-4 {
        stroke: #272730;
        stroke-linejoin: round;
      }

      .cls-2, .cls-6 {
        fill: #63c189;
      }

      .cls-6, .cls-7 {
        stroke-width: 0px;
      }

      .cls-4 {
        stroke-width: 4.2521px;
      }

      .cls-5 {
        stroke: #fff;
        stroke-width: 15.0406px;
      }

      .cls-7 {
        fill: #fff;
      }
    </style>
  </defs>
  <circle class="cls-6" cx="142.9677" cy="97.4028" r="78.2006"/>
  <path class="cls-3" d="M207.9837,53.9486c23.9991,35.9073,14.3455,84.471-21.5618,108.4701-35.9073,23.9991-84.471,14.3455-108.4701-21.5618-23.9991-35.9073-14.3455-84.471,21.5618-108.4701,21.249-14.202,46.9302-16.619,69.3301-8.7843"/>
  <path class="cls-4" d="M148.1108,164.1028c-18.5696,1.1136-35.7995-5.5979-48.4759-17.2844"/>
  <path class="cls-1" d="M92.226,97.8229s14.9026,31.0471,36.0147,40.9822c21.1121,9.9351,75.755-129.1561,75.755-129.1561"/>
  <path class="cls-5" d="M92.226,97.8229s14.9026,31.0471,36.0147,40.9822c21.1121,9.9351,75.755-129.1561,75.755-129.1561"/>
  <rect class="cls-2" x="4.2521" y="193.6122" width="277.4312" height="90.7879" rx="20" ry="20"/>
  <g>
    <path class="cls-7" d="M40.8608,223.1325c1.5586,0,3.0283.1367,4.4092.4102,1.8594.3691,2.7891,1.1553,2.7891,2.3584,0,.3965-.0923.6943-.2769.8926s-.6528.4883-1.4048.8711c-.6289.3145-1.0425,1.0049-1.2407,2.0713s-.2974,3.1445-.2974,6.2344c0,5.2227.1299,8.4561.3896,9.7002.0957.3965.2427.7012.4409.9131s.5435.4404,1.0356.6865c.9023.4102,1.3535,1.0049,1.3535,1.7842,0,1.0938-.834,1.8457-2.502,2.2559-1.8047.4375-4.0127.6562-6.624.6562-4.457,0-6.6855-.8477-6.6855-2.543,0-.6152.4375-1.1895,1.3125-1.7227.6699-.4102,1.0664-.9707,1.1895-1.6816.2598-1.5586.3896-4.8672.3896-9.9258,0-3.5-.1777-5.7422-.5332-6.7266-.1914-.5605-.6494-1.0664-1.374-1.5176-.5605-.3691-.9365-.6768-1.1279-.9229s-.2871-.5605-.2871-.9434c0-.5879.2837-1.0557.8511-1.4043s1.5688-.6602,3.0044-.9336c1.709-.3418,3.4385-.5127,5.1885-.5127Z"/>
    <path class="cls-7" d="M60.7328,224.5476l10.2129,8.9414c.957.834,1.6475,1.251,2.0713,1.251.7109,0,1.0664-.7588,1.0664-2.2764,0-1.7227-.1025-2.8984-.3076-3.5273s-.6357-1.1006-1.292-1.415c-.5332-.2598-.9092-.5361-1.1279-.8301s-.3281-.6738-.3281-1.1387c0-1.1484.7861-1.8867,2.3584-2.2148.6426-.1367,1.7637-.2051,3.3633-.2051,2.0645,0,3.4932.123,4.2861.3691,1.2578.3828,1.8867,1.1074,1.8867,2.1738,0,.8887-.5127,1.5586-1.5381,2.0098-.4102.1777-.6904.335-.8408.4717s-.2803.3418-.3896.6152c-.3691.9023-.5605,2.6113-.5742,5.127v6.6855c0,1.0254.0068,2.4268.0205,4.2041.0137,2.4062-.1299,4.1426-.4307,5.209-.3691,1.3262-1.0391,1.9893-2.0098,1.9893-.4238,0-.7896-.0889-1.0972-.2666s-.8169-.5879-1.5278-1.2305l-12.1611-10.8896c-.8477-.7656-1.5518-1.1484-2.1123-1.1484-.834,0-1.251,1.1553-1.251,3.4658,0,1.9004.106,3.1992.3179,3.8965s.646,1.21,1.3022,1.5381c.916.4512,1.374,1.0391,1.374,1.7637,0,1.9004-2.0439,2.8506-6.1318,2.8506-1.8457,0-3.2778-.2432-4.2964-.7285-1.0186-.4844-1.5278-1.1719-1.5278-2.0605,0-.4648.0957-.8135.2871-1.0459s.6221-.5469,1.292-.9434c.6426-.3828,1.0322-1.0596,1.1689-2.0303.2324-1.7637.3486-4.2998.3486-7.6084,0-3.5273-.2051-6.0977-.6152-7.7109-.1504-.5879-.3418-1.0254-.5742-1.3125s-.6152-.5605-1.1484-.8203c-.6152-.3008-1.0425-.5947-1.2817-.8818s-.3589-.6357-.3589-1.0459c0-1.3125,1.1279-2.1396,3.3838-2.4814.7656-.1094,2.1055-.1641,4.0195-.1641,1.0938,0,1.8901.0859,2.3892.2568s1.0903.5566,1.7739,1.1582Z"/>
    <path class="cls-7" d="M107.2035,222.989c1.4082,0,3.2539.3486,5.5371,1.0459.2734.082.4922.123.6562.123.1367,0,.5469-.123,1.2305-.3691.2188-.082.4512-.123.6973-.123.916,0,1.8833.7246,2.9019,2.1738s1.5278,2.8301,1.5278,4.1426c0,.7656-.229,1.4121-.687,1.9385s-1.0151.7891-1.6714.7891c-.5469,0-.9912-.1094-1.333-.3281s-1.0938-.8682-2.2559-1.9482c-1.6406-1.5312-3.2539-2.2969-4.8398-2.2969-.7656,0-1.3774.1846-1.8354.5537s-.687.8545-.687,1.4561c0,1.1895,1.0459,2.085,3.1377,2.6865,2.8301.834,4.6416,1.4424,5.4346,1.8252,3.4863,1.6953,5.2295,4.1904,5.2295,7.4854,0,2.9121-1.1895,5.291-3.5684,7.1367-2.4336,1.8867-5.6123,2.8301-9.5361,2.8301-1.75,0-3.5957-.209-5.5371-.626-1.9414-.416-3.3428-.9053-4.2041-1.4658-.6562-.4375-1.2476-1.3906-1.7739-2.8604s-.7896-2.9023-.7896-4.2969c0-.6699.1367-1.1758.4102-1.5176.3418-.4375.7725-.6562,1.292-.6562s1.0186.2666,1.4971.7998c.2871.3008.9639,1.2646,2.0303,2.8916.5059.7656,1.3091,1.4014,2.4097,1.9072s2.2388.7588,3.4146.7588c1.0117,0,1.832-.1875,2.4609-.5645.6289-.375.9434-.8574.9434-1.4453,0-.5469-.2461-1.0186-.7383-1.415s-1.292-.7656-2.3994-1.1074c-1.9551-.6152-3.4453-1.1787-4.4707-1.6924-1.0254-.5117-1.9824-1.1582-2.8711-1.9375-2.1602-1.9141-3.2402-4.0879-3.2402-6.5215,0-1.2031.2803-2.375.8408-3.5166s1.3535-2.1299,2.3789-2.9639c2.2969-1.9277,5.0996-2.8916,8.4082-2.8916Z"/>
    <path class="cls-7" d="M130.9106,223.5632h10.8076c1.1621-.041,2.2217-.1982,3.1787-.4717.4102-.1094.7725-.1641,1.0869-.1641,1.1074,0,2.1836.8203,3.2305,2.4609,1.0449,1.6406,1.5684,3.3291,1.5684,5.0654,0,1.1895-.3623,2.0576-1.0869,2.6045-.5469.4102-1.2031.6152-1.9688.6152-.7246,0-1.3535-.2012-1.8867-.6045s-1.0596-1.0703-1.5791-2c-.4512-.8477-.8066-1.4014-1.0664-1.6611s-.5742-.3896-.9434-.3896c-.5059,0-.8682.2119-1.0869.6357s-.3281,1.1211-.3281,2.0918v11.4844c0,1.1758.123,2.0303.3691,2.5635s.7109.9434,1.3945,1.2305c.7383.3145,1.2412.6123,1.5068.8916.2676.2812.4004.667.4004,1.1592,0,.9844-.666,1.7158-2,2.1943-1.332.4785-3.3799.7178-6.1416.7178-3.3906,0-5.9062-.2803-7.5469-.8408-1.3809-.4648-2.0713-1.2168-2.0713-2.2559,0-.5605.2461-.998.7383-1.3125.123-.0684.6084-.2324,1.4561-.4922.5195-.1504.8784-.4375,1.0767-.8613s.3589-1.2373.4819-2.4404c.1094-1.0664.2119-2.792.3076-5.1787.0957-2.3848.1436-4.4531.1436-6.2031,0-1.2305-.0957-2.1055-.2871-2.625s-.5059-.7793-.9434-.7793c-.5332,0-1.0527.3828-1.5586,1.1484-.916,1.3945-1.668,2.3174-2.2559,2.7686-.6973.5332-1.374.7998-2.0303.7998-.7383,0-1.3467-.2764-1.8252-.8301s-.7178-1.2617-.7178-2.123c0-.8477.1914-1.7803.5742-2.7988s.8955-1.959,1.5381-2.8203c1.0391-1.3945,2.0645-2.0918,3.0762-2.0918.2734,0,.5879.041.9434.123.7383.1504,1.3433.2529,1.8149.3076s1.0151.082,1.6304.082Z"/>
    <path class="cls-7" d="M167.1274,222.989c3.5137,0,6.583,1.0049,9.208,3.0146,1.7773,1.3809,3.2197,3.1719,4.3271,5.373,1.0801,2.1875,1.6201,4.375,1.6201,6.5625,0,3.2266-1.0664,6.1113-3.1992,8.6543-1.8047,2.1602-4.1631,3.7119-7.0752,4.6553-1.791.5742-3.5889.8613-5.3936.8613-2.3652,0-4.6279-.4922-6.7881-1.4766-2.6113-1.1895-4.6553-2.9873-6.1318-5.3936-1.4355-2.3242-2.1533-4.8877-2.1533-7.6904,0-3.2539.9229-6.125,2.7686-8.6133,1.6406-2.2148,3.8486-3.8418,6.624-4.8809,1.8594-.7109,3.9238-1.0664,6.1934-1.0664ZM165.1791,228.8747c-1.1484,0-2.0576.5127-2.7275,1.5381-.5195.7656-.7793,1.6748-.7793,2.7275,0,1.5449.3145,3.332.9434,5.3633.6289,2.0293,1.4219,3.8311,2.3789,5.4033.4238.6699.9463,1.2031,1.5684,1.5996s1.2549.5947,1.8975.5947c1.0391,0,1.876-.3896,2.5127-1.1689.6348-.7793.9531-1.8047.9531-3.0762,0-1.6543-.2666-3.4385-.7998-5.3525s-1.2236-3.5479-2.0713-4.9014c-.5195-.834-1.1211-1.4902-1.8047-1.9688s-1.374-.7314-2.0713-.7588Z"/>
    <path class="cls-7" d="M199.6938,222.989c1.9961,0,3.9238.4375,5.7832,1.3125.875.4102,1.4834.6152,1.8252.6152.2461,0,.6426-.0615,1.1895-.1846.1777-.041.376-.0615.5947-.0615.7109,0,1.333.3281,1.8662.9844,1.3125,1.5859,1.9688,3.5547,1.9688,5.9062,0,1.6543-.5674,2.8643-1.7021,3.6299-.6152.4102-1.3057.6152-2.0713.6152-.6973,0-1.2646-.1504-1.7021-.4512s-.8613-.834-1.2715-1.5996c-.5879-1.0801-1.0664-1.8555-1.4355-2.3271s-.8203-.8994-1.3535-1.2822c-1.3262-.9297-2.7139-1.3945-4.1631-1.3945-1.4082,0-2.5264.5098-3.3525,1.5283-.8281,1.0186-1.2412,2.3818-1.2412,4.0908,0,2.3516.5947,4.5049,1.7842,6.46,1.6133,2.6113,3.9238,3.917,6.9316,3.917,1.1074,0,2.2051-.1846,3.291-.5537,1.0879-.3691,1.9316-.8477,2.5332-1.4355.5195-.4922.9434-.7383,1.2715-.7383.4785,0,.8887.2227,1.2305.667s.5127.9805.5127,1.6094c0,.793-.2393,1.6816-.7178,2.666s-1.0527,1.7568-1.7227,2.3174c-.2871.2324-.8818.4375-1.7842.6152-.5195.0957-1.21.3486-2.0713.7588-2.0234.9707-4.1289,1.4561-6.3164,1.4561-2.2832,0-4.5596-.5127-6.8291-1.5381-2.6387-1.1895-4.7236-3.0146-6.2549-5.4756-1.5039-2.3926-2.2559-4.8945-2.2559-7.5059,0-3.0352.9434-5.8037,2.8301-8.3057,1.6406-2.1738,3.7803-3.835,6.4189-4.9834,2.0098-.875,4.0811-1.3125,6.2139-1.3125Z"/>
    <path class="cls-7" d="M238.5151,229.1618l-2.1943,2.1123c-.8066.7656-1.21,1.4629-1.21,2.0918,0,.3418.0918.6836.2773,1.0254.1836.3418.5293.8066,1.0352,1.3945l7.6699,8.8799c.6836.793,1.1553,1.2959,1.415,1.5078s.6494.4336,1.1689.666c.7383.3145,1.2617.6631,1.5684,1.0459.3086.3828.4619.8818.4619,1.4971,0,1.4492-1.0322,2.1738-3.0967,2.1738h-7.7725c-.5332,0-.9541-.1162-1.2607-.3486-.3086-.2324-.7969-.8066-1.4668-1.7227-1.0664-1.4629-2.4746-3.1445-4.2246-5.0449-.7656-.8203-1.3027-1.3564-1.6094-1.6104-.3086-.252-.5918-.3789-.8516-.3789-.793,0-1.1895.7451-1.1895,2.2354,0,1.2168.2598,2.0576.7793,2.5225.0957.0684.3145.2188.6562.4512.7383.4785,1.1074,1.0732,1.1074,1.7842,0,.9023-.6016,1.5479-1.8047,1.9385-1.2031.3887-3.2266.584-6.0703.584-2.5293,0-4.375-.1504-5.5371-.4512-.4922-.1367-.8926-.3857-1.1992-.748-.3086-.3623-.4619-.7695-.4619-1.2207,0-.7246.4102-1.3467,1.2305-1.8662.3691-.2461.6318-.5156.79-.8096.1562-.2939.3037-.79.4404-1.4873.2734-1.5449.4102-3.9238.4102-7.1367,0-3.8281-.1436-6.542-.4307-8.1416-.1094-.6562-.2598-1.1279-.4512-1.415s-.5264-.5674-1.0049-.8408c-.7656-.4375-1.1484-1.0459-1.1484-1.8252,0-.6562.2393-1.1826.7178-1.5791s1.2441-.6973,2.2969-.9023c1.3945-.2734,3.1445-.4102,5.25-.4102,2.1465,0,3.7393.2051,4.7783.6152.9297.3828,1.3945,1.0664,1.3945,2.0508,0,.4102-.0713.7285-.2158.9541-.1426.2256-.5156.5771-1.1172,1.0557-.2188.1914-.4199.6494-.6055,1.374-.1836.7246-.2764,1.4355-.2764,2.1328,0,1.1484.2598,1.7227.7793,1.7227.3145,0,.6182-.1367.9131-.4102.293-.2734.8848-.957,1.7734-2.0508,1.0254-1.2715,1.5381-2.1396,1.5381-2.6045,0-.2461-.1299-.6152-.3896-1.1074-.1777-.3418-.2666-.6562-.2666-.9434,0-1.0117.5469-1.7256,1.6406-2.1426s2.96-.626,5.5986-.626c2.1055,0,3.6641.1367,4.6758.4102,1.2441.3418,1.8662,1.0664,1.8662,2.1738,0,.4375-.1299.8447-.3896,1.2207s-.5811.6182-.9639.7275c-.2871.0957-.9502.1504-1.9893.1641-.7246.0137-1.2686.0996-1.6309.2568s-.8301.5088-1.4043,1.0557Z"/>
  </g>
</svg>