<?xml version="1.0" encoding="UTF-8"?>
<svg id="Layer_1" data-name="Layer 1" xmlns="http://www.w3.org/2000/svg" viewBox="0 0 481.5645 167.225">
  <defs>
    <style>
      .cls-1 {
        fill: #fff;
        stroke-width: 0px;
      }

      .cls-2 {
        fill: #63c189;
        stroke: #272730;
        stroke-linecap: round;
        stroke-linejoin: round;
        stroke-width: 14.3226px;
      }
    </style>
  </defs>
  <rect class="cls-2" x="7.1613" y="7.1613" width="467.2419" height="152.9024" rx="33.6834" ry="33.6834"/>
  <g>
    <path class="cls-1" d="M68.8164,56.8776c2.625,0,5.1001.2305,7.4258.6914,3.1313.6211,4.6973,1.9463,4.6973,3.9717,0,.668-.1553,1.1689-.4663,1.5029-.3105.334-1.0996.8232-2.3657,1.4678-1.0596.5293-1.7563,1.6924-2.0898,3.4883-.334,1.7959-.5005,5.2959-.5005,10.5,0,8.7964.2183,14.2417.6562,16.3364.1606.6689.4082,1.1807.7422,1.5371.334.3574.9155.7432,1.7446,1.1572,1.5195.6914,2.2793,1.6924,2.2793,3.0049,0,1.8428-1.4048,3.1084-4.2139,3.7998-3.0391.7363-6.7578,1.1045-11.1558,1.1045-7.5068,0-11.2598-1.4268-11.2598-4.2822,0-1.0361.7368-2.0039,2.2104-2.9014,1.1279-.6904,1.7964-1.6348,2.0034-2.832.437-2.625.6562-8.1973.6562-16.7173,0-5.8945-.2993-9.6709-.8979-11.3291-.3228-.9434-1.0938-1.7959-2.314-2.5557-.9448-.6221-1.5776-1.1396-1.8999-1.5537-.3228-.415-.4834-.9443-.4834-1.5889,0-.9902.4775-1.7793,1.4331-2.3662s2.6426-1.1104,5.0601-1.5713c2.8779-.5752,5.7905-.8643,8.7383-.8643Z"/>
    <path class="cls-1" d="M102.2847,59.2614l17.2002,15.0586c1.6113,1.4053,2.7744,2.1074,3.4883,2.1074,1.1973,0,1.7959-1.2783,1.7959-3.834,0-2.9014-.1724-4.8818-.5181-5.9404-.3452-1.0596-1.0703-1.8535-2.1758-2.3838-.8979-.4365-1.5317-.9033-1.8994-1.3984-.3687-.4951-.5527-1.1338-.5527-1.917,0-1.9346,1.3237-3.1777,3.9717-3.7305,1.082-.2295,2.9707-.3457,5.6646-.3457,3.4766,0,5.8828.208,7.2188.6221,2.1182.6445,3.1772,1.8652,3.1772,3.6611,0,1.4971-.8633,2.625-2.5903,3.3848-.6909.2998-1.1631.5645-1.416.7949-.2534.2305-.4722.5752-.6562,1.0361-.6216,1.5195-.9443,4.3975-.9673,8.6338v11.2603c0,1.7275.0117,4.0879.0347,7.0811.0229,4.0527-.2192,6.9766-.7251,8.7725-.6216,2.2334-1.7505,3.3506-3.3848,3.3506-.7144,0-1.3301-.1504-1.8481-.4492s-1.376-.9902-2.5728-2.0723l-20.4814-18.3398c-1.4282-1.2905-2.6138-1.9351-3.5576-1.9351-1.4048,0-2.1069,1.9468-2.1069,5.8374,0,3.2012.1782,5.3887.5352,6.5625.3569,1.1748,1.0884,2.0381,2.1934,2.5908,1.5425.7598,2.314,1.75,2.314,2.9697,0,3.2012-3.4424,4.8008-10.3267,4.8008-3.1089,0-5.521-.4092-7.2358-1.2256-1.7158-.8174-2.5732-1.9746-2.5732-3.4717,0-.7822.1606-1.3691.4834-1.7607.3223-.3916,1.0474-.9209,2.1758-1.5889,1.082-.6445,1.7383-1.7842,1.9688-3.4199.3916-2.9697.5874-7.2412.5874-12.814,0-5.9404-.3457-10.2695-1.0361-12.9863-.2539-.9902-.5762-1.7275-.9673-2.2109-.3916-.4834-1.0361-.9434-1.9341-1.3818-1.0361-.5059-1.7563-1.001-2.1587-1.4844-.4033-.4834-.6045-1.0713-.6045-1.7617,0-2.2109,1.8999-3.6035,5.6987-4.1797,1.2896-.1836,3.5459-.2764,6.77-.2764,1.8418,0,3.1826.1445,4.0234.4326.8403.2881,1.8359.9385,2.9878,1.9512Z"/>
    <path class="cls-1" d="M180.5493,56.6364c2.3711,0,5.4795.5869,9.3252,1.7617.46.1377.8291.207,1.1055.207.2295,0,.9209-.207,2.0723-.6221.3682-.1377.7598-.207,1.1738-.207,1.543,0,3.1719,1.2207,4.8877,3.6611,1.7148,2.4414,2.5732,4.7666,2.5732,6.9766,0,1.29-.3857,2.3779-1.1572,3.2646-.7715.8857-1.71,1.3291-2.8154,1.3291-.9209,0-1.6689-.1836-2.2441-.5527-.5762-.3682-1.8428-1.4619-3.7998-3.2812-2.7627-2.5781-5.4805-3.8682-8.1514-3.8682-1.2891,0-2.3193.3105-3.0908.9326s-1.1572,1.4395-1.1572,2.4521c0,2.0039,1.7617,3.5117,5.2842,4.5244,4.7666,1.4053,7.8174,2.4297,9.1533,3.0742,5.8711,2.8555,8.8076,7.0576,8.8076,12.6069,0,4.9043-2.0039,8.9111-6.0098,12.0195-4.0996,3.1777-9.4531,4.7666-16.0605,4.7666-2.9482,0-6.0566-.3516-9.3262-1.0537s-5.6299-1.5244-7.0801-2.4697c-1.1055-.7363-2.1016-2.3418-2.9873-4.8174-.8867-2.4756-1.3301-4.8877-1.3301-7.2363,0-1.1279.2295-1.9795.6904-2.5557.5762-.7363,1.3008-1.1055,2.1768-1.1055.874,0,1.7148.4492,2.5205,1.3477.4844.5059,1.624,2.1299,3.4199,4.8691.8516,1.29,2.2041,2.3604,4.0586,3.2129,1.8525.8516,3.7695,1.2773,5.75,1.2773,1.7041,0,3.0859-.3164,4.1445-.9492,1.0596-.6338,1.5889-1.4453,1.5889-2.4355,0-.9209-.4141-1.7148-1.2432-2.3828s-2.1758-1.2891-4.041-1.8652c-3.293-1.0361-5.8027-1.9863-7.5293-2.8496-1.7275-.8633-3.3389-1.9512-4.8359-3.2642-3.6377-3.2236-5.457-6.8848-5.457-10.9834,0-2.0264.4717-4.001,1.416-5.9238.9443-1.9219,2.2803-3.5859,4.0068-4.9902,3.8682-3.2471,8.5879-4.8701,14.1611-4.8701Z"/>
    <path class="cls-1" d="M220.4761,57.6032h18.2012c1.957-.0693,3.7417-.333,5.353-.7939.6914-.1846,1.3008-.2764,1.8311-.2764,1.8652,0,3.6787,1.3818,5.4395,4.1445,1.7617,2.7627,2.6426,5.6074,2.6426,8.5312,0,2.0029-.6104,3.4658-1.8311,4.3857-.9209.6914-2.0264,1.0361-3.3154,1.0361-1.2207,0-2.2793-.3389-3.1777-1.0186-.8975-.6787-1.7842-1.8018-2.6592-3.3672-.7598-1.4277-1.3589-2.3604-1.7954-2.7979-.4375-.4375-.9668-.6562-1.5889-.6562-.8525,0-1.4629.3574-1.8311,1.0703-.3682.7148-.5518,1.8887-.5518,3.5234v19.3423c0,1.9805.207,3.4189.6211,4.3174.415.8975,1.1973,1.5889,2.3486,2.0723,1.2432.5293,2.0894,1.0303,2.5386,1.502.4492.4727.6729,1.123.6729,1.9521,0,1.6572-1.1221,2.8896-3.3667,3.6953-2.2451.8057-5.6934,1.209-10.3447,1.209-5.71,0-9.9463-.4727-12.71-1.416-2.3262-.7832-3.4883-2.0498-3.4883-3.7998,0-.9434.4141-1.6807,1.2432-2.21.207-.1152,1.0244-.3916,2.4521-.8291.875-.2529,1.4795-.7363,1.8135-1.4512.334-.7129.6045-2.083.8115-4.1094.1846-1.7959.3574-4.7031.5186-8.7222.1611-4.0176.2412-7.5.2412-10.4473,0-2.0723-.1611-3.5459-.4834-4.4209s-.8516-1.3125-1.5889-1.3125c-.8975,0-1.7734.6445-2.625,1.9336-1.543,2.3486-2.8096,3.9033-3.7988,4.6631-1.1748.8975-2.3145,1.3467-3.4189,1.3467-1.2441,0-2.2686-.4658-3.0742-1.3984-.8066-.9326-1.209-2.124-1.209-3.5752,0-1.4268.3223-2.999.9668-4.7139.6445-1.7158,1.5078-3.2988,2.5908-4.749,1.749-2.3486,3.4766-3.5234,5.1807-3.5234.46,0,.9902.0693,1.5889.207,1.2432.2539,2.2617.4268,3.0566.5186.7939.0918,1.71.1377,2.7461.1377Z"/>
    <path class="cls-1" d="M281.4717,56.6364c5.917,0,11.0869,1.6924,15.5078,5.0771,2.9932,2.3262,5.4229,5.3418,7.2881,9.0488,1.8184,3.6846,2.7285,7.3691,2.7285,11.0527,0,5.4351-1.7959,10.2925-5.3887,14.5757-3.0391,3.6387-7.0107,6.252-11.915,7.8398-3.0176.9678-6.0449,1.4512-9.084,1.4512-3.9844,0-7.7949-.8291-11.4326-2.4873-4.3984-2.0029-7.8398-5.0303-10.3271-9.083-2.417-3.9141-3.626-8.2314-3.626-12.9526,0-5.4795,1.5537-10.3154,4.6621-14.5059,2.7637-3.7305,6.4814-6.4707,11.1562-8.2207,3.1309-1.1973,6.6084-1.7959,10.4307-1.7959ZM278.1904,66.5485c-1.9336,0-3.4658.8643-4.5938,2.5908-.875,1.29-1.3125,2.8213-1.3125,4.5938,0,2.6025.5293,5.6123,1.5889,9.0322,1.0586,3.4194,2.3945,6.4536,4.0068,9.1011.7129,1.1279,1.5938,2.0264,2.6416,2.6943s2.1123,1.001,3.1953,1.001c1.75,0,3.1602-.6562,4.2305-1.9688,1.0713-1.3125,1.6064-3.0391,1.6064-5.1807,0-2.7852-.4492-5.7905-1.3467-9.0151-.8984-3.2236-2.0615-5.9746-3.4883-8.2549-.876-1.4043-1.8887-2.5088-3.04-3.3154-1.1514-.8057-2.3135-1.2314-3.4883-1.2783Z"/>
    <path class="cls-1" d="M336.3193,56.6364c3.3613,0,6.6084.7373,9.7393,2.21,1.4736.6914,2.499,1.0361,3.0742,1.0361.415,0,1.082-.1035,2.0039-.3105.2988-.0693.6328-.1035,1.001-.1035,1.1973,0,2.2451.5527,3.1436,1.6582,2.21,2.6709,3.3154,5.9863,3.3154,9.9473,0,2.7861-.9561,4.8232-2.8672,6.1133-1.0361.6904-2.1982,1.0361-3.4883,1.0361-1.1738,0-2.1299-.2539-2.8662-.7598-.7373-.5068-1.4512-1.4043-2.1416-2.6943-.9902-1.8184-1.7959-3.126-2.418-3.9199-.6211-.7949-1.3809-1.5137-2.2793-2.1592-2.2334-1.5654-4.5713-2.3486-7.0117-2.3486-2.3711,0-4.2539.8584-5.6465,2.5732-1.3936,1.7158-2.0898,4.0127-2.0898,6.8906,0,3.9609,1.002,7.5869,3.0049,10.8804,2.7168,4.3984,6.6084,6.5967,11.6738,6.5967,1.8652,0,3.7129-.3105,5.5439-.9326,1.8301-.6221,3.252-1.4277,4.2656-2.418.874-.8291,1.5889-1.2432,2.1406-1.2432.8066,0,1.4971.375,2.0732,1.123.5752.748.8633,1.6523.8633,2.7109,0,1.3359-.4033,2.832-1.209,4.4902-.8066,1.6572-1.7734,2.959-2.9014,3.9023-.4834.3916-1.4854.7373-3.0049,1.0361-.875.1611-2.0381.5869-3.4883,1.2783-3.4082,1.6348-6.9541,2.4521-10.6377,2.4521-3.8457,0-7.6797-.8633-11.502-2.5908-4.4443-2.0029-7.9561-5.0771-10.5342-9.2217-2.5332-4.0293-3.7988-8.2422-3.7988-12.6411,0-5.1123,1.5889-9.7744,4.7656-13.9883,2.7637-3.6611,6.3672-6.459,10.8105-8.3936,3.3848-1.4727,6.874-2.21,10.4658-2.21Z"/>
    <path class="cls-1" d="M401.7012,67.0329l-3.6963,3.5566c-1.3584,1.29-2.0371,2.4648-2.0371,3.5234,0,.5762.1553,1.1514.4658,1.7266.3105.5762.8926,1.3594,1.7441,2.3486l12.918,14.9556c1.1504,1.3359,1.9453,2.1826,2.3828,2.5391.4375.3574,1.0938.7314,1.9688,1.1221,1.2432.5303,2.124,1.1172,2.6426,1.7617.5176.6455.7764,1.4854.7764,2.5215,0,2.4414-1.7383,3.6611-5.2148,3.6611h-13.0898c-.8984,0-1.6064-.1953-2.125-.5869-.5176-.3916-1.3408-1.3584-2.4688-2.9014-1.7959-2.4639-4.168-5.2959-7.1152-8.4971-1.29-1.3809-2.1934-2.2842-2.7109-2.7109-.5186-.4258-.9971-.6387-1.4336-.6387-1.3359,0-2.0039,1.2549-2.0039,3.7646,0,2.0498.4375,3.4658,1.3125,4.248.1611.1152.5303.3691,1.1055.7598,1.2432.8066,1.8652,1.8076,1.8652,3.0049,0,1.5195-1.0137,2.6074-3.0391,3.2637-2.0264.6562-5.4346.9844-10.2236.9844-4.2598,0-7.3691-.2529-9.3252-.7598-.8291-.2295-1.5029-.6504-2.0205-1.2607-.5186-.6094-.7773-1.2949-.7773-2.0547,0-1.2197.6904-2.2676,2.0723-3.1426.6221-.415,1.0645-.8691,1.3301-1.3643.2637-.4951.5117-1.3301.7422-2.5049.46-2.6016.6904-6.6074.6904-12.02,0-6.4463-.2412-11.0176-.7246-13.7119-.1846-1.1045-.4385-1.8994-.7598-2.3828-.3232-.4834-.8867-.9551-1.6924-1.416-1.29-.7363-1.9346-1.7617-1.9346-3.0742,0-1.1045.4023-1.9912,1.209-2.6592.8057-.668,2.0947-1.1738,3.8682-1.5195,2.3486-.4609,5.2959-.6914,8.8418-.6914,3.6152,0,6.2979.3457,8.0479,1.0371,1.5654.6445,2.3486,1.7959,2.3486,3.4531,0,.6914-.1211,1.2266-.3633,1.6064-.2412.3799-.8691.9727-1.8818,1.7783-.3691.3232-.708,1.0938-1.0195,2.3145-.3105,1.2207-.4658,2.418-.4658,3.5918,0,1.9346.4375,2.9014,1.3125,2.9014.5293,0,1.042-.2295,1.5371-.6904s1.4902-1.6113,2.9873-3.4541c1.7275-2.1416,2.5908-3.6035,2.5908-4.3867,0-.4141-.2197-1.0361-.6562-1.8652-.2998-.5752-.4492-1.1045-.4492-1.5889,0-1.7031.9209-2.9062,2.7627-3.6084s4.9854-1.0537,9.4297-1.0537c3.5449,0,6.1699.2305,7.875.6904,2.0947.5762,3.1426,1.7959,3.1426,3.6611,0,.7373-.2188,1.4219-.6562,2.0557-.4375.6328-.9785,1.042-1.623,1.2256-.4834.1611-1.6006.2539-3.3506.2764-1.2207.0234-2.1357.167-2.7461.4316s-1.3984.8584-2.3652,1.7793Z"/>
  </g>
</svg>