<?xml version="1.0" encoding="UTF-8"?>
<svg id="Layer_1" data-name="Layer 1" xmlns="http://www.w3.org/2000/svg" viewBox="0 0 299.5293 299.5293">
  <defs>
    <style>
      .cls-1 {
        fill: #b98e62;
      }

      .cls-1, .cls-2, .cls-3, .cls-4, .cls-5, .cls-6, .cls-7, .cls-8, .cls-9, .cls-10, .cls-11, .cls-12, .cls-13, .cls-14 {
        stroke-width: 0px;
      }

      .cls-2, .cls-9 {
        fill: #b49b84;
      }

      .cls-3 {
        fill: #d5c3a9;
      }

      .cls-3, .cls-9, .cls-10, .cls-14 {
        opacity: .8;
      }

      .cls-4 {
        fill: #855c4c;
      }

      .cls-5 {
        fill: #89644b;
      }

      .cls-6 {
        fill: #ebf3de;
      }

      .cls-7 {
        fill: #debb8d;
      }

      .cls-8 {
        fill: #ba905e;
      }

      .cls-10 {
        fill: #e6d3b3;
      }

      .cls-11, .cls-13 {
        fill: #231f20;
      }

      .cls-12 {
        fill: #987253;
      }

      .cls-13 {
        opacity: .2;
      }

      .cls-14 {
        fill: #ddc8ab;
      }
    </style>
  </defs>
  <rect class="cls-6" width="299.5293" height="299.5293" rx="17.1679" ry="17.1679"/>
  <g>
    <polygon class="cls-13" points="54.844 229.1818 45.3788 229.9881 17.6603 214.2626 32.7865 206.0819 54.844 229.1818"/>
    <polygon class="cls-13" points="214.6473 262.7336 205.1821 263.5399 177.4636 247.8144 192.5898 239.6336 214.6473 262.7336"/>
    <polygon class="cls-13" points="252.3273 183.2948 242.8622 184.1011 215.1436 168.3756 230.2698 160.1948 252.3273 183.2948"/>
    <polygon class="cls-13" points="193.6551 149.446 184.19 150.2523 156.4714 134.5268 171.5976 126.346 193.6551 149.446"/>
    <polygon class="cls-13" points="141.0047 118.6029 131.5395 119.4092 103.821 103.6836 118.9472 95.5029 141.0047 118.6029"/>
    <polygon class="cls-13" points="136.427 276.8295 126.9619 277.6359 63.4011 241.576 81.7642 230.5243 136.427 276.8295"/>
    <polygon class="cls-13" points="147.6623 212.3857 138.1971 213.192 74.6364 177.1322 92.9994 166.0804 147.6623 212.3857"/>
    <polygon class="cls-13" points="62.1162 163.9526 52.651 164.7589 4.3657 137.3973 22.7288 126.3455 62.1162 163.9526"/>
    <g>
      <polygon class="cls-12" points="20.2416 81.7458 62.1162 105.9221 62.1162 163.9454 20.2416 139.769 20.2416 81.7458"/>
      <polygon class="cls-5" points="20.2416 81.7458 62.1162 105.9221 62.1162 106.193 20.2416 82.0929 20.2416 81.7458"/>
      <polygon class="cls-1" points="103.9909 81.7458 62.1162 105.9221 62.1162 163.9454 103.9909 139.769 103.9909 81.7458"/>
      <polygon class="cls-7" points="20.2416 81.7458 62.1162 105.9221 103.9909 81.7458 62.1162 57.5695 20.2416 81.7458"/>
      <polygon class="cls-10" points="87.2412 72.0748 45.3788 96.2587 36.9913 91.4158 78.8658 67.2399 87.2412 72.0748"/>
    </g>
    <polygon class="cls-9" points="45.3788 96.2587 45.3667 115.593 36.9913 110.7568 36.9913 91.4158 45.3788 96.2587"/>
    <polygon class="cls-9" points="45.3788 134.941 45.3667 154.2753 36.9913 149.439 36.9913 130.098 45.3788 134.941"/>
    <g>
      <g>
        <path class="cls-11" d="M85.6239,82.422c-.9127-.7739-.4255-2.058,1.2147-3.005.0051-.0029.0104-.006.0157-.0088.1943-.1117.397-.2139.6056-.3066.166-.0739.3356-.1417.5079-.2033.5803-.2079,1.1878-.3451,1.775-.4072.8597-.0907,1.6759-.0206,2.3003.2247l-3.077,1.7765,3.4173,1.973c.2065.1193.5425.1193.749.0001s.2065-.3133,0-.4325l-.1195-.069c-.0732-.0423-.0732-.1108,0-.153s.1919-.0423.2651,0l.1195.069c.3527.2036.3527.535,0,.7386s-.9264.2035-1.2791-.0001l-3.4173-1.973-3.0772,1.7766Z"/>
        <path class="cls-11" d="M81.5707,81.0949l8.4138-4.8577,8.4138,4.8577-8.4138,4.8577-8.4138-4.8577ZM89.9845,76.6139l-7.7613,4.481,7.7613,4.481,7.7613-4.481-7.7613-4.481Z"/>
      </g>
      <g>
        <path class="cls-11" d="M72.4299,86.3723l8.4138-4.8577,8.4138,4.8577-8.4138,4.8577-8.4138-4.8577ZM80.8438,81.8913l-7.7613,4.481,7.7613,4.481,7.7613-4.481-7.7613-4.481Z"/>
        <g>
          <path class="cls-11" d="M76.3025,85.5503l2.1223,1.2253c.6921.3996,1.8246.3996,2.5169-.0001l.5263-.3039c.6921-.3996.6923-1.0535.0002-1.4531l-2.1223-1.2253-1.5395.8888.9592.1632-.6546.3779,2.7938.5843-3.5968-.3858.668-.3857-.7357-.0271-.9378.5414Z"/>
          <polygon class="cls-11" points="83.2629 88.0845 83.7285 87.8157 81.0699 86.2807 80.6043 86.5495 83.2629 88.0845"/>
          <polygon class="cls-11" points="83.2798 87.8254 85.3851 87.1943 82.2675 88.9942 83.2798 87.8254"/>
        </g>
      </g>
      <g>
        <path class="cls-11" d="M63.3747,91.6004l8.4138-4.8577,8.4138,4.8577-8.4138,4.8577-8.4138-4.8577ZM71.7885,87.1194l-7.7613,4.481,7.7613,4.481,7.7613-4.481-7.7613-4.481Z"/>
        <path class="cls-11" d="M68.8365,89.8594l9.3322,1.5027-6.7928,3.9218-2.5393-5.4246ZM69.6166,90.3134l2.0412,4.3604,5.4602-3.1525-7.5014-1.2079Z"/>
        <path class="cls-11" d="M73.8823,92.8092c-.1782.1029-.4258.0915-.5991-.0086-.1782-.1029-.1931-.243-.0149-.3459.1683-.0972.4209-.0943.5991.0086.1733.1001.1881.2458.0149.3459ZM72.699,92.3204l-2.4459-1.3321.4753-.2744,2.3073,1.4121-.3367.1944Z"/>
      </g>
      <g>
        <path class="cls-11" d="M54.2964,96.8417l8.4138-4.8577,8.4138,4.8577-8.4138,4.8577-8.4138-4.8577ZM62.7103,92.3607l-7.7613,4.481,7.7613,4.481,7.7613-4.481-7.7613-4.481Z"/>
        <g>
          <polygon class="cls-11" points="63.1549 100.2431 68.6017 97.0984 67.8026 96.637 62.3558 99.7817 63.1549 100.2431"/>
          <g>
            <polygon class="cls-11" points="62.6452 99.0076 63.2761 98.6433 59.1962 96.2878 58.5653 96.6521 62.6452 99.0076"/>
            <polygon class="cls-11" points="58.6124 97.3219 60.3564 96.315 57.8701 95.978 58.6124 97.3219"/>
          </g>
          <g>
            <polygon class="cls-11" points="65.6821 97.2542 66.313 96.89 62.2332 94.5345 61.6023 94.8987 65.6821 97.2542"/>
            <polygon class="cls-11" points="61.6493 95.5686 63.3934 94.5616 60.907 94.2246 61.6493 95.5686"/>
          </g>
        </g>
      </g>
    </g>
    <polygon class="cls-10" points="36.9913 72.0748 78.8537 96.2587 87.2412 91.4158 45.3667 67.2399 36.9913 72.0748"/>
    <polygon class="cls-3" points="78.8537 96.2587 78.8658 115.593 87.2412 110.7568 87.2412 91.4158 78.8537 96.2587"/>
    <polygon class="cls-3" points="78.8537 134.941 78.8658 154.2753 87.2412 149.439 87.2412 130.098 78.8537 134.941"/>
  </g>
  <g>
    <g>
      <polygon class="cls-12" points="115.8798 46.0698 141.0047 60.5762 141.0047 118.5994 115.8798 104.093 115.8798 46.0698"/>
      <polygon class="cls-5" points="115.8798 46.0698 141.0047 60.5762 141.0047 60.8471 115.8798 46.4169 115.8798 46.0698"/>
      <polygon class="cls-1" points="182.8794 36.3983 141.0047 60.5762 141.0047 118.5994 182.8794 94.4215 182.8794 36.3983"/>
      <polygon class="cls-7" points="115.8798 46.0698 141.0047 60.5762 182.8794 36.3983 157.7545 21.8934 115.8798 46.0698"/>
      <polygon class="cls-10" points="174.5048 31.5658 132.6425 55.7484 132.6304 75.0826 124.255 70.2477 124.255 50.9068 166.1294 26.7295 174.5048 31.5658"/>
    </g>
    <polygon class="cls-2" points="132.6425 55.7484 132.6304 75.0826 124.255 70.2477 124.255 50.9068 132.6425 55.7484"/>
  </g>
  <g>
    <g>
      <polygon class="cls-12" points="168.5302 115.5932 193.6551 130.0997 193.6551 149.4396 168.5302 134.9341 168.5302 115.5932"/>
      <polygon class="cls-5" points="168.5302 115.5932 193.6551 130.0997 193.6551 130.3706 168.5302 115.9403 168.5302 115.5932"/>
      <polygon class="cls-1" points="235.5298 105.9218 193.6551 130.0997 193.6551 149.4396 235.5298 125.2617 235.5298 105.9218"/>
      <polygon class="cls-7" points="168.5302 115.5932 193.6551 130.0997 235.5298 105.9218 210.4049 91.4169 168.5302 115.5932"/>
      <polygon class="cls-10" points="227.1546 101.0898 185.2922 125.2724 176.9048 120.4308 218.7792 96.2536 227.1546 101.0898"/>
    </g>
    <polygon class="cls-9" points="185.2922 125.2724 185.2803 134.9339 176.9049 130.099 176.9048 120.4308 185.2922 125.2724"/>
  </g>
  <g>
    <g>
      <polygon class="cls-12" points="89.0381 159.1965 147.6623 193.0441 147.6623 212.384 89.0381 178.5373 89.0381 159.1965"/>
      <polygon class="cls-5" points="89.0381 159.1965 147.6623 193.0441 147.6623 193.315 89.0381 159.5436 89.0381 159.1965"/>
      <polygon class="cls-1" points="189.5369 168.8663 147.6623 193.0441 147.6623 212.384 189.5369 188.2062 189.5369 168.8663"/>
      <polygon class="cls-7" points="89.0381 159.1965 147.6623 193.0441 189.5369 168.8663 130.9117 135.02 89.0381 159.1965"/>
      <polygon class="cls-10" points="164.4127 154.3614 122.5503 178.544 114.1629 173.7024 156.0373 149.5252 164.4127 154.3614"/>
      <polygon class="cls-10" points="105.7879 149.5252 164.4127 183.3892 172.7983 178.544 114.1634 144.6889 105.7879 149.5252"/>
    </g>
    <polygon class="cls-14" points="164.4059 183.3803 164.4178 193.0418 172.7932 188.2069 172.7933 178.5387 164.4059 183.3803"/>
    <g>
      <g>
        <path class="cls-11" d="M111.1211,180.3313c-.2534-1.6874-1.8593-3.8026-3.8025-4.9245-.006-.0035-.0123-.0071-.0184-.0103-.2297-.1321-.4546-.2444-.6732-.3377-.1742-.0746-.3442-.1371-.5095-.1876-.5571-.171-1.0576-.207-1.4692-.1166-.6022.1329-1.0139.5365-1.132,1.186l3.6453,2.1046v4.6747c0,.2825-.199.3975-.4435.2563s-.4438-.4861-.4438-.7686v-.1635c0-.1001-.0703-.2219-.157-.272s-.157-.0095-.157.0907v.1635c0,.4825.3399,1.0713.7578,1.3125s.7576.0448.7576-.4376v-4.6747s3.6455,2.1047,3.6455,2.1047Z"/>
        <path class="cls-11" d="M112.1604,188.0965l-9.9677-5.7548v-11.5096s9.9677,5.7548,9.9677,5.7548v11.5096ZM102.5792,182.1185l9.1947,5.3085v-10.617s-9.1947-5.3085-9.1947-5.3085v10.617Z"/>
      </g>
      <g>
        <path class="cls-11" d="M122.9892,194.3485l-9.9677-5.7548v-11.5096s9.9677,5.7548,9.9677,5.7548v11.5096ZM113.408,188.3705l9.1947,5.3085v-10.617s-9.1947-5.3085-9.1947-5.3085v10.617Z"/>
        <g>
          <path class="cls-11" d="M119.852,182.7025v2.9032c0,.9467-.6708,1.334-1.491.8605l-.6235-.36c-.8199-.4734-1.491-1.6354-1.491-2.5821v-2.9032s1.8238,1.053,1.8238,1.053l-.4008.618.7754.4477-1.0554,1.9937,1.7347-1.9156-.7914-.4569.408-.2997,1.111.6414Z"/>
          <polygon class="cls-11" points="118.3291 189.5862 117.7775 189.2677 117.7775 185.6309 118.3291 185.9493 118.3291 189.5862"/>
          <polygon class="cls-11" points="118.0533 189.1316 116.1587 188.73 119.852 190.8623 118.0533 189.1316"/>
        </g>
      </g>
      <g>
        <path class="cls-11" d="M133.7168,200.542l-9.9677-5.7548v-11.5096s9.9677,5.7548,9.9677,5.7548v11.5096ZM124.1356,194.5641l9.1947,5.3085v-10.617s-9.1947-5.3085-9.1947-5.3085v10.617Z"/>
        <path class="cls-11" d="M132.7566,198.3145l-8.0473-4.6461,3.986-5.8619,4.0613,10.508ZM125.495,193.592l6.4686,3.7346-3.2645-8.4465-3.2041,4.7119Z"/>
        <path class="cls-11" d="M128.3869,194.1544c0-.2438.1466-.3353.3461-.2201.2112.1219.3461.3759.3461.6197,0,.2371-.1349.342-.3461.2201-.2053-.1185-.3461-.3827-.3461-.6197ZM128.5335,193.2705l-.0821-3.2984.5631.3251-.0821,3.2036-.3989-.2303Z"/>
      </g>
      <g>
        <path class="cls-11" d="M144.4715,206.7513l-9.9677-5.7548v-11.5096s9.9677,5.7548,9.9677,5.7548v11.5096ZM134.8904,200.7733l9.1947,5.3085v-10.617s-9.1947-5.3085-9.1947-5.3085v10.617Z"/>
        <g>
          <polygon class="cls-11" points="142.714 204.3156 136.2613 200.5901 136.2613 199.4969 142.714 203.2224 142.714 204.3156"/>
          <g>
            <polygon class="cls-11" points="141.7484 201.9457 141.001 201.5142 141.001 195.9332 141.7484 196.3647 141.7484 201.9457"/>
            <polygon class="cls-11" points="142.4078 197.5711 140.3416 196.3782 141.4686 194.929 142.4078 197.5711"/>
          </g>
          <g>
            <polygon class="cls-11" points="138.1506 199.8685 137.4032 199.437 137.4032 193.856 138.1506 194.2875 138.1506 199.8685"/>
            <polygon class="cls-11" points="138.81 195.4939 136.7438 194.301 137.8708 192.8518 138.81 195.4939"/>
          </g>
        </g>
      </g>
    </g>
    <polygon class="cls-9" points="122.5503 178.544 122.5384 188.2055 114.163 183.3706 114.1629 173.7024 122.5503 178.544"/>
  </g>
  <g>
    <g>
      <polygon class="cls-12" points="77.8028 223.6421 136.427 257.4897 136.427 276.8296 77.8028 242.9829 77.8028 223.6421"/>
      <polygon class="cls-5" points="77.8028 223.6421 136.427 257.4897 136.427 257.7606 77.8028 223.9892 77.8028 223.6421"/>
      <polygon class="cls-1" points="161.5406 243.001 136.427 257.4897 136.427 276.8296 161.5406 262.3409 161.5406 243.001"/>
      <polygon class="cls-7" points="77.8028 223.6421 136.427 257.4897 161.5406 243.001 102.9179 209.1415 77.8028 223.6421"/>
      <polygon class="cls-10" points="86.1776 218.807 144.8024 252.671 153.188 247.8258 94.553 213.9708 86.1776 218.807"/>
    </g>
    <polygon class="cls-14" points="144.7955 252.6622 144.8075 262.3237 153.1829 257.4887 153.183 247.8205 144.7955 252.6622"/>
  </g>
  <g>
    <g>
      <polygon class="cls-12" points="29.7197 185.6635 54.8446 200.17 54.844 229.1818 29.7191 214.6763 29.7197 185.6635"/>
      <polygon class="cls-5" points="29.7197 185.6635 54.8446 200.17 54.8446 200.4408 29.7197 186.0106 29.7197 185.6635"/>
      <polygon class="cls-1" points="79.9688 185.6641 54.8446 200.17 54.844 229.1818 79.9682 214.6759 79.9688 185.6641"/>
      <polygon class="cls-8" points="29.7197 185.6635 54.8446 200.17 79.9689 185.6631 54.844 171.1582 29.7197 185.6635"/>
    </g>
    <polygon class="cls-4" points="54.844 200.1699 79.9689 185.6631 54.844 171.1582 54.844 200.1699"/>
    <polygon class="cls-7" points="29.7196 185.6637 15.6696 187.2811 41.0439 173.1668 54.844 171.1582 29.7196 185.6637"/>
    <polygon class="cls-7" points="54.8446 171.1465 66.0087 168.8663 90.9104 183.5386 79.9698 185.6512 54.8446 171.1465"/>
    <polygon class="cls-7" points="21.344 195.945 29.7199 185.6638 54.8446 200.17 46.5805 210.2277 21.344 195.945"/>
    <polygon class="cls-7" points="54.8446 200.17 79.9688 185.6641 89.9137 196.1808 63.2187 211.8891 54.8446 200.17"/>
  </g>
  <g>
    <g>
      <g>
        <polygon class="cls-12" points="227.2024 139.7679 252.3273 154.2744 252.3267 183.2862 227.2018 168.7807 227.2024 139.7679"/>
        <polygon class="cls-5" points="227.2024 139.7679 252.3273 154.2744 252.3273 154.5453 227.2024 140.115 227.2024 139.7679"/>
        <polygon class="cls-1" points="294.202 130.0965 252.3273 154.2744 252.3267 183.2862 294.2013 159.1083 294.202 130.0965"/>
        <polygon class="cls-7" points="227.2024 139.7679 252.3273 154.2744 294.202 130.0965 269.0771 115.5916 227.2024 139.7679"/>
        <polygon class="cls-10" points="285.8268 125.2645 243.9645 149.4471 235.577 144.6055 277.4514 120.4283 285.8268 125.2645"/>
      </g>
      <polygon class="cls-9" points="243.9645 149.4471 243.9525 159.1086 235.5771 154.2737 235.577 144.6055 243.9645 149.4471"/>
    </g>
    <g>
      <path class="cls-11" d="M266.8487,162.4285c-.2568-1.4136-1.8844-1.6779-3.8538-.5409-.0061.0035-.0125.0072-.0186.011-.2328.135-.4608.2844-.6823.4457-.1765.1282-.3489.2639-.5163.4061-.5646.4786-1.0718,1.0279-1.489,1.6012-.6103.8395-1.0275,1.7302-1.1472,2.5267l3.6944-2.133v4.7377c0,.2864-.2016.6357-.4495.7788s-.4497.0267-.4497-.2597v-.1657c0-.1015-.0712-.1426-.1591-.0919s-.1591.1741-.1591.2756v.1657c0,.489.3445.6879.768.4434s.7678-.8411.7678-1.3301v-4.7377s3.6946-2.1331,3.6946-2.1331Z"/>
      <path class="cls-11" d="M267.902,169.0821l-10.102,5.8324v-11.6647s10.102-5.8324,10.102-5.8324v11.6647ZM258.1917,174.236l9.3186-5.3801v-10.7601s-9.3186,5.3801-9.3186,5.3801v10.7601Z"/>
    </g>
    <g>
      <path class="cls-11" d="M278.8768,162.7458l-10.102,5.8324v-11.6647s10.102-5.8324,10.102-5.8324v11.6647ZM269.1665,167.8998l9.3186-5.3801v-10.7601s-9.3186,5.3801-9.3186,5.3801v10.7601Z"/>
      <g>
        <path class="cls-11" d="M275.6973,154.6142v2.9423c0,.9595-.6799,2.137-1.5111,2.6169l-.6319.3648c-.8309.4797-1.511.0874-1.511-.8721v-2.9423s1.8484-1.0672,1.8484-1.0672l-.4062,1.0953.7859-.4537-1.0696,3.2557,1.7581-3.9715-.802.4631.4135-.7812,1.1259-.6501Z"/>
        <polygon class="cls-11" points="274.1539 163.3729 273.5948 163.6957 273.5948 160.0098 274.1539 159.687 274.1539 163.3729"/>
        <polygon class="cls-11" points="273.8744 163.2349 271.9543 165.0451 275.6973 162.8841 273.8744 163.2349"/>
      </g>
    </g>
    <g>
      <path class="cls-11" d="M289.749,156.4688l-10.102,5.8324v-11.6647s10.102-5.8324,10.102-5.8324v11.6647ZM280.0387,161.6227l9.3186-5.3801v-10.7601s-9.3186,5.3801-9.3186,5.3801v10.7601Z"/>
      <path class="cls-11" d="M288.7758,155.3349l-8.1557,4.7087,4.0398-10.6056,4.116,5.8969ZM281.4163,159.0467l6.5558-3.785-3.3085-4.74-3.2473,8.525Z"/>
      <path class="cls-11" d="M284.3472,156.2324c0-.2471.1486-.5114.3507-.6281.214-.1236.3507-.024.3507.2231,0,.2403-.1367.5045-.3507.6281-.2081.1201-.3507.0172-.3507-.2231ZM284.4958,155.165l-.0832-3.2468.5707-.3295-.0832,3.3429-.4042.2334Z"/>
    </g>
  </g>
  <g>
    <g>
      <g>
        <polygon class="cls-12" points="189.523 219.2153 214.648 233.7218 214.6473 262.7336 189.5224 248.228 189.523 219.2153"/>
        <polygon class="cls-5" points="189.523 219.2153 214.648 233.7218 214.648 233.9926 189.523 219.5624 189.523 219.2153"/>
        <polygon class="cls-1" points="256.5226 209.5439 214.648 233.7218 214.6473 262.7336 256.522 238.5557 256.5226 209.5439"/>
        <polygon class="cls-8" points="189.523 219.2153 214.648 233.7218 256.5226 209.5439 231.3977 195.039 189.523 219.2153"/>
      </g>
      <polygon class="cls-4" points="231.3977 224.0507 256.5226 209.5439 231.3977 195.039 231.3977 224.0507"/>
      <polygon class="cls-7" points="189.523 219.2154 180.898 208.336 223.0227 184.5507 231.3977 195.039 189.523 219.2154"/>
      <polygon class="cls-7" points="231.3974 195.0392 241.9779 186.4941 266.8796 201.1664 256.5226 209.5439 231.3974 195.0392"/>
      <polygon class="cls-7" points="176.9048 218.2936 189.5232 219.2155 214.648 233.7218 202.1413 232.5764 176.9048 218.2936"/>
      <polygon class="cls-7" points="214.648 233.7218 256.5219 209.5448 268.9364 209.2375 225.4917 234.6168 214.648 233.7218"/>
    </g>
    <g>
      <path class="cls-11" d="M229.5214,249.6525l-11.5594,6.6738v-13.3476s11.5594-6.6738,11.5594-6.6738v13.3476ZM218.4102,255.5499l10.6629-6.1563v-12.3124s-10.6629,6.1563-10.6629,6.1563v12.3124Z"/>
      <g>
        <path class="cls-11" d="M225.8832,240.3477v3.3668c0,1.0979-.778,2.4453-1.729,2.9945l-.723.4175c-.9508.5489-1.729.1-1.729-.9979v-3.3668s2.1151-1.2211,2.1151-1.2211l-.4648,1.2533.8993-.5192-1.2239,3.7254,2.0117-4.5444-.9177.5299.4732-.8939,1.2884-.7438Z"/>
        <polygon class="cls-11" points="224.1171 250.37 223.4774 250.7393 223.4774 246.5217 224.1171 246.1524 224.1171 250.37"/>
        <polygon class="cls-11" points="223.7972 250.2121 221.6001 252.2835 225.8832 249.8106 223.7972 250.2121"/>
      </g>
    </g>
    <g>
      <path class="cls-11" d="M241.962,242.4698l-11.5594,6.6738v-13.3476s11.5594-6.6738,11.5594-6.6738v13.3476ZM230.8508,248.3673l10.6629-6.1563v-12.3124s-10.6629,6.1563-10.6629,6.1563v12.3124Z"/>
      <path class="cls-11" d="M240.8485,241.1723l-9.3323,5.388,4.6226-12.1356,4.7098,6.7476ZM232.4273,245.4197l7.5016-4.331-3.7858-5.4239-3.7157,9.7549Z"/>
      <path class="cls-11" d="M235.781,242.1994c0-.2828.1701-.5852.4013-.7187.2449-.1414.4013-.0275.4013.2553,0,.2749-.1565.5773-.4013.7187-.2381.1375-.4013.0196-.4013-.2553ZM235.951,240.978l-.0952-3.7152.653-.377-.0952,3.8251-.4626.2671Z"/>
    </g>
    <g>
      <path class="cls-11" d="M254.4342,235.269l-11.5594,6.6738v-13.3476s11.5594-6.6738,11.5594-6.6738v13.3476ZM243.323,241.1665l10.6629-6.1563v-12.3124s-10.6629,6.1563-10.6629,6.1563v12.3124Z"/>
      <g>
        <polygon class="cls-11" points="252.396 234.7978 244.9129 239.1182 244.9129 237.8504 252.396 233.5301 252.396 234.7978"/>
        <g>
          <polygon class="cls-11" points="251.2762 233.3426 250.4094 233.843 250.4094 227.3708 251.2762 226.8704 251.2762 233.3426"/>
          <polygon class="cls-11" points="252.0408 227.3864 249.6447 228.7698 250.9517 225.58 252.0408 227.3864"/>
        </g>
        <g>
          <polygon class="cls-11" points="247.1039 235.7514 246.2371 236.2518 246.2371 229.7797 247.1039 229.2792 247.1039 235.7514"/>
          <polygon class="cls-11" points="247.8686 229.7953 245.4725 231.1787 246.7794 227.9889 247.8686 229.7953"/>
        </g>
      </g>
    </g>
  </g>
</svg>