<?xml version="1.0" encoding="UTF-8"?>
<svg id="Layer_1" data-name="Layer 1" xmlns="http://www.w3.org/2000/svg" viewBox="0 0 328.9986 254.5809">
  <defs>
    <style>
      .cls-1 {
        fill: #b98e62;
      }

      .cls-1, .cls-2, .cls-3, .cls-4, .cls-5, .cls-6, .cls-7, .cls-8, .cls-9, .cls-10, .cls-11, .cls-12 {
        stroke-width: 0px;
      }

      .cls-2 {
        fill: #d5c3a9;
      }

      .cls-2, .cls-7, .cls-8, .cls-12 {
        opacity: .8;
      }

      .cls-3 {
        fill: #855c4c;
      }

      .cls-4 {
        fill: #89644b;
      }

      .cls-5 {
        fill: #debb8d;
      }

      .cls-6 {
        fill: #ba905e;
      }

      .cls-7 {
        fill: #b49b84;
      }

      .cls-8 {
        fill: #e6d3b3;
      }

      .cls-9, .cls-11 {
        fill: #231f20;
      }

      .cls-10 {
        fill: #987253;
      }

      .cls-11 {
        opacity: .2;
      }

      .cls-12 {
        fill: #ddc8ab;
      }
    </style>
  </defs>
  <g>
    <polygon class="cls-11" points="74.1637 253.3962 60.2573 254.5809 19.5326 231.4766 41.7564 219.4573 74.1637 253.3962"/>
    <polygon class="cls-11" points="249.2359 122.9188 235.3294 124.1035 194.6048 100.9992 216.8285 88.9799 249.2359 122.9188"/>
    <polygon class="cls-11" points="210.5343 228.719 196.6278 229.9037 103.2431 176.9238 130.2225 160.6863 210.5343 228.719"/>
    <polygon class="cls-11" points="84.8482 157.56 70.9418 158.7447 0 118.5444 26.9794 102.307 84.8482 157.56"/>
    <g>
      <polygon class="cls-10" points="23.3251 36.7801 84.8482 72.3005 84.8482 157.5494 23.3251 122.0291 23.3251 36.7801"/>
      <polygon class="cls-4" points="23.3251 36.7801 84.8482 72.3005 84.8482 72.6985 23.3251 37.2901 23.3251 36.7801"/>
      <polygon class="cls-1" points="146.3713 36.7801 84.8482 72.3005 84.8482 157.5494 146.3713 122.0291 146.3713 36.7801"/>
      <polygon class="cls-5" points="23.3251 36.7801 84.8482 72.3005 146.3713 36.7801 84.8482 1.2598 23.3251 36.7801"/>
      <polygon class="cls-8" points="121.7623 22.5714 60.2573 58.1029 47.9342 50.9875 109.457 15.4678 121.7623 22.5714"/>
    </g>
    <polygon class="cls-7" points="60.2573 58.1029 60.2395 86.5092 47.9342 79.4037 47.9342 50.9875 60.2573 58.1029"/>
    <polygon class="cls-7" points="60.2573 114.9356 60.2395 143.3419 47.9342 136.2364 47.9342 107.8203 60.2573 114.9356"/>
    <g>
      <g>
        <path class="cls-9" d="M119.3862,37.7736c-1.341-1.1371-.6252-3.0236,1.7847-4.415.0075-.0043.0153-.0088.0231-.013.2855-.1641.5833-.3143.8898-.4504.2439-.1086.4931-.2083.7463-.2987.8526-.3055,1.7451-.507,2.6079-.5983,1.2631-.1332,2.4623-.0303,3.3797.3302l-4.5208,2.6101,5.0208,2.8988c.3035.1752.7971.1753,1.1004.0002s.3035-.4603,0-.6355l-.1756-.1014c-.1075-.0621-.1075-.1628,0-.2249s.2819-.0621.3895,0l.1756.1014c.5182.2992.5182.786,0,1.0852s-1.3611.299-1.8793-.0002l-5.0208-2.8988-4.5211,2.6103Z"/>
        <path class="cls-9" d="M113.4311,35.8238l12.3618-7.1371,12.3617,7.137-12.3618,7.1371-12.3617-7.137ZM125.7929,29.2402l-11.4031,6.5836,11.403,6.5835,11.4031-6.5836-11.403-6.5835Z"/>
      </g>
      <g>
        <path class="cls-9" d="M100.0014,43.5775l12.3618-7.1371,12.3617,7.137-12.3618,7.1371-12.3617-7.137ZM112.3632,36.9939l-11.4031,6.5836,11.403,6.5835,11.4031-6.5836-11.403-6.5835Z"/>
        <g>
          <path class="cls-9" d="M105.6909,42.3697l3.1181,1.8002c1.0168.5871,2.6807.587,3.6978-.0002l.7732-.4464c1.0168-.5871,1.0171-1.5479.0003-2.1349l-3.1181-1.8002-2.2619,1.3059,1.4093.2397-.9617.5552,4.1047.8584-5.2844-.5668.9815-.5666-1.0809-.0398-1.3778.7955Z"/>
          <polygon class="cls-9" points="115.9173 46.0931 116.6014 45.6981 112.6953 43.4429 112.0112 43.8379 115.9173 46.0931"/>
          <polygon class="cls-9" points="115.9421 45.7124 119.0353 44.7852 114.455 47.4296 115.9421 45.7124"/>
        </g>
      </g>
      <g>
        <path class="cls-9" d="M86.6971,51.2587l12.3618-7.1371,12.3617,7.137-12.3618,7.1371-12.3617-7.137ZM99.0589,44.6751l-11.4031,6.5836,11.403,6.5835,11.4031-6.5836-11.403-6.5835Z"/>
        <path class="cls-9" d="M94.7218,48.7007l13.711,2.2079-9.9801,5.762-3.7308-7.9699ZM95.8679,49.3678l2.9989,6.4064,8.0223-4.6317-11.0212-1.7747Z"/>
        <path class="cls-9" d="M102.1352,53.0348c-.2619.1512-.6256.1344-.8802-.0126-.2619-.1512-.2837-.357-.0218-.5082.2473-.1428.6183-.1386.8802.0126.2546.147.2764.3612.0218.5082ZM100.3967,52.3166l-3.5935-1.9571.6983-.4032,3.3899,2.0747-.4947.2856Z"/>
      </g>
      <g>
        <path class="cls-9" d="M73.3592,58.9593l12.3618-7.1371,12.3617,7.137-12.3618,7.1371-12.3617-7.137ZM85.721,52.3757l-11.4031,6.5836,11.403,6.5835,11.4031-6.5836-11.403-6.5835Z"/>
        <g>
          <polygon class="cls-9" points="86.3743 63.9568 94.3769 59.3365 93.2028 58.6586 85.2002 63.2789 86.3743 63.9568"/>
          <g>
            <polygon class="cls-9" points="85.6254 62.1415 86.5523 61.6063 80.5581 58.1456 79.6312 58.6808 85.6254 62.1415"/>
            <polygon class="cls-9" points="79.7003 59.6649 82.2627 58.1855 78.6097 57.6903 79.7003 59.6649"/>
          </g>
          <g>
            <polygon class="cls-9" points="90.0873 59.5654 91.0142 59.0303 85.02 55.5695 84.0931 56.1047 90.0873 59.5654"/>
            <polygon class="cls-9" points="84.1622 57.0889 86.7246 55.6094 83.0716 55.1143 84.1622 57.0889"/>
          </g>
        </g>
      </g>
    </g>
    <polygon class="cls-8" points="47.9342 22.5714 109.4393 58.1029 121.7623 50.9875 60.2395 15.4678 47.9342 22.5714"/>
    <polygon class="cls-2" points="109.4393 58.1029 109.457 86.5092 121.7623 79.4037 121.7623 50.9875 109.4393 58.1029"/>
    <polygon class="cls-2" points="109.4393 114.9356 109.457 143.3419 121.7623 136.2364 121.7623 107.8203 109.4393 114.9356"/>
  </g>
  <g>
    <g>
      <polygon class="cls-10" points="124.4024 150.5724 210.5343 200.3019 210.5343 228.7165 124.4024 178.9883 124.4024 150.5724"/>
      <polygon class="cls-4" points="124.4024 150.5724 210.5343 200.3019 210.5343 200.6999 124.4024 151.0823 124.4024 150.5724"/>
      <polygon class="cls-1" points="272.0574 164.7794 210.5343 200.3019 210.5343 228.7165 272.0574 193.194 272.0574 164.7794"/>
      <polygon class="cls-5" points="124.4024 150.5724 210.5343 200.3019 272.0574 164.7794 185.924 115.0517 124.4024 150.5724"/>
      <polygon class="cls-8" points="235.1444 143.4685 173.6393 178.9981 161.3162 171.8846 222.839 136.363 235.1444 143.4685"/>
      <polygon class="cls-8" points="149.0116 136.363 235.1444 186.1167 247.4646 178.9981 161.317 129.2575 149.0116 136.363"/>
    </g>
    <polygon class="cls-12" points="235.1343 186.1037 235.1518 200.2986 247.4571 193.195 247.4573 178.9903 235.1343 186.1037"/>
    <g>
      <g>
        <path class="cls-9" d="M156.8472,181.624c-.3723-2.4792-2.7318-5.5869-5.5867-7.2352-.0089-.0051-.0181-.0104-.027-.0152-.3375-.1941-.668-.359-.9892-.4961-.2559-.1096-.5058-.2014-.7485-.2756-.8184-.2512-1.5538-.3041-2.1586-.1713-.8848.1953-1.4896.7883-1.6631,1.7425l5.3557,3.0921v6.8682c0,.4151-.2923.5841-.6516.3766s-.652-.7141-.652-1.1293v-.2401c0-.1471-.1033-.326-.2307-.3996s-.2307-.0139-.2307.1332v.2401c0,.7089.4994,1.574,1.1134,1.9284s1.113.0659,1.113-.643v-6.8682s5.356,3.0923,5.356,3.0923Z"/>
        <path class="cls-9" d="M158.3742,193.0327l-14.6447-8.4551v-16.9102s14.6447,8.4551,14.6447,8.4551v16.9102ZM144.2973,184.2497l13.509,7.7994v-15.5987s-13.509-7.7994-13.509-7.7994v15.5987Z"/>
      </g>
      <g>
        <path class="cls-9" d="M174.2841,202.2183l-14.6447-8.4551v-16.9102s14.6447,8.4551,14.6447,8.4551v16.9102ZM160.2072,193.4353l13.509,7.7994v-15.5987s-13.509-7.7994-13.509-7.7994v15.5987Z"/>
        <g>
          <path class="cls-9" d="M169.6748,185.1078v4.2654c0,1.3909-.9856,1.96-2.1905,1.2643l-.916-.5289c-1.2046-.6955-2.1905-2.4028-2.1905-3.7937v-4.2654s2.6796,1.5471,2.6796,1.5471l-.5888.908,1.1393.6578-1.5506,2.9292,2.5487-2.8144-1.1627-.6713.5995-.4403,1.6323.9424Z"/>
          <polygon class="cls-9" points="167.4373 195.2215 166.6269 194.7536 166.6269 189.4102 167.4373 189.8781 167.4373 195.2215"/>
          <polygon class="cls-9" points="167.0321 194.5535 164.2486 193.9636 169.6748 197.0964 167.0321 194.5535"/>
        </g>
      </g>
      <g>
        <path class="cls-9" d="M190.0453,211.3181l-14.6447-8.4551v-16.9102s14.6447,8.4551,14.6447,8.4551v16.9102ZM175.9684,202.5351l13.509,7.7994v-15.5987s-13.509-7.7994-13.509-7.7994v15.5987Z"/>
        <path class="cls-9" d="M188.6345,208.0453l-11.8232-6.8261,5.8564-8.6124,5.9669,15.4385ZM177.9656,201.1069l9.5038,5.487-4.7963-12.4098-4.7075,6.9228Z"/>
        <path class="cls-9" d="M182.2144,201.9332c0-.3582.2154-.4926.5084-.3234.3102.1791.5085.5523.5085.9105s-.1982.5025-.5085.3234c-.3016-.1741-.5084-.5622-.5084-.9105ZM182.4299,200.6346l-.1207-4.8461.8273.4776-.1207,4.7068-.586-.3383Z"/>
      </g>
      <g>
        <path class="cls-9" d="M205.8464,220.4408l-14.6447-8.4551v-16.9102s14.6447,8.4551,14.6447,8.4551v16.9102ZM191.7695,211.6578l13.509,7.7994v-15.5987s-13.509-7.7994-13.509-7.7994v15.5987Z"/>
        <g>
          <polygon class="cls-9" points="203.2642 216.8622 193.7838 211.3887 193.7838 209.7826 203.2642 215.2561 203.2642 216.8622"/>
          <g>
            <polygon class="cls-9" points="201.8455 213.3803 200.7473 212.7463 200.7473 204.5466 201.8455 205.1806 201.8455 213.3803"/>
            <polygon class="cls-9" points="202.8142 206.9531 199.7786 205.2004 201.4344 203.0712 202.8142 206.9531"/>
          </g>
          <g>
            <polygon class="cls-9" points="196.5596 210.3285 195.4614 209.6945 195.4614 201.4948 196.5596 202.1288 196.5596 210.3285"/>
            <polygon class="cls-9" points="197.5283 203.9013 194.4927 202.1486 196.1485 200.0194 197.5283 203.9013"/>
          </g>
        </g>
      </g>
    </g>
    <polygon class="cls-7" points="173.6393 178.9981 173.6218 193.1929 161.3165 186.0894 161.3162 171.8846 173.6393 178.9981"/>
  </g>
  <g>
    <g>
      <polygon class="cls-10" points="37.2506 189.4582 74.1647 210.7714 74.1637 253.3962 37.2497 232.0843 37.2506 189.4582"/>
      <polygon class="cls-4" points="37.2506 189.4582 74.1647 210.7714 74.1647 211.1694 37.2506 189.9682 37.2506 189.4582"/>
      <polygon class="cls-1" points="111.0777 189.459 74.1647 210.7714 74.1637 253.3962 111.0767 232.0838 111.0777 189.459"/>
      <polygon class="cls-6" points="37.2506 189.4582 74.1647 210.7714 111.0777 189.4576 74.1637 168.1467 37.2506 189.4582"/>
    </g>
    <polygon class="cls-3" points="74.1637 210.7713 111.0777 189.4576 74.1637 168.1467 74.1637 210.7713"/>
    <polygon class="cls-5" points="37.2505 189.4584 16.6078 191.8348 53.8883 171.0978 74.1637 168.1467 37.2505 189.4584"/>
    <polygon class="cls-5" points="74.1647 168.1295 90.5671 164.7794 127.1532 186.3363 111.0791 189.4401 74.1647 168.1295"/>
    <polygon class="cls-5" points="24.9448 204.564 37.2508 189.4586 74.1647 210.7714 62.0229 225.5484 24.9448 204.564"/>
    <polygon class="cls-5" points="74.1647 210.7714 111.0777 189.459 125.6888 204.9105 86.468 227.9894 74.1647 210.7714"/>
  </g>
  <g>
    <g>
      <g>
        <polygon class="cls-10" points="212.3228 59.0193 249.2368 80.3325 249.2359 122.9572 212.3218 101.6454 212.3228 59.0193"/>
        <polygon class="cls-4" points="212.3228 59.0193 249.2368 80.3325 249.2368 80.7304 212.3228 59.5292 212.3228 59.0193"/>
        <polygon class="cls-1" points="310.7599 44.8098 249.2368 80.3325 249.2359 122.9572 310.759 87.4345 310.7599 44.8098"/>
        <polygon class="cls-6" points="212.3228 59.0193 249.2368 80.3325 310.7599 44.8098 273.8459 23.4989 212.3228 59.0193"/>
      </g>
      <polygon class="cls-3" points="273.8459 66.1235 310.7599 44.8098 273.8459 23.4989 273.8459 66.1235"/>
      <polygon class="cls-5" points="212.3227 59.0195 199.6506 43.0352 261.5412 8.0892 273.8459 23.4989 212.3227 59.0195"/>
      <polygon class="cls-5" points="273.8455 23.4992 289.3905 10.9445 325.9766 32.5014 310.7599 44.8098 273.8455 23.4992"/>
      <polygon class="cls-5" points="193.7838 57.6651 212.323 59.0196 249.2368 80.3325 230.8618 78.6496 193.7838 57.6651"/>
      <polygon class="cls-5" points="249.2368 80.3325 310.7589 44.8112 328.9986 44.3597 265.1687 81.6475 249.2368 80.3325"/>
    </g>
    <g>
      <path class="cls-9" d="M271.0891,103.7382l-16.9833,9.8053v-19.6105s16.9833-9.8053,16.9833-9.8053v19.6105ZM254.7644,112.4028l15.6662-9.0449v-18.0897s-15.6662,9.0449-15.6662,9.0449v18.0897Z"/>
      <g>
        <path class="cls-9" d="M265.7438,90.0674v4.9465c0,1.613-1.143,3.5928-2.5404,4.3995l-1.0623.6133c-1.3969.8065-2.5403.1469-2.5403-1.4662v-4.9465s3.1075-1.7941,3.1075-1.7941l-.6828,1.8414,1.3212-.7628-1.7983,5.4734,2.9556-6.6767-1.3484.7785.6952-1.3134,1.8929-1.0929Z"/>
        <polygon class="cls-9" points="263.1491 104.7924 262.2092 105.335 262.2092 99.1384 263.1491 98.5958 263.1491 104.7924"/>
        <polygon class="cls-9" points="262.6791 104.5604 259.4511 107.6037 265.7438 103.9706 262.6791 104.5604"/>
      </g>
    </g>
    <g>
      <path class="cls-9" d="M289.3672,93.1853l-16.9833,9.8053v-19.6105s16.9833-9.8053,16.9833-9.8053v19.6105ZM273.0424,101.85l15.6662-9.0449v-18.0897s-15.6662,9.0449-15.6662,9.0449v18.0897Z"/>
      <path class="cls-9" d="M287.7312,91.279l-13.7113,7.9162,6.7916-17.8299,6.9197,9.9137ZM275.3586,97.5193l11.0215-6.3632-5.5622-7.9688-5.4592,14.3321Z"/>
      <path class="cls-9" d="M280.2859,92.7879c0-.4154.2498-.8597.5896-1.0559.3598-.2077.5897-.0404.5897.3751,0,.4039-.2299.8482-.5897,1.0559-.3498.202-.5896.0289-.5896-.375ZM280.5358,90.9935l-.1399-5.4584.9594-.5539-.1399,5.62-.6796.3924Z"/>
    </g>
    <g>
      <path class="cls-9" d="M307.6916,82.6057l-16.9833,9.8053v-19.6105s16.9833-9.8053,16.9833-9.8053v19.6105ZM291.3668,91.2704l15.6662-9.0449v-18.0897s-15.6662,9.0449-15.6662,9.0449v18.0897Z"/>
      <g>
        <polygon class="cls-9" points="304.6971 81.9134 293.7027 88.261 293.7027 86.3984 304.6971 80.0508 304.6971 81.9134"/>
        <g>
          <polygon class="cls-9" points="303.0518 79.7753 301.7783 80.5106 301.7783 71.0015 303.0518 70.2662 303.0518 79.7753"/>
          <polygon class="cls-9" points="304.1752 71.0245 300.6548 73.057 302.575 68.3705 304.1752 71.0245"/>
        </g>
        <g>
          <polygon class="cls-9" points="296.9218 83.3145 295.6483 84.0497 295.6483 74.5406 296.9218 73.8054 296.9218 83.3145"/>
          <polygon class="cls-9" points="298.0452 74.5636 294.5248 76.5961 296.4451 71.9096 298.0452 74.5636"/>
        </g>
      </g>
    </g>
  </g>
</svg>