<?xml version="1.0" encoding="UTF-8"?>
<svg id="Layer_1" data-name="Layer 1" xmlns="http://www.w3.org/2000/svg" viewBox="0 0 357.864 286.1176">
  <defs>
    <style>
      .cls-1 {
        fill: #b98e62;
      }

      .cls-1, .cls-2, .cls-3, .cls-4, .cls-5, .cls-6, .cls-7, .cls-8, .cls-9, .cls-10, .cls-11, .cls-12 {
        stroke-width: 0px;
      }

      .cls-2 {
        fill: #d5c3a9;
      }

      .cls-2, .cls-7, .cls-8, .cls-12 {
        opacity: .8;
      }

      .cls-3 {
        fill: #855c4c;
      }

      .cls-4 {
        fill: #89644b;
      }

      .cls-5 {
        fill: #debb8d;
      }

      .cls-6 {
        fill: #ba905e;
      }

      .cls-7 {
        fill: #b49b84;
      }

      .cls-8 {
        fill: #e6d3b3;
      }

      .cls-9, .cls-11 {
        fill: #231f20;
      }

      .cls-10 {
        fill: #987253;
      }

      .cls-11 {
        opacity: .2;
      }

      .cls-12 {
        fill: #ddc8ab;
      }
    </style>
  </defs>
  <g>
    <polygon class="cls-11" points="255.8169 146.9111 238.0253 148.4268 185.9228 118.8675 214.3555 103.4902 255.8169 146.9111"/>
    <polygon class="cls-11" points="207.8292 284.6536 190.6447 286.1176 75.2471 220.6491 108.5861 200.5841 207.8292 284.6536"/>
    <polygon class="cls-11" points="85.4136 164.8668 71.4145 166.0594 0 125.5912 27.1591 109.2456 85.4136 164.8668"/>
    <g>
      <polygon class="cls-10" points="23.4805 43.2821 85.4136 79.0392 85.4136 164.8561 23.4805 129.0991 23.4805 43.2821"/>
      <polygon class="cls-4" points="23.4805 43.2821 85.4136 79.0392 85.4136 79.4398 23.4805 43.7954 23.4805 43.2821"/>
      <polygon class="cls-1" points="147.3467 43.2821 85.4136 79.0392 85.4136 164.8561 147.3467 129.0991 147.3467 43.2821"/>
      <polygon class="cls-5" points="23.4805 43.2821 85.4136 79.0392 147.3467 43.2821 85.4136 7.525 23.4805 43.2821"/>
      <polygon class="cls-8" points="122.5737 28.9786 60.6588 64.7469 48.2536 57.5841 110.1864 21.8277 122.5737 28.9786"/>
    </g>
    <polygon class="cls-7" points="60.6588 64.7469 60.6409 93.3425 48.2536 86.1897 48.2536 57.5841 60.6588 64.7469"/>
    <polygon class="cls-7" points="60.6588 121.9583 60.6409 150.554 48.2536 143.4011 48.2536 114.7956 60.6588 121.9583"/>
    <g>
      <g>
        <path class="cls-9" d="M120.1817,44.2822c-1.3499-1.1447-.6294-3.0438,1.7966-4.4444.0075-.0044.0154-.0089.0232-.0131.2874-.1652.5872-.3164.8957-.4534.2455-.1093.4964-.2096.7513-.3007.8583-.3075,1.7567-.5103,2.6253-.6023,1.2715-.1341,2.4787-.0305,3.4022.3324l-4.5509,2.6275,5.0542,2.9181c.3055.1764.8024.1764,1.1077.0002s.3055-.4633,0-.6397l-.1767-.102c-.1083-.0625-.1083-.1638,0-.2264s.2838-.0625.3921,0l.1767.102c.5217.3012.5217.7912,0,1.0924s-1.3702.301-1.8919-.0002l-5.0542-2.9181-4.5512,2.6277Z"/>
        <path class="cls-9" d="M114.187,42.3194l12.4442-7.1846,12.4441,7.1846-12.4442,7.1846-12.4441-7.1846ZM126.6312,35.6919l-11.4791,6.6275,11.479,6.6274,11.4791-6.6275-11.479-6.6274Z"/>
      </g>
      <g>
        <path class="cls-9" d="M100.6677,50.1247l12.4442-7.1846,12.4441,7.1846-12.4442,7.1846-12.4441-7.1846ZM113.1119,43.4973l-11.4791,6.6275,11.479,6.6274,11.4791-6.6275-11.479-6.6274Z"/>
        <g>
          <path class="cls-9" d="M106.3952,48.9089l3.1389,1.8122c1.0236.591,2.6986.591,3.7225-.0002l.7784-.4494c1.0236-.591,1.0239-1.5582.0003-2.1492l-3.1389-1.8122-2.277,1.3146,1.4187.2413-.9681.5589,4.132.8641-5.3197-.5706.988-.5704-1.0881-.04-1.387.8008Z"/>
          <polygon class="cls-9" points="116.6898 52.6571 117.3784 52.2595 113.4463 49.9893 112.7576 50.3869 116.6898 52.6571"/>
          <polygon class="cls-9" points="116.7147 52.2739 119.8285 51.3405 115.2176 54.0025 116.7147 52.2739"/>
        </g>
      </g>
      <g>
        <path class="cls-9" d="M87.2749,57.8571l12.4442-7.1846,12.4441,7.1846-12.4442,7.1846-12.4441-7.1846ZM99.719,51.2296l-11.4791,6.6275,11.479,6.6274,11.4791-6.6275-11.479-6.6274Z"/>
        <path class="cls-9" d="M95.353,55.2821l13.8024,2.2226-10.0467,5.8004-3.7557-8.023ZM96.5068,55.9536l3.0189,6.4491,8.0757-4.6625-11.0947-1.7865Z"/>
        <path class="cls-9" d="M102.8158,59.645c-.2636.1522-.6298.1353-.8861-.0127-.2636-.1522-.2856-.3594-.022-.5116.249-.1437.6224-.1395.8861.0127.2563.148.2783.3636.022.5116ZM101.0657,58.9221l-3.6175-1.9702.703-.4059,3.4124,2.0886-.498.2875Z"/>
      </g>
      <g>
        <path class="cls-9" d="M73.8481,65.6091l12.4442-7.1846,12.4441,7.1846-12.4442,7.1846-12.4441-7.1846ZM86.2922,58.9816l-11.4791,6.6275,11.479,6.6274,11.4791-6.6275-11.479-6.6274Z"/>
        <g>
          <polygon class="cls-9" points="86.9499 70.6398 95.0058 65.9888 93.8238 65.3064 85.768 69.9574 86.9499 70.6398"/>
          <g>
            <polygon class="cls-9" points="86.1959 68.8125 87.129 68.2737 81.0949 64.7899 80.1618 65.3287 86.1959 68.8125"/>
            <polygon class="cls-9" points="80.2314 66.3194 82.8109 64.8301 79.1335 64.3316 80.2314 66.3194"/>
          </g>
          <g>
            <polygon class="cls-9" points="90.6876 66.2192 91.6207 65.6805 85.5866 62.1967 84.6535 62.7354 90.6876 66.2192"/>
            <polygon class="cls-9" points="84.723 63.7261 87.3025 62.2368 83.6251 61.7384 84.723 63.7261"/>
          </g>
        </g>
      </g>
    </g>
    <polygon class="cls-8" points="48.2536 28.9786 110.1685 64.7469 122.5737 57.5841 60.6409 21.8277 48.2536 28.9786"/>
    <polygon class="cls-2" points="110.1685 64.7469 110.1864 93.3425 122.5737 86.1897 122.5737 57.5841 110.1685 64.7469"/>
    <polygon class="cls-2" points="110.1685 121.9583 110.1864 150.554 122.5737 143.4011 122.5737 114.7956 110.1685 121.9583"/>
  </g>
  <g>
    <g>
      <polygon class="cls-10" points="101.3941 188.0861 207.8292 249.538 207.8292 284.6505 101.3941 223.2002 101.3941 188.0861"/>
      <polygon class="cls-4" points="101.3941 188.0861 207.8292 249.538 207.8292 250.0298 101.3941 188.7162 101.3941 188.0861"/>
      <polygon class="cls-1" points="283.8547 205.642 207.8292 249.538 207.8292 284.6505 283.8547 240.7546 283.8547 205.642"/>
      <polygon class="cls-5" points="101.3941 188.0861 207.8292 249.538 283.8547 205.642 177.4178 144.1924 101.3941 188.0861"/>
      <polygon class="cls-8" points="238.2405 179.3076 162.2372 223.2123 147.0094 214.4221 223.0345 170.5272 238.2405 179.3076"/>
      <polygon class="cls-8" points="131.8043 170.5272 238.2405 232.009 253.4649 223.2123 147.0103 161.7468 131.8043 170.5272"/>
    </g>
    <polygon class="cls-12" points="238.228 231.9929 238.2497 249.5339 253.4556 240.7558 253.4559 223.2027 238.228 231.9929"/>
    <g>
      <g>
        <path class="cls-9" d="M141.4869,226.4573c-.4601-3.0636-3.3757-6.9038-6.9037-8.9407-.011-.0063-.0224-.0129-.0333-.0187-.4171-.2398-.8254-.4436-1.2223-.613-.3162-.1355-.625-.2489-.925-.3406-1.0114-.3104-1.9201-.3758-2.6674-.2117-1.0934.2413-1.8407.9741-2.0552,2.1533l6.6182,3.821v8.4872c0,.513-.3612.7218-.8052.4654s-.8057-.8825-.8057-1.3954v-.2968c0-.1818-.1276-.4029-.2851-.4938s-.2851-.0172-.2851.1646v.2968c0,.876.6172,1.945,1.3758,2.383.7584.4379,1.3754.0814,1.3754-.7946v-8.4872s6.6186,3.8212,6.6186,3.8212Z"/>
        <path class="cls-9" d="M143.3738,240.5553l-18.0968-10.4482v-20.8963s18.0968,10.4482,18.0968,10.4482v20.8963ZM125.9787,229.702l16.6934,9.6379v-19.2757s-16.6934-9.6379-16.6934-9.6379v19.2757Z"/>
      </g>
      <g>
        <path class="cls-9" d="M163.034,251.9061l-18.0968-10.4482v-20.8963s18.0968,10.4482,18.0968,10.4482v20.8963ZM145.639,241.0528l16.6934,9.6379v-19.2757s-16.6934-9.6379-16.6934-9.6379v19.2757Z"/>
        <g>
          <path class="cls-9" d="M157.3383,230.7622v5.2709c0,1.7188-1.2179,2.422-2.7069,1.5623l-1.132-.6535c-1.4885-.8594-2.7069-2.9692-2.7069-4.688v-5.2709s3.3113,1.9118,3.3113,1.9118l-.7276,1.122,1.4078.8128-1.9162,3.6197,3.1494-3.4779-1.4368-.8295.7408-.5441,2.017,1.1645Z"/>
          <polygon class="cls-9" points="154.5734 243.26 153.5719 242.6818 153.5719 236.0789 154.5734 236.6571 154.5734 243.26"/>
          <polygon class="cls-9" points="154.0726 242.4346 150.633 241.7056 157.3383 245.5769 154.0726 242.4346"/>
        </g>
      </g>
      <g>
        <path class="cls-9" d="M182.5105,263.1509l-18.0968-10.4482v-20.8963s18.0968,10.4482,18.0968,10.4482v20.8963ZM165.1154,252.2975l16.6934,9.6379v-19.2757s-16.6934-9.6379-16.6934-9.6379v19.2757Z"/>
        <path class="cls-9" d="M180.7672,259.1066l-14.6102-8.4352,7.2368-10.6425,7.3734,19.0777ZM167.5834,250.5327l11.7441,6.7804-5.9269-15.3351-5.8172,8.5547Z"/>
        <path class="cls-9" d="M172.8338,251.5538c0-.4427.2662-.6087.6283-.3997.3834.2213.6283.6825.6283,1.1252,0,.4304-.2449.621-.6283.3996-.3727-.2152-.6283-.6947-.6283-1.1251ZM173.1,249.949l-.1491-5.9885,1.0223.5902-.1491,5.8163-.7241-.4181Z"/>
      </g>
      <g>
        <path class="cls-9" d="M202.0363,274.4241l-18.0968-10.4482v-20.8963s18.0968,10.4482,18.0968,10.4482v20.8963ZM184.6412,263.5708l16.6934,9.6379v-19.2757s-16.6934-9.6379-16.6934-9.6379v19.2757Z"/>
        <g>
          <polygon class="cls-9" points="198.8455 270.0019 187.1303 263.2382 187.1303 261.2534 198.8455 268.0172 198.8455 270.0019"/>
          <g>
            <polygon class="cls-9" points="197.0923 265.6993 195.7353 264.9158 195.7353 254.7833 197.0923 255.5667 197.0923 265.6993"/>
            <polygon class="cls-9" points="198.2894 257.757 194.5382 255.5912 196.5843 252.9601 198.2894 257.757"/>
          </g>
          <g>
            <polygon class="cls-9" points="190.5604 261.9281 189.2034 261.1446 189.2034 251.0121 190.5604 251.7955 190.5604 261.9281"/>
            <polygon class="cls-9" points="191.7575 253.9858 188.0063 251.82 190.0524 249.1889 191.7575 253.9858"/>
          </g>
        </g>
      </g>
    </g>
    <polygon class="cls-7" points="162.2372 223.2123 162.2156 240.7533 147.0097 231.9752 147.0094 214.4221 162.2372 223.2123"/>
  </g>
  <g>
    <g>
      <g>
        <polygon class="cls-10" points="208.5909 65.159 255.8181 92.4268 255.8169 146.9602 208.5897 119.6942 208.5909 65.159"/>
        <polygon class="cls-4" points="208.5909 65.159 255.8181 92.4268 255.8181 92.9359 208.5909 65.8115 208.5909 65.159"/>
        <polygon class="cls-1" points="334.5298 46.9796 255.8181 92.4268 255.8169 146.9602 334.5286 101.5131 334.5298 46.9796"/>
        <polygon class="cls-6" points="208.5909 65.159 255.8181 92.4268 334.5298 46.9796 287.3026 19.7148 208.5909 65.159"/>
      </g>
      <polygon class="cls-3" points="287.3026 74.248 334.5298 46.9796 287.3026 19.7148 287.3026 74.248"/>
      <polygon class="cls-5" points="208.5908 65.1593 192.3784 44.7093 271.5602 0 287.3026 19.7148 208.5908 65.1593"/>
      <polygon class="cls-5" points="287.3021 19.7152 307.1901 3.653 353.9977 31.2325 334.5298 46.9796 287.3021 19.7152"/>
      <polygon class="cls-5" points="184.8724 63.4266 208.5912 65.1595 255.8181 92.4268 232.3094 90.2738 184.8724 63.4266"/>
      <polygon class="cls-5" points="255.8181 92.4268 334.5284 46.9815 357.864 46.4038 276.2011 94.1092 255.8181 92.4268"/>
    </g>
    <g>
      <path class="cls-9" d="M283.7756,122.3717l-21.7282,12.5448v-25.0894s21.7282-12.5448,21.7282-12.5448v25.0894ZM262.89,133.4571l20.0431-11.5719v-23.1436s-20.0431,11.5719-20.0431,11.5719v23.1436Z"/>
      <g>
        <path class="cls-9" d="M276.9369,104.8816v6.3285c0,2.0637-1.4623,4.5965-3.2501,5.6287l-1.3591.7847c-1.7872,1.0319-3.2501.1879-3.2501-1.8758v-6.3285s3.9757-2.2954,3.9757-2.2954l-.8736,2.3559,1.6903-.9759-2.3007,7.0025,3.7814-8.5421-1.7251.996.8894-1.6803,2.4218-1.3982Z"/>
        <polygon class="cls-9" points="273.6172 123.7204 272.4148 124.4146 272.4148 116.4868 273.6172 115.7926 273.6172 123.7204"/>
        <polygon class="cls-9" points="273.016 123.4237 268.8861 127.3172 276.9369 122.669 273.016 123.4237"/>
      </g>
    </g>
    <g>
      <path class="cls-9" d="M307.1603,108.8705l-21.7282,12.5448v-25.0894s21.7282-12.5448,21.7282-12.5448v25.0894ZM286.2746,119.956l20.0431-11.5719v-23.1436s-20.0431,11.5719-20.0431,11.5719v23.1436Z"/>
      <path class="cls-9" d="M305.0672,106.4316l-17.542,10.1279,8.689-22.8113,8.853,12.6834ZM289.2379,114.4154l14.1007-8.141-7.1162-10.1952-6.9844,18.3362Z"/>
      <path class="cls-9" d="M295.5418,108.3622c0-.5315.3197-1.0999.7544-1.3509.4603-.2658.7544-.0517.7544.4798,0,.5167-.2941,1.0852-.7544,1.3509-.4475.2584-.7544.0369-.7544-.4798ZM295.8615,106.0663l-.179-6.9834,1.2275-.7087-.179,7.1901-.8695.502Z"/>
    </g>
    <g>
      <path class="cls-9" d="M330.6042,95.3352l-21.7282,12.5448v-25.0894s21.7282-12.5448,21.7282-12.5448v25.0894ZM309.7185,106.4207l20.0431-11.5719v-23.1436s-20.0431,11.5719-20.0431,11.5719v23.1436Z"/>
      <g>
        <polygon class="cls-9" points="326.7731 94.4494 312.7071 102.5704 312.7071 100.1874 326.7731 92.0664 326.7731 94.4494"/>
        <g>
          <polygon class="cls-9" points="324.6681 91.714 323.0388 92.6546 323.0388 80.4889 324.6681 79.5482 324.6681 91.714"/>
          <polygon class="cls-9" points="326.1054 80.5183 321.6015 83.1187 324.0582 77.1228 326.1054 80.5183"/>
        </g>
        <g>
          <polygon class="cls-9" points="316.8255 96.2419 315.1962 97.1826 315.1962 85.0168 316.8255 84.0762 316.8255 96.2419"/>
          <polygon class="cls-9" points="318.2628 85.0462 313.7589 87.6466 316.2156 81.6507 318.2628 85.0462"/>
        </g>
      </g>
    </g>
  </g>
  <polygon class="cls-11" points="175.6552 211.2247 158.4707 212.6886 108.1463 184.1381 135.6087 169.2856 175.6552 211.2247"/>
  <g>
    <g>
      <polygon class="cls-10" points="130.0408 132.2151 175.6563 158.5523 175.6552 211.2247 130.0397 184.8892 130.0408 132.2151"/>
      <polygon class="cls-4" points="130.0408 132.2151 175.6563 158.5523 175.6563 159.0441 130.0408 132.8453 130.0408 132.2151"/>
      <polygon class="cls-1" points="221.2706 132.2161 175.6563 158.5523 175.6552 211.2247 221.2694 184.8885 221.2706 132.2161"/>
      <polygon class="cls-6" points="130.0408 132.2151 175.6563 158.5523 221.2706 132.2143 175.6551 105.88 130.0408 132.2151"/>
    </g>
    <polygon class="cls-3" points="175.6551 158.5522 221.2706 132.2143 175.6551 105.88 175.6551 158.5522"/>
    <polygon class="cls-5" points="130.0407 132.2153 104.5321 135.1519 150.6004 109.5267 175.6551 105.88 130.0407 132.2153"/>
    <polygon class="cls-5" points="175.6563 105.8587 195.9253 101.7189 241.1355 128.3572 221.2724 132.1927 175.6563 105.8587"/>
    <polygon class="cls-5" points="114.8343 150.8816 130.0411 132.2155 175.6563 158.5523 160.6525 176.8126 114.8343 150.8816"/>
    <polygon class="cls-5" points="175.6563 158.5523 221.2706 132.2161 239.3259 151.3098 190.8598 179.8289 175.6563 158.5523"/>
  </g>
</svg>