<?xml version="1.0" encoding="UTF-8"?>
<svg id="Layer_1" data-name="Layer 1" xmlns="http://www.w3.org/2000/svg" viewBox="0 0 293.08 102.21">
  <defs>
    <style>
      .cls-1 {
        fill: #000;
        stroke-width: 0px;
      }
    </style>
  </defs>
  <path class="cls-1" d="M71.1,81.01c-.61-.4-.95-.87-1.01-1.43l.46-.74c.24,0,.8.09,1.66.28.67.25,1.23.37,1.66.37,1.35,0,2.54-.54,3.59-1.61,1.04-1.07,1.84-2.47,2.39-4.19.86-3.19,1.29-6.19,1.29-9.02,0-4.23-1.29-8.77-3.86-13.62-1.6-2.82-2.82-5.06-3.68-6.72-.86-1.66-1.63-3.56-2.3-5.7-.8-2.51-1.2-4.94-1.2-7.27,0-2.21.55-4.81,1.66-7.82.55-1.41,1.33-2.56,2.35-3.45,1.01-.89,2.1-1.33,3.27-1.33.8,0,1.58.28,2.35.83.77.55,1.15,1.14,1.15,1.75,0,.49-.4.74-1.2.74-.25,0-.55-.09-.92-.28-.37-.18-.71-.28-1.01-.28-.92,0-1.75.37-2.48,1.1-.74.74-1.29,1.69-1.66,2.85-.74,2.27-1.1,4.36-1.1,6.26,0,1.17.15,2.36.46,3.59.06.37.12.68.18.92.06.25.09.43.09.55l.55,1.84.46,1.66.74,1.66c.18.43.38.81.6,1.15.21.34.41.66.6.97l1.1,1.93c.24.37.77,1.24,1.56,2.62.8,1.38,1.53,2.84,2.21,4.37.61,1.29,1.07,2.5,1.38,3.63.31,1.14.58,2.5.83,4.09.18,1.53.28,3.22.28,5.06,0,2.94-.4,5.7-1.2,8.28-1.1,3.07-2.7,5.21-4.78,6.44-1.17.74-2.52,1.1-4.05,1.1l-.46.18c-.68-.12-1.32-.38-1.93-.78ZM80.39,21.8c0-.06-.03-.09-.09-.09v.09h.09Z"/>
  <path class="cls-1" d="M101.14,81.1c-1.14-.64-2.07-1.39-2.81-2.25-.86-1.1-1.53-4.2-2.02-9.29-.49-5.09-.8-10.92-.92-17.48,0-1.47-.03-2.58-.09-3.31-.12-15.39-.37-24.5-.74-27.32l.55-1.29c1.41.18,2.12,1.87,2.12,5.06l.28,24.38c0,1.72.15,4.97.46,9.75.37,4.29.55,7.54.55,9.75,0,6.99,2.3,10.49,6.9,10.49,2.82,0,4.63-6.44,5.43-19.32l.09-1.84c.43-16.87.64-29.35.64-37.44l-.09-.83c-.06-.24-.09-.52-.09-.83,0-.67.52-1.01,1.56-1.01.74,0,1.2.18,1.38.55.12.61.18,1.69.18,3.22,0,4.66-.18,7.79-.55,9.38l.09.55c0,.8-.09,2.02-.28,3.68l-.18,3.68v.92c.06.25.09.55.09.92-.12,1.47-.18,2.88-.18,4.23-.06.43-.09,1.1-.09,2.02-.12,5.83-.25,10.89-.37,15.18-.18,5.34-.92,9.84-2.21,13.52-1.35,3.93-3.53,5.89-6.53,5.89-.98,0-2.04-.32-3.17-.97Z"/>
  <path class="cls-1" d="M144.7,81.19c-.25-.22-.43-.78-.55-1.7-.55-4.48-.89-7.27-1.01-8.37l-.46-3.68c-1.35-.31-2.88-.46-4.6-.46l-3.31-.18c-1.47-.18-2.55-.28-3.22-.28-.37,0-.58.15-.64.46,0,.18-.03.28-.09.28l-.18,1.84c-.06,1.1-.4,3.31-1.01,6.62-.31,1.66-.68,2.94-1.1,3.86-.49,1.04-.95,1.56-1.38,1.56-.37,0-.77-.17-1.2-.51-.43-.34-.64-.69-.64-1.06l.09-.28.09-.28c1.1-4.35,2.02-8.68,2.76-12.97l1.1-5.7,1.1-6.99,1.01-6.07c.31-1.66.86-4.32,1.66-8,.86-4.17,1.38-7.02,1.56-8.56.06-.18.18-1.32.37-3.4.24-2.33.46-4.05.64-5.15.18-1.59.37-2.51.55-2.76h.64c.18.06.4.09.64.09.74,0,1.29-.18,1.66-.55.43,0,.81.14,1.15.41.34.28.51.6.51.97,0,2.94.21,6.32.64,10.12.24,1.96.43,3.59.55,4.88.67,7.91,2.39,22.75,5.15,44.53v.28c0,.61-.25,1.07-.74,1.38-.92,0-1.5-.11-1.75-.32ZM142.21,64.95c-.61-8.83-1.78-21.86-3.5-39.1l-4.97,24.56c-1.41,7.05-2.12,11.5-2.12,13.34,0,.31,1.16.58,3.5.83,2.33.25,4.38.37,6.16.37h.92Z"/>
  <path class="cls-1" d="M164.29,80.96c0-4.72-.75-11.68-2.25-20.88-1.5-9.2-3.48-19.26-5.93-30.18l-.74-2.85-1.2-4.23c-.37-1.29-.55-2.08-.55-2.39,0-.18.14-.41.41-.69.28-.28.54-.41.78-.41.86,0,1.53.95,2.02,2.85.24.8.47,1.7.69,2.71.21,1.01.38,1.73.51,2.16.12.92.21,1.47.28,1.66,1.17,4.72,1.87,7.73,2.12,9.02l.92,4.69.83,4.42.83,4.69c.18,1.66.43,3.1.74,4.32l1.38,9.02c0,.25.21,1.81.64,4.69l.64,4.51c1.23-3.99,2.27-10.06,3.13-18.22.86-7.6,2.08-15.24,3.68-22.91,1.35-6.62,2.3-11.44,2.85-14.44l1.2-.46c.25.06.47.18.69.37.21.18.32.37.32.55,0,1.35-.28,3.19-.83,5.52l-.55,2.39-1.56,7.27c-.92,3.99-1.55,7.05-1.89,9.2-.34,2.15-.72,5.24-1.15,9.29l-.18,2.12c-.31,3.31-.54,5.55-.69,6.72-.15,1.17-.51,2.67-1.06,4.51-.49,1.84-.89,3.47-1.2,4.88l-.18,2.12c-.12,2.15-.37,4.05-.74,5.7-.49,2.08-1.47,3.13-2.94,3.13l-1.01-.83ZM166.32,74.34l-.09.18.09.18v-.37Z"/>
  <path class="cls-1" d="M192.35,79.76c-.31,0-.55.03-.74.09h-.74c-1.35,0-2.21-.31-2.58-.92,0-.43.25-.8.74-1.1l.46-.46h2.67l.37-.37.18-.83.09-1.1c0-3.74-.09-7.08-.28-10.03l-.18-3.4-.18-6.72c0-2.39.09-5.98.28-10.76l.18-10.67c0-4.66-.15-8.22-.46-10.67-.55-.18-1.47-.28-2.76-.28l-1.01.09c-.37.06-.77.09-1.2.09-1.17,0-1.75-.52-1.75-1.56,0-.24.28-.49.83-.74.55-.24,1.01-.37,1.38-.37,2.33,0,4.66.12,6.99.37,1.41.06,2.82.34,4.23.83,1.1.37,1.66.89,1.66,1.56,0,.12-.09.37-.28.74l-2.12.18c-.43-.37-1.32-.55-2.67-.55l-.46.28c.18.55.28,2.18.28,4.88,0,4.05-.03,7.7-.09,10.95l-.18,10.95c0,2.76.12,6.1.37,10.03.18,4.48.28,7.85.28,10.12v1.2c-.06.43-.09.98-.09,1.66,0,1.41.09,2.27.28,2.58l-.09.18c0,.61.67.92,2.02.92.55,0,1.01-.03,1.38-.09h1.38c1.78,0,2.67.43,2.67,1.29,0,.55-.18,1-.55,1.33-.37.34-.86.51-1.47.51-.55,0-1.04-.06-1.47-.18-.49-.06-1.01-.09-1.56-.09-.37,0-.92.15-1.66.46-.74.37-1.29.55-1.66.55-1.41,0-2.24-.31-2.48-.92Z"/>
  <path class="cls-1" d="M210.75,81.01c-.61-.4-.95-.87-1.01-1.43l.46-.74c.24,0,.8.09,1.66.28.67.25,1.23.37,1.66.37,1.35,0,2.54-.54,3.59-1.61,1.04-1.07,1.84-2.47,2.39-4.19.86-3.19,1.29-6.19,1.29-9.02,0-4.23-1.29-8.77-3.86-13.62-1.6-2.82-2.82-5.06-3.68-6.72-.86-1.66-1.63-3.56-2.3-5.7-.8-2.51-1.2-4.94-1.2-7.27,0-2.21.55-4.81,1.66-7.82.55-1.41,1.33-2.56,2.35-3.45,1.01-.89,2.1-1.33,3.27-1.33.8,0,1.58.28,2.35.83.77.55,1.15,1.14,1.15,1.75,0,.49-.4.74-1.2.74-.25,0-.55-.09-.92-.28s-.71-.28-1.01-.28c-.92,0-1.75.37-2.48,1.1-.74.74-1.29,1.69-1.66,2.85-.74,2.27-1.1,4.36-1.1,6.26,0,1.17.15,2.36.46,3.59.06.37.12.68.18.92.06.25.09.43.09.55l.55,1.84.46,1.66.74,1.66c.18.43.38.81.6,1.15.21.34.41.66.6.97l1.1,1.93c.24.37.77,1.24,1.56,2.62.8,1.38,1.53,2.84,2.21,4.37.61,1.29,1.07,2.5,1.38,3.63.31,1.14.58,2.5.83,4.09.18,1.53.28,3.22.28,5.06,0,2.94-.4,5.7-1.2,8.28-1.1,3.07-2.7,5.21-4.78,6.44-1.17.74-2.52,1.1-4.05,1.1l-.46.18c-.68-.12-1.32-.38-1.93-.78ZM220.04,21.8c0-.06-.03-.09-.09-.09v.09h.09Z"/>
</svg>