<?xml version="1.0" encoding="UTF-8"?>
<svg id="Layer_1" data-name="Layer 1" xmlns="http://www.w3.org/2000/svg" viewBox="0 0 1203.6998 450.4294">
  <defs>
    <style>
      .cls-1 {
        fill: #000;
        stroke-width: 0px;
      }
    </style>
  </defs>
  <path class="cls-1" d="M226.0711,247.9704c-.4268-5.748-9.5801-12.7734-27.4629-21.0762-21.9292-10.5381-35.9253-19.6113-41.9927-27.2236-6.0674-7.6094-9.1011-15.8867-9.1011-24.8281,0-18.8408,10.563-35.3115,31.6943-49.417,21.1284-14.1035,40.8472-21.1562,59.1567-21.1562,17.9878,0,26.9839,7.8237,26.9839,23.4712,0,4.1514-2.0508,7.8784-6.1475,11.1768-4.0986,3.3008-7.584,4.9497-10.458,4.9497-1.1724,0-3.248-.7437-6.2271-2.2354-2.9814-1.4893-5.269-2.2354-6.8657-2.2354-9.4751,0-19.9062,3.1934-31.2949,9.5801-11.3911,6.3867-17.0845,13.8389-17.0845,22.3535,0,4.1514,2.021,8.1699,6.0674,12.0547,4.0439,3.8867,12.2944,8.7568,24.7485,14.6094,18.4141,8.7295,30.5488,16.6064,36.4043,23.6318,5.853,7.0254,8.7817,14.7959,8.7817,23.3105,0,15.543-10.5132,28.501-31.5347,38.8799-21.0234,10.3779-44.627,15.5674-70.8125,15.5674-19.2676,0-28.8999-6.9727-28.8999-20.916,0-5.1094,2.021-9.4736,6.0674-13.0938,4.0439-3.6172,8.5674-5.4277,13.5718-5.4277,2.021,0,5.1616.7451,9.4204,2.2344,4.2563,1.5977,8.1953,2.3955,11.8154,2.3955,10.0044,0,20.4897-1.5967,31.4546-4.79,10.9624-3.1934,18.2021-7.1299,21.7148-11.8154Z"/>
  <path class="cls-1" d="M401.3865,230.0876c-10.2188,18.6289-22.0615,33.4258-35.5259,44.3877-13.4673,10.9648-27.1187,16.4453-40.9551,16.4453-8.1978,0-16.4731-4.3105-24.8281-12.9326-8.3579-8.6221-12.5342-21.874-12.5342-39.7568,0-12.667,3.1934-31.7744,9.5801-57.3213,5.5337-21.0762,8.3027-37.0952,8.3027-48.0601,4.2563-8.9414,10.9097-13.4121,19.9585-13.4121,6.1724,0,11.0972,2.0508,14.769,6.147,3.6729,4.0991,5.5088,8.2231,5.5088,12.3745,0,7.5591-2.6621,18.3096-7.9834,32.2529-3.0884,8.3022-6.4141,20.0386-9.9795,35.2065-3.5674,15.1689-5.3486,24.8838-5.3486,29.1396,0,14.1582,2.9263,21.2354,8.7817,21.2354,9.2607,0,21.7671-8.8857,37.522-26.6641,15.7524-17.7754,26.0259-35.9775,30.8159-54.6064,4.79-18.2021,9.0464-30.1226,12.7734-35.7656,3.7246-5.6406,8.9937-8.4624,15.8071-8.4624,11.0693,0,16.6055,6.1748,16.6055,18.5215,0,1.811-.9058,5.4287-2.7144,10.8574-6.2817,18.8403-9.4204,40.0767-9.4204,63.7075,0,27.6777,4.6826,44.2285,14.0508,49.6562,3.0859,1.8115,4.6304,4.0469,4.6304,6.707,0,3.832-2.7144,7.4512-8.1431,10.8574-5.4287,3.4053-10.5928,5.1094-15.4878,5.1094-8.4102,0-14.8765-5.9355-19.3999-17.8037-4.5254-11.8672-6.7856-27.8066-6.7856-47.8203Z"/>
  <path class="cls-1" d="M597.1395,235.0378c-27.9966,36.9375-55.0332,55.4043-81.1113,55.4043-9.5801,0-17.8306-3.7773-24.7485-11.3359-6.9204-7.5576-10.3784-17.1895-10.3784-28.9004,0-28.2061,12.5591-58.252,37.6816-90.1328,25.1201-31.8784,50.4551-47.8203,76.002-47.8203,12.9858,0,21.5005,6.5464,25.5474,19.6392,12.2393,0,18.3613,4.6851,18.3613,14.0508,0,4.4707-1.1719,12.5615-3.5127,24.2695-4.2588,21.9292-6.3867,39.438-6.3867,52.5308,0,13.627.9307,23.207,2.7949,28.7402,1.8604,5.5361,3.2178,9.1562,4.0713,10.8574.8506,1.7041,3.4053,3.5127,7.6641,5.4287,4.2559,2.0234,6.3867,4.8447,6.3867,8.4619,0,5.4297-2.7422,9.9551-8.2227,13.5723-5.4844,3.6172-11.2051,5.4287-17.165,5.4287-20.0127,0-29.0073-20.0635-26.9839-60.1943ZM587.5594,146.4216c-10.7524,0-24.7236,11.8955-41.9131,35.6855-17.1914,23.791-25.7861,43.9893-25.7861,60.5947,0,8.7285,1.8086,13.0918,5.4287,13.0918,12.5591,0,28.0215-11.1484,46.3838-33.4502,18.3613-22.2988,27.5425-41.8057,27.5425-58.5181,0-5.3213-1.1978-9.5527-3.5923-12.6938-2.3955-3.1382-5.0845-4.71-8.0635-4.71Z"/>
  <path class="cls-1" d="M708.429,286.9294c.1045-7.0254-4.0996-22.1387-12.6143-45.3457-17.1396-45.877-25.7061-78.5566-25.7061-98.0361,0-17.4561,6.8652-26.1855,20.5967-26.1855,13.4121,0,20.1182,7.9834,20.1182,23.9502,0,10.2188.2393,17.4834.7188,21.7949.4785,4.3105,2.1279,12.1348,4.9492,23.4707,2.8193,11.3369,5.6133,20.7842,8.3828,28.3408,1.5967,4.5781,3.5127,10.5391,5.748,17.8828,1.2773,4.5781,2.3945,7.7715,3.3535,9.5801.6387-.957,2.873-5.1094,6.7051-12.4531,2.2363-4.4707,9.793-17.165,22.6738-38.0811,12.8779-20.917,24.1895-37.6021,33.9287-50.0562,9.7402-12.4541,17.0049-20.0635,21.7949-22.8325,4.79-2.7666,9.8447-4.1514,15.1689-4.1514,5.5332,0,10.084,1.811,13.6514,5.4287,3.5645,3.6201,5.3486,8.0381,5.3486,13.2524,0,6.1748-4.4707,12.2422-13.4121,18.2021-8.7295,5.9624-20.625,19.5869-35.6855,40.8745-15.0635,21.291-31.2705,48.0605-48.6191,80.3135-9.7949,18.4141-18.5762,27.6221-26.3457,27.6221-6.7051,0-13.626-4.5254-20.7559-13.5713Z"/>
  <path class="cls-1" d="M868.2562,182.5065v.1592c3.4053-19.3716,5.1094-30.4414,5.1094-33.2104,0-7.876,1.7285-14.4751,5.1895-19.7988,3.458-5.3213,8.2754-7.9834,14.4492-7.9834,7.2383,0,12.8789,1.7041,16.9258,5.1094,4.0439,3.4077,6.0664,7.2397,6.0664,11.4961,0,4.2588-1.9707,13.0405-5.9072,26.3452l-.958,3.5127c-5.8555,20.5449-9.3682,37.3096-10.5381,50.2959-1.1729,12.9873-1.7568,23.4707-1.7568,31.4541,0,6.4941,1.1182,15.1689,3.3535,26.0264.3193,1.916.4785,3.5117.4785,4.7891,0,2.4502-2.3145,5.748-6.9453,9.9004-4.6299,4.1504-9.6074,6.2266-14.9287,6.2266-14.0508,0-21.0762-10.6426-21.0762-31.9336,0-18.0947,2.5547-40.1289,7.6641-66.1025,1.0625-5.748,2.0205-11.1768,2.874-16.2861ZM945.3753,51.2595c0,7.5591-3.4072,14.1855-10.2188,19.8789-6.8125,5.6953-12.7207,8.542-17.7227,8.542-6.3867,0-12.0547-2.6597-17.0049-7.9834-4.9492-5.3213-7.4248-10.6431-7.4248-15.9668,0-7.6641,2.4482-13.8638,7.3457-18.6016,4.8945-4.7349,11.9199-7.105,21.0762-7.105,7.1299,0,12.9053,2.103,17.3232,6.3071,4.416,4.2061,6.626,9.1807,6.626,14.9287Z"/>
  <path class="cls-1" d="M1026.0081,247.9704c-.4268-5.748-9.5801-12.7734-27.4629-21.0762-21.9297-10.5381-35.9258-19.6113-41.9922-27.2236-6.0684-7.6094-9.1016-15.8867-9.1016-24.8281,0-18.8408,10.5635-35.3115,31.6943-49.417,21.1279-14.1035,40.8477-21.1562,59.1572-21.1562,17.9873,0,26.9834,7.8237,26.9834,23.4712,0,4.1514-2.0508,7.8784-6.1475,11.1768-4.0986,3.3008-7.584,4.9497-10.458,4.9497-1.1729,0-3.248-.7437-6.2275-2.2354-2.9805-1.4893-5.2686-2.2354-6.8652-2.2354-9.4756,0-19.9062,3.1934-31.2949,9.5801-11.3916,6.3867-17.084,13.8389-17.084,22.3535,0,4.1514,2.0205,8.1699,6.0664,12.0547,4.0449,3.8867,12.2949,8.7568,24.749,14.6094,18.4141,8.7295,30.5488,16.6064,36.4043,23.6318,5.8525,7.0254,8.7822,14.7959,8.7822,23.3105,0,15.543-10.5137,28.501-31.5352,38.8799-21.0234,10.3779-44.627,15.5674-70.8125,15.5674-19.2676,0-28.9004-6.9727-28.9004-20.916,0-5.1094,2.0215-9.4736,6.0684-13.0938,4.0439-3.6172,8.5664-5.4277,13.5713-5.4277,2.0205,0,5.1621.7451,9.4209,2.2344,4.2559,1.5977,8.1953,2.3955,11.8145,2.3955,10.0049,0,20.4902-1.5967,31.4551-4.79,10.9619-3.1934,18.2021-7.1299,21.7148-11.8154Z"/>
</svg>