<?xml version="1.0" encoding="UTF-8"?>
<svg id="Layer_1" data-name="Layer 1" xmlns="http://www.w3.org/2000/svg" viewBox="0 0 863.23 363.29">
  <defs>
    <style>
      .cls-1 {
        fill: #000;
        stroke-width: 0px;
      }
    </style>
  </defs>
  <path class="cls-1" d="M163.49,287.92c-2.18-1.42-3.38-3.11-3.6-5.07l1.64-2.62c.87,0,2.83.33,5.89.98,2.4.87,4.36,1.31,5.89,1.31,4.79,0,9.04-1.91,12.75-5.72,3.7-3.81,6.54-8.77,8.5-14.88,3.05-11.33,4.58-22.02,4.58-32.05,0-15.04-4.58-31.17-13.73-48.4-5.67-10.02-10.03-17.98-13.08-23.87-3.06-5.89-5.78-12.64-8.17-20.27-2.84-8.94-4.25-17.55-4.25-25.83,0-7.85,1.96-17.11,5.89-27.79,1.96-5.01,4.74-9.1,8.34-12.26,3.6-3.16,7.46-4.74,11.61-4.74,2.83,0,5.61.98,8.34,2.94,2.72,1.96,4.09,4.04,4.09,6.21,0,1.75-1.42,2.62-4.25,2.62-.87,0-1.96-.33-3.27-.98-1.31-.65-2.51-.98-3.6-.98-3.27,0-6.21,1.31-8.83,3.92s-4.58,6-5.89,10.14c-2.62,8.07-3.92,15.48-3.92,22.24,0,4.14.54,8.39,1.63,12.75.21,1.31.43,2.4.65,3.27.21.87.33,1.53.33,1.96l1.96,6.54,1.64,5.89,2.62,5.89c.65,1.53,1.36,2.89,2.13,4.09.76,1.2,1.47,2.35,2.13,3.43l3.92,6.87c.87,1.31,2.72,4.41,5.56,9.32,2.83,4.9,5.45,10.09,7.85,15.53,2.18,4.58,3.81,8.88,4.91,12.92,1.09,4.04,2.07,8.89,2.94,14.55.65,5.45.98,11.45.98,17.99,0,10.46-1.42,20.27-4.25,29.43-3.92,10.9-9.6,18.53-17,22.89-4.14,2.62-8.94,3.92-14.39,3.92l-1.63.65c-2.4-.44-4.69-1.36-6.87-2.78ZM196.51,77.5c0-.21-.11-.33-.33-.33v.33h.33Z"/>
  <path class="cls-1" d="M270.25,288.25c-4.04-2.29-7.36-4.96-9.97-8.01-3.06-3.92-5.45-14.93-7.19-33.03-1.75-18.09-2.84-38.8-3.27-62.13,0-5.23-.11-9.16-.33-11.77-.44-54.72-1.31-87.09-2.62-97.12l1.96-4.58c5.01.65,7.52,6.65,7.52,17.98l.98,86.66c0,6.11.54,17.66,1.63,34.66,1.31,15.26,1.96,26.81,1.96,34.66,0,24.85,8.18,37.28,24.53,37.28,10.02,0,16.46-22.89,19.29-68.67l.33-6.54c1.52-59.95,2.29-104.31,2.29-133.09l-.33-2.94c-.22-.87-.33-1.85-.33-2.94,0-2.4,1.85-3.6,5.56-3.6,2.62,0,4.25.65,4.9,1.96.43,2.18.65,6,.65,11.45,0,16.57-.65,27.69-1.96,33.35l.33,1.96c0,2.84-.33,7.19-.98,13.08l-.65,13.08v3.27c.21.87.33,1.96.33,3.27-.44,5.23-.65,10.25-.65,15.04-.22,1.53-.33,3.92-.33,7.19-.44,20.71-.87,38.7-1.31,53.96-.65,18.97-3.27,34.99-7.85,48.07-4.8,13.95-12.54,20.93-23.22,20.93-3.49,0-7.25-1.14-11.28-3.43Z"/>
  <path class="cls-1" d="M425.08,288.58c-.87-.77-1.53-2.78-1.96-6.05-1.96-15.91-3.16-25.83-3.6-29.76l-1.63-13.08c-4.8-1.09-10.25-1.63-16.35-1.63l-11.77-.65c-5.23-.65-9.05-.98-11.45-.98-1.31,0-2.07.55-2.29,1.63,0,.65-.11.98-.33.98l-.65,6.54c-.22,3.92-1.42,11.77-3.6,23.54-1.09,5.89-2.4,10.46-3.92,13.73-1.75,3.71-3.38,5.56-4.91,5.56-1.31,0-2.73-.6-4.25-1.8-1.53-1.2-2.29-2.45-2.29-3.76l.33-.98.33-.98c3.92-15.48,7.19-30.85,9.81-46.11l3.92-20.27,3.92-24.85,3.6-21.58c1.09-5.89,3.05-15.37,5.89-28.45,3.05-14.82,4.91-24.96,5.56-30.41.21-.65.65-4.69,1.31-12.1.87-8.28,1.63-14.39,2.29-18.31.65-5.67,1.31-8.94,1.96-9.81h2.29c.65.22,1.42.33,2.29.33,2.62,0,4.58-.65,5.89-1.96,1.52,0,2.89.49,4.09,1.47,1.2.98,1.8,2.13,1.8,3.43,0,10.46.76,22.46,2.29,35.97.87,6.98,1.52,12.75,1.96,17.33,2.4,28.12,8.5,80.88,18.31,158.27v.98c0,2.18-.87,3.81-2.62,4.91-3.27,0-5.34-.38-6.21-1.14ZM416.25,230.86c-2.18-31.39-6.33-77.71-12.43-138.98l-17.66,87.31c-5.02,25.07-7.52,40.88-7.52,47.42,0,1.09,4.14,2.07,12.43,2.94,8.28.87,15.58,1.31,21.91,1.31h3.27Z"/>
  <path class="cls-1" d="M494.73,287.76c0-16.78-2.67-41.53-8.01-74.23-5.34-32.7-12.38-68.45-21.09-107.26l-2.62-10.14-4.25-15.04c-1.31-4.58-1.96-7.41-1.96-8.5,0-.65.49-1.47,1.47-2.45.98-.98,1.91-1.47,2.78-1.47,3.05,0,5.45,3.38,7.19,10.14.87,2.84,1.69,6.05,2.45,9.65.76,3.6,1.36,6.16,1.8,7.68.43,3.27.76,5.23.98,5.89,4.14,16.79,6.65,27.47,7.52,32.05l3.27,16.68,2.94,15.7,2.94,16.68c.65,5.89,1.52,11.01,2.62,15.37l4.91,32.05c0,.87.76,6.43,2.29,16.68l2.29,16.02c4.36-14.17,8.06-35.75,11.12-64.75,3.05-27.03,7.41-54.17,13.08-81.42,4.79-23.54,8.17-40.66,10.14-51.34l4.25-1.64c.87.22,1.69.65,2.45,1.31.76.65,1.14,1.31,1.14,1.96,0,4.8-.98,11.34-2.94,19.62l-1.96,8.5-5.56,25.83c-3.27,14.17-5.51,25.07-6.7,32.7-1.2,7.63-2.56,18.64-4.09,33.03l-.65,7.52c-1.09,11.77-1.91,19.73-2.45,23.87-.55,4.14-1.8,9.48-3.76,16.02-1.75,6.54-3.16,12.32-4.25,17.33l-.65,7.52c-.44,7.63-1.31,14.39-2.62,20.27-1.75,7.41-5.23,11.12-10.46,11.12l-3.6-2.94ZM501.92,264.22l-.33.65.33.65v-1.31Z"/>
  <path class="cls-1" d="M594.46,283.51c-1.09,0-1.96.11-2.62.33h-2.62c-4.8,0-7.85-1.09-9.16-3.27,0-1.52.87-2.83,2.62-3.92l1.63-1.63h9.48l1.31-1.31.65-2.94.33-3.92c0-13.29-.33-25.18-.98-35.64l-.65-12.1-.65-23.87c0-8.5.33-21.26.98-38.26l.65-37.93c0-16.56-.55-29.21-1.63-37.93-1.96-.65-5.23-.98-9.81-.98l-3.6.33c-1.31.22-2.73.33-4.25.33-4.14,0-6.21-1.85-6.21-5.56,0-.87.98-1.74,2.94-2.62,1.96-.87,3.6-1.31,4.91-1.31,8.28,0,16.56.44,24.85,1.31,5.01.22,10.03,1.2,15.04,2.94,3.92,1.31,5.89,3.16,5.89,5.56,0,.44-.33,1.31-.98,2.62l-7.52.65c-1.53-1.31-4.69-1.96-9.48-1.96l-1.63.98c.65,1.96.98,7.74.98,17.33,0,14.39-.11,27.36-.33,38.91l-.65,38.91c0,9.81.43,21.69,1.31,35.64.65,15.92.98,27.91.98,35.97v4.25c-.22,1.53-.33,3.49-.33,5.89,0,5.02.33,8.07.98,9.16l-.33.65c0,2.18,2.4,3.27,7.19,3.27,1.96,0,3.6-.11,4.91-.33h4.91c6.32,0,9.48,1.53,9.48,4.58,0,1.96-.65,3.55-1.96,4.74-1.31,1.2-3.06,1.8-5.23,1.8-1.96,0-3.71-.21-5.23-.65-1.75-.21-3.6-.33-5.56-.33-1.31,0-3.27.55-5.89,1.63-2.62,1.31-4.58,1.96-5.89,1.96-5.02,0-7.96-1.09-8.83-3.27Z"/>
  <path class="cls-1" d="M659.86,287.92c-2.18-1.42-3.38-3.11-3.6-5.07l1.64-2.62c.87,0,2.83.33,5.89.98,2.4.87,4.36,1.31,5.89,1.31,4.79,0,9.04-1.91,12.75-5.72,3.7-3.81,6.54-8.77,8.5-14.88,3.05-11.33,4.58-22.02,4.58-32.05,0-15.04-4.58-31.17-13.73-48.4-5.67-10.02-10.03-17.98-13.08-23.87-3.05-5.89-5.78-12.64-8.17-20.27-2.84-8.94-4.25-17.55-4.25-25.83,0-7.85,1.96-17.11,5.89-27.79,1.96-5.01,4.74-9.1,8.34-12.26,3.6-3.16,7.46-4.74,11.61-4.74,2.83,0,5.61.98,8.34,2.94,2.72,1.96,4.09,4.04,4.09,6.21,0,1.75-1.42,2.62-4.25,2.62-.87,0-1.96-.33-3.27-.98-1.31-.65-2.51-.98-3.6-.98-3.27,0-6.21,1.31-8.83,3.92-2.62,2.62-4.58,6-5.89,10.14-2.62,8.07-3.92,15.48-3.92,22.24,0,4.14.54,8.39,1.63,12.75.21,1.31.43,2.4.65,3.27.21.87.33,1.53.33,1.96l1.96,6.54,1.63,5.89,2.62,5.89c.65,1.53,1.36,2.89,2.13,4.09.76,1.2,1.47,2.35,2.12,3.43l3.92,6.87c.87,1.31,2.72,4.41,5.56,9.32,2.83,4.9,5.45,10.09,7.85,15.53,2.18,4.58,3.81,8.88,4.91,12.92,1.09,4.04,2.07,8.89,2.94,14.55.65,5.45.98,11.45.98,17.99,0,10.46-1.42,20.27-4.25,29.43-3.92,10.9-9.6,18.53-17,22.89-4.14,2.62-8.94,3.92-14.39,3.92l-1.64.65c-2.4-.44-4.69-1.36-6.87-2.78ZM692.88,77.5c0-.21-.11-.33-.33-.33v.33h.33Z"/>
</svg>