<?xml version="1.0" encoding="UTF-8"?>
<svg id="Layer_1" data-name="Layer 1" xmlns="http://www.w3.org/2000/svg" viewBox="0 0 1444.8132 450.9294">
  <defs>
    <style>
      .cls-1 {
        fill: #000;
      }

      .cls-1, .cls-2 {
        stroke-width: 0px;
      }

      .cls-3 {
        fill: #272730;
      }

      .cls-3, .cls-4, .cls-5 {
        stroke-miterlimit: 10;
      }

      .cls-3, .cls-4, .cls-6 {
        stroke: #272730;
      }

      .cls-4 {
        fill: #2ee8a5;
        stroke-width: 4px;
      }

      .cls-5 {
        stroke: #4ad1a0;
        stroke-width: 4.9276px;
      }

      .cls-5, .cls-6 {
        fill: none;
        stroke-linecap: round;
      }

      .cls-2 {
        fill: #fff;
      }

      .cls-6 {
        fill-rule: evenodd;
        stroke-linejoin: round;
        stroke-width: 31px;
      }
    </style>
  </defs>
  <g>
    <path class="cls-3" d="M369.0688,158.8757c-.958,0-3.9668,11.8701-9.021,35.6055-5.0571,23.7383-7.5845,38.1084-7.5845,43.1113,0,8.7285.9307,14.8232,2.7944,18.2812,1.8608,3.4609,4.9219,5.1895,9.1807,5.1895,5.96,0,11.6807-1.0381,17.1641-3.1133,5.4814-2.0762,12.6938-6.7314,21.6353-13.9707,5.5337-4.5762,10.2188-6.8662,14.0508-6.8662,3.0859,0,5.561.8779,7.4243,2.6348,1.8613,1.7559,2.7944,3.8066,2.7944,6.1475,0,9.3672-7.5591,19.9854-22.6729,31.8535-15.1162,11.8672-31.083,17.8027-47.9004,17.8027-14.0508,0-24.7759-4.1514-32.1733-12.4541-7.3994-8.3027-11.0967-20.2227-11.0967-35.7656,0-14.3701,5.374-43.0557,16.1265-86.061-6.8135.7461-11.5508,1.1177-14.2104,1.1177h-3.353c-4.8975,0-9.8745-1.5967-14.9292-4.79-5.0566-3.1934-7.584-8.3027-7.584-15.3281,0-8.9414,5.0547-13.4121,15.1685-13.4121l34.1689-1.2773c4.4707-12.8784,9.2061-29.7505,14.2104-50.6147,2.979-12.9854,9.7397-19.4795,20.2778-19.4795,5.853,0,10.4307,1.7837,13.7314,5.3491,3.2983,3.5674,4.9497,7.5317,4.9497,11.895,0,1.7041-4.5254,18.1499-13.5718,49.3374,33.8496-2.979,52.4233-4.4707,55.7241-4.4707,5.6406,0,9.3657.8257,11.1768,2.4746,1.8086,1.6519,2.7144,4.8179,2.7144,9.5005,0,9.4751-8.0381,15.4878-24.1099,18.0425l-55.0854,9.2607Z"/>
    <path class="cls-3" d="M496.4838,209.3307l2.7144-5.1094c12.8784-25.8662,26.7441-46.8623,41.5938-62.9893,14.8486-16.126,29.3511-24.1895,43.5093-24.1895,10.8574,0,19.7192,2.9814,26.5845,8.9414,6.8662,5.9624,10.2988,13.0405,10.2988,21.2358,0,5.1094-1.1724,9.5005-3.5127,13.1724-2.3428,3.6729-5.5884,5.5088-9.7397,5.5088-6.6011,0-12.6138-2.7144-18.0425-8.1431-3.832-3.5127-6.8657-5.269-9.1011-5.269-7.9834,0-21.3433,12.4019-40.0767,37.2021-18.7358,24.8037-30.0176,52.6904-33.8496,83.667-1.1724,8.9414-3.7798,15.1934-7.8237,18.7607-4.0464,3.5645-9.5278,5.3486-16.4458,5.3486-7.3447,0-12.5615-4.1787-15.6475-12.5342-3.0884-8.3545-4.6304-22.0068-4.6304-40.9541,0-7.7695.2119-18.2549.6387-31.4551.4243-12.4541,1.6489-27.6748,3.6724-45.665.5312-4.6826.9033-8.355,1.1177-11.0171.958-10.4307,2.0483-17.5884,3.2729-21.4751,1.2227-3.8848,4.0718-7.5298,8.5425-10.9375,4.4707-3.4053,9.4204-5.1094,14.8491-5.1094,5.748,0,10.1113,1.6514,13.0928,4.9497,2.979,3.3008,4.4707,6.9204,4.4707,10.8574,0,5.0044-2.395,15.3828-7.1851,31.1353-1.7041,5.4287-3.1411,11.9229-4.311,19.4795l-3.9917,24.5889Z"/>
    <path class="cls-3" d="M731.8344,235.0378c-27.9966,36.9375-55.0332,55.4043-81.1113,55.4043-9.5801,0-17.8306-3.7773-24.7485-11.3359-6.9204-7.5576-10.3784-17.1895-10.3784-28.9004,0-28.2061,12.5591-58.252,37.6816-90.1328,25.1201-31.8784,50.4551-47.8203,76.002-47.8203,12.9854,0,21.5005,6.5464,25.5469,19.6392,12.2397,0,18.3618,4.6851,18.3618,14.0508,0,4.4707-1.1724,12.5615-3.5127,24.2695-4.2588,21.9292-6.3867,39.438-6.3867,52.5308,0,13.627.9307,23.207,2.7944,28.7402,1.8608,5.5361,3.2183,9.1562,4.0713,10.8574.8506,1.7041,3.4053,3.5127,7.6641,5.4287,4.2563,2.0234,6.3867,4.8447,6.3867,8.4619,0,5.4297-2.7417,9.9551-8.2227,13.5723-5.4839,3.6172-11.2046,5.4287-17.1646,5.4287-20.0132,0-29.0073-20.0635-26.9839-60.1943ZM722.2543,146.4216c-10.7524,0-24.7236,11.8955-41.9131,35.6855-17.1914,23.791-25.7861,43.9893-25.7861,60.5947,0,8.7285,1.8086,13.0918,5.4287,13.0918,12.5591,0,28.0215-11.1484,46.3838-33.4502,18.3613-22.2988,27.5425-41.8057,27.5425-58.5181,0-5.3213-1.1978-9.5527-3.5923-12.6938-2.3955-3.1382-5.0845-4.71-8.0635-4.71Z"/>
    <path class="cls-3" d="M860.8461,297.3073c-17.5635,0-30.9233-4.7891-40.0767-14.3691-9.1558-9.5801-13.7314-22.8857-13.7314-39.918,0-26.8242,10.9097-55.8291,32.7319-87.0186,21.8203-31.1875,43.2158-46.7827,64.1865-46.7827,10.1113,0,18.7344,5.0298,25.8672,15.0884,7.1289,10.0596,10.6973,20.5176,10.6973,31.375,0,10.2188-1.8906,17.1118-5.668,20.6768-3.7793,3.5674-7.4238,5.3486-10.9375,5.3486-10.3262,0-16.3408-7.1299-18.043-21.395-1.2773-10.4307-3.8867-15.6475-7.8232-15.6475-8.3027,0-19.2676,11.8154-32.8916,35.4458-13.627,23.6309-20.4375,44.3359-20.4375,62.1113,0,14.3701,7.7686,21.5557,23.3115,21.5557,17.1367,0,34.4336-6.0684,51.8916-18.2031,8.1953-5.8525,14.6895-8.7812,19.4805-8.7812,5.8516,0,8.7812,2.9287,8.7812,8.7812,0,8.1982-9.3945,18.8691-28.1816,32.0137-18.7881,13.1455-38.5078,19.7188-59.1572,19.7188Z"/>
    <path class="cls-3" d="M1127.0131,155.2033h.1592l-.3193.3193c-6.1748,3.4077-11.1768,6.3867-15.0088,8.9414-7.1328,4.79-14.3174,9.9541-21.5557,15.4878-8.3027,6.3867-14.5293,11.7627-18.6807,16.126-3.5127,3.6201-5.2686,6.2822-5.2686,7.9834,0,1.917,6.2266,9.3955,18.6807,22.4336,12.4541,13.041,22.3262,22.3809,29.6182,28.0215,7.29,5.6436,14.5029,8.4629,21.6348,8.4629l7.0254-.1602c2.5547,0,4.6035.7734,6.1475,2.3154,1.542,1.5449,2.3154,3.8594,2.3154,6.9463,0,4.3652-2.7148,9.4199-8.1426,15.168-5.4297,5.748-14.7451,8.6221-27.9424,8.6221-7.7715,0-15.6475-2.8486-23.6309-8.542s-20.2256-18.5469-36.7236-38.5605c-13.2002-16.0713-20.3848-24.1094-21.5547-24.1094-.7461,0-2.9814,1.916-6.707,5.748-3.7266,3.832-6.1738,6.7607-7.3438,8.7812v.1602c-1.8115,8.8369-2.7148,20.3848-2.7148,34.6484,0,7.1318-2.1035,12.9326-6.3066,17.4033-4.2061,4.4707-9.3408,6.7061-15.4082,6.7061-6.2822,0-11.1768-1.7842-14.6895-5.3486-3.5127-3.5674-5.2695-7.1582-5.2695-10.7783,0-3.832,1.3301-12.2393,3.9922-25.2266,5.1094-25.2285,9.4199-58.7041,12.9336-100.4316,3.4053-33.3159,6.3867-59.3164,8.9414-77.998,2.5547-18.6807,4.8418-30.9204,6.8652-36.7236,2.0205-5.8003,5.1621-10.4307,9.4199-13.8906,4.2568-3.458,8.835-5.1895,13.7324-5.1895,4.6826,0,8.4346,1.9434,11.2559,5.8281,2.8193,3.8867,4.2314,8.5967,4.2314,14.1304,0,6.9204-4.4707,33.957-13.4121,81.1113l-3.832,20.9165h.1592c-4.6846,30.7637-7.0801,48.5391-7.1846,53.3291l49.0186-44.3877c25.0127-24.1621,43.374-36.2446,55.085-36.2446,11.2812,0,16.9248,4.5254,16.9248,13.5718,0,11.2842-5.4834,19.4272-16.4453,24.4292Z"/>
    <path class="cls-3" d="M1182.8959,182.5065v.1592c3.4053-19.3716,5.1094-30.4414,5.1094-33.2104,0-7.876,1.7285-14.4751,5.1895-19.7988,3.458-5.3213,8.2754-7.9834,14.4492-7.9834,7.2383,0,12.8789,1.7041,16.9258,5.1094,4.0439,3.4077,6.0664,7.2397,6.0664,11.4961,0,4.2588-1.9707,13.0405-5.9072,26.3452l-.958,3.5127c-5.8555,20.5449-9.3682,37.3096-10.5381,50.2959-1.1729,12.9873-1.7568,23.4707-1.7568,31.4541,0,6.4941,1.1182,15.1689,3.3535,26.0264.3193,1.916.4785,3.5117.4785,4.7891,0,2.4502-2.3145,5.748-6.9453,9.9004-4.6299,4.1504-9.6074,6.2266-14.9287,6.2266-14.0508,0-21.0762-10.6426-21.0762-31.9336,0-18.0947,2.5547-40.1289,7.6641-66.1025,1.0625-5.748,2.0205-11.1768,2.874-16.2861ZM1260.0151,51.2595c0,7.5591-3.4072,14.1855-10.2188,19.8789-6.8125,5.6953-12.7207,8.542-17.7227,8.542-6.3867,0-12.0547-2.6597-17.0049-7.9834-4.9492-5.3213-7.4248-10.6431-7.4248-15.9668,0-7.6641,2.4482-13.8638,7.3457-18.6016,4.8945-4.7349,11.9199-7.105,21.0762-7.105,7.1299,0,12.9053,2.103,17.3232,6.3071,4.416,4.2061,6.626,9.1807,6.626,14.9287Z"/>
    <path class="cls-3" d="M1330.5893,158.8757c-.959,0-3.9668,11.8701-9.0215,35.6055-5.0576,23.7383-7.584,38.1084-7.584,43.1113,0,8.7285.9297,14.8232,2.7939,18.2812,1.8613,3.4609,4.9219,5.1895,9.1807,5.1895,5.96,0,11.6807-1.0381,17.1641-3.1133,5.4814-2.0762,12.6934-6.7314,21.6348-13.9707,5.5342-4.5762,10.2188-6.8662,14.0508-6.8662,3.0869,0,5.5615.8779,7.4248,2.6348,1.8613,1.7559,2.7939,3.8066,2.7939,6.1475,0,9.3672-7.5586,19.9854-22.6719,31.8535-15.1162,11.8672-31.083,17.8027-47.9004,17.8027-14.0508,0-24.7764-4.1514-32.1738-12.4541-7.3994-8.3027-11.0967-20.2227-11.0967-35.7656,0-14.3701,5.374-43.0557,16.126-86.061-6.8125.7461-11.5508,1.1177-14.21,1.1177h-3.3525c-4.8975,0-9.875-1.5967-14.9297-4.79-5.0566-3.1934-7.584-8.3027-7.584-15.3281,0-8.9414,5.0547-13.4121,15.168-13.4121l34.1699-1.2773c4.4707-12.8784,9.2051-29.7505,14.21-50.6147,2.9785-12.9854,9.7393-19.4795,20.2783-19.4795,5.8525,0,10.4307,1.7837,13.7305,5.3491,3.2988,3.5674,4.9502,7.5317,4.9502,11.895,0,1.7041-4.5254,18.1499-13.5713,49.3374,33.8496-2.979,52.4229-4.4707,55.7236-4.4707,5.6406,0,9.3652.8257,11.1768,2.4746,1.8086,1.6519,2.7148,4.8179,2.7148,9.5005,0,9.4751-8.0391,15.4878-24.1104,18.0425l-55.085,9.2607Z"/>
  </g>
  <rect class="cls-4" x="2" y="56.2553" width="239.1134" height="239.1134" rx="57.0826" ry="57.0826"/>
  <path class="cls-6" d="M196.364,183.4356c0,41.315-33.4924,74.8073-74.8073,74.8073s-74.8073-33.4924-74.8073-74.8073,33.4924-74.8073,74.8073-74.8073"/>
  <g>
    <g>
      <path class="cls-2" d="M120.3466,133.4792c-14.3657,0-26.0527-11.687-26.0527-26.0527s11.687-26.0532,26.0527-26.0532,26.0527,11.687,26.0527,26.0527-11.687,26.0532-26.0527,26.0532Z"/>
      <path class="cls-1" d="M120.3466,81.1233v.5c14.2277,0,25.8029,11.5751,25.8029,25.8029,0,6.8631-2.692,13.3348-7.58,18.2229s-11.3597,7.58-18.2229,7.58c-14.2277,0-25.8029-11.5751-25.8029-25.8029,0-6.8631,2.692-13.3348,7.58-18.2229,4.888-4.8881,11.3597-7.58,18.2229-7.5801v-.5M120.3466,81.1233h0c-14.4666,0-26.3029,11.8363-26.3028,26.3029h0c0,14.4666,11.8363,26.3029,26.3029,26.3029h0c14.4666,0,26.3029-11.8363,26.3028-26.3029h0c0-14.4666-11.8363-26.3029-26.3029-26.3029h0Z"/>
    </g>
    <path class="cls-5" d="M110.0318,110.0106s4.8824,10.1716,11.7991,13.4265,24.8186-42.3138,24.8186-42.3138"/>
  </g>
</svg>