<?xml version="1.0" encoding="UTF-8"?>
<svg id="Layer_1" data-name="Layer 1" xmlns="http://www.w3.org/2000/svg" width="250.35" height="70.66" viewBox="0 0 250.35 70.66">
  <defs>
    <style>
      .cls-1 {
        fill: #000;
        stroke-width: 0px;
      }
    </style>
  </defs>
  <path class="cls-1" d="M36.91,48.55c-.32,1.13-.59,2.38-.82,3.74h-.88v-10.68h.95c.63,2.18,1.65,4.02,3.06,5.54,1.4,1.52,3.03,2.66,4.86,3.43,1.84.77,3.71,1.16,5.61,1.16,2.31,0,4.26-.59,5.85-1.77,1.59-1.18,2.38-2.81,2.38-4.9,0-1.27-.45-2.35-1.36-3.23-.91-.88-2.05-1.63-3.43-2.24-1.38-.61-3.21-1.3-5.47-2.07-2.63-.91-4.75-1.73-6.36-2.48-1.61-.75-2.97-1.72-4.08-2.92-1.11-1.2-1.67-2.69-1.67-4.45,0-1.68.52-3.1,1.56-4.28,1.04-1.18,2.45-2.07,4.22-2.69,1.77-.61,3.72-.92,5.85-.92,1.77,0,3.5.25,5.2.75,1.7.5,3.43,1.34,5.2,2.52.36-.18.7-.6,1.02-1.26.32-.66.5-1.28.54-1.87h.88v7.28h-.88c-1.5-2.18-3.31-3.8-5.44-4.86-2.13-1.06-4.31-1.6-6.53-1.6-2.45,0-4.48.43-6.09,1.29-1.61.86-2.41,2.11-2.41,3.74,0,1.18.43,2.19,1.29,3.03.86.84,1.94,1.54,3.23,2.11,1.29.57,3.05,1.24,5.27,2.01,2.72.95,4.91,1.81,6.56,2.58,1.65.77,3.06,1.8,4.22,3.09,1.16,1.29,1.73,2.87,1.73,4.73s-.52,3.57-1.56,5c-1.04,1.43-2.44,2.52-4.18,3.26-1.75.75-3.64,1.12-5.68,1.12-1.72,0-3.5-.32-5.34-.95-1.84-.63-3.49-1.58-4.96-2.82-1.47-1.25-2.55-2.75-3.23-4.52l1.7,1.63c-.32.91-.59,1.75-.82,2.52Z"/>
  <path class="cls-1" d="M69.14,21.69h-4.22v-.95h15.23v.95h-4.62c-.64,0-.95.36-.95,1.09v19.11c0,3.17.94,5.64,2.82,7.41,1.88,1.77,4.2,2.65,6.97,2.65,3.08,0,5.59-.91,7.51-2.72,1.93-1.81,2.89-4.28,2.89-7.41v-16.8c0-1.13-.24-1.97-.71-2.52-.48-.54-1.03-.82-1.67-.82h-2.92v-.95h12.1v.95h-2.92c-.45,0-.9.11-1.33.34-.43.23-.79.59-1.09,1.09-.3.5-.44,1.13-.44,1.9v15.91c0,3.99-1.08,6.98-3.23,8.98-2.15,2-5,2.99-8.53,2.99-4.35,0-7.76-.99-10.23-2.96-2.47-1.97-3.71-4.82-3.71-8.53v-18.63c0-.72-.32-1.09-.95-1.09Z"/>
  <path class="cls-1" d="M98.38,52.02v-.95c1.13,0,2.07-.18,2.82-.54.75-.36,1.35-.86,1.8-1.5.45-.63.91-1.47,1.36-2.52l9.52-23.39-1.16-2.45h4.83l12.17,28.76c.23.5.52.9.88,1.19.36.29.84.44,1.43.44h3.33v.95h-15.16v-.95h4.35c.27,0,.46-.08.58-.24.11-.16.12-.4.03-.71l-10.74-25.64-10.13,24.62c-.18.5-.08.9.31,1.19.38.29,1.1.5,2.14.61,1.04.11,2.47.17,4.28.17v.95h-12.65ZM106.27,43.18l.48-.95h15.57l.27.95h-16.32Z"/>
  <path class="cls-1" d="M145.51,52.56l-12.38-29.24c-.18-.41-.47-.78-.85-1.12-.39-.34-.87-.51-1.46-.51h-3.33v-.95h15.23v.95h-4.35c-.32,0-.53.1-.65.31-.11.2-.1.42.03.65l10.68,25.64,10.13-24.62c.18-.5.11-.88-.2-1.16s-.99-.48-2.01-.61c-1.02-.14-2.53-.2-4.52-.2v-.95h12.58v.95c-1.22,0-2.22.22-2.99.65-.77.43-1.37.96-1.8,1.6-.43.64-.83,1.41-1.19,2.31l-11.02,26.32h-1.9Z"/>
  <path class="cls-1" d="M167.33,52.02v-.95h5.1c.63,0,.95-.36.95-1.09v-27.2c0-.72-.32-1.09-.95-1.09h-5.1v-.95h16.66v.95h-5.1c-.64,0-.95.36-.95,1.09v27.2c0,.73.32,1.09.95,1.09h5.1v.95h-16.66Z"/>
  <path class="cls-1" d="M191.27,48.55c-.32,1.13-.59,2.38-.82,3.74h-.88v-10.68h.95c.63,2.18,1.65,4.02,3.06,5.54s3.03,2.66,4.86,3.43c1.84.77,3.71,1.16,5.61,1.16,2.31,0,4.26-.59,5.85-1.77,1.59-1.18,2.38-2.81,2.38-4.9,0-1.27-.45-2.35-1.36-3.23-.91-.88-2.05-1.63-3.43-2.24-1.38-.61-3.21-1.3-5.47-2.07-2.63-.91-4.75-1.73-6.36-2.48-1.61-.75-2.97-1.72-4.08-2.92-1.11-1.2-1.67-2.69-1.67-4.45,0-1.68.52-3.1,1.56-4.28,1.04-1.18,2.45-2.07,4.22-2.69,1.77-.61,3.72-.92,5.85-.92,1.77,0,3.5.25,5.2.75,1.7.5,3.43,1.34,5.2,2.52.36-.18.7-.6,1.02-1.26.32-.66.5-1.28.54-1.87h.88v7.28h-.88c-1.5-2.18-3.31-3.8-5.44-4.86-2.13-1.06-4.31-1.6-6.53-1.6-2.45,0-4.48.43-6.09,1.29-1.61.86-2.41,2.11-2.41,3.74,0,1.18.43,2.19,1.29,3.03.86.84,1.94,1.54,3.23,2.11,1.29.57,3.05,1.24,5.27,2.01,2.72.95,4.91,1.81,6.56,2.58,1.65.77,3.06,1.8,4.22,3.09,1.16,1.29,1.73,2.87,1.73,4.73s-.52,3.57-1.56,5c-1.04,1.43-2.44,2.52-4.18,3.26-1.75.75-3.64,1.12-5.68,1.12-1.72,0-3.5-.32-5.34-.95-1.84-.63-3.49-1.58-4.96-2.82-1.47-1.25-2.55-2.75-3.23-4.52l1.7,1.63c-.32.91-.59,1.75-.82,2.52Z"/>
</svg>